<?xml version="1.0" encoding="UTF-8" standalone="no"?>
<!DOCTYPE svg PUBLIC "-//W3C//DTD SVG 1.1//EN"
 "http://www.w3.org/Graphics/SVG/1.1/DTD/svg11.dtd">
<!-- Generated by graphviz version 2.44.1 (0)
 -->
<!-- Title: basic_work_queue_single Pages: 1 -->
<svg width="596pt" height="378pt"
 viewBox="0.00 0.00 596.00 378.00" xmlns="http://www.w3.org/2000/svg" xmlns:xlink="http://www.w3.org/1999/xlink">
<g id="graph0" class="graph" transform="scale(1 1) rotate(0) translate(4 374)">
<title>basic_work_queue_single</title>
<polygon fill="white" stroke="transparent" points="-4,4 -4,-374 592,-374 592,4 -4,4"/>
<!-- Node1 -->
<g id="node1" class="node">
<title>Node1</title>
<g id="a_node1"><a xlink:title=" ">
<polygon fill="#bfbfbf" stroke="black" points="259.5,-0.5 259.5,-19.5 400.5,-19.5 400.5,-0.5 259.5,-0.5"/>
<text text-anchor="middle" x="330" y="-7.5" font-family="Helvetica,sans-Serif" font-size="10.00">basic_work_queue_single</text>
</a>
</g>
</g>
<!-- Node2 -->
<g id="node2" class="node">
<title>Node2</title>
<g id="a_node2"><a xlink:href="classbasic__work__queue.html" target="_top" xlink:title=" ">
<polygon fill="white" stroke="black" points="337.5,-135.5 337.5,-154.5 444.5,-154.5 444.5,-135.5 337.5,-135.5"/>
<text text-anchor="middle" x="391" y="-142.5" font-family="Helvetica,sans-Serif" font-size="10.00">basic_work_queue</text>
</a>
</g>
</g>
<!-- Node2&#45;&gt;Node1 -->
<g id="edge1" class="edge">
<title>Node2&#45;&gt;Node1</title>
<path fill="none" stroke="midnightblue" d="M390.1,-125.08C388.24,-102.64 382.52,-64.91 365,-38 360.14,-30.54 352.5,-24.3 345.6,-19.7"/>
<polygon fill="midnightblue" stroke="midnightblue" points="386.62,-125.52 390.77,-135.27 393.61,-125.07 386.62,-125.52"/>
</g>
<!-- Node7 -->
<g id="node7" class="node">
<title>Node7</title>
<g id="a_node7"><a xlink:href="classwork__queue__task.html" target="_top" xlink:title=" ">
<polygon fill="white" stroke="black" points="219,-67.5 219,-86.5 321,-86.5 321,-67.5 219,-67.5"/>
<text text-anchor="middle" x="270" y="-74.5" font-family="Helvetica,sans-Serif" font-size="10.00">work_queue_task</text>
</a>
</g>
</g>
<!-- Node2&#45;&gt;Node7 -->
<g id="edge14" class="edge">
<title>Node2&#45;&gt;Node7</title>
<path fill="none" stroke="#9a32cd" stroke-dasharray="5,2" d="M327.32,-136.26C302.7,-131.86 278.6,-125.33 271,-116 264.33,-107.82 265.61,-95.02 267.5,-86.57"/>
<polygon fill="#9a32cd" stroke="#9a32cd" points="327.05,-139.76 337.49,-137.96 328.2,-132.86 327.05,-139.76"/>
<text text-anchor="middle" x="324" y="-108" font-family="Helvetica,sans-Serif" font-size="10.00"> m_parentWorkQueue</text>
</g>
<!-- Node3 -->
<g id="node3" class="node">
<title>Node3</title>
<g id="a_node3"><a xlink:href="classbasic__mutex.html" target="_top" xlink:title=" ">
<polygon fill="white" stroke="black" points="469.5,-225.5 469.5,-244.5 548.5,-244.5 548.5,-225.5 469.5,-225.5"/>
<text text-anchor="middle" x="509" y="-232.5" font-family="Helvetica,sans-Serif" font-size="10.00">basic_mutex</text>
</a>
</g>
</g>
<!-- Node3&#45;&gt;Node2 -->
<g id="edge2" class="edge">
<title>Node3&#45;&gt;Node2</title>
<path fill="none" stroke="#9a32cd" stroke-dasharray="5,2" d="M509.41,-215.05C508.65,-201.89 505.47,-184.83 495,-174 481.81,-160.36 462.73,-153.13 444.5,-149.38"/>
<polygon fill="#9a32cd" stroke="#9a32cd" points="505.91,-215.42 509.56,-225.37 512.91,-215.32 505.91,-215.42"/>
<text text-anchor="middle" x="548" y="-193.5" font-family="Helvetica,sans-Serif" font-size="10.00"> m_ThreadJob</text>
<text text-anchor="middle" x="548" y="-182.5" font-family="Helvetica,sans-Serif" font-size="10.00">m_ThreadStatus</text>
</g>
<!-- Node4 -->
<g id="node4" class="node">
<title>Node4</title>
<g id="a_node4"><a xlink:href="classbasic__semaphore.html" target="_top" xlink:title=" ">
<polygon fill="white" stroke="black" points="343,-288 343,-307 445,-307 445,-288 343,-288"/>
<text text-anchor="middle" x="394" y="-295" font-family="Helvetica,sans-Serif" font-size="10.00">basic_semaphore</text>
</a>
</g>
</g>
<!-- Node4&#45;&gt;Node3 -->
<g id="edge3" class="edge">
<title>Node4&#45;&gt;Node3</title>
<path fill="none" stroke="midnightblue" d="M419.38,-283.15C441.67,-271.42 473.44,-254.71 492.55,-244.65"/>
<polygon fill="midnightblue" stroke="midnightblue" points="417.7,-280.08 410.48,-287.83 420.96,-286.27 417.7,-280.08"/>
</g>
<!-- Node10 -->
<g id="node10" class="node">
<title>Node10</title>
<g id="a_node10"><a xlink:href="classbasic__binary__semaphore.html" target="_top" xlink:title=" ">
<polygon fill="white" stroke="black" points="210,-225.5 210,-244.5 348,-244.5 348,-225.5 210,-225.5"/>
<text text-anchor="middle" x="279" y="-232.5" font-family="Helvetica,sans-Serif" font-size="10.00">basic_binary_semaphore</text>
</a>
</g>
</g>
<!-- Node4&#45;&gt;Node10 -->
<g id="edge10" class="edge">
<title>Node4&#45;&gt;Node10</title>
<path fill="none" stroke="midnightblue" d="M368.62,-283.15C346.33,-271.42 314.56,-254.71 295.45,-244.65"/>
<polygon fill="midnightblue" stroke="midnightblue" points="367.04,-286.27 377.52,-287.83 370.3,-280.08 367.04,-286.27"/>
</g>
<!-- Node5 -->
<g id="node5" class="node">
<title>Node5</title>
<g id="a_node5"><a xlink:href="class_i_lock_object.html" target="_top" xlink:title=" ">
<polygon fill="white" stroke="black" points="357,-350.5 357,-369.5 431,-369.5 431,-350.5 357,-350.5"/>
<text text-anchor="middle" x="394" y="-357.5" font-family="Helvetica,sans-Serif" font-size="10.00">ILockObject</text>
</a>
</g>
</g>
<!-- Node5&#45;&gt;Node4 -->
<g id="edge4" class="edge">
<title>Node5&#45;&gt;Node4</title>
<path fill="none" stroke="midnightblue" d="M394,-340C394,-329 394,-315.68 394,-307.15"/>
<polygon fill="midnightblue" stroke="midnightblue" points="390.5,-340.33 394,-350.33 397.5,-340.33 390.5,-340.33"/>
</g>
<!-- Node6 -->
<g id="node6" class="node">
<title>Node6</title>
<g id="a_node6"><a xlink:href="classbasic__queue.html" target="_top" xlink:title=" ">
<polygon fill="white" stroke="black" points="366.5,-225.5 366.5,-244.5 443.5,-244.5 443.5,-225.5 366.5,-225.5"/>
<text text-anchor="middle" x="405" y="-232.5" font-family="Helvetica,sans-Serif" font-size="10.00">basic_queue</text>
</a>
</g>
</g>
<!-- Node6&#45;&gt;Node2 -->
<g id="edge5" class="edge">
<title>Node6&#45;&gt;Node2</title>
<path fill="none" stroke="#9a32cd" stroke-dasharray="5,2" d="M395.2,-216.39C393.89,-213.34 392.74,-210.14 392,-207 387.7,-188.86 388.84,-166.83 389.97,-154.83"/>
<polygon fill="#9a32cd" stroke="#9a32cd" points="392.07,-217.96 399.65,-225.36 398.34,-214.85 392.07,-217.96"/>
<text text-anchor="middle" x="443.5" y="-188" font-family="Helvetica,sans-Serif" font-size="10.00"> m_pWorkItemQueue</text>
</g>
<!-- Node7&#45;&gt;Node1 -->
<g id="edge6" class="edge">
<title>Node7&#45;&gt;Node1</title>
<path fill="none" stroke="#9a32cd" stroke-dasharray="5,2" d="M285.11,-59.63C296.84,-46.92 312.65,-29.8 322.04,-19.63"/>
<polygon fill="#9a32cd" stroke="#9a32cd" points="282.3,-57.51 278.09,-67.23 287.45,-62.26 282.3,-57.51"/>
<text text-anchor="middle" x="332" y="-41" font-family="Helvetica,sans-Serif" font-size="10.00"> m_pWorker</text>
</g>
<!-- Node8 -->
<g id="node8" class="node">
<title>Node8</title>
<g id="a_node8"><a xlink:href="classbasic__task.html" target="_top" xlink:title=" ">
<polygon fill="white" stroke="black" points="161,-135.5 161,-154.5 229,-154.5 229,-135.5 161,-135.5"/>
<text text-anchor="middle" x="195" y="-142.5" font-family="Helvetica,sans-Serif" font-size="10.00">basic_task</text>
</a>
</g>
</g>
<!-- Node8&#45;&gt;Node7 -->
<g id="edge7" class="edge">
<title>Node8&#45;&gt;Node7</title>
<path fill="none" stroke="midnightblue" d="M212.71,-128.41C227.45,-115.45 247.89,-97.46 259.95,-86.84"/>
<polygon fill="midnightblue" stroke="midnightblue" points="210,-126.14 204.8,-135.37 214.62,-131.39 210,-126.14"/>
</g>
<!-- Node8&#45;&gt;Node8 -->
<g id="edge13" class="edge">
<title>Node8&#45;&gt;Node8</title>
<path fill="none" stroke="#9a32cd" stroke-dasharray="5,2" d="M239.15,-150.33C243.92,-149.31 247,-147.53 247,-145 247,-140.95 239.13,-138.83 229.01,-138.64"/>
<polygon fill="#9a32cd" stroke="#9a32cd" points="238.6,-146.87 229.01,-151.36 239.31,-153.83 238.6,-146.87"/>
<text text-anchor="middle" x="273" y="-148" font-family="Helvetica,sans-Serif" font-size="10.00"> m_pChild</text>
<text text-anchor="middle" x="273" y="-137" font-family="Helvetica,sans-Serif" font-size="10.00">m_pParent</text>
</g>
<!-- Node9 -->
<g id="node9" class="node">
<title>Node9</title>
<g id="a_node9"><a xlink:href="classbasic__event__group.html" target="_top" xlink:title=" ">
<polygon fill="white" stroke="black" points="0,-225.5 0,-244.5 108,-244.5 108,-225.5 0,-225.5"/>
<text text-anchor="middle" x="54" y="-232.5" font-family="Helvetica,sans-Serif" font-size="10.00">basic_event_group</text>
</a>
</g>
</g>
<!-- Node9&#45;&gt;Node8 -->
<g id="edge8" class="edge">
<title>Node9&#45;&gt;Node8</title>
<path fill="none" stroke="#9a32cd" stroke-dasharray="5,2" d="M68.89,-217.67C81.67,-204.44 101.11,-186.09 121,-174 134.62,-165.73 151.09,-159.2 165.03,-154.54"/>
<polygon fill="#9a32cd" stroke="#9a32cd" points="66.17,-215.46 61.86,-225.13 71.26,-220.25 66.17,-215.46"/>
<text text-anchor="middle" x="144" y="-188" font-family="Helvetica,sans-Serif" font-size="10.00"> m_event</text>
</g>
<!-- Node10&#45;&gt;Node8 -->
<g id="edge9" class="edge">
<title>Node10&#45;&gt;Node8</title>
<path fill="none" stroke="#9a32cd" stroke-dasharray="5,2" d="M273.22,-215.53C268.41,-202.62 260.5,-185.67 249,-174 240.7,-165.58 229.32,-159.16 219.16,-154.61"/>
<polygon fill="#9a32cd" stroke="#9a32cd" points="269.98,-216.89 276.53,-225.22 276.61,-214.63 269.98,-216.89"/>
<text text-anchor="middle" x="315" y="-199" font-family="Helvetica,sans-Serif" font-size="10.00"> m_contextMutext</text>
<text text-anchor="middle" x="315" y="-188" font-family="Helvetica,sans-Serif" font-size="10.00">m_continuemutex</text>
<text text-anchor="middle" x="315" y="-177" font-family="Helvetica,sans-Serif" font-size="10.00">m_runningMutex</text>
</g>
<!-- Node11 -->
<g id="node11" class="node">
<title>Node11</title>
<g id="a_node11"><a xlink:title="STL class.">
<polygon fill="white" stroke="#bfbfbf" points="126.5,-225.5 126.5,-244.5 191.5,-244.5 191.5,-225.5 126.5,-225.5"/>
<text text-anchor="middle" x="159" y="-232.5" font-family="Helvetica,sans-Serif" font-size="10.00">std::string</text>
</a>
</g>
</g>
<!-- Node11&#45;&gt;Node8 -->
<g id="edge11" class="edge">
<title>Node11&#45;&gt;Node8</title>
<path fill="none" stroke="#9a32cd" stroke-dasharray="5,2" d="M166.46,-215.77C174.1,-197.09 185.65,-168.87 191.43,-154.72"/>
<polygon fill="#9a32cd" stroke="#9a32cd" points="163.13,-214.66 162.58,-225.24 169.61,-217.31 163.13,-214.66"/>
<text text-anchor="middle" x="214.5" y="-188" font-family="Helvetica,sans-Serif" font-size="10.00"> m_strName</text>
</g>
<!-- Node12 -->
<g id="node12" class="node">
<title>Node12</title>
<g id="a_node12"><a xlink:title="STL class.">
<polygon fill="white" stroke="#bfbfbf" points="107,-282.5 107,-312.5 211,-312.5 211,-282.5 107,-282.5"/>
<text text-anchor="start" x="115" y="-300.5" font-family="Helvetica,sans-Serif" font-size="10.00">std::basic_string&lt;</text>
<text text-anchor="middle" x="159" y="-289.5" font-family="Helvetica,sans-Serif" font-size="10.00"> char &gt;</text>
</a>
</g>
</g>
<!-- Node12&#45;&gt;Node11 -->
<g id="edge12" class="edge">
<title>Node12&#45;&gt;Node11</title>
<path fill="none" stroke="midnightblue" d="M159,-272.35C159,-262.51 159,-251.78 159,-244.54"/>
<polygon fill="midnightblue" stroke="midnightblue" points="155.5,-272.47 159,-282.47 162.5,-272.47 155.5,-272.47"/>
</g>
</g>
</svg>
