<?xml version="1.0" encoding="UTF-8" standalone="no"?>
<!DOCTYPE svg PUBLIC "-//W3C//DTD SVG 1.1//EN"
 "http://www.w3.org/Graphics/SVG/1.1/DTD/svg11.dtd">
<!-- Generated by graphviz version 2.46.0 (0)
 -->
<!-- Title: mn::net::basic_dgram_ip6_socket Pages: 1 -->
<svg width="374pt" height="320pt"
 viewBox="0.00 0.00 374.00 320.00" xmlns="http://www.w3.org/2000/svg" xmlns:xlink="http://www.w3.org/1999/xlink">
<g id="graph0" class="graph" transform="scale(1 1) rotate(0) translate(4 316)">
<title>mn::net::basic_dgram_ip6_socket</title>
<polygon fill="white" stroke="transparent" points="-4,4 -4,-316 370,-316 370,4 -4,4"/>
<!-- Node1 -->
<g id="node1" class="node">
<title>Node1</title>
<g id="a_node1"><a xlink:title=" ">
<polygon fill="#bfbfbf" stroke="black" points="188.5,-0.5 188.5,-30.5 310.5,-30.5 310.5,-0.5 188.5,-0.5"/>
<text text-anchor="start" x="196.5" y="-18.5" font-family="Helvetica,sans-Serif" font-size="10.00">mn::net::basic_dgram</text>
<text text-anchor="middle" x="249.5" y="-7.5" font-family="Helvetica,sans-Serif" font-size="10.00">_ip6_socket</text>
</a>
</g>
</g>
<!-- Node2 -->
<g id="node2" class="node">
<title>Node2</title>
<g id="a_node2"><a xlink:href="classmn_1_1net_1_1basic__ip6__socket.html" target="_top" xlink:title=" ">
<polygon fill="white" stroke="black" points="151.5,-68.5 151.5,-98.5 257.5,-98.5 257.5,-68.5 151.5,-68.5"/>
<text text-anchor="start" x="159.5" y="-86.5" font-family="Helvetica,sans-Serif" font-size="10.00">mn::net::basic_ip6</text>
<text text-anchor="middle" x="204.5" y="-75.5" font-family="Helvetica,sans-Serif" font-size="10.00">_socket</text>
</a>
</g>
</g>
<!-- Node2&#45;&gt;Node1 -->
<g id="edge1" class="edge">
<title>Node2&#45;&gt;Node1</title>
<path fill="none" stroke="midnightblue" d="M219.97,-59.81C226.53,-50.19 233.98,-39.26 239.75,-30.79"/>
<polygon fill="midnightblue" stroke="midnightblue" points="217.01,-57.94 214.26,-68.18 222.79,-61.89 217.01,-57.94"/>
</g>
<!-- Node3 -->
<g id="node3" class="node">
<title>Node3</title>
<g id="a_node3"><a xlink:href="classmn_1_1net_1_1basic__ip__socket.html" target="_top" xlink:title="Wrapper class around lwip implementation of a socket.">
<polygon fill="white" stroke="black" points="0,-152 0,-171 137,-171 137,-152 0,-152"/>
<text text-anchor="middle" x="68.5" y="-159" font-family="Helvetica,sans-Serif" font-size="10.00">mn::net::basic_ip_socket</text>
</a>
</g>
</g>
<!-- Node3&#45;&gt;Node2 -->
<g id="edge2" class="edge">
<title>Node3&#45;&gt;Node2</title>
<path fill="none" stroke="midnightblue" d="M92.8,-146.92C117.19,-133.29 154.6,-112.39 179.3,-98.58"/>
<polygon fill="midnightblue" stroke="midnightblue" points="90.86,-144 83.84,-151.93 94.27,-150.11 90.86,-144"/>
</g>
<!-- Node4 -->
<g id="node4" class="node">
<title>Node4</title>
<g id="a_node4"><a xlink:href="classmn_1_1net_1_1basic__ip6__endpoint.html" target="_top" xlink:title=" ">
<polygon fill="white" stroke="black" points="155.5,-146.5 155.5,-176.5 261.5,-176.5 261.5,-146.5 155.5,-146.5"/>
<text text-anchor="start" x="163.5" y="-164.5" font-family="Helvetica,sans-Serif" font-size="10.00">mn::net::basic_ip6</text>
<text text-anchor="middle" x="208.5" y="-153.5" font-family="Helvetica,sans-Serif" font-size="10.00">_endpoint</text>
</a>
</g>
</g>
<!-- Node4&#45;&gt;Node2 -->
<g id="edge3" class="edge">
<title>Node4&#45;&gt;Node2</title>
<path fill="none" stroke="#9a32cd" stroke-dasharray="5,2" d="M206.06,-136.09C205.85,-133.36 205.65,-130.62 205.5,-128 204.94,-118.2 204.69,-107.13 204.58,-98.62"/>
<polygon fill="#9a32cd" stroke="#9a32cd" points="202.6,-136.63 206.97,-146.28 209.57,-136.01 202.6,-136.63"/>
<text text-anchor="middle" x="239" y="-120" font-family="Helvetica,sans-Serif" font-size="10.00"> m_pEndPoint</text>
</g>
<!-- Node5 -->
<g id="node5" class="node">
<title>Node5</title>
<g id="a_node5"><a xlink:href="classmn_1_1net_1_1basic__endpoint.html" target="_top" xlink:title=" ">
<polygon fill="white" stroke="black" points="89.5,-230 89.5,-249 223.5,-249 223.5,-230 89.5,-230"/>
<text text-anchor="middle" x="156.5" y="-237" font-family="Helvetica,sans-Serif" font-size="10.00">mn::net::basic_endpoint</text>
</a>
</g>
</g>
<!-- Node5&#45;&gt;Node4 -->
<g id="edge4" class="edge">
<title>Node5&#45;&gt;Node4</title>
<path fill="none" stroke="midnightblue" d="M168.22,-221.37C177.48,-207.83 190.25,-189.17 198.91,-176.52"/>
<polygon fill="midnightblue" stroke="midnightblue" points="165.22,-219.55 162.47,-229.78 171,-223.51 165.22,-219.55"/>
</g>
<!-- Node6 -->
<g id="node6" class="node">
<title>Node6</title>
<g id="a_node6"><a xlink:href="classmn_1_1net_1_1basic__ip6__address.html" target="_top" xlink:title="Class for the Internet Protocal version 6.">
<polygon fill="white" stroke="black" points="241.5,-224.5 241.5,-254.5 347.5,-254.5 347.5,-224.5 241.5,-224.5"/>
<text text-anchor="start" x="249.5" y="-242.5" font-family="Helvetica,sans-Serif" font-size="10.00">mn::net::basic_ip6</text>
<text text-anchor="middle" x="294.5" y="-231.5" font-family="Helvetica,sans-Serif" font-size="10.00">_address</text>
</a>
</g>
</g>
<!-- Node6&#45;&gt;Node1 -->
<g id="edge7" class="edge">
<title>Node6&#45;&gt;Node1</title>
<path fill="none" stroke="#9a32cd" stroke-dasharray="5,2" d="M291.7,-214.03C287.61,-180.7 279.1,-119.3 266.5,-68 263.36,-55.2 258.57,-41 254.87,-30.75"/>
<polygon fill="#9a32cd" stroke="#9a32cd" points="288.25,-214.69 292.92,-224.2 295.21,-213.86 288.25,-214.69"/>
<text text-anchor="middle" x="315.5" y="-120" font-family="Helvetica,sans-Serif" font-size="10.00"> m_ipMultiCast</text>
</g>
<!-- Node6&#45;&gt;Node4 -->
<g id="edge5" class="edge">
<title>Node6&#45;&gt;Node4</title>
<path fill="none" stroke="#9a32cd" stroke-dasharray="5,2" d="M235.3,-219.36C229.39,-215.64 223.95,-211.23 219.5,-206 212.64,-197.93 209.96,-186.16 208.96,-176.89"/>
<polygon fill="#9a32cd" stroke="#9a32cd" points="233.78,-222.52 244.22,-224.33 237.18,-216.41 233.78,-222.52"/>
<text text-anchor="middle" x="250" y="-198" font-family="Helvetica,sans-Serif" font-size="10.00"> m_ipAdress</text>
</g>
<!-- Node7 -->
<g id="node7" class="node">
<title>Node7</title>
<g id="a_node7"><a xlink:href="classmn_1_1net_1_1basic__ip__address.html" target="_top" xlink:title="Wrapper class around lwip implementation of a ip address.">
<polygon fill="white" stroke="black" points="223,-292.5 223,-311.5 366,-311.5 366,-292.5 223,-292.5"/>
<text text-anchor="middle" x="294.5" y="-299.5" font-family="Helvetica,sans-Serif" font-size="10.00">mn::net::basic_ip_address</text>
</a>
</g>
</g>
<!-- Node7&#45;&gt;Node6 -->
<g id="edge6" class="edge">
<title>Node7&#45;&gt;Node6</title>
<path fill="none" stroke="midnightblue" d="M294.5,-282.22C294.5,-273.36 294.5,-262.96 294.5,-254.76"/>
<polygon fill="midnightblue" stroke="midnightblue" points="291,-282.33 294.5,-292.33 298,-282.33 291,-282.33"/>
</g>
</g>
</svg>
