<?xml version="1.0" encoding="UTF-8" standalone="no"?>
<!DOCTYPE svg PUBLIC "-//W3C//DTD SVG 1.1//EN"
 "http://www.w3.org/Graphics/SVG/1.1/DTD/svg11.dtd">
<!-- Generated by graphviz version 2.47.3 (0)
 -->
<!-- Title: mn::container::basic_light_map&lt; TKey, TValue, TALLOCATOR, TPairType, TContainer &gt; Pages: 1 -->
<svg width="1139pt" height="61pt"
 viewBox="0.00 0.00 1139.00 61.00" xmlns="http://www.w3.org/2000/svg" xmlns:xlink="http://www.w3.org/1999/xlink">
<g id="graph0" class="graph" transform="scale(1 1) rotate(0) translate(4 57)">
<title>mn::container::basic_light_map&lt; TKey, TValue, TALLOCATOR, TPairType, TContainer &gt;</title>
<polygon fill="white" stroke="transparent" points="-4,4 -4,-57 1135,-57 1135,4 -4,4"/>
<!-- Node1 -->
<g id="node1" class="node">
<title>Node1</title>
<g id="a_node1"><a xlink:title="Lightweight c++11 dictionary map implementation.">
<polygon fill="#bfbfbf" stroke="black" points="983,-0.5 983,-52.5 1131,-52.5 1131,-0.5 983,-0.5"/>
<text text-anchor="start" x="991" y="-40.5" font-family="Helvetica,sans-Serif" font-size="10.00">mn::container::basic</text>
<text text-anchor="start" x="991" y="-29.5" font-family="Helvetica,sans-Serif" font-size="10.00">_light_map&lt; TKey, TValue,</text>
<text text-anchor="start" x="991" y="-18.5" font-family="Helvetica,sans-Serif" font-size="10.00"> TALLOCATOR, TPairType,</text>
<text text-anchor="middle" x="1057" y="-7.5" font-family="Helvetica,sans-Serif" font-size="10.00"> TContainer &gt;</text>
</a>
</g>
</g>
<!-- Node2 -->
<g id="node2" class="node">
<title>Node2</title>
<g id="a_node2"><a xlink:href="classmn_1_1container_1_1basic__vector.html" target="_top" xlink:title=" ">
<polygon fill="white" stroke="black" points="711,-0.5 711,-52.5 871,-52.5 871,-0.5 711,-0.5"/>
<text text-anchor="start" x="719" y="-40.5" font-family="Helvetica,sans-Serif" font-size="10.00">mn::container::basic</text>
<text text-anchor="start" x="719" y="-29.5" font-family="Helvetica,sans-Serif" font-size="10.00">_vector&lt; mn::container</text>
<text text-anchor="start" x="719" y="-18.5" font-family="Helvetica,sans-Serif" font-size="10.00">::pair&lt; TKey, TValue &gt;,</text>
<text text-anchor="middle" x="791" y="-7.5" font-family="Helvetica,sans-Serif" font-size="10.00"> memory::default_allocator &gt;</text>
</a>
</g>
</g>
<!-- Node2&#45;&gt;Node1 -->
<g id="edge1" class="edge">
<title>Node2&#45;&gt;Node1</title>
<path fill="none" stroke="#9a32cd" stroke-dasharray="5,2" d="M881.31,-26.5C914.31,-26.5 951.3,-26.5 982.71,-26.5"/>
<polygon fill="#9a32cd" stroke="#9a32cd" points="881.21,-23 871.21,-26.5 881.21,-30 881.21,-23"/>
<text text-anchor="middle" x="927" y="-29.5" font-family="Helvetica,sans-Serif" font-size="10.00"> m_ayKeyValue</text>
</g>
<!-- Node3 -->
<g id="node3" class="node">
<title>Node3</title>
<g id="a_node3"><a xlink:href="structmn_1_1container_1_1basic__vector__storage.html" target="_top" xlink:title=" ">
<polygon fill="white" stroke="black" points="496,-11.5 496,-41.5 674,-41.5 674,-11.5 496,-11.5"/>
<text text-anchor="start" x="504" y="-29.5" font-family="Helvetica,sans-Serif" font-size="10.00">mn::container::basic</text>
<text text-anchor="middle" x="585" y="-18.5" font-family="Helvetica,sans-Serif" font-size="10.00">_vector_storage&lt; T, TAllocator &gt;</text>
</a>
</g>
</g>
<!-- Node3&#45;&gt;Node2 -->
<g id="edge2" class="edge">
<title>Node3&#45;&gt;Node2</title>
<path fill="none" stroke="#8b1a1a" d="M684.32,-26.5C693.23,-26.5 702.17,-26.5 710.88,-26.5"/>
<polygon fill="#8b1a1a" stroke="#8b1a1a" points="684.29,-23 674.29,-26.5 684.29,-30 684.29,-23"/>
</g>
<!-- Node4 -->
<g id="node4" class="node">
<title>Node4</title>
<g id="a_node4"><a xlink:href="classmn_1_1memory_1_1basic__allocator.html" target="_top" xlink:title=" ">
<polygon fill="white" stroke="black" points="241,-11.5 241,-41.5 399,-41.5 399,-11.5 241,-11.5"/>
<text text-anchor="start" x="249" y="-29.5" font-family="Helvetica,sans-Serif" font-size="10.00">mn::memory::basic_allocator</text>
<text text-anchor="middle" x="320" y="-18.5" font-family="Helvetica,sans-Serif" font-size="10.00">&lt; TAllocator, TFilter &gt;</text>
</a>
</g>
</g>
<!-- Node4&#45;&gt;Node3 -->
<g id="edge3" class="edge">
<title>Node4&#45;&gt;Node3</title>
<path fill="none" stroke="#9a32cd" stroke-dasharray="5,2" d="M409.34,-26.5C437.25,-26.5 468.08,-26.5 495.97,-26.5"/>
<polygon fill="#9a32cd" stroke="#9a32cd" points="409.2,-23 399.2,-26.5 409.2,-30 409.2,-23"/>
<text text-anchor="middle" x="447.5" y="-29.5" font-family="Helvetica,sans-Serif" font-size="10.00"> m_allocator</text>
</g>
<!-- Node5 -->
<g id="node5" class="node">
<title>Node5</title>
<g id="a_node5"><a xlink:href="classmn_1_1memory_1_1basic__allocator__filter.html" target="_top" xlink:title=" ">
<polygon fill="white" stroke="black" points="0,-11.5 0,-41.5 158,-41.5 158,-11.5 0,-11.5"/>
<text text-anchor="start" x="8" y="-29.5" font-family="Helvetica,sans-Serif" font-size="10.00">mn::memory::basic_allocator</text>
<text text-anchor="middle" x="79" y="-18.5" font-family="Helvetica,sans-Serif" font-size="10.00">_filter</text>
</a>
</g>
</g>
<!-- Node5&#45;&gt;Node4 -->
<g id="edge4" class="edge">
<title>Node5&#45;&gt;Node4</title>
<path fill="none" stroke="#9a32cd" stroke-dasharray="5,2" d="M168.35,-26.5C192.17,-26.5 217.76,-26.5 240.98,-26.5"/>
<polygon fill="#9a32cd" stroke="#9a32cd" points="168.26,-23 158.26,-26.5 168.26,-30 168.26,-23"/>
<text text-anchor="middle" x="199.5" y="-29.5" font-family="Helvetica,sans-Serif" font-size="10.00"> m_fFilter</text>
</g>
</g>
</svg>
