<?xml version="1.0" encoding="UTF-8" standalone="no"?>
<!DOCTYPE svg PUBLIC "-//W3C//DTD SVG 1.1//EN"
 "http://www.w3.org/Graphics/SVG/1.1/DTD/svg11.dtd">
<!-- Generated by graphviz version 2.46.0 (0)
 -->
<!-- Title: mn::container::basic_sorted_vector&lt; TKey, TValue, TAllocator, TCompare, TStorage &gt; Pages: 1 -->
<svg width="689pt" height="132pt"
 viewBox="0.00 0.00 689.00 132.00" xmlns="http://www.w3.org/2000/svg" xmlns:xlink="http://www.w3.org/1999/xlink">
<g id="graph0" class="graph" transform="scale(1 1) rotate(0) translate(4 128)">
<title>mn::container::basic_sorted_vector&lt; TKey, TValue, TAllocator, TCompare, TStorage &gt;</title>
<polygon fill="white" stroke="transparent" points="-4,4 -4,-128 685,-128 685,4 -4,4"/>
<!-- Node1 -->
<g id="node1" class="node">
<title>Node1</title>
<g id="a_node1"><a xlink:title=" ">
<polygon fill="#bfbfbf" stroke="black" points="515,-8 515,-60 681,-60 681,-8 515,-8"/>
<text text-anchor="start" x="523" y="-48" font-family="Helvetica,sans-Serif" font-size="10.00">mn::container::basic</text>
<text text-anchor="start" x="523" y="-37" font-family="Helvetica,sans-Serif" font-size="10.00">_sorted_vector&lt; TKey,</text>
<text text-anchor="start" x="523" y="-26" font-family="Helvetica,sans-Serif" font-size="10.00"> TValue, TAllocator, TCompare,</text>
<text text-anchor="middle" x="598" y="-15" font-family="Helvetica,sans-Serif" font-size="10.00"> TStorage &gt;</text>
</a>
</g>
</g>
<!-- Node2 -->
<g id="node2" class="node">
<title>Node2</title>
<g id="a_node2"><a xlink:href="classmn_1_1container_1_1basic__vector.html" target="_top" xlink:title=" ">
<polygon fill="white" stroke="black" points="215,-60.5 215,-123.5 418,-123.5 418,-60.5 215,-60.5"/>
<text text-anchor="start" x="223" y="-111.5" font-family="Helvetica,sans-Serif" font-size="10.00">mn::container::basic</text>
<text text-anchor="start" x="223" y="-100.5" font-family="Helvetica,sans-Serif" font-size="10.00">_vector&lt; basic_pair&lt;</text>
<text text-anchor="start" x="223" y="-89.5" font-family="Helvetica,sans-Serif" font-size="10.00"> TKey, TValue &gt;, TAllocator,</text>
<text text-anchor="start" x="223" y="-78.5" font-family="Helvetica,sans-Serif" font-size="10.00"> basic_vector_storage&lt; basic</text>
<text text-anchor="middle" x="316.5" y="-67.5" font-family="Helvetica,sans-Serif" font-size="10.00">_pair&lt; TKey, TValue &gt;, TAllocator &gt; &gt;</text>
</a>
</g>
</g>
<!-- Node2&#45;&gt;Node1 -->
<g id="edge1" class="edge">
<title>Node2&#45;&gt;Node1</title>
<path fill="none" stroke="#8b1a1a" d="M428.15,-69.04C457.06,-63.04 487.69,-56.68 514.83,-51.05"/>
<polygon fill="#8b1a1a" stroke="#8b1a1a" points="427.09,-65.68 418.01,-71.14 428.51,-72.54 427.09,-65.68"/>
</g>
<!-- Node3 -->
<g id="node3" class="node">
<title>Node3</title>
<g id="a_node3"><a xlink:href="structmn_1_1container_1_1basic__vector__storage.html" target="_top" xlink:title=" ">
<polygon fill="white" stroke="black" points="0,-77 0,-107 178,-107 178,-77 0,-77"/>
<text text-anchor="start" x="8" y="-95" font-family="Helvetica,sans-Serif" font-size="10.00">mn::container::basic</text>
<text text-anchor="middle" x="89" y="-84" font-family="Helvetica,sans-Serif" font-size="10.00">_vector_storage&lt; T, TAllocator &gt;</text>
</a>
</g>
</g>
<!-- Node3&#45;&gt;Node2 -->
<g id="edge2" class="edge">
<title>Node3&#45;&gt;Node2</title>
<path fill="none" stroke="#8b1a1a" d="M188.34,-92C197.08,-92 205.93,-92 214.69,-92"/>
<polygon fill="#8b1a1a" stroke="#8b1a1a" points="188.15,-88.5 178.15,-92 188.15,-95.5 188.15,-88.5"/>
</g>
<!-- Node4 -->
<g id="node4" class="node">
<title>Node4</title>
<g id="a_node4"><a xlink:href="structmn_1_1container_1_1internal_1_1compare__func.html" target="_top" xlink:title=" ">
<polygon fill="white" stroke="black" points="242,-0.5 242,-41.5 391,-41.5 391,-0.5 242,-0.5"/>
<text text-anchor="start" x="250" y="-29.5" font-family="Helvetica,sans-Serif" font-size="10.00">mn::container::internal</text>
<text text-anchor="start" x="250" y="-18.5" font-family="Helvetica,sans-Serif" font-size="10.00">::compare_func&lt; value</text>
<text text-anchor="middle" x="316.5" y="-7.5" font-family="Helvetica,sans-Serif" font-size="10.00">_type, mn::less&lt; TKey &gt; &gt;</text>
</a>
</g>
</g>
<!-- Node4&#45;&gt;Node1 -->
<g id="edge3" class="edge">
<title>Node4&#45;&gt;Node1</title>
<path fill="none" stroke="#9a32cd" stroke-dasharray="5,2" d="M401.74,-24.92C437.6,-26.59 479.28,-28.52 514.9,-30.18"/>
<polygon fill="#9a32cd" stroke="#9a32cd" points="401.45,-21.4 391.3,-24.43 401.13,-28.39 401.45,-21.4"/>
<text text-anchor="middle" x="466.5" y="-33" font-family="Helvetica,sans-Serif" font-size="10.00"> m_compare</text>
</g>
</g>
</svg>
