<?xml version="1.0" encoding="UTF-8" standalone="no"?>
<!DOCTYPE svg PUBLIC "-//W3C//DTD SVG 1.1//EN"
 "http://www.w3.org/Graphics/SVG/1.1/DTD/svg11.dtd">
<!-- Generated by graphviz version 2.46.0 (0)
 -->
<!-- Title: mn::memory::basic_mempool_vector&lt; TType, nElements, TMUTEX, TALLOCATOR &gt; Pages: 1 -->
<svg width="288pt" height="274pt"
 viewBox="0.00 0.00 287.50 274.00" xmlns="http://www.w3.org/2000/svg" xmlns:xlink="http://www.w3.org/1999/xlink">
<g id="graph0" class="graph" transform="scale(1 1) rotate(0) translate(4 270)">
<title>mn::memory::basic_mempool_vector&lt; TType, nElements, TMUTEX, TALLOCATOR &gt;</title>
<polygon fill="white" stroke="transparent" points="-4,4 -4,-270 283.5,-270 283.5,4 -4,4"/>
<!-- Node1 -->
<g id="node1" class="node">
<title>Node1</title>
<g id="a_node1"><a xlink:title=" ">
<polygon fill="#bfbfbf" stroke="black" points="59,-0.5 59,-41.5 221,-41.5 221,-0.5 59,-0.5"/>
<text text-anchor="start" x="67" y="-29.5" font-family="Helvetica,sans-Serif" font-size="10.00">mn::memory::basic_mempool</text>
<text text-anchor="start" x="67" y="-18.5" font-family="Helvetica,sans-Serif" font-size="10.00">_vector&lt; TType, nElements,</text>
<text text-anchor="middle" x="140" y="-7.5" font-family="Helvetica,sans-Serif" font-size="10.00"> TMUTEX, TALLOCATOR &gt;</text>
</a>
</g>
</g>
<!-- Node2 -->
<g id="node2" class="node">
<title>Node2</title>
<g id="a_node2"><a xlink:href="classmn_1_1basic__mutex.html" target="_top" xlink:title=" ">
<polygon fill="white" stroke="black" points="28.5,-95 28.5,-114 129.5,-114 129.5,-95 28.5,-95"/>
<text text-anchor="middle" x="79" y="-102" font-family="Helvetica,sans-Serif" font-size="10.00">mn::basic_mutex</text>
</a>
</g>
</g>
<!-- Node2&#45;&gt;Node1 -->
<g id="edge1" class="edge">
<title>Node2&#45;&gt;Node1</title>
<path fill="none" stroke="#9a32cd" stroke-dasharray="5,2" d="M91.6,-86.67C101.37,-73.62 114.93,-55.5 125.21,-41.76"/>
<polygon fill="#9a32cd" stroke="#9a32cd" points="88.72,-84.67 85.53,-94.78 94.32,-88.87 88.72,-84.67"/>
<text text-anchor="middle" x="137" y="-63" font-family="Helvetica,sans-Serif" font-size="10.00"> m_mutex</text>
</g>
<!-- Node3 -->
<g id="node3" class="node">
<title>Node3</title>
<g id="a_node3"><a xlink:href="classmn_1_1basic__semaphore.html" target="_top" xlink:title=" ">
<polygon fill="white" stroke="black" points="0,-178.5 0,-197.5 124,-197.5 124,-178.5 0,-178.5"/>
<text text-anchor="middle" x="62" y="-185.5" font-family="Helvetica,sans-Serif" font-size="10.00">mn::basic_semaphore</text>
</a>
</g>
</g>
<!-- Node3&#45;&gt;Node2 -->
<g id="edge2" class="edge">
<title>Node3&#45;&gt;Node2</title>
<path fill="none" stroke="midnightblue" d="M65.89,-168.36C69.43,-151.36 74.52,-126.99 77.19,-114.16"/>
<polygon fill="midnightblue" stroke="midnightblue" points="62.44,-167.77 63.82,-178.28 69.29,-169.2 62.44,-167.77"/>
</g>
<!-- Node4 -->
<g id="node4" class="node">
<title>Node4</title>
<g id="a_node4"><a xlink:href="classmn_1_1ILockObject.html" target="_top" xlink:title=" ">
<polygon fill="white" stroke="black" points="14.5,-246.5 14.5,-265.5 109.5,-265.5 109.5,-246.5 14.5,-246.5"/>
<text text-anchor="middle" x="62" y="-253.5" font-family="Helvetica,sans-Serif" font-size="10.00">mn::ILockObject</text>
</a>
</g>
</g>
<!-- Node4&#45;&gt;Node3 -->
<g id="edge3" class="edge">
<title>Node4&#45;&gt;Node3</title>
<path fill="none" stroke="midnightblue" d="M62,-236.04C62,-223.47 62,-207.56 62,-197.84"/>
<polygon fill="midnightblue" stroke="midnightblue" points="58.5,-236.37 62,-246.37 65.5,-236.37 58.5,-236.37"/>
</g>
<!-- Node5 -->
<g id="node5" class="node">
<title>Node5</title>
<g id="a_node5"><a xlink:title=" ">
<polygon fill="white" stroke="#bfbfbf" points="153.5,-89.5 153.5,-119.5 262.5,-119.5 262.5,-89.5 153.5,-89.5"/>
<text text-anchor="start" x="161.5" y="-107.5" font-family="Helvetica,sans-Serif" font-size="10.00">std::vector&lt; chunk</text>
<text text-anchor="middle" x="208" y="-96.5" font-family="Helvetica,sans-Serif" font-size="10.00">_pointer &gt;</text>
</a>
</g>
</g>
<!-- Node5&#45;&gt;Node1 -->
<g id="edge4" class="edge">
<title>Node5&#45;&gt;Node1</title>
<path fill="none" stroke="#9a32cd" stroke-dasharray="5,2" d="M189.73,-81.6C179.31,-69.11 166.36,-53.6 156.29,-41.53"/>
<polygon fill="#9a32cd" stroke="#9a32cd" points="187.06,-83.87 196.16,-89.3 192.44,-79.38 187.06,-83.87"/>
<text text-anchor="middle" x="211.5" y="-63" font-family="Helvetica,sans-Serif" font-size="10.00"> m_vChunks</text>
</g>
<!-- Node6 -->
<g id="node6" class="node">
<title>Node6</title>
<g id="a_node6"><a xlink:href="classmn_1_1memory_1_1vmempool__chunk.html" target="_top" xlink:title=" ">
<polygon fill="white" stroke="black" points="142.5,-167.5 142.5,-208.5 279.5,-208.5 279.5,-167.5 142.5,-167.5"/>
<text text-anchor="start" x="150.5" y="-196.5" font-family="Helvetica,sans-Serif" font-size="10.00">mn::memory::vmempool</text>
<text text-anchor="start" x="150.5" y="-185.5" font-family="Helvetica,sans-Serif" font-size="10.00">_chunk&lt; TBufferSize,</text>
<text text-anchor="middle" x="211" y="-174.5" font-family="Helvetica,sans-Serif" font-size="10.00"> TALLOCATOR &gt;</text>
</a>
</g>
</g>
<!-- Node6&#45;&gt;Node5 -->
<g id="edge5" class="edge">
<title>Node6&#45;&gt;Node5</title>
<path fill="none" stroke="#9a32cd" stroke-dasharray="5,2" d="M209.9,-157.03C209.43,-144.26 208.9,-129.97 208.52,-119.68"/>
<polygon fill="#9a32cd" stroke="#9a32cd" points="206.41,-157.41 210.27,-167.27 213.4,-157.15 206.41,-157.41"/>
<text text-anchor="middle" x="234.5" y="-141" font-family="Helvetica,sans-Serif" font-size="10.00"> elements</text>
</g>
</g>
</svg>
