<?xml version="1.0" encoding="UTF-8" standalone="no"?>
<!DOCTYPE svg PUBLIC "-//W3C//DTD SVG 1.1//EN"
 "http://www.w3.org/Graphics/SVG/1.1/DTD/svg11.dtd">
<!-- Generated by graphviz version 2.44.1 (0)
 -->
<!-- Title: basic_message_task Pages: 1 -->
<svg width="387pt" height="209pt"
 viewBox="0.00 0.00 386.50 209.00" xmlns="http://www.w3.org/2000/svg" xmlns:xlink="http://www.w3.org/1999/xlink">
<g id="graph0" class="graph" transform="scale(1 1) rotate(0) translate(4 205)">
<title>basic_message_task</title>
<polygon fill="white" stroke="transparent" points="-4,4 -4,-205 382.5,-205 382.5,4 -4,4"/>
<!-- Node1 -->
<g id="node1" class="node">
<title>Node1</title>
<g id="a_node1"><a xlink:title=" ">
<polygon fill="#bfbfbf" stroke="black" points="80.5,-0.5 80.5,-19.5 198.5,-19.5 198.5,-0.5 80.5,-0.5"/>
<text text-anchor="middle" x="139.5" y="-7.5" font-family="Helvetica,sans-Serif" font-size="10.00">basic_message_task</text>
</a>
</g>
</g>
<!-- Node2 -->
<g id="node2" class="node">
<title>Node2</title>
<g id="a_node2"><a xlink:title=" ">
<polygon fill="white" stroke="#bfbfbf" points="0,-67.5 0,-86.5 107,-86.5 107,-67.5 0,-67.5"/>
<text text-anchor="middle" x="53.5" y="-74.5" font-family="Helvetica,sans-Serif" font-size="10.00">basic_convar_task</text>
</a>
</g>
</g>
<!-- Node2&#45;&gt;Node1 -->
<g id="edge1" class="edge">
<title>Node2&#45;&gt;Node1</title>
<path fill="none" stroke="midnightblue" d="M73.26,-61.07C90.23,-48.24 114.12,-30.19 128.09,-19.63"/>
<polygon fill="midnightblue" stroke="midnightblue" points="70.97,-58.41 65.1,-67.23 75.19,-64 70.97,-58.41"/>
</g>
<!-- Node3 -->
<g id="node3" class="node">
<title>Node3</title>
<g id="a_node3"><a xlink:href="classbasic__mutex.html" target="_top" xlink:title=" ">
<polygon fill="white" stroke="black" points="125,-67.5 125,-86.5 204,-86.5 204,-67.5 125,-67.5"/>
<text text-anchor="middle" x="164.5" y="-74.5" font-family="Helvetica,sans-Serif" font-size="10.00">basic_mutex</text>
</a>
</g>
</g>
<!-- Node3&#45;&gt;Node1 -->
<g id="edge2" class="edge">
<title>Node3&#45;&gt;Node1</title>
<path fill="none" stroke="#9a32cd" stroke-dasharray="5,2" d="M146.93,-59.76C144.33,-56.47 142.01,-52.83 140.5,-49 136.76,-39.55 137.16,-27.72 138.07,-19.79"/>
<polygon fill="#9a32cd" stroke="#9a32cd" points="144.38,-62.16 153.72,-67.16 149.54,-57.43 144.38,-62.16"/>
<text text-anchor="middle" x="202" y="-41" font-family="Helvetica,sans-Serif" font-size="10.00"> m_ltMessageQueueLock</text>
</g>
<!-- Node4 -->
<g id="node4" class="node">
<title>Node4</title>
<g id="a_node4"><a xlink:href="classbasic__semaphore.html" target="_top" xlink:title=" ">
<polygon fill="white" stroke="black" points="113.5,-124.5 113.5,-143.5 215.5,-143.5 215.5,-124.5 113.5,-124.5"/>
<text text-anchor="middle" x="164.5" y="-131.5" font-family="Helvetica,sans-Serif" font-size="10.00">basic_semaphore</text>
</a>
</g>
</g>
<!-- Node4&#45;&gt;Node3 -->
<g id="edge3" class="edge">
<title>Node4&#45;&gt;Node3</title>
<path fill="none" stroke="midnightblue" d="M164.5,-114.12C164.5,-104.82 164.5,-94.06 164.5,-86.71"/>
<polygon fill="midnightblue" stroke="midnightblue" points="161,-114.41 164.5,-124.41 168,-114.41 161,-114.41"/>
</g>
<!-- Node5 -->
<g id="node5" class="node">
<title>Node5</title>
<g id="a_node5"><a xlink:href="class_i_lock_object.html" target="_top" xlink:title=" ">
<polygon fill="white" stroke="black" points="127.5,-181.5 127.5,-200.5 201.5,-200.5 201.5,-181.5 127.5,-181.5"/>
<text text-anchor="middle" x="164.5" y="-188.5" font-family="Helvetica,sans-Serif" font-size="10.00">ILockObject</text>
</a>
</g>
</g>
<!-- Node5&#45;&gt;Node4 -->
<g id="edge4" class="edge">
<title>Node5&#45;&gt;Node4</title>
<path fill="none" stroke="midnightblue" d="M164.5,-171.12C164.5,-161.82 164.5,-151.06 164.5,-143.71"/>
<polygon fill="midnightblue" stroke="midnightblue" points="161,-171.41 164.5,-181.41 168,-171.41 161,-171.41"/>
</g>
<!-- Node6 -->
<g id="node6" class="node">
<title>Node6</title>
<g id="a_node6"><a xlink:href="classbasic__queue.html" target="_top" xlink:title=" ">
<polygon fill="white" stroke="black" points="247,-67.5 247,-86.5 324,-86.5 324,-67.5 247,-67.5"/>
<text text-anchor="middle" x="285.5" y="-74.5" font-family="Helvetica,sans-Serif" font-size="10.00">basic_queue</text>
</a>
</g>
</g>
<!-- Node6&#45;&gt;Node1 -->
<g id="edge5" class="edge">
<title>Node6&#45;&gt;Node1</title>
<path fill="none" stroke="#9a32cd" stroke-dasharray="5,2" d="M278.94,-58.11C275.41,-50.85 270.36,-43 263.5,-38 244.81,-24.37 220.59,-17.38 198.52,-13.87"/>
<polygon fill="#9a32cd" stroke="#9a32cd" points="275.71,-59.47 282.82,-67.34 282.17,-56.76 275.71,-59.47"/>
<text text-anchor="middle" x="325.5" y="-41" font-family="Helvetica,sans-Serif" font-size="10.00"> m_qeMessageQueue</text>
</g>
</g>
</svg>
