<?xml version="1.0" encoding="UTF-8" standalone="no"?>
<!DOCTYPE svg PUBLIC "-//W3C//DTD SVG 1.1//EN"
 "http://www.w3.org/Graphics/SVG/1.1/DTD/svg11.dtd">
<!-- Generated by graphviz version 2.46.0 (0)
 -->
<!-- Title: mn::net::basic_ip4_socket Pages: 1 -->
<svg width="274pt" height="162pt"
 viewBox="0.00 0.00 273.50 162.00" xmlns="http://www.w3.org/2000/svg" xmlns:xlink="http://www.w3.org/1999/xlink">
<g id="graph0" class="graph" transform="scale(1 1) rotate(0) translate(4 158)">
<title>mn::net::basic_ip4_socket</title>
<polygon fill="white" stroke="transparent" points="-4,4 -4,-158 269.5,-158 269.5,4 -4,4"/>
<!-- Node1 -->
<g id="node1" class="node">
<title>Node1</title>
<g id="a_node1"><a xlink:title=" ">
<polygon fill="#bfbfbf" stroke="black" points="79,-67.5 79,-97.5 185,-97.5 185,-67.5 79,-67.5"/>
<text text-anchor="start" x="87" y="-85.5" font-family="Helvetica,sans-Serif" font-size="10.00">mn::net::basic_ip4</text>
<text text-anchor="middle" x="132" y="-74.5" font-family="Helvetica,sans-Serif" font-size="10.00">_socket</text>
</a>
</g>
</g>
<!-- Node3 -->
<g id="node3" class="node">
<title>Node3</title>
<g id="a_node3"><a xlink:href="classmn_1_1net_1_1basic__dgram__ip__socket.html" target="_top" xlink:title=" ">
<polygon fill="white" stroke="black" points="0,-0.5 0,-30.5 122,-30.5 122,-0.5 0,-0.5"/>
<text text-anchor="start" x="8" y="-18.5" font-family="Helvetica,sans-Serif" font-size="10.00">mn::net::basic_dgram</text>
<text text-anchor="middle" x="61" y="-7.5" font-family="Helvetica,sans-Serif" font-size="10.00">_ip_socket</text>
</a>
</g>
</g>
<!-- Node1&#45;&gt;Node3 -->
<g id="edge2" class="edge">
<title>Node1&#45;&gt;Node3</title>
<path fill="none" stroke="midnightblue" d="M109.17,-60.6C98.45,-50.78 85.95,-39.34 76.38,-30.58"/>
<polygon fill="midnightblue" stroke="midnightblue" points="106.85,-63.22 116.59,-67.4 111.58,-58.06 106.85,-63.22"/>
</g>
<!-- Node4 -->
<g id="node4" class="node">
<title>Node4</title>
<g id="a_node4"><a xlink:href="classmn_1_1net_1_1basic__stream__ip__socket.html" target="_top" xlink:title=" ">
<polygon fill="white" stroke="black" points="140.5,-0.5 140.5,-30.5 265.5,-30.5 265.5,-0.5 140.5,-0.5"/>
<text text-anchor="start" x="148.5" y="-18.5" font-family="Helvetica,sans-Serif" font-size="10.00">mn::net::basic_stream</text>
<text text-anchor="middle" x="203" y="-7.5" font-family="Helvetica,sans-Serif" font-size="10.00">_ip_socket</text>
</a>
</g>
</g>
<!-- Node1&#45;&gt;Node4 -->
<g id="edge3" class="edge">
<title>Node1&#45;&gt;Node4</title>
<path fill="none" stroke="midnightblue" d="M154.83,-60.6C165.55,-50.78 178.05,-39.34 187.62,-30.58"/>
<polygon fill="midnightblue" stroke="midnightblue" points="152.42,-58.06 147.41,-67.4 157.15,-63.22 152.42,-58.06"/>
</g>
<!-- Node2 -->
<g id="node2" class="node">
<title>Node2</title>
<g id="a_node2"><a xlink:href="classmn_1_1net_1_1basic__ip__socket.html" target="_top" xlink:title=" ">
<polygon fill="white" stroke="black" points="63.5,-134.5 63.5,-153.5 200.5,-153.5 200.5,-134.5 63.5,-134.5"/>
<text text-anchor="middle" x="132" y="-141.5" font-family="Helvetica,sans-Serif" font-size="10.00">mn::net::basic_ip_socket</text>
</a>
</g>
</g>
<!-- Node2&#45;&gt;Node1 -->
<g id="edge1" class="edge">
<title>Node2&#45;&gt;Node1</title>
<path fill="none" stroke="midnightblue" d="M132,-124.23C132,-115.59 132,-105.5 132,-97.52"/>
<polygon fill="midnightblue" stroke="midnightblue" points="128.5,-124.48 132,-134.48 135.5,-124.48 128.5,-124.48"/>
</g>
</g>
</svg>
