<?xml version="1.0" encoding="UTF-8" standalone="no"?>
<!DOCTYPE svg PUBLIC "-//W3C//DTD SVG 1.1//EN"
 "http://www.w3.org/Graphics/SVG/1.1/DTD/svg11.dtd">
<!-- Generated by graphviz version 2.47.1 (0)
 -->
<!-- Title: mn::basic_task_list Pages: 1 -->
<svg width="1534pt" height="235pt"
 viewBox="0.00 0.00 1534.00 234.50" xmlns="http://www.w3.org/2000/svg" xmlns:xlink="http://www.w3.org/1999/xlink">
<g id="graph0" class="graph" transform="scale(1 1) rotate(0) translate(4 230.5)">
<title>mn::basic_task_list</title>
<polygon fill="white" stroke="transparent" points="-4,4 -4,-230.5 1530,-230.5 1530,4 -4,4"/>
<!-- Node1 -->
<g id="node1" class="node">
<title>Node1</title>
<g id="a_node1"><a xlink:title=" ">
<polygon fill="#bfbfbf" stroke="black" points="1416,-154 1416,-173 1526,-173 1526,-154 1416,-154"/>
<text text-anchor="middle" x="1471" y="-161" font-family="Helvetica,sans-Serif" font-size="10.00">mn::basic_task_list</text>
</a>
</g>
</g>
<!-- Node1&#45;&gt;Node1 -->
<g id="edge15" class="edge">
<title>Node1&#45;&gt;Node1</title>
<path fill="none" stroke="#9a32cd" stroke-dasharray="5,2" d="M1448.31,-182.53C1449.54,-187.63 1457.11,-191.5 1471,-191.5 1492.68,-191.5 1498.95,-182.07 1489.8,-173.26"/>
<polygon fill="#9a32cd" stroke="#9a32cd" points="1451.56,-183.83 1452.2,-173.26 1445.1,-181.12 1451.56,-183.83"/>
<text text-anchor="middle" x="1471" y="-194.5" font-family="Helvetica,sans-Serif" font-size="10.00"> m_pInstance</text>
</g>
<!-- Node2 -->
<g id="node2" class="node">
<title>Node2</title>
<g id="a_node2"><a xlink:title=" ">
<polygon fill="white" stroke="#bfbfbf" points="0,-160 0,-179 131,-179 131,-160 0,-160"/>
<text text-anchor="middle" x="65.5" y="-167" font-family="Helvetica,sans-Serif" font-size="10.00">MN_ONSIGLETN_CLASS</text>
</a>
</g>
</g>
<!-- Node2&#45;&gt;Node1 -->
<g id="edge1" class="edge">
<title>Node2&#45;&gt;Node1</title>
<path fill="none" stroke="#8b1a1a" d="M89.64,-184.53C117.9,-201.42 167.75,-226.5 214.5,-226.5 214.5,-226.5 214.5,-226.5 1206.5,-226.5 1292.94,-226.5 1314.91,-216.33 1398,-192.5 1415.88,-187.37 1435.4,-179.35 1449.6,-173.04"/>
<polygon fill="#8b1a1a" stroke="#8b1a1a" points="91.26,-181.43 80.91,-179.17 87.6,-187.39 91.26,-181.43"/>
</g>
<!-- Node5 -->
<g id="node5" class="node">
<title>Node5</title>
<g id="a_node5"><a xlink:href="classmn_1_1ILockObject.html" target="_top" xlink:title=" ">
<polygon fill="white" stroke="black" points="168,-160 168,-179 263,-179 263,-160 168,-160"/>
<text text-anchor="middle" x="215.5" y="-167" font-family="Helvetica,sans-Serif" font-size="10.00">mn::ILockObject</text>
</a>
</g>
</g>
<!-- Node2&#45;&gt;Node5 -->
<g id="edge5" class="edge">
<title>Node2&#45;&gt;Node5</title>
<path fill="none" stroke="#8b1a1a" d="M141.53,-169.5C150.5,-169.5 159.46,-169.5 167.87,-169.5"/>
<polygon fill="#8b1a1a" stroke="#8b1a1a" points="141.41,-166 131.41,-169.5 141.41,-173 141.41,-166"/>
</g>
<!-- Node8 -->
<g id="node8" class="node">
<title>Node8</title>
<g id="a_node8"><a xlink:href="classmn_1_1basic__task.html" target="_top" xlink:title="Wrapper class around FreeRTOS&#39;s implementation of a task.">
<polygon fill="white" stroke="black" points="758,-52 758,-71 848,-71 848,-52 758,-52"/>
<text text-anchor="middle" x="803" y="-59" font-family="Helvetica,sans-Serif" font-size="10.00">mn::basic_task</text>
</a>
</g>
</g>
<!-- Node2&#45;&gt;Node8 -->
<g id="edge9" class="edge">
<title>Node2&#45;&gt;Node8</title>
<path fill="none" stroke="#8b1a1a" d="M78.73,-151.45C101.49,-120.23 153.6,-59.5 214.5,-59.5 214.5,-59.5 214.5,-59.5 542,-59.5 617.84,-59.5 706.11,-60.36 757.84,-60.95"/>
<polygon fill="#8b1a1a" stroke="#8b1a1a" points="75.78,-149.55 72.87,-159.74 81.5,-153.59 75.78,-149.55"/>
</g>
<!-- Node3 -->
<g id="node3" class="node">
<title>Node3</title>
<g id="a_node3"><a xlink:href="classmn_1_1basic__mutex.html" target="_top" xlink:title=" ">
<polygon fill="white" stroke="black" points="639,-176 639,-195 740,-195 740,-176 639,-176"/>
<text text-anchor="middle" x="689.5" y="-183" font-family="Helvetica,sans-Serif" font-size="10.00">mn::basic_mutex</text>
</a>
</g>
</g>
<!-- Node3&#45;&gt;Node1 -->
<g id="edge2" class="edge">
<title>Node3&#45;&gt;Node1</title>
<path fill="none" stroke="#9a32cd" stroke-dasharray="5,2" d="M750.38,-186.42C789.89,-186.94 842.78,-187.5 889.5,-187.5 889.5,-187.5 889.5,-187.5 1206.5,-187.5 1279.19,-187.5 1362.7,-178.33 1415.88,-171.33"/>
<polygon fill="#9a32cd" stroke="#9a32cd" points="750.43,-182.92 740.39,-186.28 750.34,-189.92 750.43,-182.92"/>
<text text-anchor="middle" x="988.5" y="-190.5" font-family="Helvetica,sans-Serif" font-size="10.00"> m_staticInstanceMux</text>
</g>
<!-- Node4 -->
<g id="node4" class="node">
<title>Node4</title>
<g id="a_node4"><a xlink:href="classmn_1_1basic__semaphore.html" target="_top" xlink:title=" ">
<polygon fill="white" stroke="black" points="300,-160 300,-179 424,-179 424,-160 300,-160"/>
<text text-anchor="middle" x="362" y="-167" font-family="Helvetica,sans-Serif" font-size="10.00">mn::basic_semaphore</text>
</a>
</g>
</g>
<!-- Node4&#45;&gt;Node3 -->
<g id="edge3" class="edge">
<title>Node4&#45;&gt;Node3</title>
<path fill="none" stroke="midnightblue" d="M434.32,-173.01C496.3,-176.05 584.46,-180.39 638.99,-183.07"/>
<polygon fill="midnightblue" stroke="midnightblue" points="434.38,-169.5 424.22,-172.51 434.04,-176.5 434.38,-169.5"/>
</g>
<!-- Node9 -->
<g id="node9" class="node">
<title>Node9</title>
<g id="a_node9"><a xlink:href="classmn_1_1basic__binary__semaphore.html" target="_top" xlink:title=" ">
<polygon fill="white" stroke="black" points="461,-131 461,-150 621,-150 621,-131 461,-131"/>
<text text-anchor="middle" x="541" y="-138" font-family="Helvetica,sans-Serif" font-size="10.00">mn::basic_binary_semaphore</text>
</a>
</g>
</g>
<!-- Node4&#45;&gt;Node9 -->
<g id="edge11" class="edge">
<title>Node4&#45;&gt;Node9</title>
<path fill="none" stroke="midnightblue" d="M431.64,-158.25C448.25,-155.53 465.85,-152.65 481.92,-150.02"/>
<polygon fill="midnightblue" stroke="midnightblue" points="430.75,-154.85 421.45,-159.92 431.88,-161.76 430.75,-154.85"/>
</g>
<!-- Node5&#45;&gt;Node4 -->
<g id="edge4" class="edge">
<title>Node5&#45;&gt;Node4</title>
<path fill="none" stroke="midnightblue" d="M273.11,-169.5C281.87,-169.5 290.95,-169.5 299.8,-169.5"/>
<polygon fill="midnightblue" stroke="midnightblue" points="273.02,-166 263.02,-169.5 273.02,-173 273.02,-166"/>
</g>
<!-- Node6 -->
<g id="node6" class="node">
<title>Node6</title>
<g id="a_node6"><a xlink:title=" ">
<polygon fill="white" stroke="#bfbfbf" points="1129,-77.5 1129,-107.5 1282,-107.5 1282,-77.5 1129,-77.5"/>
<text text-anchor="start" x="1137" y="-95.5" font-family="Helvetica,sans-Serif" font-size="10.00">std::map&lt; int, std</text>
<text text-anchor="middle" x="1205.5" y="-84.5" font-family="Helvetica,sans-Serif" font-size="10.00">::list&lt; mn::basic_task * &gt; &gt;</text>
</a>
</g>
</g>
<!-- Node6&#45;&gt;Node1 -->
<g id="edge6" class="edge">
<title>Node6&#45;&gt;Node1</title>
<path fill="none" stroke="#9a32cd" stroke-dasharray="5,2" d="M1292.37,-94.27C1326.13,-97.14 1364.69,-103.2 1398,-115.5 1421.96,-124.35 1445.85,-142.61 1459.19,-153.88"/>
<polygon fill="#9a32cd" stroke="#9a32cd" points="1292.3,-90.75 1282.06,-93.47 1291.76,-97.73 1292.3,-90.75"/>
<text text-anchor="middle" x="1349" y="-118.5" font-family="Helvetica,sans-Serif" font-size="10.00"> m_mapTaskOnCore</text>
</g>
<!-- Node7 -->
<g id="node7" class="node">
<title>Node7</title>
<g id="a_node7"><a xlink:title=" ">
<polygon fill="white" stroke="#bfbfbf" points="933,-67.5 933,-97.5 1044,-97.5 1044,-67.5 933,-67.5"/>
<text text-anchor="start" x="941" y="-85.5" font-family="Helvetica,sans-Serif" font-size="10.00">std::list&lt; mn::basic</text>
<text text-anchor="middle" x="988.5" y="-74.5" font-family="Helvetica,sans-Serif" font-size="10.00">_task * &gt;</text>
</a>
</g>
</g>
<!-- Node7&#45;&gt;Node6 -->
<g id="edge7" class="edge">
<title>Node7&#45;&gt;Node6</title>
<path fill="none" stroke="#9a32cd" stroke-dasharray="5,2" d="M1054.24,-85.51C1077.76,-86.61 1104.55,-87.85 1128.93,-88.98"/>
<polygon fill="#9a32cd" stroke="#9a32cd" points="1054.18,-82 1044.03,-85.04 1053.86,-89 1054.18,-82"/>
<text text-anchor="middle" x="1086.5" y="-90.5" font-family="Helvetica,sans-Serif" font-size="10.00"> elements</text>
</g>
<!-- Node8&#45;&gt;Node7 -->
<g id="edge8" class="edge">
<title>Node8&#45;&gt;Node7</title>
<path fill="none" stroke="#9a32cd" stroke-dasharray="5,2" d="M858.53,-67.74C881.93,-70.42 909.23,-73.54 932.67,-76.22"/>
<polygon fill="#9a32cd" stroke="#9a32cd" points="858.75,-64.24 848.42,-66.58 857.96,-71.2 858.75,-64.24"/>
<text text-anchor="middle" x="890.5" y="-76.5" font-family="Helvetica,sans-Serif" font-size="10.00"> elements</text>
</g>
<!-- Node9&#45;&gt;Node1 -->
<g id="edge14" class="edge">
<title>Node9&#45;&gt;Node1</title>
<path fill="none" stroke="#9a32cd" stroke-dasharray="5,2" d="M631.25,-140.5C681.42,-140.5 745.2,-140.5 802,-140.5 802,-140.5 802,-140.5 1206.5,-140.5 1279.17,-140.5 1362.69,-149.29 1415.87,-156"/>
<polygon fill="#9a32cd" stroke="#9a32cd" points="631.08,-137 621.08,-140.5 631.08,-144 631.08,-137"/>
<text text-anchor="middle" x="988.5" y="-143.5" font-family="Helvetica,sans-Serif" font-size="10.00"> m_pLock</text>
</g>
<!-- Node9&#45;&gt;Node8 -->
<g id="edge10" class="edge">
<title>Node9&#45;&gt;Node8</title>
<path fill="none" stroke="#9a32cd" stroke-dasharray="5,2" d="M567.23,-126.04C586.38,-115.63 613.64,-101.97 639,-93.5 660.54,-86.3 717.27,-75.85 757.74,-68.87"/>
<polygon fill="#9a32cd" stroke="#9a32cd" points="565.33,-123.09 558.27,-131 568.72,-129.22 565.33,-123.09"/>
<text text-anchor="middle" x="689.5" y="-118.5" font-family="Helvetica,sans-Serif" font-size="10.00"> m_contextMutext</text>
<text text-anchor="middle" x="689.5" y="-107.5" font-family="Helvetica,sans-Serif" font-size="10.00">m_continuemutex</text>
<text text-anchor="middle" x="689.5" y="-96.5" font-family="Helvetica,sans-Serif" font-size="10.00">m_runningMutex</text>
</g>
<!-- Node10 -->
<g id="node10" class="node">
<title>Node10</title>
<g id="a_node10"><a xlink:title=" ">
<polygon fill="white" stroke="#bfbfbf" points="508.5,-9 508.5,-28 573.5,-28 573.5,-9 508.5,-9"/>
<text text-anchor="middle" x="541" y="-16" font-family="Helvetica,sans-Serif" font-size="10.00">std::string</text>
</a>
</g>
</g>
<!-- Node10&#45;&gt;Node8 -->
<g id="edge12" class="edge">
<title>Node10&#45;&gt;Node8</title>
<path fill="none" stroke="#9a32cd" stroke-dasharray="5,2" d="M583.78,-17.91C624.3,-18.27 687.22,-21.27 740,-34.5 755.6,-38.41 772.26,-45.87 784.38,-51.96"/>
<polygon fill="#9a32cd" stroke="#9a32cd" points="583.74,-14.41 573.72,-17.88 583.71,-21.41 583.74,-14.41"/>
<text text-anchor="middle" x="689.5" y="-37.5" font-family="Helvetica,sans-Serif" font-size="10.00"> m_strName</text>
</g>
<!-- Node11 -->
<g id="node11" class="node">
<title>Node11</title>
<g id="a_node11"><a xlink:title=" ">
<polygon fill="white" stroke="#bfbfbf" points="310,-0.5 310,-30.5 414,-30.5 414,-0.5 310,-0.5"/>
<text text-anchor="start" x="318" y="-18.5" font-family="Helvetica,sans-Serif" font-size="10.00">std::basic_string&lt;</text>
<text text-anchor="middle" x="362" y="-7.5" font-family="Helvetica,sans-Serif" font-size="10.00"> Char &gt;</text>
</a>
</g>
</g>
<!-- Node11&#45;&gt;Node10 -->
<g id="edge13" class="edge">
<title>Node11&#45;&gt;Node10</title>
<path fill="none" stroke="midnightblue" d="M424.41,-16.54C452.71,-17.02 485.11,-17.57 508.38,-17.96"/>
<polygon fill="midnightblue" stroke="midnightblue" points="424.25,-13.04 414.2,-16.37 424.13,-20.04 424.25,-13.04"/>
</g>
</g>
</svg>
