<?xml version="1.0" encoding="UTF-8" standalone="no"?>
<!DOCTYPE svg PUBLIC "-//W3C//DTD SVG 1.1//EN"
 "http://www.w3.org/Graphics/SVG/1.1/DTD/svg11.dtd">
<!-- Generated by graphviz version 2.47.3 (0)
 -->
<!-- Title: mn::pointer::basic_clone_ptr&lt; T, TCloner, TDeleter &gt; Pages: 1 -->
<svg width="298pt" height="117pt"
 viewBox="0.00 0.00 298.00 117.00" xmlns="http://www.w3.org/2000/svg" xmlns:xlink="http://www.w3.org/1999/xlink">
<g id="graph0" class="graph" transform="scale(1 1) rotate(0) translate(4 113)">
<title>mn::pointer::basic_clone_ptr&lt; T, TCloner, TDeleter &gt;</title>
<polygon fill="white" stroke="transparent" points="-4,4 -4,-113 294,-113 294,4 -4,4"/>
<!-- Node1 -->
<g id="node1" class="node">
<title>Node1</title>
<g id="a_node1"><a xlink:title=" ">
<polygon fill="#bfbfbf" stroke="black" points="70,-0.5 70,-41.5 200,-41.5 200,-0.5 70,-0.5"/>
<text text-anchor="start" x="78" y="-29.5" font-family="Helvetica,sans-Serif" font-size="10.00">mn::pointer::basic</text>
<text text-anchor="start" x="78" y="-18.5" font-family="Helvetica,sans-Serif" font-size="10.00">_clone_ptr&lt; T, TCloner,</text>
<text text-anchor="middle" x="135" y="-7.5" font-family="Helvetica,sans-Serif" font-size="10.00"> TDeleter &gt;</text>
</a>
</g>
</g>
<!-- Node2 -->
<g id="node2" class="node">
<title>Node2</title>
<g id="a_node2"><a xlink:href="structmn_1_1pointer_1_1basic__default__clone.html" target="_top" xlink:title=" ">
<polygon fill="white" stroke="black" points="0,-78.5 0,-108.5 116,-108.5 116,-78.5 0,-78.5"/>
<text text-anchor="start" x="8" y="-96.5" font-family="Helvetica,sans-Serif" font-size="10.00">mn::pointer::basic</text>
<text text-anchor="middle" x="58" y="-85.5" font-family="Helvetica,sans-Serif" font-size="10.00">_default_clone&lt; T &gt;</text>
</a>
</g>
</g>
<!-- Node2&#45;&gt;Node1 -->
<g id="edge1" class="edge">
<title>Node2&#45;&gt;Node1</title>
<path fill="none" stroke="#8b1a1a" d="M81.07,-71.38C91.39,-61.93 103.49,-50.85 113.61,-41.59"/>
<polygon fill="#8b1a1a" stroke="#8b1a1a" points="78.59,-68.9 73.58,-78.23 83.32,-74.06 78.59,-68.9"/>
</g>
<!-- Node3 -->
<g id="node3" class="node">
<title>Node3</title>
<g id="a_node3"><a xlink:href="classmn_1_1memory_1_1basic__deleter.html" target="_top" xlink:title="A Simple template for a deleter.">
<polygon fill="white" stroke="black" points="134,-84 134,-103 290,-103 290,-84 134,-84"/>
<text text-anchor="middle" x="212" y="-91" font-family="Helvetica,sans-Serif" font-size="10.00">memory::default_delete&lt;T&gt;</text>
</a>
</g>
</g>
<!-- Node3&#45;&gt;Node1 -->
<g id="edge2" class="edge">
<title>Node3&#45;&gt;Node1</title>
<path fill="none" stroke="#8b1a1a" d="M195.04,-76.97C183.69,-66.58 168.66,-52.82 156.47,-41.66"/>
<polygon fill="#8b1a1a" stroke="#8b1a1a" points="192.82,-79.68 202.56,-83.86 197.55,-74.52 192.82,-79.68"/>
</g>
</g>
</svg>
