<?xml version="1.0" encoding="UTF-8" standalone="no"?>
<!DOCTYPE svg PUBLIC "-//W3C//DTD SVG 1.1//EN"
 "http://www.w3.org/Graphics/SVG/1.1/DTD/svg11.dtd">
<!-- Generated by graphviz version 2.46.0 (0)
 -->
<!-- Title: mn::pointer::basic_shared_ptr&lt; T, TRefType &gt; Pages: 1 -->
<svg width="268pt" height="174pt"
 viewBox="0.00 0.00 268.00 174.00" xmlns="http://www.w3.org/2000/svg" xmlns:xlink="http://www.w3.org/1999/xlink">
<g id="graph0" class="graph" transform="scale(1 1) rotate(0) translate(4 170)">
<title>mn::pointer::basic_shared_ptr&lt; T, TRefType &gt;</title>
<polygon fill="white" stroke="transparent" points="-4,4 -4,-170 264,-170 264,4 -4,4"/>
<!-- Node1 -->
<g id="node1" class="node">
<title>Node1</title>
<g id="a_node1"><a xlink:title=" ">
<polygon fill="#bfbfbf" stroke="black" points="0,-0.5 0,-30.5 153,-30.5 153,-0.5 0,-0.5"/>
<text text-anchor="start" x="8" y="-18.5" font-family="Helvetica,sans-Serif" font-size="10.00">mn::pointer::basic</text>
<text text-anchor="middle" x="76.5" y="-7.5" font-family="Helvetica,sans-Serif" font-size="10.00">_shared_ptr&lt; T, TRefType &gt;</text>
</a>
</g>
</g>
<!-- Node2 -->
<g id="node2" class="node">
<title>Node2</title>
<g id="a_node2"><a xlink:href="structmn_1_1pointer_1_1pointer__ptr.html" target="_top" xlink:title=" ">
<polygon fill="white" stroke="black" points="4,-78.5 4,-108.5 117,-108.5 117,-78.5 4,-78.5"/>
<text text-anchor="start" x="12" y="-96.5" font-family="Helvetica,sans-Serif" font-size="10.00">mn::pointer::pointer</text>
<text text-anchor="middle" x="60.5" y="-85.5" font-family="Helvetica,sans-Serif" font-size="10.00">_ptr&lt; T &gt;</text>
</a>
</g>
</g>
<!-- Node2&#45;&gt;Node1 -->
<g id="edge1" class="edge">
<title>Node2&#45;&gt;Node1</title>
<path fill="none" stroke="#8b1a1a" d="M65.64,-68.09C68.24,-55.76 71.3,-41.22 73.5,-30.73"/>
<polygon fill="#8b1a1a" stroke="#8b1a1a" points="62.14,-67.7 63.51,-78.2 68.99,-69.14 62.14,-67.7"/>
</g>
<!-- Node3 -->
<g id="node3" class="node">
<title>Node3</title>
<g id="a_node3"><a xlink:href="structmn_1_1__atomic.html" target="_top" xlink:title="Only for declar special version for types.">
<polygon fill="white" stroke="black" points="135.5,-84 135.5,-103 241.5,-103 241.5,-84 135.5,-84"/>
<text text-anchor="middle" x="188.5" y="-91" font-family="Helvetica,sans-Serif" font-size="10.00">mn::_atomic&lt; T &gt;</text>
</a>
</g>
</g>
<!-- Node3&#45;&gt;Node1 -->
<g id="edge2" class="edge">
<title>Node3&#45;&gt;Node1</title>
<path fill="none" stroke="#9a32cd" stroke-dasharray="5,2" d="M167.17,-78.03C147.04,-64.37 117.07,-44.03 97.16,-30.52"/>
<polygon fill="#9a32cd" stroke="#9a32cd" points="165.41,-81.06 175.65,-83.78 169.34,-75.27 165.41,-81.06"/>
<text text-anchor="middle" x="157" y="-52" font-family="Helvetica,sans-Serif" font-size="10.00"> _m_ref</text>
</g>
<!-- Node4 -->
<g id="node4" class="node">
<title>Node4</title>
<g id="a_node4"><a xlink:title=" ">
<polygon fill="white" stroke="#bfbfbf" points="117,-146.5 117,-165.5 260,-165.5 260,-146.5 117,-146.5"/>
<text text-anchor="middle" x="188.5" y="-153.5" font-family="Helvetica,sans-Serif" font-size="10.00">BASE_ATOMIC_TYPE&lt; T &gt;</text>
</a>
</g>
</g>
<!-- Node4&#45;&gt;Node3 -->
<g id="edge3" class="edge">
<title>Node4&#45;&gt;Node3</title>
<path fill="none" stroke="midnightblue" d="M188.5,-136C188.5,-125 188.5,-111.68 188.5,-103.15"/>
<polygon fill="midnightblue" stroke="midnightblue" points="185,-136.33 188.5,-146.33 192,-136.33 185,-136.33"/>
</g>
</g>
</svg>
