<?xml version="1.0" encoding="UTF-8" standalone="no"?>
<!DOCTYPE svg PUBLIC "-//W3C//DTD SVG 1.1//EN"
 "http://www.w3.org/Graphics/SVG/1.1/DTD/svg11.dtd">
<!-- Generated by graphviz version 2.47.3 (0)
 -->
<!-- Title: mn::pointer::basic_linked_ptr&lt; T &gt; Pages: 1 -->
<svg width="157pt" height="107pt"
 viewBox="0.00 0.00 157.00 107.00" xmlns="http://www.w3.org/2000/svg" xmlns:xlink="http://www.w3.org/1999/xlink">
<g id="graph0" class="graph" transform="scale(1 1) rotate(0) translate(4 103)">
<title>mn::pointer::basic_linked_ptr&lt; T &gt;</title>
<polygon fill="white" stroke="transparent" points="-4,4 -4,-103 153,-103 153,4 -4,4"/>
<!-- Node1 -->
<g id="node1" class="node">
<title>Node1</title>
<g id="a_node1"><a xlink:title="This class implements a basic_linked_ptr template that it allows sharing of pointers between instance...">
<polygon fill="#bfbfbf" stroke="black" points="0,-0.5 0,-30.5 104,-30.5 104,-0.5 0,-0.5"/>
<text text-anchor="start" x="8" y="-18.5" font-family="Helvetica,sans-Serif" font-size="10.00">mn::pointer::basic</text>
<text text-anchor="middle" x="52" y="-7.5" font-family="Helvetica,sans-Serif" font-size="10.00">_linked_ptr&lt; T &gt;</text>
</a>
</g>
</g>
<!-- Node2 -->
<g id="node2" class="node">
<title>Node2</title>
<g id="a_node2"><a xlink:href="structmn_1_1pointer_1_1basic__linked__ptr__node.html" target="_top" xlink:title="This class allows basic_linked_ptr&lt;T&gt; and basic_linked_ptr to share the same base nodes.">
<polygon fill="white" stroke="black" points="0,-68.5 0,-98.5 104,-98.5 104,-68.5 0,-68.5"/>
<text text-anchor="start" x="8" y="-86.5" font-family="Helvetica,sans-Serif" font-size="10.00">mn::pointer::basic</text>
<text text-anchor="middle" x="52" y="-75.5" font-family="Helvetica,sans-Serif" font-size="10.00">_linked_ptr_node</text>
</a>
</g>
</g>
<!-- Node2&#45;&gt;Node1 -->
<g id="edge1" class="edge">
<title>Node2&#45;&gt;Node1</title>
<path fill="none" stroke="midnightblue" d="M52,-58.03C52,-48.86 52,-38.74 52,-30.79"/>
<polygon fill="midnightblue" stroke="midnightblue" points="48.5,-58.18 52,-68.18 55.5,-58.18 48.5,-58.18"/>
</g>
<!-- Node2&#45;&gt;Node2 -->
<g id="edge2" class="edge">
<title>Node2&#45;&gt;Node2</title>
<path fill="none" stroke="#9a32cd" stroke-dasharray="5,2" d="M114.4,-88.27C119.11,-87.21 122,-85.62 122,-83.5 122,-80.11 114.59,-78.08 104.2,-77.39"/>
<polygon fill="#9a32cd" stroke="#9a32cd" points="113.66,-84.84 104.2,-89.61 114.57,-91.78 113.66,-84.84"/>
<text text-anchor="middle" x="135.5" y="-86.5" font-family="Helvetica,sans-Serif" font-size="10.00"> Next</text>
<text text-anchor="middle" x="135.5" y="-75.5" font-family="Helvetica,sans-Serif" font-size="10.00">Prev</text>
</g>
</g>
</svg>
