<?xml version="1.0" encoding="UTF-8" standalone="no"?>
<!DOCTYPE svg PUBLIC "-//W3C//DTD SVG 1.1//EN"
 "http://www.w3.org/Graphics/SVG/1.1/DTD/svg11.dtd">
<!-- Generated by graphviz version 2.46.0 (0)
 -->
<!-- Title: mn::basic_task_list Pages: 1 -->
<svg width="1366pt" height="197pt"
 viewBox="0.00 0.00 1366.00 197.00" xmlns="http://www.w3.org/2000/svg" xmlns:xlink="http://www.w3.org/1999/xlink">
<g id="graph0" class="graph" transform="scale(1 1) rotate(0) translate(4 193)">
<title>mn::basic_task_list</title>
<polygon fill="white" stroke="transparent" points="-4,4 -4,-193 1362,-193 1362,4 -4,4"/>
<!-- Node1 -->
<g id="node1" class="node">
<title>Node1</title>
<g id="a_node1"><a xlink:title=" ">
<polygon fill="#bfbfbf" stroke="black" points="1248,-44.5 1248,-63.5 1358,-63.5 1358,-44.5 1248,-44.5"/>
<text text-anchor="middle" x="1303" y="-51.5" font-family="Helvetica,sans-Serif" font-size="10.00">mn::basic_task_list</text>
</a>
</g>
</g>
<!-- Node1&#45;&gt;Node1 -->
<g id="edge14" class="edge">
<title>Node1&#45;&gt;Node1</title>
<path fill="none" stroke="#9a32cd" stroke-dasharray="5,2" d="M1280.31,-73.03C1281.54,-78.13 1289.11,-82 1303,-82 1324.68,-82 1330.95,-72.57 1321.8,-63.76"/>
<polygon fill="#9a32cd" stroke="#9a32cd" points="1283.56,-74.33 1284.2,-63.76 1277.1,-71.62 1283.56,-74.33"/>
<text text-anchor="middle" x="1303" y="-85" font-family="Helvetica,sans-Serif" font-size="10.00"> m_pInstance</text>
</g>
<!-- Node2 -->
<g id="node2" class="node">
<title>Node2</title>
<g id="a_node2"><a xlink:href="classmn_1_1basic__mutex.html" target="_top" xlink:title=" ">
<polygon fill="white" stroke="black" points="471,-0.5 471,-19.5 572,-19.5 572,-0.5 471,-0.5"/>
<text text-anchor="middle" x="521.5" y="-7.5" font-family="Helvetica,sans-Serif" font-size="10.00">mn::basic_mutex</text>
</a>
</g>
</g>
<!-- Node2&#45;&gt;Node1 -->
<g id="edge1" class="edge">
<title>Node2&#45;&gt;Node1</title>
<path fill="none" stroke="#9a32cd" stroke-dasharray="5,2" d="M582.38,-8.63C621.89,-7.84 674.78,-7 721.5,-7 721.5,-7 721.5,-7 1038.5,-7 1123.07,-7 1220.57,-30.76 1269.88,-44.49"/>
<polygon fill="#9a32cd" stroke="#9a32cd" points="582.31,-5.13 572.38,-8.83 582.45,-12.13 582.31,-5.13"/>
<text text-anchor="middle" x="820.5" y="-10" font-family="Helvetica,sans-Serif" font-size="10.00"> m_staticInstanceMux</text>
</g>
<!-- Node3 -->
<g id="node3" class="node">
<title>Node3</title>
<g id="a_node3"><a xlink:href="classmn_1_1basic__semaphore.html" target="_top" xlink:title=" ">
<polygon fill="white" stroke="black" points="132,-21.5 132,-40.5 256,-40.5 256,-21.5 132,-21.5"/>
<text text-anchor="middle" x="194" y="-28.5" font-family="Helvetica,sans-Serif" font-size="10.00">mn::basic_semaphore</text>
</a>
</g>
</g>
<!-- Node3&#45;&gt;Node2 -->
<g id="edge2" class="edge">
<title>Node3&#45;&gt;Node2</title>
<path fill="none" stroke="midnightblue" d="M266.32,-26.4C328.3,-22.4 416.46,-16.71 470.99,-13.19"/>
<polygon fill="midnightblue" stroke="midnightblue" points="265.98,-22.91 256.22,-27.05 266.43,-29.9 265.98,-22.91"/>
</g>
<!-- Node9 -->
<g id="node9" class="node">
<title>Node9</title>
<g id="a_node9"><a xlink:href="classmn_1_1basic__binary__semaphore.html" target="_top" xlink:title=" ">
<polygon fill="white" stroke="black" points="293,-44.5 293,-63.5 453,-63.5 453,-44.5 293,-44.5"/>
<text text-anchor="middle" x="373" y="-51.5" font-family="Helvetica,sans-Serif" font-size="10.00">mn::basic_binary_semaphore</text>
</a>
</g>
</g>
<!-- Node3&#45;&gt;Node9 -->
<g id="edge10" class="edge">
<title>Node3&#45;&gt;Node9</title>
<path fill="none" stroke="midnightblue" d="M266.49,-40.29C277.15,-41.67 288.14,-43.1 298.82,-44.49"/>
<polygon fill="midnightblue" stroke="midnightblue" points="266.78,-36.8 256.41,-38.98 265.87,-43.74 266.78,-36.8"/>
</g>
<!-- Node4 -->
<g id="node4" class="node">
<title>Node4</title>
<g id="a_node4"><a xlink:href="classmn_1_1_i_lock_object.html" target="_top" xlink:title=" ">
<polygon fill="white" stroke="black" points="0,-21.5 0,-40.5 95,-40.5 95,-21.5 0,-21.5"/>
<text text-anchor="middle" x="47.5" y="-28.5" font-family="Helvetica,sans-Serif" font-size="10.00">mn::ILockObject</text>
</a>
</g>
</g>
<!-- Node4&#45;&gt;Node3 -->
<g id="edge3" class="edge">
<title>Node4&#45;&gt;Node3</title>
<path fill="none" stroke="midnightblue" d="M105.11,-31C113.87,-31 122.95,-31 131.8,-31"/>
<polygon fill="midnightblue" stroke="midnightblue" points="105.02,-27.5 95.02,-31 105.02,-34.5 105.02,-27.5"/>
</g>
<!-- Node5 -->
<g id="node5" class="node">
<title>Node5</title>
<g id="a_node5"><a xlink:title=" ">
<polygon fill="white" stroke="#bfbfbf" points="961,-83 961,-113 1114,-113 1114,-83 961,-83"/>
<text text-anchor="start" x="969" y="-101" font-family="Helvetica,sans-Serif" font-size="10.00">std::map&lt; int, std</text>
<text text-anchor="middle" x="1037.5" y="-90" font-family="Helvetica,sans-Serif" font-size="10.00">::list&lt; mn::basic_task * &gt; &gt;</text>
</a>
</g>
</g>
<!-- Node5&#45;&gt;Node1 -->
<g id="edge4" class="edge">
<title>Node5&#45;&gt;Node1</title>
<path fill="none" stroke="#9a32cd" stroke-dasharray="5,2" d="M1124.2,-85.26C1157.3,-80.16 1195.46,-74.06 1230,-68 1237.9,-66.61 1246.27,-65.06 1254.41,-63.51"/>
<polygon fill="#9a32cd" stroke="#9a32cd" points="1123.45,-81.83 1114.1,-86.81 1124.51,-88.75 1123.45,-81.83"/>
<text text-anchor="middle" x="1181" y="-86" font-family="Helvetica,sans-Serif" font-size="10.00"> m_mapTaskOnCore</text>
</g>
<!-- Node6 -->
<g id="node6" class="node">
<title>Node6</title>
<g id="a_node6"><a xlink:title=" ">
<polygon fill="white" stroke="#bfbfbf" points="765,-106 765,-136 876,-136 876,-106 765,-106"/>
<text text-anchor="start" x="773" y="-124" font-family="Helvetica,sans-Serif" font-size="10.00">std::list&lt; mn::basic</text>
<text text-anchor="middle" x="820.5" y="-113" font-family="Helvetica,sans-Serif" font-size="10.00">_task * &gt;</text>
</a>
</g>
</g>
<!-- Node6&#45;&gt;Node5 -->
<g id="edge5" class="edge">
<title>Node6&#45;&gt;Node5</title>
<path fill="none" stroke="#9a32cd" stroke-dasharray="5,2" d="M886.24,-114.07C909.76,-111.56 936.55,-108.69 960.93,-106.08"/>
<polygon fill="#9a32cd" stroke="#9a32cd" points="885.6,-110.62 876.03,-115.17 886.35,-117.58 885.6,-110.62"/>
<text text-anchor="middle" x="918.5" y="-115" font-family="Helvetica,sans-Serif" font-size="10.00"> elements</text>
</g>
<!-- Node7 -->
<g id="node7" class="node">
<title>Node7</title>
<g id="a_node7"><a xlink:href="classmn_1_1basic__task.html" target="_top" xlink:title="Wrapper class around FreeRTOS&#39;s implementation of a task.">
<polygon fill="white" stroke="black" points="590,-127.5 590,-146.5 680,-146.5 680,-127.5 590,-127.5"/>
<text text-anchor="middle" x="635" y="-134.5" font-family="Helvetica,sans-Serif" font-size="10.00">mn::basic_task</text>
</a>
</g>
</g>
<!-- Node7&#45;&gt;Node6 -->
<g id="edge6" class="edge">
<title>Node7&#45;&gt;Node6</title>
<path fill="none" stroke="#9a32cd" stroke-dasharray="5,2" d="M690.53,-132.25C713.93,-130.2 741.23,-127.82 764.67,-125.78"/>
<polygon fill="#9a32cd" stroke="#9a32cd" points="690.08,-128.77 680.42,-133.13 690.69,-135.74 690.08,-128.77"/>
<text text-anchor="middle" x="722.5" y="-134" font-family="Helvetica,sans-Serif" font-size="10.00"> elements</text>
</g>
<!-- Node7&#45;&gt;Node7 -->
<g id="edge8" class="edge">
<title>Node7&#45;&gt;Node7</title>
<path fill="none" stroke="#9a32cd" stroke-dasharray="5,2" d="M619.07,-156.4C620.14,-161.31 625.45,-165 635,-165 650.29,-165 654.7,-155.57 648.26,-146.76"/>
<polygon fill="#9a32cd" stroke="#9a32cd" points="622.45,-157.33 621.74,-146.76 615.7,-155.46 622.45,-157.33"/>
<text text-anchor="middle" x="635" y="-179" font-family="Helvetica,sans-Serif" font-size="10.00"> m_pChild</text>
<text text-anchor="middle" x="635" y="-168" font-family="Helvetica,sans-Serif" font-size="10.00">m_pParent</text>
</g>
<!-- Node8 -->
<g id="node8" class="node">
<title>Node8</title>
<g id="a_node8"><a xlink:href="classmn_1_1basic__event__group.html" target="_top" xlink:title=" ">
<polygon fill="white" stroke="black" points="308,-169.5 308,-188.5 438,-188.5 438,-169.5 308,-169.5"/>
<text text-anchor="middle" x="373" y="-176.5" font-family="Helvetica,sans-Serif" font-size="10.00">mn::basic_event_group</text>
</a>
</g>
</g>
<!-- Node8&#45;&gt;Node7 -->
<g id="edge7" class="edge">
<title>Node8&#45;&gt;Node7</title>
<path fill="none" stroke="#9a32cd" stroke-dasharray="5,2" d="M448.41,-172.13C485.72,-168.05 531.47,-162.07 572,-154 582.07,-151.99 592.91,-149.23 602.67,-146.52"/>
<polygon fill="#9a32cd" stroke="#9a32cd" points="447.7,-168.69 438.13,-173.23 448.44,-175.65 447.7,-168.69"/>
<text text-anchor="middle" x="521.5" y="-172" font-family="Helvetica,sans-Serif" font-size="10.00"> m_event</text>
</g>
<!-- Node9&#45;&gt;Node1 -->
<g id="edge13" class="edge">
<title>Node9&#45;&gt;Node1</title>
<path fill="none" stroke="#9a32cd" stroke-dasharray="5,2" d="M463.25,-54C513.42,-54 577.2,-54 634,-54 634,-54 634,-54 1038.5,-54 1110.89,-54 1194.48,-54 1247.75,-54"/>
<polygon fill="#9a32cd" stroke="#9a32cd" points="463.08,-50.5 453.08,-54 463.08,-57.5 463.08,-50.5"/>
<text text-anchor="middle" x="820.5" y="-57" font-family="Helvetica,sans-Serif" font-size="10.00"> m_pLock</text>
</g>
<!-- Node9&#45;&gt;Node7 -->
<g id="edge9" class="edge">
<title>Node9&#45;&gt;Node7</title>
<path fill="none" stroke="#9a32cd" stroke-dasharray="5,2" d="M447.05,-65.37C485.16,-72.69 532.04,-83.89 572,-100 589.9,-107.22 608.7,-119.14 620.84,-127.5"/>
<polygon fill="#9a32cd" stroke="#9a32cd" points="447.53,-61.9 437.05,-63.5 446.24,-68.78 447.53,-61.9"/>
<text text-anchor="middle" x="521.5" y="-125" font-family="Helvetica,sans-Serif" font-size="10.00"> m_contextMutext</text>
<text text-anchor="middle" x="521.5" y="-114" font-family="Helvetica,sans-Serif" font-size="10.00">m_continuemutex</text>
<text text-anchor="middle" x="521.5" y="-103" font-family="Helvetica,sans-Serif" font-size="10.00">m_runningMutex</text>
</g>
<!-- Node10 -->
<g id="node10" class="node">
<title>Node10</title>
<g id="a_node10"><a xlink:title=" ">
<polygon fill="white" stroke="#bfbfbf" points="340.5,-131.5 340.5,-150.5 405.5,-150.5 405.5,-131.5 340.5,-131.5"/>
<text text-anchor="middle" x="373" y="-138.5" font-family="Helvetica,sans-Serif" font-size="10.00">std::string</text>
</a>
</g>
</g>
<!-- Node10&#45;&gt;Node7 -->
<g id="edge11" class="edge">
<title>Node10&#45;&gt;Node7</title>
<path fill="none" stroke="#9a32cd" stroke-dasharray="5,2" d="M415.89,-140.36C463.51,-139.62 540.93,-138.43 589.57,-137.68"/>
<polygon fill="#9a32cd" stroke="#9a32cd" points="415.57,-136.86 405.62,-140.51 415.67,-143.86 415.57,-136.86"/>
<text text-anchor="middle" x="521.5" y="-142" font-family="Helvetica,sans-Serif" font-size="10.00"> m_strName</text>
</g>
<!-- Node11 -->
<g id="node11" class="node">
<title>Node11</title>
<g id="a_node11"><a xlink:title=" ">
<polygon fill="white" stroke="#bfbfbf" points="142,-126 142,-156 246,-156 246,-126 142,-126"/>
<text text-anchor="start" x="150" y="-144" font-family="Helvetica,sans-Serif" font-size="10.00">std::basic_string&lt;</text>
<text text-anchor="middle" x="194" y="-133" font-family="Helvetica,sans-Serif" font-size="10.00"> Char &gt;</text>
</a>
</g>
</g>
<!-- Node11&#45;&gt;Node10 -->
<g id="edge12" class="edge">
<title>Node11&#45;&gt;Node10</title>
<path fill="none" stroke="midnightblue" d="M256.41,-141C284.71,-141 317.11,-141 340.38,-141"/>
<polygon fill="midnightblue" stroke="midnightblue" points="256.2,-137.5 246.2,-141 256.2,-144.5 256.2,-137.5"/>
</g>
</g>
</svg>
