<?xml version="1.0" encoding="UTF-8" standalone="no"?>
<!DOCTYPE svg PUBLIC "-//W3C//DTD SVG 1.1//EN"
 "http://www.w3.org/Graphics/SVG/1.1/DTD/svg11.dtd">
<!-- Generated by graphviz version 2.46.0 (0)
 -->
<!-- Title: mn::container::base_rb_tree&lt; TTreeTraits, TAllocator &gt; Pages: 1 -->
<svg width="219pt" height="141pt"
 viewBox="0.00 0.00 219.00 141.00" xmlns="http://www.w3.org/2000/svg" xmlns:xlink="http://www.w3.org/1999/xlink">
<g id="graph0" class="graph" transform="scale(1 1) rotate(0) translate(4 137)">
<title>mn::container::base_rb_tree&lt; TTreeTraits, TAllocator &gt;</title>
<polygon fill="white" stroke="transparent" points="-4,4 -4,-137 215,-137 215,4 -4,4"/>
<!-- Node1 -->
<g id="node1" class="node">
<title>Node1</title>
<g id="a_node1"><a xlink:title=" ">
<polygon fill="#bfbfbf" stroke="black" points="19,-0.5 19,-41.5 142,-41.5 142,-0.5 19,-0.5"/>
<text text-anchor="start" x="27" y="-29.5" font-family="Helvetica,sans-Serif" font-size="10.00">mn::container::base</text>
<text text-anchor="start" x="27" y="-18.5" font-family="Helvetica,sans-Serif" font-size="10.00">_rb_tree&lt; TTreeTraits,</text>
<text text-anchor="middle" x="80.5" y="-7.5" font-family="Helvetica,sans-Serif" font-size="10.00"> TAllocator &gt;</text>
</a>
</g>
</g>
<!-- Node2 -->
<g id="node2" class="node">
<title>Node2</title>
<g id="a_node2"><a xlink:href="structmn_1_1container_1_1rb__tree__node.html" target="_top" xlink:title=" ">
<polygon fill="white" stroke="black" points="0,-101.5 0,-131.5 161,-131.5 161,-101.5 0,-101.5"/>
<text text-anchor="start" x="8" y="-119.5" font-family="Helvetica,sans-Serif" font-size="10.00">mn::container::rb_tree</text>
<text text-anchor="middle" x="80.5" y="-108.5" font-family="Helvetica,sans-Serif" font-size="10.00">_node&lt; TVALUE, TAllocator &gt;</text>
</a>
</g>
</g>
<!-- Node2&#45;&gt;Node1 -->
<g id="edge1" class="edge">
<title>Node2&#45;&gt;Node1</title>
<path fill="none" stroke="#9a32cd" stroke-dasharray="5,2" d="M80.5,-90.95C80.5,-75.53 80.5,-55.91 80.5,-41.55"/>
<polygon fill="#9a32cd" stroke="#9a32cd" points="77,-91.3 80.5,-101.3 84,-91.3 77,-91.3"/>
<text text-anchor="middle" x="110.5" y="-74" font-family="Helvetica,sans-Serif" font-size="10.00"> m_root</text>
<text text-anchor="middle" x="110.5" y="-63" font-family="Helvetica,sans-Serif" font-size="10.00">ms_sentinel</text>
</g>
<!-- Node2&#45;&gt;Node2 -->
<g id="edge2" class="edge">
<title>Node2&#45;&gt;Node2</title>
<path fill="none" stroke="#9a32cd" stroke-dasharray="5,2" d="M171.21,-121.98C176.1,-120.64 179,-118.81 179,-116.5 179,-112.89 171.93,-110.47 161.27,-109.22"/>
<polygon fill="#9a32cd" stroke="#9a32cd" points="170.49,-118.55 161.27,-123.78 171.73,-125.44 170.49,-118.55"/>
<text text-anchor="middle" x="195" y="-125" font-family="Helvetica,sans-Serif" font-size="10.00"> left</text>
<text text-anchor="middle" x="195" y="-114" font-family="Helvetica,sans-Serif" font-size="10.00">parent</text>
<text text-anchor="middle" x="195" y="-103" font-family="Helvetica,sans-Serif" font-size="10.00">right</text>
</g>
</g>
</svg>
