<?xml version="1.0" encoding="UTF-8" standalone="no"?>
<!DOCTYPE svg PUBLIC "-//W3C//DTD SVG 1.1//EN"
 "http://www.w3.org/Graphics/SVG/1.1/DTD/svg11.dtd">
<!-- Generated by graphviz version 2.47.3 (0)
 -->
<!-- Title: mn::device::basic_wifi Pages: 1 -->
<svg width="302pt" height="163pt"
 viewBox="0.00 0.00 301.50 163.00" xmlns="http://www.w3.org/2000/svg" xmlns:xlink="http://www.w3.org/1999/xlink">
<g id="graph0" class="graph" transform="scale(1 1) rotate(0) translate(4 159)">
<title>mn::device::basic_wifi</title>
<polygon fill="white" stroke="transparent" points="-4,4 -4,-159 297.5,-159 297.5,4 -4,4"/>
<!-- Node1 -->
<g id="node1" class="node">
<title>Node1</title>
<g id="a_node1"><a xlink:title="A basic class for wifi.">
<polygon fill="#bfbfbf" stroke="black" points="80,-0.5 80,-19.5 205,-19.5 205,-0.5 80,-0.5"/>
<text text-anchor="middle" x="142.5" y="-7.5" font-family="Helvetica,sans-Serif" font-size="10.00">mn::device::basic_wifi</text>
</a>
</g>
</g>
<!-- Node2 -->
<g id="node2" class="node">
<title>Node2</title>
<g id="a_node2"><a xlink:href="classmn_1_1device_1_1basic__wifi__net__if.html" target="_top" xlink:title="Wrapper basic WiFi class around esp&#45;idf implementation of a esp&#45;netif device.">
<polygon fill="white" stroke="black" points="8,-67.5 8,-97.5 133,-97.5 133,-67.5 8,-67.5"/>
<text text-anchor="start" x="16" y="-85.5" font-family="Helvetica,sans-Serif" font-size="10.00">mn::device::basic_wifi</text>
<text text-anchor="middle" x="70.5" y="-74.5" font-family="Helvetica,sans-Serif" font-size="10.00">_net_if</text>
</a>
</g>
</g>
<!-- Node2&#45;&gt;Node1 -->
<g id="edge1" class="edge">
<title>Node2&#45;&gt;Node1</title>
<path fill="none" stroke="midnightblue" d="M92.32,-60.14C106.09,-46.65 123.16,-29.94 133.42,-19.89"/>
<polygon fill="midnightblue" stroke="midnightblue" points="89.77,-57.74 85.07,-67.23 94.66,-62.74 89.77,-57.74"/>
</g>
<!-- Node3 -->
<g id="node3" class="node">
<title>Node3</title>
<g id="a_node3"><a xlink:href="classmn_1_1device_1_1basic__net__if.html" target="_top" xlink:title="Wrapper class around esp&#45;idf implementation of a esp&#45;netif device.">
<polygon fill="white" stroke="black" points="0,-135.5 0,-154.5 135,-154.5 135,-135.5 0,-135.5"/>
<text text-anchor="middle" x="67.5" y="-142.5" font-family="Helvetica,sans-Serif" font-size="10.00">mn::device::basic_net_if</text>
</a>
</g>
</g>
<!-- Node3&#45;&gt;Node2 -->
<g id="edge2" class="edge">
<title>Node3&#45;&gt;Node2</title>
<path fill="none" stroke="midnightblue" d="M68.43,-125.22C68.87,-116.36 69.39,-105.96 69.79,-97.76"/>
<polygon fill="midnightblue" stroke="midnightblue" points="64.93,-125.17 67.93,-135.33 71.92,-125.52 64.93,-125.17"/>
</g>
<!-- Node4 -->
<g id="node4" class="node">
<title>Node4</title>
<g id="a_node4"><a xlink:href="classmn_1_1basic__event__group.html" target="_top" xlink:title="Wrapper class around FreeRTOS&#39;s implementation of a event_group.">
<polygon fill="white" stroke="black" points="156.5,-73 156.5,-92 286.5,-92 286.5,-73 156.5,-73"/>
<text text-anchor="middle" x="221.5" y="-80" font-family="Helvetica,sans-Serif" font-size="10.00">mn::basic_event_group</text>
</a>
</g>
</g>
<!-- Node4&#45;&gt;Node1 -->
<g id="edge3" class="edge">
<title>Node4&#45;&gt;Node1</title>
<path fill="none" stroke="#9a32cd" stroke-dasharray="5,2" d="M204.23,-66.08C188.3,-51.87 165.22,-31.27 152.27,-19.72"/>
<polygon fill="#9a32cd" stroke="#9a32cd" points="202.02,-68.81 211.81,-72.86 206.68,-63.59 202.02,-68.81"/>
<text text-anchor="middle" x="211.5" y="-41" font-family="Helvetica,sans-Serif" font-size="10.00"> m_eGroup</text>
</g>
<!-- Node5 -->
<g id="node5" class="node">
<title>Node5</title>
<g id="a_node5"><a xlink:title=" ">
<polygon fill="white" stroke="#bfbfbf" points="153.5,-135.5 153.5,-154.5 293.5,-154.5 293.5,-135.5 153.5,-135.5"/>
<text text-anchor="middle" x="223.5" y="-142.5" font-family="Helvetica,sans-Serif" font-size="10.00">MN_ONCOPYABLE_CLASS</text>
</a>
</g>
</g>
<!-- Node5&#45;&gt;Node4 -->
<g id="edge4" class="edge">
<title>Node5&#45;&gt;Node4</title>
<path fill="none" stroke="#8b1a1a" d="M222.87,-125C222.51,-114 222.07,-100.68 221.79,-92.15"/>
<polygon fill="#8b1a1a" stroke="#8b1a1a" points="219.38,-125.45 223.21,-135.33 226.38,-125.22 219.38,-125.45"/>
</g>
</g>
</svg>
