<?xml version="1.0" encoding="UTF-8" standalone="no"?>
<!DOCTYPE svg PUBLIC "-//W3C//DTD SVG 1.1//EN"
 "http://www.w3.org/Graphics/SVG/1.1/DTD/svg11.dtd">
<!-- Generated by graphviz version 2.44.1 (0)
 -->
<!-- Title: basic_timed_lock&lt; TLOCK &gt; Pages: 1 -->
<!--zoomable 513 -->
<svg id="main" version="1.1" xmlns="http://www.w3.org/2000/svg" xmlns:xlink="http://www.w3.org/1999/xlink" xml:space="preserve" onload="init(evt)">
<style type="text/css"><![CDATA[
.edge:hover path { stroke: red; }
.edge:hover polygon { stroke: red; fill: red; }
]]></style>
<script type="text/javascript"><![CDATA[
var edges = document.getElementsByTagName('g');
if (edges && edges.length) {
  for (var i=0;i<edges.length;i++) {
    if (edges[i].id.substr(0,4)=='edge') {
      edges[i].setAttribute('class','edge');
    }
  }
}
]]></script>
        <defs>
                <circle id="rim" cx="0" cy="0" r="7"/>
                <circle id="rim2" cx="0" cy="0" r="3.5"/>
                <g id="zoomPlus">
                        <use xlink:href="#rim" fill="#404040">
                                <set attributeName="fill" to="#808080" begin="zoomplus.mouseover" end="zoomplus.mouseout"/>
                        </use>
                        <path d="M-4,0h8M0,-4v8" fill="none" stroke="white" stroke-width="1.5" pointer-events="none"/>
                </g>
                <g id="zoomMin">
                        <use xlink:href="#rim" fill="#404040">
                                <set attributeName="fill" to="#808080" begin="zoomminus.mouseover" end="zoomminus.mouseout"/>
                        </use>
                        <path d="M-4,0h8" fill="none" stroke="white" stroke-width="1.5" pointer-events="none"/>
                </g>
                <g id="dirArrow">
                        <path fill="none" stroke="white" stroke-width="1.5" d="M0,-3.0v7 M-2.5,-0.5L0,-3.0L2.5,-0.5"/>
                </g>
               <g id="resetDef">
                       <use xlink:href="#rim2" fill="#404040">
                               <set attributeName="fill" to="#808080" begin="reset.mouseover" end="reset.mouseout"/>
                       </use>
               </g>
        </defs>

<script type="text/javascript">
var viewWidth = 478;
var viewHeight = 513;
var sectionId = 'dynsection-0';
</script>
<script xlink:href="svgpan.js"/>
<svg id="graph" class="graph">
<g id="viewport">
<title>basic_timed_lock&lt; TLOCK &gt;</title>
<polygon fill="white" stroke="transparent" points="-4,4 -4,-509 474,-509 474,4 -4,4"/>
<!-- Node1 -->
<g id="node1" class="node">
<title>Node1</title>
<g id="a_node1"><a xlink:title=" ">
<polygon fill="#bfbfbf" stroke="black" points="296,-0.5 296,-19.5 452,-19.5 452,-0.5 296,-0.5"/>
<text text-anchor="middle" x="374" y="-7.5" font-family="Helvetica,sans-Serif" font-size="10.00">basic_timed_lock&lt; TLOCK &gt;</text>
</a>
</g>
</g>
<!-- Node2 -->
<g id="node2" class="node">
<title>Node2</title>
<g id="a_node2"><a xlink:href="classbasic__condition__variable.html" target="_top" xlink:title=" ">
<polygon fill="white" stroke="black" points="305.5,-67.5 305.5,-86.5 442.5,-86.5 442.5,-67.5 305.5,-67.5"/>
<text text-anchor="middle" x="374" y="-74.5" font-family="Helvetica,sans-Serif" font-size="10.00">basic_condition_variable</text>
</a>
</g>
</g>
<!-- Node2&#45;&gt;Node1 -->
<g id="edge1" class="edge">
<title>Node2&#45;&gt;Node1</title>
<path fill="none" stroke="#9a32cd" stroke-dasharray="5,2" d="M374,-57.04C374,-44.67 374,-29.12 374,-19.63"/>
<polygon fill="#9a32cd" stroke="#9a32cd" points="370.5,-57.23 374,-67.23 377.5,-57.23 370.5,-57.23"/>
<text text-anchor="middle" x="389" y="-41" font-family="Helvetica,sans-Serif" font-size="10.00"> m_cv</text>
</g>
<!-- Node3 -->
<g id="node3" class="node">
<title>Node3</title>
<g id="a_node3"><a xlink:href="classbasic__mutex.html" target="_top" xlink:title=" ">
<polygon fill="white" stroke="black" points="380.5,-316 380.5,-335 459.5,-335 459.5,-316 380.5,-316"/>
<text text-anchor="middle" x="420" y="-323" font-family="Helvetica,sans-Serif" font-size="10.00">basic_mutex</text>
</a>
</g>
</g>
<!-- Node3&#45;&gt;Node2 -->
<g id="edge2" class="edge">
<title>Node3&#45;&gt;Node2</title>
<path fill="none" stroke="#9a32cd" stroke-dasharray="5,2" d="M420,-305.52C420,-290.68 420,-269.53 420,-251 420,-251 420,-251 420,-148.5 420,-128.19 417.31,-121.87 406,-105 401.14,-97.76 393.81,-91.37 387.39,-86.63"/>
<polygon fill="#9a32cd" stroke="#9a32cd" points="416.5,-305.9 420,-315.9 423.5,-305.9 416.5,-305.9"/>
<text text-anchor="middle" x="445" y="-219.5" font-family="Helvetica,sans-Serif" font-size="10.00"> m_mutex</text>
</g>
<!-- Node4 -->
<g id="node4" class="node">
<title>Node4</title>
<g id="a_node4"><a xlink:href="classbasic__semaphore.html" target="_top" xlink:title=" ">
<polygon fill="white" stroke="black" points="321,-423 321,-442 423,-442 423,-423 321,-423"/>
<text text-anchor="middle" x="372" y="-430" font-family="Helvetica,sans-Serif" font-size="10.00">basic_semaphore</text>
</a>
</g>
</g>
<!-- Node4&#45;&gt;Node3 -->
<g id="edge3" class="edge">
<title>Node4&#45;&gt;Node3</title>
<path fill="none" stroke="midnightblue" d="M382.7,-414.25C388.54,-404.43 395.65,-391.77 401,-380 408.02,-364.57 414.18,-345.72 417.47,-335.02"/>
<polygon fill="midnightblue" stroke="midnightblue" points="379.59,-412.62 377.39,-422.99 385.57,-416.26 379.59,-412.62"/>
</g>
<!-- Node10 -->
<g id="node10" class="node">
<title>Node10</title>
<g id="a_node10"><a xlink:href="classbasic__binary__semaphore.html" target="_top" xlink:title=" ">
<polygon fill="white" stroke="black" points="254,-360.5 254,-379.5 392,-379.5 392,-360.5 254,-360.5"/>
<text text-anchor="middle" x="323" y="-367.5" font-family="Helvetica,sans-Serif" font-size="10.00">basic_binary_semaphore</text>
</a>
</g>
</g>
<!-- Node4&#45;&gt;Node10 -->
<g id="edge10" class="edge">
<title>Node4&#45;&gt;Node10</title>
<path fill="none" stroke="midnightblue" d="M358.55,-414.89C349.31,-403.49 337.43,-388.81 330.01,-379.65"/>
<polygon fill="midnightblue" stroke="midnightblue" points="355.97,-417.26 364.98,-422.83 361.41,-412.86 355.97,-417.26"/>
</g>
<!-- Node5 -->
<g id="node5" class="node">
<title>Node5</title>
<g id="a_node5"><a xlink:href="class_i_lock_object.html" target="_top" xlink:title=" ">
<polygon fill="white" stroke="black" points="335,-485.5 335,-504.5 409,-504.5 409,-485.5 335,-485.5"/>
<text text-anchor="middle" x="372" y="-492.5" font-family="Helvetica,sans-Serif" font-size="10.00">ILockObject</text>
</a>
</g>
</g>
<!-- Node5&#45;&gt;Node4 -->
<g id="edge4" class="edge">
<title>Node5&#45;&gt;Node4</title>
<path fill="none" stroke="midnightblue" d="M372,-475C372,-464 372,-450.68 372,-442.15"/>
<polygon fill="midnightblue" stroke="midnightblue" points="368.5,-475.33 372,-485.33 375.5,-475.33 368.5,-475.33"/>
</g>
<!-- Node6 -->
<g id="node6" class="node">
<title>Node6</title>
<g id="a_node6"><a xlink:title=" ">
<polygon fill="white" stroke="#bfbfbf" points="264,-134.5 264,-164.5 392,-164.5 392,-134.5 264,-134.5"/>
<text text-anchor="start" x="272" y="-152.5" font-family="Helvetica,sans-Serif" font-size="10.00">std::list&lt; basic_convar</text>
<text text-anchor="middle" x="328" y="-141.5" font-family="Helvetica,sans-Serif" font-size="10.00">_task * &gt;</text>
</a>
</g>
</g>
<!-- Node6&#45;&gt;Node2 -->
<g id="edge5" class="edge">
<title>Node6&#45;&gt;Node2</title>
<path fill="none" stroke="#9a32cd" stroke-dasharray="5,2" d="M337.82,-124.92C341,-118.25 344.81,-111.15 349,-105 353.46,-98.45 359.47,-91.92 364.47,-86.91"/>
<polygon fill="#9a32cd" stroke="#9a32cd" points="334.55,-123.65 333.62,-134.21 340.93,-126.54 334.55,-123.65"/>
<text text-anchor="middle" x="377.5" y="-108" font-family="Helvetica,sans-Serif" font-size="10.00"> m_waitList</text>
</g>
<!-- Node7 -->
<g id="node7" class="node">
<title>Node7</title>
<g id="a_node7"><a xlink:href="classbasic__convar__task.html" target="_top" xlink:title=" ">
<polygon fill="white" stroke="black" points="274.5,-212.5 274.5,-231.5 381.5,-231.5 381.5,-212.5 274.5,-212.5"/>
<text text-anchor="middle" x="328" y="-219.5" font-family="Helvetica,sans-Serif" font-size="10.00">basic_convar_task</text>
</a>
</g>
</g>
<!-- Node7&#45;&gt;Node6 -->
<g id="edge6" class="edge">
<title>Node7&#45;&gt;Node6</title>
<path fill="none" stroke="#9a32cd" stroke-dasharray="5,2" d="M328,-202.24C328,-190.41 328,-175.38 328,-164.58"/>
<polygon fill="#9a32cd" stroke="#9a32cd" points="324.5,-202.36 328,-212.36 331.5,-202.36 324.5,-202.36"/>
<text text-anchor="middle" x="352.5" y="-186" font-family="Helvetica,sans-Serif" font-size="10.00"> elements</text>
</g>
<!-- Node8 -->
<g id="node8" class="node">
<title>Node8</title>
<g id="a_node8"><a xlink:href="classbasic__task.html" target="_top" xlink:title=" ">
<polygon fill="white" stroke="black" points="132,-270.5 132,-289.5 200,-289.5 200,-270.5 132,-270.5"/>
<text text-anchor="middle" x="166" y="-277.5" font-family="Helvetica,sans-Serif" font-size="10.00">basic_task</text>
</a>
</g>
</g>
<!-- Node8&#45;&gt;Node7 -->
<g id="edge7" class="edge">
<title>Node8&#45;&gt;Node7</title>
<path fill="none" stroke="midnightblue" d="M200.09,-267.22C230.92,-256.56 275.59,-241.12 303.16,-231.59"/>
<polygon fill="midnightblue" stroke="midnightblue" points="198.91,-263.92 190.6,-270.49 201.2,-270.54 198.91,-263.92"/>
</g>
<!-- Node8&#45;&gt;Node8 -->
<g id="edge13" class="edge">
<title>Node8&#45;&gt;Node8</title>
<path fill="none" stroke="#9a32cd" stroke-dasharray="5,2" d="M210.15,-284.39C214.92,-283.55 218,-282.08 218,-280 218,-276.66 210.13,-274.92 200.01,-274.76"/>
<polygon fill="#9a32cd" stroke="#9a32cd" points="209.68,-280.92 200.01,-285.24 210.27,-287.89 209.68,-280.92"/>
<text text-anchor="middle" x="244" y="-283" font-family="Helvetica,sans-Serif" font-size="10.00"> m_pChild</text>
<text text-anchor="middle" x="244" y="-272" font-family="Helvetica,sans-Serif" font-size="10.00">m_pParent</text>
</g>
<!-- Node9 -->
<g id="node9" class="node">
<title>Node9</title>
<g id="a_node9"><a xlink:href="classbasic__event__group.html" target="_top" xlink:title=" ">
<polygon fill="white" stroke="black" points="0,-360.5 0,-379.5 108,-379.5 108,-360.5 0,-360.5"/>
<text text-anchor="middle" x="54" y="-367.5" font-family="Helvetica,sans-Serif" font-size="10.00">basic_event_group</text>
</a>
</g>
</g>
<!-- Node9&#45;&gt;Node8 -->
<g id="edge8" class="edge">
<title>Node9&#45;&gt;Node8</title>
<path fill="none" stroke="#9a32cd" stroke-dasharray="5,2" d="M60.63,-350.88C66.31,-337.63 75.71,-320.1 89,-309 101.23,-298.79 117.5,-292.15 131.93,-287.92"/>
<polygon fill="#9a32cd" stroke="#9a32cd" points="57.29,-349.8 56.86,-360.38 63.8,-352.38 57.29,-349.8"/>
<text text-anchor="middle" x="112" y="-323" font-family="Helvetica,sans-Serif" font-size="10.00"> m_event</text>
</g>
<!-- Node10&#45;&gt;Node7 -->
<g id="edge14" class="edge">
<title>Node10&#45;&gt;Node7</title>
<path fill="none" stroke="#9a32cd" stroke-dasharray="5,2" d="M323.65,-350.12C324.74,-318.27 326.9,-255.07 327.7,-231.83"/>
<polygon fill="#9a32cd" stroke="#9a32cd" points="320.14,-350.19 323.3,-360.3 327.14,-350.43 320.14,-350.19"/>
<text text-anchor="middle" x="356.5" y="-277.5" font-family="Helvetica,sans-Serif" font-size="10.00"> m_waitSem</text>
</g>
<!-- Node10&#45;&gt;Node8 -->
<g id="edge9" class="edge">
<title>Node10&#45;&gt;Node8</title>
<path fill="none" stroke="#9a32cd" stroke-dasharray="5,2" d="M257.44,-357.44C246.33,-353.66 235.37,-348.65 226,-342 211.42,-331.66 215.39,-321.89 203,-309 195.96,-301.68 186.89,-294.79 179.49,-289.67"/>
<polygon fill="#9a32cd" stroke="#9a32cd" points="256.62,-360.85 267.2,-360.46 258.68,-354.16 256.62,-360.85"/>
<text text-anchor="middle" x="271" y="-334" font-family="Helvetica,sans-Serif" font-size="10.00"> m_contextMutext</text>
<text text-anchor="middle" x="271" y="-323" font-family="Helvetica,sans-Serif" font-size="10.00">m_continuemutex</text>
<text text-anchor="middle" x="271" y="-312" font-family="Helvetica,sans-Serif" font-size="10.00">m_runningMutex</text>
</g>
<!-- Node11 -->
<g id="node11" class="node">
<title>Node11</title>
<g id="a_node11"><a xlink:title="STL class.">
<polygon fill="white" stroke="#bfbfbf" points="126.5,-360.5 126.5,-379.5 191.5,-379.5 191.5,-360.5 126.5,-360.5"/>
<text text-anchor="middle" x="159" y="-367.5" font-family="Helvetica,sans-Serif" font-size="10.00">std::string</text>
</a>
</g>
</g>
<!-- Node11&#45;&gt;Node8 -->
<g id="edge11" class="edge">
<title>Node11&#45;&gt;Node8</title>
<path fill="none" stroke="#9a32cd" stroke-dasharray="5,2" d="M146.15,-351.67C144.44,-348.58 142.95,-345.3 142,-342 137.93,-327.91 136.91,-322.76 142,-309 144.75,-301.55 150.47,-294.75 155.63,-289.72"/>
<polygon fill="#9a32cd" stroke="#9a32cd" points="143.25,-353.63 151.62,-360.13 149.13,-349.83 143.25,-353.63"/>
<text text-anchor="middle" x="172.5" y="-323" font-family="Helvetica,sans-Serif" font-size="10.00"> m_strName</text>
</g>
<!-- Node12 -->
<g id="node12" class="node">
<title>Node12</title>
<g id="a_node12"><a xlink:title="STL class.">
<polygon fill="white" stroke="#bfbfbf" points="107,-417.5 107,-447.5 211,-447.5 211,-417.5 107,-417.5"/>
<text text-anchor="start" x="115" y="-435.5" font-family="Helvetica,sans-Serif" font-size="10.00">std::basic_string&lt;</text>
<text text-anchor="middle" x="159" y="-424.5" font-family="Helvetica,sans-Serif" font-size="10.00"> char &gt;</text>
</a>
</g>
</g>
<!-- Node12&#45;&gt;Node11 -->
<g id="edge12" class="edge">
<title>Node12&#45;&gt;Node11</title>
<path fill="none" stroke="midnightblue" d="M159,-407.35C159,-397.51 159,-386.78 159,-379.54"/>
<polygon fill="midnightblue" stroke="midnightblue" points="155.5,-407.47 159,-417.47 162.5,-407.47 155.5,-407.47"/>
</g>
</g>
</svg>
        <g id="navigator" transform="translate(0 0)" fill="#404254">
                <rect fill="#f2f5e9" fill-opacity="0.5" stroke="#606060" stroke-width=".5" x="0" y="0" width="60" height="60"/>
                <use id="zoomplus" xlink:href="#zoomPlus" x="17" y="9" onmousedown="handleZoom(evt,'in')"/>
                <use id="zoomminus" xlink:href="#zoomMin" x="42" y="9" onmousedown="handleZoom(evt,'out')"/>
                <use id="reset" xlink:href="#resetDef" x="30" y="36" onmousedown="handleReset()"/>
                <g id="arrowUp" xlink:href="#dirArrow" transform="translate(30 24)" onmousedown="handlePan(0,-1)">
                  <use xlink:href="#rim" fill="#404040">
                        <set attributeName="fill" to="#808080" begin="arrowUp.mouseover" end="arrowUp.mouseout"/>
                  </use>
                  <path fill="none" stroke="white" stroke-width="1.5" d="M0,-3.0v7 M-2.5,-0.5L0,-3.0L2.5,-0.5"/>
                </g>
                <g id="arrowRight" xlink:href="#dirArrow" transform="rotate(90) translate(36 -43)" onmousedown="handlePan(1,0)">
                  <use xlink:href="#rim" fill="#404040">
                        <set attributeName="fill" to="#808080" begin="arrowRight.mouseover" end="arrowRight.mouseout"/>
                  </use>
                  <path fill="none" stroke="white" stroke-width="1.5" d="M0,-3.0v7 M-2.5,-0.5L0,-3.0L2.5,-0.5"/>
                </g>
                <g id="arrowDown" xlink:href="#dirArrow" transform="rotate(180) translate(-30 -48)" onmousedown="handlePan(0,1)">
                  <use xlink:href="#rim" fill="#404040">
                        <set attributeName="fill" to="#808080" begin="arrowDown.mouseover" end="arrowDown.mouseout"/>
                  </use>
                  <path fill="none" stroke="white" stroke-width="1.5" d="M0,-3.0v7 M-2.5,-0.5L0,-3.0L2.5,-0.5"/>
                </g>
                <g id="arrowLeft" xlink:href="#dirArrow" transform="rotate(270) translate(-36 17)" onmousedown="handlePan(-1,0)">
                  <use xlink:href="#rim" fill="#404040">
                        <set attributeName="fill" to="#808080" begin="arrowLeft.mouseover" end="arrowLeft.mouseout"/>
                  </use>
                  <path fill="none" stroke="white" stroke-width="1.5" d="M0,-3.0v7 M-2.5,-0.5L0,-3.0L2.5,-0.5"/>
                </g>
        </g>
        <svg viewBox="0 0 15 15" width="100%" height="30px" preserveAspectRatio="xMaxYMin meet">
         <g id="arrow_out" transform="scale(0.3 0.3)">
          <a xlink:href="classbasic__timed__lock__coll__graph_org.svg" target="_base">
           <rect id="button" ry="5" rx="5" y="6" x="6" height="38" width="38"
                fill="#f2f5e9" fill-opacity="0.5" stroke="#606060" stroke-width="1.0"/>
           <path id="arrow"
             d="M 11.500037,31.436501 C 11.940474,20.09759 22.043105,11.32322 32.158766,21.979434 L 37.068811,17.246167 C 37.068811,17.246167 37.088388,32 37.088388,32 L 22.160133,31.978069 C 22.160133,31.978069 26.997745,27.140456 26.997745,27.140456 C 18.528582,18.264221 13.291696,25.230495 11.500037,31.436501 z"
             style="fill:#404040;"/>
          </a>
         </g>
        </svg>
</svg>
