<?xml version="1.0" encoding="UTF-8" standalone="no"?>
<!DOCTYPE svg PUBLIC "-//W3C//DTD SVG 1.1//EN"
 "http://www.w3.org/Graphics/SVG/1.1/DTD/svg11.dtd">
<!-- Generated by graphviz version 2.46.0 (0)
 -->
<!-- Title: mn::net::basic_ip_socket Pages: 1 -->
<svg width="448pt" height="186pt"
 viewBox="0.00 0.00 448.00 186.00" xmlns="http://www.w3.org/2000/svg" xmlns:xlink="http://www.w3.org/1999/xlink">
<g id="graph0" class="graph" transform="scale(1 1) rotate(0) translate(4 182)">
<title>mn::net::basic_ip_socket</title>
<polygon fill="white" stroke="transparent" points="-4,4 -4,-182 444,-182 444,4 -4,4"/>
<!-- Node1 -->
<g id="node1" class="node">
<title>Node1</title>
<g id="a_node1"><a xlink:title="Wrapper class around lwip implementation of a socket.">
<polygon fill="#bfbfbf" stroke="black" points="0,-79 0,-98 137,-98 137,-79 0,-79"/>
<text text-anchor="middle" x="68.5" y="-86" font-family="Helvetica,sans-Serif" font-size="10.00">mn::net::basic_ip_socket</text>
</a>
</g>
</g>
<!-- Node2 -->
<g id="node2" class="node">
<title>Node2</title>
<g id="a_node2"><a xlink:href="classmn_1_1net_1_1basic__ip4__socket.html" target="_top" xlink:title=" ">
<polygon fill="white" stroke="black" points="173,-98.5 173,-128.5 279,-128.5 279,-98.5 173,-98.5"/>
<text text-anchor="start" x="181" y="-116.5" font-family="Helvetica,sans-Serif" font-size="10.00">mn::net::basic_ip4</text>
<text text-anchor="middle" x="226" y="-105.5" font-family="Helvetica,sans-Serif" font-size="10.00">_socket</text>
</a>
</g>
</g>
<!-- Node1&#45;&gt;Node2 -->
<g id="edge1" class="edge">
<title>Node1&#45;&gt;Node2</title>
<path fill="none" stroke="midnightblue" d="M138.71,-99.63C150.16,-101.47 161.86,-103.35 172.8,-105.11"/>
<polygon fill="midnightblue" stroke="midnightblue" points="139.16,-96.15 128.73,-98.02 138.05,-103.07 139.16,-96.15"/>
</g>
<!-- Node5 -->
<g id="node5" class="node">
<title>Node5</title>
<g id="a_node5"><a xlink:href="classmn_1_1net_1_1basic__ip6__socket.html" target="_top" xlink:title=" ">
<polygon fill="white" stroke="black" points="173,-49.5 173,-79.5 279,-79.5 279,-49.5 173,-49.5"/>
<text text-anchor="start" x="181" y="-67.5" font-family="Helvetica,sans-Serif" font-size="10.00">mn::net::basic_ip6</text>
<text text-anchor="middle" x="226" y="-56.5" font-family="Helvetica,sans-Serif" font-size="10.00">_socket</text>
</a>
</g>
</g>
<!-- Node1&#45;&gt;Node5 -->
<g id="edge4" class="edge">
<title>Node1&#45;&gt;Node5</title>
<path fill="none" stroke="midnightblue" d="M141.47,-77.39C152.04,-75.76 162.75,-74.11 172.82,-72.55"/>
<polygon fill="midnightblue" stroke="midnightblue" points="140.75,-73.96 131.4,-78.95 141.82,-80.88 140.75,-73.96"/>
</g>
<!-- Node3 -->
<g id="node3" class="node">
<title>Node3</title>
<g id="a_node3"><a xlink:href="classmn_1_1net_1_1basic__dgram__ip__socket.html" target="_top" xlink:title=" ">
<polygon fill="white" stroke="black" points="316.5,-147.5 316.5,-177.5 438.5,-177.5 438.5,-147.5 316.5,-147.5"/>
<text text-anchor="start" x="324.5" y="-165.5" font-family="Helvetica,sans-Serif" font-size="10.00">mn::net::basic_dgram</text>
<text text-anchor="middle" x="377.5" y="-154.5" font-family="Helvetica,sans-Serif" font-size="10.00">_ip_socket</text>
</a>
</g>
</g>
<!-- Node2&#45;&gt;Node3 -->
<g id="edge2" class="edge">
<title>Node2&#45;&gt;Node3</title>
<path fill="none" stroke="midnightblue" d="M282.71,-131.76C298.48,-136.93 315.46,-142.49 330.58,-147.45"/>
<polygon fill="midnightblue" stroke="midnightblue" points="283.67,-128.39 273.07,-128.6 281.49,-135.04 283.67,-128.39"/>
</g>
<!-- Node4 -->
<g id="node4" class="node">
<title>Node4</title>
<g id="a_node4"><a xlink:href="classmn_1_1net_1_1basic__stream__ip__socket.html" target="_top" xlink:title=" ">
<polygon fill="white" stroke="black" points="315,-98.5 315,-128.5 440,-128.5 440,-98.5 315,-98.5"/>
<text text-anchor="start" x="323" y="-116.5" font-family="Helvetica,sans-Serif" font-size="10.00">mn::net::basic_stream</text>
<text text-anchor="middle" x="377.5" y="-105.5" font-family="Helvetica,sans-Serif" font-size="10.00">_ip_socket</text>
</a>
</g>
</g>
<!-- Node2&#45;&gt;Node4 -->
<g id="edge3" class="edge">
<title>Node2&#45;&gt;Node4</title>
<path fill="none" stroke="midnightblue" d="M289.38,-113.5C297.77,-113.5 306.37,-113.5 314.75,-113.5"/>
<polygon fill="midnightblue" stroke="midnightblue" points="289.29,-110 279.29,-113.5 289.29,-117 289.29,-110"/>
</g>
<!-- Node6 -->
<g id="node6" class="node">
<title>Node6</title>
<g id="a_node6"><a xlink:href="classmn_1_1net_1_1basic__dgram__ip6__socket.html" target="_top" xlink:title=" ">
<polygon fill="white" stroke="black" points="316.5,-49.5 316.5,-79.5 438.5,-79.5 438.5,-49.5 316.5,-49.5"/>
<text text-anchor="start" x="324.5" y="-67.5" font-family="Helvetica,sans-Serif" font-size="10.00">mn::net::basic_dgram</text>
<text text-anchor="middle" x="377.5" y="-56.5" font-family="Helvetica,sans-Serif" font-size="10.00">_ip6_socket</text>
</a>
</g>
</g>
<!-- Node5&#45;&gt;Node6 -->
<g id="edge5" class="edge">
<title>Node5&#45;&gt;Node6</title>
<path fill="none" stroke="midnightblue" d="M289.55,-64.5C298.4,-64.5 307.49,-64.5 316.31,-64.5"/>
<polygon fill="midnightblue" stroke="midnightblue" points="289.29,-61 279.29,-64.5 289.29,-68 289.29,-61"/>
</g>
<!-- Node7 -->
<g id="node7" class="node">
<title>Node7</title>
<g id="a_node7"><a xlink:href="classmn_1_1net_1_1basic__stream__ip6__socket.html" target="_top" xlink:title=" ">
<polygon fill="white" stroke="black" points="315,-0.5 315,-30.5 440,-30.5 440,-0.5 315,-0.5"/>
<text text-anchor="start" x="323" y="-18.5" font-family="Helvetica,sans-Serif" font-size="10.00">mn::net::basic_stream</text>
<text text-anchor="middle" x="377.5" y="-7.5" font-family="Helvetica,sans-Serif" font-size="10.00">_ip6_socket</text>
</a>
</g>
</g>
<!-- Node5&#45;&gt;Node7 -->
<g id="edge6" class="edge">
<title>Node5&#45;&gt;Node7</title>
<path fill="none" stroke="midnightblue" d="M282.71,-46.24C298.48,-41.07 315.46,-35.51 330.58,-30.55"/>
<polygon fill="midnightblue" stroke="midnightblue" points="281.49,-42.96 273.07,-49.4 283.67,-49.61 281.49,-42.96"/>
</g>
</g>
</svg>
