<?xml version="1.0" encoding="UTF-8" standalone="no"?>
<!DOCTYPE svg PUBLIC "-//W3C//DTD SVG 1.1//EN"
 "http://www.w3.org/Graphics/SVG/1.1/DTD/svg11.dtd">
<!-- Generated by graphviz version 2.47.3 (0)
 -->
<!-- Title: mn::pointer::basic_weak_ptr&lt; T, TRefType &gt; Pages: 1 -->
<svg width="174pt" height="163pt"
 viewBox="0.00 0.00 174.00 163.00" xmlns="http://www.w3.org/2000/svg" xmlns:xlink="http://www.w3.org/1999/xlink">
<g id="graph0" class="graph" transform="scale(1 1) rotate(0) translate(4 159)">
<title>mn::pointer::basic_weak_ptr&lt; T, TRefType &gt;</title>
<polygon fill="white" stroke="transparent" points="-4,4 -4,-159 170,-159 170,4 -4,4"/>
<!-- Node1 -->
<g id="node1" class="node">
<title>Node1</title>
<g id="a_node1"><a xlink:title=" ">
<polygon fill="#bfbfbf" stroke="black" points="10,-0.5 10,-30.5 156,-30.5 156,-0.5 10,-0.5"/>
<text text-anchor="start" x="18" y="-18.5" font-family="Helvetica,sans-Serif" font-size="10.00">mn::pointer::basic</text>
<text text-anchor="middle" x="83" y="-7.5" font-family="Helvetica,sans-Serif" font-size="10.00">_weak_ptr&lt; T, TRefType &gt;</text>
</a>
</g>
</g>
<!-- Node2 -->
<g id="node2" class="node">
<title>Node2</title>
<g id="a_node2"><a xlink:href="structmn_1_1__atomic.html" target="_top" xlink:title=" ">
<polygon fill="white" stroke="black" points="19,-78.5 19,-97.5 147,-97.5 147,-78.5 19,-78.5"/>
<text text-anchor="middle" x="83" y="-85.5" font-family="Helvetica,sans-Serif" font-size="10.00">mn::_atomic&lt; size_t &gt;</text>
</a>
</g>
</g>
<!-- Node2&#45;&gt;Node1 -->
<g id="edge1" class="edge">
<title>Node2&#45;&gt;Node1</title>
<path fill="none" stroke="#9a32cd" stroke-dasharray="5,2" d="M83,-68.24C83,-56.41 83,-41.38 83,-30.58"/>
<polygon fill="#9a32cd" stroke="#9a32cd" points="79.5,-68.36 83,-78.36 86.5,-68.36 79.5,-68.36"/>
<text text-anchor="middle" x="99" y="-52" font-family="Helvetica,sans-Serif" font-size="10.00"> m_ref</text>
</g>
<!-- Node3 -->
<g id="node3" class="node">
<title>Node3</title>
<g id="a_node3"><a xlink:title=" ">
<polygon fill="white" stroke="#bfbfbf" points="0,-135.5 0,-154.5 166,-154.5 166,-135.5 0,-135.5"/>
<text text-anchor="middle" x="83" y="-142.5" font-family="Helvetica,sans-Serif" font-size="10.00">BASE_ATOMIC_TYPE&lt; size_t &gt;</text>
</a>
</g>
</g>
<!-- Node3&#45;&gt;Node2 -->
<g id="edge2" class="edge">
<title>Node3&#45;&gt;Node2</title>
<path fill="none" stroke="midnightblue" d="M83,-125.12C83,-115.82 83,-105.06 83,-97.71"/>
<polygon fill="midnightblue" stroke="midnightblue" points="79.5,-125.41 83,-135.41 86.5,-125.41 79.5,-125.41"/>
</g>
</g>
</svg>
