<?xml version="1.0" encoding="UTF-8" standalone="no"?>
<!DOCTYPE svg PUBLIC "-//W3C//DTD SVG 1.1//EN"
 "http://www.w3.org/Graphics/SVG/1.1/DTD/svg11.dtd">
<!-- Generated by graphviz version 2.47.1 (0)
 -->
<!-- Title: mn::ext::basic_condition_variable Pages: 1 -->
<svg width="502pt" height="512pt"
 viewBox="0.00 0.00 502.00 512.00" xmlns="http://www.w3.org/2000/svg" xmlns:xlink="http://www.w3.org/1999/xlink">
<g id="graph0" class="graph" transform="scale(1 1) rotate(0) translate(4 508)">
<title>mn::ext::basic_condition_variable</title>
<polygon fill="white" stroke="transparent" points="-4,4 -4,-508 498,-508 498,4 -4,4"/>
<!-- Node1 -->
<g id="node1" class="node">
<title>Node1</title>
<g id="a_node1"><a xlink:title=" ">
<polygon fill="#bfbfbf" stroke="black" points="78,-0.5 78,-30.5 214,-30.5 214,-0.5 78,-0.5"/>
<text text-anchor="start" x="86" y="-18.5" font-family="Helvetica,sans-Serif" font-size="10.00">mn::ext::basic_condition</text>
<text text-anchor="middle" x="146" y="-7.5" font-family="Helvetica,sans-Serif" font-size="10.00">_variable</text>
</a>
</g>
</g>
<!-- Node2 -->
<g id="node2" class="node">
<title>Node2</title>
<g id="a_node2"><a xlink:title=" ">
<polygon fill="white" stroke="#bfbfbf" points="0,-84 0,-103 118,-103 118,-84 0,-84"/>
<text text-anchor="middle" x="59" y="-91" font-family="Helvetica,sans-Serif" font-size="10.00">MN_DEFAULT_CLASS</text>
</a>
</g>
</g>
<!-- Node2&#45;&gt;Node1 -->
<g id="edge1" class="edge">
<title>Node2&#45;&gt;Node1</title>
<path fill="none" stroke="#8b1a1a" d="M76.85,-76.9C92.46,-63.27 114.91,-43.66 129.95,-30.52"/>
<polygon fill="#8b1a1a" stroke="#8b1a1a" points="74.21,-74.57 68.98,-83.78 78.81,-79.84 74.21,-74.57"/>
</g>
<!-- Node3 -->
<g id="node3" class="node">
<title>Node3</title>
<g id="a_node3"><a xlink:href="classmn_1_1basic__mutex.html" target="_top" xlink:title=" ">
<polygon fill="white" stroke="black" points="95.5,-258 95.5,-277 196.5,-277 196.5,-258 95.5,-258"/>
<text text-anchor="middle" x="146" y="-265" font-family="Helvetica,sans-Serif" font-size="10.00">mn::basic_mutex</text>
</a>
</g>
</g>
<!-- Node3&#45;&gt;Node1 -->
<g id="edge2" class="edge">
<title>Node3&#45;&gt;Node1</title>
<path fill="none" stroke="#9a32cd" stroke-dasharray="5,2" d="M146,-247.56C146,-233.15 146,-212.83 146,-195 146,-195 146,-195 146,-92.5 146,-70.86 146,-45.76 146,-30.51"/>
<polygon fill="#9a32cd" stroke="#9a32cd" points="142.5,-247.69 146,-257.69 149.5,-247.69 142.5,-247.69"/>
<text text-anchor="middle" x="171" y="-163.5" font-family="Helvetica,sans-Serif" font-size="10.00"> m_mutex</text>
</g>
<!-- Node4 -->
<g id="node4" class="node">
<title>Node4</title>
<g id="a_node4"><a xlink:href="classmn_1_1basic__semaphore.html" target="_top" xlink:title=" ">
<polygon fill="white" stroke="black" points="192,-365 192,-384 316,-384 316,-365 192,-365"/>
<text text-anchor="middle" x="254" y="-372" font-family="Helvetica,sans-Serif" font-size="10.00">mn::basic_semaphore</text>
</a>
</g>
</g>
<!-- Node4&#45;&gt;Node3 -->
<g id="edge3" class="edge">
<title>Node4&#45;&gt;Node3</title>
<path fill="none" stroke="midnightblue" d="M220.34,-360.87C201.77,-352.39 179.58,-339.53 165,-322 153.91,-308.66 149.09,-288.38 147.16,-277"/>
<polygon fill="midnightblue" stroke="midnightblue" points="219.1,-364.15 229.67,-364.91 221.88,-357.73 219.1,-364.15"/>
</g>
<!-- Node10 -->
<g id="node10" class="node">
<title>Node10</title>
<g id="a_node10"><a xlink:href="classmn_1_1basic__binary__semaphore.html" target="_top" xlink:title=" ">
<polygon fill="white" stroke="black" points="174,-302.5 174,-321.5 334,-321.5 334,-302.5 174,-302.5"/>
<text text-anchor="middle" x="254" y="-309.5" font-family="Helvetica,sans-Serif" font-size="10.00">mn::basic_binary_semaphore</text>
</a>
</g>
</g>
<!-- Node4&#45;&gt;Node10 -->
<g id="edge11" class="edge">
<title>Node4&#45;&gt;Node10</title>
<path fill="none" stroke="midnightblue" d="M254,-354.5C254,-343.5 254,-330.18 254,-321.65"/>
<polygon fill="midnightblue" stroke="midnightblue" points="250.5,-354.83 254,-364.83 257.5,-354.83 250.5,-354.83"/>
</g>
<!-- Node5 -->
<g id="node5" class="node">
<title>Node5</title>
<g id="a_node5"><a xlink:href="classmn_1_1ILockObject.html" target="_top" xlink:title=" ">
<polygon fill="white" stroke="black" points="230.5,-427.5 230.5,-446.5 325.5,-446.5 325.5,-427.5 230.5,-427.5"/>
<text text-anchor="middle" x="278" y="-434.5" font-family="Helvetica,sans-Serif" font-size="10.00">mn::ILockObject</text>
</a>
</g>
</g>
<!-- Node5&#45;&gt;Node4 -->
<g id="edge4" class="edge">
<title>Node5&#45;&gt;Node4</title>
<path fill="none" stroke="midnightblue" d="M270.74,-417.69C266.32,-406.56 260.89,-392.86 257.43,-384.15"/>
<polygon fill="midnightblue" stroke="midnightblue" points="267.62,-419.33 274.56,-427.33 274.13,-416.75 267.62,-419.33"/>
</g>
<!-- Node6 -->
<g id="node6" class="node">
<title>Node6</title>
<g id="a_node6"><a xlink:title=" ">
<polygon fill="white" stroke="#bfbfbf" points="258.5,-484.5 258.5,-503.5 389.5,-503.5 389.5,-484.5 258.5,-484.5"/>
<text text-anchor="middle" x="324" y="-491.5" font-family="Helvetica,sans-Serif" font-size="10.00">MN_ONSIGLETN_CLASS</text>
</a>
</g>
</g>
<!-- Node6&#45;&gt;Node5 -->
<g id="edge5" class="edge">
<title>Node6&#45;&gt;Node5</title>
<path fill="none" stroke="#8b1a1a" d="M310.23,-476.53C302.03,-466.74 291.97,-454.7 285.29,-446.71"/>
<polygon fill="#8b1a1a" stroke="#8b1a1a" points="307.71,-478.98 316.81,-484.41 313.08,-474.49 307.71,-478.98"/>
</g>
<!-- Node9 -->
<g id="node9" class="node">
<title>Node9</title>
<g id="a_node9"><a xlink:href="classmn_1_1basic__task.html" target="_top" xlink:title="Wrapper class around FreeRTOS&#39;s implementation of a task.">
<polygon fill="white" stroke="black" points="310,-213.5 310,-232.5 400,-232.5 400,-213.5 310,-213.5"/>
<text text-anchor="middle" x="355" y="-220.5" font-family="Helvetica,sans-Serif" font-size="10.00">mn::basic_task</text>
</a>
</g>
</g>
<!-- Node6&#45;&gt;Node9 -->
<g id="edge9" class="edge">
<title>Node6&#45;&gt;Node9</title>
<path fill="none" stroke="#8b1a1a" d="M342.69,-476.97C352.29,-466.91 362,-453.02 362,-438 362,-438 362,-438 362,-311 362,-282.21 358.14,-248.23 356.16,-232.63"/>
<polygon fill="#8b1a1a" stroke="#8b1a1a" points="339.98,-474.72 335.2,-484.17 344.83,-479.76 339.98,-474.72"/>
</g>
<!-- Node7 -->
<g id="node7" class="node">
<title>Node7</title>
<g id="a_node7"><a xlink:title=" ">
<polygon fill="white" stroke="#bfbfbf" points="198,-78.5 198,-108.5 330,-108.5 330,-78.5 198,-78.5"/>
<text text-anchor="start" x="206" y="-96.5" font-family="Helvetica,sans-Serif" font-size="10.00">std::list&lt; mn::ext</text>
<text text-anchor="middle" x="264" y="-85.5" font-family="Helvetica,sans-Serif" font-size="10.00">::basic_convar_task * &gt;</text>
</a>
</g>
</g>
<!-- Node7&#45;&gt;Node1 -->
<g id="edge6" class="edge">
<title>Node7&#45;&gt;Node1</title>
<path fill="none" stroke="#9a32cd" stroke-dasharray="5,2" d="M233.67,-72.97C213.07,-59.7 186.31,-42.46 167.8,-30.54"/>
<polygon fill="#9a32cd" stroke="#9a32cd" points="231.78,-75.91 242.08,-78.38 235.57,-70.03 231.78,-75.91"/>
<text text-anchor="middle" x="241.5" y="-52" font-family="Helvetica,sans-Serif" font-size="10.00"> m_waitList</text>
</g>
<!-- Node8 -->
<g id="node8" class="node">
<title>Node8</title>
<g id="a_node8"><a xlink:href="classmn_1_1ext_1_1basic__convar__task.html" target="_top" xlink:title=" ">
<polygon fill="white" stroke="black" points="214,-156.5 214,-175.5 364,-175.5 364,-156.5 214,-156.5"/>
<text text-anchor="middle" x="289" y="-163.5" font-family="Helvetica,sans-Serif" font-size="10.00">mn::ext::basic_convar_task</text>
</a>
</g>
</g>
<!-- Node8&#45;&gt;Node7 -->
<g id="edge7" class="edge">
<title>Node8&#45;&gt;Node7</title>
<path fill="none" stroke="#9a32cd" stroke-dasharray="5,2" d="M282.48,-146.6C278.26,-134.72 272.86,-119.49 268.99,-108.58"/>
<polygon fill="#9a32cd" stroke="#9a32cd" points="279.29,-148.1 285.93,-156.36 285.89,-145.76 279.29,-148.1"/>
<text text-anchor="middle" x="303.5" y="-130" font-family="Helvetica,sans-Serif" font-size="10.00"> elements</text>
</g>
<!-- Node9&#45;&gt;Node8 -->
<g id="edge8" class="edge">
<title>Node9&#45;&gt;Node8</title>
<path fill="none" stroke="midnightblue" d="M337,-207C324.95,-196.96 309.53,-184.1 299.46,-175.71"/>
<polygon fill="midnightblue" stroke="midnightblue" points="334.76,-209.69 344.69,-213.41 339.25,-204.32 334.76,-209.69"/>
</g>
<!-- Node10&#45;&gt;Node8 -->
<g id="edge14" class="edge">
<title>Node10&#45;&gt;Node8</title>
<path fill="none" stroke="#9a32cd" stroke-dasharray="5,2" d="M245.95,-293.22C238.02,-272.98 228.61,-239.33 240,-213 247.04,-196.72 263,-183.56 274.8,-175.55"/>
<polygon fill="#9a32cd" stroke="#9a32cd" points="242.74,-294.61 249.85,-302.47 249.19,-291.89 242.74,-294.61"/>
<text text-anchor="middle" x="270.5" y="-220.5" font-family="Helvetica,sans-Serif" font-size="10.00"> m_waitSem</text>
</g>
<!-- Node10&#45;&gt;Node9 -->
<g id="edge10" class="edge">
<title>Node10&#45;&gt;Node9</title>
<path fill="none" stroke="#9a32cd" stroke-dasharray="5,2" d="M250.01,-291.97C248.45,-279.03 248.83,-262.27 258,-251 264.87,-242.56 288,-235.94 309.95,-231.37"/>
<polygon fill="#9a32cd" stroke="#9a32cd" points="246.61,-292.85 251.71,-302.13 253.51,-291.69 246.61,-292.85"/>
<text text-anchor="middle" x="303" y="-276" font-family="Helvetica,sans-Serif" font-size="10.00"> m_contextMutext</text>
<text text-anchor="middle" x="303" y="-265" font-family="Helvetica,sans-Serif" font-size="10.00">m_continuemutex</text>
<text text-anchor="middle" x="303" y="-254" font-family="Helvetica,sans-Serif" font-size="10.00">m_runningMutex</text>
</g>
<!-- Node11 -->
<g id="node11" class="node">
<title>Node11</title>
<g id="a_node11"><a xlink:title=" ">
<polygon fill="white" stroke="#bfbfbf" points="400.5,-302.5 400.5,-321.5 465.5,-321.5 465.5,-302.5 400.5,-302.5"/>
<text text-anchor="middle" x="433" y="-309.5" font-family="Helvetica,sans-Serif" font-size="10.00">std::string</text>
</a>
</g>
</g>
<!-- Node11&#45;&gt;Node9 -->
<g id="edge12" class="edge">
<title>Node11&#45;&gt;Node9</title>
<path fill="none" stroke="#9a32cd" stroke-dasharray="5,2" d="M418.43,-294.74C401.93,-276.35 375.68,-247.06 362.73,-232.62"/>
<polygon fill="#9a32cd" stroke="#9a32cd" points="415.95,-297.23 425.24,-302.34 421.17,-292.56 415.95,-297.23"/>
<text text-anchor="middle" x="438.5" y="-265" font-family="Helvetica,sans-Serif" font-size="10.00"> m_strName</text>
</g>
<!-- Node12 -->
<g id="node12" class="node">
<title>Node12</title>
<g id="a_node12"><a xlink:title=" ">
<polygon fill="white" stroke="#bfbfbf" points="390,-359.5 390,-389.5 494,-389.5 494,-359.5 390,-359.5"/>
<text text-anchor="start" x="398" y="-377.5" font-family="Helvetica,sans-Serif" font-size="10.00">std::basic_string&lt;</text>
<text text-anchor="middle" x="442" y="-366.5" font-family="Helvetica,sans-Serif" font-size="10.00"> Char &gt;</text>
</a>
</g>
</g>
<!-- Node12&#45;&gt;Node11 -->
<g id="edge13" class="edge">
<title>Node12&#45;&gt;Node11</title>
<path fill="none" stroke="midnightblue" d="M438.41,-349.35C436.94,-339.51 435.35,-328.78 434.27,-321.54"/>
<polygon fill="midnightblue" stroke="midnightblue" points="434.98,-350.09 439.91,-359.47 441.9,-349.06 434.98,-350.09"/>
</g>
</g>
</svg>
