<?xml version="1.0" encoding="UTF-8" standalone="no"?>
<!DOCTYPE svg PUBLIC "-//W3C//DTD SVG 1.1//EN"
 "http://www.w3.org/Graphics/SVG/1.1/DTD/svg11.dtd">
<!-- Generated by graphviz version 2.47.1 (0)
 -->
<!-- Title: mn::ext::basic_convar_task Pages: 1 -->
<svg width="328pt" height="356pt"
 viewBox="0.00 0.00 327.50 356.00" xmlns="http://www.w3.org/2000/svg" xmlns:xlink="http://www.w3.org/1999/xlink">
<g id="graph0" class="graph" transform="scale(1 1) rotate(0) translate(4 352)">
<title>mn::ext::basic_convar_task</title>
<polygon fill="white" stroke="transparent" points="-4,4 -4,-352 323.5,-352 323.5,4 -4,4"/>
<!-- Node1 -->
<g id="node1" class="node">
<title>Node1</title>
<g id="a_node1"><a xlink:title=" ">
<polygon fill="#bfbfbf" stroke="black" points="34,-0.5 34,-19.5 184,-19.5 184,-0.5 34,-0.5"/>
<text text-anchor="middle" x="109" y="-7.5" font-family="Helvetica,sans-Serif" font-size="10.00">mn::ext::basic_convar_task</text>
</a>
</g>
</g>
<!-- Node2 -->
<g id="node2" class="node">
<title>Node2</title>
<g id="a_node2"><a xlink:href="classmn_1_1basic__task.html" target="_top" xlink:title="Wrapper class around FreeRTOS&#39;s implementation of a task.">
<polygon fill="white" stroke="black" points="159,-57.5 159,-76.5 249,-76.5 249,-57.5 159,-57.5"/>
<text text-anchor="middle" x="204" y="-64.5" font-family="Helvetica,sans-Serif" font-size="10.00">mn::basic_task</text>
</a>
</g>
</g>
<!-- Node2&#45;&gt;Node1 -->
<g id="edge1" class="edge">
<title>Node2&#45;&gt;Node1</title>
<path fill="none" stroke="midnightblue" d="M180.5,-52.39C162.74,-42.11 138.9,-28.31 123.74,-19.53"/>
<polygon fill="midnightblue" stroke="midnightblue" points="178.75,-55.42 189.16,-57.41 182.26,-49.37 178.75,-55.42"/>
</g>
<!-- Node3 -->
<g id="node3" class="node">
<title>Node3</title>
<g id="a_node3"><a xlink:title=" ">
<polygon fill="white" stroke="#bfbfbf" points="188.5,-328.5 188.5,-347.5 319.5,-347.5 319.5,-328.5 188.5,-328.5"/>
<text text-anchor="middle" x="254" y="-335.5" font-family="Helvetica,sans-Serif" font-size="10.00">MN_ONSIGLETN_CLASS</text>
</a>
</g>
</g>
<!-- Node3&#45;&gt;Node2 -->
<g id="edge2" class="edge">
<title>Node3&#45;&gt;Node2</title>
<path fill="none" stroke="#8b1a1a" d="M272.69,-320.97C282.29,-310.91 292,-297.02 292,-282 292,-282 292,-282 292,-155 292,-127.4 294.53,-115.45 276,-95 268.2,-86.39 257.39,-80.52 246.51,-76.51"/>
<polygon fill="#8b1a1a" stroke="#8b1a1a" points="269.98,-318.72 265.2,-328.17 274.83,-323.76 269.98,-318.72"/>
</g>
<!-- Node6 -->
<g id="node6" class="node">
<title>Node6</title>
<g id="a_node6"><a xlink:href="classmn_1_1ILockObject.html" target="_top" xlink:title=" ">
<polygon fill="white" stroke="black" points="134.5,-271.5 134.5,-290.5 229.5,-290.5 229.5,-271.5 134.5,-271.5"/>
<text text-anchor="middle" x="182" y="-278.5" font-family="Helvetica,sans-Serif" font-size="10.00">mn::ILockObject</text>
</a>
</g>
</g>
<!-- Node3&#45;&gt;Node6 -->
<g id="edge6" class="edge">
<title>Node3&#45;&gt;Node6</title>
<path fill="none" stroke="#8b1a1a" d="M234.74,-322.29C221.55,-312.21 204.5,-299.19 193.41,-290.71"/>
<polygon fill="#8b1a1a" stroke="#8b1a1a" points="232.68,-325.12 242.75,-328.41 236.93,-319.55 232.68,-325.12"/>
</g>
<!-- Node4 -->
<g id="node4" class="node">
<title>Node4</title>
<g id="a_node4"><a xlink:href="classmn_1_1basic__binary__semaphore.html" target="_top" xlink:title=" ">
<polygon fill="white" stroke="black" points="0,-146.5 0,-165.5 160,-165.5 160,-146.5 0,-146.5"/>
<text text-anchor="middle" x="80" y="-153.5" font-family="Helvetica,sans-Serif" font-size="10.00">mn::basic_binary_semaphore</text>
</a>
</g>
</g>
<!-- Node4&#45;&gt;Node1 -->
<g id="edge9" class="edge">
<title>Node4&#45;&gt;Node1</title>
<path fill="none" stroke="#9a32cd" stroke-dasharray="5,2" d="M79.96,-136.28C80.33,-116.33 82.09,-83.98 89,-57 92.5,-43.33 99.58,-28.54 104.31,-19.52"/>
<polygon fill="#9a32cd" stroke="#9a32cd" points="76.46,-136.43 79.88,-146.46 83.46,-136.49 76.46,-136.43"/>
<text text-anchor="middle" x="119.5" y="-64.5" font-family="Helvetica,sans-Serif" font-size="10.00"> m_waitSem</text>
</g>
<!-- Node4&#45;&gt;Node2 -->
<g id="edge3" class="edge">
<title>Node4&#45;&gt;Node2</title>
<path fill="none" stroke="#9a32cd" stroke-dasharray="5,2" d="M85.81,-136.65C90.94,-123.29 99.71,-105.71 113,-95 125.96,-84.56 142.86,-78.15 158.57,-74.22"/>
<polygon fill="#9a32cd" stroke="#9a32cd" points="82.45,-135.67 82.45,-146.26 89.06,-137.97 82.45,-135.67"/>
<text text-anchor="middle" x="158" y="-120" font-family="Helvetica,sans-Serif" font-size="10.00"> m_contextMutext</text>
<text text-anchor="middle" x="158" y="-109" font-family="Helvetica,sans-Serif" font-size="10.00">m_continuemutex</text>
<text text-anchor="middle" x="158" y="-98" font-family="Helvetica,sans-Serif" font-size="10.00">m_runningMutex</text>
</g>
<!-- Node5 -->
<g id="node5" class="node">
<title>Node5</title>
<g id="a_node5"><a xlink:href="classmn_1_1basic__semaphore.html" target="_top" xlink:title=" ">
<polygon fill="white" stroke="black" points="18,-209 18,-228 142,-228 142,-209 18,-209"/>
<text text-anchor="middle" x="80" y="-216" font-family="Helvetica,sans-Serif" font-size="10.00">mn::basic_semaphore</text>
</a>
</g>
</g>
<!-- Node5&#45;&gt;Node4 -->
<g id="edge4" class="edge">
<title>Node5&#45;&gt;Node4</title>
<path fill="none" stroke="midnightblue" d="M80,-198.5C80,-187.5 80,-174.18 80,-165.65"/>
<polygon fill="midnightblue" stroke="midnightblue" points="76.5,-198.83 80,-208.83 83.5,-198.83 76.5,-198.83"/>
</g>
<!-- Node6&#45;&gt;Node5 -->
<g id="edge5" class="edge">
<title>Node6&#45;&gt;Node5</title>
<path fill="none" stroke="midnightblue" d="M158.69,-266.17C138.96,-254.47 111.31,-238.07 94.59,-228.15"/>
<polygon fill="midnightblue" stroke="midnightblue" points="157,-269.24 167.39,-271.33 160.57,-263.22 157,-269.24"/>
</g>
<!-- Node7 -->
<g id="node7" class="node">
<title>Node7</title>
<g id="a_node7"><a xlink:title=" ">
<polygon fill="white" stroke="#bfbfbf" points="180.5,-146.5 180.5,-165.5 245.5,-165.5 245.5,-146.5 180.5,-146.5"/>
<text text-anchor="middle" x="213" y="-153.5" font-family="Helvetica,sans-Serif" font-size="10.00">std::string</text>
</a>
</g>
</g>
<!-- Node7&#45;&gt;Node2 -->
<g id="edge7" class="edge">
<title>Node7&#45;&gt;Node2</title>
<path fill="none" stroke="#9a32cd" stroke-dasharray="5,2" d="M211.05,-136.19C209.15,-117.74 206.32,-90.41 204.89,-76.62"/>
<polygon fill="#9a32cd" stroke="#9a32cd" points="207.59,-136.75 212.1,-146.34 214.56,-136.03 207.59,-136.75"/>
<text text-anchor="middle" x="241.5" y="-109" font-family="Helvetica,sans-Serif" font-size="10.00"> m_strName</text>
</g>
<!-- Node8 -->
<g id="node8" class="node">
<title>Node8</title>
<g id="a_node8"><a xlink:title=" ">
<polygon fill="white" stroke="#bfbfbf" points="160,-203.5 160,-233.5 264,-233.5 264,-203.5 160,-203.5"/>
<text text-anchor="start" x="168" y="-221.5" font-family="Helvetica,sans-Serif" font-size="10.00">std::basic_string&lt;</text>
<text text-anchor="middle" x="212" y="-210.5" font-family="Helvetica,sans-Serif" font-size="10.00"> Char &gt;</text>
</a>
</g>
</g>
<!-- Node8&#45;&gt;Node7 -->
<g id="edge8" class="edge">
<title>Node8&#45;&gt;Node7</title>
<path fill="none" stroke="midnightblue" d="M212.4,-193.35C212.56,-183.51 212.74,-172.78 212.86,-165.54"/>
<polygon fill="midnightblue" stroke="midnightblue" points="208.9,-193.41 212.23,-203.47 215.9,-193.53 208.9,-193.41"/>
</g>
</g>
</svg>
