<?xml version="1.0" encoding="UTF-8" standalone="no"?>
<!DOCTYPE svg PUBLIC "-//W3C//DTD SVG 1.1//EN"
 "http://www.w3.org/Graphics/SVG/1.1/DTD/svg11.dtd">
<!-- Generated by graphviz version 2.46.0 (0)
 -->
<!-- Title: mn::ext::basic_condition_variable Pages: 1 -->
<svg width="398pt" height="457pt"
 viewBox="0.00 0.00 397.50 457.00" xmlns="http://www.w3.org/2000/svg" xmlns:xlink="http://www.w3.org/1999/xlink">
<g id="graph0" class="graph" transform="scale(1 1) rotate(0) translate(4 453)">
<title>mn::ext::basic_condition_variable</title>
<polygon fill="white" stroke="transparent" points="-4,4 -4,-453 393.5,-453 393.5,4 -4,4"/>
<!-- Node1 -->
<g id="node1" class="node">
<title>Node1</title>
<g id="a_node1"><a xlink:title=" ">
<polygon fill="#bfbfbf" stroke="black" points="224,-0.5 224,-30.5 360,-30.5 360,-0.5 224,-0.5"/>
<text text-anchor="start" x="232" y="-18.5" font-family="Helvetica,sans-Serif" font-size="10.00">mn::ext::basic_condition</text>
<text text-anchor="middle" x="292" y="-7.5" font-family="Helvetica,sans-Serif" font-size="10.00">_variable</text>
</a>
</g>
</g>
<!-- Node2 -->
<g id="node2" class="node">
<title>Node2</title>
<g id="a_node2"><a xlink:href="classmn_1_1basic__mutex.html" target="_top" xlink:title=" ">
<polygon fill="white" stroke="black" points="288.5,-260 288.5,-279 389.5,-279 389.5,-260 288.5,-260"/>
<text text-anchor="middle" x="339" y="-267" font-family="Helvetica,sans-Serif" font-size="10.00">mn::basic_mutex</text>
</a>
</g>
</g>
<!-- Node2&#45;&gt;Node1 -->
<g id="edge1" class="edge">
<title>Node2&#45;&gt;Node1</title>
<path fill="none" stroke="#9a32cd" stroke-dasharray="5,2" d="M339,-249.52C339,-234.68 339,-213.53 339,-195 339,-195 339,-195 339,-92.5 339,-72.19 335.65,-66.29 325,-49 320.87,-42.29 315.06,-35.96 309.47,-30.69"/>
<polygon fill="#9a32cd" stroke="#9a32cd" points="335.5,-249.9 339,-259.9 342.5,-249.9 335.5,-249.9"/>
<text text-anchor="middle" x="364" y="-163.5" font-family="Helvetica,sans-Serif" font-size="10.00"> m_mutex</text>
</g>
<!-- Node3 -->
<g id="node3" class="node">
<title>Node3</title>
<g id="a_node3"><a xlink:href="classmn_1_1basic__semaphore.html" target="_top" xlink:title=" ">
<polygon fill="white" stroke="black" points="223,-367 223,-386 347,-386 347,-367 223,-367"/>
<text text-anchor="middle" x="285" y="-374" font-family="Helvetica,sans-Serif" font-size="10.00">mn::basic_semaphore</text>
</a>
</g>
</g>
<!-- Node3&#45;&gt;Node2 -->
<g id="edge2" class="edge">
<title>Node3&#45;&gt;Node2</title>
<path fill="none" stroke="midnightblue" d="M297.96,-358.8C305.12,-349.04 313.79,-336.26 320,-324 327.66,-308.88 333.61,-289.93 336.68,-279.12"/>
<polygon fill="midnightblue" stroke="midnightblue" points="295.14,-356.72 291.93,-366.82 300.74,-360.93 295.14,-356.72"/>
</g>
<!-- Node8 -->
<g id="node8" class="node">
<title>Node8</title>
<g id="a_node8"><a xlink:href="classmn_1_1basic__binary__semaphore.html" target="_top" xlink:title=" ">
<polygon fill="white" stroke="black" points="151,-304.5 151,-323.5 311,-323.5 311,-304.5 151,-304.5"/>
<text text-anchor="middle" x="231" y="-311.5" font-family="Helvetica,sans-Serif" font-size="10.00">mn::basic_binary_semaphore</text>
</a>
</g>
</g>
<!-- Node3&#45;&gt;Node8 -->
<g id="edge9" class="edge">
<title>Node3&#45;&gt;Node8</title>
<path fill="none" stroke="midnightblue" d="M270.48,-359.23C260.26,-347.78 246.98,-332.9 238.72,-323.65"/>
<polygon fill="midnightblue" stroke="midnightblue" points="267.99,-361.7 277.26,-366.83 273.22,-357.04 267.99,-361.7"/>
</g>
<!-- Node4 -->
<g id="node4" class="node">
<title>Node4</title>
<g id="a_node4"><a xlink:href="classmn_1_1ILockObject.html" target="_top" xlink:title=" ">
<polygon fill="white" stroke="black" points="237.5,-429.5 237.5,-448.5 332.5,-448.5 332.5,-429.5 237.5,-429.5"/>
<text text-anchor="middle" x="285" y="-436.5" font-family="Helvetica,sans-Serif" font-size="10.00">mn::ILockObject</text>
</a>
</g>
</g>
<!-- Node4&#45;&gt;Node3 -->
<g id="edge3" class="edge">
<title>Node4&#45;&gt;Node3</title>
<path fill="none" stroke="midnightblue" d="M285,-419C285,-408 285,-394.68 285,-386.15"/>
<polygon fill="midnightblue" stroke="midnightblue" points="281.5,-419.33 285,-429.33 288.5,-419.33 281.5,-419.33"/>
</g>
<!-- Node5 -->
<g id="node5" class="node">
<title>Node5</title>
<g id="a_node5"><a xlink:title=" ">
<polygon fill="white" stroke="#bfbfbf" points="175,-78.5 175,-108.5 307,-108.5 307,-78.5 175,-78.5"/>
<text text-anchor="start" x="183" y="-96.5" font-family="Helvetica,sans-Serif" font-size="10.00">std::list&lt; mn::ext</text>
<text text-anchor="middle" x="241" y="-85.5" font-family="Helvetica,sans-Serif" font-size="10.00">::basic_convar_task * &gt;</text>
</a>
</g>
</g>
<!-- Node5&#45;&gt;Node1 -->
<g id="edge4" class="edge">
<title>Node5&#45;&gt;Node1</title>
<path fill="none" stroke="#9a32cd" stroke-dasharray="5,2" d="M254.76,-69.56C258.91,-62.86 263.54,-55.58 268,-49 272.17,-42.85 277,-36.22 281.23,-30.56"/>
<polygon fill="#9a32cd" stroke="#9a32cd" points="251.7,-67.85 249.47,-78.21 257.67,-71.5 251.7,-67.85"/>
<text text-anchor="middle" x="296.5" y="-52" font-family="Helvetica,sans-Serif" font-size="10.00"> m_waitList</text>
</g>
<!-- Node6 -->
<g id="node6" class="node">
<title>Node6</title>
<g id="a_node6"><a xlink:href="classmn_1_1ext_1_1basic__convar__task.html" target="_top" xlink:title=" ">
<polygon fill="white" stroke="black" points="153,-156.5 153,-175.5 303,-175.5 303,-156.5 153,-156.5"/>
<text text-anchor="middle" x="228" y="-163.5" font-family="Helvetica,sans-Serif" font-size="10.00">mn::ext::basic_convar_task</text>
</a>
</g>
</g>
<!-- Node6&#45;&gt;Node5 -->
<g id="edge5" class="edge">
<title>Node6&#45;&gt;Node5</title>
<path fill="none" stroke="#9a32cd" stroke-dasharray="5,2" d="M231.46,-146.24C233.64,-134.41 236.41,-119.38 238.4,-108.58"/>
<polygon fill="#9a32cd" stroke="#9a32cd" points="227.97,-145.89 229.59,-156.36 234.85,-147.16 227.97,-145.89"/>
<text text-anchor="middle" x="258.5" y="-130" font-family="Helvetica,sans-Serif" font-size="10.00"> elements</text>
</g>
<!-- Node7 -->
<g id="node7" class="node">
<title>Node7</title>
<g id="a_node7"><a xlink:href="classmn_1_1basic__task.html" target="_top" xlink:title="Wrapper class around FreeRTOS&#39;s implementation of a task.">
<polygon fill="white" stroke="black" points="45,-214.5 45,-233.5 135,-233.5 135,-214.5 45,-214.5"/>
<text text-anchor="middle" x="90" y="-221.5" font-family="Helvetica,sans-Serif" font-size="10.00">mn::basic_task</text>
</a>
</g>
</g>
<!-- Node7&#45;&gt;Node6 -->
<g id="edge6" class="edge">
<title>Node7&#45;&gt;Node6</title>
<path fill="none" stroke="midnightblue" d="M120.41,-210.66C146.62,-200.02 183.76,-184.95 206.84,-175.59"/>
<polygon fill="midnightblue" stroke="midnightblue" points="118.91,-207.49 110.96,-214.49 121.54,-213.98 118.91,-207.49"/>
</g>
<!-- Node7&#45;&gt;Node7 -->
<g id="edge7" class="edge">
<title>Node7&#45;&gt;Node7</title>
<path fill="none" stroke="#9a32cd" stroke-dasharray="5,2" d="M145.26,-228.1C150.03,-227.23 153,-225.86 153,-224 153,-221.02 145.39,-219.31 135.02,-218.87"/>
<polygon fill="#9a32cd" stroke="#9a32cd" points="144.62,-224.65 135.02,-229.13 145.32,-231.61 144.62,-224.65"/>
<text text-anchor="middle" x="179" y="-227" font-family="Helvetica,sans-Serif" font-size="10.00"> m_pChild</text>
<text text-anchor="middle" x="179" y="-216" font-family="Helvetica,sans-Serif" font-size="10.00">m_pParent</text>
</g>
<!-- Node8&#45;&gt;Node6 -->
<g id="edge12" class="edge">
<title>Node8&#45;&gt;Node6</title>
<path fill="none" stroke="#9a32cd" stroke-dasharray="5,2" d="M230.61,-294.12C229.96,-262.27 228.66,-199.07 228.18,-175.83"/>
<polygon fill="#9a32cd" stroke="#9a32cd" points="227.12,-294.38 230.82,-304.3 234.12,-294.23 227.12,-294.38"/>
<text text-anchor="middle" x="259.5" y="-221.5" font-family="Helvetica,sans-Serif" font-size="10.00"> m_waitSem</text>
</g>
<!-- Node8&#45;&gt;Node7 -->
<g id="edge8" class="edge">
<title>Node8&#45;&gt;Node7</title>
<path fill="none" stroke="#9a32cd" stroke-dasharray="5,2" d="M168.22,-301.45C157.19,-297.66 146.29,-292.65 137,-286 122.46,-275.6 124.94,-267.14 114,-253 108.83,-246.32 102.61,-239.08 97.8,-233.64"/>
<polygon fill="#9a32cd" stroke="#9a32cd" points="167.31,-304.83 177.9,-304.47 169.39,-298.15 167.31,-304.83"/>
<text text-anchor="middle" x="182" y="-278" font-family="Helvetica,sans-Serif" font-size="10.00"> m_contextMutext</text>
<text text-anchor="middle" x="182" y="-267" font-family="Helvetica,sans-Serif" font-size="10.00">m_continuemutex</text>
<text text-anchor="middle" x="182" y="-256" font-family="Helvetica,sans-Serif" font-size="10.00">m_runningMutex</text>
</g>
<!-- Node9 -->
<g id="node9" class="node">
<title>Node9</title>
<g id="a_node9"><a xlink:title=" ">
<polygon fill="white" stroke="#bfbfbf" points="19.5,-304.5 19.5,-323.5 84.5,-323.5 84.5,-304.5 19.5,-304.5"/>
<text text-anchor="middle" x="52" y="-311.5" font-family="Helvetica,sans-Serif" font-size="10.00">std::string</text>
</a>
</g>
</g>
<!-- Node9&#45;&gt;Node7 -->
<g id="edge10" class="edge">
<title>Node9&#45;&gt;Node7</title>
<path fill="none" stroke="#9a32cd" stroke-dasharray="5,2" d="M48.23,-294.21C46.7,-281.84 46.57,-265.66 53,-253 57.16,-244.81 64.95,-238.36 72.31,-233.73"/>
<polygon fill="#9a32cd" stroke="#9a32cd" points="44.81,-294.99 49.88,-304.29 51.72,-293.85 44.81,-294.99"/>
<text text-anchor="middle" x="83.5" y="-267" font-family="Helvetica,sans-Serif" font-size="10.00"> m_strName</text>
</g>
<!-- Node10 -->
<g id="node10" class="node">
<title>Node10</title>
<g id="a_node10"><a xlink:title=" ">
<polygon fill="white" stroke="#bfbfbf" points="0,-361.5 0,-391.5 104,-391.5 104,-361.5 0,-361.5"/>
<text text-anchor="start" x="8" y="-379.5" font-family="Helvetica,sans-Serif" font-size="10.00">std::basic_string&lt;</text>
<text text-anchor="middle" x="52" y="-368.5" font-family="Helvetica,sans-Serif" font-size="10.00"> Char &gt;</text>
</a>
</g>
</g>
<!-- Node10&#45;&gt;Node9 -->
<g id="edge11" class="edge">
<title>Node10&#45;&gt;Node9</title>
<path fill="none" stroke="midnightblue" d="M52,-351.35C52,-341.51 52,-330.78 52,-323.54"/>
<polygon fill="midnightblue" stroke="midnightblue" points="48.5,-351.47 52,-361.47 55.5,-351.47 48.5,-351.47"/>
</g>
</g>
</svg>
