<?xml version="1.0" encoding="UTF-8" standalone="no"?>
<!DOCTYPE svg PUBLIC "-//W3C//DTD SVG 1.1//EN"
 "http://www.w3.org/Graphics/SVG/1.1/DTD/svg11.dtd">
<!-- Generated by graphviz version 2.47.3 (0)
 -->
<!-- Title: mn::container::basic_atomic_queue&lt; T, TMAXITEMS &gt; Pages: 1 -->
<svg width="656pt" height="88pt"
 viewBox="0.00 0.00 656.00 88.00" xmlns="http://www.w3.org/2000/svg" xmlns:xlink="http://www.w3.org/1999/xlink">
<g id="graph0" class="graph" transform="scale(1 1) rotate(0) translate(4 84)">
<title>mn::container::basic_atomic_queue&lt; T, TMAXITEMS &gt;</title>
<polygon fill="white" stroke="transparent" points="-4,4 -4,-84 652,-84 652,4 -4,4"/>
<!-- Node1 -->
<g id="node1" class="node">
<title>Node1</title>
<g id="a_node1"><a xlink:title="A basic lockfree atomic queue.">
<polygon fill="#bfbfbf" stroke="black" points="464,-19 464,-49 648,-49 648,-19 464,-19"/>
<text text-anchor="start" x="472" y="-37" font-family="Helvetica,sans-Serif" font-size="10.00">mn::container::basic</text>
<text text-anchor="middle" x="556" y="-26" font-family="Helvetica,sans-Serif" font-size="10.00">_atomic_queue&lt; T, TMAXITEMS &gt;</text>
</a>
</g>
</g>
<!-- Node2 -->
<g id="node2" class="node">
<title>Node2</title>
<g id="a_node2"><a xlink:href="structmn_1_1__atomic.html" target="_top" xlink:title=" ">
<polygon fill="white" stroke="black" points="203,-43 203,-73 367,-73 367,-43 203,-43"/>
<text text-anchor="start" x="211" y="-61" font-family="Helvetica,sans-Serif" font-size="10.00">mn::_atomic&lt; mn::container</text>
<text text-anchor="middle" x="285" y="-50" font-family="Helvetica,sans-Serif" font-size="10.00">::basic_atomic_queue::node &gt;</text>
</a>
</g>
</g>
<!-- Node2&#45;&gt;Node1 -->
<g id="edge1" class="edge">
<title>Node2&#45;&gt;Node1</title>
<path fill="none" stroke="#9a32cd" stroke-dasharray="5,2" d="M377.22,-49.86C405.13,-47.37 435.82,-44.63 463.73,-42.14"/>
<polygon fill="#9a32cd" stroke="#9a32cd" points="376.72,-46.39 367.07,-50.77 377.35,-53.36 376.72,-46.39"/>
<text text-anchor="middle" x="415.5" y="-51" font-family="Helvetica,sans-Serif" font-size="10.00"> m_atHead</text>
</g>
<!-- Node3 -->
<g id="node3" class="node">
<title>Node3</title>
<g id="a_node3"><a xlink:title=" ">
<polygon fill="white" stroke="#bfbfbf" points="12,-38.5 12,-79.5 154,-79.5 154,-38.5 12,-38.5"/>
<text text-anchor="start" x="20" y="-67.5" font-family="Helvetica,sans-Serif" font-size="10.00">BASE_ATOMIC_TYPE&lt; mn</text>
<text text-anchor="start" x="20" y="-56.5" font-family="Helvetica,sans-Serif" font-size="10.00">::container::basic_atomic</text>
<text text-anchor="middle" x="83" y="-45.5" font-family="Helvetica,sans-Serif" font-size="10.00">_queue::node &gt;</text>
</a>
</g>
</g>
<!-- Node3&#45;&gt;Node2 -->
<g id="edge2" class="edge">
<title>Node3&#45;&gt;Node2</title>
<path fill="none" stroke="midnightblue" d="M164.33,-58.6C177.06,-58.53 190.24,-58.47 202.99,-58.41"/>
<polygon fill="midnightblue" stroke="midnightblue" points="164.21,-55.1 154.23,-58.65 164.25,-62.1 164.21,-55.1"/>
</g>
<!-- Node4 -->
<g id="node4" class="node">
<title>Node4</title>
<g id="a_node4"><a xlink:href="structmn_1_1__atomic.html" target="_top" xlink:title=" ">
<polygon fill="white" stroke="black" points="221,-2.5 221,-21.5 349,-21.5 349,-2.5 221,-2.5"/>
<text text-anchor="middle" x="285" y="-9.5" font-family="Helvetica,sans-Serif" font-size="10.00">mn::_atomic&lt; size_t &gt;</text>
</a>
</g>
</g>
<!-- Node4&#45;&gt;Node1 -->
<g id="edge3" class="edge">
<title>Node4&#45;&gt;Node1</title>
<path fill="none" stroke="#9a32cd" stroke-dasharray="5,2" d="M359.39,-14.47C386.62,-15.7 417.75,-17.48 446,-20 451.8,-20.52 457.76,-21.11 463.76,-21.75"/>
<polygon fill="#9a32cd" stroke="#9a32cd" points="359.29,-10.96 349.15,-14.02 358.99,-17.96 359.29,-10.96"/>
<text text-anchor="middle" x="415.5" y="-23" font-family="Helvetica,sans-Serif" font-size="10.00"> m_curItems</text>
</g>
<!-- Node5 -->
<g id="node5" class="node">
<title>Node5</title>
<g id="a_node5"><a xlink:title=" ">
<polygon fill="white" stroke="#bfbfbf" points="0,-0.5 0,-19.5 166,-19.5 166,-0.5 0,-0.5"/>
<text text-anchor="middle" x="83" y="-7.5" font-family="Helvetica,sans-Serif" font-size="10.00">BASE_ATOMIC_TYPE&lt; size_t &gt;</text>
</a>
</g>
</g>
<!-- Node5&#45;&gt;Node4 -->
<g id="edge4" class="edge">
<title>Node5&#45;&gt;Node4</title>
<path fill="none" stroke="midnightblue" d="M176.52,-10.93C191.49,-11.07 206.69,-11.23 220.76,-11.37"/>
<polygon fill="midnightblue" stroke="midnightblue" points="176.25,-7.42 166.21,-10.82 176.18,-14.42 176.25,-7.42"/>
</g>
</g>
</svg>
