<?xml version="1.0" encoding="UTF-8" standalone="no"?>
<!DOCTYPE svg PUBLIC "-//W3C//DTD SVG 1.1//EN"
 "http://www.w3.org/Graphics/SVG/1.1/DTD/svg11.dtd">
<!-- Generated by graphviz version 2.46.0 (0)
 -->
<!-- Title: mn::queue::basic_work_queue_single Pages: 1 -->
<svg width="559pt" height="398pt"
 viewBox="0.00 0.00 559.00 398.00" xmlns="http://www.w3.org/2000/svg" xmlns:xlink="http://www.w3.org/1999/xlink">
<g id="graph0" class="graph" transform="scale(1 1) rotate(0) translate(4 394)">
<title>mn::queue::basic_work_queue_single</title>
<polygon fill="white" stroke="transparent" points="-4,4 -4,-394 555,-394 555,4 -4,4"/>
<!-- Node1 -->
<g id="node1" class="node">
<title>Node1</title>
<g id="a_node1"><a xlink:title=" ">
<polygon fill="#bfbfbf" stroke="black" points="208.5,-0.5 208.5,-30.5 337.5,-30.5 337.5,-0.5 208.5,-0.5"/>
<text text-anchor="start" x="216.5" y="-18.5" font-family="Helvetica,sans-Serif" font-size="10.00">mn::queue::basic_work</text>
<text text-anchor="middle" x="273" y="-7.5" font-family="Helvetica,sans-Serif" font-size="10.00">_queue_single</text>
</a>
</g>
</g>
<!-- Node2 -->
<g id="node2" class="node">
<title>Node2</title>
<g id="a_node2"><a xlink:href="classmn_1_1queue_1_1basic__work__queue.html" target="_top" xlink:title=" ">
<polygon fill="white" stroke="black" points="268.5,-145.5 268.5,-175.5 397.5,-175.5 397.5,-145.5 268.5,-145.5"/>
<text text-anchor="start" x="276.5" y="-163.5" font-family="Helvetica,sans-Serif" font-size="10.00">mn::queue::basic_work</text>
<text text-anchor="middle" x="333" y="-152.5" font-family="Helvetica,sans-Serif" font-size="10.00">_queue</text>
</a>
</g>
</g>
<!-- Node2&#45;&gt;Node1 -->
<g id="edge1" class="edge">
<title>Node2&#45;&gt;Node1</title>
<path fill="none" stroke="midnightblue" d="M331.28,-135.19C328.74,-111.78 322.46,-76.03 307,-49 303.11,-42.2 297.35,-35.92 291.68,-30.74"/>
<polygon fill="midnightblue" stroke="midnightblue" points="327.81,-135.68 332.23,-145.31 334.78,-135.02 327.81,-135.68"/>
</g>
<!-- Node7 -->
<g id="node7" class="node">
<title>Node7</title>
<g id="a_node7"><a xlink:href="classmn_1_1queue_1_1work__queue__task.html" target="_top" xlink:title=" ">
<polygon fill="white" stroke="black" points="133,-78.5 133,-97.5 293,-97.5 293,-78.5 133,-78.5"/>
<text text-anchor="middle" x="213" y="-85.5" font-family="Helvetica,sans-Serif" font-size="10.00">mn::queue::work_queue_task</text>
</a>
</g>
</g>
<!-- Node2&#45;&gt;Node7 -->
<g id="edge12" class="edge">
<title>Node2&#45;&gt;Node7</title>
<path fill="none" stroke="#9a32cd" stroke-dasharray="5,2" d="M258.7,-146.66C238.43,-141.6 220.31,-135.04 214,-127 207.48,-118.69 208.72,-105.93 210.57,-97.52"/>
<polygon fill="#9a32cd" stroke="#9a32cd" points="257.92,-150.08 268.45,-148.96 259.52,-143.26 257.92,-150.08"/>
<text text-anchor="middle" x="267" y="-119" font-family="Helvetica,sans-Serif" font-size="10.00"> m_parentWorkQueue</text>
</g>
<!-- Node3 -->
<g id="node3" class="node">
<title>Node3</title>
<g id="a_node3"><a xlink:href="classmn_1_1basic__mutex.html" target="_top" xlink:title=" ">
<polygon fill="white" stroke="black" points="281.5,-245.5 281.5,-264.5 382.5,-264.5 382.5,-245.5 281.5,-245.5"/>
<text text-anchor="middle" x="332" y="-252.5" font-family="Helvetica,sans-Serif" font-size="10.00">mn::basic_mutex</text>
</a>
</g>
</g>
<!-- Node3&#45;&gt;Node2 -->
<g id="edge2" class="edge">
<title>Node3&#45;&gt;Node2</title>
<path fill="none" stroke="#9a32cd" stroke-dasharray="5,2" d="M332.2,-235.29C332.39,-217.67 332.67,-191.67 332.85,-175.7"/>
<polygon fill="#9a32cd" stroke="#9a32cd" points="328.7,-235.43 332.09,-245.46 335.7,-235.5 328.7,-235.43"/>
<text text-anchor="middle" x="372" y="-213.5" font-family="Helvetica,sans-Serif" font-size="10.00"> m_ThreadJob</text>
<text text-anchor="middle" x="372" y="-202.5" font-family="Helvetica,sans-Serif" font-size="10.00">m_ThreadStatus</text>
</g>
<!-- Node4 -->
<g id="node4" class="node">
<title>Node4</title>
<g id="a_node4"><a xlink:href="classmn_1_1basic__semaphore.html" target="_top" xlink:title=" ">
<polygon fill="white" stroke="black" points="196,-308 196,-327 320,-327 320,-308 196,-308"/>
<text text-anchor="middle" x="258" y="-315" font-family="Helvetica,sans-Serif" font-size="10.00">mn::basic_semaphore</text>
</a>
</g>
</g>
<!-- Node4&#45;&gt;Node3 -->
<g id="edge3" class="edge">
<title>Node4&#45;&gt;Node3</title>
<path fill="none" stroke="midnightblue" d="M276.69,-301.22C290.84,-289.65 309.78,-274.17 321.42,-264.65"/>
<polygon fill="midnightblue" stroke="midnightblue" points="274.13,-298.79 268.6,-307.83 278.56,-304.21 274.13,-298.79"/>
</g>
<!-- Node9 -->
<g id="node9" class="node">
<title>Node9</title>
<g id="a_node9"><a xlink:href="classmn_1_1basic__binary__semaphore.html" target="_top" xlink:title=" ">
<polygon fill="white" stroke="black" points="103,-245.5 103,-264.5 263,-264.5 263,-245.5 103,-245.5"/>
<text text-anchor="middle" x="183" y="-252.5" font-family="Helvetica,sans-Serif" font-size="10.00">mn::basic_binary_semaphore</text>
</a>
</g>
</g>
<!-- Node4&#45;&gt;Node9 -->
<g id="edge9" class="edge">
<title>Node4&#45;&gt;Node9</title>
<path fill="none" stroke="midnightblue" d="M239.46,-301.55C225.08,-289.94 205.64,-274.26 193.73,-264.65"/>
<polygon fill="midnightblue" stroke="midnightblue" points="237.27,-304.28 247.25,-307.83 241.67,-298.83 237.27,-304.28"/>
</g>
<!-- Node5 -->
<g id="node5" class="node">
<title>Node5</title>
<g id="a_node5"><a xlink:href="classmn_1_1ILockObject.html" target="_top" xlink:title=" ">
<polygon fill="white" stroke="black" points="210.5,-370.5 210.5,-389.5 305.5,-389.5 305.5,-370.5 210.5,-370.5"/>
<text text-anchor="middle" x="258" y="-377.5" font-family="Helvetica,sans-Serif" font-size="10.00">mn::ILockObject</text>
</a>
</g>
</g>
<!-- Node5&#45;&gt;Node4 -->
<g id="edge4" class="edge">
<title>Node5&#45;&gt;Node4</title>
<path fill="none" stroke="midnightblue" d="M258,-360C258,-349 258,-335.68 258,-327.15"/>
<polygon fill="midnightblue" stroke="midnightblue" points="254.5,-360.33 258,-370.33 261.5,-360.33 254.5,-360.33"/>
</g>
<!-- Node6 -->
<g id="node6" class="node">
<title>Node6</title>
<g id="a_node6"><a xlink:href="classmn_1_1queue_1_1basic__queue.html" target="_top" xlink:title="Queue class wrapper for FreeRTOS queues.">
<polygon fill="white" stroke="black" points="400.5,-245.5 400.5,-264.5 535.5,-264.5 535.5,-245.5 400.5,-245.5"/>
<text text-anchor="middle" x="468" y="-252.5" font-family="Helvetica,sans-Serif" font-size="10.00">mn::queue::basic_queue</text>
</a>
</g>
</g>
<!-- Node6&#45;&gt;Node2 -->
<g id="edge5" class="edge">
<title>Node6&#45;&gt;Node2</title>
<path fill="none" stroke="#9a32cd" stroke-dasharray="5,2" d="M456.92,-237.22C447.41,-223.95 432.65,-205.76 416,-194 405.38,-186.5 392.8,-180.42 380.68,-175.64"/>
<polygon fill="#9a32cd" stroke="#9a32cd" points="454.06,-239.24 462.61,-245.49 459.82,-235.27 454.06,-239.24"/>
<text text-anchor="middle" x="499.5" y="-208" font-family="Helvetica,sans-Serif" font-size="10.00"> m_pWorkItemQueue</text>
</g>
<!-- Node7&#45;&gt;Node1 -->
<g id="edge6" class="edge">
<title>Node7&#45;&gt;Node1</title>
<path fill="none" stroke="#9a32cd" stroke-dasharray="5,2" d="M227.13,-70.39C237.44,-58.28 251.25,-42.05 261.02,-30.58"/>
<polygon fill="#9a32cd" stroke="#9a32cd" points="224.17,-68.47 220.36,-78.36 229.5,-73.01 224.17,-68.47"/>
<text text-anchor="middle" x="274" y="-52" font-family="Helvetica,sans-Serif" font-size="10.00"> m_pWorker</text>
</g>
<!-- Node8 -->
<g id="node8" class="node">
<title>Node8</title>
<g id="a_node8"><a xlink:href="classmn_1_1basic__task.html" target="_top" xlink:title="Wrapper class around FreeRTOS&#39;s implementation of a task.">
<polygon fill="white" stroke="black" points="135,-151 135,-170 225,-170 225,-151 135,-151"/>
<text text-anchor="middle" x="180" y="-158" font-family="Helvetica,sans-Serif" font-size="10.00">mn::basic_task</text>
</a>
</g>
</g>
<!-- Node8&#45;&gt;Node7 -->
<g id="edge7" class="edge">
<title>Node8&#45;&gt;Node7</title>
<path fill="none" stroke="midnightblue" d="M184.58,-141.11C186.9,-133.17 190.06,-123.91 194,-116 197.27,-109.43 202.02,-102.68 205.95,-97.58"/>
<polygon fill="midnightblue" stroke="midnightblue" points="181.18,-140.3 181.96,-150.87 187.94,-142.12 181.18,-140.3"/>
</g>
<!-- Node9&#45;&gt;Node8 -->
<g id="edge8" class="edge">
<title>Node9&#45;&gt;Node8</title>
<path fill="none" stroke="#9a32cd" stroke-dasharray="5,2" d="M182.4,-235.44C181.75,-215.54 180.76,-184.8 180.28,-170.02"/>
<polygon fill="#9a32cd" stroke="#9a32cd" points="178.9,-235.58 182.72,-245.46 185.9,-235.36 178.9,-235.58"/>
<text text-anchor="middle" x="228" y="-219" font-family="Helvetica,sans-Serif" font-size="10.00"> m_contextMutext</text>
<text text-anchor="middle" x="228" y="-208" font-family="Helvetica,sans-Serif" font-size="10.00">m_continuemutex</text>
<text text-anchor="middle" x="228" y="-197" font-family="Helvetica,sans-Serif" font-size="10.00">m_runningMutex</text>
</g>
<!-- Node10 -->
<g id="node10" class="node">
<title>Node10</title>
<g id="a_node10"><a xlink:title=" ">
<polygon fill="white" stroke="#bfbfbf" points="19.5,-245.5 19.5,-264.5 84.5,-264.5 84.5,-245.5 19.5,-245.5"/>
<text text-anchor="middle" x="52" y="-252.5" font-family="Helvetica,sans-Serif" font-size="10.00">std::string</text>
</a>
</g>
</g>
<!-- Node10&#45;&gt;Node8 -->
<g id="edge10" class="edge">
<title>Node10&#45;&gt;Node8</title>
<path fill="none" stroke="#9a32cd" stroke-dasharray="5,2" d="M66.73,-238.21C79.3,-225.31 98.25,-207.13 117,-194 130.61,-184.47 147.39,-175.95 160.2,-170.03"/>
<polygon fill="#9a32cd" stroke="#9a32cd" points="64.18,-235.82 59.8,-245.47 69.24,-240.66 64.18,-235.82"/>
<text text-anchor="middle" x="147.5" y="-208" font-family="Helvetica,sans-Serif" font-size="10.00"> m_strName</text>
</g>
<!-- Node11 -->
<g id="node11" class="node">
<title>Node11</title>
<g id="a_node11"><a xlink:title=" ">
<polygon fill="white" stroke="#bfbfbf" points="0,-302.5 0,-332.5 104,-332.5 104,-302.5 0,-302.5"/>
<text text-anchor="start" x="8" y="-320.5" font-family="Helvetica,sans-Serif" font-size="10.00">std::basic_string&lt;</text>
<text text-anchor="middle" x="52" y="-309.5" font-family="Helvetica,sans-Serif" font-size="10.00"> Char &gt;</text>
</a>
</g>
</g>
<!-- Node11&#45;&gt;Node10 -->
<g id="edge11" class="edge">
<title>Node11&#45;&gt;Node10</title>
<path fill="none" stroke="midnightblue" d="M52,-292.35C52,-282.51 52,-271.78 52,-264.54"/>
<polygon fill="midnightblue" stroke="midnightblue" points="48.5,-292.47 52,-302.47 55.5,-292.47 48.5,-292.47"/>
</g>
</g>
</svg>
