<?xml version="1.0" encoding="UTF-8" standalone="no"?>
<!DOCTYPE svg PUBLIC "-//W3C//DTD SVG 1.1//EN"
 "http://www.w3.org/Graphics/SVG/1.1/DTD/svg11.dtd">
<!-- Generated by graphviz version 2.46.0 (0)
 -->
<!-- Title: mn::ext::basic_convar_task Pages: 1 -->
<svg width="281pt" height="299pt"
 viewBox="0.00 0.00 281.00 299.00" xmlns="http://www.w3.org/2000/svg" xmlns:xlink="http://www.w3.org/1999/xlink">
<g id="graph0" class="graph" transform="scale(1 1) rotate(0) translate(4 295)">
<title>mn::ext::basic_convar_task</title>
<polygon fill="white" stroke="transparent" points="-4,4 -4,-295 277,-295 277,4 -4,4"/>
<!-- Node1 -->
<g id="node1" class="node">
<title>Node1</title>
<g id="a_node1"><a xlink:title=" ">
<polygon fill="#bfbfbf" stroke="black" points="10,-0.5 10,-19.5 160,-19.5 160,-0.5 10,-0.5"/>
<text text-anchor="middle" x="85" y="-7.5" font-family="Helvetica,sans-Serif" font-size="10.00">mn::ext::basic_convar_task</text>
</a>
</g>
</g>
<!-- Node2 -->
<g id="node2" class="node">
<title>Node2</title>
<g id="a_node2"><a xlink:href="classmn_1_1basic__task.html" target="_top" xlink:title="Wrapper class around FreeRTOS&#39;s implementation of a task.">
<polygon fill="white" stroke="black" points="152,-57.5 152,-76.5 242,-76.5 242,-57.5 152,-57.5"/>
<text text-anchor="middle" x="197" y="-64.5" font-family="Helvetica,sans-Serif" font-size="10.00">mn::basic_task</text>
</a>
</g>
</g>
<!-- Node2&#45;&gt;Node1 -->
<g id="edge1" class="edge">
<title>Node2&#45;&gt;Node1</title>
<path fill="none" stroke="midnightblue" d="M170.44,-52.96C149.39,-42.62 120.58,-28.47 102.38,-19.53"/>
<polygon fill="midnightblue" stroke="midnightblue" points="168.98,-56.14 179.5,-57.41 172.07,-49.86 168.98,-56.14"/>
</g>
<!-- Node3 -->
<g id="node3" class="node">
<title>Node3</title>
<g id="a_node3"><a xlink:href="classmn_1_1basic__binary__semaphore.html" target="_top" xlink:title=" ">
<polygon fill="white" stroke="black" points="0,-146.5 0,-165.5 160,-165.5 160,-146.5 0,-146.5"/>
<text text-anchor="middle" x="80" y="-153.5" font-family="Helvetica,sans-Serif" font-size="10.00">mn::basic_binary_semaphore</text>
</a>
</g>
</g>
<!-- Node3&#45;&gt;Node1 -->
<g id="edge7" class="edge">
<title>Node3&#45;&gt;Node1</title>
<path fill="none" stroke="#9a32cd" stroke-dasharray="5,2" d="M80.13,-136.27C80.33,-116.54 80.82,-84.57 82,-57 82.55,-44.05 83.61,-29.07 84.31,-19.81"/>
<polygon fill="#9a32cd" stroke="#9a32cd" points="76.63,-136.31 80.05,-146.34 83.63,-136.37 76.63,-136.31"/>
<text text-anchor="middle" x="112.5" y="-64.5" font-family="Helvetica,sans-Serif" font-size="10.00"> m_waitSem</text>
</g>
<!-- Node3&#45;&gt;Node2 -->
<g id="edge2" class="edge">
<title>Node3&#45;&gt;Node2</title>
<path fill="none" stroke="#9a32cd" stroke-dasharray="5,2" d="M85.23,-136.73C89.93,-123.4 98.11,-105.84 111,-95 122.5,-85.33 137.47,-79.12 151.69,-75.13"/>
<polygon fill="#9a32cd" stroke="#9a32cd" points="81.88,-135.71 82.18,-146.3 88.55,-137.83 81.88,-135.71"/>
<text text-anchor="middle" x="156" y="-120" font-family="Helvetica,sans-Serif" font-size="10.00"> m_contextMutext</text>
<text text-anchor="middle" x="156" y="-109" font-family="Helvetica,sans-Serif" font-size="10.00">m_continuemutex</text>
<text text-anchor="middle" x="156" y="-98" font-family="Helvetica,sans-Serif" font-size="10.00">m_runningMutex</text>
</g>
<!-- Node4 -->
<g id="node4" class="node">
<title>Node4</title>
<g id="a_node4"><a xlink:href="classmn_1_1basic__semaphore.html" target="_top" xlink:title=" ">
<polygon fill="white" stroke="black" points="18,-209 18,-228 142,-228 142,-209 18,-209"/>
<text text-anchor="middle" x="80" y="-216" font-family="Helvetica,sans-Serif" font-size="10.00">mn::basic_semaphore</text>
</a>
</g>
</g>
<!-- Node4&#45;&gt;Node3 -->
<g id="edge3" class="edge">
<title>Node4&#45;&gt;Node3</title>
<path fill="none" stroke="midnightblue" d="M80,-198.5C80,-187.5 80,-174.18 80,-165.65"/>
<polygon fill="midnightblue" stroke="midnightblue" points="76.5,-198.83 80,-208.83 83.5,-198.83 76.5,-198.83"/>
</g>
<!-- Node5 -->
<g id="node5" class="node">
<title>Node5</title>
<g id="a_node5"><a xlink:href="classmn_1_1ILockObject.html" target="_top" xlink:title=" ">
<polygon fill="white" stroke="black" points="32.5,-271.5 32.5,-290.5 127.5,-290.5 127.5,-271.5 32.5,-271.5"/>
<text text-anchor="middle" x="80" y="-278.5" font-family="Helvetica,sans-Serif" font-size="10.00">mn::ILockObject</text>
</a>
</g>
</g>
<!-- Node5&#45;&gt;Node4 -->
<g id="edge4" class="edge">
<title>Node5&#45;&gt;Node4</title>
<path fill="none" stroke="midnightblue" d="M80,-261C80,-250 80,-236.68 80,-228.15"/>
<polygon fill="midnightblue" stroke="midnightblue" points="76.5,-261.33 80,-271.33 83.5,-261.33 76.5,-261.33"/>
</g>
<!-- Node6 -->
<g id="node6" class="node">
<title>Node6</title>
<g id="a_node6"><a xlink:title=" ">
<polygon fill="white" stroke="#bfbfbf" points="186.5,-146.5 186.5,-165.5 251.5,-165.5 251.5,-146.5 186.5,-146.5"/>
<text text-anchor="middle" x="219" y="-153.5" font-family="Helvetica,sans-Serif" font-size="10.00">std::string</text>
</a>
</g>
</g>
<!-- Node6&#45;&gt;Node2 -->
<g id="edge5" class="edge">
<title>Node6&#45;&gt;Node2</title>
<path fill="none" stroke="#9a32cd" stroke-dasharray="5,2" d="M214.31,-136.46C209.64,-118 202.68,-90.48 199.18,-76.62"/>
<polygon fill="#9a32cd" stroke="#9a32cd" points="210.97,-137.5 216.81,-146.34 217.75,-135.79 210.97,-137.5"/>
<text text-anchor="middle" x="242.5" y="-109" font-family="Helvetica,sans-Serif" font-size="10.00"> m_strName</text>
</g>
<!-- Node7 -->
<g id="node7" class="node">
<title>Node7</title>
<g id="a_node7"><a xlink:title=" ">
<polygon fill="white" stroke="#bfbfbf" points="167,-203.5 167,-233.5 271,-233.5 271,-203.5 167,-203.5"/>
<text text-anchor="start" x="175" y="-221.5" font-family="Helvetica,sans-Serif" font-size="10.00">std::basic_string&lt;</text>
<text text-anchor="middle" x="219" y="-210.5" font-family="Helvetica,sans-Serif" font-size="10.00"> Char &gt;</text>
</a>
</g>
</g>
<!-- Node7&#45;&gt;Node6 -->
<g id="edge6" class="edge">
<title>Node7&#45;&gt;Node6</title>
<path fill="none" stroke="midnightblue" d="M219,-193.35C219,-183.51 219,-172.78 219,-165.54"/>
<polygon fill="midnightblue" stroke="midnightblue" points="215.5,-193.47 219,-203.47 222.5,-193.47 215.5,-193.47"/>
</g>
</g>
</svg>
