<?xml version="1.0" encoding="UTF-8" standalone="no"?>
<!DOCTYPE svg PUBLIC "-//W3C//DTD SVG 1.1//EN"
 "http://www.w3.org/Graphics/SVG/1.1/DTD/svg11.dtd">
<!-- Generated by graphviz version 2.47.3 (0)
 -->
<!-- Title: mn::basic_task_list Pages: 1 -->
<svg width="1550pt" height="273pt"
 viewBox="0.00 0.00 1550.00 272.50" xmlns="http://www.w3.org/2000/svg" xmlns:xlink="http://www.w3.org/1999/xlink">
<g id="graph0" class="graph" transform="scale(1 1) rotate(0) translate(4 268.5)">
<title>mn::basic_task_list</title>
<polygon fill="white" stroke="transparent" points="-4,4 -4,-268.5 1546,-268.5 1546,4 -4,4"/>
<!-- Node1 -->
<g id="node1" class="node">
<title>Node1</title>
<g id="a_node1"><a xlink:title=" ">
<polygon fill="#bfbfbf" stroke="black" points="1432,-192 1432,-211 1542,-211 1542,-192 1432,-192"/>
<text text-anchor="middle" x="1487" y="-199" font-family="Helvetica,sans-Serif" font-size="10.00">mn::basic_task_list</text>
</a>
</g>
</g>
<!-- Node1&#45;&gt;Node1 -->
<g id="edge17" class="edge">
<title>Node1&#45;&gt;Node1</title>
<path fill="none" stroke="#9a32cd" stroke-dasharray="5,2" d="M1464.31,-220.53C1465.54,-225.63 1473.11,-229.5 1487,-229.5 1508.68,-229.5 1514.95,-220.07 1505.8,-211.26"/>
<polygon fill="#9a32cd" stroke="#9a32cd" points="1467.56,-221.83 1468.2,-211.26 1461.1,-219.12 1467.56,-221.83"/>
<text text-anchor="middle" x="1487" y="-232.5" font-family="Helvetica,sans-Serif" font-size="10.00"> m_pInstance</text>
</g>
<!-- Node2 -->
<g id="node2" class="node">
<title>Node2</title>
<g id="a_node2"><a xlink:title=" ">
<polygon fill="white" stroke="#bfbfbf" points="0,-195 0,-214 131,-214 131,-195 0,-195"/>
<text text-anchor="middle" x="65.5" y="-202" font-family="Helvetica,sans-Serif" font-size="10.00">MN_ONSIGLETN_CLASS</text>
</a>
</g>
</g>
<!-- Node2&#45;&gt;Node1 -->
<g id="edge1" class="edge">
<title>Node2&#45;&gt;Node1</title>
<path fill="none" stroke="#8b1a1a" d="M88.64,-219.76C116.63,-237.54 166.92,-264.5 214.5,-264.5 214.5,-264.5 214.5,-264.5 1222.5,-264.5 1308.94,-264.5 1330.91,-254.33 1414,-230.5 1431.88,-225.37 1451.4,-217.35 1465.6,-211.04"/>
<polygon fill="#8b1a1a" stroke="#8b1a1a" points="90.32,-216.68 80.04,-214.14 86.49,-222.54 90.32,-216.68"/>
</g>
<!-- Node5 -->
<g id="node5" class="node">
<title>Node5</title>
<g id="a_node5"><a xlink:href="classmn_1_1ILockObject.html" target="_top" xlink:title=" ">
<polygon fill="white" stroke="black" points="168,-195 168,-214 263,-214 263,-195 168,-195"/>
<text text-anchor="middle" x="215.5" y="-202" font-family="Helvetica,sans-Serif" font-size="10.00">mn::ILockObject</text>
</a>
</g>
</g>
<!-- Node2&#45;&gt;Node5 -->
<g id="edge5" class="edge">
<title>Node2&#45;&gt;Node5</title>
<path fill="none" stroke="#8b1a1a" d="M141.53,-204.5C150.5,-204.5 159.46,-204.5 167.87,-204.5"/>
<polygon fill="#8b1a1a" stroke="#8b1a1a" points="141.41,-201 131.41,-204.5 141.41,-208 141.41,-201"/>
</g>
<!-- Node8 -->
<g id="node8" class="node">
<title>Node8</title>
<g id="a_node8"><a xlink:href="classmn_1_1basic__task.html" target="_top" xlink:title="Wrapper class around FreeRTOS&#39;s implementation of a task.">
<polygon fill="white" stroke="black" points="774,-88 774,-107 864,-107 864,-88 774,-88"/>
<text text-anchor="middle" x="819" y="-95" font-family="Helvetica,sans-Serif" font-size="10.00">mn::basic_task</text>
</a>
</g>
</g>
<!-- Node2&#45;&gt;Node8 -->
<g id="edge9" class="edge">
<title>Node2&#45;&gt;Node8</title>
<path fill="none" stroke="#8b1a1a" d="M79.18,-186.5C102.29,-156.01 154.48,-97.5 214.5,-97.5 214.5,-97.5 214.5,-97.5 558,-97.5 633.83,-97.5 722.11,-97.5 773.84,-97.5"/>
<polygon fill="#8b1a1a" stroke="#8b1a1a" points="76.31,-184.5 73.2,-194.63 81.95,-188.64 76.31,-184.5"/>
</g>
<!-- Node3 -->
<g id="node3" class="node">
<title>Node3</title>
<g id="a_node3"><a xlink:href="classmn_1_1basic__mutex.html" target="_top" xlink:title=" ">
<polygon fill="white" stroke="black" points="655,-213 655,-232 756,-232 756,-213 655,-213"/>
<text text-anchor="middle" x="705.5" y="-220" font-family="Helvetica,sans-Serif" font-size="10.00">mn::basic_mutex</text>
</a>
</g>
</g>
<!-- Node3&#45;&gt;Node1 -->
<g id="edge2" class="edge">
<title>Node3&#45;&gt;Node1</title>
<path fill="none" stroke="#9a32cd" stroke-dasharray="5,2" d="M766.38,-223.87C805.89,-224.66 858.78,-225.5 905.5,-225.5 905.5,-225.5 905.5,-225.5 1222.5,-225.5 1295.19,-225.5 1378.7,-216.33 1431.88,-209.33"/>
<polygon fill="#9a32cd" stroke="#9a32cd" points="766.45,-220.37 756.38,-223.67 766.31,-227.37 766.45,-220.37"/>
<text text-anchor="middle" x="1004.5" y="-228.5" font-family="Helvetica,sans-Serif" font-size="10.00"> m_staticInstanceMux</text>
</g>
<!-- Node4 -->
<g id="node4" class="node">
<title>Node4</title>
<g id="a_node4"><a xlink:href="classmn_1_1basic__semaphore.html" target="_top" xlink:title=" ">
<polygon fill="white" stroke="black" points="308,-195 308,-214 432,-214 432,-195 308,-195"/>
<text text-anchor="middle" x="370" y="-202" font-family="Helvetica,sans-Serif" font-size="10.00">mn::basic_semaphore</text>
</a>
</g>
</g>
<!-- Node4&#45;&gt;Node3 -->
<g id="edge3" class="edge">
<title>Node4&#45;&gt;Node3</title>
<path fill="none" stroke="midnightblue" d="M442.19,-208.34C506.18,-211.8 598.52,-216.78 654.86,-219.82"/>
<polygon fill="midnightblue" stroke="midnightblue" points="442.34,-204.85 432.17,-207.8 441.97,-211.84 442.34,-204.85"/>
</g>
<!-- Node11 -->
<g id="node11" class="node">
<title>Node11</title>
<g id="a_node11"><a xlink:href="classmn_1_1basic__binary__semaphore.html" target="_top" xlink:title=" ">
<polygon fill="white" stroke="black" points="477,-169 477,-188 637,-188 637,-169 477,-169"/>
<text text-anchor="middle" x="557" y="-176" font-family="Helvetica,sans-Serif" font-size="10.00">mn::basic_binary_semaphore</text>
</a>
</g>
</g>
<!-- Node4&#45;&gt;Node11 -->
<g id="edge13" class="edge">
<title>Node4&#45;&gt;Node11</title>
<path fill="none" stroke="midnightblue" d="M442.38,-194.47C457.46,-192.35 473.33,-190.12 488.27,-188.02"/>
<polygon fill="midnightblue" stroke="midnightblue" points="441.5,-191.06 432.09,-195.91 442.48,-197.99 441.5,-191.06"/>
</g>
<!-- Node5&#45;&gt;Node4 -->
<g id="edge4" class="edge">
<title>Node5&#45;&gt;Node4</title>
<path fill="none" stroke="midnightblue" d="M273.23,-204.5C284.5,-204.5 296.39,-204.5 307.8,-204.5"/>
<polygon fill="midnightblue" stroke="midnightblue" points="273.08,-201 263.08,-204.5 273.08,-208 273.08,-201"/>
</g>
<!-- Node6 -->
<g id="node6" class="node">
<title>Node6</title>
<g id="a_node6"><a xlink:title=" ">
<polygon fill="white" stroke="#bfbfbf" points="1145,-117.5 1145,-147.5 1298,-147.5 1298,-117.5 1145,-117.5"/>
<text text-anchor="start" x="1153" y="-135.5" font-family="Helvetica,sans-Serif" font-size="10.00">std::map&lt; int, std</text>
<text text-anchor="middle" x="1221.5" y="-124.5" font-family="Helvetica,sans-Serif" font-size="10.00">::list&lt; mn::basic_task * &gt; &gt;</text>
</a>
</g>
</g>
<!-- Node6&#45;&gt;Node1 -->
<g id="edge6" class="edge">
<title>Node6&#45;&gt;Node1</title>
<path fill="none" stroke="#9a32cd" stroke-dasharray="5,2" d="M1308.34,-133.2C1342.1,-135.7 1380.67,-141.39 1414,-153.5 1438,-162.22 1461.88,-180.53 1475.21,-191.84"/>
<polygon fill="#9a32cd" stroke="#9a32cd" points="1308.24,-129.69 1298.03,-132.53 1307.78,-136.68 1308.24,-129.69"/>
<text text-anchor="middle" x="1365" y="-156.5" font-family="Helvetica,sans-Serif" font-size="10.00"> m_mapTaskOnCore</text>
</g>
<!-- Node7 -->
<g id="node7" class="node">
<title>Node7</title>
<g id="a_node7"><a xlink:title=" ">
<polygon fill="white" stroke="#bfbfbf" points="949,-104.5 949,-134.5 1060,-134.5 1060,-104.5 949,-104.5"/>
<text text-anchor="start" x="957" y="-122.5" font-family="Helvetica,sans-Serif" font-size="10.00">std::list&lt; mn::basic</text>
<text text-anchor="middle" x="1004.5" y="-111.5" font-family="Helvetica,sans-Serif" font-size="10.00">_task * &gt;</text>
</a>
</g>
</g>
<!-- Node7&#45;&gt;Node6 -->
<g id="edge7" class="edge">
<title>Node7&#45;&gt;Node6</title>
<path fill="none" stroke="#9a32cd" stroke-dasharray="5,2" d="M1070.24,-123.41C1093.76,-124.84 1120.55,-126.46 1144.93,-127.93"/>
<polygon fill="#9a32cd" stroke="#9a32cd" points="1070.22,-119.91 1060.03,-122.8 1069.8,-126.89 1070.22,-119.91"/>
<text text-anchor="middle" x="1102.5" y="-129.5" font-family="Helvetica,sans-Serif" font-size="10.00"> elements</text>
</g>
<!-- Node8&#45;&gt;Node7 -->
<g id="edge8" class="edge">
<title>Node8&#45;&gt;Node7</title>
<path fill="none" stroke="#9a32cd" stroke-dasharray="5,2" d="M874.53,-104.04C897.93,-106.84 925.23,-110.12 948.67,-112.93"/>
<polygon fill="#9a32cd" stroke="#9a32cd" points="874.77,-100.54 864.42,-102.83 873.93,-107.49 874.77,-100.54"/>
<text text-anchor="middle" x="906.5" y="-112.5" font-family="Helvetica,sans-Serif" font-size="10.00"> elements</text>
</g>
<!-- Node9 -->
<g id="node9" class="node">
<title>Node9</title>
<g id="a_node9"><a xlink:href="classmn_1_1basic__event__group.html" target="_top" xlink:title="Wrapper class around FreeRTOS&#39;s implementation of a event_group.">
<polygon fill="white" stroke="black" points="492,-50 492,-69 622,-69 622,-50 492,-50"/>
<text text-anchor="middle" x="557" y="-57" font-family="Helvetica,sans-Serif" font-size="10.00">mn::basic_event_group</text>
</a>
</g>
</g>
<!-- Node9&#45;&gt;Node8 -->
<g id="edge10" class="edge">
<title>Node9&#45;&gt;Node8</title>
<path fill="none" stroke="#9a32cd" stroke-dasharray="5,2" d="M632.39,-58.83C669.87,-59.88 715.78,-63.32 756,-72.5 770.94,-75.91 786.95,-82.45 798.97,-87.99"/>
<polygon fill="#9a32cd" stroke="#9a32cd" points="632.13,-55.32 622.05,-58.59 631.97,-62.32 632.13,-55.32"/>
<text text-anchor="middle" x="705.5" y="-75.5" font-family="Helvetica,sans-Serif" font-size="10.00"> m_eventGroup</text>
</g>
<!-- Node10 -->
<g id="node10" class="node">
<title>Node10</title>
<g id="a_node10"><a xlink:title=" ">
<polygon fill="white" stroke="#bfbfbf" points="300,-50 300,-69 440,-69 440,-50 300,-50"/>
<text text-anchor="middle" x="370" y="-57" font-family="Helvetica,sans-Serif" font-size="10.00">MN_ONCOPYABLE_CLASS</text>
</a>
</g>
</g>
<!-- Node10&#45;&gt;Node9 -->
<g id="edge11" class="edge">
<title>Node10&#45;&gt;Node9</title>
<path fill="none" stroke="#8b1a1a" d="M450.18,-59.5C464.08,-59.5 478.39,-59.5 491.82,-59.5"/>
<polygon fill="#8b1a1a" stroke="#8b1a1a" points="450.15,-56 440.15,-59.5 450.15,-63 450.15,-56"/>
</g>
<!-- Node11&#45;&gt;Node1 -->
<g id="edge16" class="edge">
<title>Node11&#45;&gt;Node1</title>
<path fill="none" stroke="#9a32cd" stroke-dasharray="5,2" d="M647.25,-178.5C697.42,-178.5 761.2,-178.5 818,-178.5 818,-178.5 818,-178.5 1222.5,-178.5 1295.17,-178.5 1378.69,-187.29 1431.87,-194"/>
<polygon fill="#9a32cd" stroke="#9a32cd" points="647.08,-175 637.08,-178.5 647.08,-182 647.08,-175"/>
<text text-anchor="middle" x="1004.5" y="-181.5" font-family="Helvetica,sans-Serif" font-size="10.00"> m_pLock</text>
</g>
<!-- Node11&#45;&gt;Node8 -->
<g id="edge12" class="edge">
<title>Node11&#45;&gt;Node8</title>
<path fill="none" stroke="#9a32cd" stroke-dasharray="5,2" d="M583.61,-163.94C602.75,-153.6 629.85,-140.07 655,-131.5 676.55,-124.16 733.28,-112.98 773.75,-105.47"/>
<polygon fill="#9a32cd" stroke="#9a32cd" points="581.71,-160.99 574.63,-168.87 585.08,-167.12 581.71,-160.99"/>
<text text-anchor="middle" x="705.5" y="-156.5" font-family="Helvetica,sans-Serif" font-size="10.00"> m_contextMutext</text>
<text text-anchor="middle" x="705.5" y="-145.5" font-family="Helvetica,sans-Serif" font-size="10.00">m_continuemutex</text>
<text text-anchor="middle" x="705.5" y="-134.5" font-family="Helvetica,sans-Serif" font-size="10.00">m_runningMutex</text>
</g>
<!-- Node12 -->
<g id="node12" class="node">
<title>Node12</title>
<g id="a_node12"><a xlink:title=" ">
<polygon fill="white" stroke="#bfbfbf" points="524.5,-9 524.5,-28 589.5,-28 589.5,-9 524.5,-9"/>
<text text-anchor="middle" x="557" y="-16" font-family="Helvetica,sans-Serif" font-size="10.00">std::string</text>
</a>
</g>
</g>
<!-- Node12&#45;&gt;Node8 -->
<g id="edge14" class="edge">
<title>Node12&#45;&gt;Node8</title>
<path fill="none" stroke="#9a32cd" stroke-dasharray="5,2" d="M599.67,-17.21C641.07,-17.45 705.49,-22.01 756,-44.5 778.51,-54.52 799.06,-75.41 809.92,-87.76"/>
<polygon fill="#9a32cd" stroke="#9a32cd" points="599.66,-13.71 589.66,-17.23 599.67,-20.71 599.66,-13.71"/>
<text text-anchor="middle" x="705.5" y="-47.5" font-family="Helvetica,sans-Serif" font-size="10.00"> m_strName</text>
</g>
<!-- Node13 -->
<g id="node13" class="node">
<title>Node13</title>
<g id="a_node13"><a xlink:title=" ">
<polygon fill="white" stroke="#bfbfbf" points="318,-0.5 318,-30.5 422,-30.5 422,-0.5 318,-0.5"/>
<text text-anchor="start" x="326" y="-18.5" font-family="Helvetica,sans-Serif" font-size="10.00">std::basic_string&lt;</text>
<text text-anchor="middle" x="370" y="-7.5" font-family="Helvetica,sans-Serif" font-size="10.00"> Char &gt;</text>
</a>
</g>
</g>
<!-- Node13&#45;&gt;Node12 -->
<g id="edge15" class="edge">
<title>Node13&#45;&gt;Node12</title>
<path fill="none" stroke="midnightblue" d="M432.26,-16.49C463.05,-16.99 499.08,-17.58 524.29,-17.99"/>
<polygon fill="midnightblue" stroke="midnightblue" points="432.1,-12.99 422.04,-16.33 431.98,-19.99 432.1,-12.99"/>
</g>
</g>
</svg>
