<?xml version="1.0" encoding="UTF-8" standalone="no"?>
<!DOCTYPE svg PUBLIC "-//W3C//DTD SVG 1.1//EN"
 "http://www.w3.org/Graphics/SVG/1.1/DTD/svg11.dtd">
<!-- Generated by graphviz version 2.47.1 (0)
 -->
<!-- Title: mn::basic_counting_semaphore Pages: 1 -->
<svg width="139pt" height="207pt"
 viewBox="0.00 0.00 139.00 207.00" xmlns="http://www.w3.org/2000/svg" xmlns:xlink="http://www.w3.org/1999/xlink">
<g id="graph0" class="graph" transform="scale(1 1) rotate(0) translate(4 203)">
<title>mn::basic_counting_semaphore</title>
<polygon fill="white" stroke="transparent" points="-4,4 -4,-203 135,-203 135,4 -4,4"/>
<!-- Node1 -->
<g id="node1" class="node">
<title>Node1</title>
<g id="a_node1"><a xlink:title=" ">
<polygon fill="#bfbfbf" stroke="black" points="10,-0.5 10,-30.5 121,-30.5 121,-0.5 10,-0.5"/>
<text text-anchor="start" x="18" y="-18.5" font-family="Helvetica,sans-Serif" font-size="10.00">mn::basic_counting</text>
<text text-anchor="middle" x="65.5" y="-7.5" font-family="Helvetica,sans-Serif" font-size="10.00">_semaphore</text>
</a>
</g>
</g>
<!-- Node2 -->
<g id="node2" class="node">
<title>Node2</title>
<g id="a_node2"><a xlink:href="classmn_1_1basic__semaphore.html" target="_top" xlink:title=" ">
<polygon fill="white" stroke="black" points="3.5,-67.5 3.5,-86.5 127.5,-86.5 127.5,-67.5 3.5,-67.5"/>
<text text-anchor="middle" x="65.5" y="-74.5" font-family="Helvetica,sans-Serif" font-size="10.00">mn::basic_semaphore</text>
</a>
</g>
</g>
<!-- Node2&#45;&gt;Node1 -->
<g id="edge1" class="edge">
<title>Node2&#45;&gt;Node1</title>
<path fill="none" stroke="midnightblue" d="M65.5,-57.23C65.5,-48.59 65.5,-38.5 65.5,-30.52"/>
<polygon fill="midnightblue" stroke="midnightblue" points="62,-57.48 65.5,-67.48 69,-57.48 62,-57.48"/>
</g>
<!-- Node3 -->
<g id="node3" class="node">
<title>Node3</title>
<g id="a_node3"><a xlink:href="classmn_1_1ILockObject.html" target="_top" xlink:title=" ">
<polygon fill="white" stroke="black" points="18,-123.5 18,-142.5 113,-142.5 113,-123.5 18,-123.5"/>
<text text-anchor="middle" x="65.5" y="-130.5" font-family="Helvetica,sans-Serif" font-size="10.00">mn::ILockObject</text>
</a>
</g>
</g>
<!-- Node3&#45;&gt;Node2 -->
<g id="edge2" class="edge">
<title>Node3&#45;&gt;Node2</title>
<path fill="none" stroke="midnightblue" d="M65.5,-112.8C65.5,-103.91 65.5,-93.78 65.5,-86.75"/>
<polygon fill="midnightblue" stroke="midnightblue" points="62,-113.08 65.5,-123.08 69,-113.08 62,-113.08"/>
</g>
<!-- Node4 -->
<g id="node4" class="node">
<title>Node4</title>
<g id="a_node4"><a xlink:title=" ">
<polygon fill="white" stroke="#bfbfbf" points="0,-179.5 0,-198.5 131,-198.5 131,-179.5 0,-179.5"/>
<text text-anchor="middle" x="65.5" y="-186.5" font-family="Helvetica,sans-Serif" font-size="10.00">MN_ONSIGLETN_CLASS</text>
</a>
</g>
</g>
<!-- Node4&#45;&gt;Node3 -->
<g id="edge3" class="edge">
<title>Node4&#45;&gt;Node3</title>
<path fill="none" stroke="#8b1a1a" d="M65.5,-168.8C65.5,-159.91 65.5,-149.78 65.5,-142.75"/>
<polygon fill="#8b1a1a" stroke="#8b1a1a" points="62,-169.08 65.5,-179.08 69,-169.08 62,-169.08"/>
</g>
</g>
</svg>
