<?xml version="1.0" encoding="UTF-8" standalone="no"?>
<!DOCTYPE svg PUBLIC "-//W3C//DTD SVG 1.1//EN"
 "http://www.w3.org/Graphics/SVG/1.1/DTD/svg11.dtd">
<!-- Generated by graphviz version 2.46.0 (0)
 -->
<!-- Title: mn::atomic_spinlock&lt; T &gt; Pages: 1 -->
<svg width="261pt" height="152pt"
 viewBox="0.00 0.00 260.50 152.00" xmlns="http://www.w3.org/2000/svg" xmlns:xlink="http://www.w3.org/1999/xlink">
<g id="graph0" class="graph" transform="scale(1 1) rotate(0) translate(4 148)">
<title>mn::atomic_spinlock&lt; T &gt;</title>
<polygon fill="white" stroke="transparent" points="-4,4 -4,-148 256.5,-148 256.5,4 -4,4"/>
<!-- Node1 -->
<g id="node1" class="node">
<title>Node1</title>
<g id="a_node1"><a xlink:title=" ">
<polygon fill="#bfbfbf" stroke="black" points="13.5,-0.5 13.5,-19.5 159.5,-19.5 159.5,-0.5 13.5,-0.5"/>
<text text-anchor="middle" x="86.5" y="-7.5" font-family="Helvetica,sans-Serif" font-size="10.00">mn::atomic_spinlock&lt; T &gt;</text>
</a>
</g>
</g>
<!-- Node2 -->
<g id="node2" class="node">
<title>Node2</title>
<g id="a_node2"><a xlink:href="classmn_1_1ILockObject.html" target="_top" xlink:title=" ">
<polygon fill="white" stroke="black" points="0,-67.5 0,-86.5 95,-86.5 95,-67.5 0,-67.5"/>
<text text-anchor="middle" x="47.5" y="-74.5" font-family="Helvetica,sans-Serif" font-size="10.00">mn::ILockObject</text>
</a>
</g>
</g>
<!-- Node2&#45;&gt;Node1 -->
<g id="edge1" class="edge">
<title>Node2&#45;&gt;Node1</title>
<path fill="none" stroke="midnightblue" d="M57.98,-58.53C65.53,-45.95 75.4,-29.51 81.32,-19.63"/>
<polygon fill="midnightblue" stroke="midnightblue" points="54.9,-56.86 52.76,-67.23 60.91,-60.46 54.9,-56.86"/>
</g>
<!-- Node3 -->
<g id="node3" class="node">
<title>Node3</title>
<g id="a_node3"><a xlink:href="structmn_1_1__atomic_3_01bool_01_4.html" target="_top" xlink:title="Special version for bool.">
<polygon fill="white" stroke="black" points="113,-67.5 113,-86.5 234,-86.5 234,-67.5 113,-67.5"/>
<text text-anchor="middle" x="173.5" y="-74.5" font-family="Helvetica,sans-Serif" font-size="10.00">mn::_atomic&lt; bool &gt;</text>
</a>
</g>
</g>
<!-- Node3&#45;&gt;Node1 -->
<g id="edge2" class="edge">
<title>Node3&#45;&gt;Node1</title>
<path fill="none" stroke="#9a32cd" stroke-dasharray="5,2" d="M153.51,-61.07C136.34,-48.24 112.18,-30.19 98.05,-19.63"/>
<polygon fill="#9a32cd" stroke="#9a32cd" points="151.66,-64.05 161.77,-67.23 155.85,-58.44 151.66,-64.05"/>
<text text-anchor="middle" x="159.5" y="-41" font-family="Helvetica,sans-Serif" font-size="10.00"> m_locked</text>
</g>
<!-- Node4 -->
<g id="node4" class="node">
<title>Node4</title>
<g id="a_node4"><a xlink:title=" ">
<polygon fill="white" stroke="#bfbfbf" points="94.5,-124.5 94.5,-143.5 252.5,-143.5 252.5,-124.5 94.5,-124.5"/>
<text text-anchor="middle" x="173.5" y="-131.5" font-family="Helvetica,sans-Serif" font-size="10.00">BASE_ATOMIC_TYPE&lt; bool &gt;</text>
</a>
</g>
</g>
<!-- Node4&#45;&gt;Node3 -->
<g id="edge3" class="edge">
<title>Node4&#45;&gt;Node3</title>
<path fill="none" stroke="midnightblue" d="M173.5,-114.12C173.5,-104.82 173.5,-94.06 173.5,-86.71"/>
<polygon fill="midnightblue" stroke="midnightblue" points="170,-114.41 173.5,-124.41 177,-114.41 170,-114.41"/>
</g>
</g>
</svg>
