<?xml version="1.0" encoding="UTF-8" standalone="no"?>
<!DOCTYPE svg PUBLIC "-//W3C//DTD SVG 1.1//EN"
 "http://www.w3.org/Graphics/SVG/1.1/DTD/svg11.dtd">
<!-- Generated by graphviz version 2.47.3 (0)
 -->
<!-- Title: mn::basic_atomic_singleton&lt; T &gt; Pages: 1 -->
<svg width="326pt" height="266pt"
 viewBox="0.00 0.00 325.50 266.00" xmlns="http://www.w3.org/2000/svg" xmlns:xlink="http://www.w3.org/1999/xlink">
<g id="graph0" class="graph" transform="scale(1 1) rotate(0) translate(4 262)">
<title>mn::basic_atomic_singleton&lt; T &gt;</title>
<polygon fill="white" stroke="transparent" points="-4,4 -4,-262 321.5,-262 321.5,4 -4,4"/>
<!-- Node1 -->
<g id="node1" class="node">
<title>Node1</title>
<g id="a_node1"><a xlink:title="Singleton with double&#45;checked locking pattern with atomic and mutex lock.">
<polygon fill="#bfbfbf" stroke="black" points="61.5,-0.5 61.5,-19.5 243.5,-19.5 243.5,-0.5 61.5,-0.5"/>
<text text-anchor="middle" x="152.5" y="-7.5" font-family="Helvetica,sans-Serif" font-size="10.00">mn::basic_atomic_singleton&lt; T &gt;</text>
</a>
</g>
</g>
<!-- Node2 -->
<g id="node2" class="node">
<title>Node2</title>
<g id="a_node2"><a xlink:href="classmn_1_1basic__mutex.html" target="_top" xlink:title=" ">
<polygon fill="white" stroke="black" points="34,-67.5 34,-86.5 135,-86.5 135,-67.5 34,-67.5"/>
<text text-anchor="middle" x="84.5" y="-74.5" font-family="Helvetica,sans-Serif" font-size="10.00">mn::basic_mutex</text>
</a>
</g>
</g>
<!-- Node2&#45;&gt;Node1 -->
<g id="edge1" class="edge">
<title>Node2&#45;&gt;Node1</title>
<path fill="none" stroke="#9a32cd" stroke-dasharray="5,2" d="M101.24,-60C114.58,-47.25 132.73,-29.89 143.47,-19.63"/>
<polygon fill="#9a32cd" stroke="#9a32cd" points="98.48,-57.79 93.67,-67.23 103.32,-62.85 98.48,-57.79"/>
<text text-anchor="middle" x="146" y="-41" font-family="Helvetica,sans-Serif" font-size="10.00"> m_tLock</text>
</g>
<!-- Node3 -->
<g id="node3" class="node">
<title>Node3</title>
<g id="a_node3"><a xlink:href="classmn_1_1basic__semaphore.html" target="_top" xlink:title=" ">
<polygon fill="white" stroke="black" points="3.5,-124.5 3.5,-143.5 127.5,-143.5 127.5,-124.5 3.5,-124.5"/>
<text text-anchor="middle" x="65.5" y="-131.5" font-family="Helvetica,sans-Serif" font-size="10.00">mn::basic_semaphore</text>
</a>
</g>
</g>
<!-- Node3&#45;&gt;Node2 -->
<g id="edge2" class="edge">
<title>Node3&#45;&gt;Node2</title>
<path fill="none" stroke="midnightblue" d="M71.81,-114.73C75.07,-105.29 78.9,-94.22 81.49,-86.71"/>
<polygon fill="midnightblue" stroke="midnightblue" points="68.43,-113.81 68.47,-124.41 75.04,-116.1 68.43,-113.81"/>
</g>
<!-- Node4 -->
<g id="node4" class="node">
<title>Node4</title>
<g id="a_node4"><a xlink:href="classmn_1_1ILockObject.html" target="_top" xlink:title=" ">
<polygon fill="white" stroke="black" points="18,-181.5 18,-200.5 113,-200.5 113,-181.5 18,-181.5"/>
<text text-anchor="middle" x="65.5" y="-188.5" font-family="Helvetica,sans-Serif" font-size="10.00">mn::ILockObject</text>
</a>
</g>
</g>
<!-- Node4&#45;&gt;Node3 -->
<g id="edge3" class="edge">
<title>Node4&#45;&gt;Node3</title>
<path fill="none" stroke="midnightblue" d="M65.5,-171.12C65.5,-161.82 65.5,-151.06 65.5,-143.71"/>
<polygon fill="midnightblue" stroke="midnightblue" points="62,-171.41 65.5,-181.41 69,-171.41 62,-171.41"/>
</g>
<!-- Node5 -->
<g id="node5" class="node">
<title>Node5</title>
<g id="a_node5"><a xlink:title=" ">
<polygon fill="white" stroke="#bfbfbf" points="0,-238.5 0,-257.5 131,-257.5 131,-238.5 0,-238.5"/>
<text text-anchor="middle" x="65.5" y="-245.5" font-family="Helvetica,sans-Serif" font-size="10.00">MN_ONSIGLETN_CLASS</text>
</a>
</g>
</g>
<!-- Node5&#45;&gt;Node4 -->
<g id="edge4" class="edge">
<title>Node5&#45;&gt;Node4</title>
<path fill="none" stroke="#8b1a1a" d="M65.5,-228.12C65.5,-218.82 65.5,-208.06 65.5,-200.71"/>
<polygon fill="#8b1a1a" stroke="#8b1a1a" points="62,-228.41 65.5,-238.41 69,-228.41 62,-228.41"/>
</g>
<!-- Node6 -->
<g id="node6" class="node">
<title>Node6</title>
<g id="a_node6"><a xlink:href="structmn_1_1__atomic.html" target="_top" xlink:title=" ">
<polygon fill="white" stroke="black" points="160.5,-67.5 160.5,-86.5 294.5,-86.5 294.5,-67.5 160.5,-67.5"/>
<text text-anchor="middle" x="227.5" y="-74.5" font-family="Helvetica,sans-Serif" font-size="10.00">mn::_atomic&lt; pointer &gt;</text>
</a>
</g>
</g>
<!-- Node6&#45;&gt;Node1 -->
<g id="edge5" class="edge">
<title>Node6&#45;&gt;Node1</title>
<path fill="none" stroke="#9a32cd" stroke-dasharray="5,2" d="M209.45,-60.36C194.71,-47.58 174.41,-29.99 162.45,-19.63"/>
<polygon fill="#9a32cd" stroke="#9a32cd" points="207.54,-63.33 217.39,-67.23 212.12,-58.04 207.54,-63.33"/>
<text text-anchor="middle" x="227.5" y="-41" font-family="Helvetica,sans-Serif" font-size="10.00"> m_pInstance</text>
</g>
<!-- Node7 -->
<g id="node7" class="node">
<title>Node7</title>
<g id="a_node7"><a xlink:title=" ">
<polygon fill="white" stroke="#bfbfbf" points="145.5,-124.5 145.5,-143.5 317.5,-143.5 317.5,-124.5 145.5,-124.5"/>
<text text-anchor="middle" x="231.5" y="-131.5" font-family="Helvetica,sans-Serif" font-size="10.00">BASE_ATOMIC_TYPE&lt; pointer &gt;</text>
</a>
</g>
</g>
<!-- Node7&#45;&gt;Node6 -->
<g id="edge6" class="edge">
<title>Node7&#45;&gt;Node6</title>
<path fill="none" stroke="midnightblue" d="M230.15,-114.42C229.47,-105.05 228.67,-94.14 228.13,-86.71"/>
<polygon fill="midnightblue" stroke="midnightblue" points="226.66,-114.69 230.88,-124.41 233.64,-114.18 226.66,-114.69"/>
</g>
</g>
</svg>
