<?xml version="1.0" encoding="UTF-8" standalone="no"?>
<!DOCTYPE svg PUBLIC "-//W3C//DTD SVG 1.1//EN"
 "http://www.w3.org/Graphics/SVG/1.1/DTD/svg11.dtd">
<!-- Generated by graphviz version 2.47.3 (0)
 -->
<!-- Title: mn::basic_task Pages: 1 -->
<svg width="658pt" height="142pt"
 viewBox="0.00 0.00 658.00 142.00" xmlns="http://www.w3.org/2000/svg" xmlns:xlink="http://www.w3.org/1999/xlink">
<g id="graph0" class="graph" transform="scale(1 1) rotate(0) translate(4 138)">
<title>mn::basic_task</title>
<polygon fill="white" stroke="transparent" points="-4,4 -4,-138 654,-138 654,4 -4,4"/>
<!-- Node1 -->
<g id="node1" class="node">
<title>Node1</title>
<g id="a_node1"><a xlink:title="Wrapper class around FreeRTOS&#39;s implementation of a task.">
<polygon fill="#bfbfbf" stroke="black" points="167,-57.5 167,-76.5 257,-76.5 257,-57.5 167,-57.5"/>
<text text-anchor="middle" x="212" y="-64.5" font-family="Helvetica,sans-Serif" font-size="10.00">mn::basic_task</text>
</a>
</g>
</g>
<!-- Node3 -->
<g id="node3" class="node">
<title>Node3</title>
<g id="a_node3"><a xlink:href="classmn_1_1basic__thread.html" target="_top" xlink:title=" ">
<polygon fill="white" stroke="black" points="322.5,-114.5 322.5,-133.5 423.5,-133.5 423.5,-114.5 322.5,-114.5"/>
<text text-anchor="middle" x="373" y="-121.5" font-family="Helvetica,sans-Serif" font-size="10.00">mn::basic_thread</text>
</a>
</g>
</g>
<!-- Node1&#45;&gt;Node3 -->
<g id="edge2" class="edge">
<title>Node1&#45;&gt;Node3</title>
<path fill="none" stroke="midnightblue" d="M239.25,-81.17C254.59,-89.01 274.51,-98.47 293,-105 303.24,-108.62 314.47,-111.78 325.16,-114.43"/>
<polygon fill="midnightblue" stroke="midnightblue" points="240.83,-78.05 230.35,-76.53 237.6,-84.25 240.83,-78.05"/>
</g>
<!-- Node4 -->
<g id="node4" class="node">
<title>Node4</title>
<g id="a_node4"><a xlink:href="classmn_1_1ext_1_1basic__convar__task.html" target="_top" xlink:title=" ">
<polygon fill="white" stroke="black" points="298,-76.5 298,-95.5 448,-95.5 448,-76.5 298,-76.5"/>
<text text-anchor="middle" x="373" y="-83.5" font-family="Helvetica,sans-Serif" font-size="10.00">mn::ext::basic_convar_task</text>
</a>
</g>
</g>
<!-- Node1&#45;&gt;Node4 -->
<g id="edge3" class="edge">
<title>Node1&#45;&gt;Node4</title>
<path fill="none" stroke="midnightblue" d="M267.29,-73.49C277.12,-74.66 287.51,-75.9 297.79,-77.13"/>
<polygon fill="midnightblue" stroke="midnightblue" points="267.64,-70 257.29,-72.29 266.8,-76.95 267.64,-70"/>
</g>
<!-- Node6 -->
<g id="node6" class="node">
<title>Node6</title>
<g id="a_node6"><a xlink:href="classmn_1_1ext_1_1foreign__task.html" target="_top" xlink:title=" ">
<polygon fill="white" stroke="black" points="312.5,-38.5 312.5,-57.5 433.5,-57.5 433.5,-38.5 312.5,-38.5"/>
<text text-anchor="middle" x="373" y="-45.5" font-family="Helvetica,sans-Serif" font-size="10.00">mn::ext::foreign_task</text>
</a>
</g>
</g>
<!-- Node1&#45;&gt;Node6 -->
<g id="edge5" class="edge">
<title>Node1&#45;&gt;Node6</title>
<path fill="none" stroke="midnightblue" d="M267.58,-60.48C282.06,-58.75 297.77,-56.87 312.49,-55.11"/>
<polygon fill="midnightblue" stroke="midnightblue" points="266.8,-57.05 257.29,-61.71 267.64,-64 266.8,-57.05"/>
</g>
<!-- Node7 -->
<g id="node7" class="node">
<title>Node7</title>
<g id="a_node7"><a xlink:href="classmn_1_1queue_1_1work__queue__task.html" target="_top" xlink:title=" ">
<polygon fill="white" stroke="black" points="293,-0.5 293,-19.5 453,-19.5 453,-0.5 293,-0.5"/>
<text text-anchor="middle" x="373" y="-7.5" font-family="Helvetica,sans-Serif" font-size="10.00">mn::queue::work_queue_task</text>
</a>
</g>
</g>
<!-- Node1&#45;&gt;Node7 -->
<g id="edge6" class="edge">
<title>Node1&#45;&gt;Node7</title>
<path fill="none" stroke="midnightblue" d="M239.25,-52.83C254.59,-44.99 274.51,-35.53 293,-29 303.24,-25.38 314.47,-22.22 325.16,-19.57"/>
<polygon fill="midnightblue" stroke="midnightblue" points="237.6,-49.75 230.35,-57.47 240.83,-55.95 237.6,-49.75"/>
</g>
<!-- Node2 -->
<g id="node2" class="node">
<title>Node2</title>
<g id="a_node2"><a xlink:title=" ">
<polygon fill="white" stroke="#bfbfbf" points="0,-57.5 0,-76.5 131,-76.5 131,-57.5 0,-57.5"/>
<text text-anchor="middle" x="65.5" y="-64.5" font-family="Helvetica,sans-Serif" font-size="10.00">MN_ONSIGLETN_CLASS</text>
</a>
</g>
</g>
<!-- Node2&#45;&gt;Node1 -->
<g id="edge1" class="edge">
<title>Node2&#45;&gt;Node1</title>
<path fill="none" stroke="#8b1a1a" d="M141.32,-67C150,-67 158.63,-67 166.71,-67"/>
<polygon fill="#8b1a1a" stroke="#8b1a1a" points="141.14,-63.5 131.14,-67 141.14,-70.5 141.14,-63.5"/>
</g>
<!-- Node5 -->
<g id="node5" class="node">
<title>Node5</title>
<g id="a_node5"><a xlink:href="classmn_1_1ext_1_1basic__message__task.html" target="_top" xlink:title="Extends the basic_convar_task with a message queue support.">
<polygon fill="white" stroke="black" points="489,-76.5 489,-95.5 650,-95.5 650,-76.5 489,-76.5"/>
<text text-anchor="middle" x="569.5" y="-83.5" font-family="Helvetica,sans-Serif" font-size="10.00">mn::ext::basic_message_task</text>
</a>
</g>
</g>
<!-- Node4&#45;&gt;Node5 -->
<g id="edge4" class="edge">
<title>Node4&#45;&gt;Node5</title>
<path fill="none" stroke="midnightblue" d="M458.17,-86C468.33,-86 478.69,-86 488.79,-86"/>
<polygon fill="midnightblue" stroke="midnightblue" points="458.09,-82.5 448.09,-86 458.09,-89.5 458.09,-82.5"/>
</g>
</g>
</svg>
