<?xml version="1.0" encoding="UTF-8" standalone="no"?>
<!DOCTYPE svg PUBLIC "-//W3C//DTD SVG 1.1//EN"
 "http://www.w3.org/Graphics/SVG/1.1/DTD/svg11.dtd">
<!-- Generated by graphviz version 2.44.1 (0)
 -->
<!-- Title: basic_work_queue Pages: 1 -->
<svg width="255pt" height="220pt"
 viewBox="0.00 0.00 255.00 220.00" xmlns="http://www.w3.org/2000/svg" xmlns:xlink="http://www.w3.org/1999/xlink">
<g id="graph0" class="graph" transform="scale(1 1) rotate(0) translate(4 216)">
<title>basic_work_queue</title>
<polygon fill="white" stroke="transparent" points="-4,4 -4,-216 251,-216 251,4 -4,4"/>
<!-- Node1 -->
<g id="node1" class="node">
<title>Node1</title>
<g id="a_node1"><a xlink:title=" ">
<polygon fill="#bfbfbf" stroke="black" points="48.5,-0.5 48.5,-19.5 155.5,-19.5 155.5,-0.5 48.5,-0.5"/>
<text text-anchor="middle" x="102" y="-7.5" font-family="Helvetica,sans-Serif" font-size="10.00">basic_work_queue</text>
</a>
</g>
</g>
<!-- Node2 -->
<g id="node2" class="node">
<title>Node2</title>
<g id="a_node2"><a xlink:href="classbasic__mutex.html" target="_top" xlink:title=" ">
<polygon fill="white" stroke="black" points="11.5,-78.5 11.5,-97.5 90.5,-97.5 90.5,-78.5 11.5,-78.5"/>
<text text-anchor="middle" x="51" y="-85.5" font-family="Helvetica,sans-Serif" font-size="10.00">basic_mutex</text>
</a>
</g>
</g>
<!-- Node2&#45;&gt;Node1 -->
<g id="edge1" class="edge">
<title>Node2&#45;&gt;Node1</title>
<path fill="none" stroke="#9a32cd" stroke-dasharray="5,2" d="M47.13,-68.42C46.1,-58.69 46.52,-46.97 52,-38 57.09,-29.66 65.72,-23.74 74.39,-19.6"/>
<polygon fill="#9a32cd" stroke="#9a32cd" points="43.67,-68.99 48.71,-78.31 50.58,-67.88 43.67,-68.99"/>
<text text-anchor="middle" x="92" y="-52" font-family="Helvetica,sans-Serif" font-size="10.00"> m_ThreadJob</text>
<text text-anchor="middle" x="92" y="-41" font-family="Helvetica,sans-Serif" font-size="10.00">m_ThreadStatus</text>
</g>
<!-- Node3 -->
<g id="node3" class="node">
<title>Node3</title>
<g id="a_node3"><a xlink:href="classbasic__semaphore.html" target="_top" xlink:title=" ">
<polygon fill="white" stroke="black" points="0,-135.5 0,-154.5 102,-154.5 102,-135.5 0,-135.5"/>
<text text-anchor="middle" x="51" y="-142.5" font-family="Helvetica,sans-Serif" font-size="10.00">basic_semaphore</text>
</a>
</g>
</g>
<!-- Node3&#45;&gt;Node2 -->
<g id="edge2" class="edge">
<title>Node3&#45;&gt;Node2</title>
<path fill="none" stroke="midnightblue" d="M51,-125.12C51,-115.82 51,-105.06 51,-97.71"/>
<polygon fill="midnightblue" stroke="midnightblue" points="47.5,-125.41 51,-135.41 54.5,-125.41 47.5,-125.41"/>
</g>
<!-- Node4 -->
<g id="node4" class="node">
<title>Node4</title>
<g id="a_node4"><a xlink:href="class_i_lock_object.html" target="_top" xlink:title=" ">
<polygon fill="white" stroke="black" points="14,-192.5 14,-211.5 88,-211.5 88,-192.5 14,-192.5"/>
<text text-anchor="middle" x="51" y="-199.5" font-family="Helvetica,sans-Serif" font-size="10.00">ILockObject</text>
</a>
</g>
</g>
<!-- Node4&#45;&gt;Node3 -->
<g id="edge3" class="edge">
<title>Node4&#45;&gt;Node3</title>
<path fill="none" stroke="midnightblue" d="M51,-182.12C51,-172.82 51,-162.06 51,-154.71"/>
<polygon fill="midnightblue" stroke="midnightblue" points="47.5,-182.41 51,-192.41 54.5,-182.41 47.5,-182.41"/>
</g>
<!-- Node5 -->
<g id="node5" class="node">
<title>Node5</title>
<g id="a_node5"><a xlink:href="classbasic__queue.html" target="_top" xlink:title=" ">
<polygon fill="white" stroke="black" points="115.5,-78.5 115.5,-97.5 192.5,-97.5 192.5,-78.5 115.5,-78.5"/>
<text text-anchor="middle" x="154" y="-85.5" font-family="Helvetica,sans-Serif" font-size="10.00">basic_queue</text>
</a>
</g>
</g>
<!-- Node5&#45;&gt;Node1 -->
<g id="edge4" class="edge">
<title>Node5&#45;&gt;Node1</title>
<path fill="none" stroke="#9a32cd" stroke-dasharray="5,2" d="M147.99,-69C144.26,-59.29 138.86,-47.41 132,-38 126.88,-30.98 119.68,-24.43 113.62,-19.53"/>
<polygon fill="#9a32cd" stroke="#9a32cd" points="144.72,-70.23 151.38,-78.46 151.31,-67.87 144.72,-70.23"/>
<text text-anchor="middle" x="195.5" y="-46.5" font-family="Helvetica,sans-Serif" font-size="10.00"> m_pWorkItemQueue</text>
</g>
</g>
</svg>
