<?xml version="1.0" encoding="UTF-8" standalone="no"?>
<!DOCTYPE svg PUBLIC "-//W3C//DTD SVG 1.1//EN"
 "http://www.w3.org/Graphics/SVG/1.1/DTD/svg11.dtd">
<!-- Generated by graphviz version 2.47.1 (0)
 -->
<!-- Title: mn::basic_task Pages: 1 -->
<svg width="353pt" height="299pt"
 viewBox="0.00 0.00 352.50 299.00" xmlns="http://www.w3.org/2000/svg" xmlns:xlink="http://www.w3.org/1999/xlink">
<g id="graph0" class="graph" transform="scale(1 1) rotate(0) translate(4 295)">
<title>mn::basic_task</title>
<polygon fill="white" stroke="transparent" points="-4,4 -4,-295 348.5,-295 348.5,4 -4,4"/>
<!-- Node1 -->
<g id="node1" class="node">
<title>Node1</title>
<g id="a_node1"><a xlink:title="Wrapper class around FreeRTOS&#39;s implementation of a task.">
<polygon fill="#bfbfbf" stroke="black" points="116.5,-0.5 116.5,-19.5 206.5,-19.5 206.5,-0.5 116.5,-0.5"/>
<text text-anchor="middle" x="161.5" y="-7.5" font-family="Helvetica,sans-Serif" font-size="10.00">mn::basic_task</text>
</a>
</g>
</g>
<!-- Node2 -->
<g id="node2" class="node">
<title>Node2</title>
<g id="a_node2"><a xlink:title=" ">
<polygon fill="white" stroke="#bfbfbf" points="0,-271.5 0,-290.5 131,-290.5 131,-271.5 0,-271.5"/>
<text text-anchor="middle" x="65.5" y="-278.5" font-family="Helvetica,sans-Serif" font-size="10.00">MN_ONSIGLETN_CLASS</text>
</a>
</g>
</g>
<!-- Node2&#45;&gt;Node1 -->
<g id="edge1" class="edge">
<title>Node2&#45;&gt;Node1</title>
<path fill="none" stroke="#8b1a1a" d="M59.37,-261.43C56.41,-250.87 53.5,-237.33 53.5,-225 53.5,-225 53.5,-225 53.5,-98 53.5,-56.59 102.25,-31.55 134.25,-19.58"/>
<polygon fill="#8b1a1a" stroke="#8b1a1a" points="56.08,-262.63 62.35,-271.17 62.78,-260.59 56.08,-262.63"/>
</g>
<!-- Node5 -->
<g id="node5" class="node">
<title>Node5</title>
<g id="a_node5"><a xlink:href="classmn_1_1ILockObject.html" target="_top" xlink:title=" ">
<polygon fill="white" stroke="black" points="97,-214.5 97,-233.5 192,-233.5 192,-214.5 97,-214.5"/>
<text text-anchor="middle" x="144.5" y="-221.5" font-family="Helvetica,sans-Serif" font-size="10.00">mn::ILockObject</text>
</a>
</g>
</g>
<!-- Node2&#45;&gt;Node5 -->
<g id="edge5" class="edge">
<title>Node2&#45;&gt;Node5</title>
<path fill="none" stroke="#8b1a1a" d="M86.27,-265.54C100.9,-255.35 119.98,-242.07 132.24,-233.53"/>
<polygon fill="#8b1a1a" stroke="#8b1a1a" points="84.05,-262.82 77.84,-271.41 88.05,-268.56 84.05,-262.82"/>
</g>
<!-- Node3 -->
<g id="node3" class="node">
<title>Node3</title>
<g id="a_node3"><a xlink:href="classmn_1_1basic__binary__semaphore.html" target="_top" xlink:title=" ">
<polygon fill="white" stroke="black" points="81.5,-89.5 81.5,-108.5 241.5,-108.5 241.5,-89.5 81.5,-89.5"/>
<text text-anchor="middle" x="161.5" y="-96.5" font-family="Helvetica,sans-Serif" font-size="10.00">mn::basic_binary_semaphore</text>
</a>
</g>
</g>
<!-- Node3&#45;&gt;Node1 -->
<g id="edge2" class="edge">
<title>Node3&#45;&gt;Node1</title>
<path fill="none" stroke="#9a32cd" stroke-dasharray="5,2" d="M161.5,-79.19C161.5,-60.74 161.5,-33.41 161.5,-19.62"/>
<polygon fill="#9a32cd" stroke="#9a32cd" points="158,-79.34 161.5,-89.34 165,-79.34 158,-79.34"/>
<text text-anchor="middle" x="206.5" y="-63" font-family="Helvetica,sans-Serif" font-size="10.00"> m_contextMutext</text>
<text text-anchor="middle" x="206.5" y="-52" font-family="Helvetica,sans-Serif" font-size="10.00">m_continuemutex</text>
<text text-anchor="middle" x="206.5" y="-41" font-family="Helvetica,sans-Serif" font-size="10.00">m_runningMutex</text>
</g>
<!-- Node4 -->
<g id="node4" class="node">
<title>Node4</title>
<g id="a_node4"><a xlink:href="classmn_1_1basic__semaphore.html" target="_top" xlink:title=" ">
<polygon fill="white" stroke="black" points="90.5,-152 90.5,-171 214.5,-171 214.5,-152 90.5,-152"/>
<text text-anchor="middle" x="152.5" y="-159" font-family="Helvetica,sans-Serif" font-size="10.00">mn::basic_semaphore</text>
</a>
</g>
</g>
<!-- Node4&#45;&gt;Node3 -->
<g id="edge3" class="edge">
<title>Node4&#45;&gt;Node3</title>
<path fill="none" stroke="midnightblue" d="M155.27,-141.85C156.92,-130.78 158.93,-117.27 160.21,-108.65"/>
<polygon fill="midnightblue" stroke="midnightblue" points="151.8,-141.43 153.79,-151.83 158.72,-142.46 151.8,-141.43"/>
</g>
<!-- Node5&#45;&gt;Node4 -->
<g id="edge4" class="edge">
<title>Node5&#45;&gt;Node4</title>
<path fill="none" stroke="midnightblue" d="M146.97,-204.35C148.43,-193.28 150.22,-179.77 151.36,-171.15"/>
<polygon fill="midnightblue" stroke="midnightblue" points="143.49,-203.96 145.65,-214.33 150.43,-204.88 143.49,-203.96"/>
</g>
<!-- Node6 -->
<g id="node6" class="node">
<title>Node6</title>
<g id="a_node6"><a xlink:title=" ">
<polygon fill="white" stroke="#bfbfbf" points="260,-89.5 260,-108.5 325,-108.5 325,-89.5 260,-89.5"/>
<text text-anchor="middle" x="292.5" y="-96.5" font-family="Helvetica,sans-Serif" font-size="10.00">std::string</text>
</a>
</g>
</g>
<!-- Node6&#45;&gt;Node1 -->
<g id="edge6" class="edge">
<title>Node6&#45;&gt;Node1</title>
<path fill="none" stroke="#9a32cd" stroke-dasharray="5,2" d="M285.46,-79.6C279.44,-66.21 269.5,-48.62 255.5,-38 241.43,-27.33 223.28,-20.87 206.68,-16.97"/>
<polygon fill="#9a32cd" stroke="#9a32cd" points="282.39,-81.34 289.46,-89.23 288.86,-78.65 282.39,-81.34"/>
<text text-anchor="middle" x="312" y="-52" font-family="Helvetica,sans-Serif" font-size="10.00"> m_strName</text>
</g>
<!-- Node7 -->
<g id="node7" class="node">
<title>Node7</title>
<g id="a_node7"><a xlink:title=" ">
<polygon fill="white" stroke="#bfbfbf" points="240.5,-146.5 240.5,-176.5 344.5,-176.5 344.5,-146.5 240.5,-146.5"/>
<text text-anchor="start" x="248.5" y="-164.5" font-family="Helvetica,sans-Serif" font-size="10.00">std::basic_string&lt;</text>
<text text-anchor="middle" x="292.5" y="-153.5" font-family="Helvetica,sans-Serif" font-size="10.00"> Char &gt;</text>
</a>
</g>
</g>
<!-- Node7&#45;&gt;Node6 -->
<g id="edge7" class="edge">
<title>Node7&#45;&gt;Node6</title>
<path fill="none" stroke="midnightblue" d="M292.5,-136.35C292.5,-126.51 292.5,-115.78 292.5,-108.54"/>
<polygon fill="midnightblue" stroke="midnightblue" points="289,-136.47 292.5,-146.47 296,-136.47 289,-136.47"/>
</g>
</g>
</svg>
