<?xml version="1.0" encoding="UTF-8" standalone="no"?>
<!DOCTYPE svg PUBLIC "-//W3C//DTD SVG 1.1//EN"
 "http://www.w3.org/Graphics/SVG/1.1/DTD/svg11.dtd">
<!-- Generated by graphviz version 2.47.1 (0)
 -->
<!-- Title: mn::buffer&lt; TVALUE, TALLOCATOR &gt; Pages: 1 -->
<svg width="324pt" height="195pt"
 viewBox="0.00 0.00 324.00 195.00" xmlns="http://www.w3.org/2000/svg" xmlns:xlink="http://www.w3.org/1999/xlink">
<g id="graph0" class="graph" transform="scale(1 1) rotate(0) translate(4 191)">
<title>mn::buffer&lt; TVALUE, TALLOCATOR &gt;</title>
<polygon fill="white" stroke="transparent" points="-4,4 -4,-191 320,-191 320,4 -4,4"/>
<!-- Node1 -->
<g id="node1" class="node">
<title>Node1</title>
<g id="a_node1"><a xlink:title="A buffer class that allocates a buffer of a given type and size.">
<polygon fill="#bfbfbf" stroke="black" points="60.5,-0.5 60.5,-30.5 179.5,-30.5 179.5,-0.5 60.5,-0.5"/>
<text text-anchor="start" x="68.5" y="-18.5" font-family="Helvetica,sans-Serif" font-size="10.00">mn::buffer&lt; TVALUE,</text>
<text text-anchor="middle" x="120" y="-7.5" font-family="Helvetica,sans-Serif" font-size="10.00"> TALLOCATOR &gt;</text>
</a>
</g>
</g>
<!-- Node2 -->
<g id="node2" class="node">
<title>Node2</title>
<g id="a_node2"><a xlink:title=" ">
<polygon fill="white" stroke="#bfbfbf" points="0,-84 0,-103 140,-103 140,-84 0,-84"/>
<text text-anchor="middle" x="70" y="-91" font-family="Helvetica,sans-Serif" font-size="10.00">MN_ONCOPYABLE_CLASS</text>
</a>
</g>
</g>
<!-- Node2&#45;&gt;Node1 -->
<g id="edge1" class="edge">
<title>Node2&#45;&gt;Node1</title>
<path fill="none" stroke="#8b1a1a" d="M81.27,-75.37C90.18,-61.83 102.45,-43.17 110.78,-30.52"/>
<polygon fill="#8b1a1a" stroke="#8b1a1a" points="78.31,-73.5 75.74,-83.78 84.16,-77.35 78.31,-73.5"/>
</g>
<!-- Node3 -->
<g id="node3" class="node">
<title>Node3</title>
<g id="a_node3"><a xlink:href="classmn_1_1memory_1_1basic__allocator.html" target="_top" xlink:title=" ">
<polygon fill="white" stroke="black" points="158,-78.5 158,-108.5 316,-108.5 316,-78.5 158,-78.5"/>
<text text-anchor="start" x="166" y="-96.5" font-family="Helvetica,sans-Serif" font-size="10.00">mn::memory::basic_allocator</text>
<text text-anchor="middle" x="237" y="-85.5" font-family="Helvetica,sans-Serif" font-size="10.00">&lt; TAllocator, TFilter &gt;</text>
</a>
</g>
</g>
<!-- Node3&#45;&gt;Node1 -->
<g id="edge2" class="edge">
<title>Node3&#45;&gt;Node1</title>
<path fill="none" stroke="#9a32cd" stroke-dasharray="5,2" d="M206.66,-72.79C186.27,-59.55 159.89,-42.41 141.62,-30.54"/>
<polygon fill="#9a32cd" stroke="#9a32cd" points="204.97,-75.87 215.27,-78.38 208.79,-70 204.97,-75.87"/>
<text text-anchor="middle" x="215.5" y="-52" font-family="Helvetica,sans-Serif" font-size="10.00"> m_allocator</text>
</g>
<!-- Node4 -->
<g id="node4" class="node">
<title>Node4</title>
<g id="a_node4"><a xlink:href="classmn_1_1memory_1_1basic__allocator__filter.html" target="_top" xlink:title=" ">
<polygon fill="white" stroke="black" points="158,-156.5 158,-186.5 316,-186.5 316,-156.5 158,-156.5"/>
<text text-anchor="start" x="166" y="-174.5" font-family="Helvetica,sans-Serif" font-size="10.00">mn::memory::basic_allocator</text>
<text text-anchor="middle" x="237" y="-163.5" font-family="Helvetica,sans-Serif" font-size="10.00">_filter</text>
</a>
</g>
</g>
<!-- Node4&#45;&gt;Node3 -->
<g id="edge3" class="edge">
<title>Node4&#45;&gt;Node3</title>
<path fill="none" stroke="#9a32cd" stroke-dasharray="5,2" d="M237,-146.09C237,-133.76 237,-119.22 237,-108.73"/>
<polygon fill="#9a32cd" stroke="#9a32cd" points="233.5,-146.2 237,-156.2 240.5,-146.21 233.5,-146.2"/>
<text text-anchor="middle" x="260.5" y="-130" font-family="Helvetica,sans-Serif" font-size="10.00"> m_fFilter</text>
</g>
</g>
</svg>
