<?xml version="1.0" encoding="UTF-8" standalone="no"?>
<!DOCTYPE svg PUBLIC "-//W3C//DTD SVG 1.1//EN"
 "http://www.w3.org/Graphics/SVG/1.1/DTD/svg11.dtd">
<!-- Generated by graphviz version 2.46.0 (0)
 -->
<!-- Title: mn::system::ISystemLockObject Pages: 1 -->
<svg width="533pt" height="214pt"
 viewBox="0.00 0.00 533.00 213.50" xmlns="http://www.w3.org/2000/svg" xmlns:xlink="http://www.w3.org/1999/xlink">
<g id="graph0" class="graph" transform="scale(1 1) rotate(0) translate(4 209.5)">
<title>mn::system::ISystemLockObject</title>
<polygon fill="white" stroke="transparent" points="-4,4 -4,-209.5 529,-209.5 529,4 -4,4"/>
<!-- Node1 -->
<g id="node1" class="node">
<title>Node1</title>
<g id="a_node1"><a xlink:title=" ">
<polygon fill="#bfbfbf" stroke="black" points="131,-82.5 131,-101.5 305,-101.5 305,-82.5 131,-82.5"/>
<text text-anchor="middle" x="218" y="-89.5" font-family="Helvetica,sans-Serif" font-size="10.00">mn::system::ISystemLockObject</text>
</a>
</g>
</g>
<!-- Node3 -->
<g id="node3" class="node">
<title>Node3</title>
<g id="a_node3"><a xlink:href="classmn_1_1system_1_1basic__critical__section.html" target="_top" xlink:title=" ">
<polygon fill="white" stroke="black" points="361,-175 361,-205 505,-205 505,-175 361,-175"/>
<text text-anchor="start" x="369" y="-193" font-family="Helvetica,sans-Serif" font-size="10.00">mn::system::basic_critical</text>
<text text-anchor="middle" x="433" y="-182" font-family="Helvetica,sans-Serif" font-size="10.00">_section</text>
</a>
</g>
</g>
<!-- Node1&#45;&gt;Node3 -->
<g id="edge2" class="edge">
<title>Node1&#45;&gt;Node3</title>
<path fill="none" stroke="midnightblue" d="M240.06,-107.37C263.6,-123.92 303.39,-150.03 341,-166 348.82,-169.32 357.22,-172.28 365.64,-174.89"/>
<polygon fill="midnightblue" stroke="midnightblue" points="242.04,-104.48 231.86,-101.53 237.98,-110.19 242.04,-104.48"/>
</g>
<!-- Node4 -->
<g id="node4" class="node">
<title>Node4</title>
<g id="a_node4"><a xlink:href="classmn_1_1system_1_1basic__critical__section__nested.html" target="_top" xlink:title=" ">
<polygon fill="white" stroke="black" points="361,-126 361,-156 505,-156 505,-126 361,-126"/>
<text text-anchor="start" x="369" y="-144" font-family="Helvetica,sans-Serif" font-size="10.00">mn::system::basic_critical</text>
<text text-anchor="middle" x="433" y="-133" font-family="Helvetica,sans-Serif" font-size="10.00">_section_nested</text>
</a>
</g>
</g>
<!-- Node1&#45;&gt;Node4 -->
<g id="edge3" class="edge">
<title>Node1&#45;&gt;Node4</title>
<path fill="none" stroke="midnightblue" d="M270.21,-103.78C299.11,-110.43 335.52,-118.81 366.49,-125.93"/>
<polygon fill="midnightblue" stroke="midnightblue" points="270.85,-100.34 260.32,-101.51 269.28,-107.16 270.85,-100.34"/>
</g>
<!-- Node5 -->
<g id="node5" class="node">
<title>Node5</title>
<g id="a_node5"><a xlink:href="classmn_1_1system_1_1basic__critical__section__timedout.html" target="_top" xlink:title=" ">
<polygon fill="white" stroke="black" points="361,-77 361,-107 505,-107 505,-77 361,-77"/>
<text text-anchor="start" x="369" y="-95" font-family="Helvetica,sans-Serif" font-size="10.00">mn::system::basic_critical</text>
<text text-anchor="middle" x="433" y="-84" font-family="Helvetica,sans-Serif" font-size="10.00">_section_timedout</text>
</a>
</g>
</g>
<!-- Node1&#45;&gt;Node5 -->
<g id="edge4" class="edge">
<title>Node1&#45;&gt;Node5</title>
<path fill="none" stroke="midnightblue" d="M315.05,-92C330.39,-92 346.03,-92 360.67,-92"/>
<polygon fill="midnightblue" stroke="midnightblue" points="315.02,-88.5 305.02,-92 315.02,-95.5 315.02,-88.5"/>
</g>
<!-- Node6 -->
<g id="node6" class="node">
<title>Node6</title>
<g id="a_node6"><a xlink:href="classmn_1_1system_1_1basic__interrupts__lock.html" target="_top" xlink:title=" ">
<polygon fill="white" stroke="black" points="341,-38.5 341,-57.5 525,-57.5 525,-38.5 341,-38.5"/>
<text text-anchor="middle" x="433" y="-45.5" font-family="Helvetica,sans-Serif" font-size="10.00">mn::system::basic_interrupts_lock</text>
</a>
</g>
</g>
<!-- Node1&#45;&gt;Node6 -->
<g id="edge5" class="edge">
<title>Node1&#45;&gt;Node6</title>
<path fill="none" stroke="midnightblue" d="M275.15,-80.4C309.68,-73.27 353.38,-64.24 385.87,-57.53"/>
<polygon fill="midnightblue" stroke="midnightblue" points="274.3,-77 265.22,-82.45 275.72,-83.86 274.3,-77"/>
</g>
<!-- Node7 -->
<g id="node7" class="node">
<title>Node7</title>
<g id="a_node7"><a xlink:href="classmn_1_1system_1_1basic__schedular__lock.html" target="_top" xlink:title=" ">
<polygon fill="white" stroke="black" points="341,-0.5 341,-19.5 525,-19.5 525,-0.5 341,-0.5"/>
<text text-anchor="middle" x="433" y="-7.5" font-family="Helvetica,sans-Serif" font-size="10.00">mn::system::basic_schedular_lock</text>
</a>
</g>
</g>
<!-- Node1&#45;&gt;Node7 -->
<g id="edge6" class="edge">
<title>Node1&#45;&gt;Node7</title>
<path fill="none" stroke="midnightblue" d="M242.93,-77.16C266.92,-62.89 305.3,-41.68 341,-29 351.65,-25.22 363.27,-22.09 374.55,-19.53"/>
<polygon fill="midnightblue" stroke="midnightblue" points="240.94,-74.27 234.18,-82.44 244.55,-80.27 240.94,-74.27"/>
</g>
<!-- Node2 -->
<g id="node2" class="node">
<title>Node2</title>
<g id="a_node2"><a xlink:href="classmn_1_1_i_lock_object.html" target="_top" xlink:title=" ">
<polygon fill="white" stroke="black" points="0,-82.5 0,-101.5 95,-101.5 95,-82.5 0,-82.5"/>
<text text-anchor="middle" x="47.5" y="-89.5" font-family="Helvetica,sans-Serif" font-size="10.00">mn::ILockObject</text>
</a>
</g>
</g>
<!-- Node2&#45;&gt;Node1 -->
<g id="edge1" class="edge">
<title>Node2&#45;&gt;Node1</title>
<path fill="none" stroke="midnightblue" d="M105.58,-92C113.78,-92 122.35,-92 130.96,-92"/>
<polygon fill="midnightblue" stroke="midnightblue" points="105.44,-88.5 95.44,-92 105.44,-95.5 105.44,-88.5"/>
</g>
</g>
</svg>
