<?xml version="1.0" encoding="UTF-8" standalone="no"?>
<!DOCTYPE svg PUBLIC "-//W3C//DTD SVG 1.1//EN"
 "http://www.w3.org/Graphics/SVG/1.1/DTD/svg11.dtd">
<!-- Generated by graphviz version 2.47.1 (0)
 -->
<!-- Title: mn::atomic_counter Pages: 1 -->
<svg width="166pt" height="174pt"
 viewBox="0.00 0.00 165.50 174.00" xmlns="http://www.w3.org/2000/svg" xmlns:xlink="http://www.w3.org/1999/xlink">
<g id="graph0" class="graph" transform="scale(1 1) rotate(0) translate(4 170)">
<title>mn::atomic_counter</title>
<polygon fill="white" stroke="transparent" points="-4,4 -4,-170 161.5,-170 161.5,4 -4,4"/>
<!-- Node1 -->
<g id="node1" class="node">
<title>Node1</title>
<g id="a_node1"><a xlink:title="This class implements a simple counter, whit atomic operations for use in a multithreaded environment...">
<polygon fill="#bfbfbf" stroke="black" points="19.5,-0.5 19.5,-19.5 133.5,-19.5 133.5,-0.5 19.5,-0.5"/>
<text text-anchor="middle" x="76.5" y="-7.5" font-family="Helvetica,sans-Serif" font-size="10.00">mn::atomic_counter</text>
</a>
</g>
</g>
<!-- Node2 -->
<g id="node2" class="node">
<title>Node2</title>
<g id="a_node2"><a xlink:href="structmn_1_1__atomic.html" target="_top" xlink:title=" ">
<polygon fill="white" stroke="black" points="18.5,-67.5 18.5,-97.5 134.5,-97.5 134.5,-67.5 18.5,-67.5"/>
<text text-anchor="start" x="26.5" y="-85.5" font-family="Helvetica,sans-Serif" font-size="10.00">mn::_atomic&lt; value</text>
<text text-anchor="middle" x="76.5" y="-74.5" font-family="Helvetica,sans-Serif" font-size="10.00">_type &gt;</text>
</a>
</g>
</g>
<!-- Node2&#45;&gt;Node1 -->
<g id="edge1" class="edge">
<title>Node2&#45;&gt;Node1</title>
<path fill="none" stroke="#9a32cd" stroke-dasharray="5,2" d="M76.5,-57.09C76.5,-44.21 76.5,-29.2 76.5,-19.89"/>
<polygon fill="#9a32cd" stroke="#9a32cd" points="73,-57.23 76.5,-67.23 80,-57.23 73,-57.23"/>
<text text-anchor="middle" x="117" y="-41" font-family="Helvetica,sans-Serif" font-size="10.00"> m_atomicCount</text>
</g>
<!-- Node3 -->
<g id="node3" class="node">
<title>Node3</title>
<g id="a_node3"><a xlink:title=" ">
<polygon fill="white" stroke="#bfbfbf" points="0,-135.5 0,-165.5 153,-165.5 153,-135.5 0,-135.5"/>
<text text-anchor="start" x="8" y="-153.5" font-family="Helvetica,sans-Serif" font-size="10.00">BASE_ATOMIC_TYPE&lt; value</text>
<text text-anchor="middle" x="76.5" y="-142.5" font-family="Helvetica,sans-Serif" font-size="10.00">_type &gt;</text>
</a>
</g>
</g>
<!-- Node3&#45;&gt;Node2 -->
<g id="edge2" class="edge">
<title>Node3&#45;&gt;Node2</title>
<path fill="none" stroke="midnightblue" d="M76.5,-125.03C76.5,-115.86 76.5,-105.74 76.5,-97.79"/>
<polygon fill="midnightblue" stroke="midnightblue" points="73,-125.18 76.5,-135.18 80,-125.18 73,-125.18"/>
</g>
</g>
</svg>
