<?xml version="1.0" encoding="UTF-8" standalone="no"?>
<!DOCTYPE svg PUBLIC "-//W3C//DTD SVG 1.1//EN"
 "http://www.w3.org/Graphics/SVG/1.1/DTD/svg11.dtd">
<!-- Generated by graphviz version 2.46.0 (0)
 -->
<!-- Title: mn::net::basic_ip_socket Pages: 1 -->
<svg width="448pt" height="284pt"
 viewBox="0.00 0.00 448.00 284.00" xmlns="http://www.w3.org/2000/svg" xmlns:xlink="http://www.w3.org/1999/xlink">
<g id="graph0" class="graph" transform="scale(1 1) rotate(0) translate(4 280)">
<title>mn::net::basic_ip_socket</title>
<polygon fill="white" stroke="transparent" points="-4,4 -4,-280 444,-280 444,4 -4,4"/>
<!-- Node1 -->
<g id="node1" class="node">
<title>Node1</title>
<g id="a_node1"><a xlink:title="Wrapper class around lwip implementation of a socket.">
<polygon fill="#bfbfbf" stroke="black" points="0,-116 0,-135 137,-135 137,-116 0,-116"/>
<text text-anchor="middle" x="68.5" y="-123" font-family="Helvetica,sans-Serif" font-size="10.00">mn::net::basic_ip_socket</text>
</a>
</g>
</g>
<!-- Node2 -->
<g id="node2" class="node">
<title>Node2</title>
<g id="a_node2"><a xlink:href="classmn_1_1net_1_1basic__ip4__socket.html" target="_top" xlink:title="This class represents an internet (IP) version 4 host socket.">
<polygon fill="white" stroke="black" points="173,-159.5 173,-189.5 279,-189.5 279,-159.5 173,-159.5"/>
<text text-anchor="start" x="181" y="-177.5" font-family="Helvetica,sans-Serif" font-size="10.00">mn::net::basic_ip4</text>
<text text-anchor="middle" x="226" y="-166.5" font-family="Helvetica,sans-Serif" font-size="10.00">_socket</text>
</a>
</g>
</g>
<!-- Node1&#45;&gt;Node2 -->
<g id="edge1" class="edge">
<title>Node1&#45;&gt;Node2</title>
<path fill="none" stroke="midnightblue" d="M109.59,-138.13C130.25,-144.64 155.61,-152.63 177.28,-159.46"/>
<polygon fill="midnightblue" stroke="midnightblue" points="110.44,-134.73 99.85,-135.06 108.34,-141.41 110.44,-134.73"/>
</g>
<!-- Node6 -->
<g id="node6" class="node">
<title>Node6</title>
<g id="a_node6"><a xlink:href="classmn_1_1net_1_1basic__ip6__socket.html" target="_top" xlink:title="This class represents an internet (IP) version 6 host socket.">
<polygon fill="white" stroke="black" points="173,-86.5 173,-116.5 279,-116.5 279,-86.5 173,-86.5"/>
<text text-anchor="start" x="181" y="-104.5" font-family="Helvetica,sans-Serif" font-size="10.00">mn::net::basic_ip6</text>
<text text-anchor="middle" x="226" y="-93.5" font-family="Helvetica,sans-Serif" font-size="10.00">_socket</text>
</a>
</g>
</g>
<!-- Node1&#45;&gt;Node6 -->
<g id="edge5" class="edge">
<title>Node1&#45;&gt;Node6</title>
<path fill="none" stroke="midnightblue" d="M141.47,-114.39C152.04,-112.76 162.75,-111.11 172.82,-109.55"/>
<polygon fill="midnightblue" stroke="midnightblue" points="140.75,-110.96 131.4,-115.95 141.82,-117.88 140.75,-110.96"/>
</g>
<!-- Node3 -->
<g id="node3" class="node">
<title>Node3</title>
<g id="a_node3"><a xlink:href="classmn_1_1net_1_1basic__dgram__ip__socket.html" target="_top" xlink:title="Basic dram socket class.">
<polygon fill="white" stroke="black" points="316.5,-245.5 316.5,-275.5 438.5,-275.5 438.5,-245.5 316.5,-245.5"/>
<text text-anchor="start" x="324.5" y="-263.5" font-family="Helvetica,sans-Serif" font-size="10.00">mn::net::basic_dgram</text>
<text text-anchor="middle" x="377.5" y="-252.5" font-family="Helvetica,sans-Serif" font-size="10.00">_ip_socket</text>
</a>
</g>
</g>
<!-- Node2&#45;&gt;Node3 -->
<g id="edge2" class="edge">
<title>Node2&#45;&gt;Node3</title>
<path fill="none" stroke="midnightblue" d="M253.97,-196.08C270.85,-208.92 293.41,-224.9 315,-236.5 320.96,-239.7 327.44,-242.7 333.88,-245.42"/>
<polygon fill="midnightblue" stroke="midnightblue" points="255.76,-193.04 245.7,-189.7 251.48,-198.58 255.76,-193.04"/>
</g>
<!-- Node4 -->
<g id="node4" class="node">
<title>Node4</title>
<g id="a_node4"><a xlink:href="classmn_1_1net_1_1basic__raw__ip4__socket.html" target="_top" xlink:title="This class provides an interface to a raw IPv4 socket.">
<polygon fill="white" stroke="black" points="323,-196.5 323,-226.5 432,-226.5 432,-196.5 323,-196.5"/>
<text text-anchor="start" x="331" y="-214.5" font-family="Helvetica,sans-Serif" font-size="10.00">mn::net::basic_raw</text>
<text text-anchor="middle" x="377.5" y="-203.5" font-family="Helvetica,sans-Serif" font-size="10.00">_ip4_socket</text>
</a>
</g>
</g>
<!-- Node2&#45;&gt;Node4 -->
<g id="edge3" class="edge">
<title>Node2&#45;&gt;Node4</title>
<path fill="none" stroke="midnightblue" d="M289.06,-189.86C300.32,-192.65 311.98,-195.53 322.98,-198.25"/>
<polygon fill="midnightblue" stroke="midnightblue" points="289.84,-186.45 279.29,-187.44 288.15,-193.24 289.84,-186.45"/>
</g>
<!-- Node5 -->
<g id="node5" class="node">
<title>Node5</title>
<g id="a_node5"><a xlink:href="classmn_1_1net_1_1basic__stream__ip__socket.html" target="_top" xlink:title="This class provides an interface to a tcp IPv4 socket.">
<polygon fill="white" stroke="black" points="315,-147.5 315,-177.5 440,-177.5 440,-147.5 315,-147.5"/>
<text text-anchor="start" x="323" y="-165.5" font-family="Helvetica,sans-Serif" font-size="10.00">mn::net::basic_stream</text>
<text text-anchor="middle" x="377.5" y="-154.5" font-family="Helvetica,sans-Serif" font-size="10.00">_ip_socket</text>
</a>
</g>
</g>
<!-- Node2&#45;&gt;Node5 -->
<g id="edge4" class="edge">
<title>Node2&#45;&gt;Node5</title>
<path fill="none" stroke="midnightblue" d="M289.38,-169.49C297.77,-168.82 306.37,-168.13 314.75,-167.46"/>
<polygon fill="midnightblue" stroke="midnightblue" points="288.98,-166.01 279.29,-170.3 289.54,-172.99 288.98,-166.01"/>
</g>
<!-- Node7 -->
<g id="node7" class="node">
<title>Node7</title>
<g id="a_node7"><a xlink:href="classmn_1_1net_1_1basic__dgram__ip6__socket.html" target="_top" xlink:title="Basic dram socket class.">
<polygon fill="white" stroke="black" points="316.5,-98.5 316.5,-128.5 438.5,-128.5 438.5,-98.5 316.5,-98.5"/>
<text text-anchor="start" x="324.5" y="-116.5" font-family="Helvetica,sans-Serif" font-size="10.00">mn::net::basic_dgram</text>
<text text-anchor="middle" x="377.5" y="-105.5" font-family="Helvetica,sans-Serif" font-size="10.00">_ip6_socket</text>
</a>
</g>
</g>
<!-- Node6&#45;&gt;Node7 -->
<g id="edge6" class="edge">
<title>Node6&#45;&gt;Node7</title>
<path fill="none" stroke="midnightblue" d="M289.26,-106.5C298.21,-107.22 307.4,-107.95 316.31,-108.67"/>
<polygon fill="midnightblue" stroke="midnightblue" points="289.54,-103.01 279.29,-105.7 288.98,-109.99 289.54,-103.01"/>
</g>
<!-- Node8 -->
<g id="node8" class="node">
<title>Node8</title>
<g id="a_node8"><a xlink:href="classmn_1_1net_1_1basic__raw__ip6__socket.html" target="_top" xlink:title="This class provides an interface to a raw IPv6 socket.">
<polygon fill="white" stroke="black" points="323,-49.5 323,-79.5 432,-79.5 432,-49.5 323,-49.5"/>
<text text-anchor="start" x="331" y="-67.5" font-family="Helvetica,sans-Serif" font-size="10.00">mn::net::basic_raw</text>
<text text-anchor="middle" x="377.5" y="-56.5" font-family="Helvetica,sans-Serif" font-size="10.00">_ip6_socket</text>
</a>
</g>
</g>
<!-- Node6&#45;&gt;Node8 -->
<g id="edge7" class="edge">
<title>Node6&#45;&gt;Node8</title>
<path fill="none" stroke="midnightblue" d="M289.06,-86.14C300.32,-83.35 311.98,-80.47 322.98,-77.75"/>
<polygon fill="midnightblue" stroke="midnightblue" points="288.15,-82.76 279.29,-88.56 289.84,-89.55 288.15,-82.76"/>
</g>
<!-- Node9 -->
<g id="node9" class="node">
<title>Node9</title>
<g id="a_node9"><a xlink:href="classmn_1_1net_1_1basic__stream__ip6__socket.html" target="_top" xlink:title="This class provides an interface to a tcp IPv6 socket.">
<polygon fill="white" stroke="black" points="315,-0.5 315,-30.5 440,-30.5 440,-0.5 315,-0.5"/>
<text text-anchor="start" x="323" y="-18.5" font-family="Helvetica,sans-Serif" font-size="10.00">mn::net::basic_stream</text>
<text text-anchor="middle" x="377.5" y="-7.5" font-family="Helvetica,sans-Serif" font-size="10.00">_ip6_socket</text>
</a>
</g>
</g>
<!-- Node6&#45;&gt;Node9 -->
<g id="edge8" class="edge">
<title>Node6&#45;&gt;Node9</title>
<path fill="none" stroke="midnightblue" d="M254.41,-80.16C271.29,-67.62 293.7,-52.03 315,-40.5 321.59,-36.93 328.8,-33.57 335.88,-30.53"/>
<polygon fill="midnightblue" stroke="midnightblue" points="252.01,-77.59 246.13,-86.4 256.22,-83.18 252.01,-77.59"/>
</g>
</g>
</svg>
