<?xml version="1.0" encoding="UTF-8" standalone="no"?>
<!DOCTYPE svg PUBLIC "-//W3C//DTD SVG 1.1//EN"
 "http://www.w3.org/Graphics/SVG/1.1/DTD/svg11.dtd">
<!-- Generated by graphviz version 2.47.3 (0)
 -->
<!-- Title: mn::ext::foreign_task Pages: 1 -->
<svg width="510pt" height="356pt"
 viewBox="0.00 0.00 509.50 356.00" xmlns="http://www.w3.org/2000/svg" xmlns:xlink="http://www.w3.org/1999/xlink">
<g id="graph0" class="graph" transform="scale(1 1) rotate(0) translate(4 352)">
<title>mn::ext::foreign_task</title>
<polygon fill="white" stroke="transparent" points="-4,4 -4,-352 505.5,-352 505.5,4 -4,4"/>
<!-- Node1 -->
<g id="node1" class="node">
<title>Node1</title>
<g id="a_node1"><a xlink:title=" ">
<polygon fill="#bfbfbf" stroke="black" points="182,-0.5 182,-19.5 303,-19.5 303,-0.5 182,-0.5"/>
<text text-anchor="middle" x="242.5" y="-7.5" font-family="Helvetica,sans-Serif" font-size="10.00">mn::ext::foreign_task</text>
</a>
</g>
</g>
<!-- Node2 -->
<g id="node2" class="node">
<title>Node2</title>
<g id="a_node2"><a xlink:href="classmn_1_1basic__task.html" target="_top" xlink:title="Wrapper class around FreeRTOS&#39;s implementation of a task.">
<polygon fill="white" stroke="black" points="197.5,-57.5 197.5,-76.5 287.5,-76.5 287.5,-57.5 197.5,-57.5"/>
<text text-anchor="middle" x="242.5" y="-64.5" font-family="Helvetica,sans-Serif" font-size="10.00">mn::basic_task</text>
</a>
</g>
</g>
<!-- Node2&#45;&gt;Node1 -->
<g id="edge1" class="edge">
<title>Node2&#45;&gt;Node1</title>
<path fill="none" stroke="midnightblue" d="M242.5,-47.12C242.5,-37.82 242.5,-27.06 242.5,-19.71"/>
<polygon fill="midnightblue" stroke="midnightblue" points="239,-47.41 242.5,-57.41 246,-47.41 239,-47.41"/>
</g>
<!-- Node3 -->
<g id="node3" class="node">
<title>Node3</title>
<g id="a_node3"><a xlink:title=" ">
<polygon fill="white" stroke="#bfbfbf" points="0,-328.5 0,-347.5 131,-347.5 131,-328.5 0,-328.5"/>
<text text-anchor="middle" x="65.5" y="-335.5" font-family="Helvetica,sans-Serif" font-size="10.00">MN_ONSIGLETN_CLASS</text>
</a>
</g>
</g>
<!-- Node3&#45;&gt;Node2 -->
<g id="edge2" class="edge">
<title>Node3&#45;&gt;Node2</title>
<path fill="none" stroke="#8b1a1a" d="M59.37,-318.43C56.41,-307.87 53.5,-294.33 53.5,-282 53.5,-282 53.5,-282 53.5,-155 53.5,-91.97 141.32,-74.44 197.23,-69.67"/>
<polygon fill="#8b1a1a" stroke="#8b1a1a" points="56.08,-319.63 62.35,-328.17 62.78,-317.59 56.08,-319.63"/>
</g>
<!-- Node8 -->
<g id="node8" class="node">
<title>Node8</title>
<g id="a_node8"><a xlink:href="classmn_1_1ILockObject.html" target="_top" xlink:title=" ">
<polygon fill="white" stroke="black" points="92,-271.5 92,-290.5 187,-290.5 187,-271.5 92,-271.5"/>
<text text-anchor="middle" x="139.5" y="-278.5" font-family="Helvetica,sans-Serif" font-size="10.00">mn::ILockObject</text>
</a>
</g>
</g>
<!-- Node3&#45;&gt;Node8 -->
<g id="edge8" class="edge">
<title>Node3&#45;&gt;Node8</title>
<path fill="none" stroke="#8b1a1a" d="M85.3,-322.29C98.85,-312.21 116.38,-299.19 127.77,-290.71"/>
<polygon fill="#8b1a1a" stroke="#8b1a1a" points="83,-319.63 77.06,-328.41 87.18,-325.25 83,-319.63"/>
</g>
<!-- Node4 -->
<g id="node4" class="node">
<title>Node4</title>
<g id="a_node4"><a xlink:href="classmn_1_1basic__event__group.html" target="_top" xlink:title="Wrapper class around FreeRTOS&#39;s implementation of a event_group.">
<polygon fill="white" stroke="black" points="259.5,-146.5 259.5,-165.5 389.5,-165.5 389.5,-146.5 259.5,-146.5"/>
<text text-anchor="middle" x="324.5" y="-153.5" font-family="Helvetica,sans-Serif" font-size="10.00">mn::basic_event_group</text>
</a>
</g>
</g>
<!-- Node4&#45;&gt;Node2 -->
<g id="edge3" class="edge">
<title>Node4&#45;&gt;Node2</title>
<path fill="none" stroke="#9a32cd" stroke-dasharray="5,2" d="M317.09,-137.09C311.09,-124.22 301.65,-107.07 289.5,-95 281.89,-87.44 271.74,-81.26 262.82,-76.73"/>
<polygon fill="#9a32cd" stroke="#9a32cd" points="313.92,-138.57 321.15,-146.32 320.33,-135.76 313.92,-138.57"/>
<text text-anchor="middle" x="350.5" y="-109" font-family="Helvetica,sans-Serif" font-size="10.00"> m_eventGroup</text>
</g>
<!-- Node5 -->
<g id="node5" class="node">
<title>Node5</title>
<g id="a_node5"><a xlink:title=" ">
<polygon fill="white" stroke="#bfbfbf" points="239.5,-209 239.5,-228 379.5,-228 379.5,-209 239.5,-209"/>
<text text-anchor="middle" x="309.5" y="-216" font-family="Helvetica,sans-Serif" font-size="10.00">MN_ONCOPYABLE_CLASS</text>
</a>
</g>
</g>
<!-- Node5&#45;&gt;Node4 -->
<g id="edge4" class="edge">
<title>Node5&#45;&gt;Node4</title>
<path fill="none" stroke="#8b1a1a" d="M314.12,-198.85C316.87,-187.78 320.22,-174.27 322.35,-165.65"/>
<polygon fill="#8b1a1a" stroke="#8b1a1a" points="310.66,-198.28 311.65,-208.83 317.45,-199.97 310.66,-198.28"/>
</g>
<!-- Node6 -->
<g id="node6" class="node">
<title>Node6</title>
<g id="a_node6"><a xlink:href="classmn_1_1basic__binary__semaphore.html" target="_top" xlink:title=" ">
<polygon fill="white" stroke="black" points="81.5,-146.5 81.5,-165.5 241.5,-165.5 241.5,-146.5 81.5,-146.5"/>
<text text-anchor="middle" x="161.5" y="-153.5" font-family="Helvetica,sans-Serif" font-size="10.00">mn::basic_binary_semaphore</text>
</a>
</g>
</g>
<!-- Node6&#45;&gt;Node2 -->
<g id="edge5" class="edge">
<title>Node6&#45;&gt;Node2</title>
<path fill="none" stroke="#9a32cd" stroke-dasharray="5,2" d="M170.01,-137.26C176.76,-124.47 187.09,-107.36 199.5,-95 206.87,-87.66 216.58,-81.35 224.91,-76.68"/>
<polygon fill="#9a32cd" stroke="#9a32cd" points="166.77,-135.91 165.4,-146.42 173.02,-139.06 166.77,-135.91"/>
<text text-anchor="middle" x="244.5" y="-120" font-family="Helvetica,sans-Serif" font-size="10.00"> m_contextMutext</text>
<text text-anchor="middle" x="244.5" y="-109" font-family="Helvetica,sans-Serif" font-size="10.00">m_continuemutex</text>
<text text-anchor="middle" x="244.5" y="-98" font-family="Helvetica,sans-Serif" font-size="10.00">m_runningMutex</text>
</g>
<!-- Node7 -->
<g id="node7" class="node">
<title>Node7</title>
<g id="a_node7"><a xlink:href="classmn_1_1basic__semaphore.html" target="_top" xlink:title=" ">
<polygon fill="white" stroke="black" points="94.5,-209 94.5,-228 218.5,-228 218.5,-209 94.5,-209"/>
<text text-anchor="middle" x="156.5" y="-216" font-family="Helvetica,sans-Serif" font-size="10.00">mn::basic_semaphore</text>
</a>
</g>
</g>
<!-- Node7&#45;&gt;Node6 -->
<g id="edge6" class="edge">
<title>Node7&#45;&gt;Node6</title>
<path fill="none" stroke="midnightblue" d="M158.04,-198.85C158.96,-187.78 160.07,-174.27 160.78,-165.65"/>
<polygon fill="midnightblue" stroke="midnightblue" points="154.55,-198.58 157.22,-208.83 161.53,-199.15 154.55,-198.58"/>
</g>
<!-- Node8&#45;&gt;Node7 -->
<g id="edge7" class="edge">
<title>Node8&#45;&gt;Node7</title>
<path fill="none" stroke="midnightblue" d="M144.64,-261.69C147.77,-250.56 151.62,-236.86 154.07,-228.15"/>
<polygon fill="midnightblue" stroke="midnightblue" points="141.27,-260.76 141.94,-271.33 148.01,-262.65 141.27,-260.76"/>
</g>
<!-- Node9 -->
<g id="node9" class="node">
<title>Node9</title>
<g id="a_node9"><a xlink:title=" ">
<polygon fill="white" stroke="#bfbfbf" points="415,-146.5 415,-165.5 480,-165.5 480,-146.5 415,-146.5"/>
<text text-anchor="middle" x="447.5" y="-153.5" font-family="Helvetica,sans-Serif" font-size="10.00">std::string</text>
</a>
</g>
</g>
<!-- Node9&#45;&gt;Node2 -->
<g id="edge9" class="edge">
<title>Node9&#45;&gt;Node2</title>
<path fill="none" stroke="#9a32cd" stroke-dasharray="5,2" d="M436.47,-137.78C426.65,-123.94 411,-105.19 392.5,-95 360.28,-77.25 318.83,-70.82 287.67,-68.64"/>
<polygon fill="#9a32cd" stroke="#9a32cd" points="433.8,-140.08 442.3,-146.41 439.6,-136.16 433.8,-140.08"/>
<text text-anchor="middle" x="459" y="-109" font-family="Helvetica,sans-Serif" font-size="10.00"> m_strName</text>
</g>
<!-- Node10 -->
<g id="node10" class="node">
<title>Node10</title>
<g id="a_node10"><a xlink:title=" ">
<polygon fill="white" stroke="#bfbfbf" points="397.5,-203.5 397.5,-233.5 501.5,-233.5 501.5,-203.5 397.5,-203.5"/>
<text text-anchor="start" x="405.5" y="-221.5" font-family="Helvetica,sans-Serif" font-size="10.00">std::basic_string&lt;</text>
<text text-anchor="middle" x="449.5" y="-210.5" font-family="Helvetica,sans-Serif" font-size="10.00"> Char &gt;</text>
</a>
</g>
</g>
<!-- Node10&#45;&gt;Node9 -->
<g id="edge10" class="edge">
<title>Node10&#45;&gt;Node9</title>
<path fill="none" stroke="midnightblue" d="M448.7,-193.35C448.38,-183.51 448.02,-172.78 447.78,-165.54"/>
<polygon fill="midnightblue" stroke="midnightblue" points="445.21,-193.59 449.04,-203.47 452.2,-193.36 445.21,-193.59"/>
</g>
</g>
</svg>
