<?xml version="1.0" encoding="UTF-8" standalone="no"?>
<!DOCTYPE svg PUBLIC "-//W3C//DTD SVG 1.1//EN"
 "http://www.w3.org/Graphics/SVG/1.1/DTD/svg11.dtd">
<!-- Generated by graphviz version 2.46.0 (0)
 -->
<!-- Title: mn::basic_tasklet Pages: 1 -->
<svg width="132pt" height="220pt"
 viewBox="0.00 0.00 132.00 220.00" xmlns="http://www.w3.org/2000/svg" xmlns:xlink="http://www.w3.org/1999/xlink">
<g id="graph0" class="graph" transform="scale(1 1) rotate(0) translate(4 216)">
<title>mn::basic_tasklet</title>
<polygon fill="white" stroke="transparent" points="-4,4 -4,-216 128,-216 128,4 -4,4"/>
<!-- Node1 -->
<g id="node1" class="node">
<title>Node1</title>
<g id="a_node1"><a xlink:title=" ">
<polygon fill="#bfbfbf" stroke="black" points="10.5,-0.5 10.5,-19.5 113.5,-19.5 113.5,-0.5 10.5,-0.5"/>
<text text-anchor="middle" x="62" y="-7.5" font-family="Helvetica,sans-Serif" font-size="10.00">mn::basic_tasklet</text>
</a>
</g>
</g>
<!-- Node2 -->
<g id="node2" class="node">
<title>Node2</title>
<g id="a_node2"><a xlink:href="classmn_1_1basic__counting__semaphore.html" target="_top" xlink:title=" ">
<polygon fill="white" stroke="black" points="6.5,-67.5 6.5,-97.5 117.5,-97.5 117.5,-67.5 6.5,-67.5"/>
<text text-anchor="start" x="14.5" y="-85.5" font-family="Helvetica,sans-Serif" font-size="10.00">mn::basic_counting</text>
<text text-anchor="middle" x="62" y="-74.5" font-family="Helvetica,sans-Serif" font-size="10.00">_semaphore</text>
</a>
</g>
</g>
<!-- Node2&#45;&gt;Node1 -->
<g id="edge1" class="edge">
<title>Node2&#45;&gt;Node1</title>
<path fill="none" stroke="#9a32cd" stroke-dasharray="5,2" d="M62,-57.09C62,-44.21 62,-29.2 62,-19.89"/>
<polygon fill="#9a32cd" stroke="#9a32cd" points="58.5,-57.23 62,-67.23 65.5,-57.23 58.5,-57.23"/>
<text text-anchor="middle" x="88" y="-41" font-family="Helvetica,sans-Serif" font-size="10.00"> m_ssLock</text>
</g>
<!-- Node3 -->
<g id="node3" class="node">
<title>Node3</title>
<g id="a_node3"><a xlink:href="classmn_1_1basic__semaphore.html" target="_top" xlink:title=" ">
<polygon fill="white" stroke="black" points="0,-135.5 0,-154.5 124,-154.5 124,-135.5 0,-135.5"/>
<text text-anchor="middle" x="62" y="-142.5" font-family="Helvetica,sans-Serif" font-size="10.00">mn::basic_semaphore</text>
</a>
</g>
</g>
<!-- Node3&#45;&gt;Node2 -->
<g id="edge2" class="edge">
<title>Node3&#45;&gt;Node2</title>
<path fill="none" stroke="midnightblue" d="M62,-125.22C62,-116.36 62,-105.96 62,-97.76"/>
<polygon fill="midnightblue" stroke="midnightblue" points="58.5,-125.33 62,-135.33 65.5,-125.33 58.5,-125.33"/>
</g>
<!-- Node4 -->
<g id="node4" class="node">
<title>Node4</title>
<g id="a_node4"><a xlink:href="classmn_1_1_i_lock_object.html" target="_top" xlink:title=" ">
<polygon fill="white" stroke="black" points="14.5,-192.5 14.5,-211.5 109.5,-211.5 109.5,-192.5 14.5,-192.5"/>
<text text-anchor="middle" x="62" y="-199.5" font-family="Helvetica,sans-Serif" font-size="10.00">mn::ILockObject</text>
</a>
</g>
</g>
<!-- Node4&#45;&gt;Node3 -->
<g id="edge3" class="edge">
<title>Node4&#45;&gt;Node3</title>
<path fill="none" stroke="midnightblue" d="M62,-182.12C62,-172.82 62,-162.06 62,-154.71"/>
<polygon fill="midnightblue" stroke="midnightblue" points="58.5,-182.41 62,-192.41 65.5,-182.41 58.5,-182.41"/>
</g>
</g>
</svg>
