<?xml version="1.0" encoding="UTF-8" standalone="no"?>
<!DOCTYPE svg PUBLIC "-//W3C//DTD SVG 1.1//EN"
 "http://www.w3.org/Graphics/SVG/1.1/DTD/svg11.dtd">
<!-- Generated by graphviz version 2.44.1 (0)
 -->
<!-- Title: basic_convar_task Pages: 1 -->
<svg width="364pt" height="301pt"
 viewBox="0.00 0.00 364.00 301.00" xmlns="http://www.w3.org/2000/svg" xmlns:xlink="http://www.w3.org/1999/xlink">
<g id="graph0" class="graph" transform="scale(1 1) rotate(0) translate(4 297)">
<title>basic_convar_task</title>
<polygon fill="white" stroke="transparent" points="-4,4 -4,-297 360,-297 360,4 -4,4"/>
<!-- Node1 -->
<g id="node1" class="node">
<title>Node1</title>
<g id="a_node1"><a xlink:title=" ">
<polygon fill="#bfbfbf" stroke="black" points="20.5,-0.5 20.5,-19.5 127.5,-19.5 127.5,-0.5 20.5,-0.5"/>
<text text-anchor="middle" x="74" y="-7.5" font-family="Helvetica,sans-Serif" font-size="10.00">basic_convar_task</text>
</a>
</g>
</g>
<!-- Node2 -->
<g id="node2" class="node">
<title>Node2</title>
<g id="a_node2"><a xlink:href="classbasic__task.html" target="_top" xlink:title=" ">
<polygon fill="white" stroke="black" points="157,-58.5 157,-77.5 225,-77.5 225,-58.5 157,-58.5"/>
<text text-anchor="middle" x="191" y="-65.5" font-family="Helvetica,sans-Serif" font-size="10.00">basic_task</text>
</a>
</g>
</g>
<!-- Node2&#45;&gt;Node1 -->
<g id="edge1" class="edge">
<title>Node2&#45;&gt;Node1</title>
<path fill="none" stroke="midnightblue" d="M164.03,-54.09C141.89,-43.5 111.16,-28.79 91.94,-19.59"/>
<polygon fill="midnightblue" stroke="midnightblue" points="162.7,-57.33 173.23,-58.49 165.72,-51.02 162.7,-57.33"/>
</g>
<!-- Node2&#45;&gt;Node2 -->
<g id="edge8" class="edge">
<title>Node2&#45;&gt;Node2</title>
<path fill="none" stroke="#9a32cd" stroke-dasharray="5,2" d="M235.15,-72.39C239.92,-71.55 243,-70.08 243,-68 243,-64.66 235.13,-62.92 225.01,-62.76"/>
<polygon fill="#9a32cd" stroke="#9a32cd" points="234.68,-68.92 225.01,-73.24 235.27,-75.89 234.68,-68.92"/>
<text text-anchor="middle" x="269" y="-71" font-family="Helvetica,sans-Serif" font-size="10.00"> m_pChild</text>
<text text-anchor="middle" x="269" y="-60" font-family="Helvetica,sans-Serif" font-size="10.00">m_pParent</text>
</g>
<!-- Node3 -->
<g id="node3" class="node">
<title>Node3</title>
<g id="a_node3"><a xlink:href="classbasic__event__group.html" target="_top" xlink:title=" ">
<polygon fill="white" stroke="black" points="248,-148.5 248,-167.5 356,-167.5 356,-148.5 248,-148.5"/>
<text text-anchor="middle" x="302" y="-155.5" font-family="Helvetica,sans-Serif" font-size="10.00">basic_event_group</text>
</a>
</g>
</g>
<!-- Node3&#45;&gt;Node2 -->
<g id="edge2" class="edge">
<title>Node3&#45;&gt;Node2</title>
<path fill="none" stroke="#9a32cd" stroke-dasharray="5,2" d="M293.61,-139.41C286.53,-126.18 275.27,-108.45 261,-97 250.07,-88.24 236.05,-81.91 223.43,-77.51"/>
<polygon fill="#9a32cd" stroke="#9a32cd" points="290.56,-141.12 298.19,-148.46 296.8,-137.96 290.56,-141.12"/>
<text text-anchor="middle" x="311" y="-111" font-family="Helvetica,sans-Serif" font-size="10.00"> m_event</text>
</g>
<!-- Node4 -->
<g id="node4" class="node">
<title>Node4</title>
<g id="a_node4"><a xlink:href="classbasic__binary__semaphore.html" target="_top" xlink:title=" ">
<polygon fill="white" stroke="black" points="0,-148.5 0,-167.5 138,-167.5 138,-148.5 0,-148.5"/>
<text text-anchor="middle" x="69" y="-155.5" font-family="Helvetica,sans-Serif" font-size="10.00">basic_binary_semaphore</text>
</a>
</g>
</g>
<!-- Node4&#45;&gt;Node1 -->
<g id="edge9" class="edge">
<title>Node4&#45;&gt;Node1</title>
<path fill="none" stroke="#9a32cd" stroke-dasharray="5,2" d="M69.65,-138.12C70.74,-106.27 72.9,-43.07 73.7,-19.83"/>
<polygon fill="#9a32cd" stroke="#9a32cd" points="66.14,-138.19 69.3,-148.3 73.14,-138.43 66.14,-138.19"/>
<text text-anchor="middle" x="103.5" y="-65.5" font-family="Helvetica,sans-Serif" font-size="10.00"> m_waitSem</text>
</g>
<!-- Node4&#45;&gt;Node2 -->
<g id="edge3" class="edge">
<title>Node4&#45;&gt;Node2</title>
<path fill="none" stroke="#9a32cd" stroke-dasharray="5,2" d="M73.88,-138.7C78.34,-125.36 86.22,-107.79 99,-97 115.2,-83.32 137.97,-76.32 156.8,-72.74"/>
<polygon fill="#9a32cd" stroke="#9a32cd" points="70.53,-137.7 71.01,-148.29 77.23,-139.71 70.53,-137.7"/>
<text text-anchor="middle" x="144" y="-122" font-family="Helvetica,sans-Serif" font-size="10.00"> m_contextMutext</text>
<text text-anchor="middle" x="144" y="-111" font-family="Helvetica,sans-Serif" font-size="10.00">m_continuemutex</text>
<text text-anchor="middle" x="144" y="-100" font-family="Helvetica,sans-Serif" font-size="10.00">m_runningMutex</text>
</g>
<!-- Node5 -->
<g id="node5" class="node">
<title>Node5</title>
<g id="a_node5"><a xlink:href="classbasic__semaphore.html" target="_top" xlink:title=" ">
<polygon fill="white" stroke="black" points="18,-211 18,-230 120,-230 120,-211 18,-211"/>
<text text-anchor="middle" x="69" y="-218" font-family="Helvetica,sans-Serif" font-size="10.00">basic_semaphore</text>
</a>
</g>
</g>
<!-- Node5&#45;&gt;Node4 -->
<g id="edge4" class="edge">
<title>Node5&#45;&gt;Node4</title>
<path fill="none" stroke="midnightblue" d="M69,-200.5C69,-189.5 69,-176.18 69,-167.65"/>
<polygon fill="midnightblue" stroke="midnightblue" points="65.5,-200.83 69,-210.83 72.5,-200.83 65.5,-200.83"/>
</g>
<!-- Node6 -->
<g id="node6" class="node">
<title>Node6</title>
<g id="a_node6"><a xlink:href="class_i_lock_object.html" target="_top" xlink:title=" ">
<polygon fill="white" stroke="black" points="32,-273.5 32,-292.5 106,-292.5 106,-273.5 32,-273.5"/>
<text text-anchor="middle" x="69" y="-280.5" font-family="Helvetica,sans-Serif" font-size="10.00">ILockObject</text>
</a>
</g>
</g>
<!-- Node6&#45;&gt;Node5 -->
<g id="edge5" class="edge">
<title>Node6&#45;&gt;Node5</title>
<path fill="none" stroke="midnightblue" d="M69,-263C69,-252 69,-238.68 69,-230.15"/>
<polygon fill="midnightblue" stroke="midnightblue" points="65.5,-263.33 69,-273.33 72.5,-263.33 65.5,-263.33"/>
</g>
<!-- Node7 -->
<g id="node7" class="node">
<title>Node7</title>
<g id="a_node7"><a xlink:title="STL class.">
<polygon fill="white" stroke="#bfbfbf" points="164.5,-148.5 164.5,-167.5 229.5,-167.5 229.5,-148.5 164.5,-148.5"/>
<text text-anchor="middle" x="197" y="-155.5" font-family="Helvetica,sans-Serif" font-size="10.00">std::string</text>
</a>
</g>
</g>
<!-- Node7&#45;&gt;Node2 -->
<g id="edge6" class="edge">
<title>Node7&#45;&gt;Node2</title>
<path fill="none" stroke="#9a32cd" stroke-dasharray="5,2" d="M195.72,-138.24C194.45,-119.57 192.55,-91.74 191.59,-77.72"/>
<polygon fill="#9a32cd" stroke="#9a32cd" points="192.23,-138.5 196.4,-148.24 199.21,-138.03 192.23,-138.5"/>
<text text-anchor="middle" x="226.5" y="-111" font-family="Helvetica,sans-Serif" font-size="10.00"> m_strName</text>
</g>
<!-- Node8 -->
<g id="node8" class="node">
<title>Node8</title>
<g id="a_node8"><a xlink:title="STL class.">
<polygon fill="white" stroke="#bfbfbf" points="145,-205.5 145,-235.5 249,-235.5 249,-205.5 145,-205.5"/>
<text text-anchor="start" x="153" y="-223.5" font-family="Helvetica,sans-Serif" font-size="10.00">std::basic_string&lt;</text>
<text text-anchor="middle" x="197" y="-212.5" font-family="Helvetica,sans-Serif" font-size="10.00"> char &gt;</text>
</a>
</g>
</g>
<!-- Node8&#45;&gt;Node7 -->
<g id="edge7" class="edge">
<title>Node8&#45;&gt;Node7</title>
<path fill="none" stroke="midnightblue" d="M197,-195.35C197,-185.51 197,-174.78 197,-167.54"/>
<polygon fill="midnightblue" stroke="midnightblue" points="193.5,-195.47 197,-205.47 200.5,-195.47 193.5,-195.47"/>
</g>
</g>
</svg>
