<?xml version="1.0" encoding="UTF-8" standalone="no"?>
<!DOCTYPE svg PUBLIC "-//W3C//DTD SVG 1.1//EN"
 "http://www.w3.org/Graphics/SVG/1.1/DTD/svg11.dtd">
<!-- Generated by graphviz version 2.44.1 (0)
 -->
<!-- Title: basic_tasklet Pages: 1 -->
<svg width="157pt" height="209pt"
 viewBox="0.00 0.00 157.00 209.00" xmlns="http://www.w3.org/2000/svg" xmlns:xlink="http://www.w3.org/1999/xlink">
<g id="graph0" class="graph" transform="scale(1 1) rotate(0) translate(4 205)">
<title>basic_tasklet</title>
<polygon fill="white" stroke="transparent" points="-4,4 -4,-205 153,-205 153,4 -4,4"/>
<!-- Node1 -->
<g id="node1" class="node">
<title>Node1</title>
<g id="a_node1"><a xlink:title=" ">
<polygon fill="#bfbfbf" stroke="black" points="34,-0.5 34,-19.5 115,-19.5 115,-0.5 34,-0.5"/>
<text text-anchor="middle" x="74.5" y="-7.5" font-family="Helvetica,sans-Serif" font-size="10.00">basic_tasklet</text>
</a>
</g>
</g>
<!-- Node2 -->
<g id="node2" class="node">
<title>Node2</title>
<g id="a_node2"><a xlink:href="classbasic__counting__semaphore.html" target="_top" xlink:title=" ">
<polygon fill="white" stroke="black" points="0,-67.5 0,-86.5 149,-86.5 149,-67.5 0,-67.5"/>
<text text-anchor="middle" x="74.5" y="-74.5" font-family="Helvetica,sans-Serif" font-size="10.00">basic_counting_semaphore</text>
</a>
</g>
</g>
<!-- Node2&#45;&gt;Node1 -->
<g id="edge1" class="edge">
<title>Node2&#45;&gt;Node1</title>
<path fill="none" stroke="#9a32cd" stroke-dasharray="5,2" d="M74.5,-57.04C74.5,-44.67 74.5,-29.12 74.5,-19.63"/>
<polygon fill="#9a32cd" stroke="#9a32cd" points="71,-57.23 74.5,-67.23 78,-57.23 71,-57.23"/>
<text text-anchor="middle" x="100.5" y="-41" font-family="Helvetica,sans-Serif" font-size="10.00"> m_ssLock</text>
</g>
<!-- Node3 -->
<g id="node3" class="node">
<title>Node3</title>
<g id="a_node3"><a xlink:href="classbasic__semaphore.html" target="_top" xlink:title=" ">
<polygon fill="white" stroke="black" points="23.5,-124.5 23.5,-143.5 125.5,-143.5 125.5,-124.5 23.5,-124.5"/>
<text text-anchor="middle" x="74.5" y="-131.5" font-family="Helvetica,sans-Serif" font-size="10.00">basic_semaphore</text>
</a>
</g>
</g>
<!-- Node3&#45;&gt;Node2 -->
<g id="edge2" class="edge">
<title>Node3&#45;&gt;Node2</title>
<path fill="none" stroke="midnightblue" d="M74.5,-114.12C74.5,-104.82 74.5,-94.06 74.5,-86.71"/>
<polygon fill="midnightblue" stroke="midnightblue" points="71,-114.41 74.5,-124.41 78,-114.41 71,-114.41"/>
</g>
<!-- Node4 -->
<g id="node4" class="node">
<title>Node4</title>
<g id="a_node4"><a xlink:href="class_i_lock_object.html" target="_top" xlink:title=" ">
<polygon fill="white" stroke="black" points="37.5,-181.5 37.5,-200.5 111.5,-200.5 111.5,-181.5 37.5,-181.5"/>
<text text-anchor="middle" x="74.5" y="-188.5" font-family="Helvetica,sans-Serif" font-size="10.00">ILockObject</text>
</a>
</g>
</g>
<!-- Node4&#45;&gt;Node3 -->
<g id="edge3" class="edge">
<title>Node4&#45;&gt;Node3</title>
<path fill="none" stroke="midnightblue" d="M74.5,-171.12C74.5,-161.82 74.5,-151.06 74.5,-143.71"/>
<polygon fill="midnightblue" stroke="midnightblue" points="71,-171.41 74.5,-181.41 78,-171.41 71,-171.41"/>
</g>
</g>
</svg>
