<?xml version="1.0" encoding="UTF-8" standalone="no"?>
<!DOCTYPE svg PUBLIC "-//W3C//DTD SVG 1.1//EN"
 "http://www.w3.org/Graphics/SVG/1.1/DTD/svg11.dtd">
<!-- Generated by graphviz version 2.44.1 (0)
 -->
<!-- Title: work_queue_task Pages: 1 -->
<!--zoomable 311 -->
<svg id="main" version="1.1" xmlns="http://www.w3.org/2000/svg" xmlns:xlink="http://www.w3.org/1999/xlink" xml:space="preserve" onload="init(evt)">
<style type="text/css"><![CDATA[
.edge:hover path { stroke: red; }
.edge:hover polygon { stroke: red; fill: red; }
]]></style>
<script type="text/javascript"><![CDATA[
var edges = document.getElementsByTagName('g');
if (edges && edges.length) {
  for (var i=0;i<edges.length;i++) {
    if (edges[i].id.substr(0,4)=='edge') {
      edges[i].setAttribute('class','edge');
    }
  }
}
]]></script>
        <defs>
                <circle id="rim" cx="0" cy="0" r="7"/>
                <circle id="rim2" cx="0" cy="0" r="3.5"/>
                <g id="zoomPlus">
                        <use xlink:href="#rim" fill="#404040">
                                <set attributeName="fill" to="#808080" begin="zoomplus.mouseover" end="zoomplus.mouseout"/>
                        </use>
                        <path d="M-4,0h8M0,-4v8" fill="none" stroke="white" stroke-width="1.5" pointer-events="none"/>
                </g>
                <g id="zoomMin">
                        <use xlink:href="#rim" fill="#404040">
                                <set attributeName="fill" to="#808080" begin="zoomminus.mouseover" end="zoomminus.mouseout"/>
                        </use>
                        <path d="M-4,0h8" fill="none" stroke="white" stroke-width="1.5" pointer-events="none"/>
                </g>
                <g id="dirArrow">
                        <path fill="none" stroke="white" stroke-width="1.5" d="M0,-3.0v7 M-2.5,-0.5L0,-3.0L2.5,-0.5"/>
                </g>
               <g id="resetDef">
                       <use xlink:href="#rim2" fill="#404040">
                               <set attributeName="fill" to="#808080" begin="reset.mouseover" end="reset.mouseout"/>
                       </use>
               </g>
        </defs>

<script type="text/javascript">
var viewWidth = 583;
var viewHeight = 311;
var sectionId = 'dynsection-1';
</script>
<script xlink:href="svgpan.js"/>
<svg id="graph" class="graph">
<g id="viewport">
<title>work_queue_task</title>
<polygon fill="white" stroke="transparent" points="-4,4 -4,-307 578.5,-307 578.5,4 -4,4"/>
<!-- Node1 -->
<g id="node1" class="node">
<title>Node1</title>
<g id="a_node1"><a xlink:title=" ">
<polygon fill="#bfbfbf" stroke="black" points="235.5,-0.5 235.5,-19.5 337.5,-19.5 337.5,-0.5 235.5,-0.5"/>
<text text-anchor="middle" x="286.5" y="-7.5" font-family="Helvetica,sans-Serif" font-size="10.00">work_queue_task</text>
</a>
</g>
</g>
<!-- Node2 -->
<g id="node2" class="node">
<title>Node2</title>
<g id="a_node2"><a xlink:href="classbasic__task.html" target="_top" xlink:title=" ">
<polygon fill="white" stroke="black" points="324.5,-68.5 324.5,-87.5 392.5,-87.5 392.5,-68.5 324.5,-68.5"/>
<text text-anchor="middle" x="358.5" y="-75.5" font-family="Helvetica,sans-Serif" font-size="10.00">basic_task</text>
</a>
</g>
</g>
<!-- Node2&#45;&gt;Node1 -->
<g id="edge1" class="edge">
<title>Node2&#45;&gt;Node1</title>
<path fill="none" stroke="midnightblue" d="M350.9,-58.77C347.3,-51.67 342.46,-43.85 336.5,-38 328.62,-30.26 318.06,-24.12 308.68,-19.67"/>
<polygon fill="midnightblue" stroke="midnightblue" points="347.94,-60.7 355.28,-68.34 354.3,-57.79 347.94,-60.7"/>
</g>
<!-- Node2&#45;&gt;Node2 -->
<g id="edge8" class="edge">
<title>Node2&#45;&gt;Node2</title>
<path fill="none" stroke="#9a32cd" stroke-dasharray="5,2" d="M402.65,-83.33C407.42,-82.31 410.5,-80.53 410.5,-78 410.5,-73.95 402.63,-71.83 392.51,-71.64"/>
<polygon fill="#9a32cd" stroke="#9a32cd" points="402.1,-79.87 392.51,-84.36 402.81,-86.83 402.1,-79.87"/>
<text text-anchor="middle" x="436.5" y="-81" font-family="Helvetica,sans-Serif" font-size="10.00"> m_pChild</text>
<text text-anchor="middle" x="436.5" y="-70" font-family="Helvetica,sans-Serif" font-size="10.00">m_pParent</text>
</g>
<!-- Node3 -->
<g id="node3" class="node">
<title>Node3</title>
<g id="a_node3"><a xlink:href="classbasic__event__group.html" target="_top" xlink:title=" ">
<polygon fill="white" stroke="black" points="363.5,-158.5 363.5,-177.5 471.5,-177.5 471.5,-158.5 363.5,-158.5"/>
<text text-anchor="middle" x="417.5" y="-165.5" font-family="Helvetica,sans-Serif" font-size="10.00">basic_event_group</text>
</a>
</g>
</g>
<!-- Node3&#45;&gt;Node2 -->
<g id="edge2" class="edge">
<title>Node3&#45;&gt;Node2</title>
<path fill="none" stroke="#9a32cd" stroke-dasharray="5,2" d="M412.76,-148.34C408.95,-135.82 402.7,-119.4 393.5,-107 387.84,-99.38 379.63,-92.66 372.58,-87.72"/>
<polygon fill="#9a32cd" stroke="#9a32cd" points="409.43,-149.46 415.49,-158.15 416.18,-147.58 409.43,-149.46"/>
<text text-anchor="middle" x="433.5" y="-121" font-family="Helvetica,sans-Serif" font-size="10.00"> m_event</text>
</g>
<!-- Node4 -->
<g id="node4" class="node">
<title>Node4</title>
<g id="a_node4"><a xlink:href="classbasic__binary__semaphore.html" target="_top" xlink:title=" ">
<polygon fill="white" stroke="black" points="207.5,-158.5 207.5,-177.5 345.5,-177.5 345.5,-158.5 207.5,-158.5"/>
<text text-anchor="middle" x="276.5" y="-165.5" font-family="Helvetica,sans-Serif" font-size="10.00">basic_binary_semaphore</text>
</a>
</g>
</g>
<!-- Node4&#45;&gt;Node2 -->
<g id="edge3" class="edge">
<title>Node4&#45;&gt;Node2</title>
<path fill="none" stroke="#9a32cd" stroke-dasharray="5,2" d="M279.91,-148.05C283.07,-135.14 288.95,-118.4 299.5,-107 307.59,-98.26 318.97,-91.98 329.58,-87.61"/>
<polygon fill="#9a32cd" stroke="#9a32cd" points="276.41,-147.66 277.77,-158.17 283.26,-149.11 276.41,-147.66"/>
<text text-anchor="middle" x="344.5" y="-132" font-family="Helvetica,sans-Serif" font-size="10.00"> m_contextMutext</text>
<text text-anchor="middle" x="344.5" y="-121" font-family="Helvetica,sans-Serif" font-size="10.00">m_continuemutex</text>
<text text-anchor="middle" x="344.5" y="-110" font-family="Helvetica,sans-Serif" font-size="10.00">m_runningMutex</text>
</g>
<!-- Node5 -->
<g id="node5" class="node">
<title>Node5</title>
<g id="a_node5"><a xlink:href="classbasic__semaphore.html" target="_top" xlink:title=" ">
<polygon fill="white" stroke="black" points="149.5,-221 149.5,-240 251.5,-240 251.5,-221 149.5,-221"/>
<text text-anchor="middle" x="200.5" y="-228" font-family="Helvetica,sans-Serif" font-size="10.00">basic_semaphore</text>
</a>
</g>
</g>
<!-- Node5&#45;&gt;Node4 -->
<g id="edge4" class="edge">
<title>Node5&#45;&gt;Node4</title>
<path fill="none" stroke="midnightblue" d="M219.28,-214.55C233.86,-202.94 253.56,-187.26 265.63,-177.65"/>
<polygon fill="midnightblue" stroke="midnightblue" points="217.03,-211.87 211.39,-220.83 221.39,-217.34 217.03,-211.87"/>
</g>
<!-- Node10 -->
<g id="node10" class="node">
<title>Node10</title>
<g id="a_node10"><a xlink:href="classbasic__mutex.html" target="_top" xlink:title=" ">
<polygon fill="white" stroke="black" points="110,-158.5 110,-177.5 189,-177.5 189,-158.5 110,-158.5"/>
<text text-anchor="middle" x="149.5" y="-165.5" font-family="Helvetica,sans-Serif" font-size="10.00">basic_mutex</text>
</a>
</g>
</g>
<!-- Node5&#45;&gt;Node10 -->
<g id="edge11" class="edge">
<title>Node5&#45;&gt;Node10</title>
<path fill="none" stroke="midnightblue" d="M186.5,-212.89C176.89,-201.49 164.51,-186.81 156.79,-177.65"/>
<polygon fill="midnightblue" stroke="midnightblue" points="184.07,-215.44 193.19,-220.83 189.42,-210.93 184.07,-215.44"/>
</g>
<!-- Node6 -->
<g id="node6" class="node">
<title>Node6</title>
<g id="a_node6"><a xlink:href="class_i_lock_object.html" target="_top" xlink:title=" ">
<polygon fill="white" stroke="black" points="163.5,-283.5 163.5,-302.5 237.5,-302.5 237.5,-283.5 163.5,-283.5"/>
<text text-anchor="middle" x="200.5" y="-290.5" font-family="Helvetica,sans-Serif" font-size="10.00">ILockObject</text>
</a>
</g>
</g>
<!-- Node6&#45;&gt;Node5 -->
<g id="edge5" class="edge">
<title>Node6&#45;&gt;Node5</title>
<path fill="none" stroke="midnightblue" d="M200.5,-273C200.5,-262 200.5,-248.68 200.5,-240.15"/>
<polygon fill="midnightblue" stroke="midnightblue" points="197,-273.33 200.5,-283.33 204,-273.33 197,-273.33"/>
</g>
<!-- Node7 -->
<g id="node7" class="node">
<title>Node7</title>
<g id="a_node7"><a xlink:title="STL class.">
<polygon fill="white" stroke="#bfbfbf" points="490,-158.5 490,-177.5 555,-177.5 555,-158.5 490,-158.5"/>
<text text-anchor="middle" x="522.5" y="-165.5" font-family="Helvetica,sans-Serif" font-size="10.00">std::string</text>
</a>
</g>
</g>
<!-- Node7&#45;&gt;Node2 -->
<g id="edge6" class="edge">
<title>Node7&#45;&gt;Node2</title>
<path fill="none" stroke="#9a32cd" stroke-dasharray="5,2" d="M509.29,-150.19C497.78,-136.64 479.92,-118.08 460.5,-107 439.61,-95.08 413.39,-88.03 392.76,-83.98"/>
<polygon fill="#9a32cd" stroke="#9a32cd" points="506.84,-152.73 515.89,-158.24 512.26,-148.29 506.84,-152.73"/>
<text text-anchor="middle" x="531" y="-121" font-family="Helvetica,sans-Serif" font-size="10.00"> m_strName</text>
</g>
<!-- Node8 -->
<g id="node8" class="node">
<title>Node8</title>
<g id="a_node8"><a xlink:title="STL class.">
<polygon fill="white" stroke="#bfbfbf" points="470.5,-215.5 470.5,-245.5 574.5,-245.5 574.5,-215.5 470.5,-215.5"/>
<text text-anchor="start" x="478.5" y="-233.5" font-family="Helvetica,sans-Serif" font-size="10.00">std::basic_string&lt;</text>
<text text-anchor="middle" x="522.5" y="-222.5" font-family="Helvetica,sans-Serif" font-size="10.00"> char &gt;</text>
</a>
</g>
</g>
<!-- Node8&#45;&gt;Node7 -->
<g id="edge7" class="edge">
<title>Node8&#45;&gt;Node7</title>
<path fill="none" stroke="midnightblue" d="M522.5,-205.35C522.5,-195.51 522.5,-184.78 522.5,-177.54"/>
<polygon fill="midnightblue" stroke="midnightblue" points="519,-205.47 522.5,-215.47 526,-205.47 519,-205.47"/>
</g>
<!-- Node9 -->
<g id="node9" class="node">
<title>Node9</title>
<g id="a_node9"><a xlink:href="classbasic__work__queue.html" target="_top" xlink:title=" ">
<polygon fill="white" stroke="black" points="111,-68.5 111,-87.5 218,-87.5 218,-68.5 111,-68.5"/>
<text text-anchor="middle" x="164.5" y="-75.5" font-family="Helvetica,sans-Serif" font-size="10.00">basic_work_queue</text>
</a>
</g>
</g>
<!-- Node9&#45;&gt;Node1 -->
<g id="edge9" class="edge">
<title>Node9&#45;&gt;Node1</title>
<path fill="none" stroke="#9a32cd" stroke-dasharray="5,2" d="M185.68,-62.65C197.46,-54.94 212.53,-45.49 226.5,-38 239.18,-31.2 253.92,-24.55 265.61,-19.55"/>
<polygon fill="#9a32cd" stroke="#9a32cd" points="183.41,-59.96 177.02,-68.4 187.28,-65.79 183.41,-59.96"/>
<text text-anchor="middle" x="279.5" y="-41" font-family="Helvetica,sans-Serif" font-size="10.00"> m_parentWorkQueue</text>
</g>
<!-- Node10&#45;&gt;Node9 -->
<g id="edge10" class="edge">
<title>Node10&#45;&gt;Node9</title>
<path fill="none" stroke="#9a32cd" stroke-dasharray="5,2" d="M152.7,-148.24C155.88,-129.57 160.62,-101.74 163.01,-87.72"/>
<polygon fill="#9a32cd" stroke="#9a32cd" points="149.22,-147.79 150.99,-158.24 156.12,-148.97 149.22,-147.79"/>
<text text-anchor="middle" x="200.5" y="-126.5" font-family="Helvetica,sans-Serif" font-size="10.00"> m_ThreadJob</text>
<text text-anchor="middle" x="200.5" y="-115.5" font-family="Helvetica,sans-Serif" font-size="10.00">m_ThreadStatus</text>
</g>
<!-- Node11 -->
<g id="node11" class="node">
<title>Node11</title>
<g id="a_node11"><a xlink:href="classbasic__queue.html" target="_top" xlink:title=" ">
<polygon fill="white" stroke="black" points="0,-158.5 0,-177.5 77,-177.5 77,-158.5 0,-158.5"/>
<text text-anchor="middle" x="38.5" y="-165.5" font-family="Helvetica,sans-Serif" font-size="10.00">basic_queue</text>
</a>
</g>
</g>
<!-- Node11&#45;&gt;Node9 -->
<g id="edge12" class="edge">
<title>Node11&#45;&gt;Node9</title>
<path fill="none" stroke="#9a32cd" stroke-dasharray="5,2" d="M36.24,-148.11C35.75,-134.98 37.48,-117.93 47.5,-107 56.33,-97.38 84.43,-90.48 110.88,-85.94"/>
<polygon fill="#9a32cd" stroke="#9a32cd" points="32.77,-148.72 37.07,-158.4 39.75,-148.15 32.77,-148.72"/>
<text text-anchor="middle" x="99" y="-121" font-family="Helvetica,sans-Serif" font-size="10.00"> m_pWorkItemQueue</text>
</g>
</g>
</svg>
        <g id="navigator" transform="translate(0 0)" fill="#404254">
                <rect fill="#f2f5e9" fill-opacity="0.5" stroke="#606060" stroke-width=".5" x="0" y="0" width="60" height="60"/>
                <use id="zoomplus" xlink:href="#zoomPlus" x="17" y="9" onmousedown="handleZoom(evt,'in')"/>
                <use id="zoomminus" xlink:href="#zoomMin" x="42" y="9" onmousedown="handleZoom(evt,'out')"/>
                <use id="reset" xlink:href="#resetDef" x="30" y="36" onmousedown="handleReset()"/>
                <g id="arrowUp" xlink:href="#dirArrow" transform="translate(30 24)" onmousedown="handlePan(0,-1)">
                  <use xlink:href="#rim" fill="#404040">
                        <set attributeName="fill" to="#808080" begin="arrowUp.mouseover" end="arrowUp.mouseout"/>
                  </use>
                  <path fill="none" stroke="white" stroke-width="1.5" d="M0,-3.0v7 M-2.5,-0.5L0,-3.0L2.5,-0.5"/>
                </g>
                <g id="arrowRight" xlink:href="#dirArrow" transform="rotate(90) translate(36 -43)" onmousedown="handlePan(1,0)">
                  <use xlink:href="#rim" fill="#404040">
                        <set attributeName="fill" to="#808080" begin="arrowRight.mouseover" end="arrowRight.mouseout"/>
                  </use>
                  <path fill="none" stroke="white" stroke-width="1.5" d="M0,-3.0v7 M-2.5,-0.5L0,-3.0L2.5,-0.5"/>
                </g>
                <g id="arrowDown" xlink:href="#dirArrow" transform="rotate(180) translate(-30 -48)" onmousedown="handlePan(0,1)">
                  <use xlink:href="#rim" fill="#404040">
                        <set attributeName="fill" to="#808080" begin="arrowDown.mouseover" end="arrowDown.mouseout"/>
                  </use>
                  <path fill="none" stroke="white" stroke-width="1.5" d="M0,-3.0v7 M-2.5,-0.5L0,-3.0L2.5,-0.5"/>
                </g>
                <g id="arrowLeft" xlink:href="#dirArrow" transform="rotate(270) translate(-36 17)" onmousedown="handlePan(-1,0)">
                  <use xlink:href="#rim" fill="#404040">
                        <set attributeName="fill" to="#808080" begin="arrowLeft.mouseover" end="arrowLeft.mouseout"/>
                  </use>
                  <path fill="none" stroke="white" stroke-width="1.5" d="M0,-3.0v7 M-2.5,-0.5L0,-3.0L2.5,-0.5"/>
                </g>
        </g>
        <svg viewBox="0 0 15 15" width="100%" height="30px" preserveAspectRatio="xMaxYMin meet">
         <g id="arrow_out" transform="scale(0.3 0.3)">
          <a xlink:href="classwork__queue__task__coll__graph_org.svg" target="_base">
           <rect id="button" ry="5" rx="5" y="6" x="6" height="38" width="38"
                fill="#f2f5e9" fill-opacity="0.5" stroke="#606060" stroke-width="1.0"/>
           <path id="arrow"
             d="M 11.500037,31.436501 C 11.940474,20.09759 22.043105,11.32322 32.158766,21.979434 L 37.068811,17.246167 C 37.068811,17.246167 37.088388,32 37.088388,32 L 22.160133,31.978069 C 22.160133,31.978069 26.997745,27.140456 26.997745,27.140456 C 18.528582,18.264221 13.291696,25.230495 11.500037,31.436501 z"
             style="fill:#404040;"/>
          </a>
         </g>
        </svg>
</svg>
