<?xml version="1.0" encoding="UTF-8" standalone="no"?>
<!DOCTYPE svg PUBLIC "-//W3C//DTD SVG 1.1//EN"
 "http://www.w3.org/Graphics/SVG/1.1/DTD/svg11.dtd">
<!-- Generated by graphviz version 2.46.0 (0)
 -->
<!-- Title: mn::queue::basic_work_queue_multi Pages: 1 -->
<svg width="565pt" height="476pt"
 viewBox="0.00 0.00 565.00 476.00" xmlns="http://www.w3.org/2000/svg" xmlns:xlink="http://www.w3.org/1999/xlink">
<g id="graph0" class="graph" transform="scale(1 1) rotate(0) translate(4 472)">
<title>mn::queue::basic_work_queue_multi</title>
<polygon fill="white" stroke="transparent" points="-4,4 -4,-472 561,-472 561,4 -4,4"/>
<!-- Node1 -->
<g id="node1" class="node">
<title>Node1</title>
<g id="a_node1"><a xlink:title=" ">
<polygon fill="#bfbfbf" stroke="black" points="239.5,-0.5 239.5,-30.5 368.5,-30.5 368.5,-0.5 239.5,-0.5"/>
<text text-anchor="start" x="247.5" y="-18.5" font-family="Helvetica,sans-Serif" font-size="10.00">mn::queue::basic_work</text>
<text text-anchor="middle" x="304" y="-7.5" font-family="Helvetica,sans-Serif" font-size="10.00">_queue_multi</text>
</a>
</g>
</g>
<!-- Node2 -->
<g id="node2" class="node">
<title>Node2</title>
<g id="a_node2"><a xlink:href="classmn_1_1queue_1_1basic__work__queue.html" target="_top" xlink:title=" ">
<polygon fill="white" stroke="black" points="286.5,-223.5 286.5,-253.5 415.5,-253.5 415.5,-223.5 286.5,-223.5"/>
<text text-anchor="start" x="294.5" y="-241.5" font-family="Helvetica,sans-Serif" font-size="10.00">mn::queue::basic_work</text>
<text text-anchor="middle" x="351" y="-230.5" font-family="Helvetica,sans-Serif" font-size="10.00">_queue</text>
</a>
</g>
</g>
<!-- Node2&#45;&gt;Node1 -->
<g id="edge1" class="edge">
<title>Node2&#45;&gt;Node1</title>
<path fill="none" stroke="midnightblue" d="M354.45,-213.04C358.58,-175.73 362.11,-103.24 337,-49 333.76,-41.99 328.31,-35.67 322.76,-30.51"/>
<polygon fill="midnightblue" stroke="midnightblue" points="350.92,-213.07 353.18,-223.42 357.86,-213.92 350.92,-213.07"/>
</g>
<!-- Node8 -->
<g id="node8" class="node">
<title>Node8</title>
<g id="a_node8"><a xlink:href="classmn_1_1queue_1_1work__queue__task.html" target="_top" xlink:title=" ">
<polygon fill="white" stroke="black" points="150,-156.5 150,-175.5 310,-175.5 310,-156.5 150,-156.5"/>
<text text-anchor="middle" x="230" y="-163.5" font-family="Helvetica,sans-Serif" font-size="10.00">mn::queue::work_queue_task</text>
</a>
</g>
</g>
<!-- Node2&#45;&gt;Node8 -->
<g id="edge14" class="edge">
<title>Node2&#45;&gt;Node8</title>
<path fill="none" stroke="#9a32cd" stroke-dasharray="5,2" d="M276.62,-221.05C254.12,-215.36 234.4,-209.32 231,-205 224.47,-196.7 225.71,-183.93 227.56,-175.52"/>
<polygon fill="#9a32cd" stroke="#9a32cd" points="275.85,-224.47 286.4,-223.47 277.53,-217.67 275.85,-224.47"/>
<text text-anchor="middle" x="284" y="-197" font-family="Helvetica,sans-Serif" font-size="10.00"> m_parentWorkQueue</text>
</g>
<!-- Node3 -->
<g id="node3" class="node">
<title>Node3</title>
<g id="a_node3"><a xlink:href="classmn_1_1basic__mutex.html" target="_top" xlink:title=" ">
<polygon fill="white" stroke="black" points="281.5,-323.5 281.5,-342.5 382.5,-342.5 382.5,-323.5 281.5,-323.5"/>
<text text-anchor="middle" x="332" y="-330.5" font-family="Helvetica,sans-Serif" font-size="10.00">mn::basic_mutex</text>
</a>
</g>
</g>
<!-- Node3&#45;&gt;Node2 -->
<g id="edge2" class="edge">
<title>Node3&#45;&gt;Node2</title>
<path fill="none" stroke="#9a32cd" stroke-dasharray="5,2" d="M335.79,-313.54C339.41,-295.92 344.79,-269.75 348.08,-253.7"/>
<polygon fill="#9a32cd" stroke="#9a32cd" points="332.34,-312.96 333.75,-323.46 339.19,-314.37 332.34,-312.96"/>
<text text-anchor="middle" x="385" y="-291.5" font-family="Helvetica,sans-Serif" font-size="10.00"> m_ThreadJob</text>
<text text-anchor="middle" x="385" y="-280.5" font-family="Helvetica,sans-Serif" font-size="10.00">m_ThreadStatus</text>
</g>
<!-- Node4 -->
<g id="node4" class="node">
<title>Node4</title>
<g id="a_node4"><a xlink:href="classmn_1_1basic__semaphore.html" target="_top" xlink:title=" ">
<polygon fill="white" stroke="black" points="196,-386 196,-405 320,-405 320,-386 196,-386"/>
<text text-anchor="middle" x="258" y="-393" font-family="Helvetica,sans-Serif" font-size="10.00">mn::basic_semaphore</text>
</a>
</g>
</g>
<!-- Node4&#45;&gt;Node3 -->
<g id="edge3" class="edge">
<title>Node4&#45;&gt;Node3</title>
<path fill="none" stroke="midnightblue" d="M276.69,-379.22C290.84,-367.65 309.78,-352.17 321.42,-342.65"/>
<polygon fill="midnightblue" stroke="midnightblue" points="274.13,-376.79 268.6,-385.83 278.56,-382.21 274.13,-376.79"/>
</g>
<!-- Node10 -->
<g id="node10" class="node">
<title>Node10</title>
<g id="a_node10"><a xlink:href="classmn_1_1basic__binary__semaphore.html" target="_top" xlink:title=" ">
<polygon fill="white" stroke="black" points="103,-323.5 103,-342.5 263,-342.5 263,-323.5 103,-323.5"/>
<text text-anchor="middle" x="183" y="-330.5" font-family="Helvetica,sans-Serif" font-size="10.00">mn::basic_binary_semaphore</text>
</a>
</g>
</g>
<!-- Node4&#45;&gt;Node10 -->
<g id="edge11" class="edge">
<title>Node4&#45;&gt;Node10</title>
<path fill="none" stroke="midnightblue" d="M239.46,-379.55C225.08,-367.94 205.64,-352.26 193.73,-342.65"/>
<polygon fill="midnightblue" stroke="midnightblue" points="237.27,-382.28 247.25,-385.83 241.67,-376.83 237.27,-382.28"/>
</g>
<!-- Node5 -->
<g id="node5" class="node">
<title>Node5</title>
<g id="a_node5"><a xlink:href="classmn_1_1ILockObject.html" target="_top" xlink:title=" ">
<polygon fill="white" stroke="black" points="210.5,-448.5 210.5,-467.5 305.5,-467.5 305.5,-448.5 210.5,-448.5"/>
<text text-anchor="middle" x="258" y="-455.5" font-family="Helvetica,sans-Serif" font-size="10.00">mn::ILockObject</text>
</a>
</g>
</g>
<!-- Node5&#45;&gt;Node4 -->
<g id="edge4" class="edge">
<title>Node5&#45;&gt;Node4</title>
<path fill="none" stroke="midnightblue" d="M258,-438C258,-427 258,-413.68 258,-405.15"/>
<polygon fill="midnightblue" stroke="midnightblue" points="254.5,-438.33 258,-448.33 261.5,-438.33 254.5,-438.33"/>
</g>
<!-- Node6 -->
<g id="node6" class="node">
<title>Node6</title>
<g id="a_node6"><a xlink:href="classmn_1_1queue_1_1basic__queue.html" target="_top" xlink:title="Queue class wrapper for FreeRTOS queues.">
<polygon fill="white" stroke="black" points="400.5,-323.5 400.5,-342.5 535.5,-342.5 535.5,-323.5 400.5,-323.5"/>
<text text-anchor="middle" x="468" y="-330.5" font-family="Helvetica,sans-Serif" font-size="10.00">mn::queue::basic_queue</text>
</a>
</g>
</g>
<!-- Node6&#45;&gt;Node2 -->
<g id="edge5" class="edge">
<title>Node6&#45;&gt;Node2</title>
<path fill="none" stroke="#9a32cd" stroke-dasharray="5,2" d="M459.98,-314.06C453.31,-300.91 442.71,-283.42 429,-272 419.87,-264.39 408.71,-258.35 397.72,-253.64"/>
<polygon fill="#9a32cd" stroke="#9a32cd" points="457,-315.96 464.46,-323.49 463.32,-312.95 457,-315.96"/>
<text text-anchor="middle" x="505.5" y="-286" font-family="Helvetica,sans-Serif" font-size="10.00"> m_pWorkItemQueue</text>
</g>
<!-- Node7 -->
<g id="node7" class="node">
<title>Node7</title>
<g id="a_node7"><a xlink:title=" ">
<polygon fill="white" stroke="#bfbfbf" points="184.5,-78.5 184.5,-108.5 315.5,-108.5 315.5,-78.5 184.5,-78.5"/>
<text text-anchor="start" x="192.5" y="-96.5" font-family="Helvetica,sans-Serif" font-size="10.00">std::vector&lt; mn::queue</text>
<text text-anchor="middle" x="250" y="-85.5" font-family="Helvetica,sans-Serif" font-size="10.00">::work_queue_task * &gt;</text>
</a>
</g>
</g>
<!-- Node7&#45;&gt;Node1 -->
<g id="edge6" class="edge">
<title>Node7&#45;&gt;Node1</title>
<path fill="none" stroke="#9a32cd" stroke-dasharray="5,2" d="M264.86,-69.58C269.31,-62.89 274.27,-55.59 279,-49 283.4,-42.87 288.44,-36.24 292.84,-30.58"/>
<polygon fill="#9a32cd" stroke="#9a32cd" points="261.74,-67.95 259.16,-78.23 267.59,-71.8 261.74,-67.95"/>
<text text-anchor="middle" x="308" y="-52" font-family="Helvetica,sans-Serif" font-size="10.00"> m_Workers</text>
</g>
<!-- Node8&#45;&gt;Node7 -->
<g id="edge7" class="edge">
<title>Node8&#45;&gt;Node7</title>
<path fill="none" stroke="#9a32cd" stroke-dasharray="5,2" d="M235.22,-146.6C238.59,-134.72 242.91,-119.49 246.01,-108.58"/>
<polygon fill="#9a32cd" stroke="#9a32cd" points="231.81,-145.78 232.45,-156.36 238.55,-147.69 231.81,-145.78"/>
<text text-anchor="middle" x="265.5" y="-130" font-family="Helvetica,sans-Serif" font-size="10.00"> elements</text>
</g>
<!-- Node9 -->
<g id="node9" class="node">
<title>Node9</title>
<g id="a_node9"><a xlink:href="classmn_1_1basic__task.html" target="_top" xlink:title="Wrapper class around FreeRTOS&#39;s implementation of a task.">
<polygon fill="white" stroke="black" points="108,-229 108,-248 198,-248 198,-229 108,-229"/>
<text text-anchor="middle" x="153" y="-236" font-family="Helvetica,sans-Serif" font-size="10.00">mn::basic_task</text>
</a>
</g>
</g>
<!-- Node9&#45;&gt;Node8 -->
<g id="edge8" class="edge">
<title>Node9&#45;&gt;Node8</title>
<path fill="none" stroke="midnightblue" d="M169.84,-222.08C185.36,-207.87 207.86,-187.27 220.48,-175.72"/>
<polygon fill="midnightblue" stroke="midnightblue" points="167.45,-219.52 162.44,-228.86 172.18,-224.68 167.45,-219.52"/>
</g>
<!-- Node9&#45;&gt;Node9 -->
<g id="edge9" class="edge">
<title>Node9&#45;&gt;Node9</title>
<path fill="none" stroke="#9a32cd" stroke-dasharray="5,2" d="M208.26,-244.07C213.03,-242.88 216,-241.03 216,-238.5 216,-234.46 208.39,-232.13 198.02,-231.53"/>
<polygon fill="#9a32cd" stroke="#9a32cd" points="207.45,-240.64 198.02,-245.47 208.4,-247.58 207.45,-240.64"/>
<text text-anchor="middle" x="242" y="-241.5" font-family="Helvetica,sans-Serif" font-size="10.00"> m_pChild</text>
<text text-anchor="middle" x="242" y="-230.5" font-family="Helvetica,sans-Serif" font-size="10.00">m_pParent</text>
</g>
<!-- Node10&#45;&gt;Node9 -->
<g id="edge10" class="edge">
<title>Node10&#45;&gt;Node9</title>
<path fill="none" stroke="#9a32cd" stroke-dasharray="5,2" d="M177.07,-313.72C170.62,-293.82 160.58,-262.87 155.76,-248.02"/>
<polygon fill="#9a32cd" stroke="#9a32cd" points="173.82,-315.03 180.23,-323.46 180.48,-312.87 173.82,-315.03"/>
<text text-anchor="middle" x="220" y="-297" font-family="Helvetica,sans-Serif" font-size="10.00"> m_contextMutext</text>
<text text-anchor="middle" x="220" y="-286" font-family="Helvetica,sans-Serif" font-size="10.00">m_continuemutex</text>
<text text-anchor="middle" x="220" y="-275" font-family="Helvetica,sans-Serif" font-size="10.00">m_runningMutex</text>
</g>
<!-- Node11 -->
<g id="node11" class="node">
<title>Node11</title>
<g id="a_node11"><a xlink:title=" ">
<polygon fill="white" stroke="#bfbfbf" points="19.5,-323.5 19.5,-342.5 84.5,-342.5 84.5,-323.5 19.5,-323.5"/>
<text text-anchor="middle" x="52" y="-330.5" font-family="Helvetica,sans-Serif" font-size="10.00">std::string</text>
</a>
</g>
</g>
<!-- Node11&#45;&gt;Node9 -->
<g id="edge12" class="edge">
<title>Node11&#45;&gt;Node9</title>
<path fill="none" stroke="#9a32cd" stroke-dasharray="5,2" d="M62.77,-315.07C71.49,-302.23 84.64,-284.7 99,-272 109.82,-262.43 123.84,-254.09 134.88,-248.25"/>
<polygon fill="#9a32cd" stroke="#9a32cd" points="59.83,-313.17 57.25,-323.45 65.67,-317.02 59.83,-313.17"/>
<text text-anchor="middle" x="129.5" y="-286" font-family="Helvetica,sans-Serif" font-size="10.00"> m_strName</text>
</g>
<!-- Node12 -->
<g id="node12" class="node">
<title>Node12</title>
<g id="a_node12"><a xlink:title=" ">
<polygon fill="white" stroke="#bfbfbf" points="0,-380.5 0,-410.5 104,-410.5 104,-380.5 0,-380.5"/>
<text text-anchor="start" x="8" y="-398.5" font-family="Helvetica,sans-Serif" font-size="10.00">std::basic_string&lt;</text>
<text text-anchor="middle" x="52" y="-387.5" font-family="Helvetica,sans-Serif" font-size="10.00"> Char &gt;</text>
</a>
</g>
</g>
<!-- Node12&#45;&gt;Node11 -->
<g id="edge13" class="edge">
<title>Node12&#45;&gt;Node11</title>
<path fill="none" stroke="midnightblue" d="M52,-370.35C52,-360.51 52,-349.78 52,-342.54"/>
<polygon fill="midnightblue" stroke="midnightblue" points="48.5,-370.47 52,-380.47 55.5,-370.47 48.5,-370.47"/>
</g>
</g>
</svg>
