<?xml version="1.0" encoding="UTF-8" standalone="no"?>
<!DOCTYPE svg PUBLIC "-//W3C//DTD SVG 1.1//EN"
 "http://www.w3.org/Graphics/SVG/1.1/DTD/svg11.dtd">
<!-- Generated by graphviz version 2.47.1 (0)
 -->
<!-- Title: mn::net::basic_ip6_socket Pages: 1 -->
<svg width="621pt" height="137pt"
 viewBox="0.00 0.00 621.00 137.00" xmlns="http://www.w3.org/2000/svg" xmlns:xlink="http://www.w3.org/1999/xlink">
<g id="graph0" class="graph" transform="scale(1 1) rotate(0) translate(4 133)">
<title>mn::net::basic_ip6_socket</title>
<polygon fill="white" stroke="transparent" points="-4,4 -4,-133 617,-133 617,4 -4,4"/>
<!-- Node1 -->
<g id="node1" class="node">
<title>Node1</title>
<g id="a_node1"><a xlink:title="This class represents an internet (IP) version 6 host socket.">
<polygon fill="#bfbfbf" stroke="black" points="173,-49.5 173,-79.5 279,-79.5 279,-49.5 173,-49.5"/>
<text text-anchor="start" x="181" y="-67.5" font-family="Helvetica,sans-Serif" font-size="10.00">mn::net::basic_ip6</text>
<text text-anchor="middle" x="226" y="-56.5" font-family="Helvetica,sans-Serif" font-size="10.00">_socket</text>
</a>
</g>
</g>
<!-- Node3 -->
<g id="node3" class="node">
<title>Node3</title>
<g id="a_node3"><a xlink:href="classmn_1_1net_1_1basic__dgram__ip6__socket.html" target="_top" xlink:title="Basic dram socket class.">
<polygon fill="white" stroke="black" points="316.5,-98.5 316.5,-128.5 438.5,-128.5 438.5,-98.5 316.5,-98.5"/>
<text text-anchor="start" x="324.5" y="-116.5" font-family="Helvetica,sans-Serif" font-size="10.00">mn::net::basic_dgram</text>
<text text-anchor="middle" x="377.5" y="-105.5" font-family="Helvetica,sans-Serif" font-size="10.00">_ip6_socket</text>
</a>
</g>
</g>
<!-- Node1&#45;&gt;Node3 -->
<g id="edge2" class="edge">
<title>Node1&#45;&gt;Node3</title>
<path fill="none" stroke="midnightblue" d="M282.71,-82.76C298.48,-87.93 315.46,-93.49 330.58,-98.45"/>
<polygon fill="midnightblue" stroke="midnightblue" points="283.67,-79.39 273.07,-79.6 281.49,-86.04 283.67,-79.39"/>
</g>
<!-- Node5 -->
<g id="node5" class="node">
<title>Node5</title>
<g id="a_node5"><a xlink:href="classmn_1_1net_1_1basic__raw__ip6__socket.html" target="_top" xlink:title="This class provides an interface to a raw IPv6 socket.">
<polygon fill="white" stroke="black" points="323,-49.5 323,-79.5 432,-79.5 432,-49.5 323,-49.5"/>
<text text-anchor="start" x="331" y="-67.5" font-family="Helvetica,sans-Serif" font-size="10.00">mn::net::basic_raw</text>
<text text-anchor="middle" x="377.5" y="-56.5" font-family="Helvetica,sans-Serif" font-size="10.00">_ip6_socket</text>
</a>
</g>
</g>
<!-- Node1&#45;&gt;Node5 -->
<g id="edge4" class="edge">
<title>Node1&#45;&gt;Node5</title>
<path fill="none" stroke="midnightblue" d="M289.4,-64.5C300.56,-64.5 312.09,-64.5 322.98,-64.5"/>
<polygon fill="midnightblue" stroke="midnightblue" points="289.29,-61 279.29,-64.5 289.29,-68 289.29,-61"/>
</g>
<!-- Node6 -->
<g id="node6" class="node">
<title>Node6</title>
<g id="a_node6"><a xlink:href="classmn_1_1net_1_1basic__stream__ip6__socket.html" target="_top" xlink:title="This class provides an interface to a tcp IPv6 socket.">
<polygon fill="white" stroke="black" points="315,-0.5 315,-30.5 440,-30.5 440,-0.5 315,-0.5"/>
<text text-anchor="start" x="323" y="-18.5" font-family="Helvetica,sans-Serif" font-size="10.00">mn::net::basic_stream</text>
<text text-anchor="middle" x="377.5" y="-7.5" font-family="Helvetica,sans-Serif" font-size="10.00">_ip6_socket</text>
</a>
</g>
</g>
<!-- Node1&#45;&gt;Node6 -->
<g id="edge5" class="edge">
<title>Node1&#45;&gt;Node6</title>
<path fill="none" stroke="midnightblue" d="M282.71,-46.24C298.48,-41.07 315.46,-35.51 330.58,-30.55"/>
<polygon fill="midnightblue" stroke="midnightblue" points="281.49,-42.96 273.07,-49.4 283.67,-49.61 281.49,-42.96"/>
</g>
<!-- Node2 -->
<g id="node2" class="node">
<title>Node2</title>
<g id="a_node2"><a xlink:href="classmn_1_1net_1_1basic__ip__socket.html" target="_top" xlink:title="Wrapper class around lwip implementation of a socket.">
<polygon fill="white" stroke="black" points="0,-55 0,-74 137,-74 137,-55 0,-55"/>
<text text-anchor="middle" x="68.5" y="-62" font-family="Helvetica,sans-Serif" font-size="10.00">mn::net::basic_ip_socket</text>
</a>
</g>
</g>
<!-- Node2&#45;&gt;Node1 -->
<g id="edge1" class="edge">
<title>Node2&#45;&gt;Node1</title>
<path fill="none" stroke="midnightblue" d="M147.38,-64.5C156.04,-64.5 164.69,-64.5 172.91,-64.5"/>
<polygon fill="midnightblue" stroke="midnightblue" points="147.25,-61 137.25,-64.5 147.25,-68 147.25,-61"/>
</g>
<!-- Node4 -->
<g id="node4" class="node">
<title>Node4</title>
<g id="a_node4"><a xlink:href="classmn_1_1net_1_1basic__multicast__ip6__socket.html" target="_top" xlink:title="A basic_multicast_ip6_socket is a special dgram_ip6_socket that can be used to send packets to and re...">
<polygon fill="white" stroke="black" points="476,-98.5 476,-128.5 613,-128.5 613,-98.5 476,-98.5"/>
<text text-anchor="start" x="484" y="-116.5" font-family="Helvetica,sans-Serif" font-size="10.00">mn::net::basic_multicast</text>
<text text-anchor="middle" x="544.5" y="-105.5" font-family="Helvetica,sans-Serif" font-size="10.00">_ip6_socket</text>
</a>
</g>
</g>
<!-- Node3&#45;&gt;Node4 -->
<g id="edge3" class="edge">
<title>Node3&#45;&gt;Node4</title>
<path fill="none" stroke="midnightblue" d="M448.65,-113.5C457.7,-113.5 466.96,-113.5 475.97,-113.5"/>
<polygon fill="midnightblue" stroke="midnightblue" points="448.54,-110 438.54,-113.5 448.54,-117 448.54,-110"/>
</g>
</g>
</svg>
