<?xml version="1.0" encoding="UTF-8" standalone="no"?>
<!DOCTYPE svg PUBLIC "-//W3C//DTD SVG 1.1//EN"
 "http://www.w3.org/Graphics/SVG/1.1/DTD/svg11.dtd">
<!-- Generated by graphviz version 2.46.0 (0)
 -->
<!-- Title: mn::basic_task_list Pages: 1 -->
<svg width="1366pt" height="167pt"
 viewBox="0.00 0.00 1366.00 166.50" xmlns="http://www.w3.org/2000/svg" xmlns:xlink="http://www.w3.org/1999/xlink">
<g id="graph0" class="graph" transform="scale(1 1) rotate(0) translate(4 162.5)">
<title>mn::basic_task_list</title>
<polygon fill="white" stroke="transparent" points="-4,4 -4,-162.5 1362,-162.5 1362,4 -4,4"/>
<!-- Node1 -->
<g id="node1" class="node">
<title>Node1</title>
<g id="a_node1"><a xlink:title=" ">
<polygon fill="#bfbfbf" stroke="black" points="1248,-44.5 1248,-63.5 1358,-63.5 1358,-44.5 1248,-44.5"/>
<text text-anchor="middle" x="1303" y="-51.5" font-family="Helvetica,sans-Serif" font-size="10.00">mn::basic_task_list</text>
</a>
</g>
</g>
<!-- Node1&#45;&gt;Node1 -->
<g id="edge13" class="edge">
<title>Node1&#45;&gt;Node1</title>
<path fill="none" stroke="#9a32cd" stroke-dasharray="5,2" d="M1280.31,-73.03C1281.54,-78.13 1289.11,-82 1303,-82 1324.68,-82 1330.95,-72.57 1321.8,-63.76"/>
<polygon fill="#9a32cd" stroke="#9a32cd" points="1283.56,-74.33 1284.2,-63.76 1277.1,-71.62 1283.56,-74.33"/>
<text text-anchor="middle" x="1303" y="-85" font-family="Helvetica,sans-Serif" font-size="10.00"> m_pInstance</text>
</g>
<!-- Node2 -->
<g id="node2" class="node">
<title>Node2</title>
<g id="a_node2"><a xlink:href="classmn_1_1basic__mutex.html" target="_top" xlink:title=" ">
<polygon fill="white" stroke="black" points="471,-0.5 471,-19.5 572,-19.5 572,-0.5 471,-0.5"/>
<text text-anchor="middle" x="521.5" y="-7.5" font-family="Helvetica,sans-Serif" font-size="10.00">mn::basic_mutex</text>
</a>
</g>
</g>
<!-- Node2&#45;&gt;Node1 -->
<g id="edge1" class="edge">
<title>Node2&#45;&gt;Node1</title>
<path fill="none" stroke="#9a32cd" stroke-dasharray="5,2" d="M582.38,-8.63C621.89,-7.84 674.78,-7 721.5,-7 721.5,-7 721.5,-7 1038.5,-7 1123.07,-7 1220.57,-30.76 1269.88,-44.49"/>
<polygon fill="#9a32cd" stroke="#9a32cd" points="582.31,-5.13 572.38,-8.83 582.45,-12.13 582.31,-5.13"/>
<text text-anchor="middle" x="820.5" y="-10" font-family="Helvetica,sans-Serif" font-size="10.00"> m_staticInstanceMux</text>
</g>
<!-- Node3 -->
<g id="node3" class="node">
<title>Node3</title>
<g id="a_node3"><a xlink:href="classmn_1_1basic__semaphore.html" target="_top" xlink:title=" ">
<polygon fill="white" stroke="black" points="132,-17.5 132,-36.5 256,-36.5 256,-17.5 132,-17.5"/>
<text text-anchor="middle" x="194" y="-24.5" font-family="Helvetica,sans-Serif" font-size="10.00">mn::basic_semaphore</text>
</a>
</g>
</g>
<!-- Node3&#45;&gt;Node2 -->
<g id="edge2" class="edge">
<title>Node3&#45;&gt;Node2</title>
<path fill="none" stroke="midnightblue" d="M266.32,-23.28C328.3,-20.04 416.46,-15.43 470.99,-12.59"/>
<polygon fill="midnightblue" stroke="midnightblue" points="266.03,-19.79 256.22,-23.8 266.39,-26.78 266.03,-19.79"/>
</g>
<!-- Node8 -->
<g id="node8" class="node">
<title>Node8</title>
<g id="a_node8"><a xlink:href="classmn_1_1basic__binary__semaphore.html" target="_top" xlink:title=" ">
<polygon fill="white" stroke="black" points="293,-44.5 293,-63.5 453,-63.5 453,-44.5 293,-44.5"/>
<text text-anchor="middle" x="373" y="-51.5" font-family="Helvetica,sans-Serif" font-size="10.00">mn::basic_binary_semaphore</text>
</a>
</g>
</g>
<!-- Node3&#45;&gt;Node8 -->
<g id="edge9" class="edge">
<title>Node3&#45;&gt;Node8</title>
<path fill="none" stroke="midnightblue" d="M266.62,-37.93C280.82,-40.09 295.63,-42.35 309.5,-44.47"/>
<polygon fill="midnightblue" stroke="midnightblue" points="266.82,-34.42 256.41,-36.37 265.77,-41.34 266.82,-34.42"/>
</g>
<!-- Node4 -->
<g id="node4" class="node">
<title>Node4</title>
<g id="a_node4"><a xlink:href="classmn_1_1_i_lock_object.html" target="_top" xlink:title=" ">
<polygon fill="white" stroke="black" points="0,-17.5 0,-36.5 95,-36.5 95,-17.5 0,-17.5"/>
<text text-anchor="middle" x="47.5" y="-24.5" font-family="Helvetica,sans-Serif" font-size="10.00">mn::ILockObject</text>
</a>
</g>
</g>
<!-- Node4&#45;&gt;Node3 -->
<g id="edge3" class="edge">
<title>Node4&#45;&gt;Node3</title>
<path fill="none" stroke="midnightblue" d="M105.11,-27C113.87,-27 122.95,-27 131.8,-27"/>
<polygon fill="midnightblue" stroke="midnightblue" points="105.02,-23.5 95.02,-27 105.02,-30.5 105.02,-23.5"/>
</g>
<!-- Node5 -->
<g id="node5" class="node">
<title>Node5</title>
<g id="a_node5"><a xlink:title=" ">
<polygon fill="white" stroke="#bfbfbf" points="961,-83 961,-113 1114,-113 1114,-83 961,-83"/>
<text text-anchor="start" x="969" y="-101" font-family="Helvetica,sans-Serif" font-size="10.00">std::map&lt; int, std</text>
<text text-anchor="middle" x="1037.5" y="-90" font-family="Helvetica,sans-Serif" font-size="10.00">::list&lt; mn::basic_task * &gt; &gt;</text>
</a>
</g>
</g>
<!-- Node5&#45;&gt;Node1 -->
<g id="edge4" class="edge">
<title>Node5&#45;&gt;Node1</title>
<path fill="none" stroke="#9a32cd" stroke-dasharray="5,2" d="M1124.2,-85.26C1157.3,-80.16 1195.46,-74.06 1230,-68 1237.9,-66.61 1246.27,-65.06 1254.41,-63.51"/>
<polygon fill="#9a32cd" stroke="#9a32cd" points="1123.45,-81.83 1114.1,-86.81 1124.51,-88.75 1123.45,-81.83"/>
<text text-anchor="middle" x="1181" y="-86" font-family="Helvetica,sans-Serif" font-size="10.00"> m_mapTaskOnCore</text>
</g>
<!-- Node6 -->
<g id="node6" class="node">
<title>Node6</title>
<g id="a_node6"><a xlink:title=" ">
<polygon fill="white" stroke="#bfbfbf" points="765,-84 765,-114 876,-114 876,-84 765,-84"/>
<text text-anchor="start" x="773" y="-102" font-family="Helvetica,sans-Serif" font-size="10.00">std::list&lt; mn::basic</text>
<text text-anchor="middle" x="820.5" y="-91" font-family="Helvetica,sans-Serif" font-size="10.00">_task * &gt;</text>
</a>
</g>
</g>
<!-- Node6&#45;&gt;Node5 -->
<g id="edge5" class="edge">
<title>Node6&#45;&gt;Node5</title>
<path fill="none" stroke="#9a32cd" stroke-dasharray="5,2" d="M886.24,-98.7C909.76,-98.59 936.55,-98.46 960.93,-98.35"/>
<polygon fill="#9a32cd" stroke="#9a32cd" points="886.02,-95.2 876.03,-98.75 886.05,-102.2 886.02,-95.2"/>
<text text-anchor="middle" x="918.5" y="-101" font-family="Helvetica,sans-Serif" font-size="10.00"> elements</text>
</g>
<!-- Node7 -->
<g id="node7" class="node">
<title>Node7</title>
<g id="a_node7"><a xlink:href="classmn_1_1basic__task.html" target="_top" xlink:title="Wrapper class around FreeRTOS&#39;s implementation of a task.">
<polygon fill="white" stroke="black" points="590,-89.5 590,-108.5 680,-108.5 680,-89.5 590,-89.5"/>
<text text-anchor="middle" x="635" y="-96.5" font-family="Helvetica,sans-Serif" font-size="10.00">mn::basic_task</text>
</a>
</g>
</g>
<!-- Node7&#45;&gt;Node6 -->
<g id="edge6" class="edge">
<title>Node7&#45;&gt;Node6</title>
<path fill="none" stroke="#9a32cd" stroke-dasharray="5,2" d="M690.53,-99C713.93,-99 741.23,-99 764.67,-99"/>
<polygon fill="#9a32cd" stroke="#9a32cd" points="690.42,-95.5 680.42,-99 690.42,-102.5 690.42,-95.5"/>
<text text-anchor="middle" x="722.5" y="-102" font-family="Helvetica,sans-Serif" font-size="10.00"> elements</text>
</g>
<!-- Node7&#45;&gt;Node7 -->
<g id="edge7" class="edge">
<title>Node7&#45;&gt;Node7</title>
<path fill="none" stroke="#9a32cd" stroke-dasharray="5,2" d="M619.07,-118.4C620.14,-123.31 625.45,-127 635,-127 650.29,-127 654.7,-117.57 648.26,-108.76"/>
<polygon fill="#9a32cd" stroke="#9a32cd" points="622.45,-119.33 621.74,-108.76 615.7,-117.46 622.45,-119.33"/>
<text text-anchor="middle" x="635" y="-141" font-family="Helvetica,sans-Serif" font-size="10.00"> m_pChild</text>
<text text-anchor="middle" x="635" y="-130" font-family="Helvetica,sans-Serif" font-size="10.00">m_pParent</text>
</g>
<!-- Node8&#45;&gt;Node1 -->
<g id="edge12" class="edge">
<title>Node8&#45;&gt;Node1</title>
<path fill="none" stroke="#9a32cd" stroke-dasharray="5,2" d="M463.25,-54C513.42,-54 577.2,-54 634,-54 634,-54 634,-54 1038.5,-54 1110.89,-54 1194.48,-54 1247.75,-54"/>
<polygon fill="#9a32cd" stroke="#9a32cd" points="463.08,-50.5 453.08,-54 463.08,-57.5 463.08,-50.5"/>
<text text-anchor="middle" x="820.5" y="-57" font-family="Helvetica,sans-Serif" font-size="10.00"> m_pLock</text>
</g>
<!-- Node8&#45;&gt;Node7 -->
<g id="edge8" class="edge">
<title>Node8&#45;&gt;Node7</title>
<path fill="none" stroke="#9a32cd" stroke-dasharray="5,2" d="M457.44,-65C492.89,-70.1 534.58,-76.65 572,-84 580.04,-85.58 588.61,-87.5 596.74,-89.43"/>
<polygon fill="#9a32cd" stroke="#9a32cd" points="457.53,-61.48 447.14,-63.53 456.55,-68.41 457.53,-61.48"/>
<text text-anchor="middle" x="521.5" y="-109" font-family="Helvetica,sans-Serif" font-size="10.00"> m_contextMutext</text>
<text text-anchor="middle" x="521.5" y="-98" font-family="Helvetica,sans-Serif" font-size="10.00">m_continuemutex</text>
<text text-anchor="middle" x="521.5" y="-87" font-family="Helvetica,sans-Serif" font-size="10.00">m_runningMutex</text>
</g>
<!-- Node9 -->
<g id="node9" class="node">
<title>Node9</title>
<g id="a_node9"><a xlink:title=" ">
<polygon fill="white" stroke="#bfbfbf" points="340.5,-133.5 340.5,-152.5 405.5,-152.5 405.5,-133.5 340.5,-133.5"/>
<text text-anchor="middle" x="373" y="-140.5" font-family="Helvetica,sans-Serif" font-size="10.00">std::string</text>
</a>
</g>
</g>
<!-- Node9&#45;&gt;Node7 -->
<g id="edge10" class="edge">
<title>Node9&#45;&gt;Node7</title>
<path fill="none" stroke="#9a32cd" stroke-dasharray="5,2" d="M415.6,-141.16C455.99,-138.73 518.82,-133.22 572,-121 585.25,-117.96 599.57,-112.99 611.12,-108.54"/>
<polygon fill="#9a32cd" stroke="#9a32cd" points="415.37,-137.67 405.58,-141.73 415.76,-144.66 415.37,-137.67"/>
<text text-anchor="middle" x="521.5" y="-139" font-family="Helvetica,sans-Serif" font-size="10.00"> m_strName</text>
</g>
<!-- Node10 -->
<g id="node10" class="node">
<title>Node10</title>
<g id="a_node10"><a xlink:title=" ">
<polygon fill="white" stroke="#bfbfbf" points="142,-128 142,-158 246,-158 246,-128 142,-128"/>
<text text-anchor="start" x="150" y="-146" font-family="Helvetica,sans-Serif" font-size="10.00">std::basic_string&lt;</text>
<text text-anchor="middle" x="194" y="-135" font-family="Helvetica,sans-Serif" font-size="10.00"> Char &gt;</text>
</a>
</g>
</g>
<!-- Node10&#45;&gt;Node9 -->
<g id="edge11" class="edge">
<title>Node10&#45;&gt;Node9</title>
<path fill="none" stroke="midnightblue" d="M256.41,-143C284.71,-143 317.11,-143 340.38,-143"/>
<polygon fill="midnightblue" stroke="midnightblue" points="256.2,-139.5 246.2,-143 256.2,-146.5 256.2,-139.5"/>
</g>
</g>
</svg>
