<?xml version="1.0" encoding="UTF-8" standalone="no"?>
<!DOCTYPE svg PUBLIC "-//W3C//DTD SVG 1.1//EN"
 "http://www.w3.org/Graphics/SVG/1.1/DTD/svg11.dtd">
<!-- Generated by graphviz version 2.47.3 (0)
 -->
<!-- Title: mn::net::basic_wifi Pages: 1 -->
<svg width="286pt" height="163pt"
 viewBox="0.00 0.00 285.50 163.00" xmlns="http://www.w3.org/2000/svg" xmlns:xlink="http://www.w3.org/1999/xlink">
<g id="graph0" class="graph" transform="scale(1 1) rotate(0) translate(4 159)">
<title>mn::net::basic_wifi</title>
<polygon fill="white" stroke="transparent" points="-4,4 -4,-159 281.5,-159 281.5,4 -4,4"/>
<!-- Node1 -->
<g id="node1" class="node">
<title>Node1</title>
<g id="a_node1"><a xlink:title="A basic class for wifi.">
<polygon fill="#bfbfbf" stroke="black" points="76.5,-0.5 76.5,-19.5 184.5,-19.5 184.5,-0.5 76.5,-0.5"/>
<text text-anchor="middle" x="130.5" y="-7.5" font-family="Helvetica,sans-Serif" font-size="10.00">mn::net::basic_wifi</text>
</a>
</g>
</g>
<!-- Node2 -->
<g id="node2" class="node">
<title>Node2</title>
<g id="a_node2"><a xlink:href="classmn_1_1net_1_1basic__wifi__net__if.html" target="_top" xlink:title="Wrapper basic WiFi class around esp&#45;idf implementation of a esp&#45;netif device.">
<polygon fill="white" stroke="black" points="8.5,-67.5 8.5,-97.5 116.5,-97.5 116.5,-67.5 8.5,-67.5"/>
<text text-anchor="start" x="16.5" y="-85.5" font-family="Helvetica,sans-Serif" font-size="10.00">mn::net::basic_wifi</text>
<text text-anchor="middle" x="62.5" y="-74.5" font-family="Helvetica,sans-Serif" font-size="10.00">_net_if</text>
</a>
</g>
</g>
<!-- Node2&#45;&gt;Node1 -->
<g id="edge1" class="edge">
<title>Node2&#45;&gt;Node1</title>
<path fill="none" stroke="midnightblue" d="M83.47,-59.76C96.41,-46.34 112.32,-29.85 121.92,-19.89"/>
<polygon fill="midnightblue" stroke="midnightblue" points="80.68,-57.61 76.26,-67.23 85.72,-62.47 80.68,-57.61"/>
</g>
<!-- Node3 -->
<g id="node3" class="node">
<title>Node3</title>
<g id="a_node3"><a xlink:href="classmn_1_1net_1_1basic__net__if.html" target="_top" xlink:title="Wrapper class around esp&#45;idf implementation of a esp&#45;netif device.">
<polygon fill="white" stroke="black" points="0,-135.5 0,-154.5 119,-154.5 119,-135.5 0,-135.5"/>
<text text-anchor="middle" x="59.5" y="-142.5" font-family="Helvetica,sans-Serif" font-size="10.00">mn::net::basic_net_if</text>
</a>
</g>
</g>
<!-- Node3&#45;&gt;Node2 -->
<g id="edge2" class="edge">
<title>Node3&#45;&gt;Node2</title>
<path fill="none" stroke="midnightblue" d="M60.43,-125.22C60.87,-116.36 61.39,-105.96 61.79,-97.76"/>
<polygon fill="midnightblue" stroke="midnightblue" points="56.93,-125.17 59.93,-135.33 63.92,-125.52 56.93,-125.17"/>
</g>
<!-- Node4 -->
<g id="node4" class="node">
<title>Node4</title>
<g id="a_node4"><a xlink:href="classmn_1_1basic__event__group.html" target="_top" xlink:title="Wrapper class around FreeRTOS&#39;s implementation of a event_group.">
<polygon fill="white" stroke="black" points="139.5,-73 139.5,-92 269.5,-92 269.5,-73 139.5,-73"/>
<text text-anchor="middle" x="204.5" y="-80" font-family="Helvetica,sans-Serif" font-size="10.00">mn::basic_event_group</text>
</a>
</g>
</g>
<!-- Node4&#45;&gt;Node1 -->
<g id="edge3" class="edge">
<title>Node4&#45;&gt;Node1</title>
<path fill="none" stroke="#9a32cd" stroke-dasharray="5,2" d="M187.91,-65.69C173,-51.49 151.67,-31.17 139.65,-19.72"/>
<polygon fill="#9a32cd" stroke="#9a32cd" points="185.77,-68.49 195.43,-72.86 190.6,-63.42 185.77,-68.49"/>
<text text-anchor="middle" x="197.5" y="-41" font-family="Helvetica,sans-Serif" font-size="10.00"> m_eGroup</text>
</g>
<!-- Node5 -->
<g id="node5" class="node">
<title>Node5</title>
<g id="a_node5"><a xlink:title=" ">
<polygon fill="white" stroke="#bfbfbf" points="137.5,-135.5 137.5,-154.5 277.5,-154.5 277.5,-135.5 137.5,-135.5"/>
<text text-anchor="middle" x="207.5" y="-142.5" font-family="Helvetica,sans-Serif" font-size="10.00">MN_ONCOPYABLE_CLASS</text>
</a>
</g>
</g>
<!-- Node5&#45;&gt;Node4 -->
<g id="edge4" class="edge">
<title>Node5&#45;&gt;Node4</title>
<path fill="none" stroke="#8b1a1a" d="M206.56,-125C206.01,-114 205.35,-100.68 204.93,-92.15"/>
<polygon fill="#8b1a1a" stroke="#8b1a1a" points="203.08,-125.52 207.07,-135.33 210.07,-125.17 203.08,-125.52"/>
</g>
</g>
</svg>
