<?xml version="1.0" encoding="UTF-8" standalone="no"?>
<!DOCTYPE svg PUBLIC "-//W3C//DTD SVG 1.1//EN"
 "http://www.w3.org/Graphics/SVG/1.1/DTD/svg11.dtd">
<!-- Generated by graphviz version 2.46.0 (0)
 -->
<!-- Title: mn::queue::work_queue_task Pages: 1 -->
<svg width="1031pt" height="198pt"
 viewBox="0.00 0.00 1031.00 197.50" xmlns="http://www.w3.org/2000/svg" xmlns:xlink="http://www.w3.org/1999/xlink">
<g id="graph0" class="graph" transform="scale(1 1) rotate(0) translate(4 193.5)">
<title>mn::queue::work_queue_task</title>
<polygon fill="white" stroke="transparent" points="-4,4 -4,-193.5 1027,-193.5 1027,4 -4,4"/>
<!-- Node1 -->
<g id="node1" class="node">
<title>Node1</title>
<g id="a_node1"><a xlink:title=" ">
<polygon fill="#bfbfbf" stroke="black" points="863,-86 863,-105 1023,-105 1023,-86 863,-86"/>
<text text-anchor="middle" x="943" y="-93" font-family="Helvetica,sans-Serif" font-size="10.00">mn::queue::work_queue_task</text>
</a>
</g>
</g>
<!-- Node2 -->
<g id="node2" class="node">
<title>Node2</title>
<g id="a_node2"><a xlink:href="classmn_1_1basic__task.html" target="_top" xlink:title="Wrapper class around FreeRTOS&#39;s implementation of a task.">
<polygon fill="white" stroke="black" points="611.5,-45 611.5,-64 701.5,-64 701.5,-45 611.5,-45"/>
<text text-anchor="middle" x="656.5" y="-52" font-family="Helvetica,sans-Serif" font-size="10.00">mn::basic_task</text>
</a>
</g>
</g>
<!-- Node2&#45;&gt;Node1 -->
<g id="edge1" class="edge">
<title>Node2&#45;&gt;Node1</title>
<path fill="none" stroke="midnightblue" d="M711.58,-62.29C758.35,-69.03 826.1,-78.8 876.04,-86"/>
<polygon fill="midnightblue" stroke="midnightblue" points="712.04,-58.82 701.64,-60.86 711.04,-65.75 712.04,-58.82"/>
</g>
<!-- Node2&#45;&gt;Node2 -->
<g id="edge3" class="edge">
<title>Node2&#45;&gt;Node2</title>
<path fill="none" stroke="#9a32cd" stroke-dasharray="5,2" d="M631.57,-73.53C632.93,-78.63 641.24,-82.5 656.5,-82.5 680.32,-82.5 687.2,-73.07 677.15,-64.26"/>
<polygon fill="#9a32cd" stroke="#9a32cd" points="634.84,-74.8 635.85,-64.26 628.48,-71.87 634.84,-74.8"/>
<text text-anchor="middle" x="656.5" y="-96.5" font-family="Helvetica,sans-Serif" font-size="10.00"> m_pChild</text>
<text text-anchor="middle" x="656.5" y="-85.5" font-family="Helvetica,sans-Serif" font-size="10.00">m_pParent</text>
</g>
<!-- Node3 -->
<g id="node3" class="node">
<title>Node3</title>
<g id="a_node3"><a xlink:href="classmn_1_1basic__event__group.html" target="_top" xlink:title=" ">
<polygon fill="white" stroke="black" points="308,-94 308,-113 438,-113 438,-94 308,-94"/>
<text text-anchor="middle" x="373" y="-101" font-family="Helvetica,sans-Serif" font-size="10.00">mn::basic_event_group</text>
</a>
</g>
</g>
<!-- Node3&#45;&gt;Node2 -->
<g id="edge2" class="edge">
<title>Node3&#45;&gt;Node2</title>
<path fill="none" stroke="#9a32cd" stroke-dasharray="5,2" d="M448.58,-100.34C486.49,-97.65 533.07,-92.68 574,-83.5 594.52,-78.9 616.97,-70.65 633.1,-64.13"/>
<polygon fill="#9a32cd" stroke="#9a32cd" points="447.87,-96.88 438.13,-101.04 448.34,-103.86 447.87,-96.88"/>
<text text-anchor="middle" x="522.5" y="-101.5" font-family="Helvetica,sans-Serif" font-size="10.00"> m_event</text>
</g>
<!-- Node4 -->
<g id="node4" class="node">
<title>Node4</title>
<g id="a_node4"><a xlink:href="classmn_1_1basic__binary__semaphore.html" target="_top" xlink:title=" ">
<polygon fill="white" stroke="black" points="293,-50 293,-69 453,-69 453,-50 293,-50"/>
<text text-anchor="middle" x="373" y="-57" font-family="Helvetica,sans-Serif" font-size="10.00">mn::basic_binary_semaphore</text>
</a>
</g>
</g>
<!-- Node4&#45;&gt;Node2 -->
<g id="edge4" class="edge">
<title>Node4&#45;&gt;Node2</title>
<path fill="none" stroke="#9a32cd" stroke-dasharray="5,2" d="M463.25,-50.9C465.86,-50.75 468.45,-50.62 471,-50.5 516.73,-48.38 528.24,-49.38 574,-50.5 586.04,-50.8 599.07,-51.34 611.1,-51.93"/>
<polygon fill="#9a32cd" stroke="#9a32cd" points="462.86,-47.42 453.1,-51.55 463.3,-54.41 462.86,-47.42"/>
<text text-anchor="middle" x="522.5" y="-75.5" font-family="Helvetica,sans-Serif" font-size="10.00"> m_contextMutext</text>
<text text-anchor="middle" x="522.5" y="-64.5" font-family="Helvetica,sans-Serif" font-size="10.00">m_continuemutex</text>
<text text-anchor="middle" x="522.5" y="-53.5" font-family="Helvetica,sans-Serif" font-size="10.00">m_runningMutex</text>
</g>
<!-- Node5 -->
<g id="node5" class="node">
<title>Node5</title>
<g id="a_node5"><a xlink:href="classmn_1_1basic__semaphore.html" target="_top" xlink:title=" ">
<polygon fill="white" stroke="black" points="132,-59 132,-78 256,-78 256,-59 132,-59"/>
<text text-anchor="middle" x="194" y="-66" font-family="Helvetica,sans-Serif" font-size="10.00">mn::basic_semaphore</text>
</a>
</g>
</g>
<!-- Node5&#45;&gt;Node4 -->
<g id="edge5" class="edge">
<title>Node5&#45;&gt;Node4</title>
<path fill="none" stroke="midnightblue" d="M266.5,-64.86C275.2,-64.42 284.13,-63.97 292.93,-63.52"/>
<polygon fill="midnightblue" stroke="midnightblue" points="266.22,-61.37 256.41,-65.38 266.57,-68.37 266.22,-61.37"/>
</g>
<!-- Node10 -->
<g id="node10" class="node">
<title>Node10</title>
<g id="a_node10"><a xlink:href="classmn_1_1basic__mutex.html" target="_top" xlink:title=" ">
<polygon fill="white" stroke="black" points="322.5,-170 322.5,-189 423.5,-189 423.5,-170 322.5,-170"/>
<text text-anchor="middle" x="373" y="-177" font-family="Helvetica,sans-Serif" font-size="10.00">mn::basic_mutex</text>
</a>
</g>
</g>
<!-- Node5&#45;&gt;Node10 -->
<g id="edge11" class="edge">
<title>Node5&#45;&gt;Node10</title>
<path fill="none" stroke="midnightblue" d="M208.77,-86.1C226.14,-107.06 257.98,-141.6 293,-160.5 302.06,-165.39 312.38,-169.04 322.5,-171.75"/>
<polygon fill="midnightblue" stroke="midnightblue" points="211.46,-83.86 202.45,-78.29 206.02,-88.27 211.46,-83.86"/>
</g>
<!-- Node6 -->
<g id="node6" class="node">
<title>Node6</title>
<g id="a_node6"><a xlink:href="classmn_1_1_i_lock_object.html" target="_top" xlink:title=" ">
<polygon fill="white" stroke="black" points="0,-59 0,-78 95,-78 95,-59 0,-59"/>
<text text-anchor="middle" x="47.5" y="-66" font-family="Helvetica,sans-Serif" font-size="10.00">mn::ILockObject</text>
</a>
</g>
</g>
<!-- Node6&#45;&gt;Node5 -->
<g id="edge6" class="edge">
<title>Node6&#45;&gt;Node5</title>
<path fill="none" stroke="midnightblue" d="M105.11,-68.5C113.87,-68.5 122.95,-68.5 131.8,-68.5"/>
<polygon fill="midnightblue" stroke="midnightblue" points="105.02,-65 95.02,-68.5 105.02,-72 105.02,-65"/>
</g>
<!-- Node7 -->
<g id="node7" class="node">
<title>Node7</title>
<g id="a_node7"><a xlink:title=" ">
<polygon fill="white" stroke="#bfbfbf" points="340.5,-6 340.5,-25 405.5,-25 405.5,-6 340.5,-6"/>
<text text-anchor="middle" x="373" y="-13" font-family="Helvetica,sans-Serif" font-size="10.00">std::string</text>
</a>
</g>
</g>
<!-- Node7&#45;&gt;Node2 -->
<g id="edge7" class="edge">
<title>Node7&#45;&gt;Node2</title>
<path fill="none" stroke="#9a32cd" stroke-dasharray="5,2" d="M415.78,-17.69C456.4,-20.24 519.75,-25.32 574,-34.5 589.66,-37.15 606.76,-41.17 621.23,-44.91"/>
<polygon fill="#9a32cd" stroke="#9a32cd" points="415.9,-14.19 405.71,-17.08 415.48,-21.18 415.9,-14.19"/>
<text text-anchor="middle" x="522.5" y="-37.5" font-family="Helvetica,sans-Serif" font-size="10.00"> m_strName</text>
</g>
<!-- Node8 -->
<g id="node8" class="node">
<title>Node8</title>
<g id="a_node8"><a xlink:title=" ">
<polygon fill="white" stroke="#bfbfbf" points="142,-0.5 142,-30.5 246,-30.5 246,-0.5 142,-0.5"/>
<text text-anchor="start" x="150" y="-18.5" font-family="Helvetica,sans-Serif" font-size="10.00">std::basic_string&lt;</text>
<text text-anchor="middle" x="194" y="-7.5" font-family="Helvetica,sans-Serif" font-size="10.00"> Char &gt;</text>
</a>
</g>
</g>
<!-- Node8&#45;&gt;Node7 -->
<g id="edge8" class="edge">
<title>Node8&#45;&gt;Node7</title>
<path fill="none" stroke="midnightblue" d="M256.41,-15.5C284.71,-15.5 317.11,-15.5 340.38,-15.5"/>
<polygon fill="midnightblue" stroke="midnightblue" points="256.2,-12 246.2,-15.5 256.2,-19 256.2,-12"/>
</g>
<!-- Node9 -->
<g id="node9" class="node">
<title>Node9</title>
<g id="a_node9"><a xlink:href="classmn_1_1queue_1_1basic__work__queue.html" target="_top" xlink:title=" ">
<polygon fill="white" stroke="black" points="592,-126.5 592,-156.5 721,-156.5 721,-126.5 592,-126.5"/>
<text text-anchor="start" x="600" y="-144.5" font-family="Helvetica,sans-Serif" font-size="10.00">mn::queue::basic_work</text>
<text text-anchor="middle" x="656.5" y="-133.5" font-family="Helvetica,sans-Serif" font-size="10.00">_queue</text>
</a>
</g>
</g>
<!-- Node9&#45;&gt;Node1 -->
<g id="edge9" class="edge">
<title>Node9&#45;&gt;Node1</title>
<path fill="none" stroke="#9a32cd" stroke-dasharray="5,2" d="M731.23,-129.58C778.55,-121.93 839.15,-112.13 883.21,-105.01"/>
<polygon fill="#9a32cd" stroke="#9a32cd" points="730.66,-126.13 721.35,-131.18 731.78,-133.04 730.66,-126.13"/>
<text text-anchor="middle" x="792" y="-130.5" font-family="Helvetica,sans-Serif" font-size="10.00"> m_parentWorkQueue</text>
</g>
<!-- Node10&#45;&gt;Node9 -->
<g id="edge10" class="edge">
<title>Node10&#45;&gt;Node9</title>
<path fill="none" stroke="#9a32cd" stroke-dasharray="5,2" d="M433.89,-173.12C473.68,-168.68 527.04,-162.35 574,-155.5 579.82,-154.65 585.87,-153.71 591.93,-152.74"/>
<polygon fill="#9a32cd" stroke="#9a32cd" points="433.37,-169.65 423.82,-174.23 434.14,-176.61 433.37,-169.65"/>
<text text-anchor="middle" x="522.5" y="-181.5" font-family="Helvetica,sans-Serif" font-size="10.00"> m_ThreadJob</text>
<text text-anchor="middle" x="522.5" y="-170.5" font-family="Helvetica,sans-Serif" font-size="10.00">m_ThreadStatus</text>
</g>
<!-- Node11 -->
<g id="node11" class="node">
<title>Node11</title>
<g id="a_node11"><a xlink:href="classmn_1_1queue_1_1basic__queue.html" target="_top" xlink:title=" ">
<polygon fill="white" stroke="black" points="305.5,-132 305.5,-151 440.5,-151 440.5,-132 305.5,-132"/>
<text text-anchor="middle" x="373" y="-139" font-family="Helvetica,sans-Serif" font-size="10.00">mn::queue::basic_queue</text>
</a>
</g>
</g>
<!-- Node11&#45;&gt;Node9 -->
<g id="edge12" class="edge">
<title>Node11&#45;&gt;Node9</title>
<path fill="none" stroke="#9a32cd" stroke-dasharray="5,2" d="M450.83,-141.5C495.02,-141.5 549.89,-141.5 591.69,-141.5"/>
<polygon fill="#9a32cd" stroke="#9a32cd" points="450.71,-138 440.71,-141.5 450.71,-145 450.71,-138"/>
<text text-anchor="middle" x="522.5" y="-144.5" font-family="Helvetica,sans-Serif" font-size="10.00"> m_pWorkItemQueue</text>
</g>
</g>
</svg>
