<?xml version="1.0" encoding="UTF-8" standalone="no"?>
<!DOCTYPE svg PUBLIC "-//W3C//DTD SVG 1.1//EN"
 "http://www.w3.org/Graphics/SVG/1.1/DTD/svg11.dtd">
<!-- Generated by graphviz version 2.44.1 (0)
 -->
<!-- Title: ISystemLockObject Pages: 1 -->
<svg width="385pt" height="127pt"
 viewBox="0.00 0.00 385.00 126.50" xmlns="http://www.w3.org/2000/svg" xmlns:xlink="http://www.w3.org/1999/xlink">
<g id="graph0" class="graph" transform="scale(1 1) rotate(0) translate(4 122.5)">
<title>ISystemLockObject</title>
<polygon fill="white" stroke="transparent" points="-4,4 -4,-122.5 381,-122.5 381,4 -4,4"/>
<!-- Node1 -->
<g id="node1" class="node">
<title>Node1</title>
<g id="a_node1"><a xlink:title=" ">
<polygon fill="#bfbfbf" stroke="black" points="110,-55 110,-74 220,-74 220,-55 110,-55"/>
<text text-anchor="middle" x="165" y="-62" font-family="Helvetica,sans-Serif" font-size="10.00">ISystemLockObject</text>
</a>
</g>
</g>
<!-- Node3 -->
<g id="node3" class="node">
<title>Node3</title>
<g id="a_node3"><a xlink:href="classbasic__critical__section.html" target="_top" xlink:title=" ">
<polygon fill="white" stroke="black" points="256,-99 256,-118 377,-118 377,-99 256,-99"/>
<text text-anchor="middle" x="316.5" y="-106" font-family="Helvetica,sans-Serif" font-size="10.00">basic_critical_section</text>
</a>
</g>
</g>
<!-- Node1&#45;&gt;Node3 -->
<g id="edge2" class="edge">
<title>Node1&#45;&gt;Node3</title>
<path fill="none" stroke="midnightblue" d="M208.25,-76.93C232,-83.93 261.2,-92.52 283.12,-98.97"/>
<polygon fill="midnightblue" stroke="midnightblue" points="209.02,-73.51 198.44,-74.05 207.04,-80.23 209.02,-73.51"/>
</g>
<!-- Node4 -->
<g id="node4" class="node">
<title>Node4</title>
<g id="a_node4"><a xlink:href="classbasic__critical__section__nested.html" target="_top" xlink:title=" ">
<polygon fill="white" stroke="black" points="256,-49.5 256,-79.5 377,-79.5 377,-49.5 256,-49.5"/>
<text text-anchor="start" x="264" y="-67.5" font-family="Helvetica,sans-Serif" font-size="10.00">basic_critical_section</text>
<text text-anchor="middle" x="316.5" y="-56.5" font-family="Helvetica,sans-Serif" font-size="10.00">_nested</text>
</a>
</g>
</g>
<!-- Node1&#45;&gt;Node4 -->
<g id="edge3" class="edge">
<title>Node1&#45;&gt;Node4</title>
<path fill="none" stroke="midnightblue" d="M230.53,-64.5C238.94,-64.5 247.52,-64.5 255.84,-64.5"/>
<polygon fill="midnightblue" stroke="midnightblue" points="230.4,-61 220.4,-64.5 230.4,-68 230.4,-61"/>
</g>
<!-- Node5 -->
<g id="node5" class="node">
<title>Node5</title>
<g id="a_node5"><a xlink:href="classbasic__critical__section__timedout.html" target="_top" xlink:title=" ">
<polygon fill="white" stroke="black" points="256,-0.5 256,-30.5 377,-30.5 377,-0.5 256,-0.5"/>
<text text-anchor="start" x="264" y="-18.5" font-family="Helvetica,sans-Serif" font-size="10.00">basic_critical_section</text>
<text text-anchor="middle" x="316.5" y="-7.5" font-family="Helvetica,sans-Serif" font-size="10.00">_timedout</text>
</a>
</g>
</g>
<!-- Node1&#45;&gt;Node5 -->
<g id="edge4" class="edge">
<title>Node1&#45;&gt;Node5</title>
<path fill="none" stroke="midnightblue" d="M204.81,-51.78C224.63,-45.28 248.88,-37.34 269.62,-30.54"/>
<polygon fill="midnightblue" stroke="midnightblue" points="203.59,-48.5 195.18,-54.94 205.77,-55.15 203.59,-48.5"/>
</g>
<!-- Node2 -->
<g id="node2" class="node">
<title>Node2</title>
<g id="a_node2"><a xlink:href="class_i_lock_object.html" target="_top" xlink:title=" ">
<polygon fill="white" stroke="black" points="0,-55 0,-74 74,-74 74,-55 0,-55"/>
<text text-anchor="middle" x="37" y="-62" font-family="Helvetica,sans-Serif" font-size="10.00">ILockObject</text>
</a>
</g>
</g>
<!-- Node2&#45;&gt;Node1 -->
<g id="edge1" class="edge">
<title>Node2&#45;&gt;Node1</title>
<path fill="none" stroke="midnightblue" d="M84.26,-64.5C92.49,-64.5 101.13,-64.5 109.56,-64.5"/>
<polygon fill="midnightblue" stroke="midnightblue" points="84.11,-61 74.11,-64.5 84.11,-68 84.11,-61"/>
</g>
</g>
</svg>
