<?xml version="1.0" encoding="UTF-8" standalone="no"?>
<!DOCTYPE svg PUBLIC "-//W3C//DTD SVG 1.1//EN"
 "http://www.w3.org/Graphics/SVG/1.1/DTD/svg11.dtd">
<!-- Generated by graphviz version 2.47.3 (0)
 -->
<!-- Title: mn::device::basic_wifi_ap Pages: 1 -->
<svg width="303pt" height="218pt"
 viewBox="0.00 0.00 303.00 218.00" xmlns="http://www.w3.org/2000/svg" xmlns:xlink="http://www.w3.org/1999/xlink">
<g id="graph0" class="graph" transform="scale(1 1) rotate(0) translate(4 214)">
<title>mn::device::basic_wifi_ap</title>
<polygon fill="white" stroke="transparent" points="-4,4 -4,-214 299,-214 299,4 -4,4"/>
<!-- Node1 -->
<g id="node1" class="node">
<title>Node1</title>
<g id="a_node1"><a xlink:title="Wifi AP class for the esp32.">
<polygon fill="#bfbfbf" stroke="black" points="73.5,-0.5 73.5,-19.5 215.5,-19.5 215.5,-0.5 73.5,-0.5"/>
<text text-anchor="middle" x="144.5" y="-7.5" font-family="Helvetica,sans-Serif" font-size="10.00">mn::device::basic_wifi_ap</text>
</a>
</g>
</g>
<!-- Node2 -->
<g id="node2" class="node">
<title>Node2</title>
<g id="a_node2"><a xlink:href="classmn_1_1device_1_1basic__wifi.html" target="_top" xlink:title="A basic class for wifi.">
<polygon fill="white" stroke="black" points="5,-62 5,-81 130,-81 130,-62 5,-62"/>
<text text-anchor="middle" x="67.5" y="-69" font-family="Helvetica,sans-Serif" font-size="10.00">mn::device::basic_wifi</text>
</a>
</g>
</g>
<!-- Node2&#45;&gt;Node1 -->
<g id="edge1" class="edge">
<title>Node2&#45;&gt;Node1</title>
<path fill="none" stroke="midnightblue" d="M86.53,-55.79C101.3,-44.38 121.26,-28.96 133.49,-19.51"/>
<polygon fill="midnightblue" stroke="midnightblue" points="84.31,-53.09 78.53,-61.98 88.59,-58.63 84.31,-53.09"/>
</g>
<!-- Node3 -->
<g id="node3" class="node">
<title>Node3</title>
<g id="a_node3"><a xlink:href="classmn_1_1device_1_1basic__wifi__net__if.html" target="_top" xlink:title="Wrapper basic WiFi class around esp&#45;idf implementation of a esp&#45;netif device.">
<polygon fill="white" stroke="black" points="5,-123.5 5,-153.5 130,-153.5 130,-123.5 5,-123.5"/>
<text text-anchor="start" x="13" y="-141.5" font-family="Helvetica,sans-Serif" font-size="10.00">mn::device::basic_wifi</text>
<text text-anchor="middle" x="67.5" y="-130.5" font-family="Helvetica,sans-Serif" font-size="10.00">_net_if</text>
</a>
</g>
</g>
<!-- Node3&#45;&gt;Node2 -->
<g id="edge2" class="edge">
<title>Node3&#45;&gt;Node2</title>
<path fill="none" stroke="midnightblue" d="M67.5,-113.25C67.5,-102.02 67.5,-89.38 67.5,-81.19"/>
<polygon fill="midnightblue" stroke="midnightblue" points="64,-113.4 67.5,-123.4 71,-113.4 64,-113.4"/>
</g>
<!-- Node4 -->
<g id="node4" class="node">
<title>Node4</title>
<g id="a_node4"><a xlink:href="classmn_1_1device_1_1basic__net__if.html" target="_top" xlink:title="Wrapper class around esp&#45;idf implementation of a esp&#45;netif device.">
<polygon fill="white" stroke="black" points="0,-190.5 0,-209.5 135,-209.5 135,-190.5 0,-190.5"/>
<text text-anchor="middle" x="67.5" y="-197.5" font-family="Helvetica,sans-Serif" font-size="10.00">mn::device::basic_net_if</text>
</a>
</g>
</g>
<!-- Node4&#45;&gt;Node3 -->
<g id="edge3" class="edge">
<title>Node4&#45;&gt;Node3</title>
<path fill="none" stroke="midnightblue" d="M67.5,-180.23C67.5,-171.59 67.5,-161.5 67.5,-153.52"/>
<polygon fill="midnightblue" stroke="midnightblue" points="64,-180.48 67.5,-190.48 71,-180.48 64,-180.48"/>
</g>
<!-- Node5 -->
<g id="node5" class="node">
<title>Node5</title>
<g id="a_node5"><a xlink:href="classmn_1_1device_1_1basic__network__device.html" target="_top" xlink:title=" ">
<polygon fill="white" stroke="black" points="148,-56.5 148,-86.5 295,-86.5 295,-56.5 148,-56.5"/>
<text text-anchor="start" x="156" y="-74.5" font-family="Helvetica,sans-Serif" font-size="10.00">mn::device::basic_network</text>
<text text-anchor="middle" x="221.5" y="-63.5" font-family="Helvetica,sans-Serif" font-size="10.00">_device</text>
</a>
</g>
</g>
<!-- Node5&#45;&gt;Node1 -->
<g id="edge4" class="edge">
<title>Node5&#45;&gt;Node1</title>
<path fill="none" stroke="midnightblue" d="M195.21,-50.19C181.73,-39.77 166.02,-27.63 155.7,-19.66"/>
<polygon fill="midnightblue" stroke="midnightblue" points="193.2,-53.05 203.25,-56.4 197.48,-47.52 193.2,-53.05"/>
</g>
<!-- Node6 -->
<g id="node6" class="node">
<title>Node6</title>
<g id="a_node6"><a xlink:href="classmn_1_1device_1_1basic__device.html" target="_top" xlink:title=" ">
<polygon fill="white" stroke="black" points="151.5,-129 151.5,-148 291.5,-148 291.5,-129 151.5,-129"/>
<text text-anchor="middle" x="221.5" y="-136" font-family="Helvetica,sans-Serif" font-size="10.00">mn::device::basic_device</text>
</a>
</g>
</g>
<!-- Node6&#45;&gt;Node5 -->
<g id="edge5" class="edge">
<title>Node6&#45;&gt;Node5</title>
<path fill="none" stroke="midnightblue" d="M221.5,-118.41C221.5,-108.22 221.5,-95.9 221.5,-86.59"/>
<polygon fill="midnightblue" stroke="midnightblue" points="218,-118.73 221.5,-128.73 225,-118.73 218,-118.73"/>
</g>
</g>
</svg>
