<?xml version="1.0" encoding="UTF-8" standalone="no"?>
<!DOCTYPE svg PUBLIC "-//W3C//DTD SVG 1.1//EN"
 "http://www.w3.org/Graphics/SVG/1.1/DTD/svg11.dtd">
<!-- Generated by graphviz version 2.47.3 (0)
 -->
<!-- Title: mn::net::basic_net_if Pages: 1 -->
<svg width="251pt" height="218pt"
 viewBox="0.00 0.00 250.50 218.00" xmlns="http://www.w3.org/2000/svg" xmlns:xlink="http://www.w3.org/1999/xlink">
<g id="graph0" class="graph" transform="scale(1 1) rotate(0) translate(4 214)">
<title>mn::net::basic_net_if</title>
<polygon fill="white" stroke="transparent" points="-4,4 -4,-214 246.5,-214 246.5,4 -4,4"/>
<!-- Node1 -->
<g id="node1" class="node">
<title>Node1</title>
<g id="a_node1"><a xlink:title="Wrapper class around esp&#45;idf implementation of a esp&#45;netif device.">
<polygon fill="#bfbfbf" stroke="black" points="66,-190.5 66,-209.5 185,-209.5 185,-190.5 66,-190.5"/>
<text text-anchor="middle" x="125.5" y="-197.5" font-family="Helvetica,sans-Serif" font-size="10.00">mn::net::basic_net_if</text>
</a>
</g>
</g>
<!-- Node2 -->
<g id="node2" class="node">
<title>Node2</title>
<g id="a_node2"><a xlink:href="classmn_1_1net_1_1basic__wifi__net__if.html" target="_top" xlink:title="Wrapper basic WiFi class around esp&#45;idf implementation of a esp&#45;netif device.">
<polygon fill="white" stroke="black" points="71.5,-123.5 71.5,-153.5 179.5,-153.5 179.5,-123.5 71.5,-123.5"/>
<text text-anchor="start" x="79.5" y="-141.5" font-family="Helvetica,sans-Serif" font-size="10.00">mn::net::basic_wifi</text>
<text text-anchor="middle" x="125.5" y="-130.5" font-family="Helvetica,sans-Serif" font-size="10.00">_net_if</text>
</a>
</g>
</g>
<!-- Node1&#45;&gt;Node2 -->
<g id="edge1" class="edge">
<title>Node1&#45;&gt;Node2</title>
<path fill="none" stroke="midnightblue" d="M125.5,-180.23C125.5,-171.59 125.5,-161.5 125.5,-153.52"/>
<polygon fill="midnightblue" stroke="midnightblue" points="122,-180.48 125.5,-190.48 129,-180.48 122,-180.48"/>
</g>
<!-- Node3 -->
<g id="node3" class="node">
<title>Node3</title>
<g id="a_node3"><a xlink:href="classmn_1_1net_1_1basic__wifi.html" target="_top" xlink:title="A basic class for wifi.">
<polygon fill="white" stroke="black" points="8.5,-62 8.5,-81 116.5,-81 116.5,-62 8.5,-62"/>
<text text-anchor="middle" x="62.5" y="-69" font-family="Helvetica,sans-Serif" font-size="10.00">mn::net::basic_wifi</text>
</a>
</g>
</g>
<!-- Node2&#45;&gt;Node3 -->
<g id="edge2" class="edge">
<title>Node2&#45;&gt;Node3</title>
<path fill="none" stroke="midnightblue" d="M104.66,-116C93.16,-104.13 79.51,-90.05 70.93,-81.19"/>
<polygon fill="midnightblue" stroke="midnightblue" points="102.36,-118.65 111.83,-123.4 107.38,-113.78 102.36,-118.65"/>
</g>
<!-- Node5 -->
<g id="node5" class="node">
<title>Node5</title>
<g id="a_node5"><a xlink:href="classmn_1_1net_1_1basic__wifi__sta__net__if.html" target="_top" xlink:title="Basic class for esp32 wifi in station mode.">
<polygon fill="white" stroke="black" points="134.5,-56.5 134.5,-86.5 242.5,-86.5 242.5,-56.5 134.5,-56.5"/>
<text text-anchor="start" x="142.5" y="-74.5" font-family="Helvetica,sans-Serif" font-size="10.00">mn::net::basic_wifi</text>
<text text-anchor="middle" x="188.5" y="-63.5" font-family="Helvetica,sans-Serif" font-size="10.00">_sta_net_if</text>
</a>
</g>
</g>
<!-- Node2&#45;&gt;Node5 -->
<g id="edge4" class="edge">
<title>Node2&#45;&gt;Node5</title>
<path fill="none" stroke="midnightblue" d="M146.31,-116.02C155.7,-106.34 166.52,-95.17 174.86,-86.58"/>
<polygon fill="midnightblue" stroke="midnightblue" points="143.62,-113.78 139.17,-123.4 148.64,-118.65 143.62,-113.78"/>
</g>
<!-- Node4 -->
<g id="node4" class="node">
<title>Node4</title>
<g id="a_node4"><a xlink:href="classmn_1_1net_1_1basic__wifi__ap.html" target="_top" xlink:title="Wifi AP class for the esp32.">
<polygon fill="white" stroke="black" points="0,-0.5 0,-19.5 125,-19.5 125,-0.5 0,-0.5"/>
<text text-anchor="middle" x="62.5" y="-7.5" font-family="Helvetica,sans-Serif" font-size="10.00">mn::net::basic_wifi_ap</text>
</a>
</g>
</g>
<!-- Node3&#45;&gt;Node4 -->
<g id="edge3" class="edge">
<title>Node3&#45;&gt;Node4</title>
<path fill="none" stroke="midnightblue" d="M62.5,-51.82C62.5,-41 62.5,-27.9 62.5,-19.51"/>
<polygon fill="midnightblue" stroke="midnightblue" points="59,-51.98 62.5,-61.98 66,-51.98 59,-51.98"/>
</g>
</g>
</svg>
