<?xml version="1.0" encoding="UTF-8" standalone="no"?>
<!DOCTYPE svg PUBLIC "-//W3C//DTD SVG 1.1//EN"
 "http://www.w3.org/Graphics/SVG/1.1/DTD/svg11.dtd">
<!-- Generated by graphviz version 2.46.0 (0)
 -->
<!-- Title: mn::pointer::basic_linked_ptr&lt; T &gt; Pages: 1 -->
<svg width="289pt" height="107pt"
 viewBox="0.00 0.00 288.50 107.00" xmlns="http://www.w3.org/2000/svg" xmlns:xlink="http://www.w3.org/1999/xlink">
<g id="graph0" class="graph" transform="scale(1 1) rotate(0) translate(4 103)">
<title>mn::pointer::basic_linked_ptr&lt; T &gt;</title>
<polygon fill="white" stroke="transparent" points="-4,4 -4,-103 284.5,-103 284.5,4 -4,4"/>
<!-- Node1 -->
<g id="node1" class="node">
<title>Node1</title>
<g id="a_node1"><a xlink:title="This class implements a basic_linked_ptr template that it allows sharing of pointers between instance...">
<polygon fill="#bfbfbf" stroke="black" points="86,-0.5 86,-30.5 190,-30.5 190,-0.5 86,-0.5"/>
<text text-anchor="start" x="94" y="-18.5" font-family="Helvetica,sans-Serif" font-size="10.00">mn::pointer::basic</text>
<text text-anchor="middle" x="138" y="-7.5" font-family="Helvetica,sans-Serif" font-size="10.00">_linked_ptr&lt; T &gt;</text>
</a>
</g>
</g>
<!-- Node2 -->
<g id="node2" class="node">
<title>Node2</title>
<g id="a_node2"><a xlink:href="structmn_1_1pointer_1_1basic__linked__ptr__node.html" target="_top" xlink:title="This class allows basic_linked_ptr&lt;T&gt; and basic_linked_ptr to share the same base nodes.">
<polygon fill="white" stroke="black" points="0,-68.5 0,-98.5 104,-98.5 104,-68.5 0,-68.5"/>
<text text-anchor="start" x="8" y="-86.5" font-family="Helvetica,sans-Serif" font-size="10.00">mn::pointer::basic</text>
<text text-anchor="middle" x="52" y="-75.5" font-family="Helvetica,sans-Serif" font-size="10.00">_linked_ptr_node</text>
</a>
</g>
</g>
<!-- Node2&#45;&gt;Node1 -->
<g id="edge1" class="edge">
<title>Node2&#45;&gt;Node1</title>
<path fill="none" stroke="midnightblue" d="M78.96,-61.81C92.21,-51.64 107.83,-39.66 119.67,-30.57"/>
<polygon fill="midnightblue" stroke="midnightblue" points="76.46,-59.31 70.66,-68.18 80.72,-64.87 76.46,-59.31"/>
</g>
<!-- Node2&#45;&gt;Node2 -->
<g id="edge2" class="edge">
<title>Node2&#45;&gt;Node2</title>
<path fill="none" stroke="#9a32cd" stroke-dasharray="5,2" d="M114.4,-88.27C119.11,-87.21 122,-85.62 122,-83.5 122,-80.11 114.59,-78.08 104.2,-77.39"/>
<polygon fill="#9a32cd" stroke="#9a32cd" points="113.66,-84.84 104.2,-89.61 114.57,-91.78 113.66,-84.84"/>
<text text-anchor="middle" x="135.5" y="-86.5" font-family="Helvetica,sans-Serif" font-size="10.00"> Next</text>
<text text-anchor="middle" x="135.5" y="-75.5" font-family="Helvetica,sans-Serif" font-size="10.00">Prev</text>
</g>
<!-- Node3 -->
<g id="node3" class="node">
<title>Node3</title>
<g id="a_node3"><a xlink:href="structmn_1_1pointer_1_1pointer__ptr.html" target="_top" xlink:title=" ">
<polygon fill="white" stroke="black" points="167.5,-68.5 167.5,-98.5 280.5,-98.5 280.5,-68.5 167.5,-68.5"/>
<text text-anchor="start" x="175.5" y="-86.5" font-family="Helvetica,sans-Serif" font-size="10.00">mn::pointer::pointer</text>
<text text-anchor="middle" x="224" y="-75.5" font-family="Helvetica,sans-Serif" font-size="10.00">_ptr&lt; T &gt;</text>
</a>
</g>
</g>
<!-- Node3&#45;&gt;Node1 -->
<g id="edge3" class="edge">
<title>Node3&#45;&gt;Node1</title>
<path fill="none" stroke="#8b1a1a" d="M197.04,-61.81C183.79,-51.64 168.17,-39.66 156.33,-30.57"/>
<polygon fill="#8b1a1a" stroke="#8b1a1a" points="195.28,-64.87 205.34,-68.18 199.54,-59.31 195.28,-64.87"/>
</g>
</g>
</svg>
