<?xml version="1.0" encoding="UTF-8" standalone="no"?>
<!DOCTYPE svg PUBLIC "-//W3C//DTD SVG 1.1//EN"
 "http://www.w3.org/Graphics/SVG/1.1/DTD/svg11.dtd">
<!-- Generated by graphviz version 2.46.0 (0)
 -->
<!-- Title: test_tasklet Pages: 1 -->
<svg width="132pt" height="277pt"
 viewBox="0.00 0.00 132.00 277.00" xmlns="http://www.w3.org/2000/svg" xmlns:xlink="http://www.w3.org/1999/xlink">
<g id="graph0" class="graph" transform="scale(1 1) rotate(0) translate(4 273)">
<title>test_tasklet</title>
<polygon fill="white" stroke="transparent" points="-4,4 -4,-273 128,-273 128,4 -4,4"/>
<!-- Node1 -->
<g id="node1" class="node">
<title>Node1</title>
<g id="a_node1"><a xlink:title=" ">
<polygon fill="#bfbfbf" stroke="black" points="25,-0.5 25,-19.5 99,-19.5 99,-0.5 25,-0.5"/>
<text text-anchor="middle" x="62" y="-7.5" font-family="Helvetica,sans-Serif" font-size="10.00">test_tasklet</text>
</a>
</g>
</g>
<!-- Node2 -->
<g id="node2" class="node">
<title>Node2</title>
<g id="a_node2"><a xlink:href="classmn_1_1basic__tasklet.html" target="_top" xlink:title=" ">
<polygon fill="white" stroke="black" points="32.5,-57.5 32.5,-76.5 91.5,-76.5 91.5,-57.5 32.5,-57.5"/>
<text text-anchor="middle" x="62" y="-64.5" font-family="Helvetica,sans-Serif" font-size="10.00">tasklet_t</text>
</a>
</g>
</g>
<!-- Node2&#45;&gt;Node1 -->
<g id="edge1" class="edge">
<title>Node2&#45;&gt;Node1</title>
<path fill="none" stroke="midnightblue" d="M62,-47.12C62,-37.82 62,-27.06 62,-19.71"/>
<polygon fill="midnightblue" stroke="midnightblue" points="58.5,-47.41 62,-57.41 65.5,-47.41 58.5,-47.41"/>
</g>
<!-- Node3 -->
<g id="node3" class="node">
<title>Node3</title>
<g id="a_node3"><a xlink:href="classmn_1_1basic__counting__semaphore.html" target="_top" xlink:title=" ">
<polygon fill="white" stroke="black" points="6.5,-124.5 6.5,-154.5 117.5,-154.5 117.5,-124.5 6.5,-124.5"/>
<text text-anchor="start" x="14.5" y="-142.5" font-family="Helvetica,sans-Serif" font-size="10.00">mn::basic_counting</text>
<text text-anchor="middle" x="62" y="-131.5" font-family="Helvetica,sans-Serif" font-size="10.00">_semaphore</text>
</a>
</g>
</g>
<!-- Node3&#45;&gt;Node2 -->
<g id="edge2" class="edge">
<title>Node3&#45;&gt;Node2</title>
<path fill="none" stroke="#9a32cd" stroke-dasharray="5,2" d="M62,-114.09C62,-101.21 62,-86.2 62,-76.89"/>
<polygon fill="#9a32cd" stroke="#9a32cd" points="58.5,-114.23 62,-124.23 65.5,-114.23 58.5,-114.23"/>
<text text-anchor="middle" x="88" y="-98" font-family="Helvetica,sans-Serif" font-size="10.00"> m_ssLock</text>
</g>
<!-- Node4 -->
<g id="node4" class="node">
<title>Node4</title>
<g id="a_node4"><a xlink:href="classmn_1_1basic__semaphore.html" target="_top" xlink:title=" ">
<polygon fill="white" stroke="black" points="0,-192.5 0,-211.5 124,-211.5 124,-192.5 0,-192.5"/>
<text text-anchor="middle" x="62" y="-199.5" font-family="Helvetica,sans-Serif" font-size="10.00">mn::basic_semaphore</text>
</a>
</g>
</g>
<!-- Node4&#45;&gt;Node3 -->
<g id="edge3" class="edge">
<title>Node4&#45;&gt;Node3</title>
<path fill="none" stroke="midnightblue" d="M62,-182.22C62,-173.36 62,-162.96 62,-154.76"/>
<polygon fill="midnightblue" stroke="midnightblue" points="58.5,-182.33 62,-192.33 65.5,-182.33 58.5,-182.33"/>
</g>
<!-- Node5 -->
<g id="node5" class="node">
<title>Node5</title>
<g id="a_node5"><a xlink:href="classmn_1_1_i_lock_object.html" target="_top" xlink:title=" ">
<polygon fill="white" stroke="black" points="14.5,-249.5 14.5,-268.5 109.5,-268.5 109.5,-249.5 14.5,-249.5"/>
<text text-anchor="middle" x="62" y="-256.5" font-family="Helvetica,sans-Serif" font-size="10.00">mn::ILockObject</text>
</a>
</g>
</g>
<!-- Node5&#45;&gt;Node4 -->
<g id="edge4" class="edge">
<title>Node5&#45;&gt;Node4</title>
<path fill="none" stroke="midnightblue" d="M62,-239.12C62,-229.82 62,-219.06 62,-211.71"/>
<polygon fill="midnightblue" stroke="midnightblue" points="58.5,-239.41 62,-249.41 65.5,-239.41 58.5,-239.41"/>
</g>
</g>
</svg>
