<?xml version="1.0" encoding="UTF-8" standalone="no"?>
<!DOCTYPE svg PUBLIC "-//W3C//DTD SVG 1.1//EN"
 "http://www.w3.org/Graphics/SVG/1.1/DTD/svg11.dtd">
<!-- Generated by graphviz version 2.47.3 (0)
 -->
<!-- Title: mn::queue::basic_work_queue_multi Pages: 1 -->
<svg width="1654pt" height="231pt"
 viewBox="0.00 0.00 1654.00 231.00" xmlns="http://www.w3.org/2000/svg" xmlns:xlink="http://www.w3.org/1999/xlink">
<g id="graph0" class="graph" transform="scale(1 1) rotate(0) translate(4 227)">
<title>mn::queue::basic_work_queue_multi</title>
<polygon fill="white" stroke="transparent" points="-4,4 -4,-227 1650,-227 1650,4 -4,4"/>
<!-- Node1 -->
<g id="node1" class="node">
<title>Node1</title>
<g id="a_node1"><a xlink:title=" ">
<polygon fill="#bfbfbf" stroke="black" points="1517,-131 1517,-161 1646,-161 1646,-131 1517,-131"/>
<text text-anchor="start" x="1525" y="-149" font-family="Helvetica,sans-Serif" font-size="10.00">mn::queue::basic_work</text>
<text text-anchor="middle" x="1581.5" y="-138" font-family="Helvetica,sans-Serif" font-size="10.00">_queue_multi</text>
</a>
</g>
</g>
<!-- Node2 -->
<g id="node2" class="node">
<title>Node2</title>
<g id="a_node2"><a xlink:href="classmn_1_1queue_1_1basic__work__queue.html" target="_top" xlink:title=" ">
<polygon fill="white" stroke="black" points="776,-153 776,-183 905,-183 905,-153 776,-153"/>
<text text-anchor="start" x="784" y="-171" font-family="Helvetica,sans-Serif" font-size="10.00">mn::queue::basic_work</text>
<text text-anchor="middle" x="840.5" y="-160" font-family="Helvetica,sans-Serif" font-size="10.00">_queue</text>
</a>
</g>
</g>
<!-- Node2&#45;&gt;Node1 -->
<g id="edge1" class="edge">
<title>Node2&#45;&gt;Node1</title>
<path fill="none" stroke="midnightblue" d="M915.32,-167.39C1037.01,-166.11 1287.34,-162.36 1499,-152 1504.81,-151.72 1510.85,-151.37 1516.9,-150.99"/>
<polygon fill="midnightblue" stroke="midnightblue" points="914.97,-163.89 905.01,-167.49 915.04,-170.89 914.97,-163.89"/>
</g>
<!-- Node9 -->
<g id="node9" class="node">
<title>Node9</title>
<g id="a_node9"><a xlink:href="classmn_1_1queue_1_1work__queue__task.html" target="_top" xlink:title=" ">
<polygon fill="white" stroke="black" points="1047,-114.5 1047,-133.5 1207,-133.5 1207,-114.5 1047,-114.5"/>
<text text-anchor="middle" x="1127" y="-121.5" font-family="Helvetica,sans-Serif" font-size="10.00">mn::queue::work_queue_task</text>
</a>
</g>
</g>
<!-- Node2&#45;&gt;Node9 -->
<g id="edge17" class="edge">
<title>Node2&#45;&gt;Node9</title>
<path fill="none" stroke="#9a32cd" stroke-dasharray="5,2" d="M894.34,-150.08C903.8,-147.37 913.63,-144.86 923,-143 963.45,-134.99 1009.13,-130.34 1046.89,-127.64"/>
<polygon fill="#9a32cd" stroke="#9a32cd" points="893.23,-146.76 884.65,-152.97 895.23,-153.47 893.23,-146.76"/>
<text text-anchor="middle" x="976" y="-146" font-family="Helvetica,sans-Serif" font-size="10.00"> m_parentWorkQueue</text>
</g>
<!-- Node3 -->
<g id="node3" class="node">
<title>Node3</title>
<g id="a_node3"><a xlink:href="classmn_1_1basic__mutex.html" target="_top" xlink:title=" ">
<polygon fill="white" stroke="black" points="506.5,-155.5 506.5,-174.5 607.5,-174.5 607.5,-155.5 506.5,-155.5"/>
<text text-anchor="middle" x="557" y="-162.5" font-family="Helvetica,sans-Serif" font-size="10.00">mn::basic_mutex</text>
</a>
</g>
</g>
<!-- Node3&#45;&gt;Node2 -->
<g id="edge2" class="edge">
<title>Node3&#45;&gt;Node2</title>
<path fill="none" stroke="#9a32cd" stroke-dasharray="5,2" d="M617.9,-165.64C664.37,-166.13 728.64,-166.82 776,-167.32"/>
<polygon fill="#9a32cd" stroke="#9a32cd" points="617.72,-162.14 607.68,-165.53 617.64,-169.14 617.72,-162.14"/>
<text text-anchor="middle" x="706.5" y="-181" font-family="Helvetica,sans-Serif" font-size="10.00"> m_ThreadJob</text>
<text text-anchor="middle" x="706.5" y="-170" font-family="Helvetica,sans-Serif" font-size="10.00">m_ThreadStatus</text>
</g>
<!-- Node4 -->
<g id="node4" class="node">
<title>Node4</title>
<g id="a_node4"><a xlink:href="classmn_1_1basic__semaphore.html" target="_top" xlink:title=" ">
<polygon fill="white" stroke="black" points="308,-116.5 308,-135.5 432,-135.5 432,-116.5 308,-116.5"/>
<text text-anchor="middle" x="370" y="-123.5" font-family="Helvetica,sans-Serif" font-size="10.00">mn::basic_semaphore</text>
</a>
</g>
</g>
<!-- Node4&#45;&gt;Node3 -->
<g id="edge3" class="edge">
<title>Node4&#45;&gt;Node3</title>
<path fill="none" stroke="midnightblue" d="M426.33,-137.66C453.33,-143.36 485.4,-150.12 510.89,-155.49"/>
<polygon fill="midnightblue" stroke="midnightblue" points="426.76,-134.18 416.26,-135.54 425.32,-141.03 426.76,-134.18"/>
</g>
<!-- Node13 -->
<g id="node13" class="node">
<title>Node13</title>
<g id="a_node13"><a xlink:href="classmn_1_1basic__binary__semaphore.html" target="_top" xlink:title=" ">
<polygon fill="white" stroke="black" points="477,-114.5 477,-133.5 637,-133.5 637,-114.5 477,-114.5"/>
<text text-anchor="middle" x="557" y="-121.5" font-family="Helvetica,sans-Serif" font-size="10.00">mn::basic_binary_semaphore</text>
</a>
</g>
</g>
<!-- Node4&#45;&gt;Node13 -->
<g id="edge14" class="edge">
<title>Node4&#45;&gt;Node13</title>
<path fill="none" stroke="midnightblue" d="M442.32,-125.23C453.62,-125.11 465.36,-124.98 476.83,-124.86"/>
<polygon fill="midnightblue" stroke="midnightblue" points="442.05,-121.73 432.09,-125.34 442.13,-128.73 442.05,-121.73"/>
</g>
<!-- Node5 -->
<g id="node5" class="node">
<title>Node5</title>
<g id="a_node5"><a xlink:href="classmn_1_1ILockObject.html" target="_top" xlink:title=" ">
<polygon fill="white" stroke="black" points="168,-72.5 168,-91.5 263,-91.5 263,-72.5 168,-72.5"/>
<text text-anchor="middle" x="215.5" y="-79.5" font-family="Helvetica,sans-Serif" font-size="10.00">mn::ILockObject</text>
</a>
</g>
</g>
<!-- Node5&#45;&gt;Node4 -->
<g id="edge4" class="edge">
<title>Node5&#45;&gt;Node4</title>
<path fill="none" stroke="midnightblue" d="M257.72,-94.54C271.18,-98.58 286.21,-103.04 300,-107 310.99,-110.16 322.99,-113.5 333.86,-116.48"/>
<polygon fill="midnightblue" stroke="midnightblue" points="258.36,-91.08 247.78,-91.54 256.34,-97.78 258.36,-91.08"/>
</g>
<!-- Node6 -->
<g id="node6" class="node">
<title>Node6</title>
<g id="a_node6"><a xlink:title=" ">
<polygon fill="white" stroke="#bfbfbf" points="0,-2.5 0,-21.5 131,-21.5 131,-2.5 0,-2.5"/>
<text text-anchor="middle" x="65.5" y="-9.5" font-family="Helvetica,sans-Serif" font-size="10.00">MN_ONSIGLETN_CLASS</text>
</a>
</g>
</g>
<!-- Node6&#45;&gt;Node5 -->
<g id="edge5" class="edge">
<title>Node6&#45;&gt;Node5</title>
<path fill="none" stroke="#8b1a1a" d="M96.01,-25.96C125.03,-39.68 168.57,-60.28 194,-72.3"/>
<polygon fill="#8b1a1a" stroke="#8b1a1a" points="97.3,-22.7 86.77,-21.59 94.31,-29.03 97.3,-22.7"/>
</g>
<!-- Node10 -->
<g id="node10" class="node">
<title>Node10</title>
<g id="a_node10"><a xlink:href="classmn_1_1basic__task.html" target="_top" xlink:title="Wrapper class around FreeRTOS&#39;s implementation of a task.">
<polygon fill="white" stroke="black" points="795.5,-68.5 795.5,-87.5 885.5,-87.5 885.5,-68.5 795.5,-68.5"/>
<text text-anchor="middle" x="840.5" y="-75.5" font-family="Helvetica,sans-Serif" font-size="10.00">mn::basic_task</text>
</a>
</g>
</g>
<!-- Node6&#45;&gt;Node10 -->
<g id="edge10" class="edge">
<title>Node6&#45;&gt;Node10</title>
<path fill="none" stroke="#8b1a1a" d="M141.44,-3.56C164.81,-1.56 190.7,0 214.5,0 214.5,0 214.5,0 558,0 659.43,0 774.19,-47.61 819.54,-68.44"/>
<polygon fill="#8b1a1a" stroke="#8b1a1a" points="140.89,-0.09 131.25,-4.47 141.52,-7.06 140.89,-0.09"/>
</g>
<!-- Node7 -->
<g id="node7" class="node">
<title>Node7</title>
<g id="a_node7"><a xlink:href="classmn_1_1queue_1_1basic__queue.html" target="_top" xlink:title="Queue class wrapper for FreeRTOS queues.">
<polygon fill="white" stroke="black" points="489.5,-203.5 489.5,-222.5 624.5,-222.5 624.5,-203.5 489.5,-203.5"/>
<text text-anchor="middle" x="557" y="-210.5" font-family="Helvetica,sans-Serif" font-size="10.00">mn::queue::basic_queue</text>
</a>
</g>
</g>
<!-- Node7&#45;&gt;Node2 -->
<g id="edge6" class="edge">
<title>Node7&#45;&gt;Node2</title>
<path fill="none" stroke="#9a32cd" stroke-dasharray="5,2" d="M634.94,-207.53C672.31,-204.12 717.73,-198.84 758,-191 768.82,-188.89 780.3,-186.05 791.12,-183.07"/>
<polygon fill="#9a32cd" stroke="#9a32cd" points="634.28,-204.08 624.63,-208.45 634.9,-211.05 634.28,-204.08"/>
<text text-anchor="middle" x="706.5" y="-208" font-family="Helvetica,sans-Serif" font-size="10.00"> m_pWorkItemQueue</text>
</g>
<!-- Node8 -->
<g id="node8" class="node">
<title>Node8</title>
<g id="a_node8"><a xlink:title=" ">
<polygon fill="white" stroke="#bfbfbf" points="1292,-109 1292,-139 1423,-139 1423,-109 1292,-109"/>
<text text-anchor="start" x="1300" y="-127" font-family="Helvetica,sans-Serif" font-size="10.00">std::vector&lt; mn::queue</text>
<text text-anchor="middle" x="1357.5" y="-116" font-family="Helvetica,sans-Serif" font-size="10.00">::work_queue_task * &gt;</text>
</a>
</g>
</g>
<!-- Node8&#45;&gt;Node1 -->
<g id="edge7" class="edge">
<title>Node8&#45;&gt;Node1</title>
<path fill="none" stroke="#9a32cd" stroke-dasharray="5,2" d="M1433.25,-131.41C1460.43,-134.1 1490.86,-137.12 1516.98,-139.71"/>
<polygon fill="#9a32cd" stroke="#9a32cd" points="1433.31,-127.9 1423.01,-130.39 1432.62,-134.86 1433.31,-127.9"/>
<text text-anchor="middle" x="1470" y="-140" font-family="Helvetica,sans-Serif" font-size="10.00"> m_Workers</text>
</g>
<!-- Node9&#45;&gt;Node8 -->
<g id="edge8" class="edge">
<title>Node9&#45;&gt;Node8</title>
<path fill="none" stroke="#9a32cd" stroke-dasharray="5,2" d="M1217.42,-124C1242.21,-124 1268.64,-124 1291.73,-124"/>
<polygon fill="#9a32cd" stroke="#9a32cd" points="1217.28,-120.5 1207.28,-124 1217.28,-127.5 1217.28,-120.5"/>
<text text-anchor="middle" x="1249.5" y="-127" font-family="Helvetica,sans-Serif" font-size="10.00"> elements</text>
</g>
<!-- Node10&#45;&gt;Node9 -->
<g id="edge9" class="edge">
<title>Node10&#45;&gt;Node9</title>
<path fill="none" stroke="midnightblue" d="M895.74,-86.77C944.77,-94.7 1016.78,-106.34 1067.18,-114.49"/>
<polygon fill="midnightblue" stroke="midnightblue" points="896.07,-83.28 885.64,-85.14 894.95,-90.19 896.07,-83.28"/>
</g>
<!-- Node11 -->
<g id="node11" class="node">
<title>Node11</title>
<g id="a_node11"><a xlink:href="classmn_1_1basic__event__group.html" target="_top" xlink:title="Wrapper class around FreeRTOS&#39;s implementation of a event_group.">
<polygon fill="white" stroke="black" points="492,-75.5 492,-94.5 622,-94.5 622,-75.5 492,-75.5"/>
<text text-anchor="middle" x="557" y="-82.5" font-family="Helvetica,sans-Serif" font-size="10.00">mn::basic_event_group</text>
</a>
</g>
</g>
<!-- Node11&#45;&gt;Node10 -->
<g id="edge11" class="edge">
<title>Node11&#45;&gt;Node10</title>
<path fill="none" stroke="#9a32cd" stroke-dasharray="5,2" d="M632.23,-79.98C639.91,-79.59 647.61,-79.25 655,-79 703.02,-77.39 758.11,-77.32 795.5,-77.54"/>
<polygon fill="#9a32cd" stroke="#9a32cd" points="631.95,-76.49 622.15,-80.52 632.33,-83.48 631.95,-76.49"/>
<text text-anchor="middle" x="706.5" y="-82" font-family="Helvetica,sans-Serif" font-size="10.00"> m_eventGroup</text>
</g>
<!-- Node12 -->
<g id="node12" class="node">
<title>Node12</title>
<g id="a_node12"><a xlink:title=" ">
<polygon fill="white" stroke="#bfbfbf" points="300,-78.5 300,-97.5 440,-97.5 440,-78.5 300,-78.5"/>
<text text-anchor="middle" x="370" y="-85.5" font-family="Helvetica,sans-Serif" font-size="10.00">MN_ONCOPYABLE_CLASS</text>
</a>
</g>
</g>
<!-- Node12&#45;&gt;Node11 -->
<g id="edge12" class="edge">
<title>Node12&#45;&gt;Node11</title>
<path fill="none" stroke="#8b1a1a" d="M450.18,-86.72C464.08,-86.49 478.39,-86.26 491.82,-86.04"/>
<polygon fill="#8b1a1a" stroke="#8b1a1a" points="450.09,-83.22 440.15,-86.88 450.21,-90.22 450.09,-83.22"/>
</g>
<!-- Node13&#45;&gt;Node10 -->
<g id="edge13" class="edge">
<title>Node13&#45;&gt;Node10</title>
<path fill="none" stroke="#9a32cd" stroke-dasharray="5,2" d="M626.23,-112.85C678.73,-104.27 749.74,-92.67 795.09,-85.26"/>
<polygon fill="#9a32cd" stroke="#9a32cd" points="625.63,-109.4 616.33,-114.47 626.76,-116.31 625.63,-109.4"/>
<text text-anchor="middle" x="706.5" y="-132" font-family="Helvetica,sans-Serif" font-size="10.00"> m_contextMutext</text>
<text text-anchor="middle" x="706.5" y="-121" font-family="Helvetica,sans-Serif" font-size="10.00">m_continuemutex</text>
<text text-anchor="middle" x="706.5" y="-110" font-family="Helvetica,sans-Serif" font-size="10.00">m_runningMutex</text>
</g>
<!-- Node14 -->
<g id="node14" class="node">
<title>Node14</title>
<g id="a_node14"><a xlink:title=" ">
<polygon fill="white" stroke="#bfbfbf" points="524.5,-34.5 524.5,-53.5 589.5,-53.5 589.5,-34.5 524.5,-34.5"/>
<text text-anchor="middle" x="557" y="-41.5" font-family="Helvetica,sans-Serif" font-size="10.00">std::string</text>
</a>
</g>
</g>
<!-- Node14&#45;&gt;Node10 -->
<g id="edge15" class="edge">
<title>Node14&#45;&gt;Node10</title>
<path fill="none" stroke="#9a32cd" stroke-dasharray="5,2" d="M599.69,-46.48C640.25,-49.2 703.55,-54.23 758,-62 770.13,-63.73 783.19,-66.08 795.23,-68.44"/>
<polygon fill="#9a32cd" stroke="#9a32cd" points="599.85,-42.99 589.64,-45.83 599.39,-49.97 599.85,-42.99"/>
<text text-anchor="middle" x="706.5" y="-65" font-family="Helvetica,sans-Serif" font-size="10.00"> m_strName</text>
</g>
<!-- Node15 -->
<g id="node15" class="node">
<title>Node15</title>
<g id="a_node15"><a xlink:title=" ">
<polygon fill="white" stroke="#bfbfbf" points="318,-29 318,-59 422,-59 422,-29 318,-29"/>
<text text-anchor="start" x="326" y="-47" font-family="Helvetica,sans-Serif" font-size="10.00">std::basic_string&lt;</text>
<text text-anchor="middle" x="370" y="-36" font-family="Helvetica,sans-Serif" font-size="10.00"> Char &gt;</text>
</a>
</g>
</g>
<!-- Node15&#45;&gt;Node14 -->
<g id="edge16" class="edge">
<title>Node15&#45;&gt;Node14</title>
<path fill="none" stroke="midnightblue" d="M432.26,-44C463.05,-44 499.08,-44 524.29,-44"/>
<polygon fill="midnightblue" stroke="midnightblue" points="432.04,-40.5 422.04,-44 432.04,-47.5 432.04,-40.5"/>
</g>
</g>
</svg>
