<?xml version="1.0" encoding="UTF-8" standalone="no"?>
<!DOCTYPE svg PUBLIC "-//W3C//DTD SVG 1.1//EN"
 "http://www.w3.org/Graphics/SVG/1.1/DTD/svg11.dtd">
<!-- Generated by graphviz version 2.47.1 (0)
 -->
<!-- Title: mn::net::basic_multicast_ip6_socket Pages: 1 -->
<svg width="297pt" height="389pt"
 viewBox="0.00 0.00 297.00 389.00" xmlns="http://www.w3.org/2000/svg" xmlns:xlink="http://www.w3.org/1999/xlink">
<g id="graph0" class="graph" transform="scale(1 1) rotate(0) translate(4 385)">
<title>mn::net::basic_multicast_ip6_socket</title>
<polygon fill="white" stroke="transparent" points="-4,4 -4,-385 293,-385 293,4 -4,4"/>
<!-- Node1 -->
<g id="node1" class="node">
<title>Node1</title>
<g id="a_node1"><a xlink:title="A basic_multicast_ip6_socket is a special dgram_ip6_socket that can be used to send packets to and re...">
<polygon fill="#bfbfbf" stroke="black" points="16,-0.5 16,-30.5 153,-30.5 153,-0.5 16,-0.5"/>
<text text-anchor="start" x="24" y="-18.5" font-family="Helvetica,sans-Serif" font-size="10.00">mn::net::basic_multicast</text>
<text text-anchor="middle" x="84.5" y="-7.5" font-family="Helvetica,sans-Serif" font-size="10.00">_ip6_socket</text>
</a>
</g>
</g>
<!-- Node2 -->
<g id="node2" class="node">
<title>Node2</title>
<g id="a_node2"><a xlink:href="classmn_1_1net_1_1basic__dgram__ip6__socket.html" target="_top" xlink:title="Basic dram socket class.">
<polygon fill="white" stroke="black" points="23.5,-68.5 23.5,-98.5 145.5,-98.5 145.5,-68.5 23.5,-68.5"/>
<text text-anchor="start" x="31.5" y="-86.5" font-family="Helvetica,sans-Serif" font-size="10.00">mn::net::basic_dgram</text>
<text text-anchor="middle" x="84.5" y="-75.5" font-family="Helvetica,sans-Serif" font-size="10.00">_ip6_socket</text>
</a>
</g>
</g>
<!-- Node2&#45;&gt;Node1 -->
<g id="edge1" class="edge">
<title>Node2&#45;&gt;Node1</title>
<path fill="none" stroke="midnightblue" d="M84.5,-58.03C84.5,-48.86 84.5,-38.74 84.5,-30.79"/>
<polygon fill="midnightblue" stroke="midnightblue" points="81,-58.18 84.5,-68.18 88,-58.18 81,-58.18"/>
</g>
<!-- Node3 -->
<g id="node3" class="node">
<title>Node3</title>
<g id="a_node3"><a xlink:href="classmn_1_1net_1_1basic__ip6__socket.html" target="_top" xlink:title="This class represents an internet (IP) version 6 host socket.">
<polygon fill="white" stroke="black" points="31.5,-136.5 31.5,-166.5 137.5,-166.5 137.5,-136.5 31.5,-136.5"/>
<text text-anchor="start" x="39.5" y="-154.5" font-family="Helvetica,sans-Serif" font-size="10.00">mn::net::basic_ip6</text>
<text text-anchor="middle" x="84.5" y="-143.5" font-family="Helvetica,sans-Serif" font-size="10.00">_socket</text>
</a>
</g>
</g>
<!-- Node3&#45;&gt;Node2 -->
<g id="edge2" class="edge">
<title>Node3&#45;&gt;Node2</title>
<path fill="none" stroke="midnightblue" d="M84.5,-126.03C84.5,-116.86 84.5,-106.74 84.5,-98.79"/>
<polygon fill="midnightblue" stroke="midnightblue" points="81,-126.18 84.5,-136.18 88,-126.18 81,-126.18"/>
</g>
<!-- Node4 -->
<g id="node4" class="node">
<title>Node4</title>
<g id="a_node4"><a xlink:href="classmn_1_1net_1_1basic__ip__socket.html" target="_top" xlink:title="Wrapper class around lwip implementation of a socket.">
<polygon fill="white" stroke="black" points="0,-220 0,-239 137,-239 137,-220 0,-220"/>
<text text-anchor="middle" x="68.5" y="-227" font-family="Helvetica,sans-Serif" font-size="10.00">mn::net::basic_ip_socket</text>
</a>
</g>
</g>
<!-- Node4&#45;&gt;Node3 -->
<g id="edge3" class="edge">
<title>Node4&#45;&gt;Node3</title>
<path fill="none" stroke="midnightblue" d="M72.44,-209.78C75.26,-196.4 78.99,-178.69 81.55,-166.52"/>
<polygon fill="midnightblue" stroke="midnightblue" points="68.97,-209.28 70.34,-219.78 75.82,-210.72 68.97,-209.28"/>
</g>
<!-- Node5 -->
<g id="node5" class="node">
<title>Node5</title>
<g id="a_node5"><a xlink:href="classmn_1_1net_1_1basic__ip6__endpoint.html" target="_top" xlink:title="This class represents an IPv6 endpoint/socket address.">
<polygon fill="white" stroke="black" points="155.5,-214.5 155.5,-244.5 261.5,-244.5 261.5,-214.5 155.5,-214.5"/>
<text text-anchor="start" x="163.5" y="-232.5" font-family="Helvetica,sans-Serif" font-size="10.00">mn::net::basic_ip6</text>
<text text-anchor="middle" x="208.5" y="-221.5" font-family="Helvetica,sans-Serif" font-size="10.00">_endpoint</text>
</a>
</g>
</g>
<!-- Node5&#45;&gt;Node3 -->
<g id="edge4" class="edge">
<title>Node5&#45;&gt;Node3</title>
<path fill="none" stroke="#9a32cd" stroke-dasharray="5,2" d="M176.92,-209.14C155.23,-195.85 126.95,-178.52 107.41,-166.54"/>
<polygon fill="#9a32cd" stroke="#9a32cd" points="175.11,-212.14 185.47,-214.38 178.77,-206.17 175.11,-212.14"/>
<text text-anchor="middle" x="187" y="-188" font-family="Helvetica,sans-Serif" font-size="10.00"> m_pEndPoint</text>
</g>
<!-- Node6 -->
<g id="node6" class="node">
<title>Node6</title>
<g id="a_node6"><a xlink:href="classmn_1_1net_1_1basic__ip__endpoint.html" target="_top" xlink:title=" ">
<polygon fill="white" stroke="black" points="128,-282.5 128,-323.5 289,-323.5 289,-282.5 128,-282.5"/>
<text text-anchor="start" x="136" y="-311.5" font-family="Helvetica,sans-Serif" font-size="10.00">mn::net::basic_ip_endpoint</text>
<text text-anchor="start" x="136" y="-300.5" font-family="Helvetica,sans-Serif" font-size="10.00">&lt; basic_ip6_address, address</text>
<text text-anchor="middle" x="208.5" y="-289.5" font-family="Helvetica,sans-Serif" font-size="10.00">_family::inet_v6 &gt;</text>
</a>
</g>
</g>
<!-- Node6&#45;&gt;Node5 -->
<g id="edge5" class="edge">
<title>Node6&#45;&gt;Node5</title>
<path fill="none" stroke="midnightblue" d="M208.5,-272.16C208.5,-262.69 208.5,-252.65 208.5,-244.8"/>
<polygon fill="midnightblue" stroke="midnightblue" points="205,-272.46 208.5,-282.46 212,-272.46 205,-272.46"/>
</g>
<!-- Node7 -->
<g id="node7" class="node">
<title>Node7</title>
<g id="a_node7"><a xlink:href="classmn_1_1net_1_1basic__endpoint.html" target="_top" xlink:title="This abstract basic class represents an endpoint/socket address.">
<polygon fill="white" stroke="black" points="141.5,-361.5 141.5,-380.5 275.5,-380.5 275.5,-361.5 141.5,-361.5"/>
<text text-anchor="middle" x="208.5" y="-368.5" font-family="Helvetica,sans-Serif" font-size="10.00">mn::net::basic_endpoint</text>
</a>
</g>
</g>
<!-- Node7&#45;&gt;Node6 -->
<g id="edge6" class="edge">
<title>Node7&#45;&gt;Node6</title>
<path fill="none" stroke="midnightblue" d="M208.5,-351.25C208.5,-342.65 208.5,-332.45 208.5,-323.74"/>
<polygon fill="midnightblue" stroke="midnightblue" points="205,-351.37 208.5,-361.37 212,-351.37 205,-351.37"/>
</g>
</g>
</svg>
