<?xml version="1.0" encoding="UTF-8" standalone="no"?>
<!DOCTYPE svg PUBLIC "-//W3C//DTD SVG 1.1//EN"
 "http://www.w3.org/Graphics/SVG/1.1/DTD/svg11.dtd">
<!-- Generated by graphviz version 2.44.1 (0)
 -->
<!-- Title: basic_autolock&lt; LOCK &gt; Pages: 1 -->
<svg width="146pt" height="209pt"
 viewBox="0.00 0.00 146.00 209.00" xmlns="http://www.w3.org/2000/svg" xmlns:xlink="http://www.w3.org/1999/xlink">
<g id="graph0" class="graph" transform="scale(1 1) rotate(0) translate(4 205)">
<title>basic_autolock&lt; LOCK &gt;</title>
<polygon fill="white" stroke="transparent" points="-4,4 -4,-205 142,-205 142,4 -4,4"/>
<!-- Node1 -->
<g id="node1" class="node">
<title>Node1</title>
<g id="a_node1"><a xlink:title=" ">
<polygon fill="#bfbfbf" stroke="black" points="0,-0.5 0,-19.5 138,-19.5 138,-0.5 0,-0.5"/>
<text text-anchor="middle" x="69" y="-7.5" font-family="Helvetica,sans-Serif" font-size="10.00">basic_autolock&lt; LOCK &gt;</text>
</a>
</g>
</g>
<!-- Node2 -->
<g id="node2" class="node">
<title>Node2</title>
<g id="a_node2"><a xlink:href="classbasic__mutex.html" target="_top" xlink:title=" ">
<polygon fill="white" stroke="black" points="29.5,-67.5 29.5,-86.5 108.5,-86.5 108.5,-67.5 29.5,-67.5"/>
<text text-anchor="middle" x="69" y="-74.5" font-family="Helvetica,sans-Serif" font-size="10.00">basic_mutex</text>
</a>
</g>
</g>
<!-- Node2&#45;&gt;Node1 -->
<g id="edge1" class="edge">
<title>Node2&#45;&gt;Node1</title>
<path fill="none" stroke="#9a32cd" stroke-dasharray="5,2" d="M69,-57.04C69,-44.67 69,-29.12 69,-19.63"/>
<polygon fill="#9a32cd" stroke="#9a32cd" points="65.5,-57.23 69,-67.23 72.5,-57.23 65.5,-57.23"/>
<text text-anchor="middle" x="98" y="-41" font-family="Helvetica,sans-Serif" font-size="10.00"> m_ref_lock</text>
</g>
<!-- Node3 -->
<g id="node3" class="node">
<title>Node3</title>
<g id="a_node3"><a xlink:href="classbasic__semaphore.html" target="_top" xlink:title=" ">
<polygon fill="white" stroke="black" points="18,-124.5 18,-143.5 120,-143.5 120,-124.5 18,-124.5"/>
<text text-anchor="middle" x="69" y="-131.5" font-family="Helvetica,sans-Serif" font-size="10.00">basic_semaphore</text>
</a>
</g>
</g>
<!-- Node3&#45;&gt;Node2 -->
<g id="edge2" class="edge">
<title>Node3&#45;&gt;Node2</title>
<path fill="none" stroke="midnightblue" d="M69,-114.12C69,-104.82 69,-94.06 69,-86.71"/>
<polygon fill="midnightblue" stroke="midnightblue" points="65.5,-114.41 69,-124.41 72.5,-114.41 65.5,-114.41"/>
</g>
<!-- Node4 -->
<g id="node4" class="node">
<title>Node4</title>
<g id="a_node4"><a xlink:href="class_i_lock_object.html" target="_top" xlink:title=" ">
<polygon fill="white" stroke="black" points="32,-181.5 32,-200.5 106,-200.5 106,-181.5 32,-181.5"/>
<text text-anchor="middle" x="69" y="-188.5" font-family="Helvetica,sans-Serif" font-size="10.00">ILockObject</text>
</a>
</g>
</g>
<!-- Node4&#45;&gt;Node3 -->
<g id="edge3" class="edge">
<title>Node4&#45;&gt;Node3</title>
<path fill="none" stroke="midnightblue" d="M69,-171.12C69,-161.82 69,-151.06 69,-143.71"/>
<polygon fill="midnightblue" stroke="midnightblue" points="65.5,-171.41 69,-181.41 72.5,-171.41 65.5,-171.41"/>
</g>
</g>
</svg>
