<?xml version="1.0" encoding="UTF-8" standalone="no"?>
<!DOCTYPE svg PUBLIC "-//W3C//DTD SVG 1.1//EN"
 "http://www.w3.org/Graphics/SVG/1.1/DTD/svg11.dtd">
<!-- Generated by graphviz version 2.46.0 (0)
 -->
<!-- Title: mn::ext::foreign_task Pages: 1 -->
<svg width="272pt" height="301pt"
 viewBox="0.00 0.00 272.00 301.00" xmlns="http://www.w3.org/2000/svg" xmlns:xlink="http://www.w3.org/1999/xlink">
<g id="graph0" class="graph" transform="scale(1 1) rotate(0) translate(4 297)">
<title>mn::ext::foreign_task</title>
<polygon fill="white" stroke="transparent" points="-4,4 -4,-297 268,-297 268,4 -4,4"/>
<!-- Node1 -->
<g id="node1" class="node">
<title>Node1</title>
<g id="a_node1"><a xlink:title=" ">
<polygon fill="#bfbfbf" stroke="black" points="84.5,-0.5 84.5,-19.5 205.5,-19.5 205.5,-0.5 84.5,-0.5"/>
<text text-anchor="middle" x="145" y="-7.5" font-family="Helvetica,sans-Serif" font-size="10.00">mn::ext::foreign_task</text>
</a>
</g>
</g>
<!-- Node2 -->
<g id="node2" class="node">
<title>Node2</title>
<g id="a_node2"><a xlink:href="classmn_1_1basic__task.html" target="_top" xlink:title="Wrapper class around FreeRTOS&#39;s implementation of a task.">
<polygon fill="white" stroke="black" points="100,-58.5 100,-77.5 190,-77.5 190,-58.5 100,-58.5"/>
<text text-anchor="middle" x="145" y="-65.5" font-family="Helvetica,sans-Serif" font-size="10.00">mn::basic_task</text>
</a>
</g>
</g>
<!-- Node2&#45;&gt;Node1 -->
<g id="edge1" class="edge">
<title>Node2&#45;&gt;Node1</title>
<path fill="none" stroke="midnightblue" d="M145,-47.95C145,-38.29 145,-27.03 145,-19.51"/>
<polygon fill="midnightblue" stroke="midnightblue" points="141.5,-48.25 145,-58.25 148.5,-48.25 141.5,-48.25"/>
</g>
<!-- Node2&#45;&gt;Node2 -->
<g id="edge2" class="edge">
<title>Node2&#45;&gt;Node2</title>
<path fill="none" stroke="#9a32cd" stroke-dasharray="5,2" d="M200.26,-72.1C205.03,-71.23 208,-69.86 208,-68 208,-65.02 200.39,-63.31 190.02,-62.87"/>
<polygon fill="#9a32cd" stroke="#9a32cd" points="199.62,-68.65 190.02,-73.13 200.32,-75.61 199.62,-68.65"/>
<text text-anchor="middle" x="234" y="-71" font-family="Helvetica,sans-Serif" font-size="10.00"> m_pChild</text>
<text text-anchor="middle" x="234" y="-60" font-family="Helvetica,sans-Serif" font-size="10.00">m_pParent</text>
</g>
<!-- Node3 -->
<g id="node3" class="node">
<title>Node3</title>
<g id="a_node3"><a xlink:href="classmn_1_1basic__binary__semaphore.html" target="_top" xlink:title=" ">
<polygon fill="white" stroke="black" points="0,-148.5 0,-167.5 160,-167.5 160,-148.5 0,-148.5"/>
<text text-anchor="middle" x="80" y="-155.5" font-family="Helvetica,sans-Serif" font-size="10.00">mn::basic_binary_semaphore</text>
</a>
</g>
</g>
<!-- Node3&#45;&gt;Node2 -->
<g id="edge3" class="edge">
<title>Node3&#45;&gt;Node2</title>
<path fill="none" stroke="#9a32cd" stroke-dasharray="5,2" d="M80.46,-138.34C81.65,-125.57 85,-108.86 94,-97 100.59,-88.31 110.7,-81.97 120.18,-77.54"/>
<polygon fill="#9a32cd" stroke="#9a32cd" points="76.97,-138.15 79.89,-148.33 83.96,-138.55 76.97,-138.15"/>
<text text-anchor="middle" x="139" y="-122" font-family="Helvetica,sans-Serif" font-size="10.00"> m_contextMutext</text>
<text text-anchor="middle" x="139" y="-111" font-family="Helvetica,sans-Serif" font-size="10.00">m_continuemutex</text>
<text text-anchor="middle" x="139" y="-100" font-family="Helvetica,sans-Serif" font-size="10.00">m_runningMutex</text>
</g>
<!-- Node4 -->
<g id="node4" class="node">
<title>Node4</title>
<g id="a_node4"><a xlink:href="classmn_1_1basic__semaphore.html" target="_top" xlink:title=" ">
<polygon fill="white" stroke="black" points="17,-211 17,-230 141,-230 141,-211 17,-211"/>
<text text-anchor="middle" x="79" y="-218" font-family="Helvetica,sans-Serif" font-size="10.00">mn::basic_semaphore</text>
</a>
</g>
</g>
<!-- Node4&#45;&gt;Node3 -->
<g id="edge4" class="edge">
<title>Node4&#45;&gt;Node3</title>
<path fill="none" stroke="midnightblue" d="M79.31,-200.5C79.5,-189.5 79.72,-176.18 79.86,-167.65"/>
<polygon fill="midnightblue" stroke="midnightblue" points="75.81,-200.78 79.14,-210.83 82.81,-200.89 75.81,-200.78"/>
</g>
<!-- Node5 -->
<g id="node5" class="node">
<title>Node5</title>
<g id="a_node5"><a xlink:href="classmn_1_1_i_lock_object.html" target="_top" xlink:title=" ">
<polygon fill="white" stroke="black" points="31.5,-273.5 31.5,-292.5 126.5,-292.5 126.5,-273.5 31.5,-273.5"/>
<text text-anchor="middle" x="79" y="-280.5" font-family="Helvetica,sans-Serif" font-size="10.00">mn::ILockObject</text>
</a>
</g>
</g>
<!-- Node5&#45;&gt;Node4 -->
<g id="edge5" class="edge">
<title>Node5&#45;&gt;Node4</title>
<path fill="none" stroke="midnightblue" d="M79,-263C79,-252 79,-238.68 79,-230.15"/>
<polygon fill="midnightblue" stroke="midnightblue" points="75.5,-263.33 79,-273.33 82.5,-263.33 75.5,-263.33"/>
</g>
<!-- Node6 -->
<g id="node6" class="node">
<title>Node6</title>
<g id="a_node6"><a xlink:title=" ">
<polygon fill="white" stroke="#bfbfbf" points="178.5,-148.5 178.5,-167.5 243.5,-167.5 243.5,-148.5 178.5,-148.5"/>
<text text-anchor="middle" x="211" y="-155.5" font-family="Helvetica,sans-Serif" font-size="10.00">std::string</text>
</a>
</g>
</g>
<!-- Node6&#45;&gt;Node2 -->
<g id="edge6" class="edge">
<title>Node6&#45;&gt;Node2</title>
<path fill="none" stroke="#9a32cd" stroke-dasharray="5,2" d="M205.56,-138.62C201.17,-125.98 194.07,-109.31 184,-97 177.56,-89.13 168.4,-82.4 160.58,-77.51"/>
<polygon fill="#9a32cd" stroke="#9a32cd" points="202.33,-140.03 208.72,-148.48 209,-137.89 202.33,-140.03"/>
<text text-anchor="middle" x="233.5" y="-111" font-family="Helvetica,sans-Serif" font-size="10.00"> m_strName</text>
</g>
<!-- Node7 -->
<g id="node7" class="node">
<title>Node7</title>
<g id="a_node7"><a xlink:title=" ">
<polygon fill="white" stroke="#bfbfbf" points="159,-205.5 159,-235.5 263,-235.5 263,-205.5 159,-205.5"/>
<text text-anchor="start" x="167" y="-223.5" font-family="Helvetica,sans-Serif" font-size="10.00">std::basic_string&lt;</text>
<text text-anchor="middle" x="211" y="-212.5" font-family="Helvetica,sans-Serif" font-size="10.00"> Char &gt;</text>
</a>
</g>
</g>
<!-- Node7&#45;&gt;Node6 -->
<g id="edge7" class="edge">
<title>Node7&#45;&gt;Node6</title>
<path fill="none" stroke="midnightblue" d="M211,-195.35C211,-185.51 211,-174.78 211,-167.54"/>
<polygon fill="midnightblue" stroke="midnightblue" points="207.5,-195.47 211,-205.47 214.5,-195.47 207.5,-195.47"/>
</g>
</g>
</svg>
