<?xml version="1.0" encoding="UTF-8" standalone="no"?>
<!DOCTYPE svg PUBLIC "-//W3C//DTD SVG 1.1//EN"
 "http://www.w3.org/Graphics/SVG/1.1/DTD/svg11.dtd">
<!-- Generated by graphviz version 2.46.0 (0)
 -->
<!-- Title: mn::basic_task Pages: 1 -->
<svg width="272pt" height="244pt"
 viewBox="0.00 0.00 272.00 244.00" xmlns="http://www.w3.org/2000/svg" xmlns:xlink="http://www.w3.org/1999/xlink">
<g id="graph0" class="graph" transform="scale(1 1) rotate(0) translate(4 240)">
<title>mn::basic_task</title>
<polygon fill="white" stroke="transparent" points="-4,4 -4,-240 268,-240 268,4 -4,4"/>
<!-- Node1 -->
<g id="node1" class="node">
<title>Node1</title>
<g id="a_node1"><a xlink:title="Wrapper class around FreeRTOS&#39;s implementation of a task.">
<polygon fill="#bfbfbf" stroke="black" points="100,-1.5 100,-20.5 190,-20.5 190,-1.5 100,-1.5"/>
<text text-anchor="middle" x="145" y="-8.5" font-family="Helvetica,sans-Serif" font-size="10.00">mn::basic_task</text>
</a>
</g>
</g>
<!-- Node1&#45;&gt;Node1 -->
<g id="edge1" class="edge">
<title>Node1&#45;&gt;Node1</title>
<path fill="none" stroke="#9a32cd" stroke-dasharray="5,2" d="M199.9,-17.55C204.88,-16.18 208,-14 208,-11 208,-6.32 200.39,-3.63 190.02,-2.93"/>
<polygon fill="#9a32cd" stroke="#9a32cd" points="199.37,-14.09 190.02,-19.07 200.44,-21.01 199.37,-14.09"/>
<text text-anchor="middle" x="234" y="-14" font-family="Helvetica,sans-Serif" font-size="10.00"> m_pChild</text>
<text text-anchor="middle" x="234" y="-3" font-family="Helvetica,sans-Serif" font-size="10.00">m_pParent</text>
</g>
<!-- Node2 -->
<g id="node2" class="node">
<title>Node2</title>
<g id="a_node2"><a xlink:href="classmn_1_1basic__binary__semaphore.html" target="_top" xlink:title=" ">
<polygon fill="white" stroke="black" points="0,-91.5 0,-110.5 160,-110.5 160,-91.5 0,-91.5"/>
<text text-anchor="middle" x="80" y="-98.5" font-family="Helvetica,sans-Serif" font-size="10.00">mn::basic_binary_semaphore</text>
</a>
</g>
</g>
<!-- Node2&#45;&gt;Node1 -->
<g id="edge2" class="edge">
<title>Node2&#45;&gt;Node1</title>
<path fill="none" stroke="#9a32cd" stroke-dasharray="5,2" d="M80.46,-81.34C81.65,-68.57 85,-51.86 94,-40 100.59,-31.31 110.7,-24.97 120.18,-20.54"/>
<polygon fill="#9a32cd" stroke="#9a32cd" points="76.97,-81.15 79.89,-91.33 83.96,-81.55 76.97,-81.15"/>
<text text-anchor="middle" x="139" y="-65" font-family="Helvetica,sans-Serif" font-size="10.00"> m_contextMutext</text>
<text text-anchor="middle" x="139" y="-54" font-family="Helvetica,sans-Serif" font-size="10.00">m_continuemutex</text>
<text text-anchor="middle" x="139" y="-43" font-family="Helvetica,sans-Serif" font-size="10.00">m_runningMutex</text>
</g>
<!-- Node3 -->
<g id="node3" class="node">
<title>Node3</title>
<g id="a_node3"><a xlink:href="classmn_1_1basic__semaphore.html" target="_top" xlink:title=" ">
<polygon fill="white" stroke="black" points="17,-154 17,-173 141,-173 141,-154 17,-154"/>
<text text-anchor="middle" x="79" y="-161" font-family="Helvetica,sans-Serif" font-size="10.00">mn::basic_semaphore</text>
</a>
</g>
</g>
<!-- Node3&#45;&gt;Node2 -->
<g id="edge3" class="edge">
<title>Node3&#45;&gt;Node2</title>
<path fill="none" stroke="midnightblue" d="M79.31,-143.5C79.5,-132.5 79.72,-119.18 79.86,-110.65"/>
<polygon fill="midnightblue" stroke="midnightblue" points="75.81,-143.78 79.14,-153.83 82.81,-143.89 75.81,-143.78"/>
</g>
<!-- Node4 -->
<g id="node4" class="node">
<title>Node4</title>
<g id="a_node4"><a xlink:href="classmn_1_1ILockObject.html" target="_top" xlink:title=" ">
<polygon fill="white" stroke="black" points="31.5,-216.5 31.5,-235.5 126.5,-235.5 126.5,-216.5 31.5,-216.5"/>
<text text-anchor="middle" x="79" y="-223.5" font-family="Helvetica,sans-Serif" font-size="10.00">mn::ILockObject</text>
</a>
</g>
</g>
<!-- Node4&#45;&gt;Node3 -->
<g id="edge4" class="edge">
<title>Node4&#45;&gt;Node3</title>
<path fill="none" stroke="midnightblue" d="M79,-206C79,-195 79,-181.68 79,-173.15"/>
<polygon fill="midnightblue" stroke="midnightblue" points="75.5,-206.33 79,-216.33 82.5,-206.33 75.5,-206.33"/>
</g>
<!-- Node5 -->
<g id="node5" class="node">
<title>Node5</title>
<g id="a_node5"><a xlink:title=" ">
<polygon fill="white" stroke="#bfbfbf" points="178.5,-91.5 178.5,-110.5 243.5,-110.5 243.5,-91.5 178.5,-91.5"/>
<text text-anchor="middle" x="211" y="-98.5" font-family="Helvetica,sans-Serif" font-size="10.00">std::string</text>
</a>
</g>
</g>
<!-- Node5&#45;&gt;Node1 -->
<g id="edge5" class="edge">
<title>Node5&#45;&gt;Node1</title>
<path fill="none" stroke="#9a32cd" stroke-dasharray="5,2" d="M205.56,-81.62C201.17,-68.98 194.07,-52.31 184,-40 177.56,-32.13 168.4,-25.4 160.58,-20.51"/>
<polygon fill="#9a32cd" stroke="#9a32cd" points="202.33,-83.03 208.72,-91.48 209,-80.89 202.33,-83.03"/>
<text text-anchor="middle" x="233.5" y="-54" font-family="Helvetica,sans-Serif" font-size="10.00"> m_strName</text>
</g>
<!-- Node6 -->
<g id="node6" class="node">
<title>Node6</title>
<g id="a_node6"><a xlink:title=" ">
<polygon fill="white" stroke="#bfbfbf" points="159,-148.5 159,-178.5 263,-178.5 263,-148.5 159,-148.5"/>
<text text-anchor="start" x="167" y="-166.5" font-family="Helvetica,sans-Serif" font-size="10.00">std::basic_string&lt;</text>
<text text-anchor="middle" x="211" y="-155.5" font-family="Helvetica,sans-Serif" font-size="10.00"> Char &gt;</text>
</a>
</g>
</g>
<!-- Node6&#45;&gt;Node5 -->
<g id="edge6" class="edge">
<title>Node6&#45;&gt;Node5</title>
<path fill="none" stroke="midnightblue" d="M211,-138.35C211,-128.51 211,-117.78 211,-110.54"/>
<polygon fill="midnightblue" stroke="midnightblue" points="207.5,-138.47 211,-148.47 214.5,-138.47 207.5,-138.47"/>
</g>
</g>
</svg>
