<?xml version="1.0" encoding="UTF-8" standalone="no"?>
<!DOCTYPE svg PUBLIC "-//W3C//DTD SVG 1.1//EN"
 "http://www.w3.org/Graphics/SVG/1.1/DTD/svg11.dtd">
<!-- Generated by graphviz version 2.46.0 (0)
 -->
<!-- Title: mn::trace::semaphore_trace_item Pages: 1 -->
<svg width="236pt" height="242pt"
 viewBox="0.00 0.00 235.50 242.00" xmlns="http://www.w3.org/2000/svg" xmlns:xlink="http://www.w3.org/1999/xlink">
<g id="graph0" class="graph" transform="scale(1 1) rotate(0) translate(4 238)">
<title>mn::trace::semaphore_trace_item</title>
<polygon fill="white" stroke="transparent" points="-4,4 -4,-238 231.5,-238 231.5,4 -4,4"/>
<!-- Node1 -->
<g id="node1" class="node">
<title>Node1</title>
<g id="a_node1"><a xlink:title=" ">
<polygon fill="#bfbfbf" stroke="black" points="45.5,-0.5 45.5,-30.5 169.5,-30.5 169.5,-0.5 45.5,-0.5"/>
<text text-anchor="start" x="53.5" y="-18.5" font-family="Helvetica,sans-Serif" font-size="10.00">mn::trace::semaphore</text>
<text text-anchor="middle" x="107.5" y="-7.5" font-family="Helvetica,sans-Serif" font-size="10.00">_trace_item</text>
</a>
</g>
</g>
<!-- Node2 -->
<g id="node2" class="node">
<title>Node2</title>
<g id="a_node2"><a xlink:href="classmn_1_1trace_1_1basic__trace__item.html" target="_top" xlink:title=" ">
<polygon fill="white" stroke="black" points="31.5,-68.5 31.5,-87.5 183.5,-87.5 183.5,-68.5 31.5,-68.5"/>
<text text-anchor="middle" x="107.5" y="-75.5" font-family="Helvetica,sans-Serif" font-size="10.00">mn::trace::basic_trace_item</text>
</a>
</g>
</g>
<!-- Node2&#45;&gt;Node1 -->
<g id="edge1" class="edge">
<title>Node2&#45;&gt;Node1</title>
<path fill="none" stroke="midnightblue" d="M107.5,-58.22C107.5,-49.36 107.5,-38.96 107.5,-30.76"/>
<polygon fill="midnightblue" stroke="midnightblue" points="104,-58.33 107.5,-68.33 111,-58.33 104,-58.33"/>
</g>
<!-- Node3 -->
<g id="node3" class="node">
<title>Node3</title>
<g id="a_node3"><a xlink:href="classmn_1_1trace_1_1basic__trace__item.html#structmn_1_1trace_1_1basic__trace__item_1_1time" target="_top" xlink:title=" ">
<polygon fill="white" stroke="black" points="0,-135.5 0,-165.5 125,-165.5 125,-135.5 0,-135.5"/>
<text text-anchor="start" x="8" y="-153.5" font-family="Helvetica,sans-Serif" font-size="10.00">mn::trace::basic_trace</text>
<text text-anchor="middle" x="62.5" y="-142.5" font-family="Helvetica,sans-Serif" font-size="10.00">_item::time</text>
</a>
</g>
</g>
<!-- Node3&#45;&gt;Node2 -->
<g id="edge2" class="edge">
<title>Node3&#45;&gt;Node2</title>
<path fill="none" stroke="#9a32cd" stroke-dasharray="5,2" d="M73.08,-126.05C76.43,-119.39 80.34,-112.25 84.5,-106 88.86,-99.44 94.61,-92.69 99.27,-87.58"/>
<polygon fill="#9a32cd" stroke="#9a32cd" points="69.81,-124.79 68.63,-135.32 76.12,-127.82 69.81,-124.79"/>
<text text-anchor="middle" x="108" y="-109" font-family="Helvetica,sans-Serif" font-size="10.00"> m_tTime</text>
</g>
<!-- Node4 -->
<g id="node4" class="node">
<title>Node4</title>
<g id="a_node4"><a xlink:title=" ">
<polygon fill="white" stroke="#bfbfbf" points="143,-141 143,-160 208,-160 208,-141 143,-141"/>
<text text-anchor="middle" x="175.5" y="-148" font-family="Helvetica,sans-Serif" font-size="10.00">std::string</text>
</a>
</g>
</g>
<!-- Node4&#45;&gt;Node2 -->
<g id="edge3" class="edge">
<title>Node4&#45;&gt;Node2</title>
<path fill="none" stroke="#9a32cd" stroke-dasharray="5,2" d="M159.87,-133.3C146.19,-119.12 126.85,-99.06 115.91,-87.72"/>
<polygon fill="#9a32cd" stroke="#9a32cd" points="157.7,-136.09 167.16,-140.86 162.74,-131.23 157.7,-136.09"/>
<text text-anchor="middle" x="174" y="-109" font-family="Helvetica,sans-Serif" font-size="10.00"> m_strName</text>
</g>
<!-- Node5 -->
<g id="node5" class="node">
<title>Node5</title>
<g id="a_node5"><a xlink:title=" ">
<polygon fill="white" stroke="#bfbfbf" points="123.5,-203.5 123.5,-233.5 227.5,-233.5 227.5,-203.5 123.5,-203.5"/>
<text text-anchor="start" x="131.5" y="-221.5" font-family="Helvetica,sans-Serif" font-size="10.00">std::basic_string&lt;</text>
<text text-anchor="middle" x="175.5" y="-210.5" font-family="Helvetica,sans-Serif" font-size="10.00"> Char &gt;</text>
</a>
</g>
</g>
<!-- Node5&#45;&gt;Node4 -->
<g id="edge4" class="edge">
<title>Node5&#45;&gt;Node4</title>
<path fill="none" stroke="midnightblue" d="M175.5,-192.88C175.5,-181.47 175.5,-168.64 175.5,-160.33"/>
<polygon fill="midnightblue" stroke="midnightblue" points="172,-193.18 175.5,-203.18 179,-193.18 172,-193.18"/>
</g>
</g>
</svg>
