<?xml version="1.0" encoding="UTF-8" standalone="no"?>
<!DOCTYPE svg PUBLIC "-//W3C//DTD SVG 1.1//EN"
 "http://www.w3.org/Graphics/SVG/1.1/DTD/svg11.dtd">
<!-- Generated by graphviz version 2.46.0 (0)
 -->
<!-- Title: mn::queue::basic_work_queue_multi Pages: 1 -->
<svg width="559pt" height="476pt"
 viewBox="0.00 0.00 559.00 476.00" xmlns="http://www.w3.org/2000/svg" xmlns:xlink="http://www.w3.org/1999/xlink">
<g id="graph0" class="graph" transform="scale(1 1) rotate(0) translate(4 472)">
<title>mn::queue::basic_work_queue_multi</title>
<polygon fill="white" stroke="transparent" points="-4,4 -4,-472 555,-472 555,4 -4,4"/>
<!-- Node1 -->
<g id="node1" class="node">
<title>Node1</title>
<g id="a_node1"><a xlink:title=" ">
<polygon fill="#bfbfbf" stroke="black" points="222.5,-0.5 222.5,-30.5 351.5,-30.5 351.5,-0.5 222.5,-0.5"/>
<text text-anchor="start" x="230.5" y="-18.5" font-family="Helvetica,sans-Serif" font-size="10.00">mn::queue::basic_work</text>
<text text-anchor="middle" x="287" y="-7.5" font-family="Helvetica,sans-Serif" font-size="10.00">_queue_multi</text>
</a>
</g>
</g>
<!-- Node2 -->
<g id="node2" class="node">
<title>Node2</title>
<g id="a_node2"><a xlink:href="classmn_1_1queue_1_1basic__work__queue.html" target="_top" xlink:title=" ">
<polygon fill="white" stroke="black" points="268.5,-223.5 268.5,-253.5 397.5,-253.5 397.5,-223.5 268.5,-223.5"/>
<text text-anchor="start" x="276.5" y="-241.5" font-family="Helvetica,sans-Serif" font-size="10.00">mn::queue::basic_work</text>
<text text-anchor="middle" x="333" y="-230.5" font-family="Helvetica,sans-Serif" font-size="10.00">_queue</text>
</a>
</g>
</g>
<!-- Node2&#45;&gt;Node1 -->
<g id="edge1" class="edge">
<title>Node2&#45;&gt;Node1</title>
<path fill="none" stroke="midnightblue" d="M336.61,-213.05C340.98,-175.76 344.96,-103.29 320,-49 316.84,-42.13 311.55,-35.93 306.13,-30.82"/>
<polygon fill="midnightblue" stroke="midnightblue" points="333.08,-213.07 335.27,-223.43 340.02,-213.96 333.08,-213.07"/>
</g>
<!-- Node8 -->
<g id="node8" class="node">
<title>Node8</title>
<g id="a_node8"><a xlink:href="classmn_1_1queue_1_1work__queue__task.html" target="_top" xlink:title=" ">
<polygon fill="white" stroke="black" points="133,-156.5 133,-175.5 293,-175.5 293,-156.5 133,-156.5"/>
<text text-anchor="middle" x="213" y="-163.5" font-family="Helvetica,sans-Serif" font-size="10.00">mn::queue::work_queue_task</text>
</a>
</g>
</g>
<!-- Node2&#45;&gt;Node8 -->
<g id="edge13" class="edge">
<title>Node2&#45;&gt;Node8</title>
<path fill="none" stroke="#9a32cd" stroke-dasharray="5,2" d="M258.7,-224.66C238.43,-219.6 220.31,-213.04 214,-205 207.48,-196.69 208.72,-183.93 210.57,-175.52"/>
<polygon fill="#9a32cd" stroke="#9a32cd" points="257.92,-228.08 268.45,-226.96 259.52,-221.26 257.92,-228.08"/>
<text text-anchor="middle" x="267" y="-197" font-family="Helvetica,sans-Serif" font-size="10.00"> m_parentWorkQueue</text>
</g>
<!-- Node3 -->
<g id="node3" class="node">
<title>Node3</title>
<g id="a_node3"><a xlink:href="classmn_1_1basic__mutex.html" target="_top" xlink:title=" ">
<polygon fill="white" stroke="black" points="281.5,-323.5 281.5,-342.5 382.5,-342.5 382.5,-323.5 281.5,-323.5"/>
<text text-anchor="middle" x="332" y="-330.5" font-family="Helvetica,sans-Serif" font-size="10.00">mn::basic_mutex</text>
</a>
</g>
</g>
<!-- Node3&#45;&gt;Node2 -->
<g id="edge2" class="edge">
<title>Node3&#45;&gt;Node2</title>
<path fill="none" stroke="#9a32cd" stroke-dasharray="5,2" d="M332.2,-313.29C332.39,-295.67 332.67,-269.67 332.85,-253.7"/>
<polygon fill="#9a32cd" stroke="#9a32cd" points="328.7,-313.43 332.09,-323.46 335.7,-313.5 328.7,-313.43"/>
<text text-anchor="middle" x="372" y="-291.5" font-family="Helvetica,sans-Serif" font-size="10.00"> m_ThreadJob</text>
<text text-anchor="middle" x="372" y="-280.5" font-family="Helvetica,sans-Serif" font-size="10.00">m_ThreadStatus</text>
</g>
<!-- Node4 -->
<g id="node4" class="node">
<title>Node4</title>
<g id="a_node4"><a xlink:href="classmn_1_1basic__semaphore.html" target="_top" xlink:title=" ">
<polygon fill="white" stroke="black" points="196,-386 196,-405 320,-405 320,-386 196,-386"/>
<text text-anchor="middle" x="258" y="-393" font-family="Helvetica,sans-Serif" font-size="10.00">mn::basic_semaphore</text>
</a>
</g>
</g>
<!-- Node4&#45;&gt;Node3 -->
<g id="edge3" class="edge">
<title>Node4&#45;&gt;Node3</title>
<path fill="none" stroke="midnightblue" d="M276.69,-379.22C290.84,-367.65 309.78,-352.17 321.42,-342.65"/>
<polygon fill="midnightblue" stroke="midnightblue" points="274.13,-376.79 268.6,-385.83 278.56,-382.21 274.13,-376.79"/>
</g>
<!-- Node10 -->
<g id="node10" class="node">
<title>Node10</title>
<g id="a_node10"><a xlink:href="classmn_1_1basic__binary__semaphore.html" target="_top" xlink:title=" ">
<polygon fill="white" stroke="black" points="103,-323.5 103,-342.5 263,-342.5 263,-323.5 103,-323.5"/>
<text text-anchor="middle" x="183" y="-330.5" font-family="Helvetica,sans-Serif" font-size="10.00">mn::basic_binary_semaphore</text>
</a>
</g>
</g>
<!-- Node4&#45;&gt;Node10 -->
<g id="edge10" class="edge">
<title>Node4&#45;&gt;Node10</title>
<path fill="none" stroke="midnightblue" d="M239.46,-379.55C225.08,-367.94 205.64,-352.26 193.73,-342.65"/>
<polygon fill="midnightblue" stroke="midnightblue" points="237.27,-382.28 247.25,-385.83 241.67,-376.83 237.27,-382.28"/>
</g>
<!-- Node5 -->
<g id="node5" class="node">
<title>Node5</title>
<g id="a_node5"><a xlink:href="classmn_1_1ILockObject.html" target="_top" xlink:title=" ">
<polygon fill="white" stroke="black" points="210.5,-448.5 210.5,-467.5 305.5,-467.5 305.5,-448.5 210.5,-448.5"/>
<text text-anchor="middle" x="258" y="-455.5" font-family="Helvetica,sans-Serif" font-size="10.00">mn::ILockObject</text>
</a>
</g>
</g>
<!-- Node5&#45;&gt;Node4 -->
<g id="edge4" class="edge">
<title>Node5&#45;&gt;Node4</title>
<path fill="none" stroke="midnightblue" d="M258,-438C258,-427 258,-413.68 258,-405.15"/>
<polygon fill="midnightblue" stroke="midnightblue" points="254.5,-438.33 258,-448.33 261.5,-438.33 254.5,-438.33"/>
</g>
<!-- Node6 -->
<g id="node6" class="node">
<title>Node6</title>
<g id="a_node6"><a xlink:href="classmn_1_1queue_1_1basic__queue.html" target="_top" xlink:title="Queue class wrapper for FreeRTOS queues.">
<polygon fill="white" stroke="black" points="400.5,-323.5 400.5,-342.5 535.5,-342.5 535.5,-323.5 400.5,-323.5"/>
<text text-anchor="middle" x="468" y="-330.5" font-family="Helvetica,sans-Serif" font-size="10.00">mn::queue::basic_queue</text>
</a>
</g>
</g>
<!-- Node6&#45;&gt;Node2 -->
<g id="edge5" class="edge">
<title>Node6&#45;&gt;Node2</title>
<path fill="none" stroke="#9a32cd" stroke-dasharray="5,2" d="M456.92,-315.22C447.41,-301.95 432.65,-283.76 416,-272 405.38,-264.5 392.8,-258.42 380.68,-253.64"/>
<polygon fill="#9a32cd" stroke="#9a32cd" points="454.06,-317.24 462.61,-323.49 459.82,-313.27 454.06,-317.24"/>
<text text-anchor="middle" x="499.5" y="-286" font-family="Helvetica,sans-Serif" font-size="10.00"> m_pWorkItemQueue</text>
</g>
<!-- Node7 -->
<g id="node7" class="node">
<title>Node7</title>
<g id="a_node7"><a xlink:title=" ">
<polygon fill="white" stroke="#bfbfbf" points="167.5,-78.5 167.5,-108.5 298.5,-108.5 298.5,-78.5 167.5,-78.5"/>
<text text-anchor="start" x="175.5" y="-96.5" font-family="Helvetica,sans-Serif" font-size="10.00">std::vector&lt; mn::queue</text>
<text text-anchor="middle" x="233" y="-85.5" font-family="Helvetica,sans-Serif" font-size="10.00">::work_queue_task * &gt;</text>
</a>
</g>
</g>
<!-- Node7&#45;&gt;Node1 -->
<g id="edge6" class="edge">
<title>Node7&#45;&gt;Node1</title>
<path fill="none" stroke="#9a32cd" stroke-dasharray="5,2" d="M247.86,-69.58C252.31,-62.89 257.27,-55.59 262,-49 266.4,-42.87 271.44,-36.24 275.84,-30.58"/>
<polygon fill="#9a32cd" stroke="#9a32cd" points="244.74,-67.95 242.16,-78.23 250.59,-71.8 244.74,-67.95"/>
<text text-anchor="middle" x="291" y="-52" font-family="Helvetica,sans-Serif" font-size="10.00"> m_Workers</text>
</g>
<!-- Node8&#45;&gt;Node7 -->
<g id="edge7" class="edge">
<title>Node8&#45;&gt;Node7</title>
<path fill="none" stroke="#9a32cd" stroke-dasharray="5,2" d="M218.22,-146.6C221.59,-134.72 225.91,-119.49 229.01,-108.58"/>
<polygon fill="#9a32cd" stroke="#9a32cd" points="214.81,-145.78 215.45,-156.36 221.55,-147.69 214.81,-145.78"/>
<text text-anchor="middle" x="248.5" y="-130" font-family="Helvetica,sans-Serif" font-size="10.00"> elements</text>
</g>
<!-- Node9 -->
<g id="node9" class="node">
<title>Node9</title>
<g id="a_node9"><a xlink:href="classmn_1_1basic__task.html" target="_top" xlink:title="Wrapper class around FreeRTOS&#39;s implementation of a task.">
<polygon fill="white" stroke="black" points="135,-229 135,-248 225,-248 225,-229 135,-229"/>
<text text-anchor="middle" x="180" y="-236" font-family="Helvetica,sans-Serif" font-size="10.00">mn::basic_task</text>
</a>
</g>
</g>
<!-- Node9&#45;&gt;Node8 -->
<g id="edge8" class="edge">
<title>Node9&#45;&gt;Node8</title>
<path fill="none" stroke="midnightblue" d="M184.58,-219.11C186.9,-211.17 190.06,-201.91 194,-194 197.27,-187.43 202.02,-180.68 205.95,-175.58"/>
<polygon fill="midnightblue" stroke="midnightblue" points="181.18,-218.3 181.96,-228.87 187.94,-220.12 181.18,-218.3"/>
</g>
<!-- Node10&#45;&gt;Node9 -->
<g id="edge9" class="edge">
<title>Node10&#45;&gt;Node9</title>
<path fill="none" stroke="#9a32cd" stroke-dasharray="5,2" d="M182.4,-313.44C181.75,-293.54 180.76,-262.8 180.28,-248.02"/>
<polygon fill="#9a32cd" stroke="#9a32cd" points="178.9,-313.58 182.72,-323.46 185.9,-313.36 178.9,-313.58"/>
<text text-anchor="middle" x="228" y="-297" font-family="Helvetica,sans-Serif" font-size="10.00"> m_contextMutext</text>
<text text-anchor="middle" x="228" y="-286" font-family="Helvetica,sans-Serif" font-size="10.00">m_continuemutex</text>
<text text-anchor="middle" x="228" y="-275" font-family="Helvetica,sans-Serif" font-size="10.00">m_runningMutex</text>
</g>
<!-- Node11 -->
<g id="node11" class="node">
<title>Node11</title>
<g id="a_node11"><a xlink:title=" ">
<polygon fill="white" stroke="#bfbfbf" points="19.5,-323.5 19.5,-342.5 84.5,-342.5 84.5,-323.5 19.5,-323.5"/>
<text text-anchor="middle" x="52" y="-330.5" font-family="Helvetica,sans-Serif" font-size="10.00">std::string</text>
</a>
</g>
</g>
<!-- Node11&#45;&gt;Node9 -->
<g id="edge11" class="edge">
<title>Node11&#45;&gt;Node9</title>
<path fill="none" stroke="#9a32cd" stroke-dasharray="5,2" d="M66.73,-316.21C79.3,-303.31 98.25,-285.13 117,-272 130.61,-262.47 147.39,-253.95 160.2,-248.03"/>
<polygon fill="#9a32cd" stroke="#9a32cd" points="64.18,-313.82 59.8,-323.47 69.24,-318.66 64.18,-313.82"/>
<text text-anchor="middle" x="147.5" y="-286" font-family="Helvetica,sans-Serif" font-size="10.00"> m_strName</text>
</g>
<!-- Node12 -->
<g id="node12" class="node">
<title>Node12</title>
<g id="a_node12"><a xlink:title=" ">
<polygon fill="white" stroke="#bfbfbf" points="0,-380.5 0,-410.5 104,-410.5 104,-380.5 0,-380.5"/>
<text text-anchor="start" x="8" y="-398.5" font-family="Helvetica,sans-Serif" font-size="10.00">std::basic_string&lt;</text>
<text text-anchor="middle" x="52" y="-387.5" font-family="Helvetica,sans-Serif" font-size="10.00"> Char &gt;</text>
</a>
</g>
</g>
<!-- Node12&#45;&gt;Node11 -->
<g id="edge12" class="edge">
<title>Node12&#45;&gt;Node11</title>
<path fill="none" stroke="midnightblue" d="M52,-370.35C52,-360.51 52,-349.78 52,-342.54"/>
<polygon fill="midnightblue" stroke="midnightblue" points="48.5,-370.47 52,-380.47 55.5,-370.47 48.5,-370.47"/>
</g>
</g>
</svg>
