<?xml version="1.0" encoding="UTF-8" standalone="no"?>
<!DOCTYPE svg PUBLIC "-//W3C//DTD SVG 1.1//EN"
 "http://www.w3.org/Graphics/SVG/1.1/DTD/svg11.dtd">
<!-- Generated by graphviz version 2.46.0 (0)
 -->
<!-- Title: mn::ext::basic_convar_task Pages: 1 -->
<svg width="404pt" height="301pt"
 viewBox="0.00 0.00 404.00 301.00" xmlns="http://www.w3.org/2000/svg" xmlns:xlink="http://www.w3.org/1999/xlink">
<g id="graph0" class="graph" transform="scale(1 1) rotate(0) translate(4 297)">
<title>mn::ext::basic_convar_task</title>
<polygon fill="white" stroke="transparent" points="-4,4 -4,-297 400,-297 400,4 -4,4"/>
<!-- Node1 -->
<g id="node1" class="node">
<title>Node1</title>
<g id="a_node1"><a xlink:title=" ">
<polygon fill="#bfbfbf" stroke="black" points="10,-0.5 10,-19.5 160,-19.5 160,-0.5 10,-0.5"/>
<text text-anchor="middle" x="85" y="-7.5" font-family="Helvetica,sans-Serif" font-size="10.00">mn::ext::basic_convar_task</text>
</a>
</g>
</g>
<!-- Node2 -->
<g id="node2" class="node">
<title>Node2</title>
<g id="a_node2"><a xlink:href="classmn_1_1basic__task.html" target="_top" xlink:title="Wrapper class around FreeRTOS&#39;s implementation of a task.">
<polygon fill="white" stroke="black" points="163,-58.5 163,-77.5 253,-77.5 253,-58.5 163,-58.5"/>
<text text-anchor="middle" x="208" y="-65.5" font-family="Helvetica,sans-Serif" font-size="10.00">mn::basic_task</text>
</a>
</g>
</g>
<!-- Node2&#45;&gt;Node1 -->
<g id="edge1" class="edge">
<title>Node2&#45;&gt;Node1</title>
<path fill="none" stroke="midnightblue" d="M179.96,-54.23C156.66,-43.63 124.16,-28.83 103.86,-19.59"/>
<polygon fill="midnightblue" stroke="midnightblue" points="178.77,-57.54 189.32,-58.49 181.67,-51.17 178.77,-57.54"/>
</g>
<!-- Node2&#45;&gt;Node2 -->
<g id="edge3" class="edge">
<title>Node2&#45;&gt;Node2</title>
<path fill="none" stroke="#9a32cd" stroke-dasharray="5,2" d="M263.26,-72.1C268.03,-71.23 271,-69.86 271,-68 271,-65.02 263.39,-63.31 253.02,-62.87"/>
<polygon fill="#9a32cd" stroke="#9a32cd" points="262.62,-68.65 253.02,-73.13 263.32,-75.61 262.62,-68.65"/>
<text text-anchor="middle" x="297" y="-71" font-family="Helvetica,sans-Serif" font-size="10.00"> m_pChild</text>
<text text-anchor="middle" x="297" y="-60" font-family="Helvetica,sans-Serif" font-size="10.00">m_pParent</text>
</g>
<!-- Node3 -->
<g id="node3" class="node">
<title>Node3</title>
<g id="a_node3"><a xlink:href="classmn_1_1basic__event__group.html" target="_top" xlink:title=" ">
<polygon fill="white" stroke="black" points="266,-148.5 266,-167.5 396,-167.5 396,-148.5 266,-148.5"/>
<text text-anchor="middle" x="331" y="-155.5" font-family="Helvetica,sans-Serif" font-size="10.00">mn::basic_event_group</text>
</a>
</g>
</g>
<!-- Node3&#45;&gt;Node2 -->
<g id="edge2" class="edge">
<title>Node3&#45;&gt;Node2</title>
<path fill="none" stroke="#9a32cd" stroke-dasharray="5,2" d="M319.29,-139.83C309.54,-126.62 294.62,-108.71 278,-97 266.02,-88.56 251.12,-82.14 238.15,-77.6"/>
<polygon fill="#9a32cd" stroke="#9a32cd" points="316.52,-141.97 325.17,-148.09 322.22,-137.91 316.52,-141.97"/>
<text text-anchor="middle" x="333" y="-111" font-family="Helvetica,sans-Serif" font-size="10.00"> m_event</text>
</g>
<!-- Node4 -->
<g id="node4" class="node">
<title>Node4</title>
<g id="a_node4"><a xlink:href="classmn_1_1basic__binary__semaphore.html" target="_top" xlink:title=" ">
<polygon fill="white" stroke="black" points="0,-148.5 0,-167.5 160,-167.5 160,-148.5 0,-148.5"/>
<text text-anchor="middle" x="80" y="-155.5" font-family="Helvetica,sans-Serif" font-size="10.00">mn::basic_binary_semaphore</text>
</a>
</g>
</g>
<!-- Node4&#45;&gt;Node1 -->
<g id="edge9" class="edge">
<title>Node4&#45;&gt;Node1</title>
<path fill="none" stroke="#9a32cd" stroke-dasharray="5,2" d="M80.65,-138.12C81.74,-106.27 83.9,-43.07 84.7,-19.83"/>
<polygon fill="#9a32cd" stroke="#9a32cd" points="77.14,-138.19 80.3,-148.3 84.14,-138.43 77.14,-138.19"/>
<text text-anchor="middle" x="114.5" y="-65.5" font-family="Helvetica,sans-Serif" font-size="10.00"> m_waitSem</text>
</g>
<!-- Node4&#45;&gt;Node2 -->
<g id="edge4" class="edge">
<title>Node4&#45;&gt;Node2</title>
<path fill="none" stroke="#9a32cd" stroke-dasharray="5,2" d="M87.09,-138.68C93.15,-125.32 103.1,-107.75 117,-97 130.21,-86.79 147.16,-80.27 162.84,-76.13"/>
<polygon fill="#9a32cd" stroke="#9a32cd" points="83.71,-137.7 83.07,-148.27 90.17,-140.41 83.71,-137.7"/>
<text text-anchor="middle" x="162" y="-122" font-family="Helvetica,sans-Serif" font-size="10.00"> m_contextMutext</text>
<text text-anchor="middle" x="162" y="-111" font-family="Helvetica,sans-Serif" font-size="10.00">m_continuemutex</text>
<text text-anchor="middle" x="162" y="-100" font-family="Helvetica,sans-Serif" font-size="10.00">m_runningMutex</text>
</g>
<!-- Node5 -->
<g id="node5" class="node">
<title>Node5</title>
<g id="a_node5"><a xlink:href="classmn_1_1basic__semaphore.html" target="_top" xlink:title=" ">
<polygon fill="white" stroke="black" points="18,-211 18,-230 142,-230 142,-211 18,-211"/>
<text text-anchor="middle" x="80" y="-218" font-family="Helvetica,sans-Serif" font-size="10.00">mn::basic_semaphore</text>
</a>
</g>
</g>
<!-- Node5&#45;&gt;Node4 -->
<g id="edge5" class="edge">
<title>Node5&#45;&gt;Node4</title>
<path fill="none" stroke="midnightblue" d="M80,-200.5C80,-189.5 80,-176.18 80,-167.65"/>
<polygon fill="midnightblue" stroke="midnightblue" points="76.5,-200.83 80,-210.83 83.5,-200.83 76.5,-200.83"/>
</g>
<!-- Node6 -->
<g id="node6" class="node">
<title>Node6</title>
<g id="a_node6"><a xlink:href="classmn_1_1_i_lock_object.html" target="_top" xlink:title=" ">
<polygon fill="white" stroke="black" points="32.5,-273.5 32.5,-292.5 127.5,-292.5 127.5,-273.5 32.5,-273.5"/>
<text text-anchor="middle" x="80" y="-280.5" font-family="Helvetica,sans-Serif" font-size="10.00">mn::ILockObject</text>
</a>
</g>
</g>
<!-- Node6&#45;&gt;Node5 -->
<g id="edge6" class="edge">
<title>Node6&#45;&gt;Node5</title>
<path fill="none" stroke="midnightblue" d="M80,-263C80,-252 80,-238.68 80,-230.15"/>
<polygon fill="midnightblue" stroke="midnightblue" points="76.5,-263.33 80,-273.33 83.5,-263.33 76.5,-263.33"/>
</g>
<!-- Node7 -->
<g id="node7" class="node">
<title>Node7</title>
<g id="a_node7"><a xlink:title=" ">
<polygon fill="white" stroke="#bfbfbf" points="182.5,-148.5 182.5,-167.5 247.5,-167.5 247.5,-148.5 182.5,-148.5"/>
<text text-anchor="middle" x="215" y="-155.5" font-family="Helvetica,sans-Serif" font-size="10.00">std::string</text>
</a>
</g>
</g>
<!-- Node7&#45;&gt;Node2 -->
<g id="edge7" class="edge">
<title>Node7&#45;&gt;Node2</title>
<path fill="none" stroke="#9a32cd" stroke-dasharray="5,2" d="M213.51,-138.24C212.02,-119.57 209.81,-91.74 208.69,-77.72"/>
<polygon fill="#9a32cd" stroke="#9a32cd" points="210.02,-138.55 214.3,-148.24 217,-137.99 210.02,-138.55"/>
<text text-anchor="middle" x="243.5" y="-111" font-family="Helvetica,sans-Serif" font-size="10.00"> m_strName</text>
</g>
<!-- Node8 -->
<g id="node8" class="node">
<title>Node8</title>
<g id="a_node8"><a xlink:title=" ">
<polygon fill="white" stroke="#bfbfbf" points="163,-205.5 163,-235.5 267,-235.5 267,-205.5 163,-205.5"/>
<text text-anchor="start" x="171" y="-223.5" font-family="Helvetica,sans-Serif" font-size="10.00">std::basic_string&lt;</text>
<text text-anchor="middle" x="215" y="-212.5" font-family="Helvetica,sans-Serif" font-size="10.00"> Char &gt;</text>
</a>
</g>
</g>
<!-- Node8&#45;&gt;Node7 -->
<g id="edge8" class="edge">
<title>Node8&#45;&gt;Node7</title>
<path fill="none" stroke="midnightblue" d="M215,-195.35C215,-185.51 215,-174.78 215,-167.54"/>
<polygon fill="midnightblue" stroke="midnightblue" points="211.5,-195.47 215,-205.47 218.5,-195.47 211.5,-195.47"/>
</g>
</g>
</svg>
