<?xml version="1.0" encoding="UTF-8" standalone="no"?>
<!DOCTYPE svg PUBLIC "-//W3C//DTD SVG 1.1//EN"
 "http://www.w3.org/Graphics/SVG/1.1/DTD/svg11.dtd">
<!-- Generated by graphviz version 2.46.0 (0)
 -->
<!-- Title: mn::basic_auto_ptr_ref&lt; T &gt; Pages: 1 -->
<svg width="146pt" height="106pt"
 viewBox="0.00 0.00 146.00 106.00" xmlns="http://www.w3.org/2000/svg" xmlns:xlink="http://www.w3.org/1999/xlink">
<g id="graph0" class="graph" transform="scale(1 1) rotate(0) translate(4 102)">
<title>mn::basic_auto_ptr_ref&lt; T &gt;</title>
<polygon fill="white" stroke="transparent" points="-4,4 -4,-102 142,-102 142,4 -4,4"/>
<!-- Node1 -->
<g id="node1" class="node">
<title>Node1</title>
<g id="a_node1"><a xlink:title=" ">
<polygon fill="#bfbfbf" stroke="black" points="14,-0.5 14,-30.5 124,-30.5 124,-0.5 14,-0.5"/>
<text text-anchor="start" x="22" y="-18.5" font-family="Helvetica,sans-Serif" font-size="10.00">mn::basic_auto_ptr</text>
<text text-anchor="middle" x="69" y="-7.5" font-family="Helvetica,sans-Serif" font-size="10.00">_ref&lt; T &gt;</text>
</a>
</g>
</g>
<!-- Node2 -->
<g id="node2" class="node">
<title>Node2</title>
<g id="a_node2"><a xlink:href="classmn_1_1basic__auto__ptr__base.html" target="_top" xlink:title=" ">
<polygon fill="white" stroke="black" points="0,-78.5 0,-97.5 138,-97.5 138,-78.5 0,-78.5"/>
<text text-anchor="middle" x="69" y="-85.5" font-family="Helvetica,sans-Serif" font-size="10.00">mn::basic_auto_ptr_base</text>
</a>
</g>
</g>
<!-- Node2&#45;&gt;Node1 -->
<g id="edge1" class="edge">
<title>Node2&#45;&gt;Node1</title>
<path fill="none" stroke="#9a32cd" stroke-dasharray="5,2" d="M69,-68.24C69,-56.41 69,-41.38 69,-30.58"/>
<polygon fill="#9a32cd" stroke="#9a32cd" points="65.5,-68.36 69,-78.36 72.5,-68.36 65.5,-68.36"/>
<text text-anchor="middle" x="85" y="-52" font-family="Helvetica,sans-Serif" font-size="10.00"> m_ref</text>
</g>
</g>
</svg>
