<?xml version="1.0" encoding="UTF-8" standalone="no"?>
<!DOCTYPE svg PUBLIC "-//W3C//DTD SVG 1.1//EN"
 "http://www.w3.org/Graphics/SVG/1.1/DTD/svg11.dtd">
<!-- Generated by graphviz version 2.47.3 (0)
 -->
<!-- Title: mn::basic_task Pages: 1 -->
<svg width="510pt" height="299pt"
 viewBox="0.00 0.00 509.50 299.00" xmlns="http://www.w3.org/2000/svg" xmlns:xlink="http://www.w3.org/1999/xlink">
<g id="graph0" class="graph" transform="scale(1 1) rotate(0) translate(4 295)">
<title>mn::basic_task</title>
<polygon fill="white" stroke="transparent" points="-4,4 -4,-295 505.5,-295 505.5,4 -4,4"/>
<!-- Node1 -->
<g id="node1" class="node">
<title>Node1</title>
<g id="a_node1"><a xlink:title="Wrapper class around FreeRTOS&#39;s implementation of a task.">
<polygon fill="#bfbfbf" stroke="black" points="197.5,-0.5 197.5,-19.5 287.5,-19.5 287.5,-0.5 197.5,-0.5"/>
<text text-anchor="middle" x="242.5" y="-7.5" font-family="Helvetica,sans-Serif" font-size="10.00">mn::basic_task</text>
</a>
</g>
</g>
<!-- Node2 -->
<g id="node2" class="node">
<title>Node2</title>
<g id="a_node2"><a xlink:title=" ">
<polygon fill="white" stroke="#bfbfbf" points="0,-271.5 0,-290.5 131,-290.5 131,-271.5 0,-271.5"/>
<text text-anchor="middle" x="65.5" y="-278.5" font-family="Helvetica,sans-Serif" font-size="10.00">MN_ONSIGLETN_CLASS</text>
</a>
</g>
</g>
<!-- Node2&#45;&gt;Node1 -->
<g id="edge1" class="edge">
<title>Node2&#45;&gt;Node1</title>
<path fill="none" stroke="#8b1a1a" d="M59.37,-261.43C56.41,-250.87 53.5,-237.33 53.5,-225 53.5,-225 53.5,-225 53.5,-98 53.5,-34.97 141.32,-17.44 197.23,-12.67"/>
<polygon fill="#8b1a1a" stroke="#8b1a1a" points="56.08,-262.63 62.35,-271.17 62.78,-260.59 56.08,-262.63"/>
</g>
<!-- Node7 -->
<g id="node7" class="node">
<title>Node7</title>
<g id="a_node7"><a xlink:href="classmn_1_1ILockObject.html" target="_top" xlink:title=" ">
<polygon fill="white" stroke="black" points="92,-214.5 92,-233.5 187,-233.5 187,-214.5 92,-214.5"/>
<text text-anchor="middle" x="139.5" y="-221.5" font-family="Helvetica,sans-Serif" font-size="10.00">mn::ILockObject</text>
</a>
</g>
</g>
<!-- Node2&#45;&gt;Node7 -->
<g id="edge7" class="edge">
<title>Node2&#45;&gt;Node7</title>
<path fill="none" stroke="#8b1a1a" d="M85.3,-265.29C98.85,-255.21 116.38,-242.19 127.77,-233.71"/>
<polygon fill="#8b1a1a" stroke="#8b1a1a" points="83,-262.63 77.06,-271.41 87.18,-268.25 83,-262.63"/>
</g>
<!-- Node3 -->
<g id="node3" class="node">
<title>Node3</title>
<g id="a_node3"><a xlink:href="classmn_1_1basic__event__group.html" target="_top" xlink:title="Wrapper class around FreeRTOS&#39;s implementation of a event_group.">
<polygon fill="white" stroke="black" points="259.5,-89.5 259.5,-108.5 389.5,-108.5 389.5,-89.5 259.5,-89.5"/>
<text text-anchor="middle" x="324.5" y="-96.5" font-family="Helvetica,sans-Serif" font-size="10.00">mn::basic_event_group</text>
</a>
</g>
</g>
<!-- Node3&#45;&gt;Node1 -->
<g id="edge2" class="edge">
<title>Node3&#45;&gt;Node1</title>
<path fill="none" stroke="#9a32cd" stroke-dasharray="5,2" d="M317.09,-80.09C311.09,-67.22 301.65,-50.07 289.5,-38 281.89,-30.44 271.74,-24.26 262.82,-19.73"/>
<polygon fill="#9a32cd" stroke="#9a32cd" points="313.92,-81.57 321.15,-89.32 320.33,-78.76 313.92,-81.57"/>
<text text-anchor="middle" x="350.5" y="-52" font-family="Helvetica,sans-Serif" font-size="10.00"> m_eventGroup</text>
</g>
<!-- Node4 -->
<g id="node4" class="node">
<title>Node4</title>
<g id="a_node4"><a xlink:title=" ">
<polygon fill="white" stroke="#bfbfbf" points="239.5,-152 239.5,-171 379.5,-171 379.5,-152 239.5,-152"/>
<text text-anchor="middle" x="309.5" y="-159" font-family="Helvetica,sans-Serif" font-size="10.00">MN_ONCOPYABLE_CLASS</text>
</a>
</g>
</g>
<!-- Node4&#45;&gt;Node3 -->
<g id="edge3" class="edge">
<title>Node4&#45;&gt;Node3</title>
<path fill="none" stroke="#8b1a1a" d="M314.12,-141.85C316.87,-130.78 320.22,-117.27 322.35,-108.65"/>
<polygon fill="#8b1a1a" stroke="#8b1a1a" points="310.66,-141.28 311.65,-151.83 317.45,-142.97 310.66,-141.28"/>
</g>
<!-- Node5 -->
<g id="node5" class="node">
<title>Node5</title>
<g id="a_node5"><a xlink:href="classmn_1_1basic__binary__semaphore.html" target="_top" xlink:title=" ">
<polygon fill="white" stroke="black" points="81.5,-89.5 81.5,-108.5 241.5,-108.5 241.5,-89.5 81.5,-89.5"/>
<text text-anchor="middle" x="161.5" y="-96.5" font-family="Helvetica,sans-Serif" font-size="10.00">mn::basic_binary_semaphore</text>
</a>
</g>
</g>
<!-- Node5&#45;&gt;Node1 -->
<g id="edge4" class="edge">
<title>Node5&#45;&gt;Node1</title>
<path fill="none" stroke="#9a32cd" stroke-dasharray="5,2" d="M170.01,-80.26C176.76,-67.47 187.09,-50.36 199.5,-38 206.87,-30.66 216.58,-24.35 224.91,-19.68"/>
<polygon fill="#9a32cd" stroke="#9a32cd" points="166.77,-78.91 165.4,-89.42 173.02,-82.06 166.77,-78.91"/>
<text text-anchor="middle" x="244.5" y="-63" font-family="Helvetica,sans-Serif" font-size="10.00"> m_contextMutext</text>
<text text-anchor="middle" x="244.5" y="-52" font-family="Helvetica,sans-Serif" font-size="10.00">m_continuemutex</text>
<text text-anchor="middle" x="244.5" y="-41" font-family="Helvetica,sans-Serif" font-size="10.00">m_runningMutex</text>
</g>
<!-- Node6 -->
<g id="node6" class="node">
<title>Node6</title>
<g id="a_node6"><a xlink:href="classmn_1_1basic__semaphore.html" target="_top" xlink:title=" ">
<polygon fill="white" stroke="black" points="94.5,-152 94.5,-171 218.5,-171 218.5,-152 94.5,-152"/>
<text text-anchor="middle" x="156.5" y="-159" font-family="Helvetica,sans-Serif" font-size="10.00">mn::basic_semaphore</text>
</a>
</g>
</g>
<!-- Node6&#45;&gt;Node5 -->
<g id="edge5" class="edge">
<title>Node6&#45;&gt;Node5</title>
<path fill="none" stroke="midnightblue" d="M158.04,-141.85C158.96,-130.78 160.07,-117.27 160.78,-108.65"/>
<polygon fill="midnightblue" stroke="midnightblue" points="154.55,-141.58 157.22,-151.83 161.53,-142.15 154.55,-141.58"/>
</g>
<!-- Node7&#45;&gt;Node6 -->
<g id="edge6" class="edge">
<title>Node7&#45;&gt;Node6</title>
<path fill="none" stroke="midnightblue" d="M144.64,-204.69C147.77,-193.56 151.62,-179.86 154.07,-171.15"/>
<polygon fill="midnightblue" stroke="midnightblue" points="141.27,-203.76 141.94,-214.33 148.01,-205.65 141.27,-203.76"/>
</g>
<!-- Node8 -->
<g id="node8" class="node">
<title>Node8</title>
<g id="a_node8"><a xlink:title=" ">
<polygon fill="white" stroke="#bfbfbf" points="415,-89.5 415,-108.5 480,-108.5 480,-89.5 415,-89.5"/>
<text text-anchor="middle" x="447.5" y="-96.5" font-family="Helvetica,sans-Serif" font-size="10.00">std::string</text>
</a>
</g>
</g>
<!-- Node8&#45;&gt;Node1 -->
<g id="edge8" class="edge">
<title>Node8&#45;&gt;Node1</title>
<path fill="none" stroke="#9a32cd" stroke-dasharray="5,2" d="M436.47,-80.78C426.65,-66.94 411,-48.19 392.5,-38 360.28,-20.25 318.83,-13.82 287.67,-11.64"/>
<polygon fill="#9a32cd" stroke="#9a32cd" points="433.8,-83.08 442.3,-89.41 439.6,-79.16 433.8,-83.08"/>
<text text-anchor="middle" x="459" y="-52" font-family="Helvetica,sans-Serif" font-size="10.00"> m_strName</text>
</g>
<!-- Node9 -->
<g id="node9" class="node">
<title>Node9</title>
<g id="a_node9"><a xlink:title=" ">
<polygon fill="white" stroke="#bfbfbf" points="397.5,-146.5 397.5,-176.5 501.5,-176.5 501.5,-146.5 397.5,-146.5"/>
<text text-anchor="start" x="405.5" y="-164.5" font-family="Helvetica,sans-Serif" font-size="10.00">std::basic_string&lt;</text>
<text text-anchor="middle" x="449.5" y="-153.5" font-family="Helvetica,sans-Serif" font-size="10.00"> Char &gt;</text>
</a>
</g>
</g>
<!-- Node9&#45;&gt;Node8 -->
<g id="edge9" class="edge">
<title>Node9&#45;&gt;Node8</title>
<path fill="none" stroke="midnightblue" d="M448.7,-136.35C448.38,-126.51 448.02,-115.78 447.78,-108.54"/>
<polygon fill="midnightblue" stroke="midnightblue" points="445.21,-136.59 449.04,-146.47 452.2,-136.36 445.21,-136.59"/>
</g>
</g>
</svg>
