<?xml version="1.0" encoding="UTF-8" standalone="no"?>
<!DOCTYPE svg PUBLIC "-//W3C//DTD SVG 1.1//EN"
 "http://www.w3.org/Graphics/SVG/1.1/DTD/svg11.dtd">
<!-- Generated by graphviz version 2.46.0 (0)
 -->
<!-- Title: mn::queue::basic_work_queue_multi Pages: 1 -->
<svg width="694pt" height="476pt"
 viewBox="0.00 0.00 694.00 476.00" xmlns="http://www.w3.org/2000/svg" xmlns:xlink="http://www.w3.org/1999/xlink">
<g id="graph0" class="graph" transform="scale(1 1) rotate(0) translate(4 472)">
<title>mn::queue::basic_work_queue_multi</title>
<polygon fill="white" stroke="transparent" points="-4,4 -4,-472 690,-472 690,4 -4,4"/>
<!-- Node1 -->
<g id="node1" class="node">
<title>Node1</title>
<g id="a_node1"><a xlink:title=" ">
<polygon fill="#bfbfbf" stroke="black" points="366.5,-0.5 366.5,-30.5 495.5,-30.5 495.5,-0.5 366.5,-0.5"/>
<text text-anchor="start" x="374.5" y="-18.5" font-family="Helvetica,sans-Serif" font-size="10.00">mn::queue::basic_work</text>
<text text-anchor="middle" x="431" y="-7.5" font-family="Helvetica,sans-Serif" font-size="10.00">_queue_multi</text>
</a>
</g>
</g>
<!-- Node2 -->
<g id="node2" class="node">
<title>Node2</title>
<g id="a_node2"><a xlink:href="classmn_1_1queue_1_1basic__work__queue.html" target="_top" xlink:title=" ">
<polygon fill="white" stroke="black" points="413.5,-223.5 413.5,-253.5 542.5,-253.5 542.5,-223.5 413.5,-223.5"/>
<text text-anchor="start" x="421.5" y="-241.5" font-family="Helvetica,sans-Serif" font-size="10.00">mn::queue::basic_work</text>
<text text-anchor="middle" x="478" y="-230.5" font-family="Helvetica,sans-Serif" font-size="10.00">_queue</text>
</a>
</g>
</g>
<!-- Node2&#45;&gt;Node1 -->
<g id="edge1" class="edge">
<title>Node2&#45;&gt;Node1</title>
<path fill="none" stroke="midnightblue" d="M481.45,-213.04C485.58,-175.73 489.11,-103.24 464,-49 460.76,-41.99 455.31,-35.67 449.76,-30.51"/>
<polygon fill="midnightblue" stroke="midnightblue" points="477.92,-213.07 480.18,-223.42 484.86,-213.92 477.92,-213.07"/>
</g>
<!-- Node8 -->
<g id="node8" class="node">
<title>Node8</title>
<g id="a_node8"><a xlink:href="classmn_1_1queue_1_1work__queue__task.html" target="_top" xlink:title=" ">
<polygon fill="white" stroke="black" points="277,-156.5 277,-175.5 437,-175.5 437,-156.5 277,-156.5"/>
<text text-anchor="middle" x="357" y="-163.5" font-family="Helvetica,sans-Serif" font-size="10.00">mn::queue::work_queue_task</text>
</a>
</g>
</g>
<!-- Node2&#45;&gt;Node8 -->
<g id="edge15" class="edge">
<title>Node2&#45;&gt;Node8</title>
<path fill="none" stroke="#9a32cd" stroke-dasharray="5,2" d="M403.36,-224.8C382.81,-219.73 364.39,-213.13 358,-205 351.47,-196.7 352.71,-183.93 354.56,-175.52"/>
<polygon fill="#9a32cd" stroke="#9a32cd" points="402.71,-228.24 413.24,-227.09 404.29,-221.42 402.71,-228.24"/>
<text text-anchor="middle" x="411" y="-197" font-family="Helvetica,sans-Serif" font-size="10.00"> m_parentWorkQueue</text>
</g>
<!-- Node3 -->
<g id="node3" class="node">
<title>Node3</title>
<g id="a_node3"><a xlink:href="classmn_1_1basic__mutex.html" target="_top" xlink:title=" ">
<polygon fill="white" stroke="black" points="563.5,-323.5 563.5,-342.5 664.5,-342.5 664.5,-323.5 563.5,-323.5"/>
<text text-anchor="middle" x="614" y="-330.5" font-family="Helvetica,sans-Serif" font-size="10.00">mn::basic_mutex</text>
</a>
</g>
</g>
<!-- Node3&#45;&gt;Node2 -->
<g id="edge2" class="edge">
<title>Node3&#45;&gt;Node2</title>
<path fill="none" stroke="#9a32cd" stroke-dasharray="5,2" d="M609.31,-313.31C605.06,-300.02 597.5,-282.69 585,-272 572.98,-261.71 557.76,-254.68 542.61,-249.88"/>
<polygon fill="#9a32cd" stroke="#9a32cd" points="606.05,-314.62 612.14,-323.29 612.78,-312.71 606.05,-314.62"/>
<text text-anchor="middle" x="646" y="-291.5" font-family="Helvetica,sans-Serif" font-size="10.00"> m_ThreadJob</text>
<text text-anchor="middle" x="646" y="-280.5" font-family="Helvetica,sans-Serif" font-size="10.00">m_ThreadStatus</text>
</g>
<!-- Node4 -->
<g id="node4" class="node">
<title>Node4</title>
<g id="a_node4"><a xlink:href="classmn_1_1basic__semaphore.html" target="_top" xlink:title=" ">
<polygon fill="white" stroke="black" points="401,-386 401,-405 525,-405 525,-386 401,-386"/>
<text text-anchor="middle" x="463" y="-393" font-family="Helvetica,sans-Serif" font-size="10.00">mn::basic_semaphore</text>
</a>
</g>
</g>
<!-- Node4&#45;&gt;Node3 -->
<g id="edge3" class="edge">
<title>Node4&#45;&gt;Node3</title>
<path fill="none" stroke="midnightblue" d="M493.67,-382.21C522.98,-370.47 566.42,-353.06 592.31,-342.69"/>
<polygon fill="midnightblue" stroke="midnightblue" points="492.3,-378.99 484.31,-385.96 494.9,-385.49 492.3,-378.99"/>
</g>
<!-- Node11 -->
<g id="node11" class="node">
<title>Node11</title>
<g id="a_node11"><a xlink:href="classmn_1_1basic__binary__semaphore.html" target="_top" xlink:title=" ">
<polygon fill="white" stroke="black" points="232,-323.5 232,-342.5 392,-342.5 392,-323.5 232,-323.5"/>
<text text-anchor="middle" x="312" y="-330.5" font-family="Helvetica,sans-Serif" font-size="10.00">mn::basic_binary_semaphore</text>
</a>
</g>
</g>
<!-- Node4&#45;&gt;Node11 -->
<g id="edge12" class="edge">
<title>Node4&#45;&gt;Node11</title>
<path fill="none" stroke="midnightblue" d="M432.33,-382.21C403.02,-370.47 359.58,-353.06 333.69,-342.69"/>
<polygon fill="midnightblue" stroke="midnightblue" points="431.1,-385.49 441.69,-385.96 433.7,-378.99 431.1,-385.49"/>
</g>
<!-- Node5 -->
<g id="node5" class="node">
<title>Node5</title>
<g id="a_node5"><a xlink:href="classmn_1_1_i_lock_object.html" target="_top" xlink:title=" ">
<polygon fill="white" stroke="black" points="415.5,-448.5 415.5,-467.5 510.5,-467.5 510.5,-448.5 415.5,-448.5"/>
<text text-anchor="middle" x="463" y="-455.5" font-family="Helvetica,sans-Serif" font-size="10.00">mn::ILockObject</text>
</a>
</g>
</g>
<!-- Node5&#45;&gt;Node4 -->
<g id="edge4" class="edge">
<title>Node5&#45;&gt;Node4</title>
<path fill="none" stroke="midnightblue" d="M463,-438C463,-427 463,-413.68 463,-405.15"/>
<polygon fill="midnightblue" stroke="midnightblue" points="459.5,-438.33 463,-448.33 466.5,-438.33 459.5,-438.33"/>
</g>
<!-- Node6 -->
<g id="node6" class="node">
<title>Node6</title>
<g id="a_node6"><a xlink:href="classmn_1_1queue_1_1basic__queue.html" target="_top" xlink:title=" ">
<polygon fill="white" stroke="black" points="410.5,-323.5 410.5,-342.5 545.5,-342.5 545.5,-323.5 410.5,-323.5"/>
<text text-anchor="middle" x="478" y="-330.5" font-family="Helvetica,sans-Serif" font-size="10.00">mn::queue::basic_queue</text>
</a>
</g>
</g>
<!-- Node6&#45;&gt;Node2 -->
<g id="edge5" class="edge">
<title>Node6&#45;&gt;Node2</title>
<path fill="none" stroke="#9a32cd" stroke-dasharray="5,2" d="M478,-313.29C478,-295.67 478,-269.67 478,-253.7"/>
<polygon fill="#9a32cd" stroke="#9a32cd" points="474.5,-313.46 478,-323.46 481.5,-313.46 474.5,-313.46"/>
<text text-anchor="middle" x="529.5" y="-286" font-family="Helvetica,sans-Serif" font-size="10.00"> m_pWorkItemQueue</text>
</g>
<!-- Node7 -->
<g id="node7" class="node">
<title>Node7</title>
<g id="a_node7"><a xlink:title=" ">
<polygon fill="white" stroke="#bfbfbf" points="311.5,-78.5 311.5,-108.5 442.5,-108.5 442.5,-78.5 311.5,-78.5"/>
<text text-anchor="start" x="319.5" y="-96.5" font-family="Helvetica,sans-Serif" font-size="10.00">std::vector&lt; mn::queue</text>
<text text-anchor="middle" x="377" y="-85.5" font-family="Helvetica,sans-Serif" font-size="10.00">::work_queue_task * &gt;</text>
</a>
</g>
</g>
<!-- Node7&#45;&gt;Node1 -->
<g id="edge6" class="edge">
<title>Node7&#45;&gt;Node1</title>
<path fill="none" stroke="#9a32cd" stroke-dasharray="5,2" d="M391.86,-69.58C396.31,-62.89 401.27,-55.59 406,-49 410.4,-42.87 415.44,-36.24 419.84,-30.58"/>
<polygon fill="#9a32cd" stroke="#9a32cd" points="388.74,-67.95 386.16,-78.23 394.59,-71.8 388.74,-67.95"/>
<text text-anchor="middle" x="435" y="-52" font-family="Helvetica,sans-Serif" font-size="10.00"> m_Workers</text>
</g>
<!-- Node8&#45;&gt;Node7 -->
<g id="edge7" class="edge">
<title>Node8&#45;&gt;Node7</title>
<path fill="none" stroke="#9a32cd" stroke-dasharray="5,2" d="M362.22,-146.6C365.59,-134.72 369.91,-119.49 373.01,-108.58"/>
<polygon fill="#9a32cd" stroke="#9a32cd" points="358.81,-145.78 359.45,-156.36 365.55,-147.69 358.81,-145.78"/>
<text text-anchor="middle" x="392.5" y="-130" font-family="Helvetica,sans-Serif" font-size="10.00"> elements</text>
</g>
<!-- Node9 -->
<g id="node9" class="node">
<title>Node9</title>
<g id="a_node9"><a xlink:href="classmn_1_1basic__task.html" target="_top" xlink:title="Wrapper class around FreeRTOS&#39;s implementation of a task.">
<polygon fill="white" stroke="black" points="186,-229 186,-248 276,-248 276,-229 186,-229"/>
<text text-anchor="middle" x="231" y="-236" font-family="Helvetica,sans-Serif" font-size="10.00">mn::basic_task</text>
</a>
</g>
</g>
<!-- Node9&#45;&gt;Node8 -->
<g id="edge8" class="edge">
<title>Node9&#45;&gt;Node8</title>
<path fill="none" stroke="midnightblue" d="M255.46,-223.81C280.89,-209.59 319.91,-187.75 341.42,-175.72"/>
<polygon fill="midnightblue" stroke="midnightblue" points="253.47,-220.92 246.45,-228.86 256.89,-227.03 253.47,-220.92"/>
</g>
<!-- Node9&#45;&gt;Node9 -->
<g id="edge10" class="edge">
<title>Node9&#45;&gt;Node9</title>
<path fill="none" stroke="#9a32cd" stroke-dasharray="5,2" d="M286.26,-244.07C291.03,-242.88 294,-241.03 294,-238.5 294,-234.46 286.39,-232.13 276.02,-231.53"/>
<polygon fill="#9a32cd" stroke="#9a32cd" points="285.45,-240.64 276.02,-245.47 286.4,-247.58 285.45,-240.64"/>
<text text-anchor="middle" x="320" y="-241.5" font-family="Helvetica,sans-Serif" font-size="10.00"> m_pChild</text>
<text text-anchor="middle" x="320" y="-230.5" font-family="Helvetica,sans-Serif" font-size="10.00">m_pParent</text>
</g>
<!-- Node10 -->
<g id="node10" class="node">
<title>Node10</title>
<g id="a_node10"><a xlink:href="classmn_1_1basic__event__group.html" target="_top" xlink:title=" ">
<polygon fill="white" stroke="black" points="0,-323.5 0,-342.5 130,-342.5 130,-323.5 0,-323.5"/>
<text text-anchor="middle" x="65" y="-330.5" font-family="Helvetica,sans-Serif" font-size="10.00">mn::basic_event_group</text>
</a>
</g>
</g>
<!-- Node10&#45;&gt;Node9 -->
<g id="edge9" class="edge">
<title>Node10&#45;&gt;Node9</title>
<path fill="none" stroke="#9a32cd" stroke-dasharray="5,2" d="M82.73,-316.64C98.53,-303.51 122.69,-284.77 146,-272 164.15,-262.05 185.98,-253.78 202.98,-248.06"/>
<polygon fill="#9a32cd" stroke="#9a32cd" points="80.25,-314.15 74.87,-323.28 84.77,-319.5 80.25,-314.15"/>
<text text-anchor="middle" x="169" y="-286" font-family="Helvetica,sans-Serif" font-size="10.00"> m_event</text>
</g>
<!-- Node11&#45;&gt;Node9 -->
<g id="edge11" class="edge">
<title>Node11&#45;&gt;Node9</title>
<path fill="none" stroke="#9a32cd" stroke-dasharray="5,2" d="M302.93,-314.15C296.03,-301.56 285.73,-284.74 274,-272 265.38,-262.64 253.78,-254.05 244.81,-248.06"/>
<polygon fill="#9a32cd" stroke="#9a32cd" points="299.94,-315.98 307.71,-323.18 306.13,-312.7 299.94,-315.98"/>
<text text-anchor="middle" x="343" y="-297" font-family="Helvetica,sans-Serif" font-size="10.00"> m_contextMutext</text>
<text text-anchor="middle" x="343" y="-286" font-family="Helvetica,sans-Serif" font-size="10.00">m_continuemutex</text>
<text text-anchor="middle" x="343" y="-275" font-family="Helvetica,sans-Serif" font-size="10.00">m_runningMutex</text>
</g>
<!-- Node12 -->
<g id="node12" class="node">
<title>Node12</title>
<g id="a_node12"><a xlink:title=" ">
<polygon fill="white" stroke="#bfbfbf" points="148.5,-323.5 148.5,-342.5 213.5,-342.5 213.5,-323.5 148.5,-323.5"/>
<text text-anchor="middle" x="181" y="-330.5" font-family="Helvetica,sans-Serif" font-size="10.00">std::string</text>
</a>
</g>
</g>
<!-- Node12&#45;&gt;Node9 -->
<g id="edge13" class="edge">
<title>Node12&#45;&gt;Node9</title>
<path fill="none" stroke="#9a32cd" stroke-dasharray="5,2" d="M190.24,-314.5C196.59,-302.51 205.25,-286.26 213,-272 217.44,-263.84 222.58,-254.58 226.23,-248.03"/>
<polygon fill="#9a32cd" stroke="#9a32cd" points="187.1,-312.96 185.51,-323.43 193.28,-316.23 187.1,-312.96"/>
<text text-anchor="middle" x="243.5" y="-286" font-family="Helvetica,sans-Serif" font-size="10.00"> m_strName</text>
</g>
<!-- Node13 -->
<g id="node13" class="node">
<title>Node13</title>
<g id="a_node13"><a xlink:title=" ">
<polygon fill="white" stroke="#bfbfbf" points="129,-380.5 129,-410.5 233,-410.5 233,-380.5 129,-380.5"/>
<text text-anchor="start" x="137" y="-398.5" font-family="Helvetica,sans-Serif" font-size="10.00">std::basic_string&lt;</text>
<text text-anchor="middle" x="181" y="-387.5" font-family="Helvetica,sans-Serif" font-size="10.00"> Char &gt;</text>
</a>
</g>
</g>
<!-- Node13&#45;&gt;Node12 -->
<g id="edge14" class="edge">
<title>Node13&#45;&gt;Node12</title>
<path fill="none" stroke="midnightblue" d="M181,-370.35C181,-360.51 181,-349.78 181,-342.54"/>
<polygon fill="midnightblue" stroke="midnightblue" points="177.5,-370.47 181,-380.47 184.5,-370.47 177.5,-370.47"/>
</g>
</g>
</svg>
