<?xml version="1.0" encoding="UTF-8" standalone="no"?>
<!DOCTYPE svg PUBLIC "-//W3C//DTD SVG 1.1//EN"
 "http://www.w3.org/Graphics/SVG/1.1/DTD/svg11.dtd">
<!-- Generated by graphviz version 2.47.3 (0)
 -->
<!-- Title: mn::device::basic_network_device Pages: 1 -->
<svg width="155pt" height="151pt"
 viewBox="0.00 0.00 155.00 151.00" xmlns="http://www.w3.org/2000/svg" xmlns:xlink="http://www.w3.org/1999/xlink">
<g id="graph0" class="graph" transform="scale(1 1) rotate(0) translate(4 147)">
<title>mn::device::basic_network_device</title>
<polygon fill="white" stroke="transparent" points="-4,4 -4,-147 151,-147 151,4 -4,4"/>
<!-- Node1 -->
<g id="node1" class="node">
<title>Node1</title>
<g id="a_node1"><a xlink:title=" ">
<polygon fill="#bfbfbf" stroke="black" points="0,-56.5 0,-86.5 147,-86.5 147,-56.5 0,-56.5"/>
<text text-anchor="start" x="8" y="-74.5" font-family="Helvetica,sans-Serif" font-size="10.00">mn::device::basic_network</text>
<text text-anchor="middle" x="73.5" y="-63.5" font-family="Helvetica,sans-Serif" font-size="10.00">_device</text>
</a>
</g>
</g>
<!-- Node3 -->
<g id="node3" class="node">
<title>Node3</title>
<g id="a_node3"><a xlink:href="classmn_1_1device_1_1basic__wifi__ap.html" target="_top" xlink:title="Wifi AP class for the esp32.">
<polygon fill="white" stroke="black" points="2.5,-0.5 2.5,-19.5 144.5,-19.5 144.5,-0.5 2.5,-0.5"/>
<text text-anchor="middle" x="73.5" y="-7.5" font-family="Helvetica,sans-Serif" font-size="10.00">mn::device::basic_wifi_ap</text>
</a>
</g>
</g>
<!-- Node1&#45;&gt;Node3 -->
<g id="edge2" class="edge">
<title>Node1&#45;&gt;Node3</title>
<path fill="none" stroke="midnightblue" d="M73.5,-46.29C73.5,-36.86 73.5,-26.65 73.5,-19.66"/>
<polygon fill="midnightblue" stroke="midnightblue" points="70,-46.4 73.5,-56.4 77,-46.4 70,-46.4"/>
</g>
<!-- Node2 -->
<g id="node2" class="node">
<title>Node2</title>
<g id="a_node2"><a xlink:href="classmn_1_1device_1_1basic__device.html" target="_top" xlink:title=" ">
<polygon fill="white" stroke="black" points="3.5,-123.5 3.5,-142.5 143.5,-142.5 143.5,-123.5 3.5,-123.5"/>
<text text-anchor="middle" x="73.5" y="-130.5" font-family="Helvetica,sans-Serif" font-size="10.00">mn::device::basic_device</text>
</a>
</g>
</g>
<!-- Node2&#45;&gt;Node1 -->
<g id="edge1" class="edge">
<title>Node2&#45;&gt;Node1</title>
<path fill="none" stroke="midnightblue" d="M73.5,-113.23C73.5,-104.59 73.5,-94.5 73.5,-86.52"/>
<polygon fill="midnightblue" stroke="midnightblue" points="70,-113.48 73.5,-123.48 77,-113.48 70,-113.48"/>
</g>
</g>
</svg>
