<?xml version="1.0" encoding="UTF-8" standalone="no"?>
<!DOCTYPE svg PUBLIC "-//W3C//DTD SVG 1.1//EN"
 "http://www.w3.org/Graphics/SVG/1.1/DTD/svg11.dtd">
<!-- Generated by graphviz version 2.44.1 (0)
 -->
<!-- Title: basic_task Pages: 1 -->
<svg width="379pt" height="244pt"
 viewBox="0.00 0.00 379.00 244.00" xmlns="http://www.w3.org/2000/svg" xmlns:xlink="http://www.w3.org/1999/xlink">
<g id="graph0" class="graph" transform="scale(1 1) rotate(0) translate(4 240)">
<title>basic_task</title>
<polygon fill="white" stroke="transparent" points="-4,4 -4,-240 375,-240 375,4 -4,4"/>
<!-- Node1 -->
<g id="node1" class="node">
<title>Node1</title>
<g id="a_node1"><a xlink:title=" ">
<polygon fill="#bfbfbf" stroke="black" points="161,-1.5 161,-20.5 229,-20.5 229,-1.5 161,-1.5"/>
<text text-anchor="middle" x="195" y="-8.5" font-family="Helvetica,sans-Serif" font-size="10.00">basic_task</text>
</a>
</g>
</g>
<!-- Node1&#45;&gt;Node1 -->
<g id="edge7" class="edge">
<title>Node1&#45;&gt;Node1</title>
<path fill="none" stroke="#9a32cd" stroke-dasharray="5,2" d="M239.15,-17.9C243.92,-16.58 247,-14.28 247,-11 247,-5.76 239.13,-3.01 229.01,-2.77"/>
<polygon fill="#9a32cd" stroke="#9a32cd" points="238.47,-14.46 229.01,-19.23 239.38,-21.4 238.47,-14.46"/>
<text text-anchor="middle" x="273" y="-14" font-family="Helvetica,sans-Serif" font-size="10.00"> m_pChild</text>
<text text-anchor="middle" x="273" y="-3" font-family="Helvetica,sans-Serif" font-size="10.00">m_pParent</text>
</g>
<!-- Node2 -->
<g id="node2" class="node">
<title>Node2</title>
<g id="a_node2"><a xlink:href="classbasic__event__group.html" target="_top" xlink:title=" ">
<polygon fill="white" stroke="black" points="0,-91.5 0,-110.5 108,-110.5 108,-91.5 0,-91.5"/>
<text text-anchor="middle" x="54" y="-98.5" font-family="Helvetica,sans-Serif" font-size="10.00">basic_event_group</text>
</a>
</g>
</g>
<!-- Node2&#45;&gt;Node1 -->
<g id="edge1" class="edge">
<title>Node2&#45;&gt;Node1</title>
<path fill="none" stroke="#9a32cd" stroke-dasharray="5,2" d="M74.9,-85.6C93.17,-73.16 120.52,-54.9 145,-40 156.22,-33.17 169.16,-25.94 179.07,-20.54"/>
<polygon fill="#9a32cd" stroke="#9a32cd" points="72.75,-82.83 66.47,-91.36 76.7,-88.6 72.75,-82.83"/>
<text text-anchor="middle" x="168" y="-54" font-family="Helvetica,sans-Serif" font-size="10.00"> m_event</text>
</g>
<!-- Node3 -->
<g id="node3" class="node">
<title>Node3</title>
<g id="a_node3"><a xlink:href="classbasic__binary__semaphore.html" target="_top" xlink:title=" ">
<polygon fill="white" stroke="black" points="126,-91.5 126,-110.5 264,-110.5 264,-91.5 126,-91.5"/>
<text text-anchor="middle" x="195" y="-98.5" font-family="Helvetica,sans-Serif" font-size="10.00">basic_binary_semaphore</text>
</a>
</g>
</g>
<!-- Node3&#45;&gt;Node1 -->
<g id="edge2" class="edge">
<title>Node3&#45;&gt;Node1</title>
<path fill="none" stroke="#9a32cd" stroke-dasharray="5,2" d="M195,-80.98C195,-62.31 195,-34.67 195,-20.72"/>
<polygon fill="#9a32cd" stroke="#9a32cd" points="191.5,-81.24 195,-91.24 198.5,-81.24 191.5,-81.24"/>
<text text-anchor="middle" x="240" y="-65" font-family="Helvetica,sans-Serif" font-size="10.00"> m_contextMutext</text>
<text text-anchor="middle" x="240" y="-54" font-family="Helvetica,sans-Serif" font-size="10.00">m_continuemutex</text>
<text text-anchor="middle" x="240" y="-43" font-family="Helvetica,sans-Serif" font-size="10.00">m_runningMutex</text>
</g>
<!-- Node4 -->
<g id="node4" class="node">
<title>Node4</title>
<g id="a_node4"><a xlink:href="classbasic__semaphore.html" target="_top" xlink:title=" ">
<polygon fill="white" stroke="black" points="144,-154 144,-173 246,-173 246,-154 144,-154"/>
<text text-anchor="middle" x="195" y="-161" font-family="Helvetica,sans-Serif" font-size="10.00">basic_semaphore</text>
</a>
</g>
</g>
<!-- Node4&#45;&gt;Node3 -->
<g id="edge3" class="edge">
<title>Node4&#45;&gt;Node3</title>
<path fill="none" stroke="midnightblue" d="M195,-143.5C195,-132.5 195,-119.18 195,-110.65"/>
<polygon fill="midnightblue" stroke="midnightblue" points="191.5,-143.83 195,-153.83 198.5,-143.83 191.5,-143.83"/>
</g>
<!-- Node5 -->
<g id="node5" class="node">
<title>Node5</title>
<g id="a_node5"><a xlink:href="class_i_lock_object.html" target="_top" xlink:title=" ">
<polygon fill="white" stroke="black" points="158,-216.5 158,-235.5 232,-235.5 232,-216.5 158,-216.5"/>
<text text-anchor="middle" x="195" y="-223.5" font-family="Helvetica,sans-Serif" font-size="10.00">ILockObject</text>
</a>
</g>
</g>
<!-- Node5&#45;&gt;Node4 -->
<g id="edge4" class="edge">
<title>Node5&#45;&gt;Node4</title>
<path fill="none" stroke="midnightblue" d="M195,-206C195,-195 195,-181.68 195,-173.15"/>
<polygon fill="midnightblue" stroke="midnightblue" points="191.5,-206.33 195,-216.33 198.5,-206.33 191.5,-206.33"/>
</g>
<!-- Node6 -->
<g id="node6" class="node">
<title>Node6</title>
<g id="a_node6"><a xlink:title="STL class.">
<polygon fill="white" stroke="#bfbfbf" points="283.5,-91.5 283.5,-110.5 348.5,-110.5 348.5,-91.5 283.5,-91.5"/>
<text text-anchor="middle" x="316" y="-98.5" font-family="Helvetica,sans-Serif" font-size="10.00">std::string</text>
</a>
</g>
</g>
<!-- Node6&#45;&gt;Node1 -->
<g id="edge5" class="edge">
<title>Node6&#45;&gt;Node1</title>
<path fill="none" stroke="#9a32cd" stroke-dasharray="5,2" d="M311.98,-81.31C308.2,-68.02 301.22,-50.69 289,-40 272.47,-25.54 248.73,-18.54 229.24,-15.16"/>
<polygon fill="#9a32cd" stroke="#9a32cd" points="308.65,-82.43 314.46,-91.29 315.45,-80.74 308.65,-82.43"/>
<text text-anchor="middle" x="340.5" y="-54" font-family="Helvetica,sans-Serif" font-size="10.00"> m_strName</text>
</g>
<!-- Node7 -->
<g id="node7" class="node">
<title>Node7</title>
<g id="a_node7"><a xlink:title="STL class.">
<polygon fill="white" stroke="#bfbfbf" points="264,-148.5 264,-178.5 368,-178.5 368,-148.5 264,-148.5"/>
<text text-anchor="start" x="272" y="-166.5" font-family="Helvetica,sans-Serif" font-size="10.00">std::basic_string&lt;</text>
<text text-anchor="middle" x="316" y="-155.5" font-family="Helvetica,sans-Serif" font-size="10.00"> char &gt;</text>
</a>
</g>
</g>
<!-- Node7&#45;&gt;Node6 -->
<g id="edge6" class="edge">
<title>Node7&#45;&gt;Node6</title>
<path fill="none" stroke="midnightblue" d="M316,-138.35C316,-128.51 316,-117.78 316,-110.54"/>
<polygon fill="midnightblue" stroke="midnightblue" points="312.5,-138.47 316,-148.47 319.5,-138.47 312.5,-138.47"/>
</g>
</g>
</svg>
