<?xml version="1.0" encoding="UTF-8" standalone="no"?>
<!DOCTYPE svg PUBLIC "-//W3C//DTD SVG 1.1//EN"
 "http://www.w3.org/Graphics/SVG/1.1/DTD/svg11.dtd">
<!-- Generated by graphviz version 2.46.0 (0)
 -->
<!-- Title: mn::queue::work_queue_task Pages: 1 -->
<svg width="544pt" height="320pt"
 viewBox="0.00 0.00 543.50 320.00" xmlns="http://www.w3.org/2000/svg" xmlns:xlink="http://www.w3.org/1999/xlink">
<g id="graph0" class="graph" transform="scale(1 1) rotate(0) translate(4 316)">
<title>mn::queue::work_queue_task</title>
<polygon fill="white" stroke="transparent" points="-4,4 -4,-316 539.5,-316 539.5,4 -4,4"/>
<!-- Node1 -->
<g id="node1" class="node">
<title>Node1</title>
<g id="a_node1"><a xlink:title=" ">
<polygon fill="#bfbfbf" stroke="black" points="197.5,-0.5 197.5,-19.5 357.5,-19.5 357.5,-0.5 197.5,-0.5"/>
<text text-anchor="middle" x="277.5" y="-7.5" font-family="Helvetica,sans-Serif" font-size="10.00">mn::queue::work_queue_task</text>
</a>
</g>
</g>
<!-- Node2 -->
<g id="node2" class="node">
<title>Node2</title>
<g id="a_node2"><a xlink:href="classmn_1_1basic__task.html" target="_top" xlink:title="Wrapper class around FreeRTOS&#39;s implementation of a task.">
<polygon fill="white" stroke="black" points="307.5,-73 307.5,-92 397.5,-92 397.5,-73 307.5,-73"/>
<text text-anchor="middle" x="352.5" y="-80" font-family="Helvetica,sans-Serif" font-size="10.00">mn::basic_task</text>
</a>
</g>
</g>
<!-- Node2&#45;&gt;Node1 -->
<g id="edge1" class="edge">
<title>Node2&#45;&gt;Node1</title>
<path fill="none" stroke="midnightblue" d="M346.83,-63.35C343.45,-54.84 338.45,-45.05 331.5,-38 323.55,-29.94 312.7,-23.88 302.81,-19.56"/>
<polygon fill="midnightblue" stroke="midnightblue" points="343.54,-64.55 350.16,-72.83 350.15,-62.23 343.54,-64.55"/>
</g>
<!-- Node2&#45;&gt;Node2 -->
<g id="edge2" class="edge">
<title>Node2&#45;&gt;Node2</title>
<path fill="none" stroke="#9a32cd" stroke-dasharray="5,2" d="M407.76,-88.07C412.53,-86.88 415.5,-85.03 415.5,-82.5 415.5,-78.46 407.89,-76.13 397.52,-75.53"/>
<polygon fill="#9a32cd" stroke="#9a32cd" points="406.95,-84.64 397.52,-89.47 407.9,-91.58 406.95,-84.64"/>
<text text-anchor="middle" x="441.5" y="-85.5" font-family="Helvetica,sans-Serif" font-size="10.00"> m_pChild</text>
<text text-anchor="middle" x="441.5" y="-74.5" font-family="Helvetica,sans-Serif" font-size="10.00">m_pParent</text>
</g>
<!-- Node3 -->
<g id="node3" class="node">
<title>Node3</title>
<g id="a_node3"><a xlink:href="classmn_1_1basic__binary__semaphore.html" target="_top" xlink:title=" ">
<polygon fill="white" stroke="black" points="272.5,-167.5 272.5,-186.5 432.5,-186.5 432.5,-167.5 272.5,-167.5"/>
<text text-anchor="middle" x="352.5" y="-174.5" font-family="Helvetica,sans-Serif" font-size="10.00">mn::basic_binary_semaphore</text>
</a>
</g>
</g>
<!-- Node3&#45;&gt;Node2 -->
<g id="edge3" class="edge">
<title>Node3&#45;&gt;Node2</title>
<path fill="none" stroke="#9a32cd" stroke-dasharray="5,2" d="M352.5,-157.44C352.5,-137.54 352.5,-106.8 352.5,-92.02"/>
<polygon fill="#9a32cd" stroke="#9a32cd" points="349,-157.46 352.5,-167.46 356,-157.46 349,-157.46"/>
<text text-anchor="middle" x="397.5" y="-141" font-family="Helvetica,sans-Serif" font-size="10.00"> m_contextMutext</text>
<text text-anchor="middle" x="397.5" y="-130" font-family="Helvetica,sans-Serif" font-size="10.00">m_continuemutex</text>
<text text-anchor="middle" x="397.5" y="-119" font-family="Helvetica,sans-Serif" font-size="10.00">m_runningMutex</text>
</g>
<!-- Node4 -->
<g id="node4" class="node">
<title>Node4</title>
<g id="a_node4"><a xlink:href="classmn_1_1basic__semaphore.html" target="_top" xlink:title=" ">
<polygon fill="white" stroke="black" points="246.5,-230 246.5,-249 370.5,-249 370.5,-230 246.5,-230"/>
<text text-anchor="middle" x="308.5" y="-237" font-family="Helvetica,sans-Serif" font-size="10.00">mn::basic_semaphore</text>
</a>
</g>
</g>
<!-- Node4&#45;&gt;Node3 -->
<g id="edge4" class="edge">
<title>Node4&#45;&gt;Node3</title>
<path fill="none" stroke="midnightblue" d="M320.82,-221.56C329.08,-210.2 339.61,-195.72 346.21,-186.65"/>
<polygon fill="midnightblue" stroke="midnightblue" points="317.86,-219.69 314.8,-229.83 323.52,-223.8 317.86,-219.69"/>
</g>
<!-- Node9 -->
<g id="node9" class="node">
<title>Node9</title>
<g id="a_node9"><a xlink:href="classmn_1_1basic__mutex.html" target="_top" xlink:title=" ">
<polygon fill="white" stroke="black" points="153,-167.5 153,-186.5 254,-186.5 254,-167.5 153,-167.5"/>
<text text-anchor="middle" x="203.5" y="-174.5" font-family="Helvetica,sans-Serif" font-size="10.00">mn::basic_mutex</text>
</a>
</g>
</g>
<!-- Node4&#45;&gt;Node9 -->
<g id="edge10" class="edge">
<title>Node4&#45;&gt;Node9</title>
<path fill="none" stroke="midnightblue" d="M284.78,-224.83C264.46,-213.12 235.81,-196.62 218.52,-186.65"/>
<polygon fill="midnightblue" stroke="midnightblue" points="283.04,-227.87 293.46,-229.83 286.54,-221.81 283.04,-227.87"/>
</g>
<!-- Node5 -->
<g id="node5" class="node">
<title>Node5</title>
<g id="a_node5"><a xlink:href="classmn_1_1ILockObject.html" target="_top" xlink:title=" ">
<polygon fill="white" stroke="black" points="261,-292.5 261,-311.5 356,-311.5 356,-292.5 261,-292.5"/>
<text text-anchor="middle" x="308.5" y="-299.5" font-family="Helvetica,sans-Serif" font-size="10.00">mn::ILockObject</text>
</a>
</g>
</g>
<!-- Node5&#45;&gt;Node4 -->
<g id="edge5" class="edge">
<title>Node5&#45;&gt;Node4</title>
<path fill="none" stroke="midnightblue" d="M308.5,-282C308.5,-271 308.5,-257.68 308.5,-249.15"/>
<polygon fill="midnightblue" stroke="midnightblue" points="305,-282.33 308.5,-292.33 312,-282.33 305,-282.33"/>
</g>
<!-- Node6 -->
<g id="node6" class="node">
<title>Node6</title>
<g id="a_node6"><a xlink:title=" ">
<polygon fill="white" stroke="#bfbfbf" points="451,-167.5 451,-186.5 516,-186.5 516,-167.5 451,-167.5"/>
<text text-anchor="middle" x="483.5" y="-174.5" font-family="Helvetica,sans-Serif" font-size="10.00">std::string</text>
</a>
</g>
</g>
<!-- Node6&#45;&gt;Node2 -->
<g id="edge6" class="edge">
<title>Node6&#45;&gt;Node2</title>
<path fill="none" stroke="#9a32cd" stroke-dasharray="5,2" d="M476.3,-157.82C470.19,-144.53 460.21,-126.99 446.5,-116 432.22,-104.55 413.65,-97.02 396.79,-92.11"/>
<polygon fill="#9a32cd" stroke="#9a32cd" points="473.22,-159.53 480.37,-167.35 479.66,-156.78 473.22,-159.53"/>
<text text-anchor="middle" x="503" y="-130" font-family="Helvetica,sans-Serif" font-size="10.00"> m_strName</text>
</g>
<!-- Node7 -->
<g id="node7" class="node">
<title>Node7</title>
<g id="a_node7"><a xlink:title=" ">
<polygon fill="white" stroke="#bfbfbf" points="431.5,-224.5 431.5,-254.5 535.5,-254.5 535.5,-224.5 431.5,-224.5"/>
<text text-anchor="start" x="439.5" y="-242.5" font-family="Helvetica,sans-Serif" font-size="10.00">std::basic_string&lt;</text>
<text text-anchor="middle" x="483.5" y="-231.5" font-family="Helvetica,sans-Serif" font-size="10.00"> Char &gt;</text>
</a>
</g>
</g>
<!-- Node7&#45;&gt;Node6 -->
<g id="edge7" class="edge">
<title>Node7&#45;&gt;Node6</title>
<path fill="none" stroke="midnightblue" d="M483.5,-214.35C483.5,-204.51 483.5,-193.78 483.5,-186.54"/>
<polygon fill="midnightblue" stroke="midnightblue" points="480,-214.47 483.5,-224.47 487,-214.47 480,-214.47"/>
</g>
<!-- Node8 -->
<g id="node8" class="node">
<title>Node8</title>
<g id="a_node8"><a xlink:href="classmn_1_1queue_1_1basic__work__queue.html" target="_top" xlink:title=" ">
<polygon fill="white" stroke="black" points="139,-67.5 139,-97.5 268,-97.5 268,-67.5 139,-67.5"/>
<text text-anchor="start" x="147" y="-85.5" font-family="Helvetica,sans-Serif" font-size="10.00">mn::queue::basic_work</text>
<text text-anchor="middle" x="203.5" y="-74.5" font-family="Helvetica,sans-Serif" font-size="10.00">_queue</text>
</a>
</g>
</g>
<!-- Node8&#45;&gt;Node1 -->
<g id="edge8" class="edge">
<title>Node8&#45;&gt;Node1</title>
<path fill="none" stroke="#9a32cd" stroke-dasharray="5,2" d="M212.11,-57.97C215.5,-50.94 219.93,-43.63 225.5,-38 233.37,-30.05 244.08,-23.94 253.73,-19.57"/>
<polygon fill="#9a32cd" stroke="#9a32cd" points="208.89,-56.61 208.13,-67.18 215.31,-59.39 208.89,-56.61"/>
<text text-anchor="middle" x="278.5" y="-41" font-family="Helvetica,sans-Serif" font-size="10.00"> m_parentWorkQueue</text>
</g>
<!-- Node9&#45;&gt;Node8 -->
<g id="edge9" class="edge">
<title>Node9&#45;&gt;Node8</title>
<path fill="none" stroke="#9a32cd" stroke-dasharray="5,2" d="M203.5,-157.29C203.5,-139.67 203.5,-113.67 203.5,-97.7"/>
<polygon fill="#9a32cd" stroke="#9a32cd" points="200,-157.46 203.5,-167.46 207,-157.46 200,-157.46"/>
<text text-anchor="middle" x="243.5" y="-135.5" font-family="Helvetica,sans-Serif" font-size="10.00"> m_ThreadJob</text>
<text text-anchor="middle" x="243.5" y="-124.5" font-family="Helvetica,sans-Serif" font-size="10.00">m_ThreadStatus</text>
</g>
<!-- Node10 -->
<g id="node10" class="node">
<title>Node10</title>
<g id="a_node10"><a xlink:href="classmn_1_1queue_1_1basic__queue.html" target="_top" xlink:title="Queue class wrapper for FreeRTOS queues.">
<polygon fill="white" stroke="black" points="0,-167.5 0,-186.5 135,-186.5 135,-167.5 0,-167.5"/>
<text text-anchor="middle" x="67.5" y="-174.5" font-family="Helvetica,sans-Serif" font-size="10.00">mn::queue::basic_queue</text>
</a>
</g>
</g>
<!-- Node10&#45;&gt;Node8 -->
<g id="edge11" class="edge">
<title>Node10&#45;&gt;Node8</title>
<path fill="none" stroke="#9a32cd" stroke-dasharray="5,2" d="M72.19,-157.31C76.44,-144.02 84,-126.69 96.5,-116 108.52,-105.71 123.74,-98.68 138.89,-93.88"/>
<polygon fill="#9a32cd" stroke="#9a32cd" points="68.72,-156.71 69.36,-167.29 75.45,-158.62 68.72,-156.71"/>
<text text-anchor="middle" x="148" y="-130" font-family="Helvetica,sans-Serif" font-size="10.00"> m_pWorkItemQueue</text>
</g>
</g>
</svg>
