<?xml version="1.0" encoding="UTF-8" standalone="no"?>
<!DOCTYPE svg PUBLIC "-//W3C//DTD SVG 1.1//EN"
 "http://www.w3.org/Graphics/SVG/1.1/DTD/svg11.dtd">
<!-- Generated by graphviz version 2.47.1 (0)
 -->
<!-- Title: mn::atomic_spinlock&lt; T &gt; Pages: 1 -->
<svg width="316pt" height="152pt"
 viewBox="0.00 0.00 315.50 152.00" xmlns="http://www.w3.org/2000/svg" xmlns:xlink="http://www.w3.org/1999/xlink">
<g id="graph0" class="graph" transform="scale(1 1) rotate(0) translate(4 148)">
<title>mn::atomic_spinlock&lt; T &gt;</title>
<polygon fill="white" stroke="transparent" points="-4,4 -4,-148 311.5,-148 311.5,4 -4,4"/>
<!-- Node1 -->
<g id="node1" class="node">
<title>Node1</title>
<g id="a_node1"><a xlink:title="This class implements a simple spinlack, whit atomic operations.">
<polygon fill="#bfbfbf" stroke="black" points="64.5,-0.5 64.5,-19.5 210.5,-19.5 210.5,-0.5 64.5,-0.5"/>
<text text-anchor="middle" x="137.5" y="-7.5" font-family="Helvetica,sans-Serif" font-size="10.00">mn::atomic_spinlock&lt; T &gt;</text>
</a>
</g>
</g>
<!-- Node2 -->
<g id="node2" class="node">
<title>Node2</title>
<g id="a_node2"><a xlink:href="classmn_1_1ILockObject.html" target="_top" xlink:title=" ">
<polygon fill="white" stroke="black" points="28,-67.5 28,-86.5 123,-86.5 123,-67.5 28,-67.5"/>
<text text-anchor="middle" x="75.5" y="-74.5" font-family="Helvetica,sans-Serif" font-size="10.00">mn::ILockObject</text>
</a>
</g>
</g>
<!-- Node2&#45;&gt;Node1 -->
<g id="edge1" class="edge">
<title>Node2&#45;&gt;Node1</title>
<path fill="none" stroke="midnightblue" d="M90.76,-60C102.92,-47.25 119.48,-29.89 129.27,-19.63"/>
<polygon fill="midnightblue" stroke="midnightblue" points="88.23,-57.58 83.86,-67.23 93.3,-62.41 88.23,-57.58"/>
</g>
<!-- Node3 -->
<g id="node3" class="node">
<title>Node3</title>
<g id="a_node3"><a xlink:title=" ">
<polygon fill="white" stroke="#bfbfbf" points="0,-124.5 0,-143.5 131,-143.5 131,-124.5 0,-124.5"/>
<text text-anchor="middle" x="65.5" y="-131.5" font-family="Helvetica,sans-Serif" font-size="10.00">MN_ONSIGLETN_CLASS</text>
</a>
</g>
</g>
<!-- Node3&#45;&gt;Node2 -->
<g id="edge2" class="edge">
<title>Node3&#45;&gt;Node2</title>
<path fill="none" stroke="#8b1a1a" d="M68.88,-114.42C70.58,-105.05 72.57,-94.14 73.92,-86.71"/>
<polygon fill="#8b1a1a" stroke="#8b1a1a" points="65.41,-113.94 67.06,-124.41 72.29,-115.19 65.41,-113.94"/>
</g>
<!-- Node4 -->
<g id="node4" class="node">
<title>Node4</title>
<g id="a_node4"><a xlink:href="structmn_1_1__atomic_3_01bool_01_4.html" target="_top" xlink:title="Special version for bool.">
<polygon fill="white" stroke="black" points="159,-67.5 159,-86.5 280,-86.5 280,-67.5 159,-67.5"/>
<text text-anchor="middle" x="219.5" y="-74.5" font-family="Helvetica,sans-Serif" font-size="10.00">mn::_atomic&lt; bool &gt;</text>
</a>
</g>
</g>
<!-- Node4&#45;&gt;Node1 -->
<g id="edge3" class="edge">
<title>Node4&#45;&gt;Node1</title>
<path fill="none" stroke="#9a32cd" stroke-dasharray="5,2" d="M200.22,-60.71C184.06,-47.91 161.58,-30.09 148.38,-19.63"/>
<polygon fill="#9a32cd" stroke="#9a32cd" points="198.43,-63.76 208.44,-67.23 202.78,-58.28 198.43,-63.76"/>
<text text-anchor="middle" x="208.5" y="-41" font-family="Helvetica,sans-Serif" font-size="10.00"> m_locked</text>
</g>
<!-- Node5 -->
<g id="node5" class="node">
<title>Node5</title>
<g id="a_node5"><a xlink:title=" ">
<polygon fill="white" stroke="#bfbfbf" points="149.5,-124.5 149.5,-143.5 307.5,-143.5 307.5,-124.5 149.5,-124.5"/>
<text text-anchor="middle" x="228.5" y="-131.5" font-family="Helvetica,sans-Serif" font-size="10.00">BASE_ATOMIC_TYPE&lt; bool &gt;</text>
</a>
</g>
</g>
<!-- Node5&#45;&gt;Node4 -->
<g id="edge4" class="edge">
<title>Node5&#45;&gt;Node4</title>
<path fill="none" stroke="midnightblue" d="M225.46,-114.42C223.93,-105.05 222.14,-94.14 220.93,-86.71"/>
<polygon fill="midnightblue" stroke="midnightblue" points="222.02,-115.1 227.09,-124.41 228.93,-113.97 222.02,-115.1"/>
</g>
</g>
</svg>
