<?xml version="1.0" encoding="UTF-8" standalone="no"?>
<!DOCTYPE svg PUBLIC "-//W3C//DTD SVG 1.1//EN"
 "http://www.w3.org/Graphics/SVG/1.1/DTD/svg11.dtd">
<!-- Generated by graphviz version 2.44.1 (0)
 -->
<!-- Title: basic_task_list Pages: 1 -->
<svg width="529pt" height="456pt"
 viewBox="0.00 0.00 529.00 456.00" xmlns="http://www.w3.org/2000/svg" xmlns:xlink="http://www.w3.org/1999/xlink">
<g id="graph0" class="graph" transform="scale(1 1) rotate(0) translate(4 452)">
<title>basic_task_list</title>
<polygon fill="white" stroke="transparent" points="-4,4 -4,-452 525,-452 525,4 -4,4"/>
<!-- Node1 -->
<g id="node1" class="node">
<title>Node1</title>
<g id="a_node1"><a xlink:title=" ">
<polygon fill="#bfbfbf" stroke="black" points="285.5,-0.5 285.5,-19.5 374.5,-19.5 374.5,-0.5 285.5,-0.5"/>
<text text-anchor="middle" x="330" y="-7.5" font-family="Helvetica,sans-Serif" font-size="10.00">basic_task_list</text>
</a>
</g>
</g>
<!-- Node1&#45;&gt;Node1 -->
<g id="edge13" class="edge">
<title>Node1&#45;&gt;Node1</title>
<path fill="none" stroke="#9a32cd" stroke-dasharray="5,2" d="M384.83,-14.69C389.55,-13.69 392.5,-12.13 392.5,-10 392.5,-6.59 384.95,-4.64 374.66,-4.13"/>
<polygon fill="#9a32cd" stroke="#9a32cd" points="384.19,-11.24 374.66,-15.87 385,-18.19 384.19,-11.24"/>
<text text-anchor="middle" x="425.5" y="-7.5" font-family="Helvetica,sans-Serif" font-size="10.00"> m_pInstance</text>
</g>
<!-- Node2 -->
<g id="node2" class="node">
<title>Node2</title>
<g id="a_node2"><a xlink:href="classbasic__mutex.html" target="_top" xlink:title=" ">
<polygon fill="white" stroke="black" points="373.5,-259 373.5,-278 452.5,-278 452.5,-259 373.5,-259"/>
<text text-anchor="middle" x="413" y="-266" font-family="Helvetica,sans-Serif" font-size="10.00">basic_mutex</text>
</a>
</g>
</g>
<!-- Node2&#45;&gt;Node1 -->
<g id="edge1" class="edge">
<title>Node2&#45;&gt;Node1</title>
<path fill="none" stroke="#9a32cd" stroke-dasharray="5,2" d="M413,-248.8C413,-233 413,-209.77 413,-189.5 413,-189.5 413,-189.5 413,-81.5 413,-50.3 378.52,-30.03 354.01,-19.57"/>
<polygon fill="#9a32cd" stroke="#9a32cd" points="409.5,-248.84 413,-258.84 416.5,-248.84 409.5,-248.84"/>
<text text-anchor="middle" x="467" y="-152.5" font-family="Helvetica,sans-Serif" font-size="10.00"> m_staticInstanceMux</text>
</g>
<!-- Node3 -->
<g id="node3" class="node">
<title>Node3</title>
<g id="a_node3"><a xlink:href="classbasic__semaphore.html" target="_top" xlink:title=" ">
<polygon fill="white" stroke="black" points="314,-366 314,-385 416,-385 416,-366 314,-366"/>
<text text-anchor="middle" x="365" y="-373" font-family="Helvetica,sans-Serif" font-size="10.00">basic_semaphore</text>
</a>
</g>
</g>
<!-- Node3&#45;&gt;Node2 -->
<g id="edge2" class="edge">
<title>Node3&#45;&gt;Node2</title>
<path fill="none" stroke="midnightblue" d="M375.7,-357.25C381.54,-347.43 388.65,-334.77 394,-323 401.02,-307.57 407.18,-288.72 410.47,-278.02"/>
<polygon fill="midnightblue" stroke="midnightblue" points="372.59,-355.62 370.39,-365.99 378.57,-359.26 372.59,-355.62"/>
</g>
<!-- Node9 -->
<g id="node9" class="node">
<title>Node9</title>
<g id="a_node9"><a xlink:href="classbasic__binary__semaphore.html" target="_top" xlink:title=" ">
<polygon fill="white" stroke="black" points="247,-303.5 247,-322.5 385,-322.5 385,-303.5 247,-303.5"/>
<text text-anchor="middle" x="316" y="-310.5" font-family="Helvetica,sans-Serif" font-size="10.00">basic_binary_semaphore</text>
</a>
</g>
</g>
<!-- Node3&#45;&gt;Node9 -->
<g id="edge9" class="edge">
<title>Node3&#45;&gt;Node9</title>
<path fill="none" stroke="midnightblue" d="M351.55,-357.89C342.31,-346.49 330.43,-331.81 323.01,-322.65"/>
<polygon fill="midnightblue" stroke="midnightblue" points="348.97,-360.26 357.98,-365.83 354.41,-355.86 348.97,-360.26"/>
</g>
<!-- Node4 -->
<g id="node4" class="node">
<title>Node4</title>
<g id="a_node4"><a xlink:href="class_i_lock_object.html" target="_top" xlink:title=" ">
<polygon fill="white" stroke="black" points="328,-428.5 328,-447.5 402,-447.5 402,-428.5 328,-428.5"/>
<text text-anchor="middle" x="365" y="-435.5" font-family="Helvetica,sans-Serif" font-size="10.00">ILockObject</text>
</a>
</g>
</g>
<!-- Node4&#45;&gt;Node3 -->
<g id="edge3" class="edge">
<title>Node4&#45;&gt;Node3</title>
<path fill="none" stroke="midnightblue" d="M365,-418C365,-407 365,-393.68 365,-385.15"/>
<polygon fill="midnightblue" stroke="midnightblue" points="361.5,-418.33 365,-428.33 368.5,-418.33 361.5,-418.33"/>
</g>
<!-- Node5 -->
<g id="node5" class="node">
<title>Node5</title>
<g id="a_node5"><a xlink:title=" ">
<polygon fill="white" stroke="#bfbfbf" points="149.5,-67.5 149.5,-97.5 280.5,-97.5 280.5,-67.5 149.5,-67.5"/>
<text text-anchor="start" x="157.5" y="-85.5" font-family="Helvetica,sans-Serif" font-size="10.00">std::map&lt; int, std</text>
<text text-anchor="middle" x="215" y="-74.5" font-family="Helvetica,sans-Serif" font-size="10.00">::list&lt; basic_task * &gt; &gt;</text>
</a>
</g>
</g>
<!-- Node5&#45;&gt;Node1 -->
<g id="edge4" class="edge">
<title>Node5&#45;&gt;Node1</title>
<path fill="none" stroke="#9a32cd" stroke-dasharray="5,2" d="M211.6,-57.04C211.91,-50.21 213.58,-43.24 218,-38 226.81,-27.57 258.07,-20.59 285.33,-16.34"/>
<polygon fill="#9a32cd" stroke="#9a32cd" points="208.11,-57.53 212.03,-67.38 215.11,-57.24 208.11,-57.53"/>
<text text-anchor="middle" x="267" y="-41" font-family="Helvetica,sans-Serif" font-size="10.00"> m_mapTaskOnCore</text>
</g>
<!-- Node6 -->
<g id="node6" class="node">
<title>Node6</title>
<g id="a_node6"><a xlink:title=" ">
<polygon fill="white" stroke="#bfbfbf" points="140.5,-145.5 140.5,-164.5 275.5,-164.5 275.5,-145.5 140.5,-145.5"/>
<text text-anchor="middle" x="208" y="-152.5" font-family="Helvetica,sans-Serif" font-size="10.00">std::list&lt; basic_task * &gt;</text>
</a>
</g>
</g>
<!-- Node6&#45;&gt;Node5 -->
<g id="edge5" class="edge">
<title>Node6&#45;&gt;Node5</title>
<path fill="none" stroke="#9a32cd" stroke-dasharray="5,2" d="M209.86,-135.24C211.04,-123.41 212.53,-108.38 213.6,-97.58"/>
<polygon fill="#9a32cd" stroke="#9a32cd" points="206.36,-135.06 208.86,-145.36 213.33,-135.75 206.36,-135.06"/>
<text text-anchor="middle" x="236.5" y="-119" font-family="Helvetica,sans-Serif" font-size="10.00"> elements</text>
</g>
<!-- Node7 -->
<g id="node7" class="node">
<title>Node7</title>
<g id="a_node7"><a xlink:href="classbasic__task.html" target="_top" xlink:title=" ">
<polygon fill="white" stroke="black" points="136,-213.5 136,-232.5 204,-232.5 204,-213.5 136,-213.5"/>
<text text-anchor="middle" x="170" y="-220.5" font-family="Helvetica,sans-Serif" font-size="10.00">basic_task</text>
</a>
</g>
</g>
<!-- Node7&#45;&gt;Node6 -->
<g id="edge6" class="edge">
<title>Node7&#45;&gt;Node6</title>
<path fill="none" stroke="#9a32cd" stroke-dasharray="5,2" d="M180.04,-204.56C187.4,-191.78 197.08,-174.96 202.91,-164.84"/>
<polygon fill="#9a32cd" stroke="#9a32cd" points="176.92,-202.96 174.97,-213.37 182.99,-206.45 176.92,-202.96"/>
<text text-anchor="middle" x="217.5" y="-186" font-family="Helvetica,sans-Serif" font-size="10.00"> elements</text>
</g>
<!-- Node7&#45;&gt;Node7 -->
<g id="edge12" class="edge">
<title>Node7&#45;&gt;Node7</title>
<path fill="none" stroke="#9a32cd" stroke-dasharray="5,2" d="M214.15,-228.33C218.92,-227.31 222,-225.53 222,-223 222,-218.95 214.13,-216.83 204.01,-216.64"/>
<polygon fill="#9a32cd" stroke="#9a32cd" points="213.6,-224.87 204.01,-229.36 214.31,-231.83 213.6,-224.87"/>
<text text-anchor="middle" x="248" y="-226" font-family="Helvetica,sans-Serif" font-size="10.00"> m_pChild</text>
<text text-anchor="middle" x="248" y="-215" font-family="Helvetica,sans-Serif" font-size="10.00">m_pParent</text>
</g>
<!-- Node8 -->
<g id="node8" class="node">
<title>Node8</title>
<g id="a_node8"><a xlink:href="classbasic__event__group.html" target="_top" xlink:title=" ">
<polygon fill="white" stroke="black" points="0,-303.5 0,-322.5 108,-322.5 108,-303.5 0,-303.5"/>
<text text-anchor="middle" x="54" y="-310.5" font-family="Helvetica,sans-Serif" font-size="10.00">basic_event_group</text>
</a>
</g>
</g>
<!-- Node8&#45;&gt;Node7 -->
<g id="edge7" class="edge">
<title>Node8&#45;&gt;Node7</title>
<path fill="none" stroke="#9a32cd" stroke-dasharray="5,2" d="M60.58,-293.82C66.24,-280.53 75.62,-262.99 89,-252 102.34,-241.04 120.22,-234.27 135.79,-230.13"/>
<polygon fill="#9a32cd" stroke="#9a32cd" points="57.23,-292.76 56.83,-303.35 63.75,-295.32 57.23,-292.76"/>
<text text-anchor="middle" x="112" y="-266" font-family="Helvetica,sans-Serif" font-size="10.00"> m_event</text>
</g>
<!-- Node9&#45;&gt;Node1 -->
<g id="edge14" class="edge">
<title>Node9&#45;&gt;Node1</title>
<path fill="none" stroke="#9a32cd" stroke-dasharray="5,2" d="M320.69,-293.46C324.76,-275.74 330,-248.23 330,-224 330,-224 330,-224 330,-81.5 330,-59.22 330,-32.99 330,-19.68"/>
<polygon fill="#9a32cd" stroke="#9a32cd" points="317.25,-292.79 318.31,-303.33 324.06,-294.43 317.25,-292.79"/>
<text text-anchor="middle" x="353.5" y="-152.5" font-family="Helvetica,sans-Serif" font-size="10.00"> m_pLock</text>
</g>
<!-- Node9&#45;&gt;Node7 -->
<g id="edge8" class="edge">
<title>Node9&#45;&gt;Node7</title>
<path fill="none" stroke="#9a32cd" stroke-dasharray="5,2" d="M256.28,-300.25C245.59,-296.48 235,-291.52 226,-285 211.52,-274.51 215.03,-265.23 203,-252 196.53,-244.88 188.28,-237.88 181.65,-232.66"/>
<polygon fill="#9a32cd" stroke="#9a32cd" points="255.49,-303.68 266.08,-303.39 257.63,-297.01 255.49,-303.68"/>
<text text-anchor="middle" x="271" y="-277" font-family="Helvetica,sans-Serif" font-size="10.00"> m_contextMutext</text>
<text text-anchor="middle" x="271" y="-266" font-family="Helvetica,sans-Serif" font-size="10.00">m_continuemutex</text>
<text text-anchor="middle" x="271" y="-255" font-family="Helvetica,sans-Serif" font-size="10.00">m_runningMutex</text>
</g>
<!-- Node10 -->
<g id="node10" class="node">
<title>Node10</title>
<g id="a_node10"><a xlink:title="STL class.">
<polygon fill="white" stroke="#bfbfbf" points="126.5,-303.5 126.5,-322.5 191.5,-322.5 191.5,-303.5 126.5,-303.5"/>
<text text-anchor="middle" x="159" y="-310.5" font-family="Helvetica,sans-Serif" font-size="10.00">std::string</text>
</a>
</g>
</g>
<!-- Node10&#45;&gt;Node7 -->
<g id="edge10" class="edge">
<title>Node10&#45;&gt;Node7</title>
<path fill="none" stroke="#9a32cd" stroke-dasharray="5,2" d="M146.15,-294.67C144.44,-291.58 142.95,-288.3 142,-285 137.93,-270.91 136.39,-265.55 142,-252 145.21,-244.25 151.72,-237.53 157.65,-232.61"/>
<polygon fill="#9a32cd" stroke="#9a32cd" points="143.25,-296.63 151.62,-303.13 149.13,-292.83 143.25,-296.63"/>
<text text-anchor="middle" x="172.5" y="-266" font-family="Helvetica,sans-Serif" font-size="10.00"> m_strName</text>
</g>
<!-- Node11 -->
<g id="node11" class="node">
<title>Node11</title>
<g id="a_node11"><a xlink:title="STL class.">
<polygon fill="white" stroke="#bfbfbf" points="107,-360.5 107,-390.5 211,-390.5 211,-360.5 107,-360.5"/>
<text text-anchor="start" x="115" y="-378.5" font-family="Helvetica,sans-Serif" font-size="10.00">std::basic_string&lt;</text>
<text text-anchor="middle" x="159" y="-367.5" font-family="Helvetica,sans-Serif" font-size="10.00"> char &gt;</text>
</a>
</g>
</g>
<!-- Node11&#45;&gt;Node10 -->
<g id="edge11" class="edge">
<title>Node11&#45;&gt;Node10</title>
<path fill="none" stroke="midnightblue" d="M159,-350.35C159,-340.51 159,-329.78 159,-322.54"/>
<polygon fill="midnightblue" stroke="midnightblue" points="155.5,-350.47 159,-360.47 162.5,-350.47 155.5,-350.47"/>
</g>
</g>
</svg>
