<?xml version="1.0" encoding="UTF-8" standalone="no"?>
<!DOCTYPE svg PUBLIC "-//W3C//DTD SVG 1.1//EN"
 "http://www.w3.org/Graphics/SVG/1.1/DTD/svg11.dtd">
<!-- Generated by graphviz version 2.46.0 (0)
 -->
<!-- Title: mn::ext::basic_message_task Pages: 1 -->
<svg width="1580pt" height="169pt"
 viewBox="0.00 0.00 1580.00 168.50" xmlns="http://www.w3.org/2000/svg" xmlns:xlink="http://www.w3.org/1999/xlink">
<g id="graph0" class="graph" transform="scale(1 1) rotate(0) translate(4 164.5)">
<title>mn::ext::basic_message_task</title>
<polygon fill="white" stroke="transparent" points="-4,4 -4,-164.5 1576,-164.5 1576,4 -4,4"/>
<!-- Node1 -->
<g id="node1" class="node">
<title>Node1</title>
<g id="a_node1"><a xlink:title=" ">
<polygon fill="#bfbfbf" stroke="black" points="1411,-34.5 1411,-53.5 1572,-53.5 1572,-34.5 1411,-34.5"/>
<text text-anchor="middle" x="1491.5" y="-41.5" font-family="Helvetica,sans-Serif" font-size="10.00">mn::ext::basic_message_task</text>
</a>
</g>
</g>
<!-- Node2 -->
<g id="node2" class="node">
<title>Node2</title>
<g id="a_node2"><a xlink:href="classmn_1_1ext_1_1basic__convar__task.html" target="_top" xlink:title=" ">
<polygon fill="white" stroke="black" points="706,-54.5 706,-73.5 856,-73.5 856,-54.5 706,-54.5"/>
<text text-anchor="middle" x="781" y="-61.5" font-family="Helvetica,sans-Serif" font-size="10.00">mn::ext::basic_convar_task</text>
</a>
</g>
</g>
<!-- Node2&#45;&gt;Node1 -->
<g id="edge1" class="edge">
<title>Node2&#45;&gt;Node1</title>
<path fill="none" stroke="midnightblue" d="M859.7,-74.61C864.54,-75.12 869.33,-75.59 874,-76 903.69,-78.6 911.2,-78.33 941,-79 1142.04,-83.5 1193.5,-84.19 1393,-59 1405.66,-57.4 1419.21,-55.46 1432.05,-53.52"/>
<polygon fill="midnightblue" stroke="midnightblue" points="860.08,-71.13 849.76,-73.5 859.31,-78.09 860.08,-71.13"/>
</g>
<!-- Node11 -->
<g id="node11" class="node">
<title>Node11</title>
<g id="a_node11"><a xlink:title=" ">
<polygon fill="white" stroke="#bfbfbf" points="941,-40 941,-70 1073,-70 1073,-40 941,-40"/>
<text text-anchor="start" x="949" y="-58" font-family="Helvetica,sans-Serif" font-size="10.00">std::list&lt; mn::ext</text>
<text text-anchor="middle" x="1007" y="-47" font-family="Helvetica,sans-Serif" font-size="10.00">::basic_convar_task * &gt;</text>
</a>
</g>
</g>
<!-- Node2&#45;&gt;Node11 -->
<g id="edge14" class="edge">
<title>Node2&#45;&gt;Node11</title>
<path fill="none" stroke="#9a32cd" stroke-dasharray="5,2" d="M866.36,-60.61C891.05,-59.62 917.65,-58.55 940.95,-57.61"/>
<polygon fill="#9a32cd" stroke="#9a32cd" points="866.13,-57.12 856.28,-61.02 866.41,-64.11 866.13,-57.12"/>
<text text-anchor="middle" x="898.5" y="-64" font-family="Helvetica,sans-Serif" font-size="10.00"> elements</text>
</g>
<!-- Node3 -->
<g id="node3" class="node">
<title>Node3</title>
<g id="a_node3"><a xlink:href="classmn_1_1basic__task.html" target="_top" xlink:title="Wrapper class around FreeRTOS&#39;s implementation of a task.">
<polygon fill="white" stroke="black" points="579,-85.5 579,-104.5 669,-104.5 669,-85.5 579,-85.5"/>
<text text-anchor="middle" x="624" y="-92.5" font-family="Helvetica,sans-Serif" font-size="10.00">mn::basic_task</text>
</a>
</g>
</g>
<!-- Node3&#45;&gt;Node2 -->
<g id="edge2" class="edge">
<title>Node3&#45;&gt;Node2</title>
<path fill="none" stroke="midnightblue" d="M679,-84.2C696.37,-80.73 715.48,-76.9 732.36,-73.53"/>
<polygon fill="midnightblue" stroke="midnightblue" points="678.12,-80.81 669,-86.2 679.49,-87.67 678.12,-80.81"/>
</g>
<!-- Node3&#45;&gt;Node3 -->
<g id="edge3" class="edge">
<title>Node3&#45;&gt;Node3</title>
<path fill="none" stroke="#9a32cd" stroke-dasharray="5,2" d="M612.58,-114.77C613.48,-119.5 617.28,-123 624,-123 635.02,-123 638.2,-113.57 633.56,-104.76"/>
<polygon fill="#9a32cd" stroke="#9a32cd" points="616.06,-115.23 614.44,-104.76 609.17,-113.95 616.06,-115.23"/>
<text text-anchor="middle" x="624" y="-137" font-family="Helvetica,sans-Serif" font-size="10.00"> m_pChild</text>
<text text-anchor="middle" x="624" y="-126" font-family="Helvetica,sans-Serif" font-size="10.00">m_pParent</text>
</g>
<!-- Node4 -->
<g id="node4" class="node">
<title>Node4</title>
<g id="a_node4"><a xlink:href="classmn_1_1basic__binary__semaphore.html" target="_top" xlink:title=" ">
<polygon fill="white" stroke="black" points="293,-46.5 293,-65.5 453,-65.5 453,-46.5 293,-46.5"/>
<text text-anchor="middle" x="373" y="-53.5" font-family="Helvetica,sans-Serif" font-size="10.00">mn::basic_binary_semaphore</text>
</a>
</g>
</g>
<!-- Node4&#45;&gt;Node2 -->
<g id="edge9" class="edge">
<title>Node4&#45;&gt;Node2</title>
<path fill="none" stroke="#9a32cd" stroke-dasharray="5,2" d="M463.31,-57.76C536.01,-59.19 637.44,-61.19 705.75,-62.54"/>
<polygon fill="#9a32cd" stroke="#9a32cd" points="463.31,-54.26 453.24,-57.56 463.17,-61.26 463.31,-54.26"/>
<text text-anchor="middle" x="624" y="-65" font-family="Helvetica,sans-Serif" font-size="10.00"> m_waitSem</text>
</g>
<!-- Node4&#45;&gt;Node3 -->
<g id="edge4" class="edge">
<title>Node4&#45;&gt;Node3</title>
<path fill="none" stroke="#9a32cd" stroke-dasharray="5,2" d="M445.05,-67.13C488.1,-73.87 541.67,-82.26 578.72,-88.07"/>
<polygon fill="#9a32cd" stroke="#9a32cd" points="445.33,-63.63 434.91,-65.54 444.25,-70.55 445.33,-63.63"/>
<text text-anchor="middle" x="516" y="-109" font-family="Helvetica,sans-Serif" font-size="10.00"> m_contextMutext</text>
<text text-anchor="middle" x="516" y="-98" font-family="Helvetica,sans-Serif" font-size="10.00">m_continuemutex</text>
<text text-anchor="middle" x="516" y="-87" font-family="Helvetica,sans-Serif" font-size="10.00">m_runningMutex</text>
</g>
<!-- Node5 -->
<g id="node5" class="node">
<title>Node5</title>
<g id="a_node5"><a xlink:href="classmn_1_1basic__semaphore.html" target="_top" xlink:title=" ">
<polygon fill="white" stroke="black" points="132,-13.5 132,-32.5 256,-32.5 256,-13.5 132,-13.5"/>
<text text-anchor="middle" x="194" y="-20.5" font-family="Helvetica,sans-Serif" font-size="10.00">mn::basic_semaphore</text>
</a>
</g>
</g>
<!-- Node5&#45;&gt;Node4 -->
<g id="edge5" class="edge">
<title>Node5&#45;&gt;Node4</title>
<path fill="none" stroke="midnightblue" d="M256.05,-34.38C277.19,-38.32 300.66,-42.7 320.92,-46.48"/>
<polygon fill="midnightblue" stroke="midnightblue" points="256.67,-30.94 246.2,-32.54 255.38,-37.82 256.67,-30.94"/>
</g>
<!-- Node10 -->
<g id="node10" class="node">
<title>Node10</title>
<g id="a_node10"><a xlink:href="classmn_1_1basic__mutex.html" target="_top" xlink:title=" ">
<polygon fill="white" stroke="black" points="956.5,-0.5 956.5,-19.5 1057.5,-19.5 1057.5,-0.5 956.5,-0.5"/>
<text text-anchor="middle" x="1007" y="-7.5" font-family="Helvetica,sans-Serif" font-size="10.00">mn::basic_mutex</text>
</a>
</g>
</g>
<!-- Node5&#45;&gt;Node10 -->
<g id="edge12" class="edge">
<title>Node5&#45;&gt;Node10</title>
<path fill="none" stroke="midnightblue" d="M266.57,-15.35C298.76,-12.52 337.25,-10 372,-10 372,-10 372,-10 782,-10 841.89,-10 910.78,-10 956.18,-10"/>
<polygon fill="midnightblue" stroke="midnightblue" points="266,-11.88 256.35,-16.27 266.63,-18.86 266,-11.88"/>
</g>
<!-- Node6 -->
<g id="node6" class="node">
<title>Node6</title>
<g id="a_node6"><a xlink:href="classmn_1_1_i_lock_object.html" target="_top" xlink:title=" ">
<polygon fill="white" stroke="black" points="0,-13.5 0,-32.5 95,-32.5 95,-13.5 0,-13.5"/>
<text text-anchor="middle" x="47.5" y="-20.5" font-family="Helvetica,sans-Serif" font-size="10.00">mn::ILockObject</text>
</a>
</g>
</g>
<!-- Node6&#45;&gt;Node5 -->
<g id="edge6" class="edge">
<title>Node6&#45;&gt;Node5</title>
<path fill="none" stroke="midnightblue" d="M105.11,-23C113.87,-23 122.95,-23 131.8,-23"/>
<polygon fill="midnightblue" stroke="midnightblue" points="105.02,-19.5 95.02,-23 105.02,-26.5 105.02,-19.5"/>
</g>
<!-- Node7 -->
<g id="node7" class="node">
<title>Node7</title>
<g id="a_node7"><a xlink:title=" ">
<polygon fill="white" stroke="#bfbfbf" points="340.5,-135.5 340.5,-154.5 405.5,-154.5 405.5,-135.5 340.5,-135.5"/>
<text text-anchor="middle" x="373" y="-142.5" font-family="Helvetica,sans-Serif" font-size="10.00">std::string</text>
</a>
</g>
</g>
<!-- Node7&#45;&gt;Node3 -->
<g id="edge7" class="edge">
<title>Node7&#45;&gt;Node3</title>
<path fill="none" stroke="#9a32cd" stroke-dasharray="5,2" d="M415.86,-142.86C454.18,-140.14 512.17,-134.11 561,-121 575.88,-117 591.9,-110.22 603.93,-104.58"/>
<polygon fill="#9a32cd" stroke="#9a32cd" points="415.35,-139.38 405.6,-143.54 415.81,-146.37 415.35,-139.38"/>
<text text-anchor="middle" x="516" y="-140" font-family="Helvetica,sans-Serif" font-size="10.00"> m_strName</text>
</g>
<!-- Node8 -->
<g id="node8" class="node">
<title>Node8</title>
<g id="a_node8"><a xlink:title=" ">
<polygon fill="white" stroke="#bfbfbf" points="142,-130 142,-160 246,-160 246,-130 142,-130"/>
<text text-anchor="start" x="150" y="-148" font-family="Helvetica,sans-Serif" font-size="10.00">std::basic_string&lt;</text>
<text text-anchor="middle" x="194" y="-137" font-family="Helvetica,sans-Serif" font-size="10.00"> Char &gt;</text>
</a>
</g>
</g>
<!-- Node8&#45;&gt;Node7 -->
<g id="edge8" class="edge">
<title>Node8&#45;&gt;Node7</title>
<path fill="none" stroke="midnightblue" d="M256.41,-145C284.71,-145 317.11,-145 340.38,-145"/>
<polygon fill="midnightblue" stroke="midnightblue" points="256.2,-141.5 246.2,-145 256.2,-148.5 256.2,-141.5"/>
</g>
<!-- Node9 -->
<g id="node9" class="node">
<title>Node9</title>
<g id="a_node9"><a xlink:href="classmn_1_1ext_1_1basic__condition__variable.html" target="_top" xlink:title=" ">
<polygon fill="white" stroke="black" points="1166,-29 1166,-59 1302,-59 1302,-29 1166,-29"/>
<text text-anchor="start" x="1174" y="-47" font-family="Helvetica,sans-Serif" font-size="10.00">mn::ext::basic_condition</text>
<text text-anchor="middle" x="1234" y="-36" font-family="Helvetica,sans-Serif" font-size="10.00">_variable</text>
</a>
</g>
</g>
<!-- Node9&#45;&gt;Node1 -->
<g id="edge10" class="edge">
<title>Node9&#45;&gt;Node1</title>
<path fill="none" stroke="#9a32cd" stroke-dasharray="5,2" d="M1312.47,-44C1343.55,-44 1379.34,-44 1410.65,-44"/>
<polygon fill="#9a32cd" stroke="#9a32cd" points="1312.13,-40.5 1302.13,-44 1312.13,-47.5 1312.13,-40.5"/>
<text text-anchor="middle" x="1356.5" y="-47" font-family="Helvetica,sans-Serif" font-size="10.00"> m_cvMessage</text>
</g>
<!-- Node10&#45;&gt;Node1 -->
<g id="edge15" class="edge">
<title>Node10&#45;&gt;Node1</title>
<path fill="none" stroke="#9a32cd" stroke-dasharray="5,2" d="M1067.96,-9.06C1097.48,-8.65 1133.61,-8.21 1166,-8 1226.44,-7.62 1241.82,-2.31 1302,-8 1354.57,-12.98 1414.3,-25.59 1452.18,-34.48"/>
<polygon fill="#9a32cd" stroke="#9a32cd" points="1067.76,-5.56 1057.81,-9.21 1067.86,-12.56 1067.76,-5.56"/>
<text text-anchor="middle" x="1234" y="-11" font-family="Helvetica,sans-Serif" font-size="10.00"> m_ltMessageQueueLock</text>
</g>
<!-- Node10&#45;&gt;Node9 -->
<g id="edge11" class="edge">
<title>Node10&#45;&gt;Node9</title>
<path fill="none" stroke="#9a32cd" stroke-dasharray="5,2" d="M1067.64,-19.01C1097.89,-23.58 1134.74,-29.15 1165.97,-33.87"/>
<polygon fill="#9a32cd" stroke="#9a32cd" points="1068.07,-15.54 1057.66,-17.5 1067.02,-22.46 1068.07,-15.54"/>
<text text-anchor="middle" x="1119.5" y="-35" font-family="Helvetica,sans-Serif" font-size="10.00"> m_mutex</text>
</g>
<!-- Node11&#45;&gt;Node9 -->
<g id="edge13" class="edge">
<title>Node11&#45;&gt;Node9</title>
<path fill="none" stroke="#9a32cd" stroke-dasharray="5,2" d="M1083.14,-51.33C1109.85,-50.02 1139.72,-48.56 1165.72,-47.29"/>
<polygon fill="#9a32cd" stroke="#9a32cd" points="1082.9,-47.83 1073.08,-51.82 1083.24,-54.83 1082.9,-47.83"/>
<text text-anchor="middle" x="1119.5" y="-54" font-family="Helvetica,sans-Serif" font-size="10.00"> m_waitList</text>
</g>
</g>
</svg>
