<?xml version="1.0" encoding="UTF-8" standalone="no"?>
<!DOCTYPE svg PUBLIC "-//W3C//DTD SVG 1.1//EN"
 "http://www.w3.org/Graphics/SVG/1.1/DTD/svg11.dtd">
<!-- Generated by graphviz version 2.47.1 (0)
 -->
<!-- Title: mn::queue::basic_work_queue_single Pages: 1 -->
<svg width="585pt" height="455pt"
 viewBox="0.00 0.00 585.00 455.00" xmlns="http://www.w3.org/2000/svg" xmlns:xlink="http://www.w3.org/1999/xlink">
<g id="graph0" class="graph" transform="scale(1 1) rotate(0) translate(4 451)">
<title>mn::queue::basic_work_queue_single</title>
<polygon fill="white" stroke="transparent" points="-4,4 -4,-451 581,-451 581,4 -4,4"/>
<!-- Node1 -->
<g id="node1" class="node">
<title>Node1</title>
<g id="a_node1"><a xlink:title=" ">
<polygon fill="#bfbfbf" stroke="black" points="138,-0.5 138,-30.5 267,-30.5 267,-0.5 138,-0.5"/>
<text text-anchor="start" x="146" y="-18.5" font-family="Helvetica,sans-Serif" font-size="10.00">mn::queue::basic_work</text>
<text text-anchor="middle" x="202.5" y="-7.5" font-family="Helvetica,sans-Serif" font-size="10.00">_queue_single</text>
</a>
</g>
</g>
<!-- Node2 -->
<g id="node2" class="node">
<title>Node2</title>
<g id="a_node2"><a xlink:href="classmn_1_1queue_1_1basic__work__queue.html" target="_top" xlink:title=" ">
<polygon fill="white" stroke="black" points="122,-145.5 122,-175.5 251,-175.5 251,-145.5 122,-145.5"/>
<text text-anchor="start" x="130" y="-163.5" font-family="Helvetica,sans-Serif" font-size="10.00">mn::queue::basic_work</text>
<text text-anchor="middle" x="186.5" y="-152.5" font-family="Helvetica,sans-Serif" font-size="10.00">_queue</text>
</a>
</g>
</g>
<!-- Node2&#45;&gt;Node1 -->
<g id="edge1" class="edge">
<title>Node2&#45;&gt;Node1</title>
<path fill="none" stroke="midnightblue" d="M189.22,-135.19C192.58,-105.16 198.19,-55.05 200.91,-30.68"/>
<polygon fill="midnightblue" stroke="midnightblue" points="185.73,-134.94 188.09,-145.27 192.68,-135.72 185.73,-134.94"/>
</g>
<!-- Node8 -->
<g id="node8" class="node">
<title>Node8</title>
<g id="a_node8"><a xlink:href="classmn_1_1queue_1_1work__queue__task.html" target="_top" xlink:title=" ">
<polygon fill="white" stroke="black" points="214.5,-78.5 214.5,-97.5 374.5,-97.5 374.5,-78.5 214.5,-78.5"/>
<text text-anchor="middle" x="294.5" y="-85.5" font-family="Helvetica,sans-Serif" font-size="10.00">mn::queue::work_queue_task</text>
</a>
</g>
</g>
<!-- Node2&#45;&gt;Node8 -->
<g id="edge14" class="edge">
<title>Node2&#45;&gt;Node8</title>
<path fill="none" stroke="#9a32cd" stroke-dasharray="5,2" d="M216.51,-139.91C237.83,-125.99 265.43,-107.98 281.43,-97.53"/>
<polygon fill="#9a32cd" stroke="#9a32cd" points="214.56,-137.01 208.1,-145.4 218.38,-142.87 214.56,-137.01"/>
<text text-anchor="middle" x="302.5" y="-119" font-family="Helvetica,sans-Serif" font-size="10.00"> m_parentWorkQueue</text>
</g>
<!-- Node3 -->
<g id="node3" class="node">
<title>Node3</title>
<g id="a_node3"><a xlink:href="classmn_1_1basic__mutex.html" target="_top" xlink:title=" ">
<polygon fill="white" stroke="black" points="0,-245.5 0,-264.5 101,-264.5 101,-245.5 0,-245.5"/>
<text text-anchor="middle" x="50.5" y="-252.5" font-family="Helvetica,sans-Serif" font-size="10.00">mn::basic_mutex</text>
</a>
</g>
</g>
<!-- Node3&#45;&gt;Node2 -->
<g id="edge2" class="edge">
<title>Node3&#45;&gt;Node2</title>
<path fill="none" stroke="#9a32cd" stroke-dasharray="5,2" d="M61.57,-237.21C71.07,-223.93 85.83,-205.73 102.5,-194 113.24,-186.44 125.98,-180.35 138.25,-175.57"/>
<polygon fill="#9a32cd" stroke="#9a32cd" points="58.67,-235.25 55.88,-245.48 64.43,-239.22 58.67,-235.25"/>
<text text-anchor="middle" x="142.5" y="-213.5" font-family="Helvetica,sans-Serif" font-size="10.00"> m_ThreadJob</text>
<text text-anchor="middle" x="142.5" y="-202.5" font-family="Helvetica,sans-Serif" font-size="10.00">m_ThreadStatus</text>
</g>
<!-- Node4 -->
<g id="node4" class="node">
<title>Node4</title>
<g id="a_node4"><a xlink:href="classmn_1_1basic__semaphore.html" target="_top" xlink:title=" ">
<polygon fill="white" stroke="black" points="275.5,-308 275.5,-327 399.5,-327 399.5,-308 275.5,-308"/>
<text text-anchor="middle" x="337.5" y="-315" font-family="Helvetica,sans-Serif" font-size="10.00">mn::basic_semaphore</text>
</a>
</g>
</g>
<!-- Node4&#45;&gt;Node3 -->
<g id="edge3" class="edge">
<title>Node4&#45;&gt;Node3</title>
<path fill="none" stroke="midnightblue" d="M286.99,-305.85C231.28,-294.11 142.74,-275.44 91.27,-264.59"/>
<polygon fill="midnightblue" stroke="midnightblue" points="286.48,-309.32 296.99,-307.96 287.93,-302.47 286.48,-309.32"/>
</g>
<!-- Node10 -->
<g id="node10" class="node">
<title>Node10</title>
<g id="a_node10"><a xlink:href="classmn_1_1basic__binary__semaphore.html" target="_top" xlink:title=" ">
<polygon fill="white" stroke="black" points="272.5,-245.5 272.5,-264.5 432.5,-264.5 432.5,-245.5 272.5,-245.5"/>
<text text-anchor="middle" x="352.5" y="-252.5" font-family="Helvetica,sans-Serif" font-size="10.00">mn::basic_binary_semaphore</text>
</a>
</g>
</g>
<!-- Node4&#45;&gt;Node10 -->
<g id="edge11" class="edge">
<title>Node4&#45;&gt;Node10</title>
<path fill="none" stroke="midnightblue" d="M342.12,-297.85C344.87,-286.78 348.22,-273.27 350.35,-264.65"/>
<polygon fill="midnightblue" stroke="midnightblue" points="338.66,-297.28 339.65,-307.83 345.45,-298.97 338.66,-297.28"/>
</g>
<!-- Node5 -->
<g id="node5" class="node">
<title>Node5</title>
<g id="a_node5"><a xlink:href="classmn_1_1ILockObject.html" target="_top" xlink:title=" ">
<polygon fill="white" stroke="black" points="392,-370.5 392,-389.5 487,-389.5 487,-370.5 392,-370.5"/>
<text text-anchor="middle" x="439.5" y="-377.5" font-family="Helvetica,sans-Serif" font-size="10.00">mn::ILockObject</text>
</a>
</g>
</g>
<!-- Node5&#45;&gt;Node4 -->
<g id="edge4" class="edge">
<title>Node5&#45;&gt;Node4</title>
<path fill="none" stroke="midnightblue" d="M416.19,-365.17C396.46,-353.47 368.81,-337.07 352.09,-327.15"/>
<polygon fill="midnightblue" stroke="midnightblue" points="414.5,-368.24 424.89,-370.33 418.07,-362.22 414.5,-368.24"/>
</g>
<!-- Node6 -->
<g id="node6" class="node">
<title>Node6</title>
<g id="a_node6"><a xlink:title=" ">
<polygon fill="white" stroke="#bfbfbf" points="446,-427.5 446,-446.5 577,-446.5 577,-427.5 446,-427.5"/>
<text text-anchor="middle" x="511.5" y="-434.5" font-family="Helvetica,sans-Serif" font-size="10.00">MN_ONSIGLETN_CLASS</text>
</a>
</g>
</g>
<!-- Node6&#45;&gt;Node5 -->
<g id="edge5" class="edge">
<title>Node6&#45;&gt;Node5</title>
<path fill="none" stroke="#8b1a1a" d="M492.24,-421.29C479.05,-411.21 462,-398.19 450.91,-389.71"/>
<polygon fill="#8b1a1a" stroke="#8b1a1a" points="490.18,-424.12 500.25,-427.41 494.43,-418.55 490.18,-424.12"/>
</g>
<!-- Node9 -->
<g id="node9" class="node">
<title>Node9</title>
<g id="a_node9"><a xlink:href="classmn_1_1basic__task.html" target="_top" xlink:title="Wrapper class around FreeRTOS&#39;s implementation of a task.">
<polygon fill="white" stroke="black" points="344.5,-151 344.5,-170 434.5,-170 434.5,-151 344.5,-151"/>
<text text-anchor="middle" x="389.5" y="-158" font-family="Helvetica,sans-Serif" font-size="10.00">mn::basic_task</text>
</a>
</g>
</g>
<!-- Node6&#45;&gt;Node9 -->
<g id="edge9" class="edge">
<title>Node6&#45;&gt;Node9</title>
<path fill="none" stroke="#8b1a1a" d="M530.19,-419.97C539.79,-409.91 549.5,-396.02 549.5,-381 549.5,-381 549.5,-381 549.5,-254 549.5,-226.62 554.96,-213.26 535.5,-194 521.38,-180.02 471.99,-171.15 434.53,-166.26"/>
<polygon fill="#8b1a1a" stroke="#8b1a1a" points="527.48,-417.72 522.7,-427.17 532.33,-422.76 527.48,-417.72"/>
</g>
<!-- Node7 -->
<g id="node7" class="node">
<title>Node7</title>
<g id="a_node7"><a xlink:href="classmn_1_1queue_1_1basic__queue.html" target="_top" xlink:title="Queue class wrapper for FreeRTOS queues.">
<polygon fill="white" stroke="black" points="119,-245.5 119,-264.5 254,-264.5 254,-245.5 119,-245.5"/>
<text text-anchor="middle" x="186.5" y="-252.5" font-family="Helvetica,sans-Serif" font-size="10.00">mn::queue::basic_queue</text>
</a>
</g>
</g>
<!-- Node7&#45;&gt;Node2 -->
<g id="edge6" class="edge">
<title>Node7&#45;&gt;Node2</title>
<path fill="none" stroke="#9a32cd" stroke-dasharray="5,2" d="M186.5,-235.29C186.5,-217.67 186.5,-191.67 186.5,-175.7"/>
<polygon fill="#9a32cd" stroke="#9a32cd" points="183,-235.46 186.5,-245.46 190,-235.46 183,-235.46"/>
<text text-anchor="middle" x="238" y="-208" font-family="Helvetica,sans-Serif" font-size="10.00"> m_pWorkItemQueue</text>
</g>
<!-- Node8&#45;&gt;Node1 -->
<g id="edge7" class="edge">
<title>Node8&#45;&gt;Node1</title>
<path fill="none" stroke="#9a32cd" stroke-dasharray="5,2" d="M275.09,-72.13C259.1,-59.87 236.57,-42.61 220.87,-30.58"/>
<polygon fill="#9a32cd" stroke="#9a32cd" points="273.15,-75.05 283.22,-78.36 277.41,-69.49 273.15,-75.05"/>
<text text-anchor="middle" x="285.5" y="-52" font-family="Helvetica,sans-Serif" font-size="10.00"> m_pWorker</text>
</g>
<!-- Node9&#45;&gt;Node8 -->
<g id="edge8" class="edge">
<title>Node9&#45;&gt;Node8</title>
<path fill="none" stroke="midnightblue" d="M384.74,-141.3C381.66,-132.63 376.81,-122.71 369.5,-116 360.22,-107.48 348.06,-101.61 336.25,-97.58"/>
<polygon fill="midnightblue" stroke="midnightblue" points="381.42,-142.41 387.68,-150.96 388.12,-140.38 381.42,-142.41"/>
</g>
<!-- Node10&#45;&gt;Node9 -->
<g id="edge10" class="edge">
<title>Node10&#45;&gt;Node9</title>
<path fill="none" stroke="#9a32cd" stroke-dasharray="5,2" d="M350.86,-235.4C350.52,-223.11 351.56,-206.95 357.5,-194 361.93,-184.36 370.49,-175.9 377.64,-170.04"/>
<polygon fill="#9a32cd" stroke="#9a32cd" points="347.36,-235.62 351.45,-245.39 354.35,-235.2 347.36,-235.62"/>
<text text-anchor="middle" x="402.5" y="-219" font-family="Helvetica,sans-Serif" font-size="10.00"> m_contextMutext</text>
<text text-anchor="middle" x="402.5" y="-208" font-family="Helvetica,sans-Serif" font-size="10.00">m_continuemutex</text>
<text text-anchor="middle" x="402.5" y="-197" font-family="Helvetica,sans-Serif" font-size="10.00">m_runningMutex</text>
</g>
<!-- Node11 -->
<g id="node11" class="node">
<title>Node11</title>
<g id="a_node11"><a xlink:title=" ">
<polygon fill="white" stroke="#bfbfbf" points="451,-245.5 451,-264.5 516,-264.5 516,-245.5 451,-245.5"/>
<text text-anchor="middle" x="483.5" y="-252.5" font-family="Helvetica,sans-Serif" font-size="10.00">std::string</text>
</a>
</g>
</g>
<!-- Node11&#45;&gt;Node9 -->
<g id="edge12" class="edge">
<title>Node11&#45;&gt;Node9</title>
<path fill="none" stroke="#9a32cd" stroke-dasharray="5,2" d="M475.81,-236.06C469.6,-223.17 459.88,-206.02 447.5,-194 436.9,-183.71 422.4,-175.58 410.55,-170.03"/>
<polygon fill="#9a32cd" stroke="#9a32cd" points="472.69,-237.65 480.01,-245.3 479.06,-234.75 472.69,-237.65"/>
<text text-anchor="middle" x="501" y="-208" font-family="Helvetica,sans-Serif" font-size="10.00"> m_strName</text>
</g>
<!-- Node12 -->
<g id="node12" class="node">
<title>Node12</title>
<g id="a_node12"><a xlink:title=" ">
<polygon fill="white" stroke="#bfbfbf" points="417.5,-302.5 417.5,-332.5 521.5,-332.5 521.5,-302.5 417.5,-302.5"/>
<text text-anchor="start" x="425.5" y="-320.5" font-family="Helvetica,sans-Serif" font-size="10.00">std::basic_string&lt;</text>
<text text-anchor="middle" x="469.5" y="-309.5" font-family="Helvetica,sans-Serif" font-size="10.00"> Char &gt;</text>
</a>
</g>
</g>
<!-- Node12&#45;&gt;Node11 -->
<g id="edge13" class="edge">
<title>Node12&#45;&gt;Node11</title>
<path fill="none" stroke="midnightblue" d="M475.02,-292.67C477.31,-282.74 479.83,-271.85 481.52,-264.54"/>
<polygon fill="midnightblue" stroke="midnightblue" points="471.59,-291.94 472.75,-302.47 478.41,-293.51 471.59,-291.94"/>
</g>
</g>
</svg>
