<?xml version="1.0" encoding="UTF-8" standalone="no"?>
<!DOCTYPE svg PUBLIC "-//W3C//DTD SVG 1.1//EN"
 "http://www.w3.org/Graphics/SVG/1.1/DTD/svg11.dtd">
<!-- Generated by graphviz version 2.47.3 (0)
 -->
<!-- Title: mn::device::basic_wifi_ap Pages: 1 -->
<svg width="456pt" height="231pt"
 viewBox="0.00 0.00 456.00 231.00" xmlns="http://www.w3.org/2000/svg" xmlns:xlink="http://www.w3.org/1999/xlink">
<g id="graph0" class="graph" transform="scale(1 1) rotate(0) translate(4 227)">
<title>mn::device::basic_wifi_ap</title>
<polygon fill="white" stroke="transparent" points="-4,4 -4,-227 452,-227 452,4 -4,4"/>
<!-- Node1 -->
<g id="node1" class="node">
<title>Node1</title>
<g id="a_node1"><a xlink:title="Wifi AP class for the esp32.">
<polygon fill="#bfbfbf" stroke="black" points="225.5,-0.5 225.5,-19.5 367.5,-19.5 367.5,-0.5 225.5,-0.5"/>
<text text-anchor="middle" x="296.5" y="-7.5" font-family="Helvetica,sans-Serif" font-size="10.00">mn::device::basic_wifi_ap</text>
</a>
</g>
</g>
<!-- Node2 -->
<g id="node2" class="node">
<title>Node2</title>
<g id="a_node2"><a xlink:href="classmn_1_1device_1_1basic__wifi.html" target="_top" xlink:title="A basic class for wifi.">
<polygon fill="white" stroke="black" points="158,-63 158,-82 283,-82 283,-63 158,-63"/>
<text text-anchor="middle" x="220.5" y="-70" font-family="Helvetica,sans-Serif" font-size="10.00">mn::device::basic_wifi</text>
</a>
</g>
</g>
<!-- Node2&#45;&gt;Node1 -->
<g id="edge1" class="edge">
<title>Node2&#45;&gt;Node1</title>
<path fill="none" stroke="midnightblue" d="M239.28,-56.55C253.86,-44.94 273.56,-29.26 285.63,-19.65"/>
<polygon fill="midnightblue" stroke="midnightblue" points="237.03,-53.87 231.39,-62.83 241.39,-59.34 237.03,-53.87"/>
</g>
<!-- Node3 -->
<g id="node3" class="node">
<title>Node3</title>
<g id="a_node3"><a xlink:href="classmn_1_1device_1_1basic__wifi__net__if.html" target="_top" xlink:title="Wrapper basic WiFi class around esp&#45;idf implementation of a esp&#45;netif device.">
<polygon fill="white" stroke="black" points="8,-135.5 8,-165.5 133,-165.5 133,-135.5 8,-135.5"/>
<text text-anchor="start" x="16" y="-153.5" font-family="Helvetica,sans-Serif" font-size="10.00">mn::device::basic_wifi</text>
<text text-anchor="middle" x="70.5" y="-142.5" font-family="Helvetica,sans-Serif" font-size="10.00">_net_if</text>
</a>
</g>
</g>
<!-- Node3&#45;&gt;Node2 -->
<g id="edge2" class="edge">
<title>Node3&#45;&gt;Node2</title>
<path fill="none" stroke="midnightblue" d="M107.47,-130.77C138.13,-115.23 180.32,-93.86 203.51,-82.11"/>
<polygon fill="midnightblue" stroke="midnightblue" points="105.7,-127.74 98.36,-135.38 108.86,-133.99 105.7,-127.74"/>
</g>
<!-- Node4 -->
<g id="node4" class="node">
<title>Node4</title>
<g id="a_node4"><a xlink:href="classmn_1_1device_1_1basic__net__if.html" target="_top" xlink:title="Wrapper class around esp&#45;idf implementation of a esp&#45;netif device.">
<polygon fill="white" stroke="black" points="0,-203.5 0,-222.5 135,-222.5 135,-203.5 0,-203.5"/>
<text text-anchor="middle" x="67.5" y="-210.5" font-family="Helvetica,sans-Serif" font-size="10.00">mn::device::basic_net_if</text>
</a>
</g>
</g>
<!-- Node4&#45;&gt;Node3 -->
<g id="edge3" class="edge">
<title>Node4&#45;&gt;Node3</title>
<path fill="none" stroke="midnightblue" d="M68.43,-193.22C68.87,-184.36 69.39,-173.96 69.79,-165.76"/>
<polygon fill="midnightblue" stroke="midnightblue" points="64.93,-193.17 67.93,-203.33 71.92,-193.52 64.93,-193.17"/>
</g>
<!-- Node5 -->
<g id="node5" class="node">
<title>Node5</title>
<g id="a_node5"><a xlink:href="classmn_1_1basic__event__group.html" target="_top" xlink:title="Wrapper class around FreeRTOS&#39;s implementation of a event_group.">
<polygon fill="white" stroke="black" points="156.5,-141 156.5,-160 286.5,-160 286.5,-141 156.5,-141"/>
<text text-anchor="middle" x="221.5" y="-148" font-family="Helvetica,sans-Serif" font-size="10.00">mn::basic_event_group</text>
</a>
</g>
</g>
<!-- Node5&#45;&gt;Node2 -->
<g id="edge4" class="edge">
<title>Node5&#45;&gt;Node2</title>
<path fill="none" stroke="#9a32cd" stroke-dasharray="5,2" d="M221.25,-130.72C221.05,-115.2 220.77,-93.86 220.61,-82.12"/>
<polygon fill="#9a32cd" stroke="#9a32cd" points="217.75,-130.83 221.39,-140.78 224.75,-130.74 217.75,-130.83"/>
<text text-anchor="middle" x="248.5" y="-109" font-family="Helvetica,sans-Serif" font-size="10.00"> m_eGroup</text>
</g>
<!-- Node6 -->
<g id="node6" class="node">
<title>Node6</title>
<g id="a_node6"><a xlink:title=" ">
<polygon fill="white" stroke="#bfbfbf" points="153.5,-203.5 153.5,-222.5 293.5,-222.5 293.5,-203.5 153.5,-203.5"/>
<text text-anchor="middle" x="223.5" y="-210.5" font-family="Helvetica,sans-Serif" font-size="10.00">MN_ONCOPYABLE_CLASS</text>
</a>
</g>
</g>
<!-- Node6&#45;&gt;Node5 -->
<g id="edge5" class="edge">
<title>Node6&#45;&gt;Node5</title>
<path fill="none" stroke="#8b1a1a" d="M222.87,-193C222.51,-182 222.07,-168.68 221.79,-160.15"/>
<polygon fill="#8b1a1a" stroke="#8b1a1a" points="219.38,-193.45 223.21,-203.33 226.38,-193.22 219.38,-193.45"/>
</g>
<!-- Node7 -->
<g id="node7" class="node">
<title>Node7</title>
<g id="a_node7"><a xlink:href="classmn_1_1device_1_1basic__network__device.html" target="_top" xlink:title=" ">
<polygon fill="white" stroke="black" points="301,-57.5 301,-87.5 448,-87.5 448,-57.5 301,-57.5"/>
<text text-anchor="start" x="309" y="-75.5" font-family="Helvetica,sans-Serif" font-size="10.00">mn::device::basic_network</text>
<text text-anchor="middle" x="374.5" y="-64.5" font-family="Helvetica,sans-Serif" font-size="10.00">_device</text>
</a>
</g>
</g>
<!-- Node7&#45;&gt;Node1 -->
<g id="edge6" class="edge">
<title>Node7&#45;&gt;Node1</title>
<path fill="none" stroke="midnightblue" d="M348.16,-51.07C334.29,-40.31 318.03,-27.7 307.51,-19.54"/>
<polygon fill="midnightblue" stroke="midnightblue" points="346.36,-54.1 356.41,-57.47 350.65,-48.57 346.36,-54.1"/>
</g>
<!-- Node8 -->
<g id="node8" class="node">
<title>Node8</title>
<g id="a_node8"><a xlink:href="classmn_1_1device_1_1basic__device.html" target="_top" xlink:title=" ">
<polygon fill="white" stroke="black" points="304.5,-141 304.5,-160 444.5,-160 444.5,-141 304.5,-141"/>
<text text-anchor="middle" x="374.5" y="-148" font-family="Helvetica,sans-Serif" font-size="10.00">mn::device::basic_device</text>
</a>
</g>
</g>
<!-- Node8&#45;&gt;Node7 -->
<g id="edge7" class="edge">
<title>Node8&#45;&gt;Node7</title>
<path fill="none" stroke="midnightblue" d="M374.5,-130.78C374.5,-117.4 374.5,-99.69 374.5,-87.52"/>
<polygon fill="midnightblue" stroke="midnightblue" points="371,-130.78 374.5,-140.78 378,-130.78 371,-130.78"/>
</g>
</g>
</svg>
