<?xml version="1.0" encoding="UTF-8" standalone="no"?>
<!DOCTYPE svg PUBLIC "-//W3C//DTD SVG 1.1//EN"
 "http://www.w3.org/Graphics/SVG/1.1/DTD/svg11.dtd">
<!-- Generated by graphviz version 2.46.0 (0)
 -->
<!-- Title: mn::ext::foreign_task Pages: 1 -->
<svg width="420pt" height="301pt"
 viewBox="0.00 0.00 420.00 301.00" xmlns="http://www.w3.org/2000/svg" xmlns:xlink="http://www.w3.org/1999/xlink">
<g id="graph0" class="graph" transform="scale(1 1) rotate(0) translate(4 297)">
<title>mn::ext::foreign_task</title>
<polygon fill="white" stroke="transparent" points="-4,4 -4,-297 416,-297 416,4 -4,4"/>
<!-- Node1 -->
<g id="node1" class="node">
<title>Node1</title>
<g id="a_node1"><a xlink:title=" ">
<polygon fill="#bfbfbf" stroke="black" points="167.5,-0.5 167.5,-19.5 288.5,-19.5 288.5,-0.5 167.5,-0.5"/>
<text text-anchor="middle" x="228" y="-7.5" font-family="Helvetica,sans-Serif" font-size="10.00">mn::ext::foreign_task</text>
</a>
</g>
</g>
<!-- Node2 -->
<g id="node2" class="node">
<title>Node2</title>
<g id="a_node2"><a xlink:href="classmn_1_1basic__task.html" target="_top" xlink:title="Wrapper class around FreeRTOS&#39;s implementation of a task.">
<polygon fill="white" stroke="black" points="183,-58.5 183,-77.5 273,-77.5 273,-58.5 183,-58.5"/>
<text text-anchor="middle" x="228" y="-65.5" font-family="Helvetica,sans-Serif" font-size="10.00">mn::basic_task</text>
</a>
</g>
</g>
<!-- Node2&#45;&gt;Node1 -->
<g id="edge1" class="edge">
<title>Node2&#45;&gt;Node1</title>
<path fill="none" stroke="midnightblue" d="M228,-47.95C228,-38.29 228,-27.03 228,-19.51"/>
<polygon fill="midnightblue" stroke="midnightblue" points="224.5,-48.25 228,-58.25 231.5,-48.25 224.5,-48.25"/>
</g>
<!-- Node2&#45;&gt;Node2 -->
<g id="edge3" class="edge">
<title>Node2&#45;&gt;Node2</title>
<path fill="none" stroke="#9a32cd" stroke-dasharray="5,2" d="M283.26,-72.1C288.03,-71.23 291,-69.86 291,-68 291,-65.02 283.39,-63.31 273.02,-62.87"/>
<polygon fill="#9a32cd" stroke="#9a32cd" points="282.62,-68.65 273.02,-73.13 283.32,-75.61 282.62,-68.65"/>
<text text-anchor="middle" x="317" y="-71" font-family="Helvetica,sans-Serif" font-size="10.00"> m_pChild</text>
<text text-anchor="middle" x="317" y="-60" font-family="Helvetica,sans-Serif" font-size="10.00">m_pParent</text>
</g>
<!-- Node3 -->
<g id="node3" class="node">
<title>Node3</title>
<g id="a_node3"><a xlink:href="classmn_1_1basic__event__group.html" target="_top" xlink:title=" ">
<polygon fill="white" stroke="black" points="0,-148.5 0,-167.5 130,-167.5 130,-148.5 0,-148.5"/>
<text text-anchor="middle" x="65" y="-155.5" font-family="Helvetica,sans-Serif" font-size="10.00">mn::basic_event_group</text>
</a>
</g>
</g>
<!-- Node3&#45;&gt;Node2 -->
<g id="edge2" class="edge">
<title>Node3&#45;&gt;Node2</title>
<path fill="none" stroke="#9a32cd" stroke-dasharray="5,2" d="M89.77,-143.63C123.74,-125.29 183.82,-92.85 212.25,-77.5"/>
<polygon fill="#9a32cd" stroke="#9a32cd" points="88.06,-140.57 80.93,-148.4 91.39,-146.73 88.06,-140.57"/>
<text text-anchor="middle" x="199" y="-111" font-family="Helvetica,sans-Serif" font-size="10.00"> m_event</text>
</g>
<!-- Node4 -->
<g id="node4" class="node">
<title>Node4</title>
<g id="a_node4"><a xlink:href="classmn_1_1basic__binary__semaphore.html" target="_top" xlink:title=" ">
<polygon fill="white" stroke="black" points="148,-148.5 148,-167.5 308,-167.5 308,-148.5 148,-148.5"/>
<text text-anchor="middle" x="228" y="-155.5" font-family="Helvetica,sans-Serif" font-size="10.00">mn::basic_binary_semaphore</text>
</a>
</g>
</g>
<!-- Node4&#45;&gt;Node2 -->
<g id="edge4" class="edge">
<title>Node4&#45;&gt;Node2</title>
<path fill="none" stroke="#9a32cd" stroke-dasharray="5,2" d="M228,-137.98C228,-119.31 228,-91.67 228,-77.72"/>
<polygon fill="#9a32cd" stroke="#9a32cd" points="224.5,-138.24 228,-148.24 231.5,-138.24 224.5,-138.24"/>
<text text-anchor="middle" x="273" y="-122" font-family="Helvetica,sans-Serif" font-size="10.00"> m_contextMutext</text>
<text text-anchor="middle" x="273" y="-111" font-family="Helvetica,sans-Serif" font-size="10.00">m_continuemutex</text>
<text text-anchor="middle" x="273" y="-100" font-family="Helvetica,sans-Serif" font-size="10.00">m_runningMutex</text>
</g>
<!-- Node5 -->
<g id="node5" class="node">
<title>Node5</title>
<g id="a_node5"><a xlink:href="classmn_1_1basic__semaphore.html" target="_top" xlink:title=" ">
<polygon fill="white" stroke="black" points="166,-211 166,-230 290,-230 290,-211 166,-211"/>
<text text-anchor="middle" x="228" y="-218" font-family="Helvetica,sans-Serif" font-size="10.00">mn::basic_semaphore</text>
</a>
</g>
</g>
<!-- Node5&#45;&gt;Node4 -->
<g id="edge5" class="edge">
<title>Node5&#45;&gt;Node4</title>
<path fill="none" stroke="midnightblue" d="M228,-200.5C228,-189.5 228,-176.18 228,-167.65"/>
<polygon fill="midnightblue" stroke="midnightblue" points="224.5,-200.83 228,-210.83 231.5,-200.83 224.5,-200.83"/>
</g>
<!-- Node6 -->
<g id="node6" class="node">
<title>Node6</title>
<g id="a_node6"><a xlink:href="classmn_1_1_i_lock_object.html" target="_top" xlink:title=" ">
<polygon fill="white" stroke="black" points="180.5,-273.5 180.5,-292.5 275.5,-292.5 275.5,-273.5 180.5,-273.5"/>
<text text-anchor="middle" x="228" y="-280.5" font-family="Helvetica,sans-Serif" font-size="10.00">mn::ILockObject</text>
</a>
</g>
</g>
<!-- Node6&#45;&gt;Node5 -->
<g id="edge6" class="edge">
<title>Node6&#45;&gt;Node5</title>
<path fill="none" stroke="midnightblue" d="M228,-263C228,-252 228,-238.68 228,-230.15"/>
<polygon fill="midnightblue" stroke="midnightblue" points="224.5,-263.33 228,-273.33 231.5,-263.33 224.5,-263.33"/>
</g>
<!-- Node7 -->
<g id="node7" class="node">
<title>Node7</title>
<g id="a_node7"><a xlink:title=" ">
<polygon fill="white" stroke="#bfbfbf" points="327.5,-148.5 327.5,-167.5 392.5,-167.5 392.5,-148.5 327.5,-148.5"/>
<text text-anchor="middle" x="360" y="-155.5" font-family="Helvetica,sans-Serif" font-size="10.00">std::string</text>
</a>
</g>
</g>
<!-- Node7&#45;&gt;Node2 -->
<g id="edge7" class="edge">
<title>Node7&#45;&gt;Node2</title>
<path fill="none" stroke="#9a32cd" stroke-dasharray="5,2" d="M352.81,-139.04C346.56,-125.61 336.26,-107.79 322,-97 307.88,-86.31 289.72,-79.69 273.13,-75.59"/>
<polygon fill="#9a32cd" stroke="#9a32cd" points="349.61,-140.46 356.8,-148.25 356.04,-137.69 349.61,-140.46"/>
<text text-anchor="middle" x="379.5" y="-111" font-family="Helvetica,sans-Serif" font-size="10.00"> m_strName</text>
</g>
<!-- Node8 -->
<g id="node8" class="node">
<title>Node8</title>
<g id="a_node8"><a xlink:title=" ">
<polygon fill="white" stroke="#bfbfbf" points="308,-205.5 308,-235.5 412,-235.5 412,-205.5 308,-205.5"/>
<text text-anchor="start" x="316" y="-223.5" font-family="Helvetica,sans-Serif" font-size="10.00">std::basic_string&lt;</text>
<text text-anchor="middle" x="360" y="-212.5" font-family="Helvetica,sans-Serif" font-size="10.00"> Char &gt;</text>
</a>
</g>
</g>
<!-- Node8&#45;&gt;Node7 -->
<g id="edge8" class="edge">
<title>Node8&#45;&gt;Node7</title>
<path fill="none" stroke="midnightblue" d="M360,-195.35C360,-185.51 360,-174.78 360,-167.54"/>
<polygon fill="midnightblue" stroke="midnightblue" points="356.5,-195.47 360,-205.47 363.5,-195.47 356.5,-195.47"/>
</g>
</g>
</svg>
