<?xml version="1.0" encoding="UTF-8" standalone="no"?>
<!DOCTYPE svg PUBLIC "-//W3C//DTD SVG 1.1//EN"
 "http://www.w3.org/Graphics/SVG/1.1/DTD/svg11.dtd">
<!-- Generated by graphviz version 2.47.1 (0)
 -->
<!-- Title: mn::basic_mutex Pages: 1 -->
<svg width="139pt" height="196pt"
 viewBox="0.00 0.00 139.00 196.00" xmlns="http://www.w3.org/2000/svg" xmlns:xlink="http://www.w3.org/1999/xlink">
<g id="graph0" class="graph" transform="scale(1 1) rotate(0) translate(4 192)">
<title>mn::basic_mutex</title>
<polygon fill="white" stroke="transparent" points="-4,4 -4,-192 135,-192 135,4 -4,4"/>
<!-- Node1 -->
<g id="node1" class="node">
<title>Node1</title>
<g id="a_node1"><a xlink:title=" ">
<polygon fill="#bfbfbf" stroke="black" points="15,-0.5 15,-19.5 116,-19.5 116,-0.5 15,-0.5"/>
<text text-anchor="middle" x="65.5" y="-7.5" font-family="Helvetica,sans-Serif" font-size="10.00">mn::basic_mutex</text>
</a>
</g>
</g>
<!-- Node2 -->
<g id="node2" class="node">
<title>Node2</title>
<g id="a_node2"><a xlink:href="classmn_1_1basic__semaphore.html" target="_top" xlink:title=" ">
<polygon fill="white" stroke="black" points="3.5,-56.5 3.5,-75.5 127.5,-75.5 127.5,-56.5 3.5,-56.5"/>
<text text-anchor="middle" x="65.5" y="-63.5" font-family="Helvetica,sans-Serif" font-size="10.00">mn::basic_semaphore</text>
</a>
</g>
</g>
<!-- Node2&#45;&gt;Node1 -->
<g id="edge1" class="edge">
<title>Node2&#45;&gt;Node1</title>
<path fill="none" stroke="midnightblue" d="M65.5,-45.8C65.5,-36.91 65.5,-26.78 65.5,-19.75"/>
<polygon fill="midnightblue" stroke="midnightblue" points="62,-46.08 65.5,-56.08 69,-46.08 62,-46.08"/>
</g>
<!-- Node3 -->
<g id="node3" class="node">
<title>Node3</title>
<g id="a_node3"><a xlink:href="classmn_1_1ILockObject.html" target="_top" xlink:title=" ">
<polygon fill="white" stroke="black" points="18,-112.5 18,-131.5 113,-131.5 113,-112.5 18,-112.5"/>
<text text-anchor="middle" x="65.5" y="-119.5" font-family="Helvetica,sans-Serif" font-size="10.00">mn::ILockObject</text>
</a>
</g>
</g>
<!-- Node3&#45;&gt;Node2 -->
<g id="edge2" class="edge">
<title>Node3&#45;&gt;Node2</title>
<path fill="none" stroke="midnightblue" d="M65.5,-101.8C65.5,-92.91 65.5,-82.78 65.5,-75.75"/>
<polygon fill="midnightblue" stroke="midnightblue" points="62,-102.08 65.5,-112.08 69,-102.08 62,-102.08"/>
</g>
<!-- Node4 -->
<g id="node4" class="node">
<title>Node4</title>
<g id="a_node4"><a xlink:title=" ">
<polygon fill="white" stroke="#bfbfbf" points="0,-168.5 0,-187.5 131,-187.5 131,-168.5 0,-168.5"/>
<text text-anchor="middle" x="65.5" y="-175.5" font-family="Helvetica,sans-Serif" font-size="10.00">MN_ONSIGLETN_CLASS</text>
</a>
</g>
</g>
<!-- Node4&#45;&gt;Node3 -->
<g id="edge3" class="edge">
<title>Node4&#45;&gt;Node3</title>
<path fill="none" stroke="#8b1a1a" d="M65.5,-157.8C65.5,-148.91 65.5,-138.78 65.5,-131.75"/>
<polygon fill="#8b1a1a" stroke="#8b1a1a" points="62,-158.08 65.5,-168.08 69,-158.08 62,-158.08"/>
</g>
</g>
</svg>
