<?xml version="1.0" encoding="UTF-8" standalone="no"?>
<!DOCTYPE svg PUBLIC "-//W3C//DTD SVG 1.1//EN"
 "http://www.w3.org/Graphics/SVG/1.1/DTD/svg11.dtd">
<!-- Generated by graphviz version 2.47.3 (0)
 -->
<!-- Title: mn::device::basic_device Pages: 1 -->
<svg width="516pt" height="137pt"
 viewBox="0.00 0.00 516.00 137.00" xmlns="http://www.w3.org/2000/svg" xmlns:xlink="http://www.w3.org/1999/xlink">
<g id="graph0" class="graph" transform="scale(1 1) rotate(0) translate(4 133)">
<title>mn::device::basic_device</title>
<polygon fill="white" stroke="transparent" points="-4,4 -4,-133 512,-133 512,4 -4,4"/>
<!-- Node1 -->
<g id="node1" class="node">
<title>Node1</title>
<g id="a_node1"><a xlink:title=" ">
<polygon fill="#bfbfbf" stroke="black" points="0,-55 0,-74 140,-74 140,-55 0,-55"/>
<text text-anchor="middle" x="70" y="-62" font-family="Helvetica,sans-Serif" font-size="10.00">mn::device::basic_device</text>
</a>
</g>
</g>
<!-- Node2 -->
<g id="node2" class="node">
<title>Node2</title>
<g id="a_node2"><a xlink:href="classmn_1_1device_1_1basic__block__device.html" target="_top" xlink:title="basic_block_device class is an interface for a block device.">
<polygon fill="white" stroke="black" points="186,-98.5 186,-128.5 320,-128.5 320,-98.5 186,-98.5"/>
<text text-anchor="start" x="194" y="-116.5" font-family="Helvetica,sans-Serif" font-size="10.00">mn::device::basic_block</text>
<text text-anchor="middle" x="253" y="-105.5" font-family="Helvetica,sans-Serif" font-size="10.00">_device</text>
</a>
</g>
</g>
<!-- Node1&#45;&gt;Node2 -->
<g id="edge1" class="edge">
<title>Node1&#45;&gt;Node2</title>
<path fill="none" stroke="midnightblue" d="M116.03,-76.69C140.37,-83.28 170.65,-91.48 196.46,-98.46"/>
<polygon fill="midnightblue" stroke="midnightblue" points="116.9,-73.3 106.33,-74.06 115.07,-80.06 116.9,-73.3"/>
</g>
<!-- Node3 -->
<g id="node3" class="node">
<title>Node3</title>
<g id="a_node3"><a xlink:href="classmn_1_1device_1_1basic__network__device.html" target="_top" xlink:title=" ">
<polygon fill="white" stroke="black" points="179.5,-49.5 179.5,-79.5 326.5,-79.5 326.5,-49.5 179.5,-49.5"/>
<text text-anchor="start" x="187.5" y="-67.5" font-family="Helvetica,sans-Serif" font-size="10.00">mn::device::basic_network</text>
<text text-anchor="middle" x="253" y="-56.5" font-family="Helvetica,sans-Serif" font-size="10.00">_device</text>
</a>
</g>
</g>
<!-- Node1&#45;&gt;Node3 -->
<g id="edge2" class="edge">
<title>Node1&#45;&gt;Node3</title>
<path fill="none" stroke="midnightblue" d="M150.49,-64.5C160.05,-64.5 169.77,-64.5 179.23,-64.5"/>
<polygon fill="midnightblue" stroke="midnightblue" points="150.2,-61 140.2,-64.5 150.2,-68 150.2,-61"/>
</g>
<!-- Node5 -->
<g id="node5" class="node">
<title>Node5</title>
<g id="a_node5"><a xlink:href="classmn_1_1device_1_1basic__streamed__device.html" target="_top" xlink:title=" ">
<polygon fill="white" stroke="black" points="176,-0.5 176,-30.5 330,-30.5 330,-0.5 176,-0.5"/>
<text text-anchor="start" x="184" y="-18.5" font-family="Helvetica,sans-Serif" font-size="10.00">mn::device::basic_streamed</text>
<text text-anchor="middle" x="253" y="-7.5" font-family="Helvetica,sans-Serif" font-size="10.00">_device</text>
</a>
</g>
</g>
<!-- Node1&#45;&gt;Node5 -->
<g id="edge4" class="edge">
<title>Node1&#45;&gt;Node5</title>
<path fill="none" stroke="midnightblue" d="M116.03,-52.31C140.37,-45.72 170.65,-37.52 196.46,-30.54"/>
<polygon fill="midnightblue" stroke="midnightblue" points="115.07,-48.94 106.33,-54.94 116.9,-55.7 115.07,-48.94"/>
</g>
<!-- Node4 -->
<g id="node4" class="node">
<title>Node4</title>
<g id="a_node4"><a xlink:href="classmn_1_1device_1_1basic__wifi__ap.html" target="_top" xlink:title="Wifi AP class for the esp32.">
<polygon fill="white" stroke="black" points="366,-55 366,-74 508,-74 508,-55 366,-55"/>
<text text-anchor="middle" x="437" y="-62" font-family="Helvetica,sans-Serif" font-size="10.00">mn::device::basic_wifi_ap</text>
</a>
</g>
</g>
<!-- Node3&#45;&gt;Node4 -->
<g id="edge3" class="edge">
<title>Node3&#45;&gt;Node4</title>
<path fill="none" stroke="midnightblue" d="M336.75,-64.5C346.45,-64.5 356.27,-64.5 365.77,-64.5"/>
<polygon fill="midnightblue" stroke="midnightblue" points="336.72,-61 326.72,-64.5 336.72,-68 336.72,-61"/>
</g>
</g>
</svg>
