<?xml version="1.0" encoding="UTF-8" standalone="no"?>
<!DOCTYPE svg PUBLIC "-//W3C//DTD SVG 1.1//EN"
 "http://www.w3.org/Graphics/SVG/1.1/DTD/svg11.dtd">
<!-- Generated by graphviz version 2.46.0 (0)
 -->
<!-- Title: mn::ext::basic_convar_task Pages: 1 -->
<svg width="320pt" height="301pt"
 viewBox="0.00 0.00 320.00 301.00" xmlns="http://www.w3.org/2000/svg" xmlns:xlink="http://www.w3.org/1999/xlink">
<g id="graph0" class="graph" transform="scale(1 1) rotate(0) translate(4 297)">
<title>mn::ext::basic_convar_task</title>
<polygon fill="white" stroke="transparent" points="-4,4 -4,-297 316,-297 316,4 -4,4"/>
<!-- Node1 -->
<g id="node1" class="node">
<title>Node1</title>
<g id="a_node1"><a xlink:title=" ">
<polygon fill="#bfbfbf" stroke="black" points="10,-0.5 10,-19.5 160,-19.5 160,-0.5 10,-0.5"/>
<text text-anchor="middle" x="85" y="-7.5" font-family="Helvetica,sans-Serif" font-size="10.00">mn::ext::basic_convar_task</text>
</a>
</g>
</g>
<!-- Node2 -->
<g id="node2" class="node">
<title>Node2</title>
<g id="a_node2"><a xlink:href="classmn_1_1basic__task.html" target="_top" xlink:title="Wrapper class around FreeRTOS&#39;s implementation of a task.">
<polygon fill="white" stroke="black" points="152,-58.5 152,-77.5 242,-77.5 242,-58.5 152,-58.5"/>
<text text-anchor="middle" x="197" y="-65.5" font-family="Helvetica,sans-Serif" font-size="10.00">mn::basic_task</text>
</a>
</g>
</g>
<!-- Node2&#45;&gt;Node1 -->
<g id="edge1" class="edge">
<title>Node2&#45;&gt;Node1</title>
<path fill="none" stroke="midnightblue" d="M170.9,-53.95C149.73,-43.36 120.49,-28.74 102.17,-19.59"/>
<polygon fill="midnightblue" stroke="midnightblue" points="169.48,-57.15 179.99,-58.49 172.61,-50.89 169.48,-57.15"/>
</g>
<!-- Node2&#45;&gt;Node2 -->
<g id="edge2" class="edge">
<title>Node2&#45;&gt;Node2</title>
<path fill="none" stroke="#9a32cd" stroke-dasharray="5,2" d="M252.26,-72.1C257.03,-71.23 260,-69.86 260,-68 260,-65.02 252.39,-63.31 242.02,-62.87"/>
<polygon fill="#9a32cd" stroke="#9a32cd" points="251.62,-68.65 242.02,-73.13 252.32,-75.61 251.62,-68.65"/>
<text text-anchor="middle" x="286" y="-71" font-family="Helvetica,sans-Serif" font-size="10.00"> m_pChild</text>
<text text-anchor="middle" x="286" y="-60" font-family="Helvetica,sans-Serif" font-size="10.00">m_pParent</text>
</g>
<!-- Node3 -->
<g id="node3" class="node">
<title>Node3</title>
<g id="a_node3"><a xlink:href="classmn_1_1basic__binary__semaphore.html" target="_top" xlink:title=" ">
<polygon fill="white" stroke="black" points="0,-148.5 0,-167.5 160,-167.5 160,-148.5 0,-148.5"/>
<text text-anchor="middle" x="80" y="-155.5" font-family="Helvetica,sans-Serif" font-size="10.00">mn::basic_binary_semaphore</text>
</a>
</g>
</g>
<!-- Node3&#45;&gt;Node1 -->
<g id="edge8" class="edge">
<title>Node3&#45;&gt;Node1</title>
<path fill="none" stroke="#9a32cd" stroke-dasharray="5,2" d="M80.12,-138.2C80.31,-118.09 80.8,-85.28 82,-57 82.55,-44.05 83.61,-29.07 84.31,-19.81"/>
<polygon fill="#9a32cd" stroke="#9a32cd" points="76.62,-138.41 80.04,-148.43 83.62,-138.46 76.62,-138.41"/>
<text text-anchor="middle" x="112.5" y="-65.5" font-family="Helvetica,sans-Serif" font-size="10.00"> m_waitSem</text>
</g>
<!-- Node3&#45;&gt;Node2 -->
<g id="edge3" class="edge">
<title>Node3&#45;&gt;Node2</title>
<path fill="none" stroke="#9a32cd" stroke-dasharray="5,2" d="M85.26,-138.76C89.98,-125.45 98.17,-107.9 111,-97 122.49,-87.24 137.45,-80.86 151.67,-76.7"/>
<polygon fill="#9a32cd" stroke="#9a32cd" points="81.92,-137.73 82.2,-148.32 88.58,-139.87 81.92,-137.73"/>
<text text-anchor="middle" x="156" y="-122" font-family="Helvetica,sans-Serif" font-size="10.00"> m_contextMutext</text>
<text text-anchor="middle" x="156" y="-111" font-family="Helvetica,sans-Serif" font-size="10.00">m_continuemutex</text>
<text text-anchor="middle" x="156" y="-100" font-family="Helvetica,sans-Serif" font-size="10.00">m_runningMutex</text>
</g>
<!-- Node4 -->
<g id="node4" class="node">
<title>Node4</title>
<g id="a_node4"><a xlink:href="classmn_1_1basic__semaphore.html" target="_top" xlink:title=" ">
<polygon fill="white" stroke="black" points="18,-211 18,-230 142,-230 142,-211 18,-211"/>
<text text-anchor="middle" x="80" y="-218" font-family="Helvetica,sans-Serif" font-size="10.00">mn::basic_semaphore</text>
</a>
</g>
</g>
<!-- Node4&#45;&gt;Node3 -->
<g id="edge4" class="edge">
<title>Node4&#45;&gt;Node3</title>
<path fill="none" stroke="midnightblue" d="M80,-200.5C80,-189.5 80,-176.18 80,-167.65"/>
<polygon fill="midnightblue" stroke="midnightblue" points="76.5,-200.83 80,-210.83 83.5,-200.83 76.5,-200.83"/>
</g>
<!-- Node5 -->
<g id="node5" class="node">
<title>Node5</title>
<g id="a_node5"><a xlink:href="classmn_1_1_i_lock_object.html" target="_top" xlink:title=" ">
<polygon fill="white" stroke="black" points="32.5,-273.5 32.5,-292.5 127.5,-292.5 127.5,-273.5 32.5,-273.5"/>
<text text-anchor="middle" x="80" y="-280.5" font-family="Helvetica,sans-Serif" font-size="10.00">mn::ILockObject</text>
</a>
</g>
</g>
<!-- Node5&#45;&gt;Node4 -->
<g id="edge5" class="edge">
<title>Node5&#45;&gt;Node4</title>
<path fill="none" stroke="midnightblue" d="M80,-263C80,-252 80,-238.68 80,-230.15"/>
<polygon fill="midnightblue" stroke="midnightblue" points="76.5,-263.33 80,-273.33 83.5,-263.33 76.5,-263.33"/>
</g>
<!-- Node6 -->
<g id="node6" class="node">
<title>Node6</title>
<g id="a_node6"><a xlink:title=" ">
<polygon fill="white" stroke="#bfbfbf" points="186.5,-148.5 186.5,-167.5 251.5,-167.5 251.5,-148.5 186.5,-148.5"/>
<text text-anchor="middle" x="219" y="-155.5" font-family="Helvetica,sans-Serif" font-size="10.00">std::string</text>
</a>
</g>
</g>
<!-- Node6&#45;&gt;Node2 -->
<g id="edge6" class="edge">
<title>Node6&#45;&gt;Node2</title>
<path fill="none" stroke="#9a32cd" stroke-dasharray="5,2" d="M214.38,-138.5C209.71,-119.83 202.7,-91.8 199.18,-77.72"/>
<polygon fill="#9a32cd" stroke="#9a32cd" points="210.99,-139.39 216.81,-148.24 217.78,-137.69 210.99,-139.39"/>
<text text-anchor="middle" x="242.5" y="-111" font-family="Helvetica,sans-Serif" font-size="10.00"> m_strName</text>
</g>
<!-- Node7 -->
<g id="node7" class="node">
<title>Node7</title>
<g id="a_node7"><a xlink:title=" ">
<polygon fill="white" stroke="#bfbfbf" points="167,-205.5 167,-235.5 271,-235.5 271,-205.5 167,-205.5"/>
<text text-anchor="start" x="175" y="-223.5" font-family="Helvetica,sans-Serif" font-size="10.00">std::basic_string&lt;</text>
<text text-anchor="middle" x="219" y="-212.5" font-family="Helvetica,sans-Serif" font-size="10.00"> Char &gt;</text>
</a>
</g>
</g>
<!-- Node7&#45;&gt;Node6 -->
<g id="edge7" class="edge">
<title>Node7&#45;&gt;Node6</title>
<path fill="none" stroke="midnightblue" d="M219,-195.35C219,-185.51 219,-174.78 219,-167.54"/>
<polygon fill="midnightblue" stroke="midnightblue" points="215.5,-195.47 219,-205.47 222.5,-195.47 215.5,-195.47"/>
</g>
</g>
</svg>
