<?xml version="1.0" encoding="UTF-8" standalone="no"?>
<!DOCTYPE svg PUBLIC "-//W3C//DTD SVG 1.1//EN"
 "http://www.w3.org/Graphics/SVG/1.1/DTD/svg11.dtd">
<!-- Generated by graphviz version 2.46.0 (0)
 -->
<!-- Title: mn::ILockObject Pages: 1 -->
<svg width="533pt" height="378pt"
 viewBox="0.00 0.00 533.00 378.00" xmlns="http://www.w3.org/2000/svg" xmlns:xlink="http://www.w3.org/1999/xlink">
<g id="graph0" class="graph" transform="scale(1 1) rotate(0) translate(4 374)">
<title>mn::ILockObject</title>
<polygon fill="white" stroke="transparent" points="-4,4 -4,-374 529,-374 529,4 -4,4"/>
<!-- Node1 -->
<g id="node1" class="node">
<title>Node1</title>
<g id="a_node1"><a xlink:title=" ">
<polygon fill="#bfbfbf" stroke="black" points="0,-287.5 0,-306.5 95,-306.5 95,-287.5 0,-287.5"/>
<text text-anchor="middle" x="47.5" y="-294.5" font-family="Helvetica,sans-Serif" font-size="10.00">mn::ILockObject</text>
</a>
</g>
</g>
<!-- Node2 -->
<g id="node2" class="node">
<title>Node2</title>
<g id="a_node2"><a xlink:href="classmn_1_1atomic__spinlock.html" target="_top" xlink:title=" ">
<polygon fill="white" stroke="black" points="145,-344.5 145,-363.5 291,-363.5 291,-344.5 145,-344.5"/>
<text text-anchor="middle" x="218" y="-351.5" font-family="Helvetica,sans-Serif" font-size="10.00">mn::atomic_spinlock&lt; T &gt;</text>
</a>
</g>
</g>
<!-- Node1&#45;&gt;Node2 -->
<g id="edge1" class="edge">
<title>Node1&#45;&gt;Node2</title>
<path fill="none" stroke="midnightblue" d="M75.58,-311.26C91.4,-319.13 111.94,-328.59 131,-335 141.87,-338.66 153.75,-341.8 165.12,-344.42"/>
<polygon fill="midnightblue" stroke="midnightblue" points="76.89,-308 66.39,-306.6 73.73,-314.25 76.89,-308"/>
</g>
<!-- Node3 -->
<g id="node3" class="node">
<title>Node3</title>
<g id="a_node3"><a xlink:href="classmn_1_1basic__null__lock.html" target="_top" xlink:title="Null Lock is a lock object without any lock logic.">
<polygon fill="white" stroke="black" points="161.5,-306.5 161.5,-325.5 274.5,-325.5 274.5,-306.5 161.5,-306.5"/>
<text text-anchor="middle" x="218" y="-313.5" font-family="Helvetica,sans-Serif" font-size="10.00">mn::basic_null_lock</text>
</a>
</g>
</g>
<!-- Node1&#45;&gt;Node3 -->
<g id="edge2" class="edge">
<title>Node1&#45;&gt;Node3</title>
<path fill="none" stroke="midnightblue" d="M105.52,-303.43C123.54,-305.46 143.43,-307.7 161.36,-309.73"/>
<polygon fill="midnightblue" stroke="midnightblue" points="105.77,-299.94 95.44,-302.29 104.98,-306.89 105.77,-299.94"/>
</g>
<!-- Node4 -->
<g id="node4" class="node">
<title>Node4</title>
<g id="a_node4"><a xlink:href="classmn_1_1basic__semaphore.html" target="_top" xlink:title=" ">
<polygon fill="white" stroke="black" points="156,-268.5 156,-287.5 280,-287.5 280,-268.5 156,-268.5"/>
<text text-anchor="middle" x="218" y="-275.5" font-family="Helvetica,sans-Serif" font-size="10.00">mn::basic_semaphore</text>
</a>
</g>
</g>
<!-- Node1&#45;&gt;Node4 -->
<g id="edge3" class="edge">
<title>Node1&#45;&gt;Node4</title>
<path fill="none" stroke="midnightblue" d="M105.78,-290.54C121.9,-288.72 139.48,-286.74 155.81,-284.9"/>
<polygon fill="midnightblue" stroke="midnightblue" points="104.98,-287.11 95.44,-291.71 105.77,-294.06 104.98,-287.11"/>
</g>
<!-- Node9 -->
<g id="node9" class="node">
<title>Node9</title>
<g id="a_node9"><a xlink:href="classmn_1_1system_1_1ISystemLockObject.html" target="_top" xlink:title=" ">
<polygon fill="white" stroke="black" points="131,-107.5 131,-126.5 305,-126.5 305,-107.5 131,-107.5"/>
<text text-anchor="middle" x="218" y="-114.5" font-family="Helvetica,sans-Serif" font-size="10.00">mn::system::ISystemLockObject</text>
</a>
</g>
</g>
<!-- Node1&#45;&gt;Node9 -->
<g id="edge8" class="edge">
<title>Node1&#45;&gt;Node9</title>
<path fill="none" stroke="midnightblue" d="M64.61,-279.79C99.41,-242.61 180.64,-155.85 207.9,-126.73"/>
<polygon fill="midnightblue" stroke="midnightblue" points="61.84,-277.63 57.56,-287.32 66.95,-282.41 61.84,-277.63"/>
</g>
<!-- Node5 -->
<g id="node5" class="node">
<title>Node5</title>
<g id="a_node5"><a xlink:href="classmn_1_1basic__binary__semaphore.html" target="_top" xlink:title=" ">
<polygon fill="white" stroke="black" points="353,-350.5 353,-369.5 513,-369.5 513,-350.5 353,-350.5"/>
<text text-anchor="middle" x="433" y="-357.5" font-family="Helvetica,sans-Serif" font-size="10.00">mn::basic_binary_semaphore</text>
</a>
</g>
</g>
<!-- Node4&#45;&gt;Node5 -->
<g id="edge4" class="edge">
<title>Node4&#45;&gt;Node5</title>
<path fill="none" stroke="midnightblue" d="M289.88,-289.55C295.17,-291.64 300.28,-294.1 305,-297 326.52,-310.23 319.4,-327.89 341,-341 347.35,-344.85 354.35,-347.93 361.57,-350.4"/>
<polygon fill="midnightblue" stroke="midnightblue" points="290.79,-286.16 280.2,-286.18 288.49,-292.77 290.79,-286.16"/>
</g>
<!-- Node6 -->
<g id="node6" class="node">
<title>Node6</title>
<g id="a_node6"><a xlink:href="classmn_1_1basic__clock.html" target="_top" xlink:title=" ">
<polygon fill="white" stroke="black" points="349,-312.5 349,-331.5 517,-331.5 517,-312.5 349,-312.5"/>
<text text-anchor="middle" x="433" y="-319.5" font-family="Helvetica,sans-Serif" font-size="10.00">mn::basic_clock&lt; TLockType &gt;</text>
</a>
</g>
</g>
<!-- Node4&#45;&gt;Node6 -->
<g id="edge5" class="edge">
<title>Node4&#45;&gt;Node6</title>
<path fill="none" stroke="midnightblue" d="M275.15,-289.6C309.68,-296.73 353.38,-305.76 385.87,-312.47"/>
<polygon fill="midnightblue" stroke="midnightblue" points="275.72,-286.14 265.22,-287.55 274.3,-293 275.72,-286.14"/>
</g>
<!-- Node7 -->
<g id="node7" class="node">
<title>Node7</title>
<g id="a_node7"><a xlink:href="classmn_1_1basic__counting__semaphore.html" target="_top" xlink:title=" ">
<polygon fill="white" stroke="black" points="377.5,-263 377.5,-293 488.5,-293 488.5,-263 377.5,-263"/>
<text text-anchor="start" x="385.5" y="-281" font-family="Helvetica,sans-Serif" font-size="10.00">mn::basic_counting</text>
<text text-anchor="middle" x="433" y="-270" font-family="Helvetica,sans-Serif" font-size="10.00">_semaphore</text>
</a>
</g>
</g>
<!-- Node4&#45;&gt;Node7 -->
<g id="edge6" class="edge">
<title>Node4&#45;&gt;Node7</title>
<path fill="none" stroke="midnightblue" d="M290.33,-278C318.77,-278 350.98,-278 377.49,-278"/>
<polygon fill="midnightblue" stroke="midnightblue" points="290.04,-274.5 280.04,-278 290.04,-281.5 290.04,-274.5"/>
</g>
<!-- Node8 -->
<g id="node8" class="node">
<title>Node8</title>
<g id="a_node8"><a xlink:href="classmn_1_1basic__mutex.html" target="_top" xlink:title=" ">
<polygon fill="white" stroke="black" points="382.5,-224.5 382.5,-243.5 483.5,-243.5 483.5,-224.5 382.5,-224.5"/>
<text text-anchor="middle" x="433" y="-231.5" font-family="Helvetica,sans-Serif" font-size="10.00">mn::basic_mutex</text>
</a>
</g>
</g>
<!-- Node4&#45;&gt;Node8 -->
<g id="edge7" class="edge">
<title>Node4&#45;&gt;Node8</title>
<path fill="none" stroke="midnightblue" d="M275.15,-266.4C309.68,-259.27 353.38,-250.24 385.87,-243.53"/>
<polygon fill="midnightblue" stroke="midnightblue" points="274.3,-263 265.22,-268.45 275.72,-269.86 274.3,-263"/>
</g>
<!-- Node10 -->
<g id="node10" class="node">
<title>Node10</title>
<g id="a_node10"><a xlink:href="classmn_1_1system_1_1basic__critical__section.html" target="_top" xlink:title=" ">
<polygon fill="white" stroke="black" points="361,-175 361,-205 505,-205 505,-175 361,-175"/>
<text text-anchor="start" x="369" y="-193" font-family="Helvetica,sans-Serif" font-size="10.00">mn::system::basic_critical</text>
<text text-anchor="middle" x="433" y="-182" font-family="Helvetica,sans-Serif" font-size="10.00">_section</text>
</a>
</g>
</g>
<!-- Node9&#45;&gt;Node10 -->
<g id="edge9" class="edge">
<title>Node9&#45;&gt;Node10</title>
<path fill="none" stroke="midnightblue" d="M250.19,-130.77C274.61,-141.25 309.58,-155.59 341,-166 350.46,-169.13 360.58,-172.14 370.51,-174.89"/>
<polygon fill="midnightblue" stroke="midnightblue" points="251.3,-127.44 240.74,-126.68 248.52,-133.87 251.3,-127.44"/>
</g>
<!-- Node11 -->
<g id="node11" class="node">
<title>Node11</title>
<g id="a_node11"><a xlink:href="classmn_1_1system_1_1basic__critical__section__nested.html" target="_top" xlink:title=" ">
<polygon fill="white" stroke="black" points="361,-126 361,-156 505,-156 505,-126 361,-126"/>
<text text-anchor="start" x="369" y="-144" font-family="Helvetica,sans-Serif" font-size="10.00">mn::system::basic_critical</text>
<text text-anchor="middle" x="433" y="-133" font-family="Helvetica,sans-Serif" font-size="10.00">_section_nested</text>
</a>
</g>
</g>
<!-- Node9&#45;&gt;Node11 -->
<g id="edge10" class="edge">
<title>Node9&#45;&gt;Node11</title>
<path fill="none" stroke="midnightblue" d="M313.84,-127.69C329.68,-129.47 345.88,-131.3 361,-133"/>
<polygon fill="midnightblue" stroke="midnightblue" points="313.82,-124.16 303.49,-126.52 313.03,-131.12 313.82,-124.16"/>
</g>
<!-- Node12 -->
<g id="node12" class="node">
<title>Node12</title>
<g id="a_node12"><a xlink:href="classmn_1_1system_1_1basic__critical__section__timedout.html" target="_top" xlink:title=" ">
<polygon fill="white" stroke="black" points="361,-77 361,-107 505,-107 505,-77 361,-77"/>
<text text-anchor="start" x="369" y="-95" font-family="Helvetica,sans-Serif" font-size="10.00">mn::system::basic_critical</text>
<text text-anchor="middle" x="433" y="-84" font-family="Helvetica,sans-Serif" font-size="10.00">_section_timedout</text>
</a>
</g>
</g>
<!-- Node9&#45;&gt;Node12 -->
<g id="edge11" class="edge">
<title>Node9&#45;&gt;Node12</title>
<path fill="none" stroke="midnightblue" d="M310.54,-106.26C327.37,-104.28 344.72,-102.24 360.85,-100.35"/>
<polygon fill="midnightblue" stroke="midnightblue" points="309.66,-102.84 300.13,-107.48 310.47,-109.79 309.66,-102.84"/>
</g>
<!-- Node13 -->
<g id="node13" class="node">
<title>Node13</title>
<g id="a_node13"><a xlink:href="classmn_1_1system_1_1basic__interrupts__lock.html" target="_top" xlink:title=" ">
<polygon fill="white" stroke="black" points="341,-38.5 341,-57.5 525,-57.5 525,-38.5 341,-38.5"/>
<text text-anchor="middle" x="433" y="-45.5" font-family="Helvetica,sans-Serif" font-size="10.00">mn::system::basic_interrupts_lock</text>
</a>
</g>
</g>
<!-- Node9&#45;&gt;Node13 -->
<g id="edge12" class="edge">
<title>Node9&#45;&gt;Node13</title>
<path fill="none" stroke="midnightblue" d="M249.19,-103.24C273.58,-92.53 308.99,-77.87 341,-68 353.98,-64 368.25,-60.47 381.55,-57.53"/>
<polygon fill="midnightblue" stroke="midnightblue" points="247.5,-100.17 239.78,-107.42 250.34,-106.56 247.5,-100.17"/>
</g>
<!-- Node14 -->
<g id="node14" class="node">
<title>Node14</title>
<g id="a_node14"><a xlink:href="classmn_1_1system_1_1basic__schedular__lock.html" target="_top" xlink:title=" ">
<polygon fill="white" stroke="black" points="341,-0.5 341,-19.5 525,-19.5 525,-0.5 341,-0.5"/>
<text text-anchor="middle" x="433" y="-7.5" font-family="Helvetica,sans-Serif" font-size="10.00">mn::system::basic_schedular_lock</text>
</a>
</g>
</g>
<!-- Node9&#45;&gt;Node14 -->
<g id="edge13" class="edge">
<title>Node9&#45;&gt;Node14</title>
<path fill="none" stroke="midnightblue" d="M236.85,-100.35C259.37,-80.28 300.11,-47.03 341,-29 349.71,-25.16 359.24,-22.08 368.75,-19.61"/>
<polygon fill="midnightblue" stroke="midnightblue" points="234.21,-98.02 229.15,-107.33 238.91,-103.2 234.21,-98.02"/>
</g>
</g>
</svg>
