<?xml version="1.0" encoding="UTF-8" standalone="no"?>
<!DOCTYPE svg PUBLIC "-//W3C//DTD SVG 1.1//EN"
 "http://www.w3.org/Graphics/SVG/1.1/DTD/svg11.dtd">
<!-- Generated by graphviz version 2.47.1 (0)
 -->
<!-- Title: mn::queue::work_queue_task Pages: 1 -->
<svg width="1199pt" height="181pt"
 viewBox="0.00 0.00 1199.00 181.00" xmlns="http://www.w3.org/2000/svg" xmlns:xlink="http://www.w3.org/1999/xlink">
<g id="graph0" class="graph" transform="scale(1 1) rotate(0) translate(4 177)">
<title>mn::queue::work_queue_task</title>
<polygon fill="white" stroke="transparent" points="-4,4 -4,-177 1195,-177 1195,4 -4,4"/>
<!-- Node1 -->
<g id="node1" class="node">
<title>Node1</title>
<g id="a_node1"><a xlink:title=" ">
<polygon fill="#bfbfbf" stroke="black" points="1031,-56.5 1031,-75.5 1191,-75.5 1191,-56.5 1031,-56.5"/>
<text text-anchor="middle" x="1111" y="-63.5" font-family="Helvetica,sans-Serif" font-size="10.00">mn::queue::work_queue_task</text>
</a>
</g>
</g>
<!-- Node2 -->
<g id="node2" class="node">
<title>Node2</title>
<g id="a_node2"><a xlink:href="classmn_1_1basic__task.html" target="_top" xlink:title="Wrapper class around FreeRTOS&#39;s implementation of a task.">
<polygon fill="white" stroke="black" points="779.5,-107.5 779.5,-126.5 869.5,-126.5 869.5,-107.5 779.5,-107.5"/>
<text text-anchor="middle" x="824.5" y="-114.5" font-family="Helvetica,sans-Serif" font-size="10.00">mn::basic_task</text>
</a>
</g>
</g>
<!-- Node2&#45;&gt;Node1 -->
<g id="edge1" class="edge">
<title>Node2&#45;&gt;Node1</title>
<path fill="none" stroke="midnightblue" d="M879.79,-107.27C930.67,-98.15 1006.25,-84.6 1056.78,-75.54"/>
<polygon fill="midnightblue" stroke="midnightblue" points="878.87,-103.88 869.64,-109.09 880.1,-110.77 878.87,-103.88"/>
</g>
<!-- Node3 -->
<g id="node3" class="node">
<title>Node3</title>
<g id="a_node3"><a xlink:title=" ">
<polygon fill="white" stroke="#bfbfbf" points="0,-144.5 0,-163.5 131,-163.5 131,-144.5 0,-144.5"/>
<text text-anchor="middle" x="65.5" y="-151.5" font-family="Helvetica,sans-Serif" font-size="10.00">MN_ONSIGLETN_CLASS</text>
</a>
</g>
</g>
<!-- Node3&#45;&gt;Node2 -->
<g id="edge2" class="edge">
<title>Node3&#45;&gt;Node2</title>
<path fill="none" stroke="#8b1a1a" d="M125.69,-165.11C152.67,-169.27 185.1,-173 214.5,-173 214.5,-173 214.5,-173 542,-173 631.88,-173 654.46,-163.39 742,-143 760.8,-138.62 781.53,-131.98 797.37,-126.51"/>
<polygon fill="#8b1a1a" stroke="#8b1a1a" points="126.06,-161.62 115.63,-163.5 124.95,-168.53 126.06,-161.62"/>
</g>
<!-- Node6 -->
<g id="node6" class="node">
<title>Node6</title>
<g id="a_node6"><a xlink:href="classmn_1_1ILockObject.html" target="_top" xlink:title=" ">
<polygon fill="white" stroke="black" points="168,-113.5 168,-132.5 263,-132.5 263,-113.5 168,-113.5"/>
<text text-anchor="middle" x="215.5" y="-120.5" font-family="Helvetica,sans-Serif" font-size="10.00">mn::ILockObject</text>
</a>
</g>
</g>
<!-- Node3&#45;&gt;Node6 -->
<g id="edge6" class="edge">
<title>Node3&#45;&gt;Node6</title>
<path fill="none" stroke="#8b1a1a" d="M122.09,-142.36C137.58,-139.11 154.21,-135.63 169.04,-132.52"/>
<polygon fill="#8b1a1a" stroke="#8b1a1a" points="121.18,-138.97 112.11,-144.45 122.62,-145.82 121.18,-138.97"/>
</g>
<!-- Node4 -->
<g id="node4" class="node">
<title>Node4</title>
<g id="a_node4"><a xlink:href="classmn_1_1basic__binary__semaphore.html" target="_top" xlink:title=" ">
<polygon fill="white" stroke="black" points="461,-78.5 461,-97.5 621,-97.5 621,-78.5 461,-78.5"/>
<text text-anchor="middle" x="541" y="-85.5" font-family="Helvetica,sans-Serif" font-size="10.00">mn::basic_binary_semaphore</text>
</a>
</g>
</g>
<!-- Node4&#45;&gt;Node2 -->
<g id="edge3" class="edge">
<title>Node4&#45;&gt;Node2</title>
<path fill="none" stroke="#9a32cd" stroke-dasharray="5,2" d="M631.57,-79.84C666.3,-78.57 706.25,-79.43 742,-86 764.18,-90.08 788.15,-99.91 804.32,-107.42"/>
<polygon fill="#9a32cd" stroke="#9a32cd" points="631.28,-76.35 621.44,-80.28 631.58,-83.35 631.28,-76.35"/>
<text text-anchor="middle" x="690.5" y="-111" font-family="Helvetica,sans-Serif" font-size="10.00"> m_contextMutext</text>
<text text-anchor="middle" x="690.5" y="-100" font-family="Helvetica,sans-Serif" font-size="10.00">m_continuemutex</text>
<text text-anchor="middle" x="690.5" y="-89" font-family="Helvetica,sans-Serif" font-size="10.00">m_runningMutex</text>
</g>
<!-- Node5 -->
<g id="node5" class="node">
<title>Node5</title>
<g id="a_node5"><a xlink:href="classmn_1_1basic__semaphore.html" target="_top" xlink:title=" ">
<polygon fill="white" stroke="black" points="300,-75.5 300,-94.5 424,-94.5 424,-75.5 300,-75.5"/>
<text text-anchor="middle" x="362" y="-82.5" font-family="Helvetica,sans-Serif" font-size="10.00">mn::basic_semaphore</text>
</a>
</g>
</g>
<!-- Node5&#45;&gt;Node4 -->
<g id="edge4" class="edge">
<title>Node5&#45;&gt;Node4</title>
<path fill="none" stroke="midnightblue" d="M434.5,-86.21C443.2,-86.36 452.13,-86.51 460.93,-86.66"/>
<polygon fill="midnightblue" stroke="midnightblue" points="434.47,-82.71 424.41,-86.04 434.35,-89.71 434.47,-82.71"/>
</g>
<!-- Node10 -->
<g id="node10" class="node">
<title>Node10</title>
<g id="a_node10"><a xlink:href="classmn_1_1basic__mutex.html" target="_top" xlink:title=" ">
<polygon fill="white" stroke="black" points="490.5,-39.5 490.5,-58.5 591.5,-58.5 591.5,-39.5 490.5,-39.5"/>
<text text-anchor="middle" x="541" y="-46.5" font-family="Helvetica,sans-Serif" font-size="10.00">mn::basic_mutex</text>
</a>
</g>
</g>
<!-- Node5&#45;&gt;Node10 -->
<g id="edge11" class="edge">
<title>Node5&#45;&gt;Node10</title>
<path fill="none" stroke="midnightblue" d="M419.87,-73.43C443.52,-68.62 470.64,-63.11 493.12,-58.53"/>
<polygon fill="midnightblue" stroke="midnightblue" points="419.07,-70.02 409.97,-75.45 420.47,-76.88 419.07,-70.02"/>
</g>
<!-- Node6&#45;&gt;Node5 -->
<g id="edge5" class="edge">
<title>Node6&#45;&gt;Node5</title>
<path fill="none" stroke="midnightblue" d="M262.83,-110.82C282.89,-105.54 306.03,-99.46 324.8,-94.52"/>
<polygon fill="midnightblue" stroke="midnightblue" points="261.74,-107.48 252.96,-113.41 263.52,-114.25 261.74,-107.48"/>
</g>
<!-- Node7 -->
<g id="node7" class="node">
<title>Node7</title>
<g id="a_node7"><a xlink:title=" ">
<polygon fill="white" stroke="#bfbfbf" points="508.5,-122.5 508.5,-141.5 573.5,-141.5 573.5,-122.5 508.5,-122.5"/>
<text text-anchor="middle" x="541" y="-129.5" font-family="Helvetica,sans-Serif" font-size="10.00">std::string</text>
</a>
</g>
</g>
<!-- Node7&#45;&gt;Node2 -->
<g id="edge7" class="edge">
<title>Node7&#45;&gt;Node2</title>
<path fill="none" stroke="#9a32cd" stroke-dasharray="5,2" d="M583.57,-130.48C624.03,-128.91 687.26,-126.25 742,-123 754.04,-122.29 767.07,-121.38 779.1,-120.5"/>
<polygon fill="#9a32cd" stroke="#9a32cd" points="583.4,-126.98 573.54,-130.86 583.66,-133.97 583.4,-126.98"/>
<text text-anchor="middle" x="690.5" y="-131" font-family="Helvetica,sans-Serif" font-size="10.00"> m_strName</text>
</g>
<!-- Node8 -->
<g id="node8" class="node">
<title>Node8</title>
<g id="a_node8"><a xlink:title=" ">
<polygon fill="white" stroke="#bfbfbf" points="310,-114 310,-144 414,-144 414,-114 310,-114"/>
<text text-anchor="start" x="318" y="-132" font-family="Helvetica,sans-Serif" font-size="10.00">std::basic_string&lt;</text>
<text text-anchor="middle" x="362" y="-121" font-family="Helvetica,sans-Serif" font-size="10.00"> Char &gt;</text>
</a>
</g>
</g>
<!-- Node8&#45;&gt;Node7 -->
<g id="edge8" class="edge">
<title>Node8&#45;&gt;Node7</title>
<path fill="none" stroke="midnightblue" d="M424.41,-130.04C452.71,-130.52 485.11,-131.07 508.38,-131.46"/>
<polygon fill="midnightblue" stroke="midnightblue" points="424.25,-126.54 414.2,-129.87 424.13,-133.54 424.25,-126.54"/>
</g>
<!-- Node9 -->
<g id="node9" class="node">
<title>Node9</title>
<g id="a_node9"><a xlink:href="classmn_1_1queue_1_1basic__work__queue.html" target="_top" xlink:title=" ">
<polygon fill="white" stroke="black" points="760,-29 760,-59 889,-59 889,-29 760,-29"/>
<text text-anchor="start" x="768" y="-47" font-family="Helvetica,sans-Serif" font-size="10.00">mn::queue::basic_work</text>
<text text-anchor="middle" x="824.5" y="-36" font-family="Helvetica,sans-Serif" font-size="10.00">_queue</text>
</a>
</g>
</g>
<!-- Node9&#45;&gt;Node1 -->
<g id="edge9" class="edge">
<title>Node9&#45;&gt;Node1</title>
<path fill="none" stroke="#9a32cd" stroke-dasharray="5,2" d="M899.39,-49.71C939.74,-52.83 989.72,-56.7 1030.87,-59.88"/>
<polygon fill="#9a32cd" stroke="#9a32cd" points="899.59,-46.22 889.35,-48.94 899.05,-53.2 899.59,-46.22"/>
<text text-anchor="middle" x="960" y="-62" font-family="Helvetica,sans-Serif" font-size="10.00"> m_parentWorkQueue</text>
</g>
<!-- Node10&#45;&gt;Node9 -->
<g id="edge10" class="edge">
<title>Node10&#45;&gt;Node9</title>
<path fill="none" stroke="#9a32cd" stroke-dasharray="5,2" d="M601.96,-46.19C614.21,-45.71 627.02,-45.28 639,-45 679.19,-44.06 724.31,-43.8 759.88,-43.78"/>
<polygon fill="#9a32cd" stroke="#9a32cd" points="601.68,-42.7 591.83,-46.6 601.97,-49.69 601.68,-42.7"/>
<text text-anchor="middle" x="690.5" y="-59" font-family="Helvetica,sans-Serif" font-size="10.00"> m_ThreadJob</text>
<text text-anchor="middle" x="690.5" y="-48" font-family="Helvetica,sans-Serif" font-size="10.00">m_ThreadStatus</text>
</g>
<!-- Node11 -->
<g id="node11" class="node">
<title>Node11</title>
<g id="a_node11"><a xlink:href="classmn_1_1queue_1_1basic__queue.html" target="_top" xlink:title="Queue class wrapper for FreeRTOS queues.">
<polygon fill="white" stroke="black" points="473.5,-0.5 473.5,-19.5 608.5,-19.5 608.5,-0.5 473.5,-0.5"/>
<text text-anchor="middle" x="541" y="-7.5" font-family="Helvetica,sans-Serif" font-size="10.00">mn::queue::basic_queue</text>
</a>
</g>
</g>
<!-- Node11&#45;&gt;Node9 -->
<g id="edge12" class="edge">
<title>Node11&#45;&gt;Node9</title>
<path fill="none" stroke="#9a32cd" stroke-dasharray="5,2" d="M619.11,-15.74C656.33,-18.92 701.58,-23.37 742,-29 747.84,-29.81 753.9,-30.75 759.96,-31.75"/>
<polygon fill="#9a32cd" stroke="#9a32cd" points="619.09,-12.23 608.84,-14.88 618.51,-19.21 619.09,-12.23"/>
<text text-anchor="middle" x="690.5" y="-32" font-family="Helvetica,sans-Serif" font-size="10.00"> m_pWorkItemQueue</text>
</g>
</g>
</svg>
