<?xml version="1.0" encoding="UTF-8" standalone="no"?>
<!DOCTYPE svg PUBLIC "-//W3C//DTD SVG 1.1//EN"
 "http://www.w3.org/Graphics/SVG/1.1/DTD/svg11.dtd">
<!-- Generated by graphviz version 2.46.0 (0)
 -->
<!-- Title: mn::container::basic_deque&lt; T, TMAXITEMS, TITEMSIZE &gt; Pages: 1 -->
<svg width="145pt" height="174pt"
 viewBox="0.00 0.00 145.00 174.00" xmlns="http://www.w3.org/2000/svg" xmlns:xlink="http://www.w3.org/1999/xlink">
<g id="graph0" class="graph" transform="scale(1 1) rotate(0) translate(4 170)">
<title>mn::container::basic_deque&lt; T, TMAXITEMS, TITEMSIZE &gt;</title>
<polygon fill="white" stroke="transparent" points="-4,4 -4,-170 141,-170 141,4 -4,4"/>
<!-- Node1 -->
<g id="node1" class="node">
<title>Node1</title>
<g id="a_node1"><a xlink:title="A basic wrapper for the MiniLib deque&#39;s as Template deque.">
<polygon fill="#bfbfbf" stroke="black" points="0,-0.5 0,-41.5 137,-41.5 137,-0.5 0,-0.5"/>
<text text-anchor="start" x="8" y="-29.5" font-family="Helvetica,sans-Serif" font-size="10.00">mn::container::basic</text>
<text text-anchor="start" x="8" y="-18.5" font-family="Helvetica,sans-Serif" font-size="10.00">_deque&lt; T, TMAXITEMS,</text>
<text text-anchor="middle" x="68.5" y="-7.5" font-family="Helvetica,sans-Serif" font-size="10.00"> TITEMSIZE &gt;</text>
</a>
</g>
</g>
<!-- Node2 -->
<g id="node2" class="node">
<title>Node2</title>
<g id="a_node2"><a xlink:href="classmn_1_1queue_1_1basic__deque.html" target="_top" xlink:title=" ">
<polygon fill="white" stroke="black" points="1,-89.5 1,-108.5 136,-108.5 136,-89.5 1,-89.5"/>
<text text-anchor="middle" x="68.5" y="-96.5" font-family="Helvetica,sans-Serif" font-size="10.00">mn::queue::basic_deque</text>
</a>
</g>
</g>
<!-- Node2&#45;&gt;Node1 -->
<g id="edge1" class="edge">
<title>Node2&#45;&gt;Node1</title>
<path fill="none" stroke="#9a32cd" stroke-dasharray="5,2" d="M68.5,-79.14C68.5,-67.73 68.5,-53.21 68.5,-41.66"/>
<polygon fill="#9a32cd" stroke="#9a32cd" points="65,-79.28 68.5,-89.28 72,-79.28 65,-79.28"/>
<text text-anchor="middle" x="93" y="-63" font-family="Helvetica,sans-Serif" font-size="10.00"> m_deque</text>
</g>
<!-- Node3 -->
<g id="node3" class="node">
<title>Node3</title>
<g id="a_node3"><a xlink:href="classmn_1_1queue_1_1basic__queue.html" target="_top" xlink:title="Queue class wrapper for FreeRTOS queues.">
<polygon fill="white" stroke="black" points="1,-146.5 1,-165.5 136,-165.5 136,-146.5 1,-146.5"/>
<text text-anchor="middle" x="68.5" y="-153.5" font-family="Helvetica,sans-Serif" font-size="10.00">mn::queue::basic_queue</text>
</a>
</g>
</g>
<!-- Node3&#45;&gt;Node2 -->
<g id="edge2" class="edge">
<title>Node3&#45;&gt;Node2</title>
<path fill="none" stroke="midnightblue" d="M68.5,-136.12C68.5,-126.82 68.5,-116.06 68.5,-108.71"/>
<polygon fill="midnightblue" stroke="midnightblue" points="65,-136.41 68.5,-146.41 72,-136.41 65,-136.41"/>
</g>
</g>
</svg>
