<?xml version="1.0" encoding="UTF-8" standalone="no"?>
<!DOCTYPE svg PUBLIC "-//W3C//DTD SVG 1.1//EN"
 "http://www.w3.org/Graphics/SVG/1.1/DTD/svg11.dtd">
<!-- Generated by graphviz version 2.46.0 (0)
 -->
<!-- Title: mn::net::basic_ip4_endpoint Pages: 1 -->
<svg width="285pt" height="174pt"
 viewBox="0.00 0.00 284.50 174.00" xmlns="http://www.w3.org/2000/svg" xmlns:xlink="http://www.w3.org/1999/xlink">
<g id="graph0" class="graph" transform="scale(1 1) rotate(0) translate(4 170)">
<title>mn::net::basic_ip4_endpoint</title>
<polygon fill="white" stroke="transparent" points="-4,4 -4,-170 280.5,-170 280.5,4 -4,4"/>
<!-- Node1 -->
<g id="node1" class="node">
<title>Node1</title>
<g id="a_node1"><a xlink:title=" ">
<polygon fill="#bfbfbf" stroke="black" points="56,-0.5 56,-30.5 162,-30.5 162,-0.5 56,-0.5"/>
<text text-anchor="start" x="64" y="-18.5" font-family="Helvetica,sans-Serif" font-size="10.00">mn::net::basic_ip4</text>
<text text-anchor="middle" x="109" y="-7.5" font-family="Helvetica,sans-Serif" font-size="10.00">_endpoint</text>
</a>
</g>
</g>
<!-- Node2 -->
<g id="node2" class="node">
<title>Node2</title>
<g id="a_node2"><a xlink:href="classmn_1_1net_1_1basic__endpoint.html" target="_top" xlink:title=" ">
<polygon fill="white" stroke="black" points="0,-84 0,-103 134,-103 134,-84 0,-84"/>
<text text-anchor="middle" x="67" y="-91" font-family="Helvetica,sans-Serif" font-size="10.00">mn::net::basic_endpoint</text>
</a>
</g>
</g>
<!-- Node2&#45;&gt;Node1 -->
<g id="edge1" class="edge">
<title>Node2&#45;&gt;Node1</title>
<path fill="none" stroke="midnightblue" d="M76.69,-74.97C84.15,-61.47 94.33,-43.05 101.25,-30.52"/>
<polygon fill="midnightblue" stroke="midnightblue" points="73.59,-73.34 71.82,-83.78 79.72,-76.72 73.59,-73.34"/>
</g>
<!-- Node3 -->
<g id="node3" class="node">
<title>Node3</title>
<g id="a_node3"><a xlink:href="classmn_1_1net_1_1basic__ip4__address.html" target="_top" xlink:title="Class for the Internet Protocal version 4.">
<polygon fill="white" stroke="black" points="152,-78.5 152,-108.5 258,-108.5 258,-78.5 152,-78.5"/>
<text text-anchor="start" x="160" y="-96.5" font-family="Helvetica,sans-Serif" font-size="10.00">mn::net::basic_ip4</text>
<text text-anchor="middle" x="205" y="-85.5" font-family="Helvetica,sans-Serif" font-size="10.00">_address</text>
</a>
</g>
</g>
<!-- Node3&#45;&gt;Node1 -->
<g id="edge2" class="edge">
<title>Node3&#45;&gt;Node1</title>
<path fill="none" stroke="#9a32cd" stroke-dasharray="5,2" d="M178.79,-71.75C162.35,-58.73 141.57,-42.28 126.98,-30.73"/>
<polygon fill="#9a32cd" stroke="#9a32cd" points="176.93,-74.74 186.94,-78.2 181.28,-69.25 176.93,-74.74"/>
<text text-anchor="middle" x="192.5" y="-52" font-family="Helvetica,sans-Serif" font-size="10.00"> m_ipAdress</text>
</g>
<!-- Node4 -->
<g id="node4" class="node">
<title>Node4</title>
<g id="a_node4"><a xlink:href="classmn_1_1net_1_1basic__ip__address.html" target="_top" xlink:title=" ">
<polygon fill="white" stroke="black" points="133.5,-146.5 133.5,-165.5 276.5,-165.5 276.5,-146.5 133.5,-146.5"/>
<text text-anchor="middle" x="205" y="-153.5" font-family="Helvetica,sans-Serif" font-size="10.00">mn::net::basic_ip_address</text>
</a>
</g>
</g>
<!-- Node4&#45;&gt;Node3 -->
<g id="edge3" class="edge">
<title>Node4&#45;&gt;Node3</title>
<path fill="none" stroke="midnightblue" d="M205,-136.22C205,-127.36 205,-116.96 205,-108.76"/>
<polygon fill="midnightblue" stroke="midnightblue" points="201.5,-136.33 205,-146.33 208.5,-136.33 201.5,-136.33"/>
</g>
</g>
</svg>
