<?xml version="1.0" encoding="UTF-8" standalone="no"?>
<!DOCTYPE svg PUBLIC "-//W3C//DTD SVG 1.1//EN"
 "http://www.w3.org/Graphics/SVG/1.1/DTD/svg11.dtd">
<!-- Generated by graphviz version 2.47.3 (0)
 -->
<!-- Title: mn::ext::basic_convar_task Pages: 1 -->
<svg width="481pt" height="356pt"
 viewBox="0.00 0.00 480.50 356.00" xmlns="http://www.w3.org/2000/svg" xmlns:xlink="http://www.w3.org/1999/xlink">
<g id="graph0" class="graph" transform="scale(1 1) rotate(0) translate(4 352)">
<title>mn::ext::basic_convar_task</title>
<polygon fill="white" stroke="transparent" points="-4,4 -4,-352 476.5,-352 476.5,4 -4,4"/>
<!-- Node1 -->
<g id="node1" class="node">
<title>Node1</title>
<g id="a_node1"><a xlink:title=" ">
<polygon fill="#bfbfbf" stroke="black" points="55,-0.5 55,-19.5 205,-19.5 205,-0.5 55,-0.5"/>
<text text-anchor="middle" x="130" y="-7.5" font-family="Helvetica,sans-Serif" font-size="10.00">mn::ext::basic_convar_task</text>
</a>
</g>
</g>
<!-- Node2 -->
<g id="node2" class="node">
<title>Node2</title>
<g id="a_node2"><a xlink:href="classmn_1_1basic__task.html" target="_top" xlink:title="Wrapper class around FreeRTOS&#39;s implementation of a task.">
<polygon fill="white" stroke="black" points="198,-57.5 198,-76.5 288,-76.5 288,-57.5 198,-57.5"/>
<text text-anchor="middle" x="243" y="-64.5" font-family="Helvetica,sans-Serif" font-size="10.00">mn::basic_task</text>
</a>
</g>
</g>
<!-- Node2&#45;&gt;Node1 -->
<g id="edge1" class="edge">
<title>Node2&#45;&gt;Node1</title>
<path fill="none" stroke="midnightblue" d="M216.2,-52.96C194.96,-42.62 165.89,-28.47 147.53,-19.53"/>
<polygon fill="midnightblue" stroke="midnightblue" points="214.82,-56.18 225.34,-57.41 217.88,-49.88 214.82,-56.18"/>
</g>
<!-- Node3 -->
<g id="node3" class="node">
<title>Node3</title>
<g id="a_node3"><a xlink:title=" ">
<polygon fill="white" stroke="#bfbfbf" points="341.5,-328.5 341.5,-347.5 472.5,-347.5 472.5,-328.5 341.5,-328.5"/>
<text text-anchor="middle" x="407" y="-335.5" font-family="Helvetica,sans-Serif" font-size="10.00">MN_ONSIGLETN_CLASS</text>
</a>
</g>
</g>
<!-- Node3&#45;&gt;Node2 -->
<g id="edge2" class="edge">
<title>Node3&#45;&gt;Node2</title>
<path fill="none" stroke="#8b1a1a" d="M425.69,-320.97C435.29,-310.91 445,-297.02 445,-282 445,-282 445,-282 445,-155 445,-124.98 438.34,-112.57 414,-95 394.38,-80.84 331.81,-73.81 288.06,-70.54"/>
<polygon fill="#8b1a1a" stroke="#8b1a1a" points="422.98,-318.72 418.2,-328.17 427.83,-323.76 422.98,-318.72"/>
</g>
<!-- Node8 -->
<g id="node8" class="node">
<title>Node8</title>
<g id="a_node8"><a xlink:href="classmn_1_1ILockObject.html" target="_top" xlink:title=" ">
<polygon fill="white" stroke="black" points="248.5,-271.5 248.5,-290.5 343.5,-290.5 343.5,-271.5 248.5,-271.5"/>
<text text-anchor="middle" x="296" y="-278.5" font-family="Helvetica,sans-Serif" font-size="10.00">mn::ILockObject</text>
</a>
</g>
</g>
<!-- Node3&#45;&gt;Node8 -->
<g id="edge8" class="edge">
<title>Node3&#45;&gt;Node8</title>
<path fill="none" stroke="#8b1a1a" d="M380.68,-323.96C359.81,-313.62 331.26,-299.47 313.22,-290.53"/>
<polygon fill="#8b1a1a" stroke="#8b1a1a" points="379.14,-327.1 389.66,-328.41 382.25,-320.83 379.14,-327.1"/>
</g>
<!-- Node4 -->
<g id="node4" class="node">
<title>Node4</title>
<g id="a_node4"><a xlink:href="classmn_1_1basic__event__group.html" target="_top" xlink:title="Wrapper class around FreeRTOS&#39;s implementation of a event_group.">
<polygon fill="white" stroke="black" points="178,-146.5 178,-165.5 308,-165.5 308,-146.5 178,-146.5"/>
<text text-anchor="middle" x="243" y="-153.5" font-family="Helvetica,sans-Serif" font-size="10.00">mn::basic_event_group</text>
</a>
</g>
</g>
<!-- Node4&#45;&gt;Node2 -->
<g id="edge3" class="edge">
<title>Node4&#45;&gt;Node2</title>
<path fill="none" stroke="#9a32cd" stroke-dasharray="5,2" d="M243,-136.19C243,-117.74 243,-90.41 243,-76.62"/>
<polygon fill="#9a32cd" stroke="#9a32cd" points="239.5,-136.34 243,-146.34 246.5,-136.34 239.5,-136.34"/>
<text text-anchor="middle" x="281" y="-109" font-family="Helvetica,sans-Serif" font-size="10.00"> m_eventGroup</text>
</g>
<!-- Node5 -->
<g id="node5" class="node">
<title>Node5</title>
<g id="a_node5"><a xlink:title=" ">
<polygon fill="white" stroke="#bfbfbf" points="155,-209 155,-228 295,-228 295,-209 155,-209"/>
<text text-anchor="middle" x="225" y="-216" font-family="Helvetica,sans-Serif" font-size="10.00">MN_ONCOPYABLE_CLASS</text>
</a>
</g>
</g>
<!-- Node5&#45;&gt;Node4 -->
<g id="edge4" class="edge">
<title>Node5&#45;&gt;Node4</title>
<path fill="none" stroke="#8b1a1a" d="M230.45,-199.19C233.76,-188.06 237.83,-174.36 240.43,-165.65"/>
<polygon fill="#8b1a1a" stroke="#8b1a1a" points="227.08,-198.25 227.58,-208.83 233.79,-200.25 227.08,-198.25"/>
</g>
<!-- Node6 -->
<g id="node6" class="node">
<title>Node6</title>
<g id="a_node6"><a xlink:href="classmn_1_1basic__binary__semaphore.html" target="_top" xlink:title=" ">
<polygon fill="white" stroke="black" points="0,-146.5 0,-165.5 160,-165.5 160,-146.5 0,-146.5"/>
<text text-anchor="middle" x="80" y="-153.5" font-family="Helvetica,sans-Serif" font-size="10.00">mn::basic_binary_semaphore</text>
</a>
</g>
</g>
<!-- Node6&#45;&gt;Node1 -->
<g id="edge11" class="edge">
<title>Node6&#45;&gt;Node1</title>
<path fill="none" stroke="#9a32cd" stroke-dasharray="5,2" d="M86.32,-136.79C97.18,-105.51 118.98,-42.73 126.97,-19.71"/>
<polygon fill="#9a32cd" stroke="#9a32cd" points="82.95,-135.83 82.98,-146.42 89.56,-138.12 82.95,-135.83"/>
<text text-anchor="middle" x="144.5" y="-64.5" font-family="Helvetica,sans-Serif" font-size="10.00"> m_waitSem</text>
</g>
<!-- Node6&#45;&gt;Node2 -->
<g id="edge5" class="edge">
<title>Node6&#45;&gt;Node2</title>
<path fill="none" stroke="#9a32cd" stroke-dasharray="5,2" d="M94.74,-138.7C107.79,-125.19 127.98,-106.42 149,-95 164.22,-86.73 182.23,-80.77 198.4,-76.58"/>
<polygon fill="#9a32cd" stroke="#9a32cd" points="91.89,-136.63 87.6,-146.32 96.99,-141.42 91.89,-136.63"/>
<text text-anchor="middle" x="194" y="-120" font-family="Helvetica,sans-Serif" font-size="10.00"> m_contextMutext</text>
<text text-anchor="middle" x="194" y="-109" font-family="Helvetica,sans-Serif" font-size="10.00">m_continuemutex</text>
<text text-anchor="middle" x="194" y="-98" font-family="Helvetica,sans-Serif" font-size="10.00">m_runningMutex</text>
</g>
<!-- Node7 -->
<g id="node7" class="node">
<title>Node7</title>
<g id="a_node7"><a xlink:href="classmn_1_1basic__semaphore.html" target="_top" xlink:title=" ">
<polygon fill="white" stroke="black" points="13,-209 13,-228 137,-228 137,-209 13,-209"/>
<text text-anchor="middle" x="75" y="-216" font-family="Helvetica,sans-Serif" font-size="10.00">mn::basic_semaphore</text>
</a>
</g>
</g>
<!-- Node7&#45;&gt;Node6 -->
<g id="edge6" class="edge">
<title>Node7&#45;&gt;Node6</title>
<path fill="none" stroke="midnightblue" d="M76.54,-198.85C77.46,-187.78 78.57,-174.27 79.28,-165.65"/>
<polygon fill="midnightblue" stroke="midnightblue" points="73.05,-198.58 75.72,-208.83 80.03,-199.15 73.05,-198.58"/>
</g>
<!-- Node8&#45;&gt;Node7 -->
<g id="edge7" class="edge">
<title>Node8&#45;&gt;Node7</title>
<path fill="none" stroke="midnightblue" d="M254.95,-268.76C211.95,-256.99 145.37,-238.76 106.39,-228.09"/>
<polygon fill="midnightblue" stroke="midnightblue" points="254.24,-272.2 264.8,-271.46 256.08,-265.44 254.24,-272.2"/>
</g>
<!-- Node9 -->
<g id="node9" class="node">
<title>Node9</title>
<g id="a_node9"><a xlink:title=" ">
<polygon fill="white" stroke="#bfbfbf" points="327.5,-146.5 327.5,-165.5 392.5,-165.5 392.5,-146.5 327.5,-146.5"/>
<text text-anchor="middle" x="360" y="-153.5" font-family="Helvetica,sans-Serif" font-size="10.00">std::string</text>
</a>
</g>
</g>
<!-- Node9&#45;&gt;Node2 -->
<g id="edge9" class="edge">
<title>Node9&#45;&gt;Node2</title>
<path fill="none" stroke="#9a32cd" stroke-dasharray="5,2" d="M352.82,-136.79C346.72,-123.49 336.76,-105.94 323,-95 312.33,-86.51 298.85,-80.63 286.02,-76.58"/>
<polygon fill="#9a32cd" stroke="#9a32cd" points="349.75,-138.5 356.88,-146.33 356.19,-135.76 349.75,-138.5"/>
<text text-anchor="middle" x="379.5" y="-109" font-family="Helvetica,sans-Serif" font-size="10.00"> m_strName</text>
</g>
<!-- Node10 -->
<g id="node10" class="node">
<title>Node10</title>
<g id="a_node10"><a xlink:title=" ">
<polygon fill="white" stroke="#bfbfbf" points="313,-203.5 313,-233.5 417,-233.5 417,-203.5 313,-203.5"/>
<text text-anchor="start" x="321" y="-221.5" font-family="Helvetica,sans-Serif" font-size="10.00">std::basic_string&lt;</text>
<text text-anchor="middle" x="365" y="-210.5" font-family="Helvetica,sans-Serif" font-size="10.00"> Char &gt;</text>
</a>
</g>
</g>
<!-- Node10&#45;&gt;Node9 -->
<g id="edge10" class="edge">
<title>Node10&#45;&gt;Node9</title>
<path fill="none" stroke="midnightblue" d="M363,-193.35C362.19,-183.51 361.3,-172.78 360.71,-165.54"/>
<polygon fill="midnightblue" stroke="midnightblue" points="359.53,-193.79 363.84,-203.47 366.5,-193.21 359.53,-193.79"/>
</g>
</g>
</svg>
