<?xml version="1.0" encoding="UTF-8" standalone="no"?>
<!DOCTYPE svg PUBLIC "-//W3C//DTD SVG 1.1//EN"
 "http://www.w3.org/Graphics/SVG/1.1/DTD/svg11.dtd">
<!-- Generated by graphviz version 2.44.1 (0)
 -->
<!-- Title: ISystemLockObject Pages: 1 -->
<svg width="385pt" height="203pt"
 viewBox="0.00 0.00 385.00 203.00" xmlns="http://www.w3.org/2000/svg" xmlns:xlink="http://www.w3.org/1999/xlink">
<g id="graph0" class="graph" transform="scale(1 1) rotate(0) translate(4 199)">
<title>ISystemLockObject</title>
<polygon fill="white" stroke="transparent" points="-4,4 -4,-199 381,-199 381,4 -4,4"/>
<!-- Node1 -->
<g id="node1" class="node">
<title>Node1</title>
<g id="a_node1"><a xlink:title=" ">
<polygon fill="#bfbfbf" stroke="black" points="110,-82.5 110,-101.5 220,-101.5 220,-82.5 110,-82.5"/>
<text text-anchor="middle" x="165" y="-89.5" font-family="Helvetica,sans-Serif" font-size="10.00">ISystemLockObject</text>
</a>
</g>
</g>
<!-- Node3 -->
<g id="node3" class="node">
<title>Node3</title>
<g id="a_node3"><a xlink:href="classbasic__critical__section.html" target="_top" xlink:title=" ">
<polygon fill="white" stroke="black" points="256,-175.5 256,-194.5 377,-194.5 377,-175.5 256,-175.5"/>
<text text-anchor="middle" x="316.5" y="-182.5" font-family="Helvetica,sans-Serif" font-size="10.00">basic_critical_section</text>
</a>
</g>
</g>
<!-- Node1&#45;&gt;Node3 -->
<g id="edge2" class="edge">
<title>Node1&#45;&gt;Node3</title>
<path fill="none" stroke="midnightblue" d="M182.53,-108.93C199.58,-125.53 227.6,-150.54 256,-166 262.86,-169.73 270.56,-172.87 278.1,-175.45"/>
<polygon fill="midnightblue" stroke="midnightblue" points="184.65,-106.11 175.1,-101.54 179.72,-111.07 184.65,-106.11"/>
</g>
<!-- Node4 -->
<g id="node4" class="node">
<title>Node4</title>
<g id="a_node4"><a xlink:href="classbasic__critical__section__nested.html" target="_top" xlink:title=" ">
<polygon fill="white" stroke="black" points="256,-126 256,-156 377,-156 377,-126 256,-126"/>
<text text-anchor="start" x="264" y="-144" font-family="Helvetica,sans-Serif" font-size="10.00">basic_critical_section</text>
<text text-anchor="middle" x="316.5" y="-133" font-family="Helvetica,sans-Serif" font-size="10.00">_nested</text>
</a>
</g>
</g>
<!-- Node1&#45;&gt;Node4 -->
<g id="edge3" class="edge">
<title>Node1&#45;&gt;Node4</title>
<path fill="none" stroke="midnightblue" d="M204.81,-104.72C224.63,-111.22 248.88,-119.16 269.62,-125.96"/>
<polygon fill="midnightblue" stroke="midnightblue" points="205.77,-101.35 195.18,-101.56 203.59,-108 205.77,-101.35"/>
</g>
<!-- Node5 -->
<g id="node5" class="node">
<title>Node5</title>
<g id="a_node5"><a xlink:href="classbasic__critical__section__timedout.html" target="_top" xlink:title=" ">
<polygon fill="white" stroke="black" points="256,-77 256,-107 377,-107 377,-77 256,-77"/>
<text text-anchor="start" x="264" y="-95" font-family="Helvetica,sans-Serif" font-size="10.00">basic_critical_section</text>
<text text-anchor="middle" x="316.5" y="-84" font-family="Helvetica,sans-Serif" font-size="10.00">_timedout</text>
</a>
</g>
</g>
<!-- Node1&#45;&gt;Node5 -->
<g id="edge4" class="edge">
<title>Node1&#45;&gt;Node5</title>
<path fill="none" stroke="midnightblue" d="M230.53,-92C238.94,-92 247.52,-92 255.84,-92"/>
<polygon fill="midnightblue" stroke="midnightblue" points="230.4,-88.5 220.4,-92 230.4,-95.5 230.4,-88.5"/>
</g>
<!-- Node6 -->
<g id="node6" class="node">
<title>Node6</title>
<g id="a_node6"><a xlink:href="classbasic__interrupts__lock.html" target="_top" xlink:title=" ">
<polygon fill="white" stroke="black" points="256.5,-38.5 256.5,-57.5 376.5,-57.5 376.5,-38.5 256.5,-38.5"/>
<text text-anchor="middle" x="316.5" y="-45.5" font-family="Helvetica,sans-Serif" font-size="10.00">basic_interrupts_lock</text>
</a>
</g>
</g>
<!-- Node1&#45;&gt;Node6 -->
<g id="edge5" class="edge">
<title>Node1&#45;&gt;Node6</title>
<path fill="none" stroke="midnightblue" d="M208.25,-79.57C232,-72.57 261.2,-63.98 283.12,-57.53"/>
<polygon fill="midnightblue" stroke="midnightblue" points="207.04,-76.27 198.44,-82.45 209.02,-82.99 207.04,-76.27"/>
</g>
<!-- Node7 -->
<g id="node7" class="node">
<title>Node7</title>
<g id="a_node7"><a xlink:href="classbasic__schedular__lock.html" target="_top" xlink:title=" ">
<polygon fill="white" stroke="black" points="256.5,-0.5 256.5,-19.5 376.5,-19.5 376.5,-0.5 256.5,-0.5"/>
<text text-anchor="middle" x="316.5" y="-7.5" font-family="Helvetica,sans-Serif" font-size="10.00">basic_schedular_lock</text>
</a>
</g>
</g>
<!-- Node1&#45;&gt;Node7 -->
<g id="edge6" class="edge">
<title>Node1&#45;&gt;Node7</title>
<path fill="none" stroke="midnightblue" d="M185,-76.13C202.52,-62.14 229.71,-42.02 256,-29 263.38,-25.34 271.63,-22.18 279.57,-19.55"/>
<polygon fill="midnightblue" stroke="midnightblue" points="182.78,-73.42 177.23,-82.44 187.19,-78.86 182.78,-73.42"/>
</g>
<!-- Node2 -->
<g id="node2" class="node">
<title>Node2</title>
<g id="a_node2"><a xlink:href="class_i_lock_object.html" target="_top" xlink:title=" ">
<polygon fill="white" stroke="black" points="0,-82.5 0,-101.5 74,-101.5 74,-82.5 0,-82.5"/>
<text text-anchor="middle" x="37" y="-89.5" font-family="Helvetica,sans-Serif" font-size="10.00">ILockObject</text>
</a>
</g>
</g>
<!-- Node2&#45;&gt;Node1 -->
<g id="edge1" class="edge">
<title>Node2&#45;&gt;Node1</title>
<path fill="none" stroke="midnightblue" d="M84.26,-92C92.49,-92 101.13,-92 109.56,-92"/>
<polygon fill="midnightblue" stroke="midnightblue" points="84.11,-88.5 74.11,-92 84.11,-95.5 84.11,-88.5"/>
</g>
</g>
</svg>
