<?xml version="1.0" encoding="UTF-8" standalone="no"?>
<!DOCTYPE svg PUBLIC "-//W3C//DTD SVG 1.1//EN"
 "http://www.w3.org/Graphics/SVG/1.1/DTD/svg11.dtd">
<!-- Generated by graphviz version 2.47.1 (0)
 -->
<!-- Title: mn::basic_atomic_flag&lt; TAtomicType, TTrue, TFalse &gt; Pages: 1 -->
<svg width="153pt" height="185pt"
 viewBox="0.00 0.00 153.00 185.00" xmlns="http://www.w3.org/2000/svg" xmlns:xlink="http://www.w3.org/1999/xlink">
<g id="graph0" class="graph" transform="scale(1 1) rotate(0) translate(4 181)">
<title>mn::basic_atomic_flag&lt; TAtomicType, TTrue, TFalse &gt;</title>
<polygon fill="white" stroke="transparent" points="-4,4 -4,-181 149,-181 149,4 -4,4"/>
<!-- Node1 -->
<g id="node1" class="node">
<title>Node1</title>
<g id="a_node1"><a xlink:title=" ">
<polygon fill="#bfbfbf" stroke="black" points="9.5,-0.5 9.5,-41.5 135.5,-41.5 135.5,-0.5 9.5,-0.5"/>
<text text-anchor="start" x="17.5" y="-29.5" font-family="Helvetica,sans-Serif" font-size="10.00">mn::basic_atomic_flag</text>
<text text-anchor="start" x="17.5" y="-18.5" font-family="Helvetica,sans-Serif" font-size="10.00">&lt; TAtomicType, TTrue,</text>
<text text-anchor="middle" x="72.5" y="-7.5" font-family="Helvetica,sans-Serif" font-size="10.00"> TFalse &gt;</text>
</a>
</g>
</g>
<!-- Node2 -->
<g id="node2" class="node">
<title>Node2</title>
<g id="a_node2"><a xlink:href="structmn_1_1__atomic.html" target="_top" xlink:title=" ">
<polygon fill="white" stroke="black" points="0,-89.5 0,-108.5 145,-108.5 145,-89.5 0,-89.5"/>
<text text-anchor="middle" x="72.5" y="-96.5" font-family="Helvetica,sans-Serif" font-size="10.00">mn::_atomic&lt; flag_type &gt;</text>
</a>
</g>
</g>
<!-- Node2&#45;&gt;Node1 -->
<g id="edge1" class="edge">
<title>Node2&#45;&gt;Node1</title>
<path fill="none" stroke="#9a32cd" stroke-dasharray="5,2" d="M72.5,-79.14C72.5,-67.73 72.5,-53.21 72.5,-41.66"/>
<polygon fill="#9a32cd" stroke="#9a32cd" points="69,-79.28 72.5,-89.28 76,-79.28 69,-79.28"/>
<text text-anchor="middle" x="95.5" y="-63" font-family="Helvetica,sans-Serif" font-size="10.00"> m_bFlag</text>
</g>
<!-- Node3 -->
<g id="node3" class="node">
<title>Node3</title>
<g id="a_node3"><a xlink:title=" ">
<polygon fill="white" stroke="#bfbfbf" points="0.5,-146.5 0.5,-176.5 144.5,-176.5 144.5,-146.5 0.5,-146.5"/>
<text text-anchor="start" x="8.5" y="-164.5" font-family="Helvetica,sans-Serif" font-size="10.00">BASE_ATOMIC_TYPE&lt; flag</text>
<text text-anchor="middle" x="72.5" y="-153.5" font-family="Helvetica,sans-Serif" font-size="10.00">_type &gt;</text>
</a>
</g>
</g>
<!-- Node3&#45;&gt;Node2 -->
<g id="edge2" class="edge">
<title>Node3&#45;&gt;Node2</title>
<path fill="none" stroke="midnightblue" d="M72.5,-136.35C72.5,-126.51 72.5,-115.78 72.5,-108.54"/>
<polygon fill="midnightblue" stroke="midnightblue" points="69,-136.47 72.5,-146.47 76,-136.47 69,-136.47"/>
</g>
</g>
</svg>
