<?xml version="1.0" encoding="UTF-8" standalone="no"?>
<!DOCTYPE svg PUBLIC "-//W3C//DTD SVG 1.1//EN"
 "http://www.w3.org/Graphics/SVG/1.1/DTD/svg11.dtd">
<!-- Generated by graphviz version 2.46.0 (0)
 -->
<!-- Title: mn::container::basic_fixed_sorted_vector&lt; TKey, TValue, TCapacity, TAllocator, TCompare &gt; Pages: 1 -->
<svg width="765pt" height="83pt"
 viewBox="0.00 0.00 765.00 83.00" xmlns="http://www.w3.org/2000/svg" xmlns:xlink="http://www.w3.org/1999/xlink">
<g id="graph0" class="graph" transform="scale(1 1) rotate(0) translate(4 79)">
<title>mn::container::basic_fixed_sorted_vector&lt; TKey, TValue, TCapacity, TAllocator, TCompare &gt;</title>
<polygon fill="white" stroke="transparent" points="-4,4 -4,-79 761,-79 761,4 -4,4"/>
<!-- Node1 -->
<g id="node1" class="node">
<title>Node1</title>
<g id="a_node1"><a xlink:title=" ">
<polygon fill="#bfbfbf" stroke="black" points="609,-11.5 609,-63.5 757,-63.5 757,-11.5 609,-11.5"/>
<text text-anchor="start" x="617" y="-51.5" font-family="Helvetica,sans-Serif" font-size="10.00">mn::container::basic</text>
<text text-anchor="start" x="617" y="-40.5" font-family="Helvetica,sans-Serif" font-size="10.00">_fixed_sorted_vector</text>
<text text-anchor="start" x="617" y="-29.5" font-family="Helvetica,sans-Serif" font-size="10.00">&lt; TKey, TValue, TCapacity,</text>
<text text-anchor="middle" x="683" y="-18.5" font-family="Helvetica,sans-Serif" font-size="10.00"> TAllocator, TCompare &gt;</text>
</a>
</g>
</g>
<!-- Node2 -->
<g id="node2" class="node">
<title>Node2</title>
<g id="a_node2"><a xlink:href="classmn_1_1container_1_1basic__sorted__vector.html" target="_top" xlink:title=" ">
<polygon fill="white" stroke="black" points="378,-0.5 378,-74.5 573,-74.5 573,-0.5 378,-0.5"/>
<text text-anchor="start" x="386" y="-62.5" font-family="Helvetica,sans-Serif" font-size="10.00">mn::container::basic</text>
<text text-anchor="start" x="386" y="-51.5" font-family="Helvetica,sans-Serif" font-size="10.00">_sorted_vector&lt; TKey,</text>
<text text-anchor="start" x="386" y="-40.5" font-family="Helvetica,sans-Serif" font-size="10.00"> TValue, TAllocator, mn</text>
<text text-anchor="start" x="386" y="-29.5" font-family="Helvetica,sans-Serif" font-size="10.00">::less&lt; TKey &gt;, fixed_vector</text>
<text text-anchor="start" x="386" y="-18.5" font-family="Helvetica,sans-Serif" font-size="10.00">_storage&lt; basic_pair&lt; TKey,</text>
<text text-anchor="middle" x="475.5" y="-7.5" font-family="Helvetica,sans-Serif" font-size="10.00"> TValue &gt;, TAllocator, TCapacity &gt; &gt;</text>
</a>
</g>
</g>
<!-- Node2&#45;&gt;Node1 -->
<g id="edge1" class="edge">
<title>Node2&#45;&gt;Node1</title>
<path fill="none" stroke="midnightblue" d="M583.35,-37.5C591.96,-37.5 600.53,-37.5 608.82,-37.5"/>
<polygon fill="midnightblue" stroke="midnightblue" points="583.23,-34 573.23,-37.5 583.23,-41 583.23,-34"/>
</g>
<!-- Node3 -->
<g id="node3" class="node">
<title>Node3</title>
<g id="a_node3"><a xlink:href="classmn_1_1container_1_1basic__vector.html" target="_top" xlink:title=" ">
<polygon fill="white" stroke="black" points="214,-17 214,-58 342,-58 342,-17 214,-17"/>
<text text-anchor="start" x="222" y="-46" font-family="Helvetica,sans-Serif" font-size="10.00">mn::container::basic</text>
<text text-anchor="start" x="222" y="-35" font-family="Helvetica,sans-Serif" font-size="10.00">_vector&lt; T, TAllocator,</text>
<text text-anchor="middle" x="278" y="-24" font-family="Helvetica,sans-Serif" font-size="10.00"> TStorage &gt;</text>
</a>
</g>
</g>
<!-- Node3&#45;&gt;Node2 -->
<g id="edge2" class="edge">
<title>Node3&#45;&gt;Node2</title>
<path fill="none" stroke="#8b1a1a" d="M352.23,-37.5C360.57,-37.5 369.17,-37.5 377.75,-37.5"/>
<polygon fill="#8b1a1a" stroke="#8b1a1a" points="352.2,-34 342.2,-37.5 352.2,-41 352.2,-34"/>
</g>
<!-- Node4 -->
<g id="node4" class="node">
<title>Node4</title>
<g id="a_node4"><a xlink:href="structmn_1_1container_1_1basic__vector__storage.html" target="_top" xlink:title=" ">
<polygon fill="white" stroke="black" points="0,-22.5 0,-52.5 178,-52.5 178,-22.5 0,-22.5"/>
<text text-anchor="start" x="8" y="-40.5" font-family="Helvetica,sans-Serif" font-size="10.00">mn::container::basic</text>
<text text-anchor="middle" x="89" y="-29.5" font-family="Helvetica,sans-Serif" font-size="10.00">_vector_storage&lt; T, TAllocator &gt;</text>
</a>
</g>
</g>
<!-- Node4&#45;&gt;Node3 -->
<g id="edge3" class="edge">
<title>Node4&#45;&gt;Node3</title>
<path fill="none" stroke="#8b1a1a" d="M188.27,-37.5C196.98,-37.5 205.65,-37.5 213.95,-37.5"/>
<polygon fill="#8b1a1a" stroke="#8b1a1a" points="188.02,-34 178.02,-37.5 188.02,-41 188.02,-34"/>
</g>
</g>
</svg>
