<?xml version="1.0" encoding="UTF-8" standalone="no"?>
<!DOCTYPE svg PUBLIC "-//W3C//DTD SVG 1.1//EN"
 "http://www.w3.org/Graphics/SVG/1.1/DTD/svg11.dtd">
<!-- Generated by graphviz version 2.46.0 (0)
 -->
<!-- Title: mn::net::basic_raw_ip6_socket Pages: 1 -->
<svg width="297pt" height="321pt"
 viewBox="0.00 0.00 297.00 321.00" xmlns="http://www.w3.org/2000/svg" xmlns:xlink="http://www.w3.org/1999/xlink">
<g id="graph0" class="graph" transform="scale(1 1) rotate(0) translate(4 317)">
<title>mn::net::basic_raw_ip6_socket</title>
<polygon fill="white" stroke="transparent" points="-4,4 -4,-317 293,-317 293,4 -4,4"/>
<!-- Node1 -->
<g id="node1" class="node">
<title>Node1</title>
<g id="a_node1"><a xlink:title="This class provides an interface to a raw IPv6 socket.">
<polygon fill="#bfbfbf" stroke="black" points="30,-0.5 30,-30.5 139,-30.5 139,-0.5 30,-0.5"/>
<text text-anchor="start" x="38" y="-18.5" font-family="Helvetica,sans-Serif" font-size="10.00">mn::net::basic_raw</text>
<text text-anchor="middle" x="84.5" y="-7.5" font-family="Helvetica,sans-Serif" font-size="10.00">_ip6_socket</text>
</a>
</g>
</g>
<!-- Node2 -->
<g id="node2" class="node">
<title>Node2</title>
<g id="a_node2"><a xlink:href="classmn_1_1net_1_1basic__ip6__socket.html" target="_top" xlink:title="This class represents an internet (IP) version 6 host socket.">
<polygon fill="white" stroke="black" points="31.5,-68.5 31.5,-98.5 137.5,-98.5 137.5,-68.5 31.5,-68.5"/>
<text text-anchor="start" x="39.5" y="-86.5" font-family="Helvetica,sans-Serif" font-size="10.00">mn::net::basic_ip6</text>
<text text-anchor="middle" x="84.5" y="-75.5" font-family="Helvetica,sans-Serif" font-size="10.00">_socket</text>
</a>
</g>
</g>
<!-- Node2&#45;&gt;Node1 -->
<g id="edge1" class="edge">
<title>Node2&#45;&gt;Node1</title>
<path fill="none" stroke="midnightblue" d="M84.5,-58.03C84.5,-48.86 84.5,-38.74 84.5,-30.79"/>
<polygon fill="midnightblue" stroke="midnightblue" points="81,-58.18 84.5,-68.18 88,-58.18 81,-58.18"/>
</g>
<!-- Node3 -->
<g id="node3" class="node">
<title>Node3</title>
<g id="a_node3"><a xlink:href="classmn_1_1net_1_1basic__ip__socket.html" target="_top" xlink:title="Wrapper class around lwip implementation of a socket.">
<polygon fill="white" stroke="black" points="0,-152 0,-171 137,-171 137,-152 0,-152"/>
<text text-anchor="middle" x="68.5" y="-159" font-family="Helvetica,sans-Serif" font-size="10.00">mn::net::basic_ip_socket</text>
</a>
</g>
</g>
<!-- Node3&#45;&gt;Node2 -->
<g id="edge2" class="edge">
<title>Node3&#45;&gt;Node2</title>
<path fill="none" stroke="midnightblue" d="M72.44,-141.78C75.26,-128.4 78.99,-110.69 81.55,-98.52"/>
<polygon fill="midnightblue" stroke="midnightblue" points="68.97,-141.28 70.34,-151.78 75.82,-142.72 68.97,-141.28"/>
</g>
<!-- Node4 -->
<g id="node4" class="node">
<title>Node4</title>
<g id="a_node4"><a xlink:href="classmn_1_1net_1_1basic__ip6__endpoint.html" target="_top" xlink:title="This class represents an IPv6 endpoint/socket address.">
<polygon fill="white" stroke="black" points="155.5,-146.5 155.5,-176.5 261.5,-176.5 261.5,-146.5 155.5,-146.5"/>
<text text-anchor="start" x="163.5" y="-164.5" font-family="Helvetica,sans-Serif" font-size="10.00">mn::net::basic_ip6</text>
<text text-anchor="middle" x="208.5" y="-153.5" font-family="Helvetica,sans-Serif" font-size="10.00">_endpoint</text>
</a>
</g>
</g>
<!-- Node4&#45;&gt;Node2 -->
<g id="edge3" class="edge">
<title>Node4&#45;&gt;Node2</title>
<path fill="none" stroke="#9a32cd" stroke-dasharray="5,2" d="M176.92,-141.14C155.23,-127.85 126.95,-110.52 107.41,-98.54"/>
<polygon fill="#9a32cd" stroke="#9a32cd" points="175.11,-144.14 185.47,-146.38 178.77,-138.17 175.11,-144.14"/>
<text text-anchor="middle" x="187" y="-120" font-family="Helvetica,sans-Serif" font-size="10.00"> m_pEndPoint</text>
</g>
<!-- Node5 -->
<g id="node5" class="node">
<title>Node5</title>
<g id="a_node5"><a xlink:href="classmn_1_1net_1_1basic__ip__endpoint.html" target="_top" xlink:title=" ">
<polygon fill="white" stroke="black" points="128,-214.5 128,-255.5 289,-255.5 289,-214.5 128,-214.5"/>
<text text-anchor="start" x="136" y="-243.5" font-family="Helvetica,sans-Serif" font-size="10.00">mn::net::basic_ip_endpoint</text>
<text text-anchor="start" x="136" y="-232.5" font-family="Helvetica,sans-Serif" font-size="10.00">&lt; basic_ip6_address, address</text>
<text text-anchor="middle" x="208.5" y="-221.5" font-family="Helvetica,sans-Serif" font-size="10.00">_family::inet_v6 &gt;</text>
</a>
</g>
</g>
<!-- Node5&#45;&gt;Node4 -->
<g id="edge4" class="edge">
<title>Node5&#45;&gt;Node4</title>
<path fill="none" stroke="midnightblue" d="M208.5,-204.16C208.5,-194.69 208.5,-184.65 208.5,-176.8"/>
<polygon fill="midnightblue" stroke="midnightblue" points="205,-204.46 208.5,-214.46 212,-204.46 205,-204.46"/>
</g>
<!-- Node6 -->
<g id="node6" class="node">
<title>Node6</title>
<g id="a_node6"><a xlink:href="classmn_1_1net_1_1basic__endpoint.html" target="_top" xlink:title="This abstract basic class represents an endpoint/socket address.">
<polygon fill="white" stroke="black" points="141.5,-293.5 141.5,-312.5 275.5,-312.5 275.5,-293.5 141.5,-293.5"/>
<text text-anchor="middle" x="208.5" y="-300.5" font-family="Helvetica,sans-Serif" font-size="10.00">mn::net::basic_endpoint</text>
</a>
</g>
</g>
<!-- Node6&#45;&gt;Node5 -->
<g id="edge5" class="edge">
<title>Node6&#45;&gt;Node5</title>
<path fill="none" stroke="midnightblue" d="M208.5,-283.25C208.5,-274.65 208.5,-264.45 208.5,-255.74"/>
<polygon fill="midnightblue" stroke="midnightblue" points="205,-283.37 208.5,-293.37 212,-283.37 205,-283.37"/>
</g>
</g>
</svg>
