<?xml version="1.0" encoding="UTF-8" standalone="no"?>
<!DOCTYPE svg PUBLIC "-//W3C//DTD SVG 1.1//EN"
 "http://www.w3.org/Graphics/SVG/1.1/DTD/svg11.dtd">
<!-- Generated by graphviz version 2.47.1 (0)
 -->
<!-- Title: mn::base_tickhook_entry Pages: 1 -->
<svg width="154pt" height="266pt"
 viewBox="0.00 0.00 154.00 266.00" xmlns="http://www.w3.org/2000/svg" xmlns:xlink="http://www.w3.org/1999/xlink">
<g id="graph0" class="graph" transform="scale(1 1) rotate(0) translate(4 262)">
<title>mn::base_tickhook_entry</title>
<polygon fill="white" stroke="transparent" points="-4,4 -4,-262 150,-262 150,4 -4,4"/>
<!-- Node1 -->
<g id="node1" class="node">
<title>Node1</title>
<g id="a_node1"><a xlink:title=" ">
<polygon fill="#bfbfbf" stroke="black" points="0,-0.5 0,-19.5 140,-19.5 140,-0.5 0,-0.5"/>
<text text-anchor="middle" x="70" y="-7.5" font-family="Helvetica,sans-Serif" font-size="10.00">mn::base_tickhook_entry</text>
</a>
</g>
</g>
<!-- Node2 -->
<g id="node2" class="node">
<title>Node2</title>
<g id="a_node2"><a xlink:href="classmn_1_1basic__mutex.html" target="_top" xlink:title=" ">
<polygon fill="white" stroke="black" points="19.5,-67.5 19.5,-86.5 120.5,-86.5 120.5,-67.5 19.5,-67.5"/>
<text text-anchor="middle" x="70" y="-74.5" font-family="Helvetica,sans-Serif" font-size="10.00">mn::basic_mutex</text>
</a>
</g>
</g>
<!-- Node2&#45;&gt;Node1 -->
<g id="edge1" class="edge">
<title>Node2&#45;&gt;Node1</title>
<path fill="none" stroke="#9a32cd" stroke-dasharray="5,2" d="M70,-57.04C70,-44.67 70,-29.12 70,-19.63"/>
<polygon fill="#9a32cd" stroke="#9a32cd" points="66.5,-57.23 70,-67.23 73.5,-57.23 66.5,-57.23"/>
<text text-anchor="middle" x="108" y="-41" font-family="Helvetica,sans-Serif" font-size="10.00"> m_mutexEntry</text>
</g>
<!-- Node3 -->
<g id="node3" class="node">
<title>Node3</title>
<g id="a_node3"><a xlink:href="classmn_1_1basic__semaphore.html" target="_top" xlink:title=" ">
<polygon fill="white" stroke="black" points="8,-124.5 8,-143.5 132,-143.5 132,-124.5 8,-124.5"/>
<text text-anchor="middle" x="70" y="-131.5" font-family="Helvetica,sans-Serif" font-size="10.00">mn::basic_semaphore</text>
</a>
</g>
</g>
<!-- Node3&#45;&gt;Node2 -->
<g id="edge2" class="edge">
<title>Node3&#45;&gt;Node2</title>
<path fill="none" stroke="midnightblue" d="M70,-114.12C70,-104.82 70,-94.06 70,-86.71"/>
<polygon fill="midnightblue" stroke="midnightblue" points="66.5,-114.41 70,-124.41 73.5,-114.41 66.5,-114.41"/>
</g>
<!-- Node4 -->
<g id="node4" class="node">
<title>Node4</title>
<g id="a_node4"><a xlink:href="classmn_1_1ILockObject.html" target="_top" xlink:title=" ">
<polygon fill="white" stroke="black" points="22.5,-181.5 22.5,-200.5 117.5,-200.5 117.5,-181.5 22.5,-181.5"/>
<text text-anchor="middle" x="70" y="-188.5" font-family="Helvetica,sans-Serif" font-size="10.00">mn::ILockObject</text>
</a>
</g>
</g>
<!-- Node4&#45;&gt;Node3 -->
<g id="edge3" class="edge">
<title>Node4&#45;&gt;Node3</title>
<path fill="none" stroke="midnightblue" d="M70,-171.12C70,-161.82 70,-151.06 70,-143.71"/>
<polygon fill="midnightblue" stroke="midnightblue" points="66.5,-171.41 70,-181.41 73.5,-171.41 66.5,-171.41"/>
</g>
<!-- Node5 -->
<g id="node5" class="node">
<title>Node5</title>
<g id="a_node5"><a xlink:title=" ">
<polygon fill="white" stroke="#bfbfbf" points="4.5,-238.5 4.5,-257.5 135.5,-257.5 135.5,-238.5 4.5,-238.5"/>
<text text-anchor="middle" x="70" y="-245.5" font-family="Helvetica,sans-Serif" font-size="10.00">MN_ONSIGLETN_CLASS</text>
</a>
</g>
</g>
<!-- Node5&#45;&gt;Node4 -->
<g id="edge4" class="edge">
<title>Node5&#45;&gt;Node4</title>
<path fill="none" stroke="#8b1a1a" d="M70,-228.12C70,-218.82 70,-208.06 70,-200.71"/>
<polygon fill="#8b1a1a" stroke="#8b1a1a" points="66.5,-228.41 70,-238.41 73.5,-228.41 66.5,-228.41"/>
</g>
</g>
</svg>
