<?xml version="1.0" encoding="UTF-8" standalone="no"?>
<!DOCTYPE svg PUBLIC "-//W3C//DTD SVG 1.1//EN"
 "http://www.w3.org/Graphics/SVG/1.1/DTD/svg11.dtd">
<!-- Generated by graphviz version 2.47.3 (0)
 -->
<!-- Title: mn::ext::basic_message_task Pages: 1 -->
<svg width="1764pt" height="232pt"
 viewBox="0.00 0.00 1764.00 231.50" xmlns="http://www.w3.org/2000/svg" xmlns:xlink="http://www.w3.org/1999/xlink">
<g id="graph0" class="graph" transform="scale(1 1) rotate(0) translate(4 227.5)">
<title>mn::ext::basic_message_task</title>
<polygon fill="white" stroke="transparent" points="-4,4 -4,-227.5 1760,-227.5 1760,4 -4,4"/>
<!-- Node1 -->
<g id="node1" class="node">
<title>Node1</title>
<g id="a_node1"><a xlink:title="Extends the basic_convar_task with a message queue support.">
<polygon fill="#bfbfbf" stroke="black" points="1595,-149 1595,-168 1756,-168 1756,-149 1595,-149"/>
<text text-anchor="middle" x="1675.5" y="-156" font-family="Helvetica,sans-Serif" font-size="10.00">mn::ext::basic_message_task</text>
</a>
</g>
</g>
<!-- Node2 -->
<g id="node2" class="node">
<title>Node2</title>
<g id="a_node2"><a xlink:href="classmn_1_1ext_1_1basic__convar__task.html" target="_top" xlink:title=" ">
<polygon fill="white" stroke="black" points="890,-110 890,-129 1040,-129 1040,-110 890,-110"/>
<text text-anchor="middle" x="965" y="-117" font-family="Helvetica,sans-Serif" font-size="10.00">mn::ext::basic_convar_task</text>
</a>
</g>
</g>
<!-- Node2&#45;&gt;Node1 -->
<g id="edge1" class="edge">
<title>Node2&#45;&gt;Node1</title>
<path fill="none" stroke="midnightblue" d="M1050.46,-109.41C1074.51,-106.97 1100.75,-104.72 1125,-103.5 1183.59,-100.56 1198.46,-99.66 1257,-103.5 1387.77,-112.08 1540.1,-135.61 1619.68,-148.95"/>
<polygon fill="midnightblue" stroke="midnightblue" points="1049.89,-105.95 1040.3,-110.47 1050.61,-112.91 1049.89,-105.95"/>
</g>
<!-- Node15 -->
<g id="node15" class="node">
<title>Node15</title>
<g id="a_node15"><a xlink:title=" ">
<polygon fill="white" stroke="#bfbfbf" points="1125,-112.5 1125,-142.5 1257,-142.5 1257,-112.5 1125,-112.5"/>
<text text-anchor="start" x="1133" y="-130.5" font-family="Helvetica,sans-Serif" font-size="10.00">std::list&lt; mn::ext</text>
<text text-anchor="middle" x="1191" y="-119.5" font-family="Helvetica,sans-Serif" font-size="10.00">::basic_convar_task * &gt;</text>
</a>
</g>
</g>
<!-- Node2&#45;&gt;Node15 -->
<g id="edge18" class="edge">
<title>Node2&#45;&gt;Node15</title>
<path fill="none" stroke="#9a32cd" stroke-dasharray="5,2" d="M1050.36,-122.51C1075.05,-123.39 1101.65,-124.34 1124.95,-125.18"/>
<polygon fill="#9a32cd" stroke="#9a32cd" points="1050.4,-119.01 1040.28,-122.15 1050.15,-126.01 1050.4,-119.01"/>
<text text-anchor="middle" x="1082.5" y="-126.5" font-family="Helvetica,sans-Serif" font-size="10.00"> elements</text>
</g>
<!-- Node3 -->
<g id="node3" class="node">
<title>Node3</title>
<g id="a_node3"><a xlink:href="classmn_1_1basic__task.html" target="_top" xlink:title="Wrapper class around FreeRTOS&#39;s implementation of a task.">
<polygon fill="white" stroke="black" points="763,-83 763,-102 853,-102 853,-83 763,-83"/>
<text text-anchor="middle" x="808" y="-90" font-family="Helvetica,sans-Serif" font-size="10.00">mn::basic_task</text>
</a>
</g>
</g>
<!-- Node3&#45;&gt;Node2 -->
<g id="edge2" class="edge">
<title>Node3&#45;&gt;Node2</title>
<path fill="none" stroke="midnightblue" d="M863.14,-101.93C878.12,-104.54 894.39,-107.37 909.39,-109.99"/>
<polygon fill="midnightblue" stroke="midnightblue" points="863.45,-98.43 853,-100.16 862.25,-105.33 863.45,-98.43"/>
</g>
<!-- Node4 -->
<g id="node4" class="node">
<title>Node4</title>
<g id="a_node4"><a xlink:title=" ">
<polygon fill="white" stroke="#bfbfbf" points="0,-62 0,-81 131,-81 131,-62 0,-62"/>
<text text-anchor="middle" x="65.5" y="-69" font-family="Helvetica,sans-Serif" font-size="10.00">MN_ONSIGLETN_CLASS</text>
</a>
</g>
</g>
<!-- Node4&#45;&gt;Node3 -->
<g id="edge3" class="edge">
<title>Node4&#45;&gt;Node3</title>
<path fill="none" stroke="#8b1a1a" d="M141.44,-63.06C164.81,-61.06 190.7,-59.5 214.5,-59.5 214.5,-59.5 214.5,-59.5 558,-59.5 630.17,-59.5 713.09,-73.29 762.7,-83.04"/>
<polygon fill="#8b1a1a" stroke="#8b1a1a" points="140.89,-59.59 131.25,-63.97 141.52,-66.56 140.89,-59.59"/>
</g>
<!-- Node9 -->
<g id="node9" class="node">
<title>Node9</title>
<g id="a_node9"><a xlink:href="classmn_1_1ILockObject.html" target="_top" xlink:title=" ">
<polygon fill="white" stroke="black" points="168,-117 168,-136 263,-136 263,-117 168,-117"/>
<text text-anchor="middle" x="215.5" y="-124" font-family="Helvetica,sans-Serif" font-size="10.00">mn::ILockObject</text>
</a>
</g>
</g>
<!-- Node4&#45;&gt;Node9 -->
<g id="edge9" class="edge">
<title>Node4&#45;&gt;Node9</title>
<path fill="none" stroke="#8b1a1a" d="M101.99,-84.69C128.64,-94.59 164.51,-107.92 188.52,-116.84"/>
<polygon fill="#8b1a1a" stroke="#8b1a1a" points="102.87,-81.28 92.28,-81.08 100.43,-87.84 102.87,-81.28"/>
</g>
<!-- Node5 -->
<g id="node5" class="node">
<title>Node5</title>
<g id="a_node5"><a xlink:href="classmn_1_1basic__event__group.html" target="_top" xlink:title="Wrapper class around FreeRTOS&#39;s implementation of a event_group.">
<polygon fill="white" stroke="black" points="492,-88 492,-107 622,-107 622,-88 492,-88"/>
<text text-anchor="middle" x="557" y="-95" font-family="Helvetica,sans-Serif" font-size="10.00">mn::basic_event_group</text>
</a>
</g>
</g>
<!-- Node5&#45;&gt;Node3 -->
<g id="edge4" class="edge">
<title>Node5&#45;&gt;Node3</title>
<path fill="none" stroke="#9a32cd" stroke-dasharray="5,2" d="M632.24,-94.17C639.92,-93.91 647.62,-93.68 655,-93.5 691.28,-92.63 732.43,-92.41 762.76,-92.39"/>
<polygon fill="#9a32cd" stroke="#9a32cd" points="632.03,-90.68 622.17,-94.54 632.29,-97.68 632.03,-90.68"/>
<text text-anchor="middle" x="700" y="-96.5" font-family="Helvetica,sans-Serif" font-size="10.00"> m_eventGroup</text>
</g>
<!-- Node6 -->
<g id="node6" class="node">
<title>Node6</title>
<g id="a_node6"><a xlink:title=" ">
<polygon fill="white" stroke="#bfbfbf" points="300,-88 300,-107 440,-107 440,-88 300,-88"/>
<text text-anchor="middle" x="370" y="-95" font-family="Helvetica,sans-Serif" font-size="10.00">MN_ONCOPYABLE_CLASS</text>
</a>
</g>
</g>
<!-- Node6&#45;&gt;Node5 -->
<g id="edge5" class="edge">
<title>Node6&#45;&gt;Node5</title>
<path fill="none" stroke="#8b1a1a" d="M450.18,-97.5C464.08,-97.5 478.39,-97.5 491.82,-97.5"/>
<polygon fill="#8b1a1a" stroke="#8b1a1a" points="450.15,-94 440.15,-97.5 450.15,-101 450.15,-94"/>
</g>
<!-- Node7 -->
<g id="node7" class="node">
<title>Node7</title>
<g id="a_node7"><a xlink:href="classmn_1_1basic__binary__semaphore.html" target="_top" xlink:title=" ">
<polygon fill="white" stroke="black" points="477,-146 477,-165 637,-165 637,-146 477,-146"/>
<text text-anchor="middle" x="557" y="-153" font-family="Helvetica,sans-Serif" font-size="10.00">mn::basic_binary_semaphore</text>
</a>
</g>
</g>
<!-- Node7&#45;&gt;Node2 -->
<g id="edge12" class="edge">
<title>Node7&#45;&gt;Node2</title>
<path fill="none" stroke="#9a32cd" stroke-dasharray="5,2" d="M647.27,-160.28C649.87,-160.36 652.46,-160.43 655,-160.5 694.99,-161.53 705.17,-164.2 745,-160.5 808.74,-154.58 881.6,-139.18 925.14,-129.03"/>
<polygon fill="#9a32cd" stroke="#9a32cd" points="647.25,-156.77 637.13,-159.92 647,-163.77 647.25,-156.77"/>
<text text-anchor="middle" x="808" y="-161.5" font-family="Helvetica,sans-Serif" font-size="10.00"> m_waitSem</text>
</g>
<!-- Node7&#45;&gt;Node3 -->
<g id="edge6" class="edge">
<title>Node7&#45;&gt;Node3</title>
<path fill="none" stroke="#9a32cd" stroke-dasharray="5,2" d="M599.08,-143.1C616.3,-138.05 636.56,-132.28 655,-127.5 691.17,-118.12 732.52,-108.68 762.94,-101.98"/>
<polygon fill="#9a32cd" stroke="#9a32cd" points="597.93,-139.79 589.33,-145.98 599.92,-146.51 597.93,-139.79"/>
<text text-anchor="middle" x="700" y="-152.5" font-family="Helvetica,sans-Serif" font-size="10.00"> m_contextMutext</text>
<text text-anchor="middle" x="700" y="-141.5" font-family="Helvetica,sans-Serif" font-size="10.00">m_continuemutex</text>
<text text-anchor="middle" x="700" y="-130.5" font-family="Helvetica,sans-Serif" font-size="10.00">m_runningMutex</text>
</g>
<!-- Node8 -->
<g id="node8" class="node">
<title>Node8</title>
<g id="a_node8"><a xlink:href="classmn_1_1basic__semaphore.html" target="_top" xlink:title=" ">
<polygon fill="white" stroke="black" points="308,-146 308,-165 432,-165 432,-146 308,-146"/>
<text text-anchor="middle" x="370" y="-153" font-family="Helvetica,sans-Serif" font-size="10.00">mn::basic_semaphore</text>
</a>
</g>
</g>
<!-- Node8&#45;&gt;Node7 -->
<g id="edge7" class="edge">
<title>Node8&#45;&gt;Node7</title>
<path fill="none" stroke="midnightblue" d="M442.32,-155.5C453.62,-155.5 465.36,-155.5 476.83,-155.5"/>
<polygon fill="midnightblue" stroke="midnightblue" points="442.09,-152 432.09,-155.5 442.09,-159 442.09,-152"/>
</g>
<!-- Node14 -->
<g id="node14" class="node">
<title>Node14</title>
<g id="a_node14"><a xlink:href="classmn_1_1basic__mutex.html" target="_top" xlink:title=" ">
<polygon fill="white" stroke="black" points="1140.5,-204 1140.5,-223 1241.5,-223 1241.5,-204 1140.5,-204"/>
<text text-anchor="middle" x="1191" y="-211" font-family="Helvetica,sans-Serif" font-size="10.00">mn::basic_mutex</text>
</a>
</g>
</g>
<!-- Node8&#45;&gt;Node14 -->
<g id="edge16" class="edge">
<title>Node8&#45;&gt;Node14</title>
<path fill="none" stroke="midnightblue" d="M397.96,-169.64C433.26,-186.81 497.54,-213.5 556,-213.5 556,-213.5 556,-213.5 966,-213.5 1025.89,-213.5 1094.78,-213.5 1140.18,-213.5"/>
<polygon fill="midnightblue" stroke="midnightblue" points="399.31,-166.4 388.8,-165.08 396.19,-172.67 399.31,-166.4"/>
</g>
<!-- Node9&#45;&gt;Node8 -->
<g id="edge8" class="edge">
<title>Node9&#45;&gt;Node8</title>
<path fill="none" stroke="midnightblue" d="M273.27,-137.3C288.28,-140.15 304.37,-143.21 318.99,-145.99"/>
<polygon fill="midnightblue" stroke="midnightblue" points="273.56,-133.79 263.08,-135.36 272.25,-140.67 273.56,-133.79"/>
</g>
<!-- Node10 -->
<g id="node10" class="node">
<title>Node10</title>
<g id="a_node10"><a xlink:title=" ">
<polygon fill="white" stroke="#bfbfbf" points="524.5,-9 524.5,-28 589.5,-28 589.5,-9 524.5,-9"/>
<text text-anchor="middle" x="557" y="-16" font-family="Helvetica,sans-Serif" font-size="10.00">std::string</text>
</a>
</g>
</g>
<!-- Node10&#45;&gt;Node3 -->
<g id="edge10" class="edge">
<title>Node10&#45;&gt;Node3</title>
<path fill="none" stroke="#9a32cd" stroke-dasharray="5,2" d="M599.66,-14.48C638.89,-12.4 698.41,-13.76 745,-34.5 768.97,-45.17 789.58,-69.04 799.92,-82.6"/>
<polygon fill="#9a32cd" stroke="#9a32cd" points="599.42,-10.98 589.66,-15.1 599.86,-17.97 599.42,-10.98"/>
<text text-anchor="middle" x="700" y="-37.5" font-family="Helvetica,sans-Serif" font-size="10.00"> m_strName</text>
</g>
<!-- Node11 -->
<g id="node11" class="node">
<title>Node11</title>
<g id="a_node11"><a xlink:title=" ">
<polygon fill="white" stroke="#bfbfbf" points="318,-0.5 318,-30.5 422,-30.5 422,-0.5 318,-0.5"/>
<text text-anchor="start" x="326" y="-18.5" font-family="Helvetica,sans-Serif" font-size="10.00">std::basic_string&lt;</text>
<text text-anchor="middle" x="370" y="-7.5" font-family="Helvetica,sans-Serif" font-size="10.00"> Char &gt;</text>
</a>
</g>
</g>
<!-- Node11&#45;&gt;Node10 -->
<g id="edge11" class="edge">
<title>Node11&#45;&gt;Node10</title>
<path fill="none" stroke="midnightblue" d="M432.26,-16.49C463.05,-16.99 499.08,-17.58 524.29,-17.99"/>
<polygon fill="midnightblue" stroke="midnightblue" points="432.1,-12.99 422.04,-16.33 431.98,-19.99 432.1,-12.99"/>
</g>
<!-- Node12 -->
<g id="node12" class="node">
<title>Node12</title>
<g id="a_node12"><a xlink:href="classmn_1_1ext_1_1basic__condition__variable.html" target="_top" xlink:title=" ">
<polygon fill="white" stroke="black" points="1350,-143.5 1350,-173.5 1486,-173.5 1486,-143.5 1350,-143.5"/>
<text text-anchor="start" x="1358" y="-161.5" font-family="Helvetica,sans-Serif" font-size="10.00">mn::ext::basic_condition</text>
<text text-anchor="middle" x="1418" y="-150.5" font-family="Helvetica,sans-Serif" font-size="10.00">_variable</text>
</a>
</g>
</g>
<!-- Node12&#45;&gt;Node1 -->
<g id="edge13" class="edge">
<title>Node12&#45;&gt;Node1</title>
<path fill="none" stroke="#9a32cd" stroke-dasharray="5,2" d="M1496.47,-158.5C1527.55,-158.5 1563.34,-158.5 1594.65,-158.5"/>
<polygon fill="#9a32cd" stroke="#9a32cd" points="1496.13,-155 1486.13,-158.5 1496.13,-162 1496.13,-155"/>
<text text-anchor="middle" x="1540.5" y="-161.5" font-family="Helvetica,sans-Serif" font-size="10.00"> m_cvMessage</text>
</g>
<!-- Node13 -->
<g id="node13" class="node">
<title>Node13</title>
<g id="a_node13"><a xlink:title=" ">
<polygon fill="white" stroke="#bfbfbf" points="1132,-162 1132,-181 1250,-181 1250,-162 1132,-162"/>
<text text-anchor="middle" x="1191" y="-169" font-family="Helvetica,sans-Serif" font-size="10.00">MN_DEFAULT_CLASS</text>
</a>
</g>
</g>
<!-- Node13&#45;&gt;Node12 -->
<g id="edge14" class="edge">
<title>Node13&#45;&gt;Node12</title>
<path fill="none" stroke="#8b1a1a" d="M1260.47,-167.54C1288.83,-165.91 1321.62,-164.01 1349.84,-162.38"/>
<polygon fill="#8b1a1a" stroke="#8b1a1a" points="1260.02,-164.06 1250.24,-168.14 1260.42,-171.05 1260.02,-164.06"/>
</g>
<!-- Node14&#45;&gt;Node1 -->
<g id="edge19" class="edge">
<title>Node14&#45;&gt;Node1</title>
<path fill="none" stroke="#9a32cd" stroke-dasharray="5,2" d="M1251.63,-209.91C1276.5,-208.24 1305.67,-206.05 1332,-203.5 1441.19,-192.92 1468.33,-188.51 1577,-173.5 1589.13,-171.82 1602.09,-169.92 1614.47,-168.03"/>
<polygon fill="#9a32cd" stroke="#9a32cd" points="1251.37,-206.42 1241.62,-210.57 1251.83,-213.4 1251.37,-206.42"/>
<text text-anchor="middle" x="1418" y="-203.5" font-family="Helvetica,sans-Serif" font-size="10.00"> m_ltMessageQueueLock</text>
</g>
<!-- Node14&#45;&gt;Node12 -->
<g id="edge15" class="edge">
<title>Node14&#45;&gt;Node12</title>
<path fill="none" stroke="#9a32cd" stroke-dasharray="5,2" d="M1239.19,-201.45C1250.88,-198.49 1263.39,-195.36 1275,-192.5 1300.6,-186.2 1328.83,-179.4 1353.34,-173.56"/>
<polygon fill="#9a32cd" stroke="#9a32cd" points="1237.99,-198.14 1229.16,-203.99 1239.71,-204.93 1237.99,-198.14"/>
<text text-anchor="middle" x="1303.5" y="-195.5" font-family="Helvetica,sans-Serif" font-size="10.00"> m_mutex</text>
</g>
<!-- Node15&#45;&gt;Node12 -->
<g id="edge17" class="edge">
<title>Node15&#45;&gt;Node12</title>
<path fill="none" stroke="#9a32cd" stroke-dasharray="5,2" d="M1267.14,-137.85C1293.85,-141.53 1323.72,-145.65 1349.72,-149.23"/>
<polygon fill="#9a32cd" stroke="#9a32cd" points="1267.46,-134.36 1257.08,-136.47 1266.51,-141.3 1267.46,-134.36"/>
<text text-anchor="middle" x="1303.5" y="-149.5" font-family="Helvetica,sans-Serif" font-size="10.00"> m_waitList</text>
</g>
</g>
</svg>
