<?xml version="1.0" encoding="UTF-8" standalone="no"?>
<!DOCTYPE svg PUBLIC "-//W3C//DTD SVG 1.1//EN"
 "http://www.w3.org/Graphics/SVG/1.1/DTD/svg11.dtd">
<!-- Generated by graphviz version 2.46.0 (0)
 -->
<!-- Title: mn::pointer::basic_linked_ptr&lt; T &gt; Pages: 1 -->
<svg width="244pt" height="106pt"
 viewBox="0.00 0.00 243.50 106.00" xmlns="http://www.w3.org/2000/svg" xmlns:xlink="http://www.w3.org/1999/xlink">
<g id="graph0" class="graph" transform="scale(1 1) rotate(0) translate(4 102)">
<title>mn::pointer::basic_linked_ptr&lt; T &gt;</title>
<polygon fill="white" stroke="transparent" points="-4,4 -4,-102 239.5,-102 239.5,4 -4,4"/>
<!-- Node1 -->
<g id="node1" class="node">
<title>Node1</title>
<g id="a_node1"><a xlink:title="This class implements a basic_linked_ptr template that it allows sharing of pointers between instance...">
<polygon fill="#bfbfbf" stroke="black" points="63,-0.5 63,-30.5 167,-30.5 167,-0.5 63,-0.5"/>
<text text-anchor="start" x="71" y="-18.5" font-family="Helvetica,sans-Serif" font-size="10.00">mn::pointer::basic</text>
<text text-anchor="middle" x="115" y="-7.5" font-family="Helvetica,sans-Serif" font-size="10.00">_linked_ptr&lt; T &gt;</text>
</a>
</g>
</g>
<!-- Node2 -->
<g id="node2" class="node">
<title>Node2</title>
<g id="a_node2"><a xlink:href="structmn_1_1pointer_1_1basic__linked__ptr__node.html" target="_top" xlink:title="This class allows basic_linked_ptr&lt;T&gt; and basic_linked_ptr to share the same base nodes.">
<polygon fill="white" stroke="black" points="0,-67.5 0,-97.5 104,-97.5 104,-67.5 0,-67.5"/>
<text text-anchor="start" x="8" y="-85.5" font-family="Helvetica,sans-Serif" font-size="10.00">mn::pointer::basic</text>
<text text-anchor="middle" x="52" y="-74.5" font-family="Helvetica,sans-Serif" font-size="10.00">_linked_ptr_node</text>
</a>
</g>
</g>
<!-- Node2&#45;&gt;Node1 -->
<g id="edge1" class="edge">
<title>Node2&#45;&gt;Node1</title>
<path fill="none" stroke="midnightblue" d="M72.81,-60.02C82.2,-50.34 93.02,-39.17 101.36,-30.58"/>
<polygon fill="midnightblue" stroke="midnightblue" points="70.12,-57.78 65.67,-67.4 75.14,-62.65 70.12,-57.78"/>
</g>
<!-- Node3 -->
<g id="node3" class="node">
<title>Node3</title>
<g id="a_node3"><a xlink:href="structmn_1_1pointer_1_1pointer__ptr.html" target="_top" xlink:title=" ">
<polygon fill="white" stroke="black" points="122.5,-67.5 122.5,-97.5 235.5,-97.5 235.5,-67.5 122.5,-67.5"/>
<text text-anchor="start" x="130.5" y="-85.5" font-family="Helvetica,sans-Serif" font-size="10.00">mn::pointer::pointer</text>
<text text-anchor="middle" x="179" y="-74.5" font-family="Helvetica,sans-Serif" font-size="10.00">_ptr&lt; T &gt;</text>
</a>
</g>
</g>
<!-- Node3&#45;&gt;Node1 -->
<g id="edge2" class="edge">
<title>Node3&#45;&gt;Node1</title>
<path fill="none" stroke="#8b1a1a" d="M157.85,-60.02C148.32,-50.34 137.33,-39.17 128.86,-30.58"/>
<polygon fill="#8b1a1a" stroke="#8b1a1a" points="155.6,-62.73 165.11,-67.4 160.59,-57.81 155.6,-62.73"/>
</g>
</g>
</svg>
