<?xml version="1.0" encoding="UTF-8" standalone="no"?>
<!DOCTYPE svg PUBLIC "-//W3C//DTD SVG 1.1//EN"
 "http://www.w3.org/Graphics/SVG/1.1/DTD/svg11.dtd">
<!-- Generated by graphviz version 2.46.0 (0)
 -->
<!-- Title: mn::ext::foreign_task Pages: 1 -->
<svg width="272pt" height="299pt"
 viewBox="0.00 0.00 272.00 299.00" xmlns="http://www.w3.org/2000/svg" xmlns:xlink="http://www.w3.org/1999/xlink">
<g id="graph0" class="graph" transform="scale(1 1) rotate(0) translate(4 295)">
<title>mn::ext::foreign_task</title>
<polygon fill="white" stroke="transparent" points="-4,4 -4,-295 268,-295 268,4 -4,4"/>
<!-- Node1 -->
<g id="node1" class="node">
<title>Node1</title>
<g id="a_node1"><a xlink:title=" ">
<polygon fill="#bfbfbf" stroke="black" points="84.5,-0.5 84.5,-19.5 205.5,-19.5 205.5,-0.5 84.5,-0.5"/>
<text text-anchor="middle" x="145" y="-7.5" font-family="Helvetica,sans-Serif" font-size="10.00">mn::ext::foreign_task</text>
</a>
</g>
</g>
<!-- Node2 -->
<g id="node2" class="node">
<title>Node2</title>
<g id="a_node2"><a xlink:href="classmn_1_1basic__task.html" target="_top" xlink:title="Wrapper class around FreeRTOS&#39;s implementation of a task.">
<polygon fill="white" stroke="black" points="100,-57.5 100,-76.5 190,-76.5 190,-57.5 100,-57.5"/>
<text text-anchor="middle" x="145" y="-64.5" font-family="Helvetica,sans-Serif" font-size="10.00">mn::basic_task</text>
</a>
</g>
</g>
<!-- Node2&#45;&gt;Node1 -->
<g id="edge1" class="edge">
<title>Node2&#45;&gt;Node1</title>
<path fill="none" stroke="midnightblue" d="M145,-47.12C145,-37.82 145,-27.06 145,-19.71"/>
<polygon fill="midnightblue" stroke="midnightblue" points="141.5,-47.41 145,-57.41 148.5,-47.41 141.5,-47.41"/>
</g>
<!-- Node3 -->
<g id="node3" class="node">
<title>Node3</title>
<g id="a_node3"><a xlink:href="classmn_1_1basic__binary__semaphore.html" target="_top" xlink:title=" ">
<polygon fill="white" stroke="black" points="0,-146.5 0,-165.5 160,-165.5 160,-146.5 0,-146.5"/>
<text text-anchor="middle" x="80" y="-153.5" font-family="Helvetica,sans-Serif" font-size="10.00">mn::basic_binary_semaphore</text>
</a>
</g>
</g>
<!-- Node3&#45;&gt;Node2 -->
<g id="edge2" class="edge">
<title>Node3&#45;&gt;Node2</title>
<path fill="none" stroke="#9a32cd" stroke-dasharray="5,2" d="M80.41,-136.3C81.57,-123.51 84.91,-106.8 94,-95 100.36,-86.75 109.97,-80.74 119.14,-76.52"/>
<polygon fill="#9a32cd" stroke="#9a32cd" points="76.91,-136.13 79.86,-146.31 83.9,-136.51 76.91,-136.13"/>
<text text-anchor="middle" x="139" y="-120" font-family="Helvetica,sans-Serif" font-size="10.00"> m_contextMutext</text>
<text text-anchor="middle" x="139" y="-109" font-family="Helvetica,sans-Serif" font-size="10.00">m_continuemutex</text>
<text text-anchor="middle" x="139" y="-98" font-family="Helvetica,sans-Serif" font-size="10.00">m_runningMutex</text>
</g>
<!-- Node4 -->
<g id="node4" class="node">
<title>Node4</title>
<g id="a_node4"><a xlink:href="classmn_1_1basic__semaphore.html" target="_top" xlink:title=" ">
<polygon fill="white" stroke="black" points="17,-209 17,-228 141,-228 141,-209 17,-209"/>
<text text-anchor="middle" x="79" y="-216" font-family="Helvetica,sans-Serif" font-size="10.00">mn::basic_semaphore</text>
</a>
</g>
</g>
<!-- Node4&#45;&gt;Node3 -->
<g id="edge3" class="edge">
<title>Node4&#45;&gt;Node3</title>
<path fill="none" stroke="midnightblue" d="M79.31,-198.5C79.5,-187.5 79.72,-174.18 79.86,-165.65"/>
<polygon fill="midnightblue" stroke="midnightblue" points="75.81,-198.78 79.14,-208.83 82.81,-198.89 75.81,-198.78"/>
</g>
<!-- Node5 -->
<g id="node5" class="node">
<title>Node5</title>
<g id="a_node5"><a xlink:href="classmn_1_1ILockObject.html" target="_top" xlink:title=" ">
<polygon fill="white" stroke="black" points="31.5,-271.5 31.5,-290.5 126.5,-290.5 126.5,-271.5 31.5,-271.5"/>
<text text-anchor="middle" x="79" y="-278.5" font-family="Helvetica,sans-Serif" font-size="10.00">mn::ILockObject</text>
</a>
</g>
</g>
<!-- Node5&#45;&gt;Node4 -->
<g id="edge4" class="edge">
<title>Node5&#45;&gt;Node4</title>
<path fill="none" stroke="midnightblue" d="M79,-261C79,-250 79,-236.68 79,-228.15"/>
<polygon fill="midnightblue" stroke="midnightblue" points="75.5,-261.33 79,-271.33 82.5,-261.33 75.5,-261.33"/>
</g>
<!-- Node6 -->
<g id="node6" class="node">
<title>Node6</title>
<g id="a_node6"><a xlink:title=" ">
<polygon fill="white" stroke="#bfbfbf" points="178.5,-146.5 178.5,-165.5 243.5,-165.5 243.5,-146.5 178.5,-146.5"/>
<text text-anchor="middle" x="211" y="-153.5" font-family="Helvetica,sans-Serif" font-size="10.00">std::string</text>
</a>
</g>
</g>
<!-- Node6&#45;&gt;Node2 -->
<g id="edge5" class="edge">
<title>Node6&#45;&gt;Node2</title>
<path fill="none" stroke="#9a32cd" stroke-dasharray="5,2" d="M205.62,-136.57C201.27,-123.9 194.17,-107.22 184,-95 177.78,-87.53 169.01,-81.21 161.36,-76.57"/>
<polygon fill="#9a32cd" stroke="#9a32cd" points="202.4,-137.98 208.75,-146.45 209.07,-135.86 202.4,-137.98"/>
<text text-anchor="middle" x="233.5" y="-109" font-family="Helvetica,sans-Serif" font-size="10.00"> m_strName</text>
</g>
<!-- Node7 -->
<g id="node7" class="node">
<title>Node7</title>
<g id="a_node7"><a xlink:title=" ">
<polygon fill="white" stroke="#bfbfbf" points="159,-203.5 159,-233.5 263,-233.5 263,-203.5 159,-203.5"/>
<text text-anchor="start" x="167" y="-221.5" font-family="Helvetica,sans-Serif" font-size="10.00">std::basic_string&lt;</text>
<text text-anchor="middle" x="211" y="-210.5" font-family="Helvetica,sans-Serif" font-size="10.00"> Char &gt;</text>
</a>
</g>
</g>
<!-- Node7&#45;&gt;Node6 -->
<g id="edge6" class="edge">
<title>Node7&#45;&gt;Node6</title>
<path fill="none" stroke="midnightblue" d="M211,-193.35C211,-183.51 211,-172.78 211,-165.54"/>
<polygon fill="midnightblue" stroke="midnightblue" points="207.5,-193.47 211,-203.47 214.5,-193.47 207.5,-193.47"/>
</g>
</g>
</svg>
