<?xml version="1.0" encoding="UTF-8" standalone="no"?>
<!DOCTYPE svg PUBLIC "-//W3C//DTD SVG 1.1//EN"
 "http://www.w3.org/Graphics/SVG/1.1/DTD/svg11.dtd">
<!-- Generated by graphviz version 2.47.3 (0)
 -->
<!-- Title: mn::basic_thread Pages: 1 -->
<svg width="510pt" height="377pt"
 viewBox="0.00 0.00 509.50 377.00" xmlns="http://www.w3.org/2000/svg" xmlns:xlink="http://www.w3.org/1999/xlink">
<g id="graph0" class="graph" transform="scale(1 1) rotate(0) translate(4 373)">
<title>mn::basic_thread</title>
<polygon fill="white" stroke="transparent" points="-4,4 -4,-373 505.5,-373 505.5,4 -4,4"/>
<!-- Node1 -->
<g id="node1" class="node">
<title>Node1</title>
<g id="a_node1"><a xlink:title=" ">
<polygon fill="#bfbfbf" stroke="black" points="252,-0.5 252,-19.5 353,-19.5 353,-0.5 252,-0.5"/>
<text text-anchor="middle" x="302.5" y="-7.5" font-family="Helvetica,sans-Serif" font-size="10.00">mn::basic_thread</text>
</a>
</g>
</g>
<!-- Node2 -->
<g id="node2" class="node">
<title>Node2</title>
<g id="a_node2"><a xlink:href="classmn_1_1basic__task.html" target="_top" xlink:title="Wrapper class around FreeRTOS&#39;s implementation of a task.">
<polygon fill="white" stroke="black" points="197.5,-73 197.5,-92 287.5,-92 287.5,-73 197.5,-73"/>
<text text-anchor="middle" x="242.5" y="-80" font-family="Helvetica,sans-Serif" font-size="10.00">mn::basic_task</text>
</a>
</g>
</g>
<!-- Node2&#45;&gt;Node1 -->
<g id="edge1" class="edge">
<title>Node2&#45;&gt;Node1</title>
<path fill="none" stroke="midnightblue" d="M256.63,-64.9C268.68,-50.74 285.52,-30.96 295.08,-19.72"/>
<polygon fill="midnightblue" stroke="midnightblue" points="253.67,-62.97 249.86,-72.86 259,-67.51 253.67,-62.97"/>
</g>
<!-- Node3 -->
<g id="node3" class="node">
<title>Node3</title>
<g id="a_node3"><a xlink:title=" ">
<polygon fill="white" stroke="#bfbfbf" points="0,-349.5 0,-368.5 131,-368.5 131,-349.5 0,-349.5"/>
<text text-anchor="middle" x="65.5" y="-356.5" font-family="Helvetica,sans-Serif" font-size="10.00">MN_ONSIGLETN_CLASS</text>
</a>
</g>
</g>
<!-- Node3&#45;&gt;Node2 -->
<g id="edge2" class="edge">
<title>Node3&#45;&gt;Node2</title>
<path fill="none" stroke="#8b1a1a" d="M59.37,-339.43C56.41,-328.87 53.5,-315.33 53.5,-303 53.5,-303 53.5,-303 53.5,-176 53.5,-112.25 141.32,-92.43 197.23,-86.27"/>
<polygon fill="#8b1a1a" stroke="#8b1a1a" points="56.08,-340.63 62.35,-349.17 62.78,-338.59 56.08,-340.63"/>
</g>
<!-- Node8 -->
<g id="node8" class="node">
<title>Node8</title>
<g id="a_node8"><a xlink:href="classmn_1_1ILockObject.html" target="_top" xlink:title=" ">
<polygon fill="white" stroke="black" points="92,-292.5 92,-311.5 187,-311.5 187,-292.5 92,-292.5"/>
<text text-anchor="middle" x="139.5" y="-299.5" font-family="Helvetica,sans-Serif" font-size="10.00">mn::ILockObject</text>
</a>
</g>
</g>
<!-- Node3&#45;&gt;Node8 -->
<g id="edge8" class="edge">
<title>Node3&#45;&gt;Node8</title>
<path fill="none" stroke="#8b1a1a" d="M85.3,-343.29C98.85,-333.21 116.38,-320.19 127.77,-311.71"/>
<polygon fill="#8b1a1a" stroke="#8b1a1a" points="83,-340.63 77.06,-349.41 87.18,-346.25 83,-340.63"/>
</g>
<!-- Node4 -->
<g id="node4" class="node">
<title>Node4</title>
<g id="a_node4"><a xlink:href="classmn_1_1basic__event__group.html" target="_top" xlink:title="Wrapper class around FreeRTOS&#39;s implementation of a event_group.">
<polygon fill="white" stroke="black" points="259.5,-167.5 259.5,-186.5 389.5,-186.5 389.5,-167.5 259.5,-167.5"/>
<text text-anchor="middle" x="324.5" y="-174.5" font-family="Helvetica,sans-Serif" font-size="10.00">mn::basic_event_group</text>
</a>
</g>
</g>
<!-- Node4&#45;&gt;Node2 -->
<g id="edge3" class="edge">
<title>Node4&#45;&gt;Node2</title>
<path fill="none" stroke="#9a32cd" stroke-dasharray="5,2" d="M316.79,-158.39C310.63,-145.66 301.14,-128.57 289.5,-116 280.6,-106.39 268.39,-98.05 258.64,-92.23"/>
<polygon fill="#9a32cd" stroke="#9a32cd" points="313.61,-159.87 320.98,-167.49 319.97,-156.94 313.61,-159.87"/>
<text text-anchor="middle" x="350.5" y="-130" font-family="Helvetica,sans-Serif" font-size="10.00"> m_eventGroup</text>
</g>
<!-- Node5 -->
<g id="node5" class="node">
<title>Node5</title>
<g id="a_node5"><a xlink:title=" ">
<polygon fill="white" stroke="#bfbfbf" points="239.5,-230 239.5,-249 379.5,-249 379.5,-230 239.5,-230"/>
<text text-anchor="middle" x="309.5" y="-237" font-family="Helvetica,sans-Serif" font-size="10.00">MN_ONCOPYABLE_CLASS</text>
</a>
</g>
</g>
<!-- Node5&#45;&gt;Node4 -->
<g id="edge4" class="edge">
<title>Node5&#45;&gt;Node4</title>
<path fill="none" stroke="#8b1a1a" d="M314.12,-219.85C316.87,-208.78 320.22,-195.27 322.35,-186.65"/>
<polygon fill="#8b1a1a" stroke="#8b1a1a" points="310.66,-219.28 311.65,-229.83 317.45,-220.97 310.66,-219.28"/>
</g>
<!-- Node6 -->
<g id="node6" class="node">
<title>Node6</title>
<g id="a_node6"><a xlink:href="classmn_1_1basic__binary__semaphore.html" target="_top" xlink:title=" ">
<polygon fill="white" stroke="black" points="81.5,-167.5 81.5,-186.5 241.5,-186.5 241.5,-167.5 81.5,-167.5"/>
<text text-anchor="middle" x="161.5" y="-174.5" font-family="Helvetica,sans-Serif" font-size="10.00">mn::basic_binary_semaphore</text>
</a>
</g>
</g>
<!-- Node6&#45;&gt;Node2 -->
<g id="edge5" class="edge">
<title>Node6&#45;&gt;Node2</title>
<path fill="none" stroke="#9a32cd" stroke-dasharray="5,2" d="M170.57,-158.15C177.47,-145.56 187.77,-128.74 199.5,-116 208.12,-106.64 219.72,-98.05 228.69,-92.06"/>
<polygon fill="#9a32cd" stroke="#9a32cd" points="167.37,-156.7 165.79,-167.18 173.56,-159.98 167.37,-156.7"/>
<text text-anchor="middle" x="244.5" y="-141" font-family="Helvetica,sans-Serif" font-size="10.00"> m_contextMutext</text>
<text text-anchor="middle" x="244.5" y="-130" font-family="Helvetica,sans-Serif" font-size="10.00">m_continuemutex</text>
<text text-anchor="middle" x="244.5" y="-119" font-family="Helvetica,sans-Serif" font-size="10.00">m_runningMutex</text>
</g>
<!-- Node7 -->
<g id="node7" class="node">
<title>Node7</title>
<g id="a_node7"><a xlink:href="classmn_1_1basic__semaphore.html" target="_top" xlink:title=" ">
<polygon fill="white" stroke="black" points="94.5,-230 94.5,-249 218.5,-249 218.5,-230 94.5,-230"/>
<text text-anchor="middle" x="156.5" y="-237" font-family="Helvetica,sans-Serif" font-size="10.00">mn::basic_semaphore</text>
</a>
</g>
</g>
<!-- Node7&#45;&gt;Node6 -->
<g id="edge6" class="edge">
<title>Node7&#45;&gt;Node6</title>
<path fill="none" stroke="midnightblue" d="M158.04,-219.85C158.96,-208.78 160.07,-195.27 160.78,-186.65"/>
<polygon fill="midnightblue" stroke="midnightblue" points="154.55,-219.58 157.22,-229.83 161.53,-220.15 154.55,-219.58"/>
</g>
<!-- Node8&#45;&gt;Node7 -->
<g id="edge7" class="edge">
<title>Node8&#45;&gt;Node7</title>
<path fill="none" stroke="midnightblue" d="M144.64,-282.69C147.77,-271.56 151.62,-257.86 154.07,-249.15"/>
<polygon fill="midnightblue" stroke="midnightblue" points="141.27,-281.76 141.94,-292.33 148.01,-283.65 141.27,-281.76"/>
</g>
<!-- Node9 -->
<g id="node9" class="node">
<title>Node9</title>
<g id="a_node9"><a xlink:title=" ">
<polygon fill="white" stroke="#bfbfbf" points="415,-167.5 415,-186.5 480,-186.5 480,-167.5 415,-167.5"/>
<text text-anchor="middle" x="447.5" y="-174.5" font-family="Helvetica,sans-Serif" font-size="10.00">std::string</text>
</a>
</g>
</g>
<!-- Node9&#45;&gt;Node2 -->
<g id="edge9" class="edge">
<title>Node9&#45;&gt;Node2</title>
<path fill="none" stroke="#9a32cd" stroke-dasharray="5,2" d="M436.45,-158.81C426.62,-145 410.97,-126.26 392.5,-116 354.55,-94.92 338.83,-107.64 296.5,-98 288.74,-96.23 280.41,-94.11 272.67,-92.04"/>
<polygon fill="#9a32cd" stroke="#9a32cd" points="433.78,-161.11 442.29,-167.43 439.58,-157.19 433.78,-161.11"/>
<text text-anchor="middle" x="458" y="-130" font-family="Helvetica,sans-Serif" font-size="10.00"> m_strName</text>
</g>
<!-- Node10 -->
<g id="node10" class="node">
<title>Node10</title>
<g id="a_node10"><a xlink:title=" ">
<polygon fill="white" stroke="#bfbfbf" points="397.5,-224.5 397.5,-254.5 501.5,-254.5 501.5,-224.5 397.5,-224.5"/>
<text text-anchor="start" x="405.5" y="-242.5" font-family="Helvetica,sans-Serif" font-size="10.00">std::basic_string&lt;</text>
<text text-anchor="middle" x="449.5" y="-231.5" font-family="Helvetica,sans-Serif" font-size="10.00"> Char &gt;</text>
</a>
</g>
</g>
<!-- Node10&#45;&gt;Node9 -->
<g id="edge10" class="edge">
<title>Node10&#45;&gt;Node9</title>
<path fill="none" stroke="midnightblue" d="M448.7,-214.35C448.38,-204.51 448.02,-193.78 447.78,-186.54"/>
<polygon fill="midnightblue" stroke="midnightblue" points="445.21,-214.59 449.04,-224.47 452.2,-214.36 445.21,-214.59"/>
</g>
<!-- Node11 -->
<g id="node11" class="node">
<title>Node11</title>
<g id="a_node11"><a xlink:href="namespacemn.html#namespacemn" target="_top" xlink:title=" ">
<polygon fill="white" stroke="black" points="305.5,-67.5 305.5,-97.5 421.5,-97.5 421.5,-67.5 305.5,-67.5"/>
<text text-anchor="start" x="313.5" y="-85.5" font-family="Helvetica,sans-Serif" font-size="10.00">mn::small_task&lt; int</text>
<text text-anchor="middle" x="363.5" y="-74.5" font-family="Helvetica,sans-Serif" font-size="10.00">(void *)&gt;</text>
</a>
</g>
</g>
<!-- Node11&#45;&gt;Node1 -->
<g id="edge11" class="edge">
<title>Node11&#45;&gt;Node1</title>
<path fill="none" stroke="#9a32cd" stroke-dasharray="5,2" d="M344.36,-59.38C332.81,-46.04 318.73,-29.76 310.19,-19.89"/>
<polygon fill="#9a32cd" stroke="#9a32cd" points="341.97,-61.96 351.16,-67.23 347.26,-57.38 341.97,-61.96"/>
<text text-anchor="middle" x="365" y="-41" font-family="Helvetica,sans-Serif" font-size="10.00"> m_funcTion</text>
</g>
</g>
</svg>
