<?xml version="1.0" encoding="UTF-8" standalone="no"?>
<!DOCTYPE svg PUBLIC "-//W3C//DTD SVG 1.1//EN"
 "http://www.w3.org/Graphics/SVG/1.1/DTD/svg11.dtd">
<!-- Generated by graphviz version 2.44.1 (0)
 -->
<!-- Title: ILockObject Pages: 1 -->
<svg width="547pt" height="241pt"
 viewBox="0.00 0.00 547.00 240.50" xmlns="http://www.w3.org/2000/svg" xmlns:xlink="http://www.w3.org/1999/xlink">
<g id="graph0" class="graph" transform="scale(1 1) rotate(0) translate(4 236.5)">
<title>ILockObject</title>
<polygon fill="white" stroke="transparent" points="-4,4 -4,-236.5 543,-236.5 543,4 -4,4"/>
<!-- Node1 -->
<g id="node1" class="node">
<title>Node1</title>
<g id="a_node1"><a xlink:title=" ">
<polygon fill="#bfbfbf" stroke="black" points="0,-107 0,-126 74,-126 74,-107 0,-107"/>
<text text-anchor="middle" x="37" y="-114" font-family="Helvetica,sans-Serif" font-size="10.00">ILockObject</text>
</a>
</g>
</g>
<!-- Node2 -->
<g id="node2" class="node">
<title>Node2</title>
<g id="a_node2"><a xlink:href="classbasic__semaphore.html" target="_top" xlink:title=" ">
<polygon fill="white" stroke="black" points="114,-148 114,-167 216,-167 216,-148 114,-148"/>
<text text-anchor="middle" x="165" y="-155" font-family="Helvetica,sans-Serif" font-size="10.00">basic_semaphore</text>
</a>
</g>
</g>
<!-- Node1&#45;&gt;Node2 -->
<g id="edge1" class="edge">
<title>Node1&#45;&gt;Node2</title>
<path fill="none" stroke="midnightblue" d="M76.87,-129.15C95.45,-135.19 117.32,-142.31 134.5,-147.9"/>
<polygon fill="midnightblue" stroke="midnightblue" points="77.82,-125.78 67.22,-126.01 75.65,-132.43 77.82,-125.78"/>
</g>
<!-- Node7 -->
<g id="node7" class="node">
<title>Node7</title>
<g id="a_node7"><a xlink:href="class_i_system_lock_object.html" target="_top" xlink:title=" ">
<polygon fill="white" stroke="black" points="110,-88 110,-107 220,-107 220,-88 110,-88"/>
<text text-anchor="middle" x="165" y="-95" font-family="Helvetica,sans-Serif" font-size="10.00">ISystemLockObject</text>
</a>
</g>
</g>
<!-- Node1&#45;&gt;Node7 -->
<g id="edge6" class="edge">
<title>Node1&#45;&gt;Node7</title>
<path fill="none" stroke="midnightblue" d="M84.26,-109.52C92.49,-108.28 101.13,-106.98 109.56,-105.71"/>
<polygon fill="midnightblue" stroke="midnightblue" points="83.47,-106.1 74.11,-111.06 84.52,-113.03 83.47,-106.1"/>
</g>
<!-- Node3 -->
<g id="node3" class="node">
<title>Node3</title>
<g id="a_node3"><a xlink:href="classbasic__binary__semaphore.html" target="_top" xlink:title=" ">
<polygon fill="white" stroke="black" points="261.5,-213 261.5,-232 399.5,-232 399.5,-213 261.5,-213"/>
<text text-anchor="middle" x="330.5" y="-220" font-family="Helvetica,sans-Serif" font-size="10.00">basic_binary_semaphore</text>
</a>
</g>
</g>
<!-- Node2&#45;&gt;Node3 -->
<g id="edge2" class="edge">
<title>Node2&#45;&gt;Node3</title>
<path fill="none" stroke="midnightblue" d="M191.16,-172.25C208.84,-182.14 233.3,-194.88 256,-203.5 265.49,-207.1 275.92,-210.25 285.86,-212.9"/>
<polygon fill="midnightblue" stroke="midnightblue" points="192.51,-169 182.09,-167.1 189.06,-175.08 192.51,-169"/>
</g>
<!-- Node4 -->
<g id="node4" class="node">
<title>Node4</title>
<g id="a_node4"><a xlink:href="classbasic__counting__semaphore.html" target="_top" xlink:title=" ">
<polygon fill="white" stroke="black" points="256,-175 256,-194 405,-194 405,-175 256,-175"/>
<text text-anchor="middle" x="330.5" y="-182" font-family="Helvetica,sans-Serif" font-size="10.00">basic_counting_semaphore</text>
</a>
</g>
</g>
<!-- Node2&#45;&gt;Node4 -->
<g id="edge3" class="edge">
<title>Node2&#45;&gt;Node4</title>
<path fill="none" stroke="midnightblue" d="M226.47,-167.49C241.31,-169.94 257.14,-172.55 271.84,-174.98"/>
<polygon fill="midnightblue" stroke="midnightblue" points="226.83,-164 216.39,-165.82 225.69,-170.9 226.83,-164"/>
</g>
<!-- Node5 -->
<g id="node5" class="node">
<title>Node5</title>
<g id="a_node5"><a xlink:href="classbasic__mutex.html" target="_top" xlink:title=" ">
<polygon fill="white" stroke="black" points="291,-137 291,-156 370,-156 370,-137 291,-137"/>
<text text-anchor="middle" x="330.5" y="-144" font-family="Helvetica,sans-Serif" font-size="10.00">basic_mutex</text>
</a>
</g>
</g>
<!-- Node2&#45;&gt;Node5 -->
<g id="edge4" class="edge">
<title>Node2&#45;&gt;Node5</title>
<path fill="none" stroke="midnightblue" d="M226.45,-153.43C248.03,-151.98 271.73,-150.39 290.96,-149.09"/>
<polygon fill="midnightblue" stroke="midnightblue" points="226.13,-149.95 216.39,-154.11 226.6,-156.93 226.13,-149.95"/>
</g>
<!-- Node6 -->
<g id="node6" class="node">
<title>Node6</title>
<g id="a_node6"><a xlink:href="classrecursive__mutex.html" target="_top" xlink:title=" ">
<polygon fill="white" stroke="black" points="441,-137 441,-156 539,-156 539,-137 441,-137"/>
<text text-anchor="middle" x="490" y="-144" font-family="Helvetica,sans-Serif" font-size="10.00">recursive_mutex</text>
</a>
</g>
</g>
<!-- Node5&#45;&gt;Node6 -->
<g id="edge5" class="edge">
<title>Node5&#45;&gt;Node6</title>
<path fill="none" stroke="midnightblue" d="M380.11,-146.5C399.38,-146.5 421.48,-146.5 440.71,-146.5"/>
<polygon fill="midnightblue" stroke="midnightblue" points="380.03,-143 370.03,-146.5 380.03,-150 380.03,-143"/>
</g>
<!-- Node8 -->
<g id="node8" class="node">
<title>Node8</title>
<g id="a_node8"><a xlink:href="classbasic__critical__section.html" target="_top" xlink:title=" ">
<polygon fill="white" stroke="black" points="270,-99 270,-118 391,-118 391,-99 270,-99"/>
<text text-anchor="middle" x="330.5" y="-106" font-family="Helvetica,sans-Serif" font-size="10.00">basic_critical_section</text>
</a>
</g>
</g>
<!-- Node7&#45;&gt;Node8 -->
<g id="edge7" class="edge">
<title>Node7&#45;&gt;Node8</title>
<path fill="none" stroke="midnightblue" d="M230.68,-101.85C243.63,-102.72 257.18,-103.63 269.95,-104.49"/>
<polygon fill="midnightblue" stroke="midnightblue" points="230.66,-98.34 220.44,-101.16 230.19,-105.33 230.66,-98.34"/>
</g>
<!-- Node9 -->
<g id="node9" class="node">
<title>Node9</title>
<g id="a_node9"><a xlink:href="classbasic__critical__section__nested.html" target="_top" xlink:title=" ">
<polygon fill="white" stroke="black" points="270,-49.5 270,-79.5 391,-79.5 391,-49.5 270,-49.5"/>
<text text-anchor="start" x="278" y="-67.5" font-family="Helvetica,sans-Serif" font-size="10.00">basic_critical_section</text>
<text text-anchor="middle" x="330.5" y="-56.5" font-family="Helvetica,sans-Serif" font-size="10.00">_nested</text>
</a>
</g>
</g>
<!-- Node7&#45;&gt;Node9 -->
<g id="edge8" class="edge">
<title>Node7&#45;&gt;Node9</title>
<path fill="none" stroke="midnightblue" d="M223.46,-85.9C238.47,-82.87 254.67,-79.6 269.79,-76.55"/>
<polygon fill="midnightblue" stroke="midnightblue" points="222.4,-82.55 213.29,-87.96 223.79,-89.41 222.4,-82.55"/>
</g>
<!-- Node10 -->
<g id="node10" class="node">
<title>Node10</title>
<g id="a_node10"><a xlink:href="classbasic__critical__section__timedout.html" target="_top" xlink:title=" ">
<polygon fill="white" stroke="black" points="270,-0.5 270,-30.5 391,-30.5 391,-0.5 270,-0.5"/>
<text text-anchor="start" x="278" y="-18.5" font-family="Helvetica,sans-Serif" font-size="10.00">basic_critical_section</text>
<text text-anchor="middle" x="330.5" y="-7.5" font-family="Helvetica,sans-Serif" font-size="10.00">_timedout</text>
</a>
</g>
</g>
<!-- Node7&#45;&gt;Node10 -->
<g id="edge9" class="edge">
<title>Node7&#45;&gt;Node10</title>
<path fill="none" stroke="midnightblue" d="M186.91,-81.81C204.6,-69.1 230.99,-51.4 256,-39.5 262.91,-36.21 270.39,-33.2 277.83,-30.5"/>
<polygon fill="midnightblue" stroke="midnightblue" points="184.52,-79.23 178.51,-87.95 188.65,-84.88 184.52,-79.23"/>
</g>
</g>
</svg>
