<?xml version="1.0" encoding="UTF-8" standalone="no"?>
<!DOCTYPE svg PUBLIC "-//W3C//DTD SVG 1.1//EN"
 "http://www.w3.org/Graphics/SVG/1.1/DTD/svg11.dtd">
<!-- Generated by graphviz version 2.47.1 (0)
 -->
<!-- Title: mn::ext::basic_message_task Pages: 1 -->
<svg width="1748pt" height="179pt"
 viewBox="0.00 0.00 1748.00 179.00" xmlns="http://www.w3.org/2000/svg" xmlns:xlink="http://www.w3.org/1999/xlink">
<g id="graph0" class="graph" transform="scale(1 1) rotate(0) translate(4 175)">
<title>mn::ext::basic_message_task</title>
<polygon fill="white" stroke="transparent" points="-4,4 -4,-175 1744,-175 1744,4 -4,4"/>
<!-- Node1 -->
<g id="node1" class="node">
<title>Node1</title>
<g id="a_node1"><a xlink:title=" ">
<polygon fill="#bfbfbf" stroke="black" points="1579,-63.5 1579,-82.5 1740,-82.5 1740,-63.5 1579,-63.5"/>
<text text-anchor="middle" x="1659.5" y="-70.5" font-family="Helvetica,sans-Serif" font-size="10.00">mn::ext::basic_message_task</text>
</a>
</g>
</g>
<!-- Node2 -->
<g id="node2" class="node">
<title>Node2</title>
<g id="a_node2"><a xlink:href="classmn_1_1ext_1_1basic__convar__task.html" target="_top" xlink:title=" ">
<polygon fill="white" stroke="black" points="874,-58.5 874,-77.5 1024,-77.5 1024,-58.5 874,-58.5"/>
<text text-anchor="middle" x="949" y="-65.5" font-family="Helvetica,sans-Serif" font-size="10.00">mn::ext::basic_convar_task</text>
</a>
</g>
</g>
<!-- Node2&#45;&gt;Node1 -->
<g id="edge1" class="edge">
<title>Node2&#45;&gt;Node1</title>
<path fill="none" stroke="midnightblue" d="M982.25,-81.34C1013.89,-93.66 1063.83,-111.07 1109,-118 1298.69,-147.12 1528.32,-103.02 1618.96,-82.53"/>
<polygon fill="midnightblue" stroke="midnightblue" points="983.23,-77.97 972.65,-77.54 980.66,-84.48 983.23,-77.97"/>
</g>
<!-- Node13 -->
<g id="node13" class="node">
<title>Node13</title>
<g id="a_node13"><a xlink:title=" ">
<polygon fill="white" stroke="#bfbfbf" points="1109,-40 1109,-70 1241,-70 1241,-40 1109,-40"/>
<text text-anchor="start" x="1117" y="-58" font-family="Helvetica,sans-Serif" font-size="10.00">std::list&lt; mn::ext</text>
<text text-anchor="middle" x="1175" y="-47" font-family="Helvetica,sans-Serif" font-size="10.00">::basic_convar_task * &gt;</text>
</a>
</g>
</g>
<!-- Node2&#45;&gt;Node13 -->
<g id="edge16" class="edge">
<title>Node2&#45;&gt;Node13</title>
<path fill="none" stroke="#9a32cd" stroke-dasharray="5,2" d="M1034.36,-63.1C1059.05,-61.67 1085.65,-60.13 1108.95,-58.78"/>
<polygon fill="#9a32cd" stroke="#9a32cd" points="1034.06,-59.62 1024.28,-63.69 1034.46,-66.6 1034.06,-59.62"/>
<text text-anchor="middle" x="1066.5" y="-66" font-family="Helvetica,sans-Serif" font-size="10.00"> elements</text>
</g>
<!-- Node3 -->
<g id="node3" class="node">
<title>Node3</title>
<g id="a_node3"><a xlink:href="classmn_1_1basic__task.html" target="_top" xlink:title="Wrapper class around FreeRTOS&#39;s implementation of a task.">
<polygon fill="white" stroke="black" points="747,-110.5 747,-129.5 837,-129.5 837,-110.5 747,-110.5"/>
<text text-anchor="middle" x="792" y="-117.5" font-family="Helvetica,sans-Serif" font-size="10.00">mn::basic_task</text>
</a>
</g>
</g>
<!-- Node3&#45;&gt;Node2 -->
<g id="edge2" class="edge">
<title>Node3&#45;&gt;Node2</title>
<path fill="none" stroke="midnightblue" d="M831.06,-107.23C858.38,-98.06 894.63,-85.9 919.49,-77.57"/>
<polygon fill="midnightblue" stroke="midnightblue" points="829.8,-103.96 821.43,-110.46 832.02,-110.6 829.8,-103.96"/>
</g>
<!-- Node4 -->
<g id="node4" class="node">
<title>Node4</title>
<g id="a_node4"><a xlink:title=" ">
<polygon fill="white" stroke="#bfbfbf" points="0,-142.5 0,-161.5 131,-161.5 131,-142.5 0,-142.5"/>
<text text-anchor="middle" x="65.5" y="-149.5" font-family="Helvetica,sans-Serif" font-size="10.00">MN_ONSIGLETN_CLASS</text>
</a>
</g>
</g>
<!-- Node4&#45;&gt;Node3 -->
<g id="edge3" class="edge">
<title>Node4&#45;&gt;Node3</title>
<path fill="none" stroke="#8b1a1a" d="M125.69,-163.11C152.67,-167.27 185.1,-171 214.5,-171 214.5,-171 214.5,-171 542,-171 626.1,-171 647.46,-162.6 729,-142 741.96,-138.73 756.02,-133.85 767.47,-129.52"/>
<polygon fill="#8b1a1a" stroke="#8b1a1a" points="126.06,-159.62 115.63,-161.5 124.95,-166.53 126.06,-159.62"/>
</g>
<!-- Node7 -->
<g id="node7" class="node">
<title>Node7</title>
<g id="a_node7"><a xlink:href="classmn_1_1ILockObject.html" target="_top" xlink:title=" ">
<polygon fill="white" stroke="black" points="168,-111.5 168,-130.5 263,-130.5 263,-111.5 168,-111.5"/>
<text text-anchor="middle" x="215.5" y="-118.5" font-family="Helvetica,sans-Serif" font-size="10.00">mn::ILockObject</text>
</a>
</g>
</g>
<!-- Node4&#45;&gt;Node7 -->
<g id="edge7" class="edge">
<title>Node4&#45;&gt;Node7</title>
<path fill="none" stroke="#8b1a1a" d="M122.09,-140.36C137.58,-137.11 154.21,-133.63 169.04,-130.52"/>
<polygon fill="#8b1a1a" stroke="#8b1a1a" points="121.18,-136.97 112.11,-142.45 122.62,-143.82 121.18,-136.97"/>
</g>
<!-- Node5 -->
<g id="node5" class="node">
<title>Node5</title>
<g id="a_node5"><a xlink:href="classmn_1_1basic__binary__semaphore.html" target="_top" xlink:title=" ">
<polygon fill="white" stroke="black" points="461,-60.5 461,-79.5 621,-79.5 621,-60.5 461,-60.5"/>
<text text-anchor="middle" x="541" y="-67.5" font-family="Helvetica,sans-Serif" font-size="10.00">mn::basic_binary_semaphore</text>
</a>
</g>
</g>
<!-- Node5&#45;&gt;Node2 -->
<g id="edge10" class="edge">
<title>Node5&#45;&gt;Node2</title>
<path fill="none" stroke="#9a32cd" stroke-dasharray="5,2" d="M631.31,-69.56C704.01,-69.2 805.44,-68.7 873.75,-68.37"/>
<polygon fill="#9a32cd" stroke="#9a32cd" points="631.23,-66.06 621.24,-69.61 631.26,-73.06 631.23,-66.06"/>
<text text-anchor="middle" x="792" y="-72" font-family="Helvetica,sans-Serif" font-size="10.00"> m_waitSem</text>
</g>
<!-- Node5&#45;&gt;Node3 -->
<g id="edge4" class="edge">
<title>Node5&#45;&gt;Node3</title>
<path fill="none" stroke="#9a32cd" stroke-dasharray="5,2" d="M631.22,-70.1C662.66,-72.1 697.9,-76.6 729,-86 746.86,-91.4 765.37,-102.37 777.46,-110.4"/>
<polygon fill="#9a32cd" stroke="#9a32cd" points="631.33,-66.6 621.15,-69.54 630.94,-73.59 631.33,-66.6"/>
<text text-anchor="middle" x="684" y="-111" font-family="Helvetica,sans-Serif" font-size="10.00"> m_contextMutext</text>
<text text-anchor="middle" x="684" y="-100" font-family="Helvetica,sans-Serif" font-size="10.00">m_continuemutex</text>
<text text-anchor="middle" x="684" y="-89" font-family="Helvetica,sans-Serif" font-size="10.00">m_runningMutex</text>
</g>
<!-- Node6 -->
<g id="node6" class="node">
<title>Node6</title>
<g id="a_node6"><a xlink:href="classmn_1_1basic__semaphore.html" target="_top" xlink:title=" ">
<polygon fill="white" stroke="black" points="300,-60.5 300,-79.5 424,-79.5 424,-60.5 300,-60.5"/>
<text text-anchor="middle" x="362" y="-67.5" font-family="Helvetica,sans-Serif" font-size="10.00">mn::basic_semaphore</text>
</a>
</g>
</g>
<!-- Node6&#45;&gt;Node5 -->
<g id="edge5" class="edge">
<title>Node6&#45;&gt;Node5</title>
<path fill="none" stroke="midnightblue" d="M434.5,-70C443.2,-70 452.13,-70 460.93,-70"/>
<polygon fill="midnightblue" stroke="midnightblue" points="434.41,-66.5 424.41,-70 434.41,-73.5 434.41,-66.5"/>
</g>
<!-- Node12 -->
<g id="node12" class="node">
<title>Node12</title>
<g id="a_node12"><a xlink:href="classmn_1_1basic__mutex.html" target="_top" xlink:title=" ">
<polygon fill="white" stroke="black" points="1124.5,-0.5 1124.5,-19.5 1225.5,-19.5 1225.5,-0.5 1124.5,-0.5"/>
<text text-anchor="middle" x="1175" y="-7.5" font-family="Helvetica,sans-Serif" font-size="10.00">mn::basic_mutex</text>
</a>
</g>
</g>
<!-- Node6&#45;&gt;Node12 -->
<g id="edge14" class="edge">
<title>Node6&#45;&gt;Node12</title>
<path fill="none" stroke="midnightblue" d="M388.56,-55.43C422.18,-37.67 483.59,-10 540,-10 540,-10 540,-10 950,-10 1009.89,-10 1078.78,-10 1124.18,-10"/>
<polygon fill="midnightblue" stroke="midnightblue" points="386.58,-52.52 379.45,-60.36 389.91,-58.68 386.58,-52.52"/>
</g>
<!-- Node7&#45;&gt;Node6 -->
<g id="edge6" class="edge">
<title>Node7&#45;&gt;Node6</title>
<path fill="none" stroke="midnightblue" d="M253.25,-108.03C278.39,-99.16 311.17,-87.59 333.94,-79.55"/>
<polygon fill="midnightblue" stroke="midnightblue" points="251.94,-104.78 243.68,-111.41 254.27,-111.38 251.94,-104.78"/>
</g>
<!-- Node8 -->
<g id="node8" class="node">
<title>Node8</title>
<g id="a_node8"><a xlink:title=" ">
<polygon fill="white" stroke="#bfbfbf" points="508.5,-120.5 508.5,-139.5 573.5,-139.5 573.5,-120.5 508.5,-120.5"/>
<text text-anchor="middle" x="541" y="-127.5" font-family="Helvetica,sans-Serif" font-size="10.00">std::string</text>
</a>
</g>
</g>
<!-- Node8&#45;&gt;Node3 -->
<g id="edge8" class="edge">
<title>Node8&#45;&gt;Node3</title>
<path fill="none" stroke="#9a32cd" stroke-dasharray="5,2" d="M583.92,-128.56C621.82,-127.23 679.16,-125.14 729,-123 734.81,-122.75 740.93,-122.47 746.97,-122.19"/>
<polygon fill="#9a32cd" stroke="#9a32cd" points="583.64,-125.07 573.77,-128.92 583.88,-132.07 583.64,-125.07"/>
<text text-anchor="middle" x="684" y="-130" font-family="Helvetica,sans-Serif" font-size="10.00"> m_strName</text>
</g>
<!-- Node9 -->
<g id="node9" class="node">
<title>Node9</title>
<g id="a_node9"><a xlink:title=" ">
<polygon fill="white" stroke="#bfbfbf" points="310,-112 310,-142 414,-142 414,-112 310,-112"/>
<text text-anchor="start" x="318" y="-130" font-family="Helvetica,sans-Serif" font-size="10.00">std::basic_string&lt;</text>
<text text-anchor="middle" x="362" y="-119" font-family="Helvetica,sans-Serif" font-size="10.00"> Char &gt;</text>
</a>
</g>
</g>
<!-- Node9&#45;&gt;Node8 -->
<g id="edge9" class="edge">
<title>Node9&#45;&gt;Node8</title>
<path fill="none" stroke="midnightblue" d="M424.41,-128.04C452.71,-128.52 485.11,-129.07 508.38,-129.46"/>
<polygon fill="midnightblue" stroke="midnightblue" points="424.25,-124.54 414.2,-127.87 424.13,-131.54 424.25,-124.54"/>
</g>
<!-- Node10 -->
<g id="node10" class="node">
<title>Node10</title>
<g id="a_node10"><a xlink:href="classmn_1_1ext_1_1basic__condition__variable.html" target="_top" xlink:title=" ">
<polygon fill="white" stroke="black" points="1334,-58 1334,-88 1470,-88 1470,-58 1334,-58"/>
<text text-anchor="start" x="1342" y="-76" font-family="Helvetica,sans-Serif" font-size="10.00">mn::ext::basic_condition</text>
<text text-anchor="middle" x="1402" y="-65" font-family="Helvetica,sans-Serif" font-size="10.00">_variable</text>
</a>
</g>
</g>
<!-- Node10&#45;&gt;Node1 -->
<g id="edge11" class="edge">
<title>Node10&#45;&gt;Node1</title>
<path fill="none" stroke="#9a32cd" stroke-dasharray="5,2" d="M1480.47,-73C1511.55,-73 1547.34,-73 1578.65,-73"/>
<polygon fill="#9a32cd" stroke="#9a32cd" points="1480.13,-69.5 1470.13,-73 1480.13,-76.5 1480.13,-69.5"/>
<text text-anchor="middle" x="1524.5" y="-76" font-family="Helvetica,sans-Serif" font-size="10.00"> m_cvMessage</text>
</g>
<!-- Node11 -->
<g id="node11" class="node">
<title>Node11</title>
<g id="a_node11"><a xlink:title=" ">
<polygon fill="white" stroke="#bfbfbf" points="1116,-89.5 1116,-108.5 1234,-108.5 1234,-89.5 1116,-89.5"/>
<text text-anchor="middle" x="1175" y="-96.5" font-family="Helvetica,sans-Serif" font-size="10.00">MN_DEFAULT_CLASS</text>
</a>
</g>
</g>
<!-- Node11&#45;&gt;Node10 -->
<g id="edge12" class="edge">
<title>Node11&#45;&gt;Node10</title>
<path fill="none" stroke="#8b1a1a" d="M1244.47,-91.09C1272.83,-87.81 1305.62,-84.02 1333.84,-80.76"/>
<polygon fill="#8b1a1a" stroke="#8b1a1a" points="1243.77,-87.65 1234.24,-92.27 1244.57,-94.6 1243.77,-87.65"/>
</g>
<!-- Node12&#45;&gt;Node1 -->
<g id="edge17" class="edge">
<title>Node12&#45;&gt;Node1</title>
<path fill="none" stroke="#9a32cd" stroke-dasharray="5,2" d="M1235.93,-13.79C1295.48,-17.96 1389.32,-25.62 1470,-37 1519.98,-44.05 1576.82,-55.36 1614.9,-63.43"/>
<polygon fill="#9a32cd" stroke="#9a32cd" points="1235.8,-10.27 1225.59,-13.08 1235.32,-17.26 1235.8,-10.27"/>
<text text-anchor="middle" x="1402" y="-40" font-family="Helvetica,sans-Serif" font-size="10.00"> m_ltMessageQueueLock</text>
</g>
<!-- Node12&#45;&gt;Node10 -->
<g id="edge13" class="edge">
<title>Node12&#45;&gt;Node10</title>
<path fill="none" stroke="#9a32cd" stroke-dasharray="5,2" d="M1223.56,-22.08C1250.71,-29.1 1285.34,-38.26 1316,-47 1328.02,-50.43 1340.94,-54.29 1353,-57.96"/>
<polygon fill="#9a32cd" stroke="#9a32cd" points="1224.1,-18.61 1213.54,-19.5 1222.35,-25.39 1224.1,-18.61"/>
<text text-anchor="middle" x="1287.5" y="-50" font-family="Helvetica,sans-Serif" font-size="10.00"> m_mutex</text>
</g>
<!-- Node13&#45;&gt;Node10 -->
<g id="edge15" class="edge">
<title>Node13&#45;&gt;Node10</title>
<path fill="none" stroke="#9a32cd" stroke-dasharray="5,2" d="M1251.14,-61.01C1277.85,-63.15 1307.72,-65.54 1333.72,-67.62"/>
<polygon fill="#9a32cd" stroke="#9a32cd" points="1251.33,-57.52 1241.08,-60.21 1250.77,-64.49 1251.33,-57.52"/>
<text text-anchor="middle" x="1287.5" y="-70" font-family="Helvetica,sans-Serif" font-size="10.00"> m_waitList</text>
</g>
</g>
</svg>
