<?xml version="1.0" encoding="UTF-8" standalone="no"?>
<!DOCTYPE svg PUBLIC "-//W3C//DTD SVG 1.1//EN"
 "http://www.w3.org/Graphics/SVG/1.1/DTD/svg11.dtd">
<!-- Generated by graphviz version 2.47.3 (0)
 -->
<!-- Title: mn::event_system&lt; TSender, TArgs, TBaseEvent, TContainer &gt; Pages: 1 -->
<svg width="332pt" height="352pt"
 viewBox="0.00 0.00 331.50 352.00" xmlns="http://www.w3.org/2000/svg" xmlns:xlink="http://www.w3.org/1999/xlink">
<g id="graph0" class="graph" transform="scale(1 1) rotate(0) translate(4 348)">
<title>mn::event_system&lt; TSender, TArgs, TBaseEvent, TContainer &gt;</title>
<polygon fill="white" stroke="transparent" points="-4,4 -4,-348 327.5,-348 327.5,4 -4,4"/>
<!-- Node1 -->
<g id="node1" class="node">
<title>Node1</title>
<g id="a_node1"><a xlink:title=" ">
<polygon fill="#bfbfbf" stroke="black" points="92,-0.5 92,-30.5 272,-30.5 272,-0.5 92,-0.5"/>
<text text-anchor="start" x="100" y="-18.5" font-family="Helvetica,sans-Serif" font-size="10.00">mn::event_system&lt; TSender,</text>
<text text-anchor="middle" x="182" y="-7.5" font-family="Helvetica,sans-Serif" font-size="10.00"> TArgs, TBaseEvent, TContainer &gt;</text>
</a>
</g>
</g>
<!-- Node2 -->
<g id="node2" class="node">
<title>Node2</title>
<g id="a_node2"><a xlink:href="classmn_1_1container_1_1basic__vector.html" target="_top" xlink:title=" ">
<polygon fill="white" stroke="black" points="52,-78.5 52,-119.5 180,-119.5 180,-78.5 52,-78.5"/>
<text text-anchor="start" x="60" y="-107.5" font-family="Helvetica,sans-Serif" font-size="10.00">mn::container::basic</text>
<text text-anchor="start" x="60" y="-96.5" font-family="Helvetica,sans-Serif" font-size="10.00">_vector&lt; base_event&lt;</text>
<text text-anchor="middle" x="116" y="-85.5" font-family="Helvetica,sans-Serif" font-size="10.00"> TSender, TArgs &gt; &gt;</text>
</a>
</g>
</g>
<!-- Node2&#45;&gt;Node1 -->
<g id="edge1" class="edge">
<title>Node2&#45;&gt;Node1</title>
<path fill="none" stroke="#9a32cd" stroke-dasharray="5,2" d="M135.04,-69.9C140.04,-62.93 145.57,-55.57 151,-49 156.17,-42.75 162.25,-36.22 167.66,-30.66"/>
<polygon fill="#9a32cd" stroke="#9a32cd" points="131.92,-68.26 129.02,-78.45 137.64,-72.29 131.92,-68.26"/>
<text text-anchor="middle" x="184.5" y="-52" font-family="Helvetica,sans-Serif" font-size="10.00"> m_observers</text>
</g>
<!-- Node3 -->
<g id="node3" class="node">
<title>Node3</title>
<g id="a_node3"><a xlink:href="structmn_1_1container_1_1basic__vector__storage.html" target="_top" xlink:title=" ">
<polygon fill="white" stroke="black" points="0,-157.5 0,-187.5 178,-187.5 178,-157.5 0,-157.5"/>
<text text-anchor="start" x="8" y="-175.5" font-family="Helvetica,sans-Serif" font-size="10.00">mn::container::basic</text>
<text text-anchor="middle" x="89" y="-164.5" font-family="Helvetica,sans-Serif" font-size="10.00">_vector_storage&lt; T, TAllocator &gt;</text>
</a>
</g>
</g>
<!-- Node3&#45;&gt;Node2 -->
<g id="edge2" class="edge">
<title>Node3&#45;&gt;Node2</title>
<path fill="none" stroke="#8b1a1a" d="M97.88,-147.99C101.36,-138.76 105.31,-128.3 108.63,-119.51"/>
<polygon fill="#8b1a1a" stroke="#8b1a1a" points="94.59,-146.78 94.33,-157.37 101.14,-149.26 94.59,-146.78"/>
</g>
<!-- Node4 -->
<g id="node4" class="node">
<title>Node4</title>
<g id="a_node4"><a xlink:href="classmn_1_1memory_1_1basic__allocator.html" target="_top" xlink:title=" ">
<polygon fill="white" stroke="black" points="10,-235.5 10,-265.5 168,-265.5 168,-235.5 10,-235.5"/>
<text text-anchor="start" x="18" y="-253.5" font-family="Helvetica,sans-Serif" font-size="10.00">mn::memory::basic_allocator</text>
<text text-anchor="middle" x="89" y="-242.5" font-family="Helvetica,sans-Serif" font-size="10.00">&lt; TAllocator, TFilter &gt;</text>
</a>
</g>
</g>
<!-- Node4&#45;&gt;Node3 -->
<g id="edge3" class="edge">
<title>Node4&#45;&gt;Node3</title>
<path fill="none" stroke="#9a32cd" stroke-dasharray="5,2" d="M89,-225.09C89,-212.76 89,-198.22 89,-187.73"/>
<polygon fill="#9a32cd" stroke="#9a32cd" points="85.5,-225.2 89,-235.2 92.5,-225.21 85.5,-225.2"/>
<text text-anchor="middle" x="119.5" y="-209" font-family="Helvetica,sans-Serif" font-size="10.00"> m_allocator</text>
</g>
<!-- Node5 -->
<g id="node5" class="node">
<title>Node5</title>
<g id="a_node5"><a xlink:href="classmn_1_1memory_1_1basic__allocator__filter.html" target="_top" xlink:title=" ">
<polygon fill="white" stroke="black" points="10,-313.5 10,-343.5 168,-343.5 168,-313.5 10,-313.5"/>
<text text-anchor="start" x="18" y="-331.5" font-family="Helvetica,sans-Serif" font-size="10.00">mn::memory::basic_allocator</text>
<text text-anchor="middle" x="89" y="-320.5" font-family="Helvetica,sans-Serif" font-size="10.00">_filter</text>
</a>
</g>
</g>
<!-- Node5&#45;&gt;Node4 -->
<g id="edge4" class="edge">
<title>Node5&#45;&gt;Node4</title>
<path fill="none" stroke="#9a32cd" stroke-dasharray="5,2" d="M89,-303.09C89,-290.76 89,-276.22 89,-265.73"/>
<polygon fill="#9a32cd" stroke="#9a32cd" points="85.5,-303.2 89,-313.2 92.5,-303.21 85.5,-303.2"/>
<text text-anchor="middle" x="112.5" y="-287" font-family="Helvetica,sans-Serif" font-size="10.00"> m_fFilter</text>
</g>
<!-- Node6 -->
<g id="node6" class="node">
<title>Node6</title>
<g id="a_node6"><a xlink:href="classmn_1_1basic__mutex.html" target="_top" xlink:title=" ">
<polygon fill="white" stroke="black" points="202.5,-89.5 202.5,-108.5 303.5,-108.5 303.5,-89.5 202.5,-89.5"/>
<text text-anchor="middle" x="253" y="-96.5" font-family="Helvetica,sans-Serif" font-size="10.00">mn::basic_mutex</text>
</a>
</g>
</g>
<!-- Node6&#45;&gt;Node1 -->
<g id="edge5" class="edge">
<title>Node6&#45;&gt;Node1</title>
<path fill="none" stroke="#9a32cd" stroke-dasharray="5,2" d="M242.08,-80.83C235.56,-71.1 226.86,-58.93 218,-49 212.28,-42.59 205.41,-36.13 199.2,-30.67"/>
<polygon fill="#9a32cd" stroke="#9a32cd" points="239.18,-82.8 247.58,-89.26 245.04,-78.97 239.18,-82.8"/>
<text text-anchor="middle" x="252" y="-52" font-family="Helvetica,sans-Serif" font-size="10.00"> m_mutex</text>
</g>
<!-- Node7 -->
<g id="node7" class="node">
<title>Node7</title>
<g id="a_node7"><a xlink:href="classmn_1_1basic__semaphore.html" target="_top" xlink:title=" ">
<polygon fill="white" stroke="black" points="196,-163 196,-182 320,-182 320,-163 196,-163"/>
<text text-anchor="middle" x="258" y="-170" font-family="Helvetica,sans-Serif" font-size="10.00">mn::basic_semaphore</text>
</a>
</g>
</g>
<!-- Node7&#45;&gt;Node6 -->
<g id="edge6" class="edge">
<title>Node7&#45;&gt;Node6</title>
<path fill="none" stroke="midnightblue" d="M256.68,-152.59C255.69,-138.43 254.38,-119.7 253.62,-108.84"/>
<polygon fill="midnightblue" stroke="midnightblue" points="253.2,-153 257.39,-162.73 260.18,-152.51 253.2,-153"/>
</g>
<!-- Node8 -->
<g id="node8" class="node">
<title>Node8</title>
<g id="a_node8"><a xlink:href="classmn_1_1ILockObject.html" target="_top" xlink:title=" ">
<polygon fill="white" stroke="black" points="210.5,-241 210.5,-260 305.5,-260 305.5,-241 210.5,-241"/>
<text text-anchor="middle" x="258" y="-248" font-family="Helvetica,sans-Serif" font-size="10.00">mn::ILockObject</text>
</a>
</g>
</g>
<!-- Node8&#45;&gt;Node7 -->
<g id="edge7" class="edge">
<title>Node8&#45;&gt;Node7</title>
<path fill="none" stroke="midnightblue" d="M258,-230.72C258,-215.2 258,-193.86 258,-182.12"/>
<polygon fill="midnightblue" stroke="midnightblue" points="254.5,-230.78 258,-240.78 261.5,-230.78 254.5,-230.78"/>
</g>
<!-- Node9 -->
<g id="node9" class="node">
<title>Node9</title>
<g id="a_node9"><a xlink:title=" ">
<polygon fill="white" stroke="#bfbfbf" points="192.5,-319 192.5,-338 323.5,-338 323.5,-319 192.5,-319"/>
<text text-anchor="middle" x="258" y="-326" font-family="Helvetica,sans-Serif" font-size="10.00">MN_ONSIGLETN_CLASS</text>
</a>
</g>
</g>
<!-- Node9&#45;&gt;Node8 -->
<g id="edge8" class="edge">
<title>Node9&#45;&gt;Node8</title>
<path fill="none" stroke="#8b1a1a" d="M258,-308.72C258,-293.2 258,-271.86 258,-260.12"/>
<polygon fill="#8b1a1a" stroke="#8b1a1a" points="254.5,-308.78 258,-318.78 261.5,-308.78 254.5,-308.78"/>
</g>
</g>
</svg>
