<?xml version="1.0" encoding="UTF-8" standalone="no"?>
<!DOCTYPE svg PUBLIC "-//W3C//DTD SVG 1.1//EN"
 "http://www.w3.org/Graphics/SVG/1.1/DTD/svg11.dtd">
<!-- Generated by graphviz version 2.46.0 (0)
 -->
<!-- Title: mn::net::basic_stream_ip_socket Pages: 1 -->
<svg width="384pt" height="320pt"
 viewBox="0.00 0.00 384.00 320.00" xmlns="http://www.w3.org/2000/svg" xmlns:xlink="http://www.w3.org/1999/xlink">
<g id="graph0" class="graph" transform="scale(1 1) rotate(0) translate(4 316)">
<title>mn::net::basic_stream_ip_socket</title>
<polygon fill="white" stroke="transparent" points="-4,4 -4,-316 380,-316 380,4 -4,4"/>
<!-- Node1 -->
<g id="node1" class="node">
<title>Node1</title>
<g id="a_node1"><a xlink:title=" ">
<polygon fill="#bfbfbf" stroke="black" points="22,-0.5 22,-30.5 147,-30.5 147,-0.5 22,-0.5"/>
<text text-anchor="start" x="30" y="-18.5" font-family="Helvetica,sans-Serif" font-size="10.00">mn::net::basic_stream</text>
<text text-anchor="middle" x="84.5" y="-7.5" font-family="Helvetica,sans-Serif" font-size="10.00">_ip_socket</text>
</a>
</g>
</g>
<!-- Node2 -->
<g id="node2" class="node">
<title>Node2</title>
<g id="a_node2"><a xlink:href="classmn_1_1net_1_1basic__ip4__socket.html" target="_top" xlink:title=" ">
<polygon fill="white" stroke="black" points="31.5,-68.5 31.5,-98.5 137.5,-98.5 137.5,-68.5 31.5,-68.5"/>
<text text-anchor="start" x="39.5" y="-86.5" font-family="Helvetica,sans-Serif" font-size="10.00">mn::net::basic_ip4</text>
<text text-anchor="middle" x="84.5" y="-75.5" font-family="Helvetica,sans-Serif" font-size="10.00">_socket</text>
</a>
</g>
</g>
<!-- Node2&#45;&gt;Node1 -->
<g id="edge1" class="edge">
<title>Node2&#45;&gt;Node1</title>
<path fill="none" stroke="midnightblue" d="M84.5,-58.03C84.5,-48.86 84.5,-38.74 84.5,-30.79"/>
<polygon fill="midnightblue" stroke="midnightblue" points="81,-58.18 84.5,-68.18 88,-58.18 81,-58.18"/>
</g>
<!-- Node3 -->
<g id="node3" class="node">
<title>Node3</title>
<g id="a_node3"><a xlink:href="classmn_1_1net_1_1basic__ip__socket.html" target="_top" xlink:title="Wrapper class around lwip implementation of a socket.">
<polygon fill="white" stroke="black" points="0,-152 0,-171 137,-171 137,-152 0,-152"/>
<text text-anchor="middle" x="68.5" y="-159" font-family="Helvetica,sans-Serif" font-size="10.00">mn::net::basic_ip_socket</text>
</a>
</g>
</g>
<!-- Node3&#45;&gt;Node2 -->
<g id="edge2" class="edge">
<title>Node3&#45;&gt;Node2</title>
<path fill="none" stroke="midnightblue" d="M72.44,-141.78C75.26,-128.4 78.99,-110.69 81.55,-98.52"/>
<polygon fill="midnightblue" stroke="midnightblue" points="68.97,-141.28 70.34,-151.78 75.82,-142.72 68.97,-141.28"/>
</g>
<!-- Node4 -->
<g id="node4" class="node">
<title>Node4</title>
<g id="a_node4"><a xlink:href="classmn_1_1net_1_1basic__ip4__endpoint.html" target="_top" xlink:title=" ">
<polygon fill="white" stroke="black" points="155.5,-146.5 155.5,-176.5 261.5,-176.5 261.5,-146.5 155.5,-146.5"/>
<text text-anchor="start" x="163.5" y="-164.5" font-family="Helvetica,sans-Serif" font-size="10.00">mn::net::basic_ip4</text>
<text text-anchor="middle" x="208.5" y="-153.5" font-family="Helvetica,sans-Serif" font-size="10.00">_endpoint</text>
</a>
</g>
</g>
<!-- Node4&#45;&gt;Node2 -->
<g id="edge3" class="edge">
<title>Node4&#45;&gt;Node2</title>
<path fill="none" stroke="#9a32cd" stroke-dasharray="5,2" d="M176.92,-141.14C155.23,-127.85 126.95,-110.52 107.41,-98.54"/>
<polygon fill="#9a32cd" stroke="#9a32cd" points="175.11,-144.14 185.47,-146.38 178.77,-138.17 175.11,-144.14"/>
<text text-anchor="middle" x="188" y="-120" font-family="Helvetica,sans-Serif" font-size="10.00"> m_pEndPoint</text>
</g>
<!-- Node5 -->
<g id="node5" class="node">
<title>Node5</title>
<g id="a_node5"><a xlink:href="classmn_1_1net_1_1basic__endpoint.html" target="_top" xlink:title=" ">
<polygon fill="white" stroke="black" points="99.5,-230 99.5,-249 233.5,-249 233.5,-230 99.5,-230"/>
<text text-anchor="middle" x="166.5" y="-237" font-family="Helvetica,sans-Serif" font-size="10.00">mn::net::basic_endpoint</text>
</a>
</g>
</g>
<!-- Node5&#45;&gt;Node4 -->
<g id="edge4" class="edge">
<title>Node5&#45;&gt;Node4</title>
<path fill="none" stroke="midnightblue" d="M176.19,-220.97C183.65,-207.47 193.83,-189.05 200.75,-176.52"/>
<polygon fill="midnightblue" stroke="midnightblue" points="173.09,-219.34 171.32,-229.78 179.22,-222.72 173.09,-219.34"/>
</g>
<!-- Node6 -->
<g id="node6" class="node">
<title>Node6</title>
<g id="a_node6"><a xlink:href="classmn_1_1net_1_1basic__ip4__address.html" target="_top" xlink:title="Class for the Internet Protocal version 4.">
<polygon fill="white" stroke="black" points="251.5,-224.5 251.5,-254.5 357.5,-254.5 357.5,-224.5 251.5,-224.5"/>
<text text-anchor="start" x="259.5" y="-242.5" font-family="Helvetica,sans-Serif" font-size="10.00">mn::net::basic_ip4</text>
<text text-anchor="middle" x="304.5" y="-231.5" font-family="Helvetica,sans-Serif" font-size="10.00">_address</text>
</a>
</g>
</g>
<!-- Node6&#45;&gt;Node4 -->
<g id="edge5" class="edge">
<title>Node6&#45;&gt;Node4</title>
<path fill="none" stroke="#9a32cd" stroke-dasharray="5,2" d="M278.29,-217.75C261.85,-204.73 241.07,-188.28 226.48,-176.73"/>
<polygon fill="#9a32cd" stroke="#9a32cd" points="276.43,-220.74 286.44,-224.2 280.78,-215.25 276.43,-220.74"/>
<text text-anchor="middle" x="292" y="-198" font-family="Helvetica,sans-Serif" font-size="10.00"> m_ipAdress</text>
</g>
<!-- Node7 -->
<g id="node7" class="node">
<title>Node7</title>
<g id="a_node7"><a xlink:href="classmn_1_1net_1_1basic__ip__address.html" target="_top" xlink:title="Wrapper class around lwip implementation of a ip address.">
<polygon fill="white" stroke="black" points="233,-292.5 233,-311.5 376,-311.5 376,-292.5 233,-292.5"/>
<text text-anchor="middle" x="304.5" y="-299.5" font-family="Helvetica,sans-Serif" font-size="10.00">mn::net::basic_ip_address</text>
</a>
</g>
</g>
<!-- Node7&#45;&gt;Node6 -->
<g id="edge6" class="edge">
<title>Node7&#45;&gt;Node6</title>
<path fill="none" stroke="midnightblue" d="M304.5,-282.22C304.5,-273.36 304.5,-262.96 304.5,-254.76"/>
<polygon fill="midnightblue" stroke="midnightblue" points="301,-282.33 304.5,-292.33 308,-282.33 301,-282.33"/>
</g>
</g>
</svg>
