<?xml version="1.0" encoding="UTF-8" standalone="no"?>
<!DOCTYPE svg PUBLIC "-//W3C//DTD SVG 1.1//EN"
 "http://www.w3.org/Graphics/SVG/1.1/DTD/svg11.dtd">
<!-- Generated by graphviz version 2.47.3 (0)
 -->
<!-- Title: mn::compressed_pair&lt; T, U, typename &gt; Pages: 1 -->
<svg width="306pt" height="106pt"
 viewBox="0.00 0.00 305.50 106.00" xmlns="http://www.w3.org/2000/svg" xmlns:xlink="http://www.w3.org/1999/xlink">
<g id="graph0" class="graph" transform="scale(1 1) rotate(0) translate(4 102)">
<title>mn::compressed_pair&lt; T, U, typename &gt;</title>
<polygon fill="white" stroke="transparent" points="-4,4 -4,-102 301.5,-102 301.5,4 -4,4"/>
<!-- Node1 -->
<g id="node1" class="node">
<title>Node1</title>
<g id="a_node1"><a xlink:title=" ">
<polygon fill="#bfbfbf" stroke="black" points="87.5,-0.5 87.5,-30.5 209.5,-30.5 209.5,-0.5 87.5,-0.5"/>
<text text-anchor="start" x="95.5" y="-18.5" font-family="Helvetica,sans-Serif" font-size="10.00">mn::compressed_pair</text>
<text text-anchor="middle" x="148.5" y="-7.5" font-family="Helvetica,sans-Serif" font-size="10.00">&lt; T, U, typename &gt;</text>
</a>
</g>
</g>
<!-- Node2 -->
<g id="node2" class="node">
<title>Node2</title>
<g id="a_node2"><a xlink:href="classmn_1_1ebo__storage.html" target="_top" xlink:title=" ">
<polygon fill="white" stroke="black" points="0,-78.5 0,-97.5 139,-97.5 139,-78.5 0,-78.5"/>
<text text-anchor="middle" x="69.5" y="-85.5" font-family="Helvetica,sans-Serif" font-size="10.00">mn::ebo_storage&lt; T, 0 &gt;</text>
</a>
</g>
</g>
<!-- Node2&#45;&gt;Node1 -->
<g id="edge1" class="edge">
<title>Node2&#45;&gt;Node1</title>
<path fill="none" stroke="#9a32cd" stroke-dasharray="5,2" d="M86.94,-71.44C100.62,-59.23 119.49,-42.39 132.73,-30.58"/>
<polygon fill="#9a32cd" stroke="#9a32cd" points="84.32,-69.09 79.19,-78.36 88.98,-74.31 84.32,-69.09"/>
<text text-anchor="middle" x="130" y="-52" font-family="Helvetica,sans-Serif" font-size="10.00"> m_first</text>
</g>
<!-- Node3 -->
<g id="node3" class="node">
<title>Node3</title>
<g id="a_node3"><a xlink:href="classmn_1_1ebo__storage.html" target="_top" xlink:title=" ">
<polygon fill="white" stroke="black" points="157.5,-78.5 157.5,-97.5 297.5,-97.5 297.5,-78.5 157.5,-78.5"/>
<text text-anchor="middle" x="227.5" y="-85.5" font-family="Helvetica,sans-Serif" font-size="10.00">mn::ebo_storage&lt; U, 1 &gt;</text>
</a>
</g>
</g>
<!-- Node3&#45;&gt;Node1 -->
<g id="edge2" class="edge">
<title>Node3&#45;&gt;Node1</title>
<path fill="none" stroke="#9a32cd" stroke-dasharray="5,2" d="M210.06,-71.44C196.38,-59.23 177.51,-42.39 164.27,-30.58"/>
<polygon fill="#9a32cd" stroke="#9a32cd" points="208.02,-74.31 217.81,-78.36 212.68,-69.09 208.02,-74.31"/>
<text text-anchor="middle" x="221" y="-52" font-family="Helvetica,sans-Serif" font-size="10.00"> m_second</text>
</g>
</g>
</svg>
