<?xml version="1.0" encoding="UTF-8" standalone="no"?>
<!DOCTYPE svg PUBLIC "-//W3C//DTD SVG 1.1//EN"
 "http://www.w3.org/Graphics/SVG/1.1/DTD/svg11.dtd">
<!-- Generated by graphviz version 2.44.1 (0)
 -->
<!-- Title: hello_world_task Pages: 1 -->
<svg width="379pt" height="301pt"
 viewBox="0.00 0.00 379.00 301.00" xmlns="http://www.w3.org/2000/svg" xmlns:xlink="http://www.w3.org/1999/xlink">
<g id="graph0" class="graph" transform="scale(1 1) rotate(0) translate(4 297)">
<title>hello_world_task</title>
<polygon fill="white" stroke="transparent" points="-4,4 -4,-297 375,-297 375,4 -4,4"/>
<!-- Node1 -->
<g id="node1" class="node">
<title>Node1</title>
<g id="a_node1"><a xlink:title=" ">
<polygon fill="#bfbfbf" stroke="black" points="145.5,-0.5 145.5,-19.5 244.5,-19.5 244.5,-0.5 145.5,-0.5"/>
<text text-anchor="middle" x="195" y="-7.5" font-family="Helvetica,sans-Serif" font-size="10.00">hello_world_task</text>
</a>
</g>
</g>
<!-- Node2 -->
<g id="node2" class="node">
<title>Node2</title>
<g id="a_node2"><a xlink:href="classbasic__task.html" target="_top" xlink:title=" ">
<polygon fill="white" stroke="black" points="161,-58.5 161,-77.5 229,-77.5 229,-58.5 161,-58.5"/>
<text text-anchor="middle" x="195" y="-65.5" font-family="Helvetica,sans-Serif" font-size="10.00">basic_task</text>
</a>
</g>
</g>
<!-- Node2&#45;&gt;Node1 -->
<g id="edge1" class="edge">
<title>Node2&#45;&gt;Node1</title>
<path fill="none" stroke="midnightblue" d="M195,-47.95C195,-38.29 195,-27.03 195,-19.51"/>
<polygon fill="midnightblue" stroke="midnightblue" points="191.5,-48.25 195,-58.25 198.5,-48.25 191.5,-48.25"/>
</g>
<!-- Node2&#45;&gt;Node2 -->
<g id="edge8" class="edge">
<title>Node2&#45;&gt;Node2</title>
<path fill="none" stroke="#9a32cd" stroke-dasharray="5,2" d="M239.15,-72.39C243.92,-71.55 247,-70.08 247,-68 247,-64.66 239.13,-62.92 229.01,-62.76"/>
<polygon fill="#9a32cd" stroke="#9a32cd" points="238.68,-68.92 229.01,-73.24 239.27,-75.89 238.68,-68.92"/>
<text text-anchor="middle" x="273" y="-71" font-family="Helvetica,sans-Serif" font-size="10.00"> m_pChild</text>
<text text-anchor="middle" x="273" y="-60" font-family="Helvetica,sans-Serif" font-size="10.00">m_pParent</text>
</g>
<!-- Node3 -->
<g id="node3" class="node">
<title>Node3</title>
<g id="a_node3"><a xlink:href="classbasic__event__group.html" target="_top" xlink:title=" ">
<polygon fill="white" stroke="black" points="0,-148.5 0,-167.5 108,-167.5 108,-148.5 0,-148.5"/>
<text text-anchor="middle" x="54" y="-155.5" font-family="Helvetica,sans-Serif" font-size="10.00">basic_event_group</text>
</a>
</g>
</g>
<!-- Node3&#45;&gt;Node2 -->
<g id="edge2" class="edge">
<title>Node3&#45;&gt;Node2</title>
<path fill="none" stroke="#9a32cd" stroke-dasharray="5,2" d="M74.9,-142.6C93.17,-130.16 120.52,-111.9 145,-97 156.22,-90.17 169.16,-82.94 179.07,-77.54"/>
<polygon fill="#9a32cd" stroke="#9a32cd" points="72.75,-139.83 66.47,-148.36 76.7,-145.6 72.75,-139.83"/>
<text text-anchor="middle" x="168" y="-111" font-family="Helvetica,sans-Serif" font-size="10.00"> m_event</text>
</g>
<!-- Node4 -->
<g id="node4" class="node">
<title>Node4</title>
<g id="a_node4"><a xlink:href="classbasic__binary__semaphore.html" target="_top" xlink:title=" ">
<polygon fill="white" stroke="black" points="126,-148.5 126,-167.5 264,-167.5 264,-148.5 126,-148.5"/>
<text text-anchor="middle" x="195" y="-155.5" font-family="Helvetica,sans-Serif" font-size="10.00">basic_binary_semaphore</text>
</a>
</g>
</g>
<!-- Node4&#45;&gt;Node2 -->
<g id="edge3" class="edge">
<title>Node4&#45;&gt;Node2</title>
<path fill="none" stroke="#9a32cd" stroke-dasharray="5,2" d="M195,-137.98C195,-119.31 195,-91.67 195,-77.72"/>
<polygon fill="#9a32cd" stroke="#9a32cd" points="191.5,-138.24 195,-148.24 198.5,-138.24 191.5,-138.24"/>
<text text-anchor="middle" x="240" y="-122" font-family="Helvetica,sans-Serif" font-size="10.00"> m_contextMutext</text>
<text text-anchor="middle" x="240" y="-111" font-family="Helvetica,sans-Serif" font-size="10.00">m_continuemutex</text>
<text text-anchor="middle" x="240" y="-100" font-family="Helvetica,sans-Serif" font-size="10.00">m_runningMutex</text>
</g>
<!-- Node5 -->
<g id="node5" class="node">
<title>Node5</title>
<g id="a_node5"><a xlink:href="classbasic__semaphore.html" target="_top" xlink:title=" ">
<polygon fill="white" stroke="black" points="144,-211 144,-230 246,-230 246,-211 144,-211"/>
<text text-anchor="middle" x="195" y="-218" font-family="Helvetica,sans-Serif" font-size="10.00">basic_semaphore</text>
</a>
</g>
</g>
<!-- Node5&#45;&gt;Node4 -->
<g id="edge4" class="edge">
<title>Node5&#45;&gt;Node4</title>
<path fill="none" stroke="midnightblue" d="M195,-200.5C195,-189.5 195,-176.18 195,-167.65"/>
<polygon fill="midnightblue" stroke="midnightblue" points="191.5,-200.83 195,-210.83 198.5,-200.83 191.5,-200.83"/>
</g>
<!-- Node6 -->
<g id="node6" class="node">
<title>Node6</title>
<g id="a_node6"><a xlink:href="class_i_lock_object.html" target="_top" xlink:title=" ">
<polygon fill="white" stroke="black" points="158,-273.5 158,-292.5 232,-292.5 232,-273.5 158,-273.5"/>
<text text-anchor="middle" x="195" y="-280.5" font-family="Helvetica,sans-Serif" font-size="10.00">ILockObject</text>
</a>
</g>
</g>
<!-- Node6&#45;&gt;Node5 -->
<g id="edge5" class="edge">
<title>Node6&#45;&gt;Node5</title>
<path fill="none" stroke="midnightblue" d="M195,-263C195,-252 195,-238.68 195,-230.15"/>
<polygon fill="midnightblue" stroke="midnightblue" points="191.5,-263.33 195,-273.33 198.5,-263.33 191.5,-263.33"/>
</g>
<!-- Node7 -->
<g id="node7" class="node">
<title>Node7</title>
<g id="a_node7"><a xlink:title="STL class.">
<polygon fill="white" stroke="#bfbfbf" points="283.5,-148.5 283.5,-167.5 348.5,-167.5 348.5,-148.5 283.5,-148.5"/>
<text text-anchor="middle" x="316" y="-155.5" font-family="Helvetica,sans-Serif" font-size="10.00">std::string</text>
</a>
</g>
</g>
<!-- Node7&#45;&gt;Node2 -->
<g id="edge6" class="edge">
<title>Node7&#45;&gt;Node2</title>
<path fill="none" stroke="#9a32cd" stroke-dasharray="5,2" d="M311.98,-138.31C308.2,-125.02 301.22,-107.69 289,-97 272.47,-82.54 248.73,-75.54 229.24,-72.16"/>
<polygon fill="#9a32cd" stroke="#9a32cd" points="308.65,-139.43 314.46,-148.29 315.45,-137.74 308.65,-139.43"/>
<text text-anchor="middle" x="340.5" y="-111" font-family="Helvetica,sans-Serif" font-size="10.00"> m_strName</text>
</g>
<!-- Node8 -->
<g id="node8" class="node">
<title>Node8</title>
<g id="a_node8"><a xlink:title="STL class.">
<polygon fill="white" stroke="#bfbfbf" points="264,-205.5 264,-235.5 368,-235.5 368,-205.5 264,-205.5"/>
<text text-anchor="start" x="272" y="-223.5" font-family="Helvetica,sans-Serif" font-size="10.00">std::basic_string&lt;</text>
<text text-anchor="middle" x="316" y="-212.5" font-family="Helvetica,sans-Serif" font-size="10.00"> char &gt;</text>
</a>
</g>
</g>
<!-- Node8&#45;&gt;Node7 -->
<g id="edge7" class="edge">
<title>Node8&#45;&gt;Node7</title>
<path fill="none" stroke="midnightblue" d="M316,-195.35C316,-185.51 316,-174.78 316,-167.54"/>
<polygon fill="midnightblue" stroke="midnightblue" points="312.5,-195.47 316,-205.47 319.5,-195.47 312.5,-195.47"/>
</g>
</g>
</svg>
