<?xml version="1.0" encoding="UTF-8" standalone="no"?>
<!DOCTYPE svg PUBLIC "-//W3C//DTD SVG 1.1//EN"
 "http://www.w3.org/Graphics/SVG/1.1/DTD/svg11.dtd">
<!-- Generated by graphviz version 2.46.0 (0)
 -->
<!-- Title: mn::net::basic_ip6_socket Pages: 1 -->
<svg width="297pt" height="253pt"
 viewBox="0.00 0.00 297.00 253.00" xmlns="http://www.w3.org/2000/svg" xmlns:xlink="http://www.w3.org/1999/xlink">
<g id="graph0" class="graph" transform="scale(1 1) rotate(0) translate(4 249)">
<title>mn::net::basic_ip6_socket</title>
<polygon fill="white" stroke="transparent" points="-4,4 -4,-249 293,-249 293,4 -4,4"/>
<!-- Node1 -->
<g id="node1" class="node">
<title>Node1</title>
<g id="a_node1"><a xlink:title="This class represents an internet (IP) version 6 host socket.">
<polygon fill="#bfbfbf" stroke="black" points="31.5,-0.5 31.5,-30.5 137.5,-30.5 137.5,-0.5 31.5,-0.5"/>
<text text-anchor="start" x="39.5" y="-18.5" font-family="Helvetica,sans-Serif" font-size="10.00">mn::net::basic_ip6</text>
<text text-anchor="middle" x="84.5" y="-7.5" font-family="Helvetica,sans-Serif" font-size="10.00">_socket</text>
</a>
</g>
</g>
<!-- Node2 -->
<g id="node2" class="node">
<title>Node2</title>
<g id="a_node2"><a xlink:href="classmn_1_1net_1_1basic__ip__socket.html" target="_top" xlink:title="Wrapper class around lwip implementation of a socket.">
<polygon fill="white" stroke="black" points="0,-84 0,-103 137,-103 137,-84 0,-84"/>
<text text-anchor="middle" x="68.5" y="-91" font-family="Helvetica,sans-Serif" font-size="10.00">mn::net::basic_ip_socket</text>
</a>
</g>
</g>
<!-- Node2&#45;&gt;Node1 -->
<g id="edge1" class="edge">
<title>Node2&#45;&gt;Node1</title>
<path fill="none" stroke="midnightblue" d="M72.44,-73.78C75.26,-60.4 78.99,-42.69 81.55,-30.52"/>
<polygon fill="midnightblue" stroke="midnightblue" points="68.97,-73.28 70.34,-83.78 75.82,-74.72 68.97,-73.28"/>
</g>
<!-- Node3 -->
<g id="node3" class="node">
<title>Node3</title>
<g id="a_node3"><a xlink:href="classmn_1_1net_1_1basic__ip6__endpoint.html" target="_top" xlink:title="This class represents an IPv6 endpoint/socket address.">
<polygon fill="white" stroke="black" points="155.5,-78.5 155.5,-108.5 261.5,-108.5 261.5,-78.5 155.5,-78.5"/>
<text text-anchor="start" x="163.5" y="-96.5" font-family="Helvetica,sans-Serif" font-size="10.00">mn::net::basic_ip6</text>
<text text-anchor="middle" x="208.5" y="-85.5" font-family="Helvetica,sans-Serif" font-size="10.00">_endpoint</text>
</a>
</g>
</g>
<!-- Node3&#45;&gt;Node1 -->
<g id="edge2" class="edge">
<title>Node3&#45;&gt;Node1</title>
<path fill="none" stroke="#9a32cd" stroke-dasharray="5,2" d="M176.92,-73.14C155.23,-59.85 126.95,-42.52 107.41,-30.54"/>
<polygon fill="#9a32cd" stroke="#9a32cd" points="175.11,-76.14 185.47,-78.38 178.77,-70.17 175.11,-76.14"/>
<text text-anchor="middle" x="187" y="-52" font-family="Helvetica,sans-Serif" font-size="10.00"> m_pEndPoint</text>
</g>
<!-- Node4 -->
<g id="node4" class="node">
<title>Node4</title>
<g id="a_node4"><a xlink:href="classmn_1_1net_1_1basic__ip__endpoint.html" target="_top" xlink:title=" ">
<polygon fill="white" stroke="black" points="128,-146.5 128,-187.5 289,-187.5 289,-146.5 128,-146.5"/>
<text text-anchor="start" x="136" y="-175.5" font-family="Helvetica,sans-Serif" font-size="10.00">mn::net::basic_ip_endpoint</text>
<text text-anchor="start" x="136" y="-164.5" font-family="Helvetica,sans-Serif" font-size="10.00">&lt; basic_ip6_address, address</text>
<text text-anchor="middle" x="208.5" y="-153.5" font-family="Helvetica,sans-Serif" font-size="10.00">_family::inet_v6 &gt;</text>
</a>
</g>
</g>
<!-- Node4&#45;&gt;Node3 -->
<g id="edge3" class="edge">
<title>Node4&#45;&gt;Node3</title>
<path fill="none" stroke="midnightblue" d="M208.5,-136.16C208.5,-126.69 208.5,-116.65 208.5,-108.8"/>
<polygon fill="midnightblue" stroke="midnightblue" points="205,-136.46 208.5,-146.46 212,-136.46 205,-136.46"/>
</g>
<!-- Node5 -->
<g id="node5" class="node">
<title>Node5</title>
<g id="a_node5"><a xlink:href="classmn_1_1net_1_1basic__endpoint.html" target="_top" xlink:title="This abstract basic class represents an endpoint/socket address.">
<polygon fill="white" stroke="black" points="141.5,-225.5 141.5,-244.5 275.5,-244.5 275.5,-225.5 141.5,-225.5"/>
<text text-anchor="middle" x="208.5" y="-232.5" font-family="Helvetica,sans-Serif" font-size="10.00">mn::net::basic_endpoint</text>
</a>
</g>
</g>
<!-- Node5&#45;&gt;Node4 -->
<g id="edge4" class="edge">
<title>Node5&#45;&gt;Node4</title>
<path fill="none" stroke="midnightblue" d="M208.5,-215.25C208.5,-206.65 208.5,-196.45 208.5,-187.74"/>
<polygon fill="midnightblue" stroke="midnightblue" points="205,-215.37 208.5,-225.37 212,-215.37 205,-215.37"/>
</g>
</g>
</svg>
