<?xml version="1.0" encoding="UTF-8" standalone="no"?>
<!DOCTYPE svg PUBLIC "-//W3C//DTD SVG 1.1//EN"
 "http://www.w3.org/Graphics/SVG/1.1/DTD/svg11.dtd">
<!-- Generated by graphviz version 2.47.3 (0)
 -->
<!-- Title: mn::net::basic_wifi_ap Pages: 1 -->
<svg width="286pt" height="220pt"
 viewBox="0.00 0.00 285.50 220.00" xmlns="http://www.w3.org/2000/svg" xmlns:xlink="http://www.w3.org/1999/xlink">
<g id="graph0" class="graph" transform="scale(1 1) rotate(0) translate(4 216)">
<title>mn::net::basic_wifi_ap</title>
<polygon fill="white" stroke="transparent" points="-4,4 -4,-216 281.5,-216 281.5,4 -4,4"/>
<!-- Node1 -->
<g id="node1" class="node">
<title>Node1</title>
<g id="a_node1"><a xlink:title="Wifi AP class for the esp32.">
<polygon fill="#bfbfbf" stroke="black" points="68,-0.5 68,-19.5 193,-19.5 193,-0.5 68,-0.5"/>
<text text-anchor="middle" x="130.5" y="-7.5" font-family="Helvetica,sans-Serif" font-size="10.00">mn::net::basic_wifi_ap</text>
</a>
</g>
</g>
<!-- Node2 -->
<g id="node2" class="node">
<title>Node2</title>
<g id="a_node2"><a xlink:href="classmn_1_1net_1_1basic__wifi.html" target="_top" xlink:title="A basic class for wifi.">
<polygon fill="white" stroke="black" points="76.5,-57.5 76.5,-76.5 184.5,-76.5 184.5,-57.5 76.5,-57.5"/>
<text text-anchor="middle" x="130.5" y="-64.5" font-family="Helvetica,sans-Serif" font-size="10.00">mn::net::basic_wifi</text>
</a>
</g>
</g>
<!-- Node2&#45;&gt;Node1 -->
<g id="edge1" class="edge">
<title>Node2&#45;&gt;Node1</title>
<path fill="none" stroke="midnightblue" d="M130.5,-47.12C130.5,-37.82 130.5,-27.06 130.5,-19.71"/>
<polygon fill="midnightblue" stroke="midnightblue" points="127,-47.41 130.5,-57.41 134,-47.41 127,-47.41"/>
</g>
<!-- Node3 -->
<g id="node3" class="node">
<title>Node3</title>
<g id="a_node3"><a xlink:href="classmn_1_1net_1_1basic__wifi__net__if.html" target="_top" xlink:title="Wrapper basic WiFi class around esp&#45;idf implementation of a esp&#45;netif device.">
<polygon fill="white" stroke="black" points="8.5,-124.5 8.5,-154.5 116.5,-154.5 116.5,-124.5 8.5,-124.5"/>
<text text-anchor="start" x="16.5" y="-142.5" font-family="Helvetica,sans-Serif" font-size="10.00">mn::net::basic_wifi</text>
<text text-anchor="middle" x="62.5" y="-131.5" font-family="Helvetica,sans-Serif" font-size="10.00">_net_if</text>
</a>
</g>
</g>
<!-- Node3&#45;&gt;Node2 -->
<g id="edge2" class="edge">
<title>Node3&#45;&gt;Node2</title>
<path fill="none" stroke="midnightblue" d="M83.47,-116.76C96.41,-103.34 112.32,-86.85 121.92,-76.89"/>
<polygon fill="midnightblue" stroke="midnightblue" points="80.68,-114.61 76.26,-124.23 85.72,-119.47 80.68,-114.61"/>
</g>
<!-- Node4 -->
<g id="node4" class="node">
<title>Node4</title>
<g id="a_node4"><a xlink:href="classmn_1_1net_1_1basic__net__if.html" target="_top" xlink:title="Wrapper class around esp&#45;idf implementation of a esp&#45;netif device.">
<polygon fill="white" stroke="black" points="0,-192.5 0,-211.5 119,-211.5 119,-192.5 0,-192.5"/>
<text text-anchor="middle" x="59.5" y="-199.5" font-family="Helvetica,sans-Serif" font-size="10.00">mn::net::basic_net_if</text>
</a>
</g>
</g>
<!-- Node4&#45;&gt;Node3 -->
<g id="edge3" class="edge">
<title>Node4&#45;&gt;Node3</title>
<path fill="none" stroke="midnightblue" d="M60.43,-182.22C60.87,-173.36 61.39,-162.96 61.79,-154.76"/>
<polygon fill="midnightblue" stroke="midnightblue" points="56.93,-182.17 59.93,-192.33 63.92,-182.52 56.93,-182.17"/>
</g>
<!-- Node5 -->
<g id="node5" class="node">
<title>Node5</title>
<g id="a_node5"><a xlink:href="classmn_1_1basic__event__group.html" target="_top" xlink:title="Wrapper class around FreeRTOS&#39;s implementation of a event_group.">
<polygon fill="white" stroke="black" points="139.5,-130 139.5,-149 269.5,-149 269.5,-130 139.5,-130"/>
<text text-anchor="middle" x="204.5" y="-137" font-family="Helvetica,sans-Serif" font-size="10.00">mn::basic_event_group</text>
</a>
</g>
</g>
<!-- Node5&#45;&gt;Node2 -->
<g id="edge4" class="edge">
<title>Node5&#45;&gt;Node2</title>
<path fill="none" stroke="#9a32cd" stroke-dasharray="5,2" d="M187.91,-122.69C173,-108.49 151.67,-88.17 139.65,-76.72"/>
<polygon fill="#9a32cd" stroke="#9a32cd" points="185.77,-125.49 195.43,-129.86 190.6,-120.42 185.77,-125.49"/>
<text text-anchor="middle" x="197.5" y="-98" font-family="Helvetica,sans-Serif" font-size="10.00"> m_eGroup</text>
</g>
<!-- Node6 -->
<g id="node6" class="node">
<title>Node6</title>
<g id="a_node6"><a xlink:title=" ">
<polygon fill="white" stroke="#bfbfbf" points="137.5,-192.5 137.5,-211.5 277.5,-211.5 277.5,-192.5 137.5,-192.5"/>
<text text-anchor="middle" x="207.5" y="-199.5" font-family="Helvetica,sans-Serif" font-size="10.00">MN_ONCOPYABLE_CLASS</text>
</a>
</g>
</g>
<!-- Node6&#45;&gt;Node5 -->
<g id="edge5" class="edge">
<title>Node6&#45;&gt;Node5</title>
<path fill="none" stroke="#8b1a1a" d="M206.56,-182C206.01,-171 205.35,-157.68 204.93,-149.15"/>
<polygon fill="#8b1a1a" stroke="#8b1a1a" points="203.08,-182.52 207.07,-192.33 210.07,-182.17 203.08,-182.52"/>
</g>
</g>
</svg>
