<?xml version="1.0" encoding="UTF-8" standalone="no"?>
<!DOCTYPE svg PUBLIC "-//W3C//DTD SVG 1.1//EN"
 "http://www.w3.org/Graphics/SVG/1.1/DTD/svg11.dtd">
<!-- Generated by graphviz version 2.46.0 (0)
 -->
<!-- Title: test_tasklet_task Pages: 1 -->
<svg width="401pt" height="379pt"
 viewBox="0.00 0.00 400.50 379.00" xmlns="http://www.w3.org/2000/svg" xmlns:xlink="http://www.w3.org/1999/xlink">
<g id="graph0" class="graph" transform="scale(1 1) rotate(0) translate(4 375)">
<title>test_tasklet_task</title>
<polygon fill="white" stroke="transparent" points="-4,4 -4,-375 396.5,-375 396.5,4 -4,4"/>
<!-- Node1 -->
<g id="node1" class="node">
<title>Node1</title>
<g id="a_node1"><a xlink:title=" ">
<polygon fill="#bfbfbf" stroke="black" points="104,-0.5 104,-19.5 205,-19.5 205,-0.5 104,-0.5"/>
<text text-anchor="middle" x="154.5" y="-7.5" font-family="Helvetica,sans-Serif" font-size="10.00">test_tasklet_task</text>
</a>
</g>
</g>
<!-- Node2 -->
<g id="node2" class="node">
<title>Node2</title>
<g id="a_node2"><a xlink:href="classmn_1_1basic__task.html" target="_top" xlink:title="Wrapper class around FreeRTOS&#39;s implementation of a task.">
<polygon fill="white" stroke="black" points="164.5,-125.5 164.5,-144.5 254.5,-144.5 254.5,-125.5 164.5,-125.5"/>
<text text-anchor="middle" x="209.5" y="-132.5" font-family="Helvetica,sans-Serif" font-size="10.00">mn::basic_task</text>
</a>
</g>
</g>
<!-- Node2&#45;&gt;Node1 -->
<g id="edge1" class="edge">
<title>Node2&#45;&gt;Node1</title>
<path fill="none" stroke="midnightblue" d="M205.87,-115.29C201.45,-95.23 192.74,-62.9 178.5,-38 174.64,-31.25 168.89,-24.7 163.98,-19.75"/>
<polygon fill="midnightblue" stroke="midnightblue" points="202.49,-116.21 207.95,-125.3 209.34,-114.79 202.49,-116.21"/>
</g>
<!-- Node2&#45;&gt;Node2 -->
<g id="edge2" class="edge">
<title>Node2&#45;&gt;Node2</title>
<path fill="none" stroke="#9a32cd" stroke-dasharray="5,2" d="M264.76,-139.1C269.53,-138.23 272.5,-136.86 272.5,-135 272.5,-132.02 264.89,-130.31 254.52,-129.87"/>
<polygon fill="#9a32cd" stroke="#9a32cd" points="264.12,-135.65 254.52,-140.13 264.82,-142.61 264.12,-135.65"/>
<text text-anchor="middle" x="298.5" y="-138" font-family="Helvetica,sans-Serif" font-size="10.00"> m_pChild</text>
<text text-anchor="middle" x="298.5" y="-127" font-family="Helvetica,sans-Serif" font-size="10.00">m_pParent</text>
</g>
<!-- Node3 -->
<g id="node3" class="node">
<title>Node3</title>
<g id="a_node3"><a xlink:href="classmn_1_1basic__binary__semaphore.html" target="_top" xlink:title=" ">
<polygon fill="white" stroke="black" points="129.5,-221 129.5,-240 289.5,-240 289.5,-221 129.5,-221"/>
<text text-anchor="middle" x="209.5" y="-228" font-family="Helvetica,sans-Serif" font-size="10.00">mn::basic_binary_semaphore</text>
</a>
</g>
</g>
<!-- Node3&#45;&gt;Node2 -->
<g id="edge3" class="edge">
<title>Node3&#45;&gt;Node2</title>
<path fill="none" stroke="#9a32cd" stroke-dasharray="5,2" d="M209.5,-210.74C209.5,-190.62 209.5,-159.55 209.5,-144.61"/>
<polygon fill="#9a32cd" stroke="#9a32cd" points="206,-210.87 209.5,-220.87 213,-210.87 206,-210.87"/>
<text text-anchor="middle" x="254.5" y="-189" font-family="Helvetica,sans-Serif" font-size="10.00"> m_contextMutext</text>
<text text-anchor="middle" x="254.5" y="-178" font-family="Helvetica,sans-Serif" font-size="10.00">m_continuemutex</text>
<text text-anchor="middle" x="254.5" y="-167" font-family="Helvetica,sans-Serif" font-size="10.00">m_runningMutex</text>
</g>
<!-- Node4 -->
<g id="node4" class="node">
<title>Node4</title>
<g id="a_node4"><a xlink:href="classmn_1_1basic__semaphore.html" target="_top" xlink:title=" ">
<polygon fill="white" stroke="black" points="102.5,-289 102.5,-308 226.5,-308 226.5,-289 102.5,-289"/>
<text text-anchor="middle" x="164.5" y="-296" font-family="Helvetica,sans-Serif" font-size="10.00">mn::basic_semaphore</text>
</a>
</g>
</g>
<!-- Node4&#45;&gt;Node3 -->
<g id="edge4" class="edge">
<title>Node4&#45;&gt;Node3</title>
<path fill="none" stroke="midnightblue" d="M176.13,-280.44C184.88,-267.61 196.51,-250.56 203.47,-240.34"/>
<polygon fill="midnightblue" stroke="midnightblue" points="173.12,-278.64 170.38,-288.87 178.91,-282.58 173.12,-278.64"/>
</g>
<!-- Node10 -->
<g id="node10" class="node">
<title>Node10</title>
<g id="a_node10"><a xlink:href="classmn_1_1basic__counting__semaphore.html" target="_top" xlink:title=" ">
<polygon fill="white" stroke="black" points="0,-215.5 0,-245.5 111,-245.5 111,-215.5 0,-215.5"/>
<text text-anchor="start" x="8" y="-233.5" font-family="Helvetica,sans-Serif" font-size="10.00">mn::basic_counting</text>
<text text-anchor="middle" x="55.5" y="-222.5" font-family="Helvetica,sans-Serif" font-size="10.00">_semaphore</text>
</a>
</g>
</g>
<!-- Node4&#45;&gt;Node10 -->
<g id="edge11" class="edge">
<title>Node4&#45;&gt;Node10</title>
<path fill="none" stroke="midnightblue" d="M141.62,-283.65C123.22,-272.51 97.47,-256.91 78.92,-245.68"/>
<polygon fill="midnightblue" stroke="midnightblue" points="139.88,-286.69 150.25,-288.87 143.51,-280.7 139.88,-286.69"/>
</g>
<!-- Node5 -->
<g id="node5" class="node">
<title>Node5</title>
<g id="a_node5"><a xlink:href="classmn_1_1_i_lock_object.html" target="_top" xlink:title=" ">
<polygon fill="white" stroke="black" points="117,-351.5 117,-370.5 212,-370.5 212,-351.5 117,-351.5"/>
<text text-anchor="middle" x="164.5" y="-358.5" font-family="Helvetica,sans-Serif" font-size="10.00">mn::ILockObject</text>
</a>
</g>
</g>
<!-- Node5&#45;&gt;Node4 -->
<g id="edge5" class="edge">
<title>Node5&#45;&gt;Node4</title>
<path fill="none" stroke="midnightblue" d="M164.5,-341C164.5,-330 164.5,-316.68 164.5,-308.15"/>
<polygon fill="midnightblue" stroke="midnightblue" points="161,-341.33 164.5,-351.33 168,-341.33 161,-341.33"/>
</g>
<!-- Node6 -->
<g id="node6" class="node">
<title>Node6</title>
<g id="a_node6"><a xlink:title=" ">
<polygon fill="white" stroke="#bfbfbf" points="308,-221 308,-240 373,-240 373,-221 308,-221"/>
<text text-anchor="middle" x="340.5" y="-228" font-family="Helvetica,sans-Serif" font-size="10.00">std::string</text>
</a>
</g>
</g>
<!-- Node6&#45;&gt;Node2 -->
<g id="edge6" class="edge">
<title>Node6&#45;&gt;Node2</title>
<path fill="none" stroke="#9a32cd" stroke-dasharray="5,2" d="M334.56,-211.29C328.84,-196.51 318.78,-176.19 303.5,-164 289.65,-152.96 271.54,-146.27 254.92,-142.22"/>
<polygon fill="#9a32cd" stroke="#9a32cd" points="331.33,-212.63 337.97,-220.88 337.92,-210.29 331.33,-212.63"/>
<text text-anchor="middle" x="359" y="-178" font-family="Helvetica,sans-Serif" font-size="10.00"> m_strName</text>
</g>
<!-- Node7 -->
<g id="node7" class="node">
<title>Node7</title>
<g id="a_node7"><a xlink:title=" ">
<polygon fill="white" stroke="#bfbfbf" points="288.5,-283.5 288.5,-313.5 392.5,-313.5 392.5,-283.5 288.5,-283.5"/>
<text text-anchor="start" x="296.5" y="-301.5" font-family="Helvetica,sans-Serif" font-size="10.00">std::basic_string&lt;</text>
<text text-anchor="middle" x="340.5" y="-290.5" font-family="Helvetica,sans-Serif" font-size="10.00"> Char &gt;</text>
</a>
</g>
</g>
<!-- Node7&#45;&gt;Node6 -->
<g id="edge7" class="edge">
<title>Node7&#45;&gt;Node6</title>
<path fill="none" stroke="midnightblue" d="M340.5,-272.88C340.5,-261.47 340.5,-248.64 340.5,-240.33"/>
<polygon fill="midnightblue" stroke="midnightblue" points="337,-273.18 340.5,-283.18 344,-273.18 337,-273.18"/>
</g>
<!-- Node8 -->
<g id="node8" class="node">
<title>Node8</title>
<g id="a_node8"><a xlink:href="classtest__tasklet.html" target="_top" xlink:title=" ">
<polygon fill="white" stroke="black" points="78.5,-67.5 78.5,-86.5 152.5,-86.5 152.5,-67.5 78.5,-67.5"/>
<text text-anchor="middle" x="115.5" y="-74.5" font-family="Helvetica,sans-Serif" font-size="10.00">test_tasklet</text>
</a>
</g>
</g>
<!-- Node8&#45;&gt;Node1 -->
<g id="edge8" class="edge">
<title>Node8&#45;&gt;Node1</title>
<path fill="none" stroke="#9a32cd" stroke-dasharray="5,2" d="M114.57,-56.83C115.01,-50.5 116.35,-43.65 119.5,-38 123.77,-30.36 131.17,-24.17 138.08,-19.66"/>
<polygon fill="#9a32cd" stroke="#9a32cd" points="111.07,-57.26 114.54,-67.27 118.07,-57.28 111.07,-57.26"/>
<text text-anchor="middle" x="149" y="-41" font-family="Helvetica,sans-Serif" font-size="10.00"> m_testTask</text>
</g>
<!-- Node9 -->
<g id="node9" class="node">
<title>Node9</title>
<g id="a_node9"><a xlink:href="classmn_1_1basic__tasklet.html" target="_top" xlink:title=" ">
<polygon fill="white" stroke="black" points="72,-125.5 72,-144.5 131,-144.5 131,-125.5 72,-125.5"/>
<text text-anchor="middle" x="101.5" y="-132.5" font-family="Helvetica,sans-Serif" font-size="10.00">tasklet_t</text>
</a>
</g>
</g>
<!-- Node9&#45;&gt;Node8 -->
<g id="edge9" class="edge">
<title>Node9&#45;&gt;Node8</title>
<path fill="none" stroke="midnightblue" d="M106.18,-115.27C108.62,-105.53 111.47,-94.11 113.37,-86.51"/>
<polygon fill="midnightblue" stroke="midnightblue" points="102.72,-114.7 103.69,-125.25 109.51,-116.4 102.72,-114.7"/>
</g>
<!-- Node10&#45;&gt;Node9 -->
<g id="edge10" class="edge">
<title>Node10&#45;&gt;Node9</title>
<path fill="none" stroke="#9a32cd" stroke-dasharray="5,2" d="M66.95,-206.22C76.77,-186.26 90.38,-158.61 97.21,-144.71"/>
<polygon fill="#9a32cd" stroke="#9a32cd" points="63.76,-204.78 62.49,-215.3 70.04,-207.87 63.76,-204.78"/>
<text text-anchor="middle" x="113.5" y="-178" font-family="Helvetica,sans-Serif" font-size="10.00"> m_ssLock</text>
</g>
</g>
</svg>
