<?xml version="1.0" encoding="UTF-8" standalone="no"?>
<!DOCTYPE svg PUBLIC "-//W3C//DTD SVG 1.1//EN"
 "http://www.w3.org/Graphics/SVG/1.1/DTD/svg11.dtd">
<!-- Generated by graphviz version 2.47.1 (0)
 -->
<!-- Title: mn::ext::foreign_task Pages: 1 -->
<svg width="353pt" height="356pt"
 viewBox="0.00 0.00 352.50 356.00" xmlns="http://www.w3.org/2000/svg" xmlns:xlink="http://www.w3.org/1999/xlink">
<g id="graph0" class="graph" transform="scale(1 1) rotate(0) translate(4 352)">
<title>mn::ext::foreign_task</title>
<polygon fill="white" stroke="transparent" points="-4,4 -4,-352 348.5,-352 348.5,4 -4,4"/>
<!-- Node1 -->
<g id="node1" class="node">
<title>Node1</title>
<g id="a_node1"><a xlink:title=" ">
<polygon fill="#bfbfbf" stroke="black" points="101,-0.5 101,-19.5 222,-19.5 222,-0.5 101,-0.5"/>
<text text-anchor="middle" x="161.5" y="-7.5" font-family="Helvetica,sans-Serif" font-size="10.00">mn::ext::foreign_task</text>
</a>
</g>
</g>
<!-- Node2 -->
<g id="node2" class="node">
<title>Node2</title>
<g id="a_node2"><a xlink:href="classmn_1_1basic__task.html" target="_top" xlink:title="Wrapper class around FreeRTOS&#39;s implementation of a task.">
<polygon fill="white" stroke="black" points="116.5,-57.5 116.5,-76.5 206.5,-76.5 206.5,-57.5 116.5,-57.5"/>
<text text-anchor="middle" x="161.5" y="-64.5" font-family="Helvetica,sans-Serif" font-size="10.00">mn::basic_task</text>
</a>
</g>
</g>
<!-- Node2&#45;&gt;Node1 -->
<g id="edge1" class="edge">
<title>Node2&#45;&gt;Node1</title>
<path fill="none" stroke="midnightblue" d="M161.5,-47.12C161.5,-37.82 161.5,-27.06 161.5,-19.71"/>
<polygon fill="midnightblue" stroke="midnightblue" points="158,-47.41 161.5,-57.41 165,-47.41 158,-47.41"/>
</g>
<!-- Node3 -->
<g id="node3" class="node">
<title>Node3</title>
<g id="a_node3"><a xlink:title=" ">
<polygon fill="white" stroke="#bfbfbf" points="0,-328.5 0,-347.5 131,-347.5 131,-328.5 0,-328.5"/>
<text text-anchor="middle" x="65.5" y="-335.5" font-family="Helvetica,sans-Serif" font-size="10.00">MN_ONSIGLETN_CLASS</text>
</a>
</g>
</g>
<!-- Node3&#45;&gt;Node2 -->
<g id="edge2" class="edge">
<title>Node3&#45;&gt;Node2</title>
<path fill="none" stroke="#8b1a1a" d="M59.37,-318.43C56.41,-307.87 53.5,-294.33 53.5,-282 53.5,-282 53.5,-282 53.5,-155 53.5,-113.59 102.25,-88.55 134.25,-76.58"/>
<polygon fill="#8b1a1a" stroke="#8b1a1a" points="56.08,-319.63 62.35,-328.17 62.78,-317.59 56.08,-319.63"/>
</g>
<!-- Node6 -->
<g id="node6" class="node">
<title>Node6</title>
<g id="a_node6"><a xlink:href="classmn_1_1ILockObject.html" target="_top" xlink:title=" ">
<polygon fill="white" stroke="black" points="97,-271.5 97,-290.5 192,-290.5 192,-271.5 97,-271.5"/>
<text text-anchor="middle" x="144.5" y="-278.5" font-family="Helvetica,sans-Serif" font-size="10.00">mn::ILockObject</text>
</a>
</g>
</g>
<!-- Node3&#45;&gt;Node6 -->
<g id="edge6" class="edge">
<title>Node3&#45;&gt;Node6</title>
<path fill="none" stroke="#8b1a1a" d="M86.27,-322.54C100.9,-312.35 119.98,-299.07 132.24,-290.53"/>
<polygon fill="#8b1a1a" stroke="#8b1a1a" points="84.05,-319.82 77.84,-328.41 88.05,-325.56 84.05,-319.82"/>
</g>
<!-- Node4 -->
<g id="node4" class="node">
<title>Node4</title>
<g id="a_node4"><a xlink:href="classmn_1_1basic__binary__semaphore.html" target="_top" xlink:title=" ">
<polygon fill="white" stroke="black" points="81.5,-146.5 81.5,-165.5 241.5,-165.5 241.5,-146.5 81.5,-146.5"/>
<text text-anchor="middle" x="161.5" y="-153.5" font-family="Helvetica,sans-Serif" font-size="10.00">mn::basic_binary_semaphore</text>
</a>
</g>
</g>
<!-- Node4&#45;&gt;Node2 -->
<g id="edge3" class="edge">
<title>Node4&#45;&gt;Node2</title>
<path fill="none" stroke="#9a32cd" stroke-dasharray="5,2" d="M161.5,-136.19C161.5,-117.74 161.5,-90.41 161.5,-76.62"/>
<polygon fill="#9a32cd" stroke="#9a32cd" points="158,-136.34 161.5,-146.34 165,-136.34 158,-136.34"/>
<text text-anchor="middle" x="206.5" y="-120" font-family="Helvetica,sans-Serif" font-size="10.00"> m_contextMutext</text>
<text text-anchor="middle" x="206.5" y="-109" font-family="Helvetica,sans-Serif" font-size="10.00">m_continuemutex</text>
<text text-anchor="middle" x="206.5" y="-98" font-family="Helvetica,sans-Serif" font-size="10.00">m_runningMutex</text>
</g>
<!-- Node5 -->
<g id="node5" class="node">
<title>Node5</title>
<g id="a_node5"><a xlink:href="classmn_1_1basic__semaphore.html" target="_top" xlink:title=" ">
<polygon fill="white" stroke="black" points="90.5,-209 90.5,-228 214.5,-228 214.5,-209 90.5,-209"/>
<text text-anchor="middle" x="152.5" y="-216" font-family="Helvetica,sans-Serif" font-size="10.00">mn::basic_semaphore</text>
</a>
</g>
</g>
<!-- Node5&#45;&gt;Node4 -->
<g id="edge4" class="edge">
<title>Node5&#45;&gt;Node4</title>
<path fill="none" stroke="midnightblue" d="M155.27,-198.85C156.92,-187.78 158.93,-174.27 160.21,-165.65"/>
<polygon fill="midnightblue" stroke="midnightblue" points="151.8,-198.43 153.79,-208.83 158.72,-199.46 151.8,-198.43"/>
</g>
<!-- Node6&#45;&gt;Node5 -->
<g id="edge5" class="edge">
<title>Node6&#45;&gt;Node5</title>
<path fill="none" stroke="midnightblue" d="M146.97,-261.35C148.43,-250.28 150.22,-236.77 151.36,-228.15"/>
<polygon fill="midnightblue" stroke="midnightblue" points="143.49,-260.96 145.65,-271.33 150.43,-261.88 143.49,-260.96"/>
</g>
<!-- Node7 -->
<g id="node7" class="node">
<title>Node7</title>
<g id="a_node7"><a xlink:title=" ">
<polygon fill="white" stroke="#bfbfbf" points="260,-146.5 260,-165.5 325,-165.5 325,-146.5 260,-146.5"/>
<text text-anchor="middle" x="292.5" y="-153.5" font-family="Helvetica,sans-Serif" font-size="10.00">std::string</text>
</a>
</g>
</g>
<!-- Node7&#45;&gt;Node2 -->
<g id="edge7" class="edge">
<title>Node7&#45;&gt;Node2</title>
<path fill="none" stroke="#9a32cd" stroke-dasharray="5,2" d="M285.46,-136.6C279.44,-123.21 269.5,-105.62 255.5,-95 241.43,-84.33 223.28,-77.87 206.68,-73.97"/>
<polygon fill="#9a32cd" stroke="#9a32cd" points="282.39,-138.34 289.46,-146.23 288.86,-135.65 282.39,-138.34"/>
<text text-anchor="middle" x="312" y="-109" font-family="Helvetica,sans-Serif" font-size="10.00"> m_strName</text>
</g>
<!-- Node8 -->
<g id="node8" class="node">
<title>Node8</title>
<g id="a_node8"><a xlink:title=" ">
<polygon fill="white" stroke="#bfbfbf" points="240.5,-203.5 240.5,-233.5 344.5,-233.5 344.5,-203.5 240.5,-203.5"/>
<text text-anchor="start" x="248.5" y="-221.5" font-family="Helvetica,sans-Serif" font-size="10.00">std::basic_string&lt;</text>
<text text-anchor="middle" x="292.5" y="-210.5" font-family="Helvetica,sans-Serif" font-size="10.00"> Char &gt;</text>
</a>
</g>
</g>
<!-- Node8&#45;&gt;Node7 -->
<g id="edge8" class="edge">
<title>Node8&#45;&gt;Node7</title>
<path fill="none" stroke="midnightblue" d="M292.5,-193.35C292.5,-183.51 292.5,-172.78 292.5,-165.54"/>
<polygon fill="midnightblue" stroke="midnightblue" points="289,-193.47 292.5,-203.47 296,-193.47 289,-193.47"/>
</g>
</g>
</svg>
