<?xml version="1.0" encoding="UTF-8" standalone="no"?>
<!DOCTYPE svg PUBLIC "-//W3C//DTD SVG 1.1//EN"
 "http://www.w3.org/Graphics/SVG/1.1/DTD/svg11.dtd">
<!-- Generated by graphviz version 2.46.0 (0)
 -->
<!-- Title: basic_mempool_vector&lt; TType, nElements, TALLOCATOR &gt; Pages: 1 -->
<svg width="289pt" height="184pt"
 viewBox="0.00 0.00 289.00 184.00" xmlns="http://www.w3.org/2000/svg" xmlns:xlink="http://www.w3.org/1999/xlink">
<g id="graph0" class="graph" transform="scale(1 1) rotate(0) translate(4 180)">
<title>basic_mempool_vector&lt; TType, nElements, TALLOCATOR &gt;</title>
<polygon fill="white" stroke="transparent" points="-4,4 -4,-180 285,-180 285,4 -4,4"/>
<!-- Node1 -->
<g id="node1" class="node">
<title>Node1</title>
<g id="a_node1"><a xlink:title=" ">
<polygon fill="#bfbfbf" stroke="black" points="76.5,-0.5 76.5,-30.5 270.5,-30.5 270.5,-0.5 76.5,-0.5"/>
<text text-anchor="start" x="84.5" y="-18.5" font-family="Helvetica,sans-Serif" font-size="10.00">basic_mempool_vector</text>
<text text-anchor="middle" x="173.5" y="-7.5" font-family="Helvetica,sans-Serif" font-size="10.00">&lt; TType, nElements, TALLOCATOR &gt;</text>
</a>
</g>
</g>
<!-- Node2 -->
<g id="node2" class="node">
<title>Node2</title>
<g id="a_node2"><a xlink:title=" ">
<polygon fill="white" stroke="#bfbfbf" points="23,-78.5 23,-108.5 132,-108.5 132,-78.5 23,-78.5"/>
<text text-anchor="start" x="31" y="-96.5" font-family="Helvetica,sans-Serif" font-size="10.00">std::vector&lt; chunk</text>
<text text-anchor="middle" x="77.5" y="-85.5" font-family="Helvetica,sans-Serif" font-size="10.00">_t * &gt;</text>
</a>
</g>
</g>
<!-- Node2&#45;&gt;Node1 -->
<g id="edge1" class="edge">
<title>Node2&#45;&gt;Node1</title>
<path fill="none" stroke="#9a32cd" stroke-dasharray="5,2" d="M99.93,-71.56C108.11,-64.2 117.55,-56.03 126.5,-49 134.62,-42.63 143.89,-36.07 152.05,-30.53"/>
<polygon fill="#9a32cd" stroke="#9a32cd" points="97.58,-68.97 92.54,-78.29 102.29,-74.15 97.58,-68.97"/>
<text text-anchor="middle" x="157" y="-52" font-family="Helvetica,sans-Serif" font-size="10.00"> m_vChunks</text>
</g>
<!-- Node3 -->
<g id="node3" class="node">
<title>Node3</title>
<g id="a_node3"><a xlink:href="structvmempool__chunk.html" target="_top" xlink:title=" ">
<polygon fill="white" stroke="black" points="0,-156.5 0,-175.5 155,-175.5 155,-156.5 0,-156.5"/>
<text text-anchor="middle" x="77.5" y="-163.5" font-family="Helvetica,sans-Serif" font-size="10.00">vmempool_chunk&lt; TType &gt;</text>
</a>
</g>
</g>
<!-- Node3&#45;&gt;Node2 -->
<g id="edge2" class="edge">
<title>Node3&#45;&gt;Node2</title>
<path fill="none" stroke="#9a32cd" stroke-dasharray="5,2" d="M77.5,-146.24C77.5,-134.41 77.5,-119.38 77.5,-108.58"/>
<polygon fill="#9a32cd" stroke="#9a32cd" points="74,-146.36 77.5,-156.36 81,-146.36 74,-146.36"/>
<text text-anchor="middle" x="102" y="-130" font-family="Helvetica,sans-Serif" font-size="10.00"> elements</text>
</g>
<!-- Node4 -->
<g id="node4" class="node">
<title>Node4</title>
<g id="a_node4"><a xlink:href="classbasic__allocator__system.html" target="_top" xlink:title=" ">
<polygon fill="white" stroke="black" points="150,-78.5 150,-108.5 281,-108.5 281,-78.5 150,-78.5"/>
<text text-anchor="start" x="158" y="-96.5" font-family="Helvetica,sans-Serif" font-size="10.00">basic_allocator_system</text>
<text text-anchor="middle" x="215.5" y="-85.5" font-family="Helvetica,sans-Serif" font-size="10.00">&lt; TType &gt;</text>
</a>
</g>
</g>
<!-- Node4&#45;&gt;Node1 -->
<g id="edge3" class="edge">
<title>Node4&#45;&gt;Node1</title>
<path fill="none" stroke="#9a32cd" stroke-dasharray="5,2" d="M202.63,-69.2C195.68,-56.64 187.34,-41.54 181.36,-30.73"/>
<polygon fill="#9a32cd" stroke="#9a32cd" points="199.7,-71.15 207.6,-78.2 205.83,-67.76 199.7,-71.15"/>
<text text-anchor="middle" x="227" y="-52" font-family="Helvetica,sans-Serif" font-size="10.00"> m_allocator</text>
</g>
</g>
</svg>
