<?xml version="1.0" encoding="UTF-8" standalone="no"?>
<!DOCTYPE svg PUBLIC "-//W3C//DTD SVG 1.1//EN"
 "http://www.w3.org/Graphics/SVG/1.1/DTD/svg11.dtd">
<!-- Generated by graphviz version 2.46.0 (0)
 -->
<!-- Title: mn::queue::basic_work_queue Pages: 1 -->
<svg width="290pt" height="231pt"
 viewBox="0.00 0.00 290.00 231.00" xmlns="http://www.w3.org/2000/svg" xmlns:xlink="http://www.w3.org/1999/xlink">
<g id="graph0" class="graph" transform="scale(1 1) rotate(0) translate(4 227)">
<title>mn::queue::basic_work_queue</title>
<polygon fill="white" stroke="transparent" points="-4,4 -4,-227 286,-227 286,4 -4,4"/>
<!-- Node1 -->
<g id="node1" class="node">
<title>Node1</title>
<g id="a_node1"><a xlink:title=" ">
<polygon fill="#bfbfbf" stroke="black" points="81.5,-0.5 81.5,-30.5 210.5,-30.5 210.5,-0.5 81.5,-0.5"/>
<text text-anchor="start" x="89.5" y="-18.5" font-family="Helvetica,sans-Serif" font-size="10.00">mn::queue::basic_work</text>
<text text-anchor="middle" x="146" y="-7.5" font-family="Helvetica,sans-Serif" font-size="10.00">_queue</text>
</a>
</g>
</g>
<!-- Node2 -->
<g id="node2" class="node">
<title>Node2</title>
<g id="a_node2"><a xlink:href="classmn_1_1basic__mutex.html" target="_top" xlink:title=" ">
<polygon fill="white" stroke="black" points="11.5,-89.5 11.5,-108.5 112.5,-108.5 112.5,-89.5 11.5,-89.5"/>
<text text-anchor="middle" x="62" y="-96.5" font-family="Helvetica,sans-Serif" font-size="10.00">mn::basic_mutex</text>
</a>
</g>
</g>
<!-- Node2&#45;&gt;Node1 -->
<g id="edge1" class="edge">
<title>Node2&#45;&gt;Node1</title>
<path fill="none" stroke="#9a32cd" stroke-dasharray="5,2" d="M66.57,-79.6C69.82,-69.6 75.03,-57.56 83,-49 90.04,-41.43 99.25,-35.33 108.44,-30.55"/>
<polygon fill="#9a32cd" stroke="#9a32cd" points="63.16,-78.82 63.8,-89.4 69.89,-80.73 63.16,-78.82"/>
<text text-anchor="middle" x="123" y="-63" font-family="Helvetica,sans-Serif" font-size="10.00"> m_ThreadJob</text>
<text text-anchor="middle" x="123" y="-52" font-family="Helvetica,sans-Serif" font-size="10.00">m_ThreadStatus</text>
</g>
<!-- Node3 -->
<g id="node3" class="node">
<title>Node3</title>
<g id="a_node3"><a xlink:href="classmn_1_1basic__semaphore.html" target="_top" xlink:title=" ">
<polygon fill="white" stroke="black" points="0,-146.5 0,-165.5 124,-165.5 124,-146.5 0,-146.5"/>
<text text-anchor="middle" x="62" y="-153.5" font-family="Helvetica,sans-Serif" font-size="10.00">mn::basic_semaphore</text>
</a>
</g>
</g>
<!-- Node3&#45;&gt;Node2 -->
<g id="edge2" class="edge">
<title>Node3&#45;&gt;Node2</title>
<path fill="none" stroke="midnightblue" d="M62,-136.12C62,-126.82 62,-116.06 62,-108.71"/>
<polygon fill="midnightblue" stroke="midnightblue" points="58.5,-136.41 62,-146.41 65.5,-136.41 58.5,-136.41"/>
</g>
<!-- Node4 -->
<g id="node4" class="node">
<title>Node4</title>
<g id="a_node4"><a xlink:href="classmn_1_1_i_lock_object.html" target="_top" xlink:title=" ">
<polygon fill="white" stroke="black" points="14.5,-203.5 14.5,-222.5 109.5,-222.5 109.5,-203.5 14.5,-203.5"/>
<text text-anchor="middle" x="62" y="-210.5" font-family="Helvetica,sans-Serif" font-size="10.00">mn::ILockObject</text>
</a>
</g>
</g>
<!-- Node4&#45;&gt;Node3 -->
<g id="edge3" class="edge">
<title>Node4&#45;&gt;Node3</title>
<path fill="none" stroke="midnightblue" d="M62,-193.12C62,-183.82 62,-173.06 62,-165.71"/>
<polygon fill="midnightblue" stroke="midnightblue" points="58.5,-193.41 62,-203.41 65.5,-193.41 58.5,-193.41"/>
</g>
<!-- Node5 -->
<g id="node5" class="node">
<title>Node5</title>
<g id="a_node5"><a xlink:href="classmn_1_1queue_1_1basic__queue.html" target="_top" xlink:title=" ">
<polygon fill="white" stroke="black" points="130.5,-89.5 130.5,-108.5 265.5,-108.5 265.5,-89.5 130.5,-89.5"/>
<text text-anchor="middle" x="198" y="-96.5" font-family="Helvetica,sans-Serif" font-size="10.00">mn::queue::basic_queue</text>
</a>
</g>
</g>
<!-- Node5&#45;&gt;Node1 -->
<g id="edge4" class="edge">
<title>Node5&#45;&gt;Node1</title>
<path fill="none" stroke="#9a32cd" stroke-dasharray="5,2" d="M186.85,-80.52C177.33,-65.61 163.83,-44.45 154.99,-30.6"/>
<polygon fill="#9a32cd" stroke="#9a32cd" points="184.11,-82.73 192.44,-89.28 190.01,-78.97 184.11,-82.73"/>
<text text-anchor="middle" x="230.5" y="-57.5" font-family="Helvetica,sans-Serif" font-size="10.00"> m_pWorkItemQueue</text>
</g>
</g>
</svg>
