<?xml version="1.0" encoding="UTF-8" standalone="no"?>
<!DOCTYPE svg PUBLIC "-//W3C//DTD SVG 1.1//EN"
 "http://www.w3.org/Graphics/SVG/1.1/DTD/svg11.dtd">
<!-- Generated by graphviz version 2.47.3 (0)
 -->
<!-- Title: mn::container::basic_shared_list&lt; T, TLockType &gt; Pages: 1 -->
<svg width="1077pt" height="127pt"
 viewBox="0.00 0.00 1077.00 126.50" xmlns="http://www.w3.org/2000/svg" xmlns:xlink="http://www.w3.org/1999/xlink">
<g id="graph0" class="graph" transform="scale(1 1) rotate(0) translate(4 122.5)">
<title>mn::container::basic_shared_list&lt; T, TLockType &gt;</title>
<polygon fill="white" stroke="transparent" points="-4,4 -4,-122.5 1073,-122.5 1073,4 -4,4"/>
<!-- Node1 -->
<g id="node1" class="node">
<title>Node1</title>
<g id="a_node1"><a xlink:title="A simple list of shared_ptr items.">
<polygon fill="#bfbfbf" stroke="black" points="908,-17 908,-47 1069,-47 1069,-17 908,-17"/>
<text text-anchor="start" x="916" y="-35" font-family="Helvetica,sans-Serif" font-size="10.00">mn::container::basic</text>
<text text-anchor="middle" x="988.5" y="-24" font-family="Helvetica,sans-Serif" font-size="10.00">_shared_list&lt; T, TLockType &gt;</text>
</a>
</g>
</g>
<!-- Node2 -->
<g id="node2" class="node">
<title>Node2</title>
<g id="a_node2"><a xlink:href="classmn_1_1container_1_1basic__list.html" target="_top" xlink:title=" ">
<polygon fill="white" stroke="black" points="686,-39 686,-69 802,-69 802,-39 686,-39"/>
<text text-anchor="start" x="694" y="-57" font-family="Helvetica,sans-Serif" font-size="10.00">list&lt; pointer::shared</text>
<text text-anchor="middle" x="744" y="-46" font-family="Helvetica,sans-Serif" font-size="10.00">_atomic_ptr&lt; T &gt; &gt;</text>
</a>
</g>
</g>
<!-- Node2&#45;&gt;Node1 -->
<g id="edge1" class="edge">
<title>Node2&#45;&gt;Node1</title>
<path fill="none" stroke="midnightblue" d="M812.39,-47.89C841.97,-45.2 876.91,-42.03 907.78,-39.23"/>
<polygon fill="midnightblue" stroke="midnightblue" points="811.8,-44.42 802.16,-48.81 812.44,-51.4 811.8,-44.42"/>
</g>
<!-- Node3 -->
<g id="node3" class="node">
<title>Node3</title>
<g id="a_node3"><a xlink:href="classmn_1_1memory_1_1basic__allocator.html" target="_top" xlink:title=" ">
<polygon fill="white" stroke="black" points="420,-88 420,-118 578,-118 578,-88 420,-88"/>
<text text-anchor="start" x="428" y="-106" font-family="Helvetica,sans-Serif" font-size="10.00">mn::memory::basic_allocator</text>
<text text-anchor="middle" x="499" y="-95" font-family="Helvetica,sans-Serif" font-size="10.00">&lt; TAllocator, TFilter &gt;</text>
</a>
</g>
</g>
<!-- Node3&#45;&gt;Node2 -->
<g id="edge2" class="edge">
<title>Node3&#45;&gt;Node2</title>
<path fill="none" stroke="#9a32cd" stroke-dasharray="5,2" d="M584.37,-85.99C617.94,-79.22 655.7,-71.6 685.95,-65.5"/>
<polygon fill="#9a32cd" stroke="#9a32cd" points="583.67,-82.56 574.56,-87.97 585.05,-89.42 583.67,-82.56"/>
<text text-anchor="middle" x="637.5" y="-82" font-family="Helvetica,sans-Serif" font-size="10.00"> m_allocator</text>
</g>
<!-- Node4 -->
<g id="node4" class="node">
<title>Node4</title>
<g id="a_node4"><a xlink:href="classmn_1_1memory_1_1basic__allocator__filter.html" target="_top" xlink:title=" ">
<polygon fill="white" stroke="black" points="168,-88 168,-118 326,-118 326,-88 168,-88"/>
<text text-anchor="start" x="176" y="-106" font-family="Helvetica,sans-Serif" font-size="10.00">mn::memory::basic_allocator</text>
<text text-anchor="middle" x="247" y="-95" font-family="Helvetica,sans-Serif" font-size="10.00">_filter</text>
</a>
</g>
</g>
<!-- Node4&#45;&gt;Node3 -->
<g id="edge3" class="edge">
<title>Node4&#45;&gt;Node3</title>
<path fill="none" stroke="#9a32cd" stroke-dasharray="5,2" d="M336.35,-103C363.51,-103 393.21,-103 419.66,-103"/>
<polygon fill="#9a32cd" stroke="#9a32cd" points="336.07,-99.5 326.07,-103 336.07,-106.5 336.07,-99.5"/>
<text text-anchor="middle" x="367.5" y="-106" font-family="Helvetica,sans-Serif" font-size="10.00"> m_fFilter</text>
</g>
<!-- Node5 -->
<g id="node5" class="node">
<title>Node5</title>
<g id="a_node5"><a xlink:href="classmn_1_1memory_1_1basic__deleter.html" target="_top" xlink:title=" ">
<polygon fill="white" stroke="black" points="409,-39 409,-69 589,-69 589,-39 409,-39"/>
<text text-anchor="start" x="417" y="-57" font-family="Helvetica,sans-Serif" font-size="10.00">mn::memory::basic_deleter</text>
<text text-anchor="middle" x="499" y="-46" font-family="Helvetica,sans-Serif" font-size="10.00">&lt; T, memory::default_allocator &gt;</text>
</a>
</g>
</g>
<!-- Node5&#45;&gt;Node2 -->
<g id="edge4" class="edge">
<title>Node5&#45;&gt;Node2</title>
<path fill="none" stroke="#9a32cd" stroke-dasharray="5,2" d="M599.4,-54C628.76,-54 659.9,-54 685.65,-54"/>
<polygon fill="#9a32cd" stroke="#9a32cd" points="599.1,-50.5 589.1,-54 599.1,-57.5 599.1,-50.5"/>
<text text-anchor="middle" x="637.5" y="-57" font-family="Helvetica,sans-Serif" font-size="10.00"> m_deleter</text>
</g>
<!-- Node6 -->
<g id="node6" class="node">
<title>Node6</title>
<g id="a_node6"><a xlink:href="classmn_1_1basic__mutex.html" target="_top" xlink:title=" ">
<polygon fill="white" stroke="black" points="693.5,-0.5 693.5,-19.5 794.5,-19.5 794.5,-0.5 693.5,-0.5"/>
<text text-anchor="middle" x="744" y="-7.5" font-family="Helvetica,sans-Serif" font-size="10.00">mn::basic_mutex</text>
</a>
</g>
</g>
<!-- Node6&#45;&gt;Node1 -->
<g id="edge5" class="edge">
<title>Node6&#45;&gt;Node1</title>
<path fill="none" stroke="#9a32cd" stroke-dasharray="5,2" d="M804.89,-15.43C835.95,-18.25 874.31,-21.73 907.84,-24.77"/>
<polygon fill="#9a32cd" stroke="#9a32cd" points="804.93,-11.92 794.66,-14.51 804.3,-18.89 804.93,-11.92"/>
<text text-anchor="middle" x="855" y="-26" font-family="Helvetica,sans-Serif" font-size="10.00"> m_lockObject</text>
</g>
<!-- Node7 -->
<g id="node7" class="node">
<title>Node7</title>
<g id="a_node7"><a xlink:href="classmn_1_1basic__semaphore.html" target="_top" xlink:title=" ">
<polygon fill="white" stroke="black" points="437,-0.5 437,-19.5 561,-19.5 561,-0.5 437,-0.5"/>
<text text-anchor="middle" x="499" y="-7.5" font-family="Helvetica,sans-Serif" font-size="10.00">mn::basic_semaphore</text>
</a>
</g>
</g>
<!-- Node7&#45;&gt;Node6 -->
<g id="edge6" class="edge">
<title>Node7&#45;&gt;Node6</title>
<path fill="none" stroke="midnightblue" d="M571.06,-10C610.34,-10 658.18,-10 693.41,-10"/>
<polygon fill="midnightblue" stroke="midnightblue" points="571.01,-6.5 561.01,-10 571.01,-13.5 571.01,-6.5"/>
</g>
<!-- Node8 -->
<g id="node8" class="node">
<title>Node8</title>
<g id="a_node8"><a xlink:href="classmn_1_1ILockObject.html" target="_top" xlink:title=" ">
<polygon fill="white" stroke="black" points="199.5,-0.5 199.5,-19.5 294.5,-19.5 294.5,-0.5 199.5,-0.5"/>
<text text-anchor="middle" x="247" y="-7.5" font-family="Helvetica,sans-Serif" font-size="10.00">mn::ILockObject</text>
</a>
</g>
</g>
<!-- Node8&#45;&gt;Node7 -->
<g id="edge7" class="edge">
<title>Node8&#45;&gt;Node7</title>
<path fill="none" stroke="midnightblue" d="M304.95,-10C344.31,-10 396.61,-10 436.85,-10"/>
<polygon fill="midnightblue" stroke="midnightblue" points="304.73,-6.5 294.73,-10 304.73,-13.5 304.73,-6.5"/>
</g>
<!-- Node9 -->
<g id="node9" class="node">
<title>Node9</title>
<g id="a_node9"><a xlink:title=" ">
<polygon fill="white" stroke="#bfbfbf" points="0,-0.5 0,-19.5 131,-19.5 131,-0.5 0,-0.5"/>
<text text-anchor="middle" x="65.5" y="-7.5" font-family="Helvetica,sans-Serif" font-size="10.00">MN_ONSIGLETN_CLASS</text>
</a>
</g>
</g>
<!-- Node9&#45;&gt;Node8 -->
<g id="edge8" class="edge">
<title>Node9&#45;&gt;Node8</title>
<path fill="none" stroke="#8b1a1a" d="M141.25,-10C160.98,-10 181.7,-10 199.45,-10"/>
<polygon fill="#8b1a1a" stroke="#8b1a1a" points="141.05,-6.5 131.05,-10 141.05,-13.5 141.05,-6.5"/>
</g>
</g>
</svg>
