<?xml version="1.0" encoding="UTF-8" standalone="no"?>
<!DOCTYPE svg PUBLIC "-//W3C//DTD SVG 1.1//EN"
 "http://www.w3.org/Graphics/SVG/1.1/DTD/svg11.dtd">
<!-- Generated by graphviz version 2.47.1 (0)
 -->
<!-- Title: mn::system::ISystemLockObject Pages: 1 -->
<svg width="700pt" height="214pt"
 viewBox="0.00 0.00 700.00 213.50" xmlns="http://www.w3.org/2000/svg" xmlns:xlink="http://www.w3.org/1999/xlink">
<g id="graph0" class="graph" transform="scale(1 1) rotate(0) translate(4 209.5)">
<title>mn::system::ISystemLockObject</title>
<polygon fill="white" stroke="transparent" points="-4,4 -4,-209.5 696,-209.5 696,4 -4,4"/>
<!-- Node1 -->
<g id="node1" class="node">
<title>Node1</title>
<g id="a_node1"><a xlink:title=" ">
<polygon fill="#bfbfbf" stroke="black" points="298,-82.5 298,-101.5 472,-101.5 472,-82.5 298,-82.5"/>
<text text-anchor="middle" x="385" y="-89.5" font-family="Helvetica,sans-Serif" font-size="10.00">mn::system::ISystemLockObject</text>
</a>
</g>
</g>
<!-- Node4 -->
<g id="node4" class="node">
<title>Node4</title>
<g id="a_node4"><a xlink:href="classmn_1_1system_1_1basic__critical__section.html" target="_top" xlink:title=" ">
<polygon fill="white" stroke="black" points="528,-175 528,-205 672,-205 672,-175 528,-175"/>
<text text-anchor="start" x="536" y="-193" font-family="Helvetica,sans-Serif" font-size="10.00">mn::system::basic_critical</text>
<text text-anchor="middle" x="600" y="-182" font-family="Helvetica,sans-Serif" font-size="10.00">_section</text>
</a>
</g>
</g>
<!-- Node1&#45;&gt;Node4 -->
<g id="edge3" class="edge">
<title>Node1&#45;&gt;Node4</title>
<path fill="none" stroke="midnightblue" d="M407.06,-107.37C430.6,-123.92 470.39,-150.03 508,-166 515.82,-169.32 524.22,-172.28 532.64,-174.89"/>
<polygon fill="midnightblue" stroke="midnightblue" points="409.04,-104.48 398.86,-101.53 404.98,-110.19 409.04,-104.48"/>
</g>
<!-- Node5 -->
<g id="node5" class="node">
<title>Node5</title>
<g id="a_node5"><a xlink:href="classmn_1_1system_1_1basic__critical__section__nested.html" target="_top" xlink:title=" ">
<polygon fill="white" stroke="black" points="528,-126 528,-156 672,-156 672,-126 528,-126"/>
<text text-anchor="start" x="536" y="-144" font-family="Helvetica,sans-Serif" font-size="10.00">mn::system::basic_critical</text>
<text text-anchor="middle" x="600" y="-133" font-family="Helvetica,sans-Serif" font-size="10.00">_section_nested</text>
</a>
</g>
</g>
<!-- Node1&#45;&gt;Node5 -->
<g id="edge4" class="edge">
<title>Node1&#45;&gt;Node5</title>
<path fill="none" stroke="midnightblue" d="M437.21,-103.78C466.11,-110.43 502.52,-118.81 533.49,-125.93"/>
<polygon fill="midnightblue" stroke="midnightblue" points="437.85,-100.34 427.32,-101.51 436.28,-107.16 437.85,-100.34"/>
</g>
<!-- Node6 -->
<g id="node6" class="node">
<title>Node6</title>
<g id="a_node6"><a xlink:href="classmn_1_1system_1_1basic__critical__section__timedout.html" target="_top" xlink:title=" ">
<polygon fill="white" stroke="black" points="528,-77 528,-107 672,-107 672,-77 528,-77"/>
<text text-anchor="start" x="536" y="-95" font-family="Helvetica,sans-Serif" font-size="10.00">mn::system::basic_critical</text>
<text text-anchor="middle" x="600" y="-84" font-family="Helvetica,sans-Serif" font-size="10.00">_section_timedout</text>
</a>
</g>
</g>
<!-- Node1&#45;&gt;Node6 -->
<g id="edge5" class="edge">
<title>Node1&#45;&gt;Node6</title>
<path fill="none" stroke="midnightblue" d="M482.05,-92C497.39,-92 513.03,-92 527.67,-92"/>
<polygon fill="midnightblue" stroke="midnightblue" points="482.02,-88.5 472.02,-92 482.02,-95.5 482.02,-88.5"/>
</g>
<!-- Node7 -->
<g id="node7" class="node">
<title>Node7</title>
<g id="a_node7"><a xlink:href="classmn_1_1system_1_1basic__interrupts__lock.html" target="_top" xlink:title=" ">
<polygon fill="white" stroke="black" points="508,-38.5 508,-57.5 692,-57.5 692,-38.5 508,-38.5"/>
<text text-anchor="middle" x="600" y="-45.5" font-family="Helvetica,sans-Serif" font-size="10.00">mn::system::basic_interrupts_lock</text>
</a>
</g>
</g>
<!-- Node1&#45;&gt;Node7 -->
<g id="edge6" class="edge">
<title>Node1&#45;&gt;Node7</title>
<path fill="none" stroke="midnightblue" d="M442.15,-80.4C476.68,-73.27 520.38,-64.24 552.87,-57.53"/>
<polygon fill="midnightblue" stroke="midnightblue" points="441.3,-77 432.22,-82.45 442.72,-83.86 441.3,-77"/>
</g>
<!-- Node8 -->
<g id="node8" class="node">
<title>Node8</title>
<g id="a_node8"><a xlink:href="classmn_1_1system_1_1basic__schedular__lock.html" target="_top" xlink:title=" ">
<polygon fill="white" stroke="black" points="508,-0.5 508,-19.5 692,-19.5 692,-0.5 508,-0.5"/>
<text text-anchor="middle" x="600" y="-7.5" font-family="Helvetica,sans-Serif" font-size="10.00">mn::system::basic_schedular_lock</text>
</a>
</g>
</g>
<!-- Node1&#45;&gt;Node8 -->
<g id="edge7" class="edge">
<title>Node1&#45;&gt;Node8</title>
<path fill="none" stroke="midnightblue" d="M409.93,-77.16C433.92,-62.89 472.3,-41.68 508,-29 518.65,-25.22 530.27,-22.09 541.55,-19.53"/>
<polygon fill="midnightblue" stroke="midnightblue" points="407.94,-74.27 401.18,-82.44 411.55,-80.27 407.94,-74.27"/>
</g>
<!-- Node2 -->
<g id="node2" class="node">
<title>Node2</title>
<g id="a_node2"><a xlink:href="classmn_1_1ILockObject.html" target="_top" xlink:title=" ">
<polygon fill="white" stroke="black" points="167,-82.5 167,-101.5 262,-101.5 262,-82.5 167,-82.5"/>
<text text-anchor="middle" x="214.5" y="-89.5" font-family="Helvetica,sans-Serif" font-size="10.00">mn::ILockObject</text>
</a>
</g>
</g>
<!-- Node2&#45;&gt;Node1 -->
<g id="edge1" class="edge">
<title>Node2&#45;&gt;Node1</title>
<path fill="none" stroke="midnightblue" d="M272.58,-92C280.78,-92 289.35,-92 297.96,-92"/>
<polygon fill="midnightblue" stroke="midnightblue" points="272.44,-88.5 262.44,-92 272.44,-95.5 272.44,-88.5"/>
</g>
<!-- Node3 -->
<g id="node3" class="node">
<title>Node3</title>
<g id="a_node3"><a xlink:title=" ">
<polygon fill="white" stroke="#bfbfbf" points="0,-82.5 0,-101.5 131,-101.5 131,-82.5 0,-82.5"/>
<text text-anchor="middle" x="65.5" y="-89.5" font-family="Helvetica,sans-Serif" font-size="10.00">MN_ONSIGLETN_CLASS</text>
</a>
</g>
</g>
<!-- Node3&#45;&gt;Node2 -->
<g id="edge2" class="edge">
<title>Node3&#45;&gt;Node2</title>
<path fill="none" stroke="#8b1a1a" d="M141.44,-92C150.01,-92 158.54,-92 166.59,-92"/>
<polygon fill="#8b1a1a" stroke="#8b1a1a" points="141.4,-88.5 131.4,-92 141.4,-95.5 141.4,-88.5"/>
</g>
</g>
</svg>
