<?xml version="1.0" encoding="UTF-8" standalone="no"?>
<!DOCTYPE svg PUBLIC "-//W3C//DTD SVG 1.1//EN"
 "http://www.w3.org/Graphics/SVG/1.1/DTD/svg11.dtd">
<!-- Generated by graphviz version 2.46.0 (0)
 -->
<!-- Title: mn::net::basic_stream_ip6_socket Pages: 1 -->
<svg width="384pt" height="309pt"
 viewBox="0.00 0.00 384.00 309.00" xmlns="http://www.w3.org/2000/svg" xmlns:xlink="http://www.w3.org/1999/xlink">
<g id="graph0" class="graph" transform="scale(1 1) rotate(0) translate(4 305)">
<title>mn::net::basic_stream_ip6_socket</title>
<polygon fill="white" stroke="transparent" points="-4,4 -4,-305 380,-305 380,4 -4,4"/>
<!-- Node1 -->
<g id="node1" class="node">
<title>Node1</title>
<g id="a_node1"><a xlink:title=" ">
<polygon fill="#bfbfbf" stroke="black" points="22,-0.5 22,-30.5 147,-30.5 147,-0.5 22,-0.5"/>
<text text-anchor="start" x="30" y="-18.5" font-family="Helvetica,sans-Serif" font-size="10.00">mn::net::basic_stream</text>
<text text-anchor="middle" x="84.5" y="-7.5" font-family="Helvetica,sans-Serif" font-size="10.00">_ip6_socket</text>
</a>
</g>
</g>
<!-- Node2 -->
<g id="node2" class="node">
<title>Node2</title>
<g id="a_node2"><a xlink:href="classmn_1_1net_1_1basic__ip6__socket.html" target="_top" xlink:title=" ">
<polygon fill="white" stroke="black" points="50.5,-68.5 50.5,-87.5 118.5,-87.5 118.5,-68.5 50.5,-68.5"/>
<text text-anchor="middle" x="84.5" y="-75.5" font-family="Helvetica,sans-Serif" font-size="10.00">ip6_socket</text>
</a>
</g>
</g>
<!-- Node2&#45;&gt;Node1 -->
<g id="edge1" class="edge">
<title>Node2&#45;&gt;Node1</title>
<path fill="none" stroke="midnightblue" d="M84.5,-58.22C84.5,-49.36 84.5,-38.96 84.5,-30.76"/>
<polygon fill="midnightblue" stroke="midnightblue" points="81,-58.33 84.5,-68.33 88,-58.33 81,-58.33"/>
</g>
<!-- Node3 -->
<g id="node3" class="node">
<title>Node3</title>
<g id="a_node3"><a xlink:href="classmn_1_1net_1_1basic__ip__socket.html" target="_top" xlink:title="Wrapper class around lwip implementation of a socket.">
<polygon fill="white" stroke="black" points="0,-141 0,-160 137,-160 137,-141 0,-141"/>
<text text-anchor="middle" x="68.5" y="-148" font-family="Helvetica,sans-Serif" font-size="10.00">mn::net::basic_ip_socket</text>
</a>
</g>
</g>
<!-- Node3&#45;&gt;Node2 -->
<g id="edge2" class="edge">
<title>Node3&#45;&gt;Node2</title>
<path fill="none" stroke="midnightblue" d="M72.73,-130.86C75.9,-116.9 80.09,-98.43 82.52,-87.72"/>
<polygon fill="midnightblue" stroke="midnightblue" points="69.26,-130.33 70.46,-140.86 76.09,-131.88 69.26,-130.33"/>
</g>
<!-- Node4 -->
<g id="node4" class="node">
<title>Node4</title>
<g id="a_node4"><a xlink:href="classmn_1_1net_1_1basic__ip6__endpoint.html" target="_top" xlink:title=" ">
<polygon fill="white" stroke="black" points="155.5,-135.5 155.5,-165.5 261.5,-165.5 261.5,-135.5 155.5,-135.5"/>
<text text-anchor="start" x="163.5" y="-153.5" font-family="Helvetica,sans-Serif" font-size="10.00">mn::net::basic_ip6</text>
<text text-anchor="middle" x="208.5" y="-142.5" font-family="Helvetica,sans-Serif" font-size="10.00">_endpoint</text>
</a>
</g>
</g>
<!-- Node4&#45;&gt;Node2 -->
<g id="edge3" class="edge">
<title>Node4&#45;&gt;Node2</title>
<path fill="none" stroke="#9a32cd" stroke-dasharray="5,2" d="M174.7,-130.28C150.13,-116.31 118.04,-98.07 99.51,-87.53"/>
<polygon fill="#9a32cd" stroke="#9a32cd" points="173.28,-133.5 183.7,-135.4 176.74,-127.42 173.28,-133.5"/>
<text text-anchor="middle" x="184" y="-109" font-family="Helvetica,sans-Serif" font-size="10.00"> m_pEndPoint</text>
</g>
<!-- Node5 -->
<g id="node5" class="node">
<title>Node5</title>
<g id="a_node5"><a xlink:href="classmn_1_1net_1_1basic__endpoint.html" target="_top" xlink:title=" ">
<polygon fill="white" stroke="black" points="99.5,-219 99.5,-238 233.5,-238 233.5,-219 99.5,-219"/>
<text text-anchor="middle" x="166.5" y="-226" font-family="Helvetica,sans-Serif" font-size="10.00">mn::net::basic_endpoint</text>
</a>
</g>
</g>
<!-- Node5&#45;&gt;Node4 -->
<g id="edge4" class="edge">
<title>Node5&#45;&gt;Node4</title>
<path fill="none" stroke="midnightblue" d="M176.19,-209.97C183.65,-196.47 193.83,-178.05 200.75,-165.52"/>
<polygon fill="midnightblue" stroke="midnightblue" points="173.09,-208.34 171.32,-218.78 179.22,-211.72 173.09,-208.34"/>
</g>
<!-- Node6 -->
<g id="node6" class="node">
<title>Node6</title>
<g id="a_node6"><a xlink:href="classmn_1_1net_1_1basic__ip6__address.html" target="_top" xlink:title="Class for the Internet Protocal version 6.">
<polygon fill="white" stroke="black" points="251.5,-213.5 251.5,-243.5 357.5,-243.5 357.5,-213.5 251.5,-213.5"/>
<text text-anchor="start" x="259.5" y="-231.5" font-family="Helvetica,sans-Serif" font-size="10.00">mn::net::basic_ip6</text>
<text text-anchor="middle" x="304.5" y="-220.5" font-family="Helvetica,sans-Serif" font-size="10.00">_address</text>
</a>
</g>
</g>
<!-- Node6&#45;&gt;Node4 -->
<g id="edge5" class="edge">
<title>Node6&#45;&gt;Node4</title>
<path fill="none" stroke="#9a32cd" stroke-dasharray="5,2" d="M278.29,-206.75C261.85,-193.73 241.07,-177.28 226.48,-165.73"/>
<polygon fill="#9a32cd" stroke="#9a32cd" points="276.43,-209.74 286.44,-213.2 280.78,-204.25 276.43,-209.74"/>
<text text-anchor="middle" x="292" y="-187" font-family="Helvetica,sans-Serif" font-size="10.00"> m_ipAdress</text>
</g>
<!-- Node7 -->
<g id="node7" class="node">
<title>Node7</title>
<g id="a_node7"><a xlink:href="classmn_1_1net_1_1basic__ip__address.html" target="_top" xlink:title="Wrapper class around lwip implementation of a ip address.">
<polygon fill="white" stroke="black" points="233,-281.5 233,-300.5 376,-300.5 376,-281.5 233,-281.5"/>
<text text-anchor="middle" x="304.5" y="-288.5" font-family="Helvetica,sans-Serif" font-size="10.00">mn::net::basic_ip_address</text>
</a>
</g>
</g>
<!-- Node7&#45;&gt;Node6 -->
<g id="edge6" class="edge">
<title>Node7&#45;&gt;Node6</title>
<path fill="none" stroke="midnightblue" d="M304.5,-271.22C304.5,-262.36 304.5,-251.96 304.5,-243.76"/>
<polygon fill="midnightblue" stroke="midnightblue" points="301,-271.33 304.5,-281.33 308,-271.33 301,-271.33"/>
</g>
</g>
</svg>
