<?xml version="1.0" encoding="UTF-8" standalone="no"?>
<!DOCTYPE svg PUBLIC "-//W3C//DTD SVG 1.1//EN"
 "http://www.w3.org/Graphics/SVG/1.1/DTD/svg11.dtd">
<!-- Generated by graphviz version 2.46.0 (0)
 -->
<!-- Title: mn::basic_task Pages: 1 -->
<svg width="491pt" height="218pt"
 viewBox="0.00 0.00 491.00 218.00" xmlns="http://www.w3.org/2000/svg" xmlns:xlink="http://www.w3.org/1999/xlink">
<g id="graph0" class="graph" transform="scale(1 1) rotate(0) translate(4 214)">
<title>mn::basic_task</title>
<polygon fill="white" stroke="transparent" points="-4,4 -4,-214 487,-214 487,4 -4,4"/>
<!-- Node1 -->
<g id="node1" class="node">
<title>Node1</title>
<g id="a_node1"><a xlink:title="Wrapper class around FreeRTOS&#39;s implementation of a task.">
<polygon fill="#bfbfbf" stroke="black" points="0,-95.5 0,-114.5 90,-114.5 90,-95.5 0,-95.5"/>
<text text-anchor="middle" x="45" y="-102.5" font-family="Helvetica,sans-Serif" font-size="10.00">mn::basic_task</text>
</a>
</g>
</g>
<!-- Node2 -->
<g id="node2" class="node">
<title>Node2</title>
<g id="a_node2"><a xlink:href="classhello__world__task.html" target="_top" xlink:title=" ">
<polygon fill="white" stroke="black" points="156.5,-190.5 156.5,-209.5 255.5,-209.5 255.5,-190.5 156.5,-190.5"/>
<text text-anchor="middle" x="206" y="-197.5" font-family="Helvetica,sans-Serif" font-size="10.00">hello_world_task</text>
</a>
</g>
</g>
<!-- Node1&#45;&gt;Node2 -->
<g id="edge1" class="edge">
<title>Node1&#45;&gt;Node2</title>
<path fill="none" stroke="midnightblue" d="M59.93,-122.84C74.52,-140.3 99.05,-166.35 126,-181 135.3,-186.05 145.92,-189.78 156.31,-192.51"/>
<polygon fill="midnightblue" stroke="midnightblue" points="62.26,-120.16 53.24,-114.6 56.82,-124.57 62.26,-120.16"/>
</g>
<!-- Node3 -->
<g id="node3" class="node">
<title>Node3</title>
<g id="a_node3"><a xlink:href="classmn_1_1ext_1_1basic__convar__task.html" target="_top" xlink:title=" ">
<polygon fill="white" stroke="black" points="131,-152.5 131,-171.5 281,-171.5 281,-152.5 131,-152.5"/>
<text text-anchor="middle" x="206" y="-159.5" font-family="Helvetica,sans-Serif" font-size="10.00">mn::ext::basic_convar_task</text>
</a>
</g>
</g>
<!-- Node1&#45;&gt;Node3 -->
<g id="edge2" class="edge">
<title>Node1&#45;&gt;Node3</title>
<path fill="none" stroke="midnightblue" d="M72.25,-119.17C87.59,-127.01 107.51,-136.47 126,-143 136.24,-146.62 147.47,-149.78 158.16,-152.43"/>
<polygon fill="midnightblue" stroke="midnightblue" points="73.83,-116.05 63.35,-114.53 70.6,-122.25 73.83,-116.05"/>
</g>
<!-- Node5 -->
<g id="node5" class="node">
<title>Node5</title>
<g id="a_node5"><a xlink:href="classmn_1_1ext_1_1foreign__task.html" target="_top" xlink:title=" ">
<polygon fill="white" stroke="black" points="145.5,-114.5 145.5,-133.5 266.5,-133.5 266.5,-114.5 145.5,-114.5"/>
<text text-anchor="middle" x="206" y="-121.5" font-family="Helvetica,sans-Serif" font-size="10.00">mn::ext::foreign_task</text>
</a>
</g>
</g>
<!-- Node1&#45;&gt;Node5 -->
<g id="edge4" class="edge">
<title>Node1&#45;&gt;Node5</title>
<path fill="none" stroke="midnightblue" d="M100.58,-111.52C115.06,-113.25 130.77,-115.13 145.49,-116.89"/>
<polygon fill="midnightblue" stroke="midnightblue" points="100.64,-108 90.29,-110.29 99.8,-114.95 100.64,-108"/>
</g>
<!-- Node6 -->
<g id="node6" class="node">
<title>Node6</title>
<g id="a_node6"><a xlink:href="classmn_1_1queue_1_1work__queue__task.html" target="_top" xlink:title=" ">
<polygon fill="white" stroke="black" points="126,-76.5 126,-95.5 286,-95.5 286,-76.5 126,-76.5"/>
<text text-anchor="middle" x="206" y="-83.5" font-family="Helvetica,sans-Serif" font-size="10.00">mn::queue::work_queue_task</text>
</a>
</g>
</g>
<!-- Node1&#45;&gt;Node6 -->
<g id="edge5" class="edge">
<title>Node1&#45;&gt;Node6</title>
<path fill="none" stroke="midnightblue" d="M100.47,-98.49C108.69,-97.51 117.32,-96.48 125.93,-95.45"/>
<polygon fill="midnightblue" stroke="midnightblue" points="99.8,-95.05 90.29,-99.71 100.64,-102 99.8,-95.05"/>
</g>
<!-- Node7 -->
<g id="node7" class="node">
<title>Node7</title>
<g id="a_node7"><a xlink:href="classmutex_simple_test_task.html" target="_top" xlink:title=" ">
<polygon fill="white" stroke="black" points="144.5,-38.5 144.5,-57.5 267.5,-57.5 267.5,-38.5 144.5,-38.5"/>
<text text-anchor="middle" x="206" y="-45.5" font-family="Helvetica,sans-Serif" font-size="10.00">mutexSimpleTestTask</text>
</a>
</g>
</g>
<!-- Node1&#45;&gt;Node7 -->
<g id="edge6" class="edge">
<title>Node1&#45;&gt;Node7</title>
<path fill="none" stroke="midnightblue" d="M72.25,-90.83C87.59,-82.99 107.51,-73.53 126,-67 136.24,-63.38 147.47,-60.22 158.16,-57.57"/>
<polygon fill="midnightblue" stroke="midnightblue" points="70.6,-87.75 63.35,-95.47 73.83,-93.95 70.6,-87.75"/>
</g>
<!-- Node8 -->
<g id="node8" class="node">
<title>Node8</title>
<g id="a_node8"><a xlink:href="classtest__tasklet__task.html" target="_top" xlink:title=" ">
<polygon fill="white" stroke="black" points="155.5,-0.5 155.5,-19.5 256.5,-19.5 256.5,-0.5 155.5,-0.5"/>
<text text-anchor="middle" x="206" y="-7.5" font-family="Helvetica,sans-Serif" font-size="10.00">test_tasklet_task</text>
</a>
</g>
</g>
<!-- Node1&#45;&gt;Node8 -->
<g id="edge7" class="edge">
<title>Node1&#45;&gt;Node8</title>
<path fill="none" stroke="midnightblue" d="M59.93,-87.16C74.52,-69.7 99.05,-43.65 126,-29 135.05,-24.08 145.36,-20.42 155.48,-17.71"/>
<polygon fill="midnightblue" stroke="midnightblue" points="56.82,-85.43 53.24,-95.4 62.26,-89.84 56.82,-85.43"/>
</g>
<!-- Node4 -->
<g id="node4" class="node">
<title>Node4</title>
<g id="a_node4"><a xlink:href="classmn_1_1ext_1_1basic__message__task.html" target="_top" xlink:title=" ">
<polygon fill="white" stroke="black" points="322,-152.5 322,-171.5 483,-171.5 483,-152.5 322,-152.5"/>
<text text-anchor="middle" x="402.5" y="-159.5" font-family="Helvetica,sans-Serif" font-size="10.00">mn::ext::basic_message_task</text>
</a>
</g>
</g>
<!-- Node3&#45;&gt;Node4 -->
<g id="edge3" class="edge">
<title>Node3&#45;&gt;Node4</title>
<path fill="none" stroke="midnightblue" d="M291.17,-162C301.33,-162 311.69,-162 321.79,-162"/>
<polygon fill="midnightblue" stroke="midnightblue" points="291.09,-158.5 281.09,-162 291.09,-165.5 291.09,-158.5"/>
</g>
</g>
</svg>
