<?xml version="1.0" encoding="UTF-8" standalone="no"?>
<!DOCTYPE svg PUBLIC "-//W3C//DTD SVG 1.1//EN"
 "http://www.w3.org/Graphics/SVG/1.1/DTD/svg11.dtd">
<!-- Generated by graphviz version 2.47.1 (0)
 -->
<!-- Title: mn::ILockObject Pages: 1 -->
<svg width="700pt" height="378pt"
 viewBox="0.00 0.00 700.00 378.00" xmlns="http://www.w3.org/2000/svg" xmlns:xlink="http://www.w3.org/1999/xlink">
<g id="graph0" class="graph" transform="scale(1 1) rotate(0) translate(4 374)">
<title>mn::ILockObject</title>
<polygon fill="white" stroke="transparent" points="-4,4 -4,-374 696,-374 696,4 -4,4"/>
<!-- Node1 -->
<g id="node1" class="node">
<title>Node1</title>
<g id="a_node1"><a xlink:title=" ">
<polygon fill="#bfbfbf" stroke="black" points="167,-287.5 167,-306.5 262,-306.5 262,-287.5 167,-287.5"/>
<text text-anchor="middle" x="214.5" y="-294.5" font-family="Helvetica,sans-Serif" font-size="10.00">mn::ILockObject</text>
</a>
</g>
</g>
<!-- Node3 -->
<g id="node3" class="node">
<title>Node3</title>
<g id="a_node3"><a xlink:href="classmn_1_1atomic__spinlock.html" target="_top" xlink:title="This class implements a simple spinlack, whit atomic operations.">
<polygon fill="white" stroke="black" points="312,-344.5 312,-363.5 458,-363.5 458,-344.5 312,-344.5"/>
<text text-anchor="middle" x="385" y="-351.5" font-family="Helvetica,sans-Serif" font-size="10.00">mn::atomic_spinlock&lt; T &gt;</text>
</a>
</g>
</g>
<!-- Node1&#45;&gt;Node3 -->
<g id="edge2" class="edge">
<title>Node1&#45;&gt;Node3</title>
<path fill="none" stroke="midnightblue" d="M242.58,-311.26C258.4,-319.13 278.94,-328.59 298,-335 308.87,-338.66 320.75,-341.8 332.12,-344.42"/>
<polygon fill="midnightblue" stroke="midnightblue" points="243.89,-308 233.39,-306.6 240.73,-314.25 243.89,-308"/>
</g>
<!-- Node4 -->
<g id="node4" class="node">
<title>Node4</title>
<g id="a_node4"><a xlink:href="classmn_1_1basic__null__lock.html" target="_top" xlink:title="Null Lock is a lock object without any lock logic.">
<polygon fill="white" stroke="black" points="328.5,-306.5 328.5,-325.5 441.5,-325.5 441.5,-306.5 328.5,-306.5"/>
<text text-anchor="middle" x="385" y="-313.5" font-family="Helvetica,sans-Serif" font-size="10.00">mn::basic_null_lock</text>
</a>
</g>
</g>
<!-- Node1&#45;&gt;Node4 -->
<g id="edge3" class="edge">
<title>Node1&#45;&gt;Node4</title>
<path fill="none" stroke="midnightblue" d="M272.52,-303.43C290.54,-305.46 310.43,-307.7 328.36,-309.73"/>
<polygon fill="midnightblue" stroke="midnightblue" points="272.77,-299.94 262.44,-302.29 271.98,-306.89 272.77,-299.94"/>
</g>
<!-- Node5 -->
<g id="node5" class="node">
<title>Node5</title>
<g id="a_node5"><a xlink:href="classmn_1_1basic__semaphore.html" target="_top" xlink:title=" ">
<polygon fill="white" stroke="black" points="323,-268.5 323,-287.5 447,-287.5 447,-268.5 323,-268.5"/>
<text text-anchor="middle" x="385" y="-275.5" font-family="Helvetica,sans-Serif" font-size="10.00">mn::basic_semaphore</text>
</a>
</g>
</g>
<!-- Node1&#45;&gt;Node5 -->
<g id="edge4" class="edge">
<title>Node1&#45;&gt;Node5</title>
<path fill="none" stroke="midnightblue" d="M272.78,-290.54C288.9,-288.72 306.48,-286.74 322.81,-284.9"/>
<polygon fill="midnightblue" stroke="midnightblue" points="271.98,-287.11 262.44,-291.71 272.77,-294.06 271.98,-287.11"/>
</g>
<!-- Node10 -->
<g id="node10" class="node">
<title>Node10</title>
<g id="a_node10"><a xlink:href="classmn_1_1system_1_1ISystemLockObject.html" target="_top" xlink:title=" ">
<polygon fill="white" stroke="black" points="298,-107.5 298,-126.5 472,-126.5 472,-107.5 298,-107.5"/>
<text text-anchor="middle" x="385" y="-114.5" font-family="Helvetica,sans-Serif" font-size="10.00">mn::system::ISystemLockObject</text>
</a>
</g>
</g>
<!-- Node1&#45;&gt;Node10 -->
<g id="edge9" class="edge">
<title>Node1&#45;&gt;Node10</title>
<path fill="none" stroke="midnightblue" d="M231.61,-279.79C266.41,-242.61 347.64,-155.85 374.9,-126.73"/>
<polygon fill="midnightblue" stroke="midnightblue" points="228.84,-277.63 224.56,-287.32 233.95,-282.41 228.84,-277.63"/>
</g>
<!-- Node2 -->
<g id="node2" class="node">
<title>Node2</title>
<g id="a_node2"><a xlink:title=" ">
<polygon fill="white" stroke="#bfbfbf" points="0,-287.5 0,-306.5 131,-306.5 131,-287.5 0,-287.5"/>
<text text-anchor="middle" x="65.5" y="-294.5" font-family="Helvetica,sans-Serif" font-size="10.00">MN_ONSIGLETN_CLASS</text>
</a>
</g>
</g>
<!-- Node2&#45;&gt;Node1 -->
<g id="edge1" class="edge">
<title>Node2&#45;&gt;Node1</title>
<path fill="none" stroke="#8b1a1a" d="M141.44,-297C150.01,-297 158.54,-297 166.59,-297"/>
<polygon fill="#8b1a1a" stroke="#8b1a1a" points="141.4,-293.5 131.4,-297 141.4,-300.5 141.4,-293.5"/>
</g>
<!-- Node6 -->
<g id="node6" class="node">
<title>Node6</title>
<g id="a_node6"><a xlink:href="classmn_1_1basic__binary__semaphore.html" target="_top" xlink:title=" ">
<polygon fill="white" stroke="black" points="520,-350.5 520,-369.5 680,-369.5 680,-350.5 520,-350.5"/>
<text text-anchor="middle" x="600" y="-357.5" font-family="Helvetica,sans-Serif" font-size="10.00">mn::basic_binary_semaphore</text>
</a>
</g>
</g>
<!-- Node5&#45;&gt;Node6 -->
<g id="edge5" class="edge">
<title>Node5&#45;&gt;Node6</title>
<path fill="none" stroke="midnightblue" d="M456.88,-289.55C462.17,-291.64 467.28,-294.1 472,-297 493.52,-310.23 486.4,-327.89 508,-341 514.35,-344.85 521.35,-347.93 528.57,-350.4"/>
<polygon fill="midnightblue" stroke="midnightblue" points="457.79,-286.16 447.2,-286.18 455.49,-292.77 457.79,-286.16"/>
</g>
<!-- Node7 -->
<g id="node7" class="node">
<title>Node7</title>
<g id="a_node7"><a xlink:href="classmn_1_1basic__clock.html" target="_top" xlink:title=" ">
<polygon fill="white" stroke="black" points="516,-312.5 516,-331.5 684,-331.5 684,-312.5 516,-312.5"/>
<text text-anchor="middle" x="600" y="-319.5" font-family="Helvetica,sans-Serif" font-size="10.00">mn::basic_clock&lt; TLockType &gt;</text>
</a>
</g>
</g>
<!-- Node5&#45;&gt;Node7 -->
<g id="edge6" class="edge">
<title>Node5&#45;&gt;Node7</title>
<path fill="none" stroke="midnightblue" d="M442.15,-289.6C476.68,-296.73 520.38,-305.76 552.87,-312.47"/>
<polygon fill="midnightblue" stroke="midnightblue" points="442.72,-286.14 432.22,-287.55 441.3,-293 442.72,-286.14"/>
</g>
<!-- Node8 -->
<g id="node8" class="node">
<title>Node8</title>
<g id="a_node8"><a xlink:href="classmn_1_1basic__counting__semaphore.html" target="_top" xlink:title=" ">
<polygon fill="white" stroke="black" points="544.5,-263 544.5,-293 655.5,-293 655.5,-263 544.5,-263"/>
<text text-anchor="start" x="552.5" y="-281" font-family="Helvetica,sans-Serif" font-size="10.00">mn::basic_counting</text>
<text text-anchor="middle" x="600" y="-270" font-family="Helvetica,sans-Serif" font-size="10.00">_semaphore</text>
</a>
</g>
</g>
<!-- Node5&#45;&gt;Node8 -->
<g id="edge7" class="edge">
<title>Node5&#45;&gt;Node8</title>
<path fill="none" stroke="midnightblue" d="M457.33,-278C485.77,-278 517.98,-278 544.49,-278"/>
<polygon fill="midnightblue" stroke="midnightblue" points="457.04,-274.5 447.04,-278 457.04,-281.5 457.04,-274.5"/>
</g>
<!-- Node9 -->
<g id="node9" class="node">
<title>Node9</title>
<g id="a_node9"><a xlink:href="classmn_1_1basic__mutex.html" target="_top" xlink:title=" ">
<polygon fill="white" stroke="black" points="549.5,-224.5 549.5,-243.5 650.5,-243.5 650.5,-224.5 549.5,-224.5"/>
<text text-anchor="middle" x="600" y="-231.5" font-family="Helvetica,sans-Serif" font-size="10.00">mn::basic_mutex</text>
</a>
</g>
</g>
<!-- Node5&#45;&gt;Node9 -->
<g id="edge8" class="edge">
<title>Node5&#45;&gt;Node9</title>
<path fill="none" stroke="midnightblue" d="M442.15,-266.4C476.68,-259.27 520.38,-250.24 552.87,-243.53"/>
<polygon fill="midnightblue" stroke="midnightblue" points="441.3,-263 432.22,-268.45 442.72,-269.86 441.3,-263"/>
</g>
<!-- Node11 -->
<g id="node11" class="node">
<title>Node11</title>
<g id="a_node11"><a xlink:href="classmn_1_1system_1_1basic__critical__section.html" target="_top" xlink:title=" ">
<polygon fill="white" stroke="black" points="528,-175 528,-205 672,-205 672,-175 528,-175"/>
<text text-anchor="start" x="536" y="-193" font-family="Helvetica,sans-Serif" font-size="10.00">mn::system::basic_critical</text>
<text text-anchor="middle" x="600" y="-182" font-family="Helvetica,sans-Serif" font-size="10.00">_section</text>
</a>
</g>
</g>
<!-- Node10&#45;&gt;Node11 -->
<g id="edge10" class="edge">
<title>Node10&#45;&gt;Node11</title>
<path fill="none" stroke="midnightblue" d="M417.69,-130.55C442.12,-140.72 476.87,-154.63 508,-165 518.41,-168.47 529.61,-171.83 540.47,-174.91"/>
<polygon fill="midnightblue" stroke="midnightblue" points="418.8,-127.21 408.22,-126.57 416.09,-133.67 418.8,-127.21"/>
</g>
<!-- Node12 -->
<g id="node12" class="node">
<title>Node12</title>
<g id="a_node12"><a xlink:href="classmn_1_1system_1_1basic__critical__section__nested.html" target="_top" xlink:title=" ">
<polygon fill="white" stroke="black" points="528,-126 528,-156 672,-156 672,-126 528,-126"/>
<text text-anchor="start" x="536" y="-144" font-family="Helvetica,sans-Serif" font-size="10.00">mn::system::basic_critical</text>
<text text-anchor="middle" x="600" y="-133" font-family="Helvetica,sans-Serif" font-size="10.00">_section_nested</text>
</a>
</g>
</g>
<!-- Node10&#45;&gt;Node12 -->
<g id="edge11" class="edge">
<title>Node10&#45;&gt;Node12</title>
<path fill="none" stroke="midnightblue" d="M480.84,-127.69C496.68,-129.47 512.88,-131.3 528,-133"/>
<polygon fill="midnightblue" stroke="midnightblue" points="480.82,-124.16 470.49,-126.52 480.03,-131.12 480.82,-124.16"/>
</g>
<!-- Node13 -->
<g id="node13" class="node">
<title>Node13</title>
<g id="a_node13"><a xlink:href="classmn_1_1system_1_1basic__critical__section__timedout.html" target="_top" xlink:title=" ">
<polygon fill="white" stroke="black" points="528,-77 528,-107 672,-107 672,-77 528,-77"/>
<text text-anchor="start" x="536" y="-95" font-family="Helvetica,sans-Serif" font-size="10.00">mn::system::basic_critical</text>
<text text-anchor="middle" x="600" y="-84" font-family="Helvetica,sans-Serif" font-size="10.00">_section_timedout</text>
</a>
</g>
</g>
<!-- Node10&#45;&gt;Node13 -->
<g id="edge12" class="edge">
<title>Node10&#45;&gt;Node13</title>
<path fill="none" stroke="midnightblue" d="M477.54,-106.26C494.37,-104.28 511.72,-102.24 527.85,-100.35"/>
<polygon fill="midnightblue" stroke="midnightblue" points="476.66,-102.84 467.13,-107.48 477.47,-109.79 476.66,-102.84"/>
</g>
<!-- Node14 -->
<g id="node14" class="node">
<title>Node14</title>
<g id="a_node14"><a xlink:href="classmn_1_1system_1_1basic__interrupts__lock.html" target="_top" xlink:title=" ">
<polygon fill="white" stroke="black" points="508,-38.5 508,-57.5 692,-57.5 692,-38.5 508,-38.5"/>
<text text-anchor="middle" x="600" y="-45.5" font-family="Helvetica,sans-Serif" font-size="10.00">mn::system::basic_interrupts_lock</text>
</a>
</g>
</g>
<!-- Node10&#45;&gt;Node14 -->
<g id="edge13" class="edge">
<title>Node10&#45;&gt;Node14</title>
<path fill="none" stroke="midnightblue" d="M415.69,-103.04C440.06,-92.02 475.68,-76.9 508,-67 519.88,-63.36 532.85,-60.19 545.17,-57.54"/>
<polygon fill="midnightblue" stroke="midnightblue" points="413.94,-99.99 406.3,-107.33 416.85,-106.35 413.94,-99.99"/>
</g>
<!-- Node15 -->
<g id="node15" class="node">
<title>Node15</title>
<g id="a_node15"><a xlink:href="classmn_1_1system_1_1basic__schedular__lock.html" target="_top" xlink:title=" ">
<polygon fill="white" stroke="black" points="508,-0.5 508,-19.5 692,-19.5 692,-0.5 508,-0.5"/>
<text text-anchor="middle" x="600" y="-7.5" font-family="Helvetica,sans-Serif" font-size="10.00">mn::system::basic_schedular_lock</text>
</a>
</g>
</g>
<!-- Node10&#45;&gt;Node15 -->
<g id="edge14" class="edge">
<title>Node10&#45;&gt;Node15</title>
<path fill="none" stroke="midnightblue" d="M403.85,-100.35C426.37,-80.28 467.11,-47.03 508,-29 516.71,-25.16 526.24,-22.08 535.75,-19.61"/>
<polygon fill="midnightblue" stroke="midnightblue" points="401.21,-98.02 396.15,-107.33 405.91,-103.2 401.21,-98.02"/>
</g>
</g>
</svg>
