<?xml version="1.0" encoding="UTF-8" standalone="no"?>
<!DOCTYPE svg PUBLIC "-//W3C//DTD SVG 1.1//EN"
 "http://www.w3.org/Graphics/SVG/1.1/DTD/svg11.dtd">
<!-- Generated by graphviz version 2.46.0 (0)
 -->
<!-- Title: mn::pointer::basic_weak_ptr&lt; T, TRefType &gt; Pages: 1 -->
<svg width="265pt" height="174pt"
 viewBox="0.00 0.00 264.50 174.00" xmlns="http://www.w3.org/2000/svg" xmlns:xlink="http://www.w3.org/1999/xlink">
<g id="graph0" class="graph" transform="scale(1 1) rotate(0) translate(4 170)">
<title>mn::pointer::basic_weak_ptr&lt; T, TRefType &gt;</title>
<polygon fill="white" stroke="transparent" points="-4,4 -4,-170 260.5,-170 260.5,4 -4,4"/>
<!-- Node1 -->
<g id="node1" class="node">
<title>Node1</title>
<g id="a_node1"><a xlink:title=" ">
<polygon fill="#bfbfbf" stroke="black" points="0,-0.5 0,-30.5 146,-30.5 146,-0.5 0,-0.5"/>
<text text-anchor="start" x="8" y="-18.5" font-family="Helvetica,sans-Serif" font-size="10.00">mn::pointer::basic</text>
<text text-anchor="middle" x="73" y="-7.5" font-family="Helvetica,sans-Serif" font-size="10.00">_weak_ptr&lt; T, TRefType &gt;</text>
</a>
</g>
</g>
<!-- Node2 -->
<g id="node2" class="node">
<title>Node2</title>
<g id="a_node2"><a xlink:href="structmn_1_1pointer_1_1pointer__ptr.html" target="_top" xlink:title=" ">
<polygon fill="white" stroke="black" points="0.5,-78.5 0.5,-108.5 113.5,-108.5 113.5,-78.5 0.5,-78.5"/>
<text text-anchor="start" x="8.5" y="-96.5" font-family="Helvetica,sans-Serif" font-size="10.00">mn::pointer::pointer</text>
<text text-anchor="middle" x="57" y="-85.5" font-family="Helvetica,sans-Serif" font-size="10.00">_ptr&lt; T &gt;</text>
</a>
</g>
</g>
<!-- Node2&#45;&gt;Node1 -->
<g id="edge1" class="edge">
<title>Node2&#45;&gt;Node1</title>
<path fill="none" stroke="#8b1a1a" d="M62.14,-68.09C64.74,-55.76 67.8,-41.22 70,-30.73"/>
<polygon fill="#8b1a1a" stroke="#8b1a1a" points="58.64,-67.7 60.01,-78.2 65.49,-69.14 58.64,-67.7"/>
</g>
<!-- Node3 -->
<g id="node3" class="node">
<title>Node3</title>
<g id="a_node3"><a xlink:href="structmn_1_1__atomic.html" target="_top" xlink:title="Only for declar special version for types.">
<polygon fill="white" stroke="black" points="132,-84 132,-103 238,-103 238,-84 132,-84"/>
<text text-anchor="middle" x="185" y="-91" font-family="Helvetica,sans-Serif" font-size="10.00">mn::_atomic&lt; T &gt;</text>
</a>
</g>
</g>
<!-- Node3&#45;&gt;Node1 -->
<g id="edge2" class="edge">
<title>Node3&#45;&gt;Node1</title>
<path fill="none" stroke="#9a32cd" stroke-dasharray="5,2" d="M163.67,-78.03C143.54,-64.37 113.57,-44.03 93.66,-30.52"/>
<polygon fill="#9a32cd" stroke="#9a32cd" points="161.91,-81.06 172.15,-83.78 165.84,-75.27 161.91,-81.06"/>
<text text-anchor="middle" x="153.5" y="-52" font-family="Helvetica,sans-Serif" font-size="10.00"> _m_ref</text>
</g>
<!-- Node4 -->
<g id="node4" class="node">
<title>Node4</title>
<g id="a_node4"><a xlink:title=" ">
<polygon fill="white" stroke="#bfbfbf" points="113.5,-146.5 113.5,-165.5 256.5,-165.5 256.5,-146.5 113.5,-146.5"/>
<text text-anchor="middle" x="185" y="-153.5" font-family="Helvetica,sans-Serif" font-size="10.00">BASE_ATOMIC_TYPE&lt; T &gt;</text>
</a>
</g>
</g>
<!-- Node4&#45;&gt;Node3 -->
<g id="edge3" class="edge">
<title>Node4&#45;&gt;Node3</title>
<path fill="none" stroke="midnightblue" d="M185,-136C185,-125 185,-111.68 185,-103.15"/>
<polygon fill="midnightblue" stroke="midnightblue" points="181.5,-136.33 185,-146.33 188.5,-136.33 181.5,-136.33"/>
</g>
</g>
</svg>
