<?xml version="1.0" encoding="UTF-8" standalone="no"?>
<!DOCTYPE svg PUBLIC "-//W3C//DTD SVG 1.1//EN"
 "http://www.w3.org/Graphics/SVG/1.1/DTD/svg11.dtd">
<!-- Generated by graphviz version 2.46.0 (0)
 -->
<!-- Title: mn::pointer::basic_clone_ptr&lt; T, TInterface &gt; Pages: 1 -->
<svg width="252pt" height="106pt"
 viewBox="0.00 0.00 252.00 106.00" xmlns="http://www.w3.org/2000/svg" xmlns:xlink="http://www.w3.org/1999/xlink">
<g id="graph0" class="graph" transform="scale(1 1) rotate(0) translate(4 102)">
<title>mn::pointer::basic_clone_ptr&lt; T, TInterface &gt;</title>
<polygon fill="white" stroke="transparent" points="-4,4 -4,-102 248,-102 248,4 -4,4"/>
<!-- Node1 -->
<g id="node1" class="node">
<title>Node1</title>
<g id="a_node1"><a xlink:title=" ">
<polygon fill="#bfbfbf" stroke="black" points="46,-0.5 46,-30.5 197,-30.5 197,-0.5 46,-0.5"/>
<text text-anchor="start" x="54" y="-18.5" font-family="Helvetica,sans-Serif" font-size="10.00">mn::pointer::basic</text>
<text text-anchor="middle" x="121.5" y="-7.5" font-family="Helvetica,sans-Serif" font-size="10.00">_clone_ptr&lt; T, TInterface &gt;</text>
</a>
</g>
</g>
<!-- Node2 -->
<g id="node2" class="node">
<title>Node2</title>
<g id="a_node2"><a xlink:href="classmn_1_1pointer_1_1clone__ptr__interface.html" target="_top" xlink:title=" ">
<polygon fill="white" stroke="black" points="0,-67.5 0,-97.5 113,-97.5 113,-67.5 0,-67.5"/>
<text text-anchor="start" x="8" y="-85.5" font-family="Helvetica,sans-Serif" font-size="10.00">mn::pointer::clone</text>
<text text-anchor="middle" x="56.5" y="-74.5" font-family="Helvetica,sans-Serif" font-size="10.00">_ptr_interface&lt; T &gt;</text>
</a>
</g>
</g>
<!-- Node2&#45;&gt;Node1 -->
<g id="edge1" class="edge">
<title>Node2&#45;&gt;Node1</title>
<path fill="none" stroke="midnightblue" d="M77.69,-60.31C87.44,-50.56 98.74,-39.26 107.42,-30.58"/>
<polygon fill="midnightblue" stroke="midnightblue" points="75.2,-57.85 70.6,-67.4 80.15,-62.8 75.2,-57.85"/>
</g>
<!-- Node3 -->
<g id="node3" class="node">
<title>Node3</title>
<g id="a_node3"><a xlink:href="structmn_1_1pointer_1_1pointer__ptr.html" target="_top" xlink:title=" ">
<polygon fill="white" stroke="black" points="131,-67.5 131,-97.5 244,-97.5 244,-67.5 131,-67.5"/>
<text text-anchor="start" x="139" y="-85.5" font-family="Helvetica,sans-Serif" font-size="10.00">mn::pointer::pointer</text>
<text text-anchor="middle" x="187.5" y="-74.5" font-family="Helvetica,sans-Serif" font-size="10.00">_ptr&lt; T &gt;</text>
</a>
</g>
</g>
<!-- Node3&#45;&gt;Node1 -->
<g id="edge2" class="edge">
<title>Node3&#45;&gt;Node1</title>
<path fill="none" stroke="#8b1a1a" d="M165.99,-60.31C156.09,-50.56 144.61,-39.26 135.79,-30.58"/>
<polygon fill="#8b1a1a" stroke="#8b1a1a" points="163.6,-62.87 173.18,-67.4 168.51,-57.89 163.6,-62.87"/>
</g>
</g>
</svg>
