<?xml version="1.0" encoding="UTF-8" standalone="no"?>
<!DOCTYPE svg PUBLIC "-//W3C//DTD SVG 1.1//EN"
 "http://www.w3.org/Graphics/SVG/1.1/DTD/svg11.dtd">
<!-- Generated by graphviz version 2.46.0 (0)
 -->
<!-- Title: mn::memory::basic_cap_allocator_esp32&lt; TCAPS, TSBITS &gt; Pages: 1 -->
<svg width="152pt" height="117pt"
 viewBox="0.00 0.00 152.00 117.00" xmlns="http://www.w3.org/2000/svg" xmlns:xlink="http://www.w3.org/1999/xlink">
<g id="graph0" class="graph" transform="scale(1 1) rotate(0) translate(4 113)">
<title>mn::memory::basic_cap_allocator_esp32&lt; TCAPS, TSBITS &gt;</title>
<polygon fill="white" stroke="transparent" points="-4,4 -4,-113 148,-113 148,4 -4,4"/>
<!-- Node1 -->
<g id="node1" class="node">
<title>Node1</title>
<g id="a_node1"><a xlink:title=" ">
<polygon fill="#bfbfbf" stroke="black" points="0,-0.5 0,-41.5 144,-41.5 144,-0.5 0,-0.5"/>
<text text-anchor="start" x="8" y="-29.5" font-family="Helvetica,sans-Serif" font-size="10.00">mn::memory::basic_cap</text>
<text text-anchor="start" x="8" y="-18.5" font-family="Helvetica,sans-Serif" font-size="10.00">_allocator_esp32&lt; TCAPS,</text>
<text text-anchor="middle" x="72" y="-7.5" font-family="Helvetica,sans-Serif" font-size="10.00"> TSBITS &gt;</text>
</a>
</g>
</g>
<!-- Node2 -->
<g id="node2" class="node">
<title>Node2</title>
<g id="a_node2"><a xlink:href="classmn_1_1memory_1_1allocator__interface.html" target="_top" xlink:title="A basic abstractet interface for all allocator in the library.">
<polygon fill="white" stroke="black" points="8,-78.5 8,-108.5 136,-108.5 136,-78.5 8,-78.5"/>
<text text-anchor="start" x="16" y="-96.5" font-family="Helvetica,sans-Serif" font-size="10.00">mn::memory::allocator</text>
<text text-anchor="middle" x="72" y="-85.5" font-family="Helvetica,sans-Serif" font-size="10.00">_interface</text>
</a>
</g>
</g>
<!-- Node2&#45;&gt;Node1 -->
<g id="edge1" class="edge">
<title>Node2&#45;&gt;Node1</title>
<path fill="none" stroke="midnightblue" d="M72,-67.98C72,-59.35 72,-49.76 72,-41.59"/>
<polygon fill="midnightblue" stroke="midnightblue" points="68.5,-68.23 72,-78.23 75.5,-68.23 68.5,-68.23"/>
</g>
</g>
</svg>
