<?xml version="1.0" encoding="UTF-8" standalone="no"?>
<!DOCTYPE svg PUBLIC "-//W3C//DTD SVG 1.1//EN"
 "http://www.w3.org/Graphics/SVG/1.1/DTD/svg11.dtd">
<!-- Generated by graphviz version 2.47.1 (0)
 -->
<!-- Title: mn::container::basic_ring_buffer&lt; T, TCAPACITY, TLOCK &gt; Pages: 1 -->
<svg width="168pt" height="288pt"
 viewBox="0.00 0.00 168.00 288.00" xmlns="http://www.w3.org/2000/svg" xmlns:xlink="http://www.w3.org/1999/xlink">
<g id="graph0" class="graph" transform="scale(1 1) rotate(0) translate(4 284)">
<title>mn::container::basic_ring_buffer&lt; T, TCAPACITY, TLOCK &gt;</title>
<polygon fill="white" stroke="transparent" points="-4,4 -4,-284 164,-284 164,4 -4,4"/>
<!-- Node1 -->
<g id="node1" class="node">
<title>Node1</title>
<g id="a_node1"><a xlink:title="A basic ring buffer with iterator.">
<polygon fill="#bfbfbf" stroke="black" points="3.5,-0.5 3.5,-41.5 156.5,-41.5 156.5,-0.5 3.5,-0.5"/>
<text text-anchor="start" x="11.5" y="-29.5" font-family="Helvetica,sans-Serif" font-size="10.00">mn::container::basic</text>
<text text-anchor="start" x="11.5" y="-18.5" font-family="Helvetica,sans-Serif" font-size="10.00">_ring_buffer&lt; T, TCAPACITY,</text>
<text text-anchor="middle" x="80" y="-7.5" font-family="Helvetica,sans-Serif" font-size="10.00"> TLOCK &gt;</text>
</a>
</g>
</g>
<!-- Node2 -->
<g id="node2" class="node">
<title>Node2</title>
<g id="a_node2"><a xlink:href="classmn_1_1basic__binary__semaphore.html" target="_top" xlink:title=" ">
<polygon fill="white" stroke="black" points="0,-89.5 0,-108.5 160,-108.5 160,-89.5 0,-89.5"/>
<text text-anchor="middle" x="80" y="-96.5" font-family="Helvetica,sans-Serif" font-size="10.00">mn::basic_binary_semaphore</text>
</a>
</g>
</g>
<!-- Node2&#45;&gt;Node1 -->
<g id="edge1" class="edge">
<title>Node2&#45;&gt;Node1</title>
<path fill="none" stroke="#9a32cd" stroke-dasharray="5,2" d="M80,-79.14C80,-67.73 80,-53.21 80,-41.66"/>
<polygon fill="#9a32cd" stroke="#9a32cd" points="76.5,-79.28 80,-89.28 83.5,-79.28 76.5,-79.28"/>
<text text-anchor="middle" x="115" y="-63" font-family="Helvetica,sans-Serif" font-size="10.00"> m_lockObject</text>
</g>
<!-- Node3 -->
<g id="node3" class="node">
<title>Node3</title>
<g id="a_node3"><a xlink:href="classmn_1_1basic__semaphore.html" target="_top" xlink:title=" ">
<polygon fill="white" stroke="black" points="18,-146.5 18,-165.5 142,-165.5 142,-146.5 18,-146.5"/>
<text text-anchor="middle" x="80" y="-153.5" font-family="Helvetica,sans-Serif" font-size="10.00">mn::basic_semaphore</text>
</a>
</g>
</g>
<!-- Node3&#45;&gt;Node2 -->
<g id="edge2" class="edge">
<title>Node3&#45;&gt;Node2</title>
<path fill="none" stroke="midnightblue" d="M80,-136.12C80,-126.82 80,-116.06 80,-108.71"/>
<polygon fill="midnightblue" stroke="midnightblue" points="76.5,-136.41 80,-146.41 83.5,-136.41 76.5,-136.41"/>
</g>
<!-- Node4 -->
<g id="node4" class="node">
<title>Node4</title>
<g id="a_node4"><a xlink:href="classmn_1_1ILockObject.html" target="_top" xlink:title=" ">
<polygon fill="white" stroke="black" points="32.5,-203.5 32.5,-222.5 127.5,-222.5 127.5,-203.5 32.5,-203.5"/>
<text text-anchor="middle" x="80" y="-210.5" font-family="Helvetica,sans-Serif" font-size="10.00">mn::ILockObject</text>
</a>
</g>
</g>
<!-- Node4&#45;&gt;Node3 -->
<g id="edge3" class="edge">
<title>Node4&#45;&gt;Node3</title>
<path fill="none" stroke="midnightblue" d="M80,-193.12C80,-183.82 80,-173.06 80,-165.71"/>
<polygon fill="midnightblue" stroke="midnightblue" points="76.5,-193.41 80,-203.41 83.5,-193.41 76.5,-193.41"/>
</g>
<!-- Node5 -->
<g id="node5" class="node">
<title>Node5</title>
<g id="a_node5"><a xlink:title=" ">
<polygon fill="white" stroke="#bfbfbf" points="14.5,-260.5 14.5,-279.5 145.5,-279.5 145.5,-260.5 14.5,-260.5"/>
<text text-anchor="middle" x="80" y="-267.5" font-family="Helvetica,sans-Serif" font-size="10.00">MN_ONSIGLETN_CLASS</text>
</a>
</g>
</g>
<!-- Node5&#45;&gt;Node4 -->
<g id="edge4" class="edge">
<title>Node5&#45;&gt;Node4</title>
<path fill="none" stroke="#8b1a1a" d="M80,-250.12C80,-240.82 80,-230.06 80,-222.71"/>
<polygon fill="#8b1a1a" stroke="#8b1a1a" points="76.5,-250.41 80,-260.41 83.5,-250.41 76.5,-250.41"/>
</g>
</g>
</svg>
