<?xml version="1.0" encoding="UTF-8" standalone="no"?>
<!DOCTYPE svg PUBLIC "-//W3C//DTD SVG 1.1//EN"
 "http://www.w3.org/Graphics/SVG/1.1/DTD/svg11.dtd">
<!-- Generated by graphviz version 2.46.0 (0)
 -->
<!-- Title: test_tasklet_task Pages: 1 -->
<svg width="530pt" height="379pt"
 viewBox="0.00 0.00 529.50 379.00" xmlns="http://www.w3.org/2000/svg" xmlns:xlink="http://www.w3.org/1999/xlink">
<g id="graph0" class="graph" transform="scale(1 1) rotate(0) translate(4 375)">
<title>test_tasklet_task</title>
<polygon fill="white" stroke="transparent" points="-4,4 -4,-375 525.5,-375 525.5,4 -4,4"/>
<!-- Node1 -->
<g id="node1" class="node">
<title>Node1</title>
<g id="a_node1"><a xlink:title=" ">
<polygon fill="#bfbfbf" stroke="black" points="158,-0.5 158,-19.5 259,-19.5 259,-0.5 158,-0.5"/>
<text text-anchor="middle" x="208.5" y="-7.5" font-family="Helvetica,sans-Serif" font-size="10.00">test_tasklet_task</text>
</a>
</g>
</g>
<!-- Node2 -->
<g id="node2" class="node">
<title>Node2</title>
<g id="a_node2"><a xlink:href="classmn_1_1basic__task.html" target="_top" xlink:title="Wrapper class around FreeRTOS&#39;s implementation of a task.">
<polygon fill="white" stroke="black" points="231.5,-125.5 231.5,-144.5 321.5,-144.5 321.5,-125.5 231.5,-125.5"/>
<text text-anchor="middle" x="276.5" y="-132.5" font-family="Helvetica,sans-Serif" font-size="10.00">mn::basic_task</text>
</a>
</g>
</g>
<!-- Node2&#45;&gt;Node1 -->
<g id="edge1" class="edge">
<title>Node2&#45;&gt;Node1</title>
<path fill="none" stroke="midnightblue" d="M270.08,-115.94C262.58,-96.01 249.06,-63.38 232.5,-38 228.25,-31.49 222.49,-24.95 217.67,-19.94"/>
<polygon fill="midnightblue" stroke="midnightblue" points="266.8,-117.16 273.52,-125.35 273.37,-114.75 266.8,-117.16"/>
</g>
<!-- Node2&#45;&gt;Node2 -->
<g id="edge3" class="edge">
<title>Node2&#45;&gt;Node2</title>
<path fill="none" stroke="#9a32cd" stroke-dasharray="5,2" d="M331.76,-139.1C336.53,-138.23 339.5,-136.86 339.5,-135 339.5,-132.02 331.89,-130.31 321.52,-129.87"/>
<polygon fill="#9a32cd" stroke="#9a32cd" points="331.12,-135.65 321.52,-140.13 331.82,-142.61 331.12,-135.65"/>
<text text-anchor="middle" x="365.5" y="-138" font-family="Helvetica,sans-Serif" font-size="10.00"> m_pChild</text>
<text text-anchor="middle" x="365.5" y="-127" font-family="Helvetica,sans-Serif" font-size="10.00">m_pParent</text>
</g>
<!-- Node3 -->
<g id="node3" class="node">
<title>Node3</title>
<g id="a_node3"><a xlink:href="classmn_1_1basic__event__group.html" target="_top" xlink:title=" ">
<polygon fill="white" stroke="black" points="391.5,-221 391.5,-240 521.5,-240 521.5,-221 391.5,-221"/>
<text text-anchor="middle" x="456.5" y="-228" font-family="Helvetica,sans-Serif" font-size="10.00">mn::basic_event_group</text>
</a>
</g>
</g>
<!-- Node3&#45;&gt;Node2 -->
<g id="edge2" class="edge">
<title>Node3&#45;&gt;Node2</title>
<path fill="none" stroke="#9a32cd" stroke-dasharray="5,2" d="M444.26,-212.36C432.63,-197.35 413.79,-176.1 392.5,-164 370.89,-151.71 344.05,-144.79 321.63,-140.91"/>
<polygon fill="#9a32cd" stroke="#9a32cd" points="441.74,-214.84 450.53,-220.76 447.35,-210.66 441.74,-214.84"/>
<text text-anchor="middle" x="452.5" y="-178" font-family="Helvetica,sans-Serif" font-size="10.00"> m_event</text>
</g>
<!-- Node4 -->
<g id="node4" class="node">
<title>Node4</title>
<g id="a_node4"><a xlink:href="classmn_1_1basic__binary__semaphore.html" target="_top" xlink:title=" ">
<polygon fill="white" stroke="black" points="129.5,-221 129.5,-240 289.5,-240 289.5,-221 129.5,-221"/>
<text text-anchor="middle" x="209.5" y="-228" font-family="Helvetica,sans-Serif" font-size="10.00">mn::basic_binary_semaphore</text>
</a>
</g>
</g>
<!-- Node4&#45;&gt;Node2 -->
<g id="edge4" class="edge">
<title>Node4&#45;&gt;Node2</title>
<path fill="none" stroke="#9a32cd" stroke-dasharray="5,2" d="M205.8,-210.94C204.05,-196.83 204.07,-177.59 213.5,-164 219.78,-154.95 229.68,-148.79 239.79,-144.61"/>
<polygon fill="#9a32cd" stroke="#9a32cd" points="202.37,-211.65 207.43,-220.96 209.28,-210.52 202.37,-211.65"/>
<text text-anchor="middle" x="258.5" y="-189" font-family="Helvetica,sans-Serif" font-size="10.00"> m_contextMutext</text>
<text text-anchor="middle" x="258.5" y="-178" font-family="Helvetica,sans-Serif" font-size="10.00">m_continuemutex</text>
<text text-anchor="middle" x="258.5" y="-167" font-family="Helvetica,sans-Serif" font-size="10.00">m_runningMutex</text>
</g>
<!-- Node5 -->
<g id="node5" class="node">
<title>Node5</title>
<g id="a_node5"><a xlink:href="classmn_1_1basic__semaphore.html" target="_top" xlink:title=" ">
<polygon fill="white" stroke="black" points="102.5,-289 102.5,-308 226.5,-308 226.5,-289 102.5,-289"/>
<text text-anchor="middle" x="164.5" y="-296" font-family="Helvetica,sans-Serif" font-size="10.00">mn::basic_semaphore</text>
</a>
</g>
</g>
<!-- Node5&#45;&gt;Node4 -->
<g id="edge5" class="edge">
<title>Node5&#45;&gt;Node4</title>
<path fill="none" stroke="midnightblue" d="M176.13,-280.44C184.88,-267.61 196.51,-250.56 203.47,-240.34"/>
<polygon fill="midnightblue" stroke="midnightblue" points="173.12,-278.64 170.38,-288.87 178.91,-282.58 173.12,-278.64"/>
</g>
<!-- Node11 -->
<g id="node11" class="node">
<title>Node11</title>
<g id="a_node11"><a xlink:href="classmn_1_1basic__counting__semaphore.html" target="_top" xlink:title=" ">
<polygon fill="white" stroke="black" points="0,-215.5 0,-245.5 111,-245.5 111,-215.5 0,-215.5"/>
<text text-anchor="start" x="8" y="-233.5" font-family="Helvetica,sans-Serif" font-size="10.00">mn::basic_counting</text>
<text text-anchor="middle" x="55.5" y="-222.5" font-family="Helvetica,sans-Serif" font-size="10.00">_semaphore</text>
</a>
</g>
</g>
<!-- Node5&#45;&gt;Node11 -->
<g id="edge12" class="edge">
<title>Node5&#45;&gt;Node11</title>
<path fill="none" stroke="midnightblue" d="M141.62,-283.65C123.22,-272.51 97.47,-256.91 78.92,-245.68"/>
<polygon fill="midnightblue" stroke="midnightblue" points="139.88,-286.69 150.25,-288.87 143.51,-280.7 139.88,-286.69"/>
</g>
<!-- Node6 -->
<g id="node6" class="node">
<title>Node6</title>
<g id="a_node6"><a xlink:href="classmn_1_1_i_lock_object.html" target="_top" xlink:title=" ">
<polygon fill="white" stroke="black" points="117,-351.5 117,-370.5 212,-370.5 212,-351.5 117,-351.5"/>
<text text-anchor="middle" x="164.5" y="-358.5" font-family="Helvetica,sans-Serif" font-size="10.00">mn::ILockObject</text>
</a>
</g>
</g>
<!-- Node6&#45;&gt;Node5 -->
<g id="edge6" class="edge">
<title>Node6&#45;&gt;Node5</title>
<path fill="none" stroke="midnightblue" d="M164.5,-341C164.5,-330 164.5,-316.68 164.5,-308.15"/>
<polygon fill="midnightblue" stroke="midnightblue" points="161,-341.33 164.5,-351.33 168,-341.33 161,-341.33"/>
</g>
<!-- Node7 -->
<g id="node7" class="node">
<title>Node7</title>
<g id="a_node7"><a xlink:title=" ">
<polygon fill="white" stroke="#bfbfbf" points="308,-221 308,-240 373,-240 373,-221 308,-221"/>
<text text-anchor="middle" x="340.5" y="-228" font-family="Helvetica,sans-Serif" font-size="10.00">std::string</text>
</a>
</g>
</g>
<!-- Node7&#45;&gt;Node2 -->
<g id="edge7" class="edge">
<title>Node7&#45;&gt;Node2</title>
<path fill="none" stroke="#9a32cd" stroke-dasharray="5,2" d="M333.59,-211.53C327.8,-197.75 318.7,-178.69 307.5,-164 301.96,-156.73 294.36,-149.84 288.08,-144.71"/>
<polygon fill="#9a32cd" stroke="#9a32cd" points="330.36,-212.89 337.34,-220.86 336.86,-210.28 330.36,-212.89"/>
<text text-anchor="middle" x="358" y="-178" font-family="Helvetica,sans-Serif" font-size="10.00"> m_strName</text>
</g>
<!-- Node8 -->
<g id="node8" class="node">
<title>Node8</title>
<g id="a_node8"><a xlink:title=" ">
<polygon fill="white" stroke="#bfbfbf" points="288.5,-283.5 288.5,-313.5 392.5,-313.5 392.5,-283.5 288.5,-283.5"/>
<text text-anchor="start" x="296.5" y="-301.5" font-family="Helvetica,sans-Serif" font-size="10.00">std::basic_string&lt;</text>
<text text-anchor="middle" x="340.5" y="-290.5" font-family="Helvetica,sans-Serif" font-size="10.00"> Char &gt;</text>
</a>
</g>
</g>
<!-- Node8&#45;&gt;Node7 -->
<g id="edge8" class="edge">
<title>Node8&#45;&gt;Node7</title>
<path fill="none" stroke="midnightblue" d="M340.5,-272.88C340.5,-261.47 340.5,-248.64 340.5,-240.33"/>
<polygon fill="midnightblue" stroke="midnightblue" points="337,-273.18 340.5,-283.18 344,-273.18 337,-273.18"/>
</g>
<!-- Node9 -->
<g id="node9" class="node">
<title>Node9</title>
<g id="a_node9"><a xlink:href="classtest__tasklet.html" target="_top" xlink:title=" ">
<polygon fill="white" stroke="black" points="132.5,-67.5 132.5,-86.5 206.5,-86.5 206.5,-67.5 132.5,-67.5"/>
<text text-anchor="middle" x="169.5" y="-74.5" font-family="Helvetica,sans-Serif" font-size="10.00">test_tasklet</text>
</a>
</g>
</g>
<!-- Node9&#45;&gt;Node1 -->
<g id="edge9" class="edge">
<title>Node9&#45;&gt;Node1</title>
<path fill="none" stroke="#9a32cd" stroke-dasharray="5,2" d="M168.57,-56.83C169.01,-50.5 170.35,-43.65 173.5,-38 177.77,-30.36 185.17,-24.17 192.08,-19.66"/>
<polygon fill="#9a32cd" stroke="#9a32cd" points="165.07,-57.26 168.54,-67.27 172.07,-57.28 165.07,-57.26"/>
<text text-anchor="middle" x="203" y="-41" font-family="Helvetica,sans-Serif" font-size="10.00"> m_testTask</text>
</g>
<!-- Node10 -->
<g id="node10" class="node">
<title>Node10</title>
<g id="a_node10"><a xlink:href="classmn_1_1basic__tasklet.html" target="_top" xlink:title=" ">
<polygon fill="white" stroke="black" points="126,-125.5 126,-144.5 185,-144.5 185,-125.5 126,-125.5"/>
<text text-anchor="middle" x="155.5" y="-132.5" font-family="Helvetica,sans-Serif" font-size="10.00">tasklet_t</text>
</a>
</g>
</g>
<!-- Node10&#45;&gt;Node9 -->
<g id="edge10" class="edge">
<title>Node10&#45;&gt;Node9</title>
<path fill="none" stroke="midnightblue" d="M160.18,-115.27C162.62,-105.53 165.47,-94.11 167.37,-86.51"/>
<polygon fill="midnightblue" stroke="midnightblue" points="156.72,-114.7 157.69,-125.25 163.51,-116.4 156.72,-114.7"/>
</g>
<!-- Node11&#45;&gt;Node10 -->
<g id="edge11" class="edge">
<title>Node11&#45;&gt;Node10</title>
<path fill="none" stroke="#9a32cd" stroke-dasharray="5,2" d="M78.11,-208.36C99.57,-188.29 130.78,-159.12 146.18,-144.71"/>
<polygon fill="#9a32cd" stroke="#9a32cd" points="75.6,-205.91 70.69,-215.3 80.38,-211.03 75.6,-205.91"/>
<text text-anchor="middle" x="149.5" y="-178" font-family="Helvetica,sans-Serif" font-size="10.00"> m_ssLock</text>
</g>
</g>
</svg>
