<?xml version="1.0" encoding="UTF-8" standalone="no"?>
<!DOCTYPE svg PUBLIC "-//W3C//DTD SVG 1.1//EN"
 "http://www.w3.org/Graphics/SVG/1.1/DTD/svg11.dtd">
<!-- Generated by graphviz version 2.46.0 (0)
 -->
<!-- Title: mn::net::basic_dgram_ip_socket Pages: 1 -->
<svg width="374pt" height="309pt"
 viewBox="0.00 0.00 374.00 309.00" xmlns="http://www.w3.org/2000/svg" xmlns:xlink="http://www.w3.org/1999/xlink">
<g id="graph0" class="graph" transform="scale(1 1) rotate(0) translate(4 305)">
<title>mn::net::basic_dgram_ip_socket</title>
<polygon fill="white" stroke="transparent" points="-4,4 -4,-305 370,-305 370,4 -4,4"/>
<!-- Node1 -->
<g id="node1" class="node">
<title>Node1</title>
<g id="a_node1"><a xlink:title=" ">
<polygon fill="#bfbfbf" stroke="black" points="188.5,-0.5 188.5,-30.5 310.5,-30.5 310.5,-0.5 188.5,-0.5"/>
<text text-anchor="start" x="196.5" y="-18.5" font-family="Helvetica,sans-Serif" font-size="10.00">mn::net::basic_dgram</text>
<text text-anchor="middle" x="249.5" y="-7.5" font-family="Helvetica,sans-Serif" font-size="10.00">_ip_socket</text>
</a>
</g>
</g>
<!-- Node2 -->
<g id="node2" class="node">
<title>Node2</title>
<g id="a_node2"><a xlink:href="classmn_1_1net_1_1basic__ip4__socket.html" target="_top" xlink:title=" ">
<polygon fill="white" stroke="black" points="170.5,-68.5 170.5,-87.5 238.5,-87.5 238.5,-68.5 170.5,-68.5"/>
<text text-anchor="middle" x="204.5" y="-75.5" font-family="Helvetica,sans-Serif" font-size="10.00">ip4_socket</text>
</a>
</g>
</g>
<!-- Node2&#45;&gt;Node1 -->
<g id="edge1" class="edge">
<title>Node2&#45;&gt;Node1</title>
<path fill="none" stroke="midnightblue" d="M216.96,-60.25C223.85,-50.99 232.32,-39.6 238.89,-30.76"/>
<polygon fill="midnightblue" stroke="midnightblue" points="214.11,-58.22 210.95,-68.33 219.72,-62.4 214.11,-58.22"/>
</g>
<!-- Node3 -->
<g id="node3" class="node">
<title>Node3</title>
<g id="a_node3"><a xlink:href="classmn_1_1net_1_1basic__ip__socket.html" target="_top" xlink:title="Wrapper class around lwip implementation of a socket.">
<polygon fill="white" stroke="black" points="0,-141 0,-160 137,-160 137,-141 0,-141"/>
<text text-anchor="middle" x="68.5" y="-148" font-family="Helvetica,sans-Serif" font-size="10.00">mn::net::basic_ip_socket</text>
</a>
</g>
</g>
<!-- Node3&#45;&gt;Node2 -->
<g id="edge2" class="edge">
<title>Node3&#45;&gt;Node2</title>
<path fill="none" stroke="midnightblue" d="M93.94,-136.31C121.49,-122.03 164.62,-99.67 188.04,-87.53"/>
<polygon fill="midnightblue" stroke="midnightblue" points="92.17,-133.29 84.9,-141 95.39,-139.5 92.17,-133.29"/>
</g>
<!-- Node4 -->
<g id="node4" class="node">
<title>Node4</title>
<g id="a_node4"><a xlink:href="classmn_1_1net_1_1basic__ip4__endpoint.html" target="_top" xlink:title=" ">
<polygon fill="white" stroke="black" points="155.5,-135.5 155.5,-165.5 261.5,-165.5 261.5,-135.5 155.5,-135.5"/>
<text text-anchor="start" x="163.5" y="-153.5" font-family="Helvetica,sans-Serif" font-size="10.00">mn::net::basic_ip4</text>
<text text-anchor="middle" x="208.5" y="-142.5" font-family="Helvetica,sans-Serif" font-size="10.00">_endpoint</text>
</a>
</g>
</g>
<!-- Node4&#45;&gt;Node2 -->
<g id="edge3" class="edge">
<title>Node4&#45;&gt;Node2</title>
<path fill="none" stroke="#9a32cd" stroke-dasharray="5,2" d="M206.07,-125.09C205.85,-122.36 205.66,-119.62 205.5,-117 204.91,-106.99 204.67,-95.47 204.57,-87.76"/>
<polygon fill="#9a32cd" stroke="#9a32cd" points="202.61,-125.63 206.98,-135.28 209.58,-125.01 202.61,-125.63"/>
<text text-anchor="middle" x="239" y="-109" font-family="Helvetica,sans-Serif" font-size="10.00"> m_pEndPoint</text>
</g>
<!-- Node5 -->
<g id="node5" class="node">
<title>Node5</title>
<g id="a_node5"><a xlink:href="classmn_1_1net_1_1basic__endpoint.html" target="_top" xlink:title=" ">
<polygon fill="white" stroke="black" points="89.5,-219 89.5,-238 223.5,-238 223.5,-219 89.5,-219"/>
<text text-anchor="middle" x="156.5" y="-226" font-family="Helvetica,sans-Serif" font-size="10.00">mn::net::basic_endpoint</text>
</a>
</g>
</g>
<!-- Node5&#45;&gt;Node4 -->
<g id="edge4" class="edge">
<title>Node5&#45;&gt;Node4</title>
<path fill="none" stroke="midnightblue" d="M168.22,-210.37C177.48,-196.83 190.25,-178.17 198.91,-165.52"/>
<polygon fill="midnightblue" stroke="midnightblue" points="165.22,-208.55 162.47,-218.78 171,-212.51 165.22,-208.55"/>
</g>
<!-- Node6 -->
<g id="node6" class="node">
<title>Node6</title>
<g id="a_node6"><a xlink:href="classmn_1_1net_1_1basic__ip4__address.html" target="_top" xlink:title="Class for the Internet Protocal version 4.">
<polygon fill="white" stroke="black" points="241.5,-213.5 241.5,-243.5 347.5,-243.5 347.5,-213.5 241.5,-213.5"/>
<text text-anchor="start" x="249.5" y="-231.5" font-family="Helvetica,sans-Serif" font-size="10.00">mn::net::basic_ip4</text>
<text text-anchor="middle" x="294.5" y="-220.5" font-family="Helvetica,sans-Serif" font-size="10.00">_address</text>
</a>
</g>
</g>
<!-- Node6&#45;&gt;Node1 -->
<g id="edge7" class="edge">
<title>Node6&#45;&gt;Node1</title>
<path fill="none" stroke="#9a32cd" stroke-dasharray="5,2" d="M290.65,-203.32C286.61,-178.73 279.84,-139.57 272.5,-106 266.64,-79.2 258.35,-48.27 253.48,-30.68"/>
<polygon fill="#9a32cd" stroke="#9a32cd" points="287.2,-203.91 292.26,-213.22 294.11,-202.79 287.2,-203.91"/>
<text text-anchor="middle" x="311.5" y="-109" font-family="Helvetica,sans-Serif" font-size="10.00"> m_ipMultiCast</text>
</g>
<!-- Node6&#45;&gt;Node4 -->
<g id="edge5" class="edge">
<title>Node6&#45;&gt;Node4</title>
<path fill="none" stroke="#9a32cd" stroke-dasharray="5,2" d="M235.3,-208.36C229.39,-204.64 223.95,-200.23 219.5,-195 212.64,-186.93 209.96,-175.16 208.96,-165.89"/>
<polygon fill="#9a32cd" stroke="#9a32cd" points="233.78,-211.52 244.22,-213.33 237.18,-205.41 233.78,-211.52"/>
<text text-anchor="middle" x="250" y="-187" font-family="Helvetica,sans-Serif" font-size="10.00"> m_ipAdress</text>
</g>
<!-- Node7 -->
<g id="node7" class="node">
<title>Node7</title>
<g id="a_node7"><a xlink:href="classmn_1_1net_1_1basic__ip__address.html" target="_top" xlink:title="Wrapper class around lwip implementation of a ip address.">
<polygon fill="white" stroke="black" points="223,-281.5 223,-300.5 366,-300.5 366,-281.5 223,-281.5"/>
<text text-anchor="middle" x="294.5" y="-288.5" font-family="Helvetica,sans-Serif" font-size="10.00">mn::net::basic_ip_address</text>
</a>
</g>
</g>
<!-- Node7&#45;&gt;Node6 -->
<g id="edge6" class="edge">
<title>Node7&#45;&gt;Node6</title>
<path fill="none" stroke="midnightblue" d="M294.5,-271.22C294.5,-262.36 294.5,-251.96 294.5,-243.76"/>
<polygon fill="midnightblue" stroke="midnightblue" points="291,-271.33 294.5,-281.33 298,-271.33 291,-271.33"/>
</g>
</g>
</svg>
