<?xml version="1.0" encoding="UTF-8" standalone="no"?>
<!DOCTYPE svg PUBLIC "-//W3C//DTD SVG 1.1//EN"
 "http://www.w3.org/Graphics/SVG/1.1/DTD/svg11.dtd">
<!-- Generated by graphviz version 2.46.0 (0)
 -->
<!-- Title: mn::basic_semaphore Pages: 1 -->
<svg width="467pt" height="154pt"
 viewBox="0.00 0.00 467.00 154.00" xmlns="http://www.w3.org/2000/svg" xmlns:xlink="http://www.w3.org/1999/xlink">
<g id="graph0" class="graph" transform="scale(1 1) rotate(0) translate(4 150)">
<title>mn::basic_semaphore</title>
<polygon fill="white" stroke="transparent" points="-4,4 -4,-150 463,-150 463,4 -4,4"/>
<!-- Node1 -->
<g id="node1" class="node">
<title>Node1</title>
<g id="a_node1"><a xlink:title=" ">
<polygon fill="#bfbfbf" stroke="black" points="131,-66.5 131,-85.5 255,-85.5 255,-66.5 131,-66.5"/>
<text text-anchor="middle" x="193" y="-73.5" font-family="Helvetica,sans-Serif" font-size="10.00">mn::basic_semaphore</text>
</a>
</g>
</g>
<!-- Node3 -->
<g id="node3" class="node">
<title>Node3</title>
<g id="a_node3"><a xlink:href="classmn_1_1basic__binary__semaphore.html" target="_top" xlink:title=" ">
<polygon fill="white" stroke="black" points="295,-126.5 295,-145.5 455,-145.5 455,-126.5 295,-126.5"/>
<text text-anchor="middle" x="375" y="-133.5" font-family="Helvetica,sans-Serif" font-size="10.00">mn::basic_binary_semaphore</text>
</a>
</g>
</g>
<!-- Node1&#45;&gt;Node3 -->
<g id="edge2" class="edge">
<title>Node1&#45;&gt;Node3</title>
<path fill="none" stroke="midnightblue" d="M222.98,-89.82C242,-98.5 267.59,-109.44 291,-117 302.11,-120.59 314.27,-123.77 325.77,-126.46"/>
<polygon fill="midnightblue" stroke="midnightblue" points="224.22,-86.54 213.68,-85.52 221.28,-92.9 224.22,-86.54"/>
</g>
<!-- Node4 -->
<g id="node4" class="node">
<title>Node4</title>
<g id="a_node4"><a xlink:href="classmn_1_1basic__clock.html" target="_top" xlink:title=" ">
<polygon fill="white" stroke="black" points="291,-88.5 291,-107.5 459,-107.5 459,-88.5 291,-88.5"/>
<text text-anchor="middle" x="375" y="-95.5" font-family="Helvetica,sans-Serif" font-size="10.00">mn::basic_clock&lt; TLockType &gt;</text>
</a>
</g>
</g>
<!-- Node1&#45;&gt;Node4 -->
<g id="edge3" class="edge">
<title>Node1&#45;&gt;Node4</title>
<path fill="none" stroke="midnightblue" d="M265.2,-84.7C275.35,-85.94 285.82,-87.22 296.09,-88.48"/>
<polygon fill="midnightblue" stroke="midnightblue" points="265.54,-81.22 255.19,-83.48 264.69,-88.17 265.54,-81.22"/>
</g>
<!-- Node5 -->
<g id="node5" class="node">
<title>Node5</title>
<g id="a_node5"><a xlink:href="classmn_1_1basic__counting__semaphore.html" target="_top" xlink:title=" ">
<polygon fill="white" stroke="black" points="319.5,-39 319.5,-69 430.5,-69 430.5,-39 319.5,-39"/>
<text text-anchor="start" x="327.5" y="-57" font-family="Helvetica,sans-Serif" font-size="10.00">mn::basic_counting</text>
<text text-anchor="middle" x="375" y="-46" font-family="Helvetica,sans-Serif" font-size="10.00">_semaphore</text>
</a>
</g>
</g>
<!-- Node1&#45;&gt;Node5 -->
<g id="edge4" class="edge">
<title>Node1&#45;&gt;Node5</title>
<path fill="none" stroke="midnightblue" d="M265.34,-67.28C283.3,-65.09 302.31,-62.76 319.32,-60.68"/>
<polygon fill="midnightblue" stroke="midnightblue" points="264.69,-63.83 255.19,-68.52 265.54,-70.78 264.69,-63.83"/>
</g>
<!-- Node6 -->
<g id="node6" class="node">
<title>Node6</title>
<g id="a_node6"><a xlink:href="classmn_1_1basic__mutex.html" target="_top" xlink:title=" ">
<polygon fill="white" stroke="black" points="324.5,-0.5 324.5,-19.5 425.5,-19.5 425.5,-0.5 324.5,-0.5"/>
<text text-anchor="middle" x="375" y="-7.5" font-family="Helvetica,sans-Serif" font-size="10.00">mn::basic_mutex</text>
</a>
</g>
</g>
<!-- Node1&#45;&gt;Node6 -->
<g id="edge5" class="edge">
<title>Node1&#45;&gt;Node6</title>
<path fill="none" stroke="midnightblue" d="M219.66,-61.59C238.83,-51.31 265.93,-37.81 291,-29 301.6,-25.27 313.22,-22.08 324.32,-19.44"/>
<polygon fill="midnightblue" stroke="midnightblue" points="217.78,-58.62 210.67,-66.48 221.13,-64.77 217.78,-58.62"/>
</g>
<!-- Node2 -->
<g id="node2" class="node">
<title>Node2</title>
<g id="a_node2"><a xlink:href="classmn_1_1_i_lock_object.html" target="_top" xlink:title=" ">
<polygon fill="white" stroke="black" points="0,-66.5 0,-85.5 95,-85.5 95,-66.5 0,-66.5"/>
<text text-anchor="middle" x="47.5" y="-73.5" font-family="Helvetica,sans-Serif" font-size="10.00">mn::ILockObject</text>
</a>
</g>
</g>
<!-- Node2&#45;&gt;Node1 -->
<g id="edge1" class="edge">
<title>Node2&#45;&gt;Node1</title>
<path fill="none" stroke="midnightblue" d="M105.16,-76C113.57,-76 122.26,-76 130.75,-76"/>
<polygon fill="midnightblue" stroke="midnightblue" points="105.09,-72.5 95.09,-76 105.09,-79.5 105.09,-72.5"/>
</g>
</g>
</svg>
