<?xml version="1.0" encoding="UTF-8" standalone="no"?>
<!DOCTYPE svg PUBLIC "-//W3C//DTD SVG 1.1//EN"
 "http://www.w3.org/Graphics/SVG/1.1/DTD/svg11.dtd">
<!-- Generated by graphviz version 2.46.0 (0)
 -->
<!-- Title: mn::queue::basic_work_queue_single Pages: 1 -->
<svg width="565pt" height="398pt"
 viewBox="0.00 0.00 565.00 398.00" xmlns="http://www.w3.org/2000/svg" xmlns:xlink="http://www.w3.org/1999/xlink">
<g id="graph0" class="graph" transform="scale(1 1) rotate(0) translate(4 394)">
<title>mn::queue::basic_work_queue_single</title>
<polygon fill="white" stroke="transparent" points="-4,4 -4,-394 561,-394 561,4 -4,4"/>
<!-- Node1 -->
<g id="node1" class="node">
<title>Node1</title>
<g id="a_node1"><a xlink:title=" ">
<polygon fill="#bfbfbf" stroke="black" points="225.5,-0.5 225.5,-30.5 354.5,-30.5 354.5,-0.5 225.5,-0.5"/>
<text text-anchor="start" x="233.5" y="-18.5" font-family="Helvetica,sans-Serif" font-size="10.00">mn::queue::basic_work</text>
<text text-anchor="middle" x="290" y="-7.5" font-family="Helvetica,sans-Serif" font-size="10.00">_queue_single</text>
</a>
</g>
</g>
<!-- Node2 -->
<g id="node2" class="node">
<title>Node2</title>
<g id="a_node2"><a xlink:href="classmn_1_1queue_1_1basic__work__queue.html" target="_top" xlink:title=" ">
<polygon fill="white" stroke="black" points="286.5,-145.5 286.5,-175.5 415.5,-175.5 415.5,-145.5 286.5,-145.5"/>
<text text-anchor="start" x="294.5" y="-163.5" font-family="Helvetica,sans-Serif" font-size="10.00">mn::queue::basic_work</text>
<text text-anchor="middle" x="351" y="-152.5" font-family="Helvetica,sans-Serif" font-size="10.00">_queue</text>
</a>
</g>
</g>
<!-- Node2&#45;&gt;Node1 -->
<g id="edge1" class="edge">
<title>Node2&#45;&gt;Node1</title>
<path fill="none" stroke="midnightblue" d="M349.02,-135.19C346.23,-111.77 339.6,-76.02 324,-49 320.08,-42.21 314.32,-35.94 308.65,-30.76"/>
<polygon fill="midnightblue" stroke="midnightblue" points="345.56,-135.72 350.08,-145.3 352.52,-134.99 345.56,-135.72"/>
</g>
<!-- Node7 -->
<g id="node7" class="node">
<title>Node7</title>
<g id="a_node7"><a xlink:href="classmn_1_1queue_1_1work__queue__task.html" target="_top" xlink:title=" ">
<polygon fill="white" stroke="black" points="150,-78.5 150,-97.5 310,-97.5 310,-78.5 150,-78.5"/>
<text text-anchor="middle" x="230" y="-85.5" font-family="Helvetica,sans-Serif" font-size="10.00">mn::queue::work_queue_task</text>
</a>
</g>
</g>
<!-- Node2&#45;&gt;Node7 -->
<g id="edge13" class="edge">
<title>Node2&#45;&gt;Node7</title>
<path fill="none" stroke="#9a32cd" stroke-dasharray="5,2" d="M276.62,-143.05C254.12,-137.36 234.4,-131.32 231,-127 224.47,-118.7 225.71,-105.93 227.56,-97.52"/>
<polygon fill="#9a32cd" stroke="#9a32cd" points="275.85,-146.47 286.4,-145.47 277.53,-139.67 275.85,-146.47"/>
<text text-anchor="middle" x="284" y="-119" font-family="Helvetica,sans-Serif" font-size="10.00"> m_parentWorkQueue</text>
</g>
<!-- Node3 -->
<g id="node3" class="node">
<title>Node3</title>
<g id="a_node3"><a xlink:href="classmn_1_1basic__mutex.html" target="_top" xlink:title=" ">
<polygon fill="white" stroke="black" points="281.5,-245.5 281.5,-264.5 382.5,-264.5 382.5,-245.5 281.5,-245.5"/>
<text text-anchor="middle" x="332" y="-252.5" font-family="Helvetica,sans-Serif" font-size="10.00">mn::basic_mutex</text>
</a>
</g>
</g>
<!-- Node3&#45;&gt;Node2 -->
<g id="edge2" class="edge">
<title>Node3&#45;&gt;Node2</title>
<path fill="none" stroke="#9a32cd" stroke-dasharray="5,2" d="M335.79,-235.54C339.41,-217.92 344.79,-191.75 348.08,-175.7"/>
<polygon fill="#9a32cd" stroke="#9a32cd" points="332.34,-234.96 333.75,-245.46 339.19,-236.37 332.34,-234.96"/>
<text text-anchor="middle" x="385" y="-213.5" font-family="Helvetica,sans-Serif" font-size="10.00"> m_ThreadJob</text>
<text text-anchor="middle" x="385" y="-202.5" font-family="Helvetica,sans-Serif" font-size="10.00">m_ThreadStatus</text>
</g>
<!-- Node4 -->
<g id="node4" class="node">
<title>Node4</title>
<g id="a_node4"><a xlink:href="classmn_1_1basic__semaphore.html" target="_top" xlink:title=" ">
<polygon fill="white" stroke="black" points="196,-308 196,-327 320,-327 320,-308 196,-308"/>
<text text-anchor="middle" x="258" y="-315" font-family="Helvetica,sans-Serif" font-size="10.00">mn::basic_semaphore</text>
</a>
</g>
</g>
<!-- Node4&#45;&gt;Node3 -->
<g id="edge3" class="edge">
<title>Node4&#45;&gt;Node3</title>
<path fill="none" stroke="midnightblue" d="M276.69,-301.22C290.84,-289.65 309.78,-274.17 321.42,-264.65"/>
<polygon fill="midnightblue" stroke="midnightblue" points="274.13,-298.79 268.6,-307.83 278.56,-304.21 274.13,-298.79"/>
</g>
<!-- Node9 -->
<g id="node9" class="node">
<title>Node9</title>
<g id="a_node9"><a xlink:href="classmn_1_1basic__binary__semaphore.html" target="_top" xlink:title=" ">
<polygon fill="white" stroke="black" points="103,-245.5 103,-264.5 263,-264.5 263,-245.5 103,-245.5"/>
<text text-anchor="middle" x="183" y="-252.5" font-family="Helvetica,sans-Serif" font-size="10.00">mn::basic_binary_semaphore</text>
</a>
</g>
</g>
<!-- Node4&#45;&gt;Node9 -->
<g id="edge10" class="edge">
<title>Node4&#45;&gt;Node9</title>
<path fill="none" stroke="midnightblue" d="M239.46,-301.55C225.08,-289.94 205.64,-274.26 193.73,-264.65"/>
<polygon fill="midnightblue" stroke="midnightblue" points="237.27,-304.28 247.25,-307.83 241.67,-298.83 237.27,-304.28"/>
</g>
<!-- Node5 -->
<g id="node5" class="node">
<title>Node5</title>
<g id="a_node5"><a xlink:href="classmn_1_1_i_lock_object.html" target="_top" xlink:title=" ">
<polygon fill="white" stroke="black" points="210.5,-370.5 210.5,-389.5 305.5,-389.5 305.5,-370.5 210.5,-370.5"/>
<text text-anchor="middle" x="258" y="-377.5" font-family="Helvetica,sans-Serif" font-size="10.00">mn::ILockObject</text>
</a>
</g>
</g>
<!-- Node5&#45;&gt;Node4 -->
<g id="edge4" class="edge">
<title>Node5&#45;&gt;Node4</title>
<path fill="none" stroke="midnightblue" d="M258,-360C258,-349 258,-335.68 258,-327.15"/>
<polygon fill="midnightblue" stroke="midnightblue" points="254.5,-360.33 258,-370.33 261.5,-360.33 254.5,-360.33"/>
</g>
<!-- Node6 -->
<g id="node6" class="node">
<title>Node6</title>
<g id="a_node6"><a xlink:href="classmn_1_1queue_1_1basic__queue.html" target="_top" xlink:title="Queue class wrapper for FreeRTOS queues.">
<polygon fill="white" stroke="black" points="400.5,-245.5 400.5,-264.5 535.5,-264.5 535.5,-245.5 400.5,-245.5"/>
<text text-anchor="middle" x="468" y="-252.5" font-family="Helvetica,sans-Serif" font-size="10.00">mn::queue::basic_queue</text>
</a>
</g>
</g>
<!-- Node6&#45;&gt;Node2 -->
<g id="edge5" class="edge">
<title>Node6&#45;&gt;Node2</title>
<path fill="none" stroke="#9a32cd" stroke-dasharray="5,2" d="M459.98,-236.06C453.31,-222.91 442.71,-205.42 429,-194 419.87,-186.39 408.71,-180.35 397.72,-175.64"/>
<polygon fill="#9a32cd" stroke="#9a32cd" points="457,-237.96 464.46,-245.49 463.32,-234.95 457,-237.96"/>
<text text-anchor="middle" x="505.5" y="-208" font-family="Helvetica,sans-Serif" font-size="10.00"> m_pWorkItemQueue</text>
</g>
<!-- Node7&#45;&gt;Node1 -->
<g id="edge6" class="edge">
<title>Node7&#45;&gt;Node1</title>
<path fill="none" stroke="#9a32cd" stroke-dasharray="5,2" d="M244.13,-70.39C254.44,-58.28 268.25,-42.05 278.02,-30.58"/>
<polygon fill="#9a32cd" stroke="#9a32cd" points="241.17,-68.47 237.36,-78.36 246.5,-73.01 241.17,-68.47"/>
<text text-anchor="middle" x="291" y="-52" font-family="Helvetica,sans-Serif" font-size="10.00"> m_pWorker</text>
</g>
<!-- Node8 -->
<g id="node8" class="node">
<title>Node8</title>
<g id="a_node8"><a xlink:href="classmn_1_1basic__task.html" target="_top" xlink:title="Wrapper class around FreeRTOS&#39;s implementation of a task.">
<polygon fill="white" stroke="black" points="108,-151 108,-170 198,-170 198,-151 108,-151"/>
<text text-anchor="middle" x="153" y="-158" font-family="Helvetica,sans-Serif" font-size="10.00">mn::basic_task</text>
</a>
</g>
</g>
<!-- Node8&#45;&gt;Node7 -->
<g id="edge7" class="edge">
<title>Node8&#45;&gt;Node7</title>
<path fill="none" stroke="midnightblue" d="M169.84,-144.08C185.36,-129.87 207.86,-109.27 220.48,-97.72"/>
<polygon fill="midnightblue" stroke="midnightblue" points="167.45,-141.52 162.44,-150.86 172.18,-146.68 167.45,-141.52"/>
</g>
<!-- Node8&#45;&gt;Node8 -->
<g id="edge8" class="edge">
<title>Node8&#45;&gt;Node8</title>
<path fill="none" stroke="#9a32cd" stroke-dasharray="5,2" d="M208.26,-166.07C213.03,-164.88 216,-163.03 216,-160.5 216,-156.46 208.39,-154.13 198.02,-153.53"/>
<polygon fill="#9a32cd" stroke="#9a32cd" points="207.45,-162.64 198.02,-167.47 208.4,-169.58 207.45,-162.64"/>
<text text-anchor="middle" x="242" y="-163.5" font-family="Helvetica,sans-Serif" font-size="10.00"> m_pChild</text>
<text text-anchor="middle" x="242" y="-152.5" font-family="Helvetica,sans-Serif" font-size="10.00">m_pParent</text>
</g>
<!-- Node9&#45;&gt;Node8 -->
<g id="edge9" class="edge">
<title>Node9&#45;&gt;Node8</title>
<path fill="none" stroke="#9a32cd" stroke-dasharray="5,2" d="M177.07,-235.72C170.62,-215.82 160.58,-184.87 155.76,-170.02"/>
<polygon fill="#9a32cd" stroke="#9a32cd" points="173.82,-237.03 180.23,-245.46 180.48,-234.87 173.82,-237.03"/>
<text text-anchor="middle" x="220" y="-219" font-family="Helvetica,sans-Serif" font-size="10.00"> m_contextMutext</text>
<text text-anchor="middle" x="220" y="-208" font-family="Helvetica,sans-Serif" font-size="10.00">m_continuemutex</text>
<text text-anchor="middle" x="220" y="-197" font-family="Helvetica,sans-Serif" font-size="10.00">m_runningMutex</text>
</g>
<!-- Node10 -->
<g id="node10" class="node">
<title>Node10</title>
<g id="a_node10"><a xlink:title=" ">
<polygon fill="white" stroke="#bfbfbf" points="19.5,-245.5 19.5,-264.5 84.5,-264.5 84.5,-245.5 19.5,-245.5"/>
<text text-anchor="middle" x="52" y="-252.5" font-family="Helvetica,sans-Serif" font-size="10.00">std::string</text>
</a>
</g>
</g>
<!-- Node10&#45;&gt;Node8 -->
<g id="edge11" class="edge">
<title>Node10&#45;&gt;Node8</title>
<path fill="none" stroke="#9a32cd" stroke-dasharray="5,2" d="M62.77,-237.07C71.49,-224.23 84.64,-206.7 99,-194 109.82,-184.43 123.84,-176.09 134.88,-170.25"/>
<polygon fill="#9a32cd" stroke="#9a32cd" points="59.83,-235.17 57.25,-245.45 65.67,-239.02 59.83,-235.17"/>
<text text-anchor="middle" x="129.5" y="-208" font-family="Helvetica,sans-Serif" font-size="10.00"> m_strName</text>
</g>
<!-- Node11 -->
<g id="node11" class="node">
<title>Node11</title>
<g id="a_node11"><a xlink:title=" ">
<polygon fill="white" stroke="#bfbfbf" points="0,-302.5 0,-332.5 104,-332.5 104,-302.5 0,-302.5"/>
<text text-anchor="start" x="8" y="-320.5" font-family="Helvetica,sans-Serif" font-size="10.00">std::basic_string&lt;</text>
<text text-anchor="middle" x="52" y="-309.5" font-family="Helvetica,sans-Serif" font-size="10.00"> Char &gt;</text>
</a>
</g>
</g>
<!-- Node11&#45;&gt;Node10 -->
<g id="edge12" class="edge">
<title>Node11&#45;&gt;Node10</title>
<path fill="none" stroke="midnightblue" d="M52,-292.35C52,-282.51 52,-271.78 52,-264.54"/>
<polygon fill="midnightblue" stroke="midnightblue" points="48.5,-292.47 52,-302.47 55.5,-292.47 48.5,-292.47"/>
</g>
</g>
</svg>
