<?xml version="1.0" encoding="UTF-8" standalone="no"?>
<!DOCTYPE svg PUBLIC "-//W3C//DTD SVG 1.1//EN"
 "http://www.w3.org/Graphics/SVG/1.1/DTD/svg11.dtd">
<!-- Generated by graphviz version 2.44.1 (0)
 -->
<!-- Title: basic_work_queue_multi Pages: 1 -->
<!--zoomable 456 -->
<svg id="main" version="1.1" xmlns="http://www.w3.org/2000/svg" xmlns:xlink="http://www.w3.org/1999/xlink" xml:space="preserve" onload="init(evt)">
<style type="text/css"><![CDATA[
.edge:hover path { stroke: red; }
.edge:hover polygon { stroke: red; fill: red; }
]]></style>
<script type="text/javascript"><![CDATA[
var edges = document.getElementsByTagName('g');
if (edges && edges.length) {
  for (var i=0;i<edges.length;i++) {
    if (edges[i].id.substr(0,4)=='edge') {
      edges[i].setAttribute('class','edge');
    }
  }
}
]]></script>
        <defs>
                <circle id="rim" cx="0" cy="0" r="7"/>
                <circle id="rim2" cx="0" cy="0" r="3.5"/>
                <g id="zoomPlus">
                        <use xlink:href="#rim" fill="#404040">
                                <set attributeName="fill" to="#808080" begin="zoomplus.mouseover" end="zoomplus.mouseout"/>
                        </use>
                        <path d="M-4,0h8M0,-4v8" fill="none" stroke="white" stroke-width="1.5" pointer-events="none"/>
                </g>
                <g id="zoomMin">
                        <use xlink:href="#rim" fill="#404040">
                                <set attributeName="fill" to="#808080" begin="zoomminus.mouseover" end="zoomminus.mouseout"/>
                        </use>
                        <path d="M-4,0h8" fill="none" stroke="white" stroke-width="1.5" pointer-events="none"/>
                </g>
                <g id="dirArrow">
                        <path fill="none" stroke="white" stroke-width="1.5" d="M0,-3.0v7 M-2.5,-0.5L0,-3.0L2.5,-0.5"/>
                </g>
               <g id="resetDef">
                       <use xlink:href="#rim2" fill="#404040">
                               <set attributeName="fill" to="#808080" begin="reset.mouseover" end="reset.mouseout"/>
                       </use>
               </g>
        </defs>

<script type="text/javascript">
var viewWidth = 596;
var viewHeight = 456;
var sectionId = 'dynsection-1';
</script>
<script xlink:href="svgpan.js"/>
<svg id="graph" class="graph">
<g id="viewport">
<title>basic_work_queue_multi</title>
<polygon fill="white" stroke="transparent" points="-4,4 -4,-452 592,-452 592,4 -4,4"/>
<!-- Node1 -->
<g id="node1" class="node">
<title>Node1</title>
<g id="a_node1"><a xlink:title=" ">
<polygon fill="#bfbfbf" stroke="black" points="273.5,-0.5 273.5,-19.5 410.5,-19.5 410.5,-0.5 273.5,-0.5"/>
<text text-anchor="middle" x="342" y="-7.5" font-family="Helvetica,sans-Serif" font-size="10.00">basic_work_queue_multi</text>
</a>
</g>
</g>
<!-- Node2 -->
<g id="node2" class="node">
<title>Node2</title>
<g id="a_node2"><a xlink:href="classbasic__work__queue.html" target="_top" xlink:title=" ">
<polygon fill="white" stroke="black" points="337.5,-213.5 337.5,-232.5 444.5,-232.5 444.5,-213.5 337.5,-213.5"/>
<text text-anchor="middle" x="391" y="-220.5" font-family="Helvetica,sans-Serif" font-size="10.00">basic_work_queue</text>
</a>
</g>
</g>
<!-- Node2&#45;&gt;Node1 -->
<g id="edge1" class="edge">
<title>Node2&#45;&gt;Node1</title>
<path fill="none" stroke="midnightblue" d="M394.34,-203.05C399.52,-168.06 406.11,-91.95 377,-38 372.85,-30.3 365.45,-24.1 358.52,-19.6"/>
<polygon fill="midnightblue" stroke="midnightblue" points="390.83,-202.82 392.69,-213.25 397.74,-203.94 390.83,-202.82"/>
</g>
<!-- Node8 -->
<g id="node8" class="node">
<title>Node8</title>
<g id="a_node8"><a xlink:href="classwork__queue__task.html" target="_top" xlink:title=" ">
<polygon fill="white" stroke="black" points="219,-145.5 219,-164.5 321,-164.5 321,-145.5 219,-145.5"/>
<text text-anchor="middle" x="270" y="-152.5" font-family="Helvetica,sans-Serif" font-size="10.00">work_queue_task</text>
</a>
</g>
</g>
<!-- Node2&#45;&gt;Node8 -->
<g id="edge15" class="edge">
<title>Node2&#45;&gt;Node8</title>
<path fill="none" stroke="#9a32cd" stroke-dasharray="5,2" d="M327.32,-214.26C302.7,-209.86 278.6,-203.33 271,-194 264.33,-185.82 265.61,-173.02 267.5,-164.57"/>
<polygon fill="#9a32cd" stroke="#9a32cd" points="327.05,-217.76 337.49,-215.96 328.2,-210.86 327.05,-217.76"/>
<text text-anchor="middle" x="324" y="-186" font-family="Helvetica,sans-Serif" font-size="10.00"> m_parentWorkQueue</text>
</g>
<!-- Node3 -->
<g id="node3" class="node">
<title>Node3</title>
<g id="a_node3"><a xlink:href="classbasic__mutex.html" target="_top" xlink:title=" ">
<polygon fill="white" stroke="black" points="469.5,-303.5 469.5,-322.5 548.5,-322.5 548.5,-303.5 469.5,-303.5"/>
<text text-anchor="middle" x="509" y="-310.5" font-family="Helvetica,sans-Serif" font-size="10.00">basic_mutex</text>
</a>
</g>
</g>
<!-- Node3&#45;&gt;Node2 -->
<g id="edge2" class="edge">
<title>Node3&#45;&gt;Node2</title>
<path fill="none" stroke="#9a32cd" stroke-dasharray="5,2" d="M509.41,-293.05C508.65,-279.89 505.47,-262.83 495,-252 481.81,-238.36 462.73,-231.13 444.5,-227.38"/>
<polygon fill="#9a32cd" stroke="#9a32cd" points="505.91,-293.42 509.56,-303.37 512.91,-293.32 505.91,-293.42"/>
<text text-anchor="middle" x="548" y="-271.5" font-family="Helvetica,sans-Serif" font-size="10.00"> m_ThreadJob</text>
<text text-anchor="middle" x="548" y="-260.5" font-family="Helvetica,sans-Serif" font-size="10.00">m_ThreadStatus</text>
</g>
<!-- Node4 -->
<g id="node4" class="node">
<title>Node4</title>
<g id="a_node4"><a xlink:href="classbasic__semaphore.html" target="_top" xlink:title=" ">
<polygon fill="white" stroke="black" points="343,-366 343,-385 445,-385 445,-366 343,-366"/>
<text text-anchor="middle" x="394" y="-373" font-family="Helvetica,sans-Serif" font-size="10.00">basic_semaphore</text>
</a>
</g>
</g>
<!-- Node4&#45;&gt;Node3 -->
<g id="edge3" class="edge">
<title>Node4&#45;&gt;Node3</title>
<path fill="none" stroke="midnightblue" d="M419.38,-361.15C441.67,-349.42 473.44,-332.71 492.55,-322.65"/>
<polygon fill="midnightblue" stroke="midnightblue" points="417.7,-358.08 410.48,-365.83 420.96,-364.27 417.7,-358.08"/>
</g>
<!-- Node11 -->
<g id="node11" class="node">
<title>Node11</title>
<g id="a_node11"><a xlink:href="classbasic__binary__semaphore.html" target="_top" xlink:title=" ">
<polygon fill="white" stroke="black" points="210,-303.5 210,-322.5 348,-322.5 348,-303.5 210,-303.5"/>
<text text-anchor="middle" x="279" y="-310.5" font-family="Helvetica,sans-Serif" font-size="10.00">basic_binary_semaphore</text>
</a>
</g>
</g>
<!-- Node4&#45;&gt;Node11 -->
<g id="edge11" class="edge">
<title>Node4&#45;&gt;Node11</title>
<path fill="none" stroke="midnightblue" d="M368.62,-361.15C346.33,-349.42 314.56,-332.71 295.45,-322.65"/>
<polygon fill="midnightblue" stroke="midnightblue" points="367.04,-364.27 377.52,-365.83 370.3,-358.08 367.04,-364.27"/>
</g>
<!-- Node5 -->
<g id="node5" class="node">
<title>Node5</title>
<g id="a_node5"><a xlink:href="class_i_lock_object.html" target="_top" xlink:title=" ">
<polygon fill="white" stroke="black" points="357,-428.5 357,-447.5 431,-447.5 431,-428.5 357,-428.5"/>
<text text-anchor="middle" x="394" y="-435.5" font-family="Helvetica,sans-Serif" font-size="10.00">ILockObject</text>
</a>
</g>
</g>
<!-- Node5&#45;&gt;Node4 -->
<g id="edge4" class="edge">
<title>Node5&#45;&gt;Node4</title>
<path fill="none" stroke="midnightblue" d="M394,-418C394,-407 394,-393.68 394,-385.15"/>
<polygon fill="midnightblue" stroke="midnightblue" points="390.5,-418.33 394,-428.33 397.5,-418.33 390.5,-418.33"/>
</g>
<!-- Node6 -->
<g id="node6" class="node">
<title>Node6</title>
<g id="a_node6"><a xlink:href="classbasic__queue.html" target="_top" xlink:title=" ">
<polygon fill="white" stroke="black" points="366.5,-303.5 366.5,-322.5 443.5,-322.5 443.5,-303.5 366.5,-303.5"/>
<text text-anchor="middle" x="405" y="-310.5" font-family="Helvetica,sans-Serif" font-size="10.00">basic_queue</text>
</a>
</g>
</g>
<!-- Node6&#45;&gt;Node2 -->
<g id="edge5" class="edge">
<title>Node6&#45;&gt;Node2</title>
<path fill="none" stroke="#9a32cd" stroke-dasharray="5,2" d="M395.2,-294.39C393.89,-291.34 392.74,-288.14 392,-285 387.7,-266.86 388.84,-244.83 389.97,-232.83"/>
<polygon fill="#9a32cd" stroke="#9a32cd" points="392.07,-295.96 399.65,-303.36 398.34,-292.85 392.07,-295.96"/>
<text text-anchor="middle" x="443.5" y="-266" font-family="Helvetica,sans-Serif" font-size="10.00"> m_pWorkItemQueue</text>
</g>
<!-- Node7 -->
<g id="node7" class="node">
<title>Node7</title>
<g id="a_node7"><a xlink:title=" ">
<polygon fill="white" stroke="#bfbfbf" points="217.5,-67.5 217.5,-97.5 356.5,-97.5 356.5,-67.5 217.5,-67.5"/>
<text text-anchor="start" x="225.5" y="-85.5" font-family="Helvetica,sans-Serif" font-size="10.00">std::vector&lt; work_queue</text>
<text text-anchor="middle" x="287" y="-74.5" font-family="Helvetica,sans-Serif" font-size="10.00">_task * &gt;</text>
</a>
</g>
</g>
<!-- Node7&#45;&gt;Node1 -->
<g id="edge6" class="edge">
<title>Node7&#45;&gt;Node1</title>
<path fill="none" stroke="#9a32cd" stroke-dasharray="5,2" d="M303.08,-59.01C308.08,-52.18 313.68,-44.72 319,-38 323.89,-31.82 329.64,-25.07 334.17,-19.87"/>
<polygon fill="#9a32cd" stroke="#9a32cd" points="300.17,-57.05 297.13,-67.2 305.83,-61.17 300.17,-57.05"/>
<text text-anchor="middle" x="348" y="-41" font-family="Helvetica,sans-Serif" font-size="10.00"> m_Workers</text>
</g>
<!-- Node8&#45;&gt;Node7 -->
<g id="edge7" class="edge">
<title>Node8&#45;&gt;Node7</title>
<path fill="none" stroke="#9a32cd" stroke-dasharray="5,2" d="M274.44,-135.6C277.3,-123.72 280.97,-108.49 283.61,-97.58"/>
<polygon fill="#9a32cd" stroke="#9a32cd" points="271.03,-134.81 272.08,-145.36 277.83,-136.45 271.03,-134.81"/>
<text text-anchor="middle" x="304.5" y="-119" font-family="Helvetica,sans-Serif" font-size="10.00"> elements</text>
</g>
<!-- Node9 -->
<g id="node9" class="node">
<title>Node9</title>
<g id="a_node9"><a xlink:href="classbasic__task.html" target="_top" xlink:title=" ">
<polygon fill="white" stroke="black" points="161,-213.5 161,-232.5 229,-232.5 229,-213.5 161,-213.5"/>
<text text-anchor="middle" x="195" y="-220.5" font-family="Helvetica,sans-Serif" font-size="10.00">basic_task</text>
</a>
</g>
</g>
<!-- Node9&#45;&gt;Node8 -->
<g id="edge8" class="edge">
<title>Node9&#45;&gt;Node8</title>
<path fill="none" stroke="midnightblue" d="M212.71,-206.41C227.45,-193.45 247.89,-175.46 259.95,-164.84"/>
<polygon fill="midnightblue" stroke="midnightblue" points="210,-204.14 204.8,-213.37 214.62,-209.39 210,-204.14"/>
</g>
<!-- Node9&#45;&gt;Node9 -->
<g id="edge14" class="edge">
<title>Node9&#45;&gt;Node9</title>
<path fill="none" stroke="#9a32cd" stroke-dasharray="5,2" d="M239.15,-228.33C243.92,-227.31 247,-225.53 247,-223 247,-218.95 239.13,-216.83 229.01,-216.64"/>
<polygon fill="#9a32cd" stroke="#9a32cd" points="238.6,-224.87 229.01,-229.36 239.31,-231.83 238.6,-224.87"/>
<text text-anchor="middle" x="273" y="-226" font-family="Helvetica,sans-Serif" font-size="10.00"> m_pChild</text>
<text text-anchor="middle" x="273" y="-215" font-family="Helvetica,sans-Serif" font-size="10.00">m_pParent</text>
</g>
<!-- Node10 -->
<g id="node10" class="node">
<title>Node10</title>
<g id="a_node10"><a xlink:href="classbasic__event__group.html" target="_top" xlink:title=" ">
<polygon fill="white" stroke="black" points="0,-303.5 0,-322.5 108,-322.5 108,-303.5 0,-303.5"/>
<text text-anchor="middle" x="54" y="-310.5" font-family="Helvetica,sans-Serif" font-size="10.00">basic_event_group</text>
</a>
</g>
</g>
<!-- Node10&#45;&gt;Node9 -->
<g id="edge9" class="edge">
<title>Node10&#45;&gt;Node9</title>
<path fill="none" stroke="#9a32cd" stroke-dasharray="5,2" d="M68.89,-295.67C81.67,-282.44 101.11,-264.09 121,-252 134.62,-243.73 151.09,-237.2 165.03,-232.54"/>
<polygon fill="#9a32cd" stroke="#9a32cd" points="66.17,-293.46 61.86,-303.13 71.26,-298.25 66.17,-293.46"/>
<text text-anchor="middle" x="144" y="-266" font-family="Helvetica,sans-Serif" font-size="10.00"> m_event</text>
</g>
<!-- Node11&#45;&gt;Node9 -->
<g id="edge10" class="edge">
<title>Node11&#45;&gt;Node9</title>
<path fill="none" stroke="#9a32cd" stroke-dasharray="5,2" d="M273.22,-293.53C268.41,-280.62 260.5,-263.67 249,-252 240.7,-243.58 229.32,-237.16 219.16,-232.61"/>
<polygon fill="#9a32cd" stroke="#9a32cd" points="269.98,-294.89 276.53,-303.22 276.61,-292.63 269.98,-294.89"/>
<text text-anchor="middle" x="315" y="-277" font-family="Helvetica,sans-Serif" font-size="10.00"> m_contextMutext</text>
<text text-anchor="middle" x="315" y="-266" font-family="Helvetica,sans-Serif" font-size="10.00">m_continuemutex</text>
<text text-anchor="middle" x="315" y="-255" font-family="Helvetica,sans-Serif" font-size="10.00">m_runningMutex</text>
</g>
<!-- Node12 -->
<g id="node12" class="node">
<title>Node12</title>
<g id="a_node12"><a xlink:title="STL class.">
<polygon fill="white" stroke="#bfbfbf" points="126.5,-303.5 126.5,-322.5 191.5,-322.5 191.5,-303.5 126.5,-303.5"/>
<text text-anchor="middle" x="159" y="-310.5" font-family="Helvetica,sans-Serif" font-size="10.00">std::string</text>
</a>
</g>
</g>
<!-- Node12&#45;&gt;Node9 -->
<g id="edge12" class="edge">
<title>Node12&#45;&gt;Node9</title>
<path fill="none" stroke="#9a32cd" stroke-dasharray="5,2" d="M166.46,-293.77C174.1,-275.09 185.65,-246.87 191.43,-232.72"/>
<polygon fill="#9a32cd" stroke="#9a32cd" points="163.13,-292.66 162.58,-303.24 169.61,-295.31 163.13,-292.66"/>
<text text-anchor="middle" x="214.5" y="-266" font-family="Helvetica,sans-Serif" font-size="10.00"> m_strName</text>
</g>
<!-- Node13 -->
<g id="node13" class="node">
<title>Node13</title>
<g id="a_node13"><a xlink:title="STL class.">
<polygon fill="white" stroke="#bfbfbf" points="107,-360.5 107,-390.5 211,-390.5 211,-360.5 107,-360.5"/>
<text text-anchor="start" x="115" y="-378.5" font-family="Helvetica,sans-Serif" font-size="10.00">std::basic_string&lt;</text>
<text text-anchor="middle" x="159" y="-367.5" font-family="Helvetica,sans-Serif" font-size="10.00"> char &gt;</text>
</a>
</g>
</g>
<!-- Node13&#45;&gt;Node12 -->
<g id="edge13" class="edge">
<title>Node13&#45;&gt;Node12</title>
<path fill="none" stroke="midnightblue" d="M159,-350.35C159,-340.51 159,-329.78 159,-322.54"/>
<polygon fill="midnightblue" stroke="midnightblue" points="155.5,-350.47 159,-360.47 162.5,-350.47 155.5,-350.47"/>
</g>
</g>
</svg>
        <g id="navigator" transform="translate(0 0)" fill="#404254">
                <rect fill="#f2f5e9" fill-opacity="0.5" stroke="#606060" stroke-width=".5" x="0" y="0" width="60" height="60"/>
                <use id="zoomplus" xlink:href="#zoomPlus" x="17" y="9" onmousedown="handleZoom(evt,'in')"/>
                <use id="zoomminus" xlink:href="#zoomMin" x="42" y="9" onmousedown="handleZoom(evt,'out')"/>
                <use id="reset" xlink:href="#resetDef" x="30" y="36" onmousedown="handleReset()"/>
                <g id="arrowUp" xlink:href="#dirArrow" transform="translate(30 24)" onmousedown="handlePan(0,-1)">
                  <use xlink:href="#rim" fill="#404040">
                        <set attributeName="fill" to="#808080" begin="arrowUp.mouseover" end="arrowUp.mouseout"/>
                  </use>
                  <path fill="none" stroke="white" stroke-width="1.5" d="M0,-3.0v7 M-2.5,-0.5L0,-3.0L2.5,-0.5"/>
                </g>
                <g id="arrowRight" xlink:href="#dirArrow" transform="rotate(90) translate(36 -43)" onmousedown="handlePan(1,0)">
                  <use xlink:href="#rim" fill="#404040">
                        <set attributeName="fill" to="#808080" begin="arrowRight.mouseover" end="arrowRight.mouseout"/>
                  </use>
                  <path fill="none" stroke="white" stroke-width="1.5" d="M0,-3.0v7 M-2.5,-0.5L0,-3.0L2.5,-0.5"/>
                </g>
                <g id="arrowDown" xlink:href="#dirArrow" transform="rotate(180) translate(-30 -48)" onmousedown="handlePan(0,1)">
                  <use xlink:href="#rim" fill="#404040">
                        <set attributeName="fill" to="#808080" begin="arrowDown.mouseover" end="arrowDown.mouseout"/>
                  </use>
                  <path fill="none" stroke="white" stroke-width="1.5" d="M0,-3.0v7 M-2.5,-0.5L0,-3.0L2.5,-0.5"/>
                </g>
                <g id="arrowLeft" xlink:href="#dirArrow" transform="rotate(270) translate(-36 17)" onmousedown="handlePan(-1,0)">
                  <use xlink:href="#rim" fill="#404040">
                        <set attributeName="fill" to="#808080" begin="arrowLeft.mouseover" end="arrowLeft.mouseout"/>
                  </use>
                  <path fill="none" stroke="white" stroke-width="1.5" d="M0,-3.0v7 M-2.5,-0.5L0,-3.0L2.5,-0.5"/>
                </g>
        </g>
        <svg viewBox="0 0 15 15" width="100%" height="30px" preserveAspectRatio="xMaxYMin meet">
         <g id="arrow_out" transform="scale(0.3 0.3)">
          <a xlink:href="classbasic__work__queue__multi__coll__graph_org.svg" target="_base">
           <rect id="button" ry="5" rx="5" y="6" x="6" height="38" width="38"
                fill="#f2f5e9" fill-opacity="0.5" stroke="#606060" stroke-width="1.0"/>
           <path id="arrow"
             d="M 11.500037,31.436501 C 11.940474,20.09759 22.043105,11.32322 32.158766,21.979434 L 37.068811,17.246167 C 37.068811,17.246167 37.088388,32 37.088388,32 L 22.160133,31.978069 C 22.160133,31.978069 26.997745,27.140456 26.997745,27.140456 C 18.528582,18.264221 13.291696,25.230495 11.500037,31.436501 z"
             style="fill:#404040;"/>
          </a>
         </g>
        </svg>
</svg>
