<?xml version="1.0" encoding="UTF-8" standalone="no"?>
<!DOCTYPE svg PUBLIC "-//W3C//DTD SVG 1.1//EN"
 "http://www.w3.org/Graphics/SVG/1.1/DTD/svg11.dtd">
<!-- Generated by graphviz version 2.47.3 (0)
 -->
<!-- Title: mn::container::basic_multimap&lt; TKEY, TVAL, TAllocator, TComp &gt; Pages: 1 -->
<svg width="186pt" height="184pt"
 viewBox="0.00 0.00 186.00 184.00" xmlns="http://www.w3.org/2000/svg" xmlns:xlink="http://www.w3.org/1999/xlink">
<g id="graph0" class="graph" transform="scale(1 1) rotate(0) translate(4 180)">
<title>mn::container::basic_multimap&lt; TKEY, TVAL, TAllocator, TComp &gt;</title>
<polygon fill="white" stroke="transparent" points="-4,4 -4,-180 182,-180 182,4 -4,4"/>
<!-- Node1 -->
<g id="node1" class="node">
<title>Node1</title>
<g id="a_node1"><a xlink:title="A sorted associative container that may container multiple entries for each key.">
<polygon fill="#bfbfbf" stroke="black" points="20,-0.5 20,-41.5 158,-41.5 158,-0.5 20,-0.5"/>
<text text-anchor="start" x="28" y="-29.5" font-family="Helvetica,sans-Serif" font-size="10.00">mn::container::basic</text>
<text text-anchor="start" x="28" y="-18.5" font-family="Helvetica,sans-Serif" font-size="10.00">_multimap&lt; TKEY, TVAL,</text>
<text text-anchor="middle" x="89" y="-7.5" font-family="Helvetica,sans-Serif" font-size="10.00"> TAllocator, TComp &gt;</text>
</a>
</g>
</g>
<!-- Node2 -->
<g id="node2" class="node">
<title>Node2</title>
<g id="a_node2"><a xlink:href="classmn_1_1container_1_1basic__vector.html" target="_top" xlink:title=" ">
<polygon fill="white" stroke="black" points="28.5,-78.5 28.5,-108.5 149.5,-108.5 149.5,-78.5 28.5,-78.5"/>
<text text-anchor="start" x="36.5" y="-96.5" font-family="Helvetica,sans-Serif" font-size="10.00">vector&lt; pair&lt; TKEY,</text>
<text text-anchor="middle" x="89" y="-85.5" font-family="Helvetica,sans-Serif" font-size="10.00"> TVAL &gt;, TAllocator &gt;</text>
</a>
</g>
</g>
<!-- Node2&#45;&gt;Node1 -->
<g id="edge1" class="edge">
<title>Node2&#45;&gt;Node1</title>
<path fill="none" stroke="midnightblue" d="M89,-67.98C89,-59.35 89,-49.76 89,-41.59"/>
<polygon fill="midnightblue" stroke="midnightblue" points="85.5,-68.23 89,-78.23 92.5,-68.23 85.5,-68.23"/>
</g>
<!-- Node3 -->
<g id="node3" class="node">
<title>Node3</title>
<g id="a_node3"><a xlink:href="structmn_1_1container_1_1basic__vector__storage.html" target="_top" xlink:title=" ">
<polygon fill="white" stroke="black" points="0,-145.5 0,-175.5 178,-175.5 178,-145.5 0,-145.5"/>
<text text-anchor="start" x="8" y="-163.5" font-family="Helvetica,sans-Serif" font-size="10.00">mn::container::basic</text>
<text text-anchor="middle" x="89" y="-152.5" font-family="Helvetica,sans-Serif" font-size="10.00">_vector_storage&lt; T, TAllocator &gt;</text>
</a>
</g>
</g>
<!-- Node3&#45;&gt;Node2 -->
<g id="edge2" class="edge">
<title>Node3&#45;&gt;Node2</title>
<path fill="none" stroke="#8b1a1a" d="M89,-135.11C89,-126.15 89,-116.32 89,-108.58"/>
<polygon fill="#8b1a1a" stroke="#8b1a1a" points="85.5,-135.4 89,-145.4 92.5,-135.4 85.5,-135.4"/>
</g>
</g>
</svg>
