<?xml version="1.0" encoding="UTF-8" standalone="no"?>
<!DOCTYPE svg PUBLIC "-//W3C//DTD SVG 1.1//EN"
 "http://www.w3.org/Graphics/SVG/1.1/DTD/svg11.dtd">
<!-- Generated by graphviz version 2.47.1 (0)
 -->
<!-- Title: mn::auto_release&lt; TRELOBJ, TALLOCATOR &gt; Pages: 1 -->
<svg width="181pt" height="128pt"
 viewBox="0.00 0.00 180.50 128.00" xmlns="http://www.w3.org/2000/svg" xmlns:xlink="http://www.w3.org/1999/xlink">
<g id="graph0" class="graph" transform="scale(1 1) rotate(0) translate(4 124)">
<title>mn::auto_release&lt; TRELOBJ, TALLOCATOR &gt;</title>
<polygon fill="white" stroke="transparent" points="-4,4 -4,-124 176.5,-124 176.5,4 -4,4"/>
<!-- Node1 -->
<g id="node1" class="node">
<title>Node1</title>
<g id="a_node1"><a xlink:title="A simple garbage collector &#45; pool based, a object for this colector must be extends auto_release_obje...">
<polygon fill="#bfbfbf" stroke="black" points="6,-0.5 6,-30.5 163,-30.5 163,-0.5 6,-0.5"/>
<text text-anchor="start" x="14" y="-18.5" font-family="Helvetica,sans-Serif" font-size="10.00">mn::auto_release&lt; TRELOBJ,</text>
<text text-anchor="middle" x="84.5" y="-7.5" font-family="Helvetica,sans-Serif" font-size="10.00"> TALLOCATOR &gt;</text>
</a>
</g>
</g>
<!-- Node2 -->
<g id="node2" class="node">
<title>Node2</title>
<g id="a_node2"><a xlink:href="classmn_1_1container_1_1basic__list.html" target="_top" xlink:title=" ">
<polygon fill="white" stroke="black" points="0,-78.5 0,-119.5 169,-119.5 169,-78.5 0,-78.5"/>
<text text-anchor="start" x="8" y="-107.5" font-family="Helvetica,sans-Serif" font-size="10.00">mn::container::basic</text>
<text text-anchor="start" x="8" y="-96.5" font-family="Helvetica,sans-Serif" font-size="10.00">_list&lt; auto_release_object,</text>
<text text-anchor="middle" x="84.5" y="-85.5" font-family="Helvetica,sans-Serif" font-size="10.00"> memory::default_allocator_t &gt;</text>
</a>
</g>
</g>
<!-- Node2&#45;&gt;Node1 -->
<g id="edge1" class="edge">
<title>Node2&#45;&gt;Node1</title>
<path fill="none" stroke="#9a32cd" stroke-dasharray="5,2" d="M84.5,-68.03C84.5,-55.26 84.5,-40.97 84.5,-30.68"/>
<polygon fill="#9a32cd" stroke="#9a32cd" points="81,-68.27 84.5,-78.27 88,-68.27 81,-68.27"/>
<text text-anchor="middle" x="128.5" y="-52" font-family="Helvetica,sans-Serif" font-size="10.00"> m_listReleaseble</text>
</g>
</g>
</svg>
