<?xml version="1.0" encoding="UTF-8" standalone="no"?>
<!DOCTYPE svg PUBLIC "-//W3C//DTD SVG 1.1//EN"
 "http://www.w3.org/Graphics/SVG/1.1/DTD/svg11.dtd">
<!-- Generated by graphviz version 2.46.0 (0)
 -->
<!-- Title: mn::queue::basic_work_queue_single Pages: 1 -->
<svg width="694pt" height="398pt"
 viewBox="0.00 0.00 694.00 398.00" xmlns="http://www.w3.org/2000/svg" xmlns:xlink="http://www.w3.org/1999/xlink">
<g id="graph0" class="graph" transform="scale(1 1) rotate(0) translate(4 394)">
<title>mn::queue::basic_work_queue_single</title>
<polygon fill="white" stroke="transparent" points="-4,4 -4,-394 690,-394 690,4 -4,4"/>
<!-- Node1 -->
<g id="node1" class="node">
<title>Node1</title>
<g id="a_node1"><a xlink:title=" ">
<polygon fill="#bfbfbf" stroke="black" points="352.5,-0.5 352.5,-30.5 481.5,-30.5 481.5,-0.5 352.5,-0.5"/>
<text text-anchor="start" x="360.5" y="-18.5" font-family="Helvetica,sans-Serif" font-size="10.00">mn::queue::basic_work</text>
<text text-anchor="middle" x="417" y="-7.5" font-family="Helvetica,sans-Serif" font-size="10.00">_queue_single</text>
</a>
</g>
</g>
<!-- Node2 -->
<g id="node2" class="node">
<title>Node2</title>
<g id="a_node2"><a xlink:href="classmn_1_1queue_1_1basic__work__queue.html" target="_top" xlink:title=" ">
<polygon fill="white" stroke="black" points="413.5,-145.5 413.5,-175.5 542.5,-175.5 542.5,-145.5 413.5,-145.5"/>
<text text-anchor="start" x="421.5" y="-163.5" font-family="Helvetica,sans-Serif" font-size="10.00">mn::queue::basic_work</text>
<text text-anchor="middle" x="478" y="-152.5" font-family="Helvetica,sans-Serif" font-size="10.00">_queue</text>
</a>
</g>
</g>
<!-- Node2&#45;&gt;Node1 -->
<g id="edge1" class="edge">
<title>Node2&#45;&gt;Node1</title>
<path fill="none" stroke="midnightblue" d="M476.02,-135.19C473.23,-111.77 466.6,-76.02 451,-49 447.08,-42.21 441.32,-35.94 435.65,-30.76"/>
<polygon fill="midnightblue" stroke="midnightblue" points="472.56,-135.72 477.08,-145.3 479.52,-134.99 472.56,-135.72"/>
</g>
<!-- Node7 -->
<g id="node7" class="node">
<title>Node7</title>
<g id="a_node7"><a xlink:href="classmn_1_1queue_1_1work__queue__task.html" target="_top" xlink:title=" ">
<polygon fill="white" stroke="black" points="277,-78.5 277,-97.5 437,-97.5 437,-78.5 277,-78.5"/>
<text text-anchor="middle" x="357" y="-85.5" font-family="Helvetica,sans-Serif" font-size="10.00">mn::queue::work_queue_task</text>
</a>
</g>
</g>
<!-- Node2&#45;&gt;Node7 -->
<g id="edge14" class="edge">
<title>Node2&#45;&gt;Node7</title>
<path fill="none" stroke="#9a32cd" stroke-dasharray="5,2" d="M403.36,-146.8C382.81,-141.73 364.39,-135.13 358,-127 351.47,-118.7 352.71,-105.93 354.56,-97.52"/>
<polygon fill="#9a32cd" stroke="#9a32cd" points="402.71,-150.24 413.24,-149.09 404.29,-143.42 402.71,-150.24"/>
<text text-anchor="middle" x="411" y="-119" font-family="Helvetica,sans-Serif" font-size="10.00"> m_parentWorkQueue</text>
</g>
<!-- Node3 -->
<g id="node3" class="node">
<title>Node3</title>
<g id="a_node3"><a xlink:href="classmn_1_1basic__mutex.html" target="_top" xlink:title=" ">
<polygon fill="white" stroke="black" points="563.5,-245.5 563.5,-264.5 664.5,-264.5 664.5,-245.5 563.5,-245.5"/>
<text text-anchor="middle" x="614" y="-252.5" font-family="Helvetica,sans-Serif" font-size="10.00">mn::basic_mutex</text>
</a>
</g>
</g>
<!-- Node3&#45;&gt;Node2 -->
<g id="edge2" class="edge">
<title>Node3&#45;&gt;Node2</title>
<path fill="none" stroke="#9a32cd" stroke-dasharray="5,2" d="M609.31,-235.31C605.06,-222.02 597.5,-204.69 585,-194 572.98,-183.71 557.76,-176.68 542.61,-171.88"/>
<polygon fill="#9a32cd" stroke="#9a32cd" points="606.05,-236.62 612.14,-245.29 612.78,-234.71 606.05,-236.62"/>
<text text-anchor="middle" x="646" y="-213.5" font-family="Helvetica,sans-Serif" font-size="10.00"> m_ThreadJob</text>
<text text-anchor="middle" x="646" y="-202.5" font-family="Helvetica,sans-Serif" font-size="10.00">m_ThreadStatus</text>
</g>
<!-- Node4 -->
<g id="node4" class="node">
<title>Node4</title>
<g id="a_node4"><a xlink:href="classmn_1_1basic__semaphore.html" target="_top" xlink:title=" ">
<polygon fill="white" stroke="black" points="401,-308 401,-327 525,-327 525,-308 401,-308"/>
<text text-anchor="middle" x="463" y="-315" font-family="Helvetica,sans-Serif" font-size="10.00">mn::basic_semaphore</text>
</a>
</g>
</g>
<!-- Node4&#45;&gt;Node3 -->
<g id="edge3" class="edge">
<title>Node4&#45;&gt;Node3</title>
<path fill="none" stroke="midnightblue" d="M493.67,-304.21C522.98,-292.47 566.42,-275.06 592.31,-264.69"/>
<polygon fill="midnightblue" stroke="midnightblue" points="492.3,-300.99 484.31,-307.96 494.9,-307.49 492.3,-300.99"/>
</g>
<!-- Node10 -->
<g id="node10" class="node">
<title>Node10</title>
<g id="a_node10"><a xlink:href="classmn_1_1basic__binary__semaphore.html" target="_top" xlink:title=" ">
<polygon fill="white" stroke="black" points="232,-245.5 232,-264.5 392,-264.5 392,-245.5 232,-245.5"/>
<text text-anchor="middle" x="312" y="-252.5" font-family="Helvetica,sans-Serif" font-size="10.00">mn::basic_binary_semaphore</text>
</a>
</g>
</g>
<!-- Node4&#45;&gt;Node10 -->
<g id="edge11" class="edge">
<title>Node4&#45;&gt;Node10</title>
<path fill="none" stroke="midnightblue" d="M432.33,-304.21C403.02,-292.47 359.58,-275.06 333.69,-264.69"/>
<polygon fill="midnightblue" stroke="midnightblue" points="431.1,-307.49 441.69,-307.96 433.7,-300.99 431.1,-307.49"/>
</g>
<!-- Node5 -->
<g id="node5" class="node">
<title>Node5</title>
<g id="a_node5"><a xlink:href="classmn_1_1_i_lock_object.html" target="_top" xlink:title=" ">
<polygon fill="white" stroke="black" points="415.5,-370.5 415.5,-389.5 510.5,-389.5 510.5,-370.5 415.5,-370.5"/>
<text text-anchor="middle" x="463" y="-377.5" font-family="Helvetica,sans-Serif" font-size="10.00">mn::ILockObject</text>
</a>
</g>
</g>
<!-- Node5&#45;&gt;Node4 -->
<g id="edge4" class="edge">
<title>Node5&#45;&gt;Node4</title>
<path fill="none" stroke="midnightblue" d="M463,-360C463,-349 463,-335.68 463,-327.15"/>
<polygon fill="midnightblue" stroke="midnightblue" points="459.5,-360.33 463,-370.33 466.5,-360.33 459.5,-360.33"/>
</g>
<!-- Node6 -->
<g id="node6" class="node">
<title>Node6</title>
<g id="a_node6"><a xlink:href="classmn_1_1queue_1_1basic__queue.html" target="_top" xlink:title=" ">
<polygon fill="white" stroke="black" points="410.5,-245.5 410.5,-264.5 545.5,-264.5 545.5,-245.5 410.5,-245.5"/>
<text text-anchor="middle" x="478" y="-252.5" font-family="Helvetica,sans-Serif" font-size="10.00">mn::queue::basic_queue</text>
</a>
</g>
</g>
<!-- Node6&#45;&gt;Node2 -->
<g id="edge5" class="edge">
<title>Node6&#45;&gt;Node2</title>
<path fill="none" stroke="#9a32cd" stroke-dasharray="5,2" d="M478,-235.29C478,-217.67 478,-191.67 478,-175.7"/>
<polygon fill="#9a32cd" stroke="#9a32cd" points="474.5,-235.46 478,-245.46 481.5,-235.46 474.5,-235.46"/>
<text text-anchor="middle" x="529.5" y="-208" font-family="Helvetica,sans-Serif" font-size="10.00"> m_pWorkItemQueue</text>
</g>
<!-- Node7&#45;&gt;Node1 -->
<g id="edge6" class="edge">
<title>Node7&#45;&gt;Node1</title>
<path fill="none" stroke="#9a32cd" stroke-dasharray="5,2" d="M371.13,-70.39C381.44,-58.28 395.25,-42.05 405.02,-30.58"/>
<polygon fill="#9a32cd" stroke="#9a32cd" points="368.17,-68.47 364.36,-78.36 373.5,-73.01 368.17,-68.47"/>
<text text-anchor="middle" x="418" y="-52" font-family="Helvetica,sans-Serif" font-size="10.00"> m_pWorker</text>
</g>
<!-- Node8 -->
<g id="node8" class="node">
<title>Node8</title>
<g id="a_node8"><a xlink:href="classmn_1_1basic__task.html" target="_top" xlink:title="Wrapper class around FreeRTOS&#39;s implementation of a task.">
<polygon fill="white" stroke="black" points="186,-151 186,-170 276,-170 276,-151 186,-151"/>
<text text-anchor="middle" x="231" y="-158" font-family="Helvetica,sans-Serif" font-size="10.00">mn::basic_task</text>
</a>
</g>
</g>
<!-- Node8&#45;&gt;Node7 -->
<g id="edge7" class="edge">
<title>Node8&#45;&gt;Node7</title>
<path fill="none" stroke="midnightblue" d="M255.46,-145.81C280.89,-131.59 319.91,-109.75 341.42,-97.72"/>
<polygon fill="midnightblue" stroke="midnightblue" points="253.47,-142.92 246.45,-150.86 256.89,-149.03 253.47,-142.92"/>
</g>
<!-- Node8&#45;&gt;Node8 -->
<g id="edge9" class="edge">
<title>Node8&#45;&gt;Node8</title>
<path fill="none" stroke="#9a32cd" stroke-dasharray="5,2" d="M286.26,-166.07C291.03,-164.88 294,-163.03 294,-160.5 294,-156.46 286.39,-154.13 276.02,-153.53"/>
<polygon fill="#9a32cd" stroke="#9a32cd" points="285.45,-162.64 276.02,-167.47 286.4,-169.58 285.45,-162.64"/>
<text text-anchor="middle" x="320" y="-163.5" font-family="Helvetica,sans-Serif" font-size="10.00"> m_pChild</text>
<text text-anchor="middle" x="320" y="-152.5" font-family="Helvetica,sans-Serif" font-size="10.00">m_pParent</text>
</g>
<!-- Node9 -->
<g id="node9" class="node">
<title>Node9</title>
<g id="a_node9"><a xlink:href="classmn_1_1basic__event__group.html" target="_top" xlink:title=" ">
<polygon fill="white" stroke="black" points="0,-245.5 0,-264.5 130,-264.5 130,-245.5 0,-245.5"/>
<text text-anchor="middle" x="65" y="-252.5" font-family="Helvetica,sans-Serif" font-size="10.00">mn::basic_event_group</text>
</a>
</g>
</g>
<!-- Node9&#45;&gt;Node8 -->
<g id="edge8" class="edge">
<title>Node9&#45;&gt;Node8</title>
<path fill="none" stroke="#9a32cd" stroke-dasharray="5,2" d="M82.73,-238.64C98.53,-225.51 122.69,-206.77 146,-194 164.15,-184.05 185.98,-175.78 202.98,-170.06"/>
<polygon fill="#9a32cd" stroke="#9a32cd" points="80.25,-236.15 74.87,-245.28 84.77,-241.5 80.25,-236.15"/>
<text text-anchor="middle" x="169" y="-208" font-family="Helvetica,sans-Serif" font-size="10.00"> m_event</text>
</g>
<!-- Node10&#45;&gt;Node8 -->
<g id="edge10" class="edge">
<title>Node10&#45;&gt;Node8</title>
<path fill="none" stroke="#9a32cd" stroke-dasharray="5,2" d="M302.93,-236.15C296.03,-223.56 285.73,-206.74 274,-194 265.38,-184.64 253.78,-176.05 244.81,-170.06"/>
<polygon fill="#9a32cd" stroke="#9a32cd" points="299.94,-237.98 307.71,-245.18 306.13,-234.7 299.94,-237.98"/>
<text text-anchor="middle" x="343" y="-219" font-family="Helvetica,sans-Serif" font-size="10.00"> m_contextMutext</text>
<text text-anchor="middle" x="343" y="-208" font-family="Helvetica,sans-Serif" font-size="10.00">m_continuemutex</text>
<text text-anchor="middle" x="343" y="-197" font-family="Helvetica,sans-Serif" font-size="10.00">m_runningMutex</text>
</g>
<!-- Node11 -->
<g id="node11" class="node">
<title>Node11</title>
<g id="a_node11"><a xlink:title=" ">
<polygon fill="white" stroke="#bfbfbf" points="148.5,-245.5 148.5,-264.5 213.5,-264.5 213.5,-245.5 148.5,-245.5"/>
<text text-anchor="middle" x="181" y="-252.5" font-family="Helvetica,sans-Serif" font-size="10.00">std::string</text>
</a>
</g>
</g>
<!-- Node11&#45;&gt;Node8 -->
<g id="edge12" class="edge">
<title>Node11&#45;&gt;Node8</title>
<path fill="none" stroke="#9a32cd" stroke-dasharray="5,2" d="M190.24,-236.5C196.59,-224.51 205.25,-208.26 213,-194 217.44,-185.84 222.58,-176.58 226.23,-170.03"/>
<polygon fill="#9a32cd" stroke="#9a32cd" points="187.1,-234.96 185.51,-245.43 193.28,-238.23 187.1,-234.96"/>
<text text-anchor="middle" x="243.5" y="-208" font-family="Helvetica,sans-Serif" font-size="10.00"> m_strName</text>
</g>
<!-- Node12 -->
<g id="node12" class="node">
<title>Node12</title>
<g id="a_node12"><a xlink:title=" ">
<polygon fill="white" stroke="#bfbfbf" points="129,-302.5 129,-332.5 233,-332.5 233,-302.5 129,-302.5"/>
<text text-anchor="start" x="137" y="-320.5" font-family="Helvetica,sans-Serif" font-size="10.00">std::basic_string&lt;</text>
<text text-anchor="middle" x="181" y="-309.5" font-family="Helvetica,sans-Serif" font-size="10.00"> Char &gt;</text>
</a>
</g>
</g>
<!-- Node12&#45;&gt;Node11 -->
<g id="edge13" class="edge">
<title>Node12&#45;&gt;Node11</title>
<path fill="none" stroke="midnightblue" d="M181,-292.35C181,-282.51 181,-271.78 181,-264.54"/>
<polygon fill="midnightblue" stroke="midnightblue" points="177.5,-292.47 181,-302.47 184.5,-292.47 177.5,-292.47"/>
</g>
</g>
</svg>
