<?xml version="1.0" encoding="UTF-8" standalone="no"?>
<!DOCTYPE svg PUBLIC "-//W3C//DTD SVG 1.1//EN"
 "http://www.w3.org/Graphics/SVG/1.1/DTD/svg11.dtd">
<!-- Generated by graphviz version 2.46.0 (0)
 -->
<!-- Title: mn::ext::basic_condition_variable Pages: 1 -->
<svg width="398pt" height="455pt"
 viewBox="0.00 0.00 397.50 455.00" xmlns="http://www.w3.org/2000/svg" xmlns:xlink="http://www.w3.org/1999/xlink">
<g id="graph0" class="graph" transform="scale(1 1) rotate(0) translate(4 451)">
<title>mn::ext::basic_condition_variable</title>
<polygon fill="white" stroke="transparent" points="-4,4 -4,-451 393.5,-451 393.5,4 -4,4"/>
<!-- Node1 -->
<g id="node1" class="node">
<title>Node1</title>
<g id="a_node1"><a xlink:title=" ">
<polygon fill="#bfbfbf" stroke="black" points="224,-0.5 224,-30.5 360,-30.5 360,-0.5 224,-0.5"/>
<text text-anchor="start" x="232" y="-18.5" font-family="Helvetica,sans-Serif" font-size="10.00">mn::ext::basic_condition</text>
<text text-anchor="middle" x="292" y="-7.5" font-family="Helvetica,sans-Serif" font-size="10.00">_variable</text>
</a>
</g>
</g>
<!-- Node2 -->
<g id="node2" class="node">
<title>Node2</title>
<g id="a_node2"><a xlink:href="classmn_1_1basic__mutex.html" target="_top" xlink:title=" ">
<polygon fill="white" stroke="black" points="288.5,-258 288.5,-277 389.5,-277 389.5,-258 288.5,-258"/>
<text text-anchor="middle" x="339" y="-265" font-family="Helvetica,sans-Serif" font-size="10.00">mn::basic_mutex</text>
</a>
</g>
</g>
<!-- Node2&#45;&gt;Node1 -->
<g id="edge1" class="edge">
<title>Node2&#45;&gt;Node1</title>
<path fill="none" stroke="#9a32cd" stroke-dasharray="5,2" d="M339,-247.56C339,-233.15 339,-212.83 339,-195 339,-195 339,-195 339,-92.5 339,-72.19 335.65,-66.29 325,-49 320.87,-42.29 315.06,-35.96 309.47,-30.69"/>
<polygon fill="#9a32cd" stroke="#9a32cd" points="335.5,-247.69 339,-257.69 342.5,-247.69 335.5,-247.69"/>
<text text-anchor="middle" x="364" y="-163.5" font-family="Helvetica,sans-Serif" font-size="10.00"> m_mutex</text>
</g>
<!-- Node3 -->
<g id="node3" class="node">
<title>Node3</title>
<g id="a_node3"><a xlink:href="classmn_1_1basic__semaphore.html" target="_top" xlink:title=" ">
<polygon fill="white" stroke="black" points="223,-365 223,-384 347,-384 347,-365 223,-365"/>
<text text-anchor="middle" x="285" y="-372" font-family="Helvetica,sans-Serif" font-size="10.00">mn::basic_semaphore</text>
</a>
</g>
</g>
<!-- Node3&#45;&gt;Node2 -->
<g id="edge2" class="edge">
<title>Node3&#45;&gt;Node2</title>
<path fill="none" stroke="midnightblue" d="M297.96,-356.8C305.12,-347.04 313.79,-334.26 320,-322 327.66,-306.88 333.61,-287.93 336.68,-277.12"/>
<polygon fill="midnightblue" stroke="midnightblue" points="295.14,-354.72 291.93,-364.82 300.74,-358.93 295.14,-354.72"/>
</g>
<!-- Node8 -->
<g id="node8" class="node">
<title>Node8</title>
<g id="a_node8"><a xlink:href="classmn_1_1basic__binary__semaphore.html" target="_top" xlink:title=" ">
<polygon fill="white" stroke="black" points="151,-302.5 151,-321.5 311,-321.5 311,-302.5 151,-302.5"/>
<text text-anchor="middle" x="231" y="-309.5" font-family="Helvetica,sans-Serif" font-size="10.00">mn::basic_binary_semaphore</text>
</a>
</g>
</g>
<!-- Node3&#45;&gt;Node8 -->
<g id="edge8" class="edge">
<title>Node3&#45;&gt;Node8</title>
<path fill="none" stroke="midnightblue" d="M270.48,-357.23C260.26,-345.78 246.98,-330.9 238.72,-321.65"/>
<polygon fill="midnightblue" stroke="midnightblue" points="267.99,-359.7 277.26,-364.83 273.22,-355.04 267.99,-359.7"/>
</g>
<!-- Node4 -->
<g id="node4" class="node">
<title>Node4</title>
<g id="a_node4"><a xlink:href="classmn_1_1ILockObject.html" target="_top" xlink:title=" ">
<polygon fill="white" stroke="black" points="237.5,-427.5 237.5,-446.5 332.5,-446.5 332.5,-427.5 237.5,-427.5"/>
<text text-anchor="middle" x="285" y="-434.5" font-family="Helvetica,sans-Serif" font-size="10.00">mn::ILockObject</text>
</a>
</g>
</g>
<!-- Node4&#45;&gt;Node3 -->
<g id="edge3" class="edge">
<title>Node4&#45;&gt;Node3</title>
<path fill="none" stroke="midnightblue" d="M285,-417C285,-406 285,-392.68 285,-384.15"/>
<polygon fill="midnightblue" stroke="midnightblue" points="281.5,-417.33 285,-427.33 288.5,-417.33 281.5,-417.33"/>
</g>
<!-- Node5 -->
<g id="node5" class="node">
<title>Node5</title>
<g id="a_node5"><a xlink:title=" ">
<polygon fill="white" stroke="#bfbfbf" points="175,-78.5 175,-108.5 307,-108.5 307,-78.5 175,-78.5"/>
<text text-anchor="start" x="183" y="-96.5" font-family="Helvetica,sans-Serif" font-size="10.00">std::list&lt; mn::ext</text>
<text text-anchor="middle" x="241" y="-85.5" font-family="Helvetica,sans-Serif" font-size="10.00">::basic_convar_task * &gt;</text>
</a>
</g>
</g>
<!-- Node5&#45;&gt;Node1 -->
<g id="edge4" class="edge">
<title>Node5&#45;&gt;Node1</title>
<path fill="none" stroke="#9a32cd" stroke-dasharray="5,2" d="M254.76,-69.56C258.91,-62.86 263.54,-55.58 268,-49 272.17,-42.85 277,-36.22 281.23,-30.56"/>
<polygon fill="#9a32cd" stroke="#9a32cd" points="251.7,-67.85 249.47,-78.21 257.67,-71.5 251.7,-67.85"/>
<text text-anchor="middle" x="296.5" y="-52" font-family="Helvetica,sans-Serif" font-size="10.00"> m_waitList</text>
</g>
<!-- Node6 -->
<g id="node6" class="node">
<title>Node6</title>
<g id="a_node6"><a xlink:href="classmn_1_1ext_1_1basic__convar__task.html" target="_top" xlink:title=" ">
<polygon fill="white" stroke="black" points="153,-156.5 153,-175.5 303,-175.5 303,-156.5 153,-156.5"/>
<text text-anchor="middle" x="228" y="-163.5" font-family="Helvetica,sans-Serif" font-size="10.00">mn::ext::basic_convar_task</text>
</a>
</g>
</g>
<!-- Node6&#45;&gt;Node5 -->
<g id="edge5" class="edge">
<title>Node6&#45;&gt;Node5</title>
<path fill="none" stroke="#9a32cd" stroke-dasharray="5,2" d="M231.46,-146.24C233.64,-134.41 236.41,-119.38 238.4,-108.58"/>
<polygon fill="#9a32cd" stroke="#9a32cd" points="227.97,-145.89 229.59,-156.36 234.85,-147.16 227.97,-145.89"/>
<text text-anchor="middle" x="258.5" y="-130" font-family="Helvetica,sans-Serif" font-size="10.00"> elements</text>
</g>
<!-- Node7 -->
<g id="node7" class="node">
<title>Node7</title>
<g id="a_node7"><a xlink:href="classmn_1_1basic__task.html" target="_top" xlink:title="Wrapper class around FreeRTOS&#39;s implementation of a task.">
<polygon fill="white" stroke="black" points="91,-213.5 91,-232.5 181,-232.5 181,-213.5 91,-213.5"/>
<text text-anchor="middle" x="136" y="-220.5" font-family="Helvetica,sans-Serif" font-size="10.00">mn::basic_task</text>
</a>
</g>
</g>
<!-- Node7&#45;&gt;Node6 -->
<g id="edge6" class="edge">
<title>Node7&#45;&gt;Node6</title>
<path fill="none" stroke="midnightblue" d="M159.23,-208.11C176.38,-197.86 199.18,-184.23 213.73,-175.53"/>
<polygon fill="midnightblue" stroke="midnightblue" points="157.16,-205.27 150.38,-213.41 160.75,-211.28 157.16,-205.27"/>
</g>
<!-- Node8&#45;&gt;Node6 -->
<g id="edge11" class="edge">
<title>Node8&#45;&gt;Node6</title>
<path fill="none" stroke="#9a32cd" stroke-dasharray="5,2" d="M230.61,-292.38C229.96,-260.97 228.66,-198.63 228.18,-175.71"/>
<polygon fill="#9a32cd" stroke="#9a32cd" points="227.11,-292.5 230.82,-302.42 234.11,-292.35 227.11,-292.5"/>
<text text-anchor="middle" x="259.5" y="-220.5" font-family="Helvetica,sans-Serif" font-size="10.00"> m_waitSem</text>
</g>
<!-- Node8&#45;&gt;Node7 -->
<g id="edge7" class="edge">
<title>Node8&#45;&gt;Node7</title>
<path fill="none" stroke="#9a32cd" stroke-dasharray="5,2" d="M152.7,-297.72C146.69,-294.12 141.3,-289.61 137,-284 125.59,-269.12 129.73,-245.5 133.2,-232.79"/>
<polygon fill="#9a32cd" stroke="#9a32cd" points="151.4,-300.98 161.9,-302.38 154.56,-294.74 151.4,-300.98"/>
<text text-anchor="middle" x="182" y="-276" font-family="Helvetica,sans-Serif" font-size="10.00"> m_contextMutext</text>
<text text-anchor="middle" x="182" y="-265" font-family="Helvetica,sans-Serif" font-size="10.00">m_continuemutex</text>
<text text-anchor="middle" x="182" y="-254" font-family="Helvetica,sans-Serif" font-size="10.00">m_runningMutex</text>
</g>
<!-- Node9 -->
<g id="node9" class="node">
<title>Node9</title>
<g id="a_node9"><a xlink:title=" ">
<polygon fill="white" stroke="#bfbfbf" points="19.5,-302.5 19.5,-321.5 84.5,-321.5 84.5,-302.5 19.5,-302.5"/>
<text text-anchor="middle" x="52" y="-309.5" font-family="Helvetica,sans-Serif" font-size="10.00">std::string</text>
</a>
</g>
</g>
<!-- Node9&#45;&gt;Node7 -->
<g id="edge9" class="edge">
<title>Node9&#45;&gt;Node7</title>
<path fill="none" stroke="#9a32cd" stroke-dasharray="5,2" d="M47.05,-292.22C44.84,-279.39 44.38,-262.66 53,-251 61.92,-238.94 76.35,-232.16 90.7,-228.4"/>
<polygon fill="#9a32cd" stroke="#9a32cd" points="43.7,-293.25 49.27,-302.26 50.53,-291.74 43.7,-293.25"/>
<text text-anchor="middle" x="83.5" y="-265" font-family="Helvetica,sans-Serif" font-size="10.00"> m_strName</text>
</g>
<!-- Node10 -->
<g id="node10" class="node">
<title>Node10</title>
<g id="a_node10"><a xlink:title=" ">
<polygon fill="white" stroke="#bfbfbf" points="0,-359.5 0,-389.5 104,-389.5 104,-359.5 0,-359.5"/>
<text text-anchor="start" x="8" y="-377.5" font-family="Helvetica,sans-Serif" font-size="10.00">std::basic_string&lt;</text>
<text text-anchor="middle" x="52" y="-366.5" font-family="Helvetica,sans-Serif" font-size="10.00"> Char &gt;</text>
</a>
</g>
</g>
<!-- Node10&#45;&gt;Node9 -->
<g id="edge10" class="edge">
<title>Node10&#45;&gt;Node9</title>
<path fill="none" stroke="midnightblue" d="M52,-349.35C52,-339.51 52,-328.78 52,-321.54"/>
<polygon fill="midnightblue" stroke="midnightblue" points="48.5,-349.47 52,-359.47 55.5,-349.47 48.5,-349.47"/>
</g>
</g>
</svg>
