<?xml version="1.0" encoding="UTF-8" standalone="no"?>
<!DOCTYPE svg PUBLIC "-//W3C//DTD SVG 1.1//EN"
 "http://www.w3.org/Graphics/SVG/1.1/DTD/svg11.dtd">
<!-- Generated by graphviz version 2.44.1 (0)
 -->
<!-- Title: basic_condition_variable Pages: 1 -->
<svg width="478pt" height="446pt"
 viewBox="0.00 0.00 478.00 446.00" xmlns="http://www.w3.org/2000/svg" xmlns:xlink="http://www.w3.org/1999/xlink">
<g id="graph0" class="graph" transform="scale(1 1) rotate(0) translate(4 442)">
<title>basic_condition_variable</title>
<polygon fill="white" stroke="transparent" points="-4,4 -4,-442 474,-442 474,4 -4,4"/>
<!-- Node1 -->
<g id="node1" class="node">
<title>Node1</title>
<g id="a_node1"><a xlink:title=" ">
<polygon fill="#bfbfbf" stroke="black" points="305.5,-0.5 305.5,-19.5 442.5,-19.5 442.5,-0.5 305.5,-0.5"/>
<text text-anchor="middle" x="374" y="-7.5" font-family="Helvetica,sans-Serif" font-size="10.00">basic_condition_variable</text>
</a>
</g>
</g>
<!-- Node2 -->
<g id="node2" class="node">
<title>Node2</title>
<g id="a_node2"><a xlink:href="classbasic__mutex.html" target="_top" xlink:title=" ">
<polygon fill="white" stroke="black" points="380.5,-249 380.5,-268 459.5,-268 459.5,-249 380.5,-249"/>
<text text-anchor="middle" x="420" y="-256" font-family="Helvetica,sans-Serif" font-size="10.00">basic_mutex</text>
</a>
</g>
</g>
<!-- Node2&#45;&gt;Node1 -->
<g id="edge1" class="edge">
<title>Node2&#45;&gt;Node1</title>
<path fill="none" stroke="#9a32cd" stroke-dasharray="5,2" d="M420,-238.52C420,-223.68 420,-202.53 420,-184 420,-184 420,-184 420,-81.5 420,-61.19 417.31,-54.87 406,-38 401.14,-30.76 393.81,-24.37 387.39,-19.63"/>
<polygon fill="#9a32cd" stroke="#9a32cd" points="416.5,-238.9 420,-248.9 423.5,-238.9 416.5,-238.9"/>
<text text-anchor="middle" x="445" y="-152.5" font-family="Helvetica,sans-Serif" font-size="10.00"> m_mutex</text>
</g>
<!-- Node3 -->
<g id="node3" class="node">
<title>Node3</title>
<g id="a_node3"><a xlink:href="classbasic__semaphore.html" target="_top" xlink:title=" ">
<polygon fill="white" stroke="black" points="321,-356 321,-375 423,-375 423,-356 321,-356"/>
<text text-anchor="middle" x="372" y="-363" font-family="Helvetica,sans-Serif" font-size="10.00">basic_semaphore</text>
</a>
</g>
</g>
<!-- Node3&#45;&gt;Node2 -->
<g id="edge2" class="edge">
<title>Node3&#45;&gt;Node2</title>
<path fill="none" stroke="midnightblue" d="M382.7,-347.25C388.54,-337.43 395.65,-324.77 401,-313 408.02,-297.57 414.18,-278.72 417.47,-268.02"/>
<polygon fill="midnightblue" stroke="midnightblue" points="379.59,-345.62 377.39,-355.99 385.57,-349.26 379.59,-345.62"/>
</g>
<!-- Node9 -->
<g id="node9" class="node">
<title>Node9</title>
<g id="a_node9"><a xlink:href="classbasic__binary__semaphore.html" target="_top" xlink:title=" ">
<polygon fill="white" stroke="black" points="254,-293.5 254,-312.5 392,-312.5 392,-293.5 254,-293.5"/>
<text text-anchor="middle" x="323" y="-300.5" font-family="Helvetica,sans-Serif" font-size="10.00">basic_binary_semaphore</text>
</a>
</g>
</g>
<!-- Node3&#45;&gt;Node9 -->
<g id="edge9" class="edge">
<title>Node3&#45;&gt;Node9</title>
<path fill="none" stroke="midnightblue" d="M358.55,-347.89C349.31,-336.49 337.43,-321.81 330.01,-312.65"/>
<polygon fill="midnightblue" stroke="midnightblue" points="355.97,-350.26 364.98,-355.83 361.41,-345.86 355.97,-350.26"/>
</g>
<!-- Node4 -->
<g id="node4" class="node">
<title>Node4</title>
<g id="a_node4"><a xlink:href="class_i_lock_object.html" target="_top" xlink:title=" ">
<polygon fill="white" stroke="black" points="335,-418.5 335,-437.5 409,-437.5 409,-418.5 335,-418.5"/>
<text text-anchor="middle" x="372" y="-425.5" font-family="Helvetica,sans-Serif" font-size="10.00">ILockObject</text>
</a>
</g>
</g>
<!-- Node4&#45;&gt;Node3 -->
<g id="edge3" class="edge">
<title>Node4&#45;&gt;Node3</title>
<path fill="none" stroke="midnightblue" d="M372,-408C372,-397 372,-383.68 372,-375.15"/>
<polygon fill="midnightblue" stroke="midnightblue" points="368.5,-408.33 372,-418.33 375.5,-408.33 368.5,-408.33"/>
</g>
<!-- Node5 -->
<g id="node5" class="node">
<title>Node5</title>
<g id="a_node5"><a xlink:title=" ">
<polygon fill="white" stroke="#bfbfbf" points="264,-67.5 264,-97.5 392,-97.5 392,-67.5 264,-67.5"/>
<text text-anchor="start" x="272" y="-85.5" font-family="Helvetica,sans-Serif" font-size="10.00">std::list&lt; basic_convar</text>
<text text-anchor="middle" x="328" y="-74.5" font-family="Helvetica,sans-Serif" font-size="10.00">_task * &gt;</text>
</a>
</g>
</g>
<!-- Node5&#45;&gt;Node1 -->
<g id="edge4" class="edge">
<title>Node5&#45;&gt;Node1</title>
<path fill="none" stroke="#9a32cd" stroke-dasharray="5,2" d="M337.82,-57.92C341,-51.25 344.81,-44.15 349,-38 353.46,-31.45 359.47,-24.92 364.47,-19.91"/>
<polygon fill="#9a32cd" stroke="#9a32cd" points="334.55,-56.65 333.62,-67.21 340.93,-59.54 334.55,-56.65"/>
<text text-anchor="middle" x="377.5" y="-41" font-family="Helvetica,sans-Serif" font-size="10.00"> m_waitList</text>
</g>
<!-- Node6 -->
<g id="node6" class="node">
<title>Node6</title>
<g id="a_node6"><a xlink:href="classbasic__convar__task.html" target="_top" xlink:title=" ">
<polygon fill="white" stroke="black" points="274.5,-145.5 274.5,-164.5 381.5,-164.5 381.5,-145.5 274.5,-145.5"/>
<text text-anchor="middle" x="328" y="-152.5" font-family="Helvetica,sans-Serif" font-size="10.00">basic_convar_task</text>
</a>
</g>
</g>
<!-- Node6&#45;&gt;Node5 -->
<g id="edge5" class="edge">
<title>Node6&#45;&gt;Node5</title>
<path fill="none" stroke="#9a32cd" stroke-dasharray="5,2" d="M328,-135.24C328,-123.41 328,-108.38 328,-97.58"/>
<polygon fill="#9a32cd" stroke="#9a32cd" points="324.5,-135.36 328,-145.36 331.5,-135.36 324.5,-135.36"/>
<text text-anchor="middle" x="352.5" y="-119" font-family="Helvetica,sans-Serif" font-size="10.00"> elements</text>
</g>
<!-- Node7 -->
<g id="node7" class="node">
<title>Node7</title>
<g id="a_node7"><a xlink:href="classbasic__task.html" target="_top" xlink:title=" ">
<polygon fill="white" stroke="black" points="132,-203.5 132,-222.5 200,-222.5 200,-203.5 132,-203.5"/>
<text text-anchor="middle" x="166" y="-210.5" font-family="Helvetica,sans-Serif" font-size="10.00">basic_task</text>
</a>
</g>
</g>
<!-- Node7&#45;&gt;Node6 -->
<g id="edge6" class="edge">
<title>Node7&#45;&gt;Node6</title>
<path fill="none" stroke="midnightblue" d="M200.09,-200.22C230.92,-189.56 275.59,-174.12 303.16,-164.59"/>
<polygon fill="midnightblue" stroke="midnightblue" points="198.91,-196.92 190.6,-203.49 201.2,-203.54 198.91,-196.92"/>
</g>
<!-- Node7&#45;&gt;Node7 -->
<g id="edge12" class="edge">
<title>Node7&#45;&gt;Node7</title>
<path fill="none" stroke="#9a32cd" stroke-dasharray="5,2" d="M210.15,-217.39C214.92,-216.55 218,-215.08 218,-213 218,-209.66 210.13,-207.92 200.01,-207.76"/>
<polygon fill="#9a32cd" stroke="#9a32cd" points="209.68,-213.92 200.01,-218.24 210.27,-220.89 209.68,-213.92"/>
<text text-anchor="middle" x="244" y="-216" font-family="Helvetica,sans-Serif" font-size="10.00"> m_pChild</text>
<text text-anchor="middle" x="244" y="-205" font-family="Helvetica,sans-Serif" font-size="10.00">m_pParent</text>
</g>
<!-- Node8 -->
<g id="node8" class="node">
<title>Node8</title>
<g id="a_node8"><a xlink:href="classbasic__event__group.html" target="_top" xlink:title=" ">
<polygon fill="white" stroke="black" points="0,-293.5 0,-312.5 108,-312.5 108,-293.5 0,-293.5"/>
<text text-anchor="middle" x="54" y="-300.5" font-family="Helvetica,sans-Serif" font-size="10.00">basic_event_group</text>
</a>
</g>
</g>
<!-- Node8&#45;&gt;Node7 -->
<g id="edge7" class="edge">
<title>Node8&#45;&gt;Node7</title>
<path fill="none" stroke="#9a32cd" stroke-dasharray="5,2" d="M60.63,-283.88C66.31,-270.63 75.71,-253.1 89,-242 101.23,-231.79 117.5,-225.15 131.93,-220.92"/>
<polygon fill="#9a32cd" stroke="#9a32cd" points="57.29,-282.8 56.86,-293.38 63.8,-285.38 57.29,-282.8"/>
<text text-anchor="middle" x="112" y="-256" font-family="Helvetica,sans-Serif" font-size="10.00"> m_event</text>
</g>
<!-- Node9&#45;&gt;Node6 -->
<g id="edge13" class="edge">
<title>Node9&#45;&gt;Node6</title>
<path fill="none" stroke="#9a32cd" stroke-dasharray="5,2" d="M323.65,-283.12C324.74,-251.27 326.9,-188.07 327.7,-164.83"/>
<polygon fill="#9a32cd" stroke="#9a32cd" points="320.14,-283.19 323.3,-293.3 327.14,-283.43 320.14,-283.19"/>
<text text-anchor="middle" x="356.5" y="-210.5" font-family="Helvetica,sans-Serif" font-size="10.00"> m_waitSem</text>
</g>
<!-- Node9&#45;&gt;Node7 -->
<g id="edge8" class="edge">
<title>Node9&#45;&gt;Node7</title>
<path fill="none" stroke="#9a32cd" stroke-dasharray="5,2" d="M257.44,-290.44C246.33,-286.66 235.37,-281.65 226,-275 211.42,-264.66 215.39,-254.89 203,-242 195.96,-234.68 186.89,-227.79 179.49,-222.67"/>
<polygon fill="#9a32cd" stroke="#9a32cd" points="256.62,-293.85 267.2,-293.46 258.68,-287.16 256.62,-293.85"/>
<text text-anchor="middle" x="271" y="-267" font-family="Helvetica,sans-Serif" font-size="10.00"> m_contextMutext</text>
<text text-anchor="middle" x="271" y="-256" font-family="Helvetica,sans-Serif" font-size="10.00">m_continuemutex</text>
<text text-anchor="middle" x="271" y="-245" font-family="Helvetica,sans-Serif" font-size="10.00">m_runningMutex</text>
</g>
<!-- Node10 -->
<g id="node10" class="node">
<title>Node10</title>
<g id="a_node10"><a xlink:title="STL class.">
<polygon fill="white" stroke="#bfbfbf" points="126.5,-293.5 126.5,-312.5 191.5,-312.5 191.5,-293.5 126.5,-293.5"/>
<text text-anchor="middle" x="159" y="-300.5" font-family="Helvetica,sans-Serif" font-size="10.00">std::string</text>
</a>
</g>
</g>
<!-- Node10&#45;&gt;Node7 -->
<g id="edge10" class="edge">
<title>Node10&#45;&gt;Node7</title>
<path fill="none" stroke="#9a32cd" stroke-dasharray="5,2" d="M146.15,-284.67C144.44,-281.58 142.95,-278.3 142,-275 137.93,-260.91 136.91,-255.76 142,-242 144.75,-234.55 150.47,-227.75 155.63,-222.72"/>
<polygon fill="#9a32cd" stroke="#9a32cd" points="143.25,-286.63 151.62,-293.13 149.13,-282.83 143.25,-286.63"/>
<text text-anchor="middle" x="172.5" y="-256" font-family="Helvetica,sans-Serif" font-size="10.00"> m_strName</text>
</g>
<!-- Node11 -->
<g id="node11" class="node">
<title>Node11</title>
<g id="a_node11"><a xlink:title="STL class.">
<polygon fill="white" stroke="#bfbfbf" points="107,-350.5 107,-380.5 211,-380.5 211,-350.5 107,-350.5"/>
<text text-anchor="start" x="115" y="-368.5" font-family="Helvetica,sans-Serif" font-size="10.00">std::basic_string&lt;</text>
<text text-anchor="middle" x="159" y="-357.5" font-family="Helvetica,sans-Serif" font-size="10.00"> char &gt;</text>
</a>
</g>
</g>
<!-- Node11&#45;&gt;Node10 -->
<g id="edge11" class="edge">
<title>Node11&#45;&gt;Node10</title>
<path fill="none" stroke="midnightblue" d="M159,-340.35C159,-330.51 159,-319.78 159,-312.54"/>
<polygon fill="midnightblue" stroke="midnightblue" points="155.5,-340.47 159,-350.47 162.5,-340.47 155.5,-340.47"/>
</g>
</g>
</svg>
