<?xml version="1.0" encoding="UTF-8" standalone="no"?>
<!DOCTYPE svg PUBLIC "-//W3C//DTD SVG 1.1//EN"
 "http://www.w3.org/Graphics/SVG/1.1/DTD/svg11.dtd">
<!-- Generated by graphviz version 2.47.3 (0)
 -->
<!-- Title: mn::queue::work_queue_task Pages: 1 -->
<svg width="1215pt" height="235pt"
 viewBox="0.00 0.00 1215.00 234.50" xmlns="http://www.w3.org/2000/svg" xmlns:xlink="http://www.w3.org/1999/xlink">
<g id="graph0" class="graph" transform="scale(1 1) rotate(0) translate(4 230.5)">
<title>mn::queue::work_queue_task</title>
<polygon fill="white" stroke="transparent" points="-4,4 -4,-230.5 1211,-230.5 1211,4 -4,4"/>
<!-- Node1 -->
<g id="node1" class="node">
<title>Node1</title>
<g id="a_node1"><a xlink:title=" ">
<polygon fill="#bfbfbf" stroke="black" points="1047,-86.5 1047,-105.5 1207,-105.5 1207,-86.5 1047,-86.5"/>
<text text-anchor="middle" x="1127" y="-93.5" font-family="Helvetica,sans-Serif" font-size="10.00">mn::queue::work_queue_task</text>
</a>
</g>
</g>
<!-- Node2 -->
<g id="node2" class="node">
<title>Node2</title>
<g id="a_node2"><a xlink:href="classmn_1_1basic__task.html" target="_top" xlink:title="Wrapper class around FreeRTOS&#39;s implementation of a task.">
<polygon fill="white" stroke="black" points="795.5,-131.5 795.5,-150.5 885.5,-150.5 885.5,-131.5 795.5,-131.5"/>
<text text-anchor="middle" x="840.5" y="-138.5" font-family="Helvetica,sans-Serif" font-size="10.00">mn::basic_task</text>
</a>
</g>
</g>
<!-- Node2&#45;&gt;Node1 -->
<g id="edge1" class="edge">
<title>Node2&#45;&gt;Node1</title>
<path fill="none" stroke="midnightblue" d="M895.65,-132.43C944.27,-124.75 1015.51,-113.48 1065.88,-105.51"/>
<polygon fill="midnightblue" stroke="midnightblue" points="894.97,-129 885.64,-134.02 896.07,-135.91 894.97,-129"/>
</g>
<!-- Node3 -->
<g id="node3" class="node">
<title>Node3</title>
<g id="a_node3"><a xlink:title=" ">
<polygon fill="white" stroke="#bfbfbf" points="0,-138.5 0,-157.5 131,-157.5 131,-138.5 0,-138.5"/>
<text text-anchor="middle" x="65.5" y="-145.5" font-family="Helvetica,sans-Serif" font-size="10.00">MN_ONSIGLETN_CLASS</text>
</a>
</g>
</g>
<!-- Node3&#45;&gt;Node2 -->
<g id="edge2" class="edge">
<title>Node3&#45;&gt;Node2</title>
<path fill="none" stroke="#8b1a1a" d="M125.69,-159.11C152.67,-163.27 185.1,-167 214.5,-167 214.5,-167 214.5,-167 558,-167 647.11,-167 669.41,-162.61 758,-153 770.09,-151.69 783.13,-149.93 795.17,-148.16"/>
<polygon fill="#8b1a1a" stroke="#8b1a1a" points="126.06,-155.62 115.63,-157.5 124.95,-162.53 126.06,-155.62"/>
</g>
<!-- Node8 -->
<g id="node8" class="node">
<title>Node8</title>
<g id="a_node8"><a xlink:href="classmn_1_1ILockObject.html" target="_top" xlink:title=" ">
<polygon fill="white" stroke="black" points="168,-109.5 168,-128.5 263,-128.5 263,-109.5 168,-109.5"/>
<text text-anchor="middle" x="215.5" y="-116.5" font-family="Helvetica,sans-Serif" font-size="10.00">mn::ILockObject</text>
</a>
</g>
</g>
<!-- Node3&#45;&gt;Node8 -->
<g id="edge8" class="edge">
<title>Node3&#45;&gt;Node8</title>
<path fill="none" stroke="#8b1a1a" d="M125.43,-136.45C139.48,-133.7 154.28,-130.8 167.69,-128.17"/>
<polygon fill="#8b1a1a" stroke="#8b1a1a" points="124.51,-133.07 115.37,-138.42 125.86,-139.94 124.51,-133.07"/>
</g>
<!-- Node4 -->
<g id="node4" class="node">
<title>Node4</title>
<g id="a_node4"><a xlink:href="classmn_1_1basic__event__group.html" target="_top" xlink:title="Wrapper class around FreeRTOS&#39;s implementation of a event_group.">
<polygon fill="white" stroke="black" points="492,-119.5 492,-138.5 622,-138.5 622,-119.5 492,-119.5"/>
<text text-anchor="middle" x="557" y="-126.5" font-family="Helvetica,sans-Serif" font-size="10.00">mn::basic_event_group</text>
</a>
</g>
</g>
<!-- Node4&#45;&gt;Node2 -->
<g id="edge3" class="edge">
<title>Node4&#45;&gt;Node2</title>
<path fill="none" stroke="#9a32cd" stroke-dasharray="5,2" d="M632.38,-132.17C684.23,-134.38 751.65,-137.26 795.26,-139.11"/>
<polygon fill="#9a32cd" stroke="#9a32cd" points="632.37,-128.67 622.23,-131.74 632.07,-135.66 632.37,-128.67"/>
<text text-anchor="middle" x="706.5" y="-141" font-family="Helvetica,sans-Serif" font-size="10.00"> m_eventGroup</text>
</g>
<!-- Node5 -->
<g id="node5" class="node">
<title>Node5</title>
<g id="a_node5"><a xlink:title=" ">
<polygon fill="white" stroke="#bfbfbf" points="300,-119.5 300,-138.5 440,-138.5 440,-119.5 300,-119.5"/>
<text text-anchor="middle" x="370" y="-126.5" font-family="Helvetica,sans-Serif" font-size="10.00">MN_ONCOPYABLE_CLASS</text>
</a>
</g>
</g>
<!-- Node5&#45;&gt;Node4 -->
<g id="edge4" class="edge">
<title>Node5&#45;&gt;Node4</title>
<path fill="none" stroke="#8b1a1a" d="M450.18,-129C464.08,-129 478.39,-129 491.82,-129"/>
<polygon fill="#8b1a1a" stroke="#8b1a1a" points="450.15,-125.5 440.15,-129 450.15,-132.5 450.15,-125.5"/>
</g>
<!-- Node6 -->
<g id="node6" class="node">
<title>Node6</title>
<g id="a_node6"><a xlink:href="classmn_1_1basic__binary__semaphore.html" target="_top" xlink:title=" ">
<polygon fill="white" stroke="black" points="477,-79.5 477,-98.5 637,-98.5 637,-79.5 477,-79.5"/>
<text text-anchor="middle" x="557" y="-86.5" font-family="Helvetica,sans-Serif" font-size="10.00">mn::basic_binary_semaphore</text>
</a>
</g>
</g>
<!-- Node6&#45;&gt;Node2 -->
<g id="edge5" class="edge">
<title>Node6&#45;&gt;Node2</title>
<path fill="none" stroke="#9a32cd" stroke-dasharray="5,2" d="M647.36,-84C682.4,-84.24 722.62,-87.3 758,-97 783.9,-104.1 810.69,-120.66 826.19,-131.32"/>
<polygon fill="#9a32cd" stroke="#9a32cd" points="647.14,-80.5 637.14,-84 647.14,-87.5 647.14,-80.5"/>
<text text-anchor="middle" x="706.5" y="-122" font-family="Helvetica,sans-Serif" font-size="10.00"> m_contextMutext</text>
<text text-anchor="middle" x="706.5" y="-111" font-family="Helvetica,sans-Serif" font-size="10.00">m_continuemutex</text>
<text text-anchor="middle" x="706.5" y="-100" font-family="Helvetica,sans-Serif" font-size="10.00">m_runningMutex</text>
</g>
<!-- Node7 -->
<g id="node7" class="node">
<title>Node7</title>
<g id="a_node7"><a xlink:href="classmn_1_1basic__semaphore.html" target="_top" xlink:title=" ">
<polygon fill="white" stroke="black" points="308,-79.5 308,-98.5 432,-98.5 432,-79.5 308,-79.5"/>
<text text-anchor="middle" x="370" y="-86.5" font-family="Helvetica,sans-Serif" font-size="10.00">mn::basic_semaphore</text>
</a>
</g>
</g>
<!-- Node7&#45;&gt;Node6 -->
<g id="edge6" class="edge">
<title>Node7&#45;&gt;Node6</title>
<path fill="none" stroke="midnightblue" d="M442.32,-89C453.62,-89 465.36,-89 476.83,-89"/>
<polygon fill="midnightblue" stroke="midnightblue" points="442.09,-85.5 432.09,-89 442.09,-92.5 442.09,-85.5"/>
</g>
<!-- Node12 -->
<g id="node12" class="node">
<title>Node12</title>
<g id="a_node12"><a xlink:href="classmn_1_1basic__mutex.html" target="_top" xlink:title=" ">
<polygon fill="white" stroke="black" points="506.5,-0.5 506.5,-19.5 607.5,-19.5 607.5,-0.5 506.5,-0.5"/>
<text text-anchor="middle" x="557" y="-7.5" font-family="Helvetica,sans-Serif" font-size="10.00">mn::basic_mutex</text>
</a>
</g>
</g>
<!-- Node7&#45;&gt;Node12 -->
<g id="edge13" class="edge">
<title>Node7&#45;&gt;Node12</title>
<path fill="none" stroke="midnightblue" d="M394.86,-74.18C415.87,-61.62 447.62,-43.82 477,-32 489.02,-27.16 502.48,-22.99 514.83,-19.61"/>
<polygon fill="midnightblue" stroke="midnightblue" points="393.02,-71.21 386.28,-79.38 396.64,-77.19 393.02,-71.21"/>
</g>
<!-- Node8&#45;&gt;Node7 -->
<g id="edge7" class="edge">
<title>Node8&#45;&gt;Node7</title>
<path fill="none" stroke="midnightblue" d="M273.13,-107.86C288.73,-104.79 305.5,-101.49 320.59,-98.52"/>
<polygon fill="midnightblue" stroke="midnightblue" points="272.22,-104.47 263.08,-109.84 273.57,-111.34 272.22,-104.47"/>
</g>
<!-- Node9 -->
<g id="node9" class="node">
<title>Node9</title>
<g id="a_node9"><a xlink:title=" ">
<polygon fill="white" stroke="#bfbfbf" points="524.5,-198.5 524.5,-217.5 589.5,-217.5 589.5,-198.5 524.5,-198.5"/>
<text text-anchor="middle" x="557" y="-205.5" font-family="Helvetica,sans-Serif" font-size="10.00">std::string</text>
</a>
</g>
</g>
<!-- Node9&#45;&gt;Node2 -->
<g id="edge9" class="edge">
<title>Node9&#45;&gt;Node2</title>
<path fill="none" stroke="#9a32cd" stroke-dasharray="5,2" d="M600.03,-206.25C641.08,-203.64 704.96,-197.13 758,-181 782.13,-173.66 807.93,-159.87 823.89,-150.56"/>
<polygon fill="#9a32cd" stroke="#9a32cd" points="599.62,-202.77 589.85,-206.85 600.03,-209.76 599.62,-202.77"/>
<text text-anchor="middle" x="706.5" y="-205" font-family="Helvetica,sans-Serif" font-size="10.00"> m_strName</text>
</g>
<!-- Node10 -->
<g id="node10" class="node">
<title>Node10</title>
<g id="a_node10"><a xlink:title=" ">
<polygon fill="white" stroke="#bfbfbf" points="318,-196 318,-226 422,-226 422,-196 318,-196"/>
<text text-anchor="start" x="326" y="-214" font-family="Helvetica,sans-Serif" font-size="10.00">std::basic_string&lt;</text>
<text text-anchor="middle" x="370" y="-203" font-family="Helvetica,sans-Serif" font-size="10.00"> Char &gt;</text>
</a>
</g>
</g>
<!-- Node10&#45;&gt;Node9 -->
<g id="edge10" class="edge">
<title>Node10&#45;&gt;Node9</title>
<path fill="none" stroke="midnightblue" d="M432.26,-210.01C463.05,-209.51 499.08,-208.92 524.29,-208.51"/>
<polygon fill="midnightblue" stroke="midnightblue" points="431.98,-206.51 422.04,-210.17 432.1,-213.51 431.98,-206.51"/>
</g>
<!-- Node11 -->
<g id="node11" class="node">
<title>Node11</title>
<g id="a_node11"><a xlink:href="classmn_1_1queue_1_1basic__work__queue.html" target="_top" xlink:title=" ">
<polygon fill="white" stroke="black" points="776,-36 776,-66 905,-66 905,-36 776,-36"/>
<text text-anchor="start" x="784" y="-54" font-family="Helvetica,sans-Serif" font-size="10.00">mn::queue::basic_work</text>
<text text-anchor="middle" x="840.5" y="-43" font-family="Helvetica,sans-Serif" font-size="10.00">_queue</text>
</a>
</g>
</g>
<!-- Node11&#45;&gt;Node1 -->
<g id="edge11" class="edge">
<title>Node11&#45;&gt;Node1</title>
<path fill="none" stroke="#9a32cd" stroke-dasharray="5,2" d="M915.42,-62.69C962.19,-70.09 1021.89,-79.53 1065.77,-86.47"/>
<polygon fill="#9a32cd" stroke="#9a32cd" points="915.77,-59.2 905.35,-61.1 914.68,-66.12 915.77,-59.2"/>
<text text-anchor="middle" x="976" y="-84" font-family="Helvetica,sans-Serif" font-size="10.00"> m_parentWorkQueue</text>
</g>
<!-- Node12&#45;&gt;Node11 -->
<g id="edge12" class="edge">
<title>Node12&#45;&gt;Node11</title>
<path fill="none" stroke="#9a32cd" stroke-dasharray="5,2" d="M617.86,-10.84C657.86,-12.29 711.46,-15.96 758,-25 771.41,-27.61 785.71,-31.7 798.53,-35.87"/>
<polygon fill="#9a32cd" stroke="#9a32cd" points="617.85,-7.34 607.74,-10.51 617.62,-14.34 617.85,-7.34"/>
<text text-anchor="middle" x="706.5" y="-39" font-family="Helvetica,sans-Serif" font-size="10.00"> m_ThreadJob</text>
<text text-anchor="middle" x="706.5" y="-28" font-family="Helvetica,sans-Serif" font-size="10.00">m_ThreadStatus</text>
</g>
<!-- Node13 -->
<g id="node13" class="node">
<title>Node13</title>
<g id="a_node13"><a xlink:href="classmn_1_1queue_1_1basic__queue.html" target="_top" xlink:title="Queue class wrapper for FreeRTOS queues.">
<polygon fill="white" stroke="black" points="489.5,-41.5 489.5,-60.5 624.5,-60.5 624.5,-41.5 489.5,-41.5"/>
<text text-anchor="middle" x="557" y="-48.5" font-family="Helvetica,sans-Serif" font-size="10.00">mn::queue::basic_queue</text>
</a>
</g>
</g>
<!-- Node13&#45;&gt;Node11 -->
<g id="edge14" class="edge">
<title>Node13&#45;&gt;Node11</title>
<path fill="none" stroke="#9a32cd" stroke-dasharray="5,2" d="M634.83,-51C679.02,-51 733.89,-51 775.69,-51"/>
<polygon fill="#9a32cd" stroke="#9a32cd" points="634.71,-47.5 624.71,-51 634.71,-54.5 634.71,-47.5"/>
<text text-anchor="middle" x="706.5" y="-54" font-family="Helvetica,sans-Serif" font-size="10.00"> m_pWorkItemQueue</text>
</g>
</g>
</svg>
