<?xml version="1.0" encoding="UTF-8" standalone="no"?>
<!DOCTYPE svg PUBLIC "-//W3C//DTD SVG 1.1//EN"
 "http://www.w3.org/Graphics/SVG/1.1/DTD/svg11.dtd">
<!-- Generated by graphviz version 2.46.0 (0)
 -->
<!-- Title: mn::memory::basic_mempool_vector&lt; TType, nElements, TMUTEX, TALLOCATOR &gt; Pages: 1 -->
<svg width="306pt" height="252pt"
 viewBox="0.00 0.00 305.50 252.00" xmlns="http://www.w3.org/2000/svg" xmlns:xlink="http://www.w3.org/1999/xlink">
<g id="graph0" class="graph" transform="scale(1 1) rotate(0) translate(4 248)">
<title>mn::memory::basic_mempool_vector&lt; TType, nElements, TMUTEX, TALLOCATOR &gt;</title>
<polygon fill="white" stroke="transparent" points="-4,4 -4,-248 301.5,-248 301.5,4 -4,4"/>
<!-- Node1 -->
<g id="node1" class="node">
<title>Node1</title>
<g id="a_node1"><a xlink:title=" ">
<polygon fill="#bfbfbf" stroke="black" points="74.5,-0.5 74.5,-41.5 236.5,-41.5 236.5,-0.5 74.5,-0.5"/>
<text text-anchor="start" x="82.5" y="-29.5" font-family="Helvetica,sans-Serif" font-size="10.00">mn::memory::basic_mempool</text>
<text text-anchor="start" x="82.5" y="-18.5" font-family="Helvetica,sans-Serif" font-size="10.00">_vector&lt; TType, nElements,</text>
<text text-anchor="middle" x="155.5" y="-7.5" font-family="Helvetica,sans-Serif" font-size="10.00"> TMUTEX, TALLOCATOR &gt;</text>
</a>
</g>
</g>
<!-- Node2 -->
<g id="node2" class="node">
<title>Node2</title>
<g id="a_node2"><a xlink:title=" ">
<polygon fill="white" stroke="#bfbfbf" points="40,-89.5 40,-119.5 149,-119.5 149,-89.5 40,-89.5"/>
<text text-anchor="start" x="48" y="-107.5" font-family="Helvetica,sans-Serif" font-size="10.00">std::vector&lt; chunk</text>
<text text-anchor="middle" x="94.5" y="-96.5" font-family="Helvetica,sans-Serif" font-size="10.00">_t * &gt;</text>
</a>
</g>
</g>
<!-- Node2&#45;&gt;Node1 -->
<g id="edge1" class="edge">
<title>Node2&#45;&gt;Node1</title>
<path fill="none" stroke="#9a32cd" stroke-dasharray="5,2" d="M111.16,-81.24C120.46,-68.82 131.94,-53.48 140.88,-41.53"/>
<polygon fill="#9a32cd" stroke="#9a32cd" points="108.32,-79.2 105.13,-89.3 113.92,-83.4 108.32,-79.2"/>
<text text-anchor="middle" x="158" y="-63" font-family="Helvetica,sans-Serif" font-size="10.00"> m_vChunks</text>
</g>
<!-- Node3 -->
<g id="node3" class="node">
<title>Node3</title>
<g id="a_node3"><a xlink:href="structvmempool__chunk.html" target="_top" xlink:title=" ">
<polygon fill="white" stroke="black" points="0,-167.5 0,-186.5 155,-186.5 155,-167.5 0,-167.5"/>
<text text-anchor="middle" x="77.5" y="-174.5" font-family="Helvetica,sans-Serif" font-size="10.00">vmempool_chunk&lt; TType &gt;</text>
</a>
</g>
</g>
<!-- Node3&#45;&gt;Node2 -->
<g id="edge2" class="edge">
<title>Node3&#45;&gt;Node2</title>
<path fill="none" stroke="#9a32cd" stroke-dasharray="5,2" d="M81.94,-157.6C84.8,-145.72 88.47,-130.49 91.11,-119.58"/>
<polygon fill="#9a32cd" stroke="#9a32cd" points="78.53,-156.81 79.58,-167.36 85.33,-158.45 78.53,-156.81"/>
<text text-anchor="middle" x="112" y="-141" font-family="Helvetica,sans-Serif" font-size="10.00"> elements</text>
</g>
<!-- Node4 -->
<g id="node4" class="node">
<title>Node4</title>
<g id="a_node4"><a xlink:href="classmn_1_1basic__mutex.html" target="_top" xlink:title=" ">
<polygon fill="white" stroke="black" points="176,-95 176,-114 277,-114 277,-95 176,-95"/>
<text text-anchor="middle" x="226.5" y="-102" font-family="Helvetica,sans-Serif" font-size="10.00">mn::basic_mutex</text>
</a>
</g>
</g>
<!-- Node4&#45;&gt;Node1 -->
<g id="edge3" class="edge">
<title>Node4&#45;&gt;Node1</title>
<path fill="none" stroke="#9a32cd" stroke-dasharray="5,2" d="M212.67,-87.05C205.76,-78.87 197.24,-68.87 189.5,-60 184.26,-54 178.51,-47.52 173.24,-41.64"/>
<polygon fill="#9a32cd" stroke="#9a32cd" points="210.07,-89.39 219.19,-94.78 215.42,-84.88 210.07,-89.39"/>
<text text-anchor="middle" x="223.5" y="-63" font-family="Helvetica,sans-Serif" font-size="10.00"> m_mutex</text>
</g>
<!-- Node5 -->
<g id="node5" class="node">
<title>Node5</title>
<g id="a_node5"><a xlink:href="classmn_1_1basic__semaphore.html" target="_top" xlink:title=" ">
<polygon fill="white" stroke="black" points="173.5,-167.5 173.5,-186.5 297.5,-186.5 297.5,-167.5 173.5,-167.5"/>
<text text-anchor="middle" x="235.5" y="-174.5" font-family="Helvetica,sans-Serif" font-size="10.00">mn::basic_semaphore</text>
</a>
</g>
</g>
<!-- Node5&#45;&gt;Node4 -->
<g id="edge4" class="edge">
<title>Node5&#45;&gt;Node4</title>
<path fill="none" stroke="midnightblue" d="M233.12,-157.36C231.34,-143.4 228.98,-124.93 227.61,-114.22"/>
<polygon fill="midnightblue" stroke="midnightblue" points="229.66,-157.88 234.4,-167.36 236.6,-156.99 229.66,-157.88"/>
</g>
<!-- Node6 -->
<g id="node6" class="node">
<title>Node6</title>
<g id="a_node6"><a xlink:href="classmn_1_1_i_lock_object.html" target="_top" xlink:title=" ">
<polygon fill="white" stroke="black" points="188,-224.5 188,-243.5 283,-243.5 283,-224.5 188,-224.5"/>
<text text-anchor="middle" x="235.5" y="-231.5" font-family="Helvetica,sans-Serif" font-size="10.00">mn::ILockObject</text>
</a>
</g>
</g>
<!-- Node6&#45;&gt;Node5 -->
<g id="edge5" class="edge">
<title>Node6&#45;&gt;Node5</title>
<path fill="none" stroke="midnightblue" d="M235.5,-214.12C235.5,-204.82 235.5,-194.06 235.5,-186.71"/>
<polygon fill="midnightblue" stroke="midnightblue" points="232,-214.41 235.5,-224.41 239,-214.41 232,-214.41"/>
</g>
</g>
</svg>
