<?xml version="1.0" encoding="UTF-8" standalone="no"?>
<!DOCTYPE svg PUBLIC "-//W3C//DTD SVG 1.1//EN"
 "http://www.w3.org/Graphics/SVG/1.1/DTD/svg11.dtd">
<!-- Generated by graphviz version 2.44.1 (0)
 -->
<!-- Title: semaphore_trace_item Pages: 1 -->
<svg width="239pt" height="220pt"
 viewBox="0.00 0.00 239.00 220.00" xmlns="http://www.w3.org/2000/svg" xmlns:xlink="http://www.w3.org/1999/xlink">
<g id="graph0" class="graph" transform="scale(1 1) rotate(0) translate(4 216)">
<title>semaphore_trace_item</title>
<polygon fill="white" stroke="transparent" points="-4,4 -4,-216 235,-216 235,4 -4,4"/>
<!-- Node1 -->
<g id="node1" class="node">
<title>Node1</title>
<g id="a_node1"><a xlink:title=" ">
<polygon fill="#bfbfbf" stroke="black" points="34.5,-0.5 34.5,-19.5 163.5,-19.5 163.5,-0.5 34.5,-0.5"/>
<text text-anchor="middle" x="99" y="-7.5" font-family="Helvetica,sans-Serif" font-size="10.00">semaphore_trace_item</text>
</a>
</g>
</g>
<!-- Node2 -->
<g id="node2" class="node">
<title>Node2</title>
<g id="a_node2"><a xlink:href="classbasic__trace__item.html" target="_top" xlink:title=" ">
<polygon fill="white" stroke="black" points="49,-57.5 49,-76.5 149,-76.5 149,-57.5 49,-57.5"/>
<text text-anchor="middle" x="99" y="-64.5" font-family="Helvetica,sans-Serif" font-size="10.00">basic_trace_item</text>
</a>
</g>
</g>
<!-- Node2&#45;&gt;Node1 -->
<g id="edge1" class="edge">
<title>Node2&#45;&gt;Node1</title>
<path fill="none" stroke="midnightblue" d="M99,-47.12C99,-37.82 99,-27.06 99,-19.71"/>
<polygon fill="midnightblue" stroke="midnightblue" points="95.5,-47.41 99,-57.41 102.5,-47.41 95.5,-47.41"/>
</g>
<!-- Node3 -->
<g id="node3" class="node">
<title>Node3</title>
<g id="a_node3"><a xlink:href="classbasic__trace__item.html#structbasic__trace__item_1_1time" target="_top" xlink:title=" ">
<polygon fill="white" stroke="black" points="0,-124.5 0,-143.5 128,-143.5 128,-124.5 0,-124.5"/>
<text text-anchor="middle" x="64" y="-131.5" font-family="Helvetica,sans-Serif" font-size="10.00">basic_trace_item::time</text>
</a>
</g>
</g>
<!-- Node3&#45;&gt;Node2 -->
<g id="edge2" class="edge">
<title>Node3&#45;&gt;Node2</title>
<path fill="none" stroke="#9a32cd" stroke-dasharray="5,2" d="M73.6,-115.16C80.35,-102.63 89.09,-86.41 94.35,-76.63"/>
<polygon fill="#9a32cd" stroke="#9a32cd" points="70.38,-113.77 68.72,-124.23 76.54,-117.09 70.38,-113.77"/>
<text text-anchor="middle" x="107.5" y="-98" font-family="Helvetica,sans-Serif" font-size="10.00"> m_tTime</text>
</g>
<!-- Node4 -->
<g id="node4" class="node">
<title>Node4</title>
<g id="a_node4"><a xlink:title="STL class.">
<polygon fill="white" stroke="#bfbfbf" points="146.5,-124.5 146.5,-143.5 211.5,-143.5 211.5,-124.5 146.5,-124.5"/>
<text text-anchor="middle" x="179" y="-131.5" font-family="Helvetica,sans-Serif" font-size="10.00">std::string</text>
</a>
</g>
</g>
<!-- Node4&#45;&gt;Node2 -->
<g id="edge3" class="edge">
<title>Node4&#45;&gt;Node2</title>
<path fill="none" stroke="#9a32cd" stroke-dasharray="5,2" d="M161.26,-117.71C153.04,-110.7 143.09,-102.34 134,-95 126.24,-88.73 117.33,-81.87 110.45,-76.63"/>
<polygon fill="#9a32cd" stroke="#9a32cd" points="159.22,-120.57 169.1,-124.42 163.78,-115.26 159.22,-120.57"/>
<text text-anchor="middle" x="176.5" y="-98" font-family="Helvetica,sans-Serif" font-size="10.00"> m_strName</text>
</g>
<!-- Node5 -->
<g id="node5" class="node">
<title>Node5</title>
<g id="a_node5"><a xlink:title="STL class.">
<polygon fill="white" stroke="#bfbfbf" points="127,-181.5 127,-211.5 231,-211.5 231,-181.5 127,-181.5"/>
<text text-anchor="start" x="135" y="-199.5" font-family="Helvetica,sans-Serif" font-size="10.00">std::basic_string&lt;</text>
<text text-anchor="middle" x="179" y="-188.5" font-family="Helvetica,sans-Serif" font-size="10.00"> char &gt;</text>
</a>
</g>
</g>
<!-- Node5&#45;&gt;Node4 -->
<g id="edge4" class="edge">
<title>Node5&#45;&gt;Node4</title>
<path fill="none" stroke="midnightblue" d="M179,-171.35C179,-161.51 179,-150.78 179,-143.54"/>
<polygon fill="midnightblue" stroke="midnightblue" points="175.5,-171.47 179,-181.47 182.5,-171.47 175.5,-171.47"/>
</g>
</g>
</svg>
