<?xml version="1.0" encoding="UTF-8" standalone="no"?>
<!DOCTYPE svg PUBLIC "-//W3C//DTD SVG 1.1//EN"
 "http://www.w3.org/Graphics/SVG/1.1/DTD/svg11.dtd">
<!-- Generated by graphviz version 2.47.1 (0)
 -->
<!-- Title: mn::queue::basic_work_queue_multi Pages: 1 -->
<svg width="585pt" height="533pt"
 viewBox="0.00 0.00 585.00 533.00" xmlns="http://www.w3.org/2000/svg" xmlns:xlink="http://www.w3.org/1999/xlink">
<g id="graph0" class="graph" transform="scale(1 1) rotate(0) translate(4 529)">
<title>mn::queue::basic_work_queue_multi</title>
<polygon fill="white" stroke="transparent" points="-4,4 -4,-529 581,-529 581,4 -4,4"/>
<!-- Node1 -->
<g id="node1" class="node">
<title>Node1</title>
<g id="a_node1"><a xlink:title=" ">
<polygon fill="#bfbfbf" stroke="black" points="138,-0.5 138,-30.5 267,-30.5 267,-0.5 138,-0.5"/>
<text text-anchor="start" x="146" y="-18.5" font-family="Helvetica,sans-Serif" font-size="10.00">mn::queue::basic_work</text>
<text text-anchor="middle" x="202.5" y="-7.5" font-family="Helvetica,sans-Serif" font-size="10.00">_queue_multi</text>
</a>
</g>
</g>
<!-- Node2 -->
<g id="node2" class="node">
<title>Node2</title>
<g id="a_node2"><a xlink:href="classmn_1_1queue_1_1basic__work__queue.html" target="_top" xlink:title=" ">
<polygon fill="white" stroke="black" points="122,-223.5 122,-253.5 251,-253.5 251,-223.5 122,-223.5"/>
<text text-anchor="start" x="130" y="-241.5" font-family="Helvetica,sans-Serif" font-size="10.00">mn::queue::basic_work</text>
<text text-anchor="middle" x="186.5" y="-230.5" font-family="Helvetica,sans-Serif" font-size="10.00">_queue</text>
</a>
</g>
</g>
<!-- Node2&#45;&gt;Node1 -->
<g id="edge1" class="edge">
<title>Node2&#45;&gt;Node1</title>
<path fill="none" stroke="midnightblue" d="M188.25,-213.3C191.6,-167.04 198.82,-67.36 201.48,-30.54"/>
<polygon fill="midnightblue" stroke="midnightblue" points="184.76,-213.11 187.53,-223.34 191.74,-213.62 184.76,-213.11"/>
</g>
<!-- Node9 -->
<g id="node9" class="node">
<title>Node9</title>
<g id="a_node9"><a xlink:href="classmn_1_1queue_1_1work__queue__task.html" target="_top" xlink:title=" ">
<polygon fill="white" stroke="black" points="214.5,-156.5 214.5,-175.5 374.5,-175.5 374.5,-156.5 214.5,-156.5"/>
<text text-anchor="middle" x="294.5" y="-163.5" font-family="Helvetica,sans-Serif" font-size="10.00">mn::queue::work_queue_task</text>
</a>
</g>
</g>
<!-- Node2&#45;&gt;Node9 -->
<g id="edge15" class="edge">
<title>Node2&#45;&gt;Node9</title>
<path fill="none" stroke="#9a32cd" stroke-dasharray="5,2" d="M216.51,-217.91C237.83,-203.99 265.43,-185.98 281.43,-175.53"/>
<polygon fill="#9a32cd" stroke="#9a32cd" points="214.56,-215.01 208.1,-223.4 218.38,-220.87 214.56,-215.01"/>
<text text-anchor="middle" x="302.5" y="-197" font-family="Helvetica,sans-Serif" font-size="10.00"> m_parentWorkQueue</text>
</g>
<!-- Node3 -->
<g id="node3" class="node">
<title>Node3</title>
<g id="a_node3"><a xlink:href="classmn_1_1basic__mutex.html" target="_top" xlink:title=" ">
<polygon fill="white" stroke="black" points="0,-323.5 0,-342.5 101,-342.5 101,-323.5 0,-323.5"/>
<text text-anchor="middle" x="50.5" y="-330.5" font-family="Helvetica,sans-Serif" font-size="10.00">mn::basic_mutex</text>
</a>
</g>
</g>
<!-- Node3&#45;&gt;Node2 -->
<g id="edge2" class="edge">
<title>Node3&#45;&gt;Node2</title>
<path fill="none" stroke="#9a32cd" stroke-dasharray="5,2" d="M61.57,-315.21C71.07,-301.93 85.83,-283.73 102.5,-272 113.24,-264.44 125.98,-258.35 138.25,-253.57"/>
<polygon fill="#9a32cd" stroke="#9a32cd" points="58.67,-313.25 55.88,-323.48 64.43,-317.22 58.67,-313.25"/>
<text text-anchor="middle" x="142.5" y="-291.5" font-family="Helvetica,sans-Serif" font-size="10.00"> m_ThreadJob</text>
<text text-anchor="middle" x="142.5" y="-280.5" font-family="Helvetica,sans-Serif" font-size="10.00">m_ThreadStatus</text>
</g>
<!-- Node4 -->
<g id="node4" class="node">
<title>Node4</title>
<g id="a_node4"><a xlink:href="classmn_1_1basic__semaphore.html" target="_top" xlink:title=" ">
<polygon fill="white" stroke="black" points="275.5,-386 275.5,-405 399.5,-405 399.5,-386 275.5,-386"/>
<text text-anchor="middle" x="337.5" y="-393" font-family="Helvetica,sans-Serif" font-size="10.00">mn::basic_semaphore</text>
</a>
</g>
</g>
<!-- Node4&#45;&gt;Node3 -->
<g id="edge3" class="edge">
<title>Node4&#45;&gt;Node3</title>
<path fill="none" stroke="midnightblue" d="M286.99,-383.85C231.28,-372.11 142.74,-353.44 91.27,-342.59"/>
<polygon fill="midnightblue" stroke="midnightblue" points="286.48,-387.32 296.99,-385.96 287.93,-380.47 286.48,-387.32"/>
</g>
<!-- Node11 -->
<g id="node11" class="node">
<title>Node11</title>
<g id="a_node11"><a xlink:href="classmn_1_1basic__binary__semaphore.html" target="_top" xlink:title=" ">
<polygon fill="white" stroke="black" points="272.5,-323.5 272.5,-342.5 432.5,-342.5 432.5,-323.5 272.5,-323.5"/>
<text text-anchor="middle" x="352.5" y="-330.5" font-family="Helvetica,sans-Serif" font-size="10.00">mn::basic_binary_semaphore</text>
</a>
</g>
</g>
<!-- Node4&#45;&gt;Node11 -->
<g id="edge12" class="edge">
<title>Node4&#45;&gt;Node11</title>
<path fill="none" stroke="midnightblue" d="M342.12,-375.85C344.87,-364.78 348.22,-351.27 350.35,-342.65"/>
<polygon fill="midnightblue" stroke="midnightblue" points="338.66,-375.28 339.65,-385.83 345.45,-376.97 338.66,-375.28"/>
</g>
<!-- Node5 -->
<g id="node5" class="node">
<title>Node5</title>
<g id="a_node5"><a xlink:href="classmn_1_1ILockObject.html" target="_top" xlink:title=" ">
<polygon fill="white" stroke="black" points="392,-448.5 392,-467.5 487,-467.5 487,-448.5 392,-448.5"/>
<text text-anchor="middle" x="439.5" y="-455.5" font-family="Helvetica,sans-Serif" font-size="10.00">mn::ILockObject</text>
</a>
</g>
</g>
<!-- Node5&#45;&gt;Node4 -->
<g id="edge4" class="edge">
<title>Node5&#45;&gt;Node4</title>
<path fill="none" stroke="midnightblue" d="M416.19,-443.17C396.46,-431.47 368.81,-415.07 352.09,-405.15"/>
<polygon fill="midnightblue" stroke="midnightblue" points="414.5,-446.24 424.89,-448.33 418.07,-440.22 414.5,-446.24"/>
</g>
<!-- Node6 -->
<g id="node6" class="node">
<title>Node6</title>
<g id="a_node6"><a xlink:title=" ">
<polygon fill="white" stroke="#bfbfbf" points="446,-505.5 446,-524.5 577,-524.5 577,-505.5 446,-505.5"/>
<text text-anchor="middle" x="511.5" y="-512.5" font-family="Helvetica,sans-Serif" font-size="10.00">MN_ONSIGLETN_CLASS</text>
</a>
</g>
</g>
<!-- Node6&#45;&gt;Node5 -->
<g id="edge5" class="edge">
<title>Node6&#45;&gt;Node5</title>
<path fill="none" stroke="#8b1a1a" d="M492.24,-499.29C479.05,-489.21 462,-476.19 450.91,-467.71"/>
<polygon fill="#8b1a1a" stroke="#8b1a1a" points="490.18,-502.12 500.25,-505.41 494.43,-496.55 490.18,-502.12"/>
</g>
<!-- Node10 -->
<g id="node10" class="node">
<title>Node10</title>
<g id="a_node10"><a xlink:href="classmn_1_1basic__task.html" target="_top" xlink:title="Wrapper class around FreeRTOS&#39;s implementation of a task.">
<polygon fill="white" stroke="black" points="344.5,-229 344.5,-248 434.5,-248 434.5,-229 344.5,-229"/>
<text text-anchor="middle" x="389.5" y="-236" font-family="Helvetica,sans-Serif" font-size="10.00">mn::basic_task</text>
</a>
</g>
</g>
<!-- Node6&#45;&gt;Node10 -->
<g id="edge10" class="edge">
<title>Node6&#45;&gt;Node10</title>
<path fill="none" stroke="#8b1a1a" d="M530.19,-497.97C539.79,-487.91 549.5,-474.02 549.5,-459 549.5,-459 549.5,-459 549.5,-332 549.5,-304.62 554.96,-291.26 535.5,-272 521.38,-258.02 471.99,-249.15 434.53,-244.26"/>
<polygon fill="#8b1a1a" stroke="#8b1a1a" points="527.48,-495.72 522.7,-505.17 532.33,-500.76 527.48,-495.72"/>
</g>
<!-- Node7 -->
<g id="node7" class="node">
<title>Node7</title>
<g id="a_node7"><a xlink:href="classmn_1_1queue_1_1basic__queue.html" target="_top" xlink:title="Queue class wrapper for FreeRTOS queues.">
<polygon fill="white" stroke="black" points="119,-323.5 119,-342.5 254,-342.5 254,-323.5 119,-323.5"/>
<text text-anchor="middle" x="186.5" y="-330.5" font-family="Helvetica,sans-Serif" font-size="10.00">mn::queue::basic_queue</text>
</a>
</g>
</g>
<!-- Node7&#45;&gt;Node2 -->
<g id="edge6" class="edge">
<title>Node7&#45;&gt;Node2</title>
<path fill="none" stroke="#9a32cd" stroke-dasharray="5,2" d="M186.5,-313.29C186.5,-295.67 186.5,-269.67 186.5,-253.7"/>
<polygon fill="#9a32cd" stroke="#9a32cd" points="183,-313.46 186.5,-323.46 190,-313.46 183,-313.46"/>
<text text-anchor="middle" x="238" y="-286" font-family="Helvetica,sans-Serif" font-size="10.00"> m_pWorkItemQueue</text>
</g>
<!-- Node8 -->
<g id="node8" class="node">
<title>Node8</title>
<g id="a_node8"><a xlink:title=" ">
<polygon fill="white" stroke="#bfbfbf" points="222,-78.5 222,-108.5 353,-108.5 353,-78.5 222,-78.5"/>
<text text-anchor="start" x="230" y="-96.5" font-family="Helvetica,sans-Serif" font-size="10.00">std::vector&lt; mn::queue</text>
<text text-anchor="middle" x="287.5" y="-85.5" font-family="Helvetica,sans-Serif" font-size="10.00">::work_queue_task * &gt;</text>
</a>
</g>
</g>
<!-- Node8&#45;&gt;Node1 -->
<g id="edge7" class="edge">
<title>Node8&#45;&gt;Node1</title>
<path fill="none" stroke="#9a32cd" stroke-dasharray="5,2" d="M263.89,-71.39C249.4,-58.43 231.22,-42.18 218.42,-30.73"/>
<polygon fill="#9a32cd" stroke="#9a32cd" points="261.72,-74.15 271.51,-78.2 266.39,-68.93 261.72,-74.15"/>
<text text-anchor="middle" x="278.5" y="-52" font-family="Helvetica,sans-Serif" font-size="10.00"> m_Workers</text>
</g>
<!-- Node9&#45;&gt;Node8 -->
<g id="edge8" class="edge">
<title>Node9&#45;&gt;Node8</title>
<path fill="none" stroke="#9a32cd" stroke-dasharray="5,2" d="M292.64,-146.24C291.46,-134.41 289.97,-119.38 288.9,-108.58"/>
<polygon fill="#9a32cd" stroke="#9a32cd" points="289.17,-146.75 293.64,-156.36 296.14,-146.06 289.17,-146.75"/>
<text text-anchor="middle" x="316" y="-130" font-family="Helvetica,sans-Serif" font-size="10.00"> elements</text>
</g>
<!-- Node10&#45;&gt;Node9 -->
<g id="edge9" class="edge">
<title>Node10&#45;&gt;Node9</title>
<path fill="none" stroke="midnightblue" d="M384.74,-219.3C381.66,-210.63 376.81,-200.71 369.5,-194 360.22,-185.48 348.06,-179.61 336.25,-175.58"/>
<polygon fill="midnightblue" stroke="midnightblue" points="381.42,-220.41 387.68,-228.96 388.12,-218.38 381.42,-220.41"/>
</g>
<!-- Node11&#45;&gt;Node10 -->
<g id="edge11" class="edge">
<title>Node11&#45;&gt;Node10</title>
<path fill="none" stroke="#9a32cd" stroke-dasharray="5,2" d="M350.86,-313.4C350.52,-301.11 351.56,-284.95 357.5,-272 361.93,-262.36 370.49,-253.9 377.64,-248.04"/>
<polygon fill="#9a32cd" stroke="#9a32cd" points="347.36,-313.62 351.45,-323.39 354.35,-313.2 347.36,-313.62"/>
<text text-anchor="middle" x="402.5" y="-297" font-family="Helvetica,sans-Serif" font-size="10.00"> m_contextMutext</text>
<text text-anchor="middle" x="402.5" y="-286" font-family="Helvetica,sans-Serif" font-size="10.00">m_continuemutex</text>
<text text-anchor="middle" x="402.5" y="-275" font-family="Helvetica,sans-Serif" font-size="10.00">m_runningMutex</text>
</g>
<!-- Node12 -->
<g id="node12" class="node">
<title>Node12</title>
<g id="a_node12"><a xlink:title=" ">
<polygon fill="white" stroke="#bfbfbf" points="451,-323.5 451,-342.5 516,-342.5 516,-323.5 451,-323.5"/>
<text text-anchor="middle" x="483.5" y="-330.5" font-family="Helvetica,sans-Serif" font-size="10.00">std::string</text>
</a>
</g>
</g>
<!-- Node12&#45;&gt;Node10 -->
<g id="edge13" class="edge">
<title>Node12&#45;&gt;Node10</title>
<path fill="none" stroke="#9a32cd" stroke-dasharray="5,2" d="M475.81,-314.06C469.6,-301.17 459.88,-284.02 447.5,-272 436.9,-261.71 422.4,-253.58 410.55,-248.03"/>
<polygon fill="#9a32cd" stroke="#9a32cd" points="472.69,-315.65 480.01,-323.3 479.06,-312.75 472.69,-315.65"/>
<text text-anchor="middle" x="501" y="-286" font-family="Helvetica,sans-Serif" font-size="10.00"> m_strName</text>
</g>
<!-- Node13 -->
<g id="node13" class="node">
<title>Node13</title>
<g id="a_node13"><a xlink:title=" ">
<polygon fill="white" stroke="#bfbfbf" points="417.5,-380.5 417.5,-410.5 521.5,-410.5 521.5,-380.5 417.5,-380.5"/>
<text text-anchor="start" x="425.5" y="-398.5" font-family="Helvetica,sans-Serif" font-size="10.00">std::basic_string&lt;</text>
<text text-anchor="middle" x="469.5" y="-387.5" font-family="Helvetica,sans-Serif" font-size="10.00"> Char &gt;</text>
</a>
</g>
</g>
<!-- Node13&#45;&gt;Node12 -->
<g id="edge14" class="edge">
<title>Node13&#45;&gt;Node12</title>
<path fill="none" stroke="midnightblue" d="M475.02,-370.67C477.31,-360.74 479.83,-349.85 481.52,-342.54"/>
<polygon fill="midnightblue" stroke="midnightblue" points="471.59,-369.94 472.75,-380.47 478.41,-371.51 471.59,-369.94"/>
</g>
</g>
</svg>
