<?xml version="1.0" encoding="UTF-8" standalone="no"?>
<!DOCTYPE svg PUBLIC "-//W3C//DTD SVG 1.1//EN"
 "http://www.w3.org/Graphics/SVG/1.1/DTD/svg11.dtd">
<!-- Generated by graphviz version 2.46.0 (0)
 -->
<!-- Title: mn::ext::basic_message_task Pages: 1 -->
<svg width="1580pt" height="199pt"
 viewBox="0.00 0.00 1580.00 199.00" xmlns="http://www.w3.org/2000/svg" xmlns:xlink="http://www.w3.org/1999/xlink">
<g id="graph0" class="graph" transform="scale(1 1) rotate(0) translate(4 195)">
<title>mn::ext::basic_message_task</title>
<polygon fill="white" stroke="transparent" points="-4,4 -4,-195 1576,-195 1576,4 -4,4"/>
<!-- Node1 -->
<g id="node1" class="node">
<title>Node1</title>
<g id="a_node1"><a xlink:title=" ">
<polygon fill="#bfbfbf" stroke="black" points="1411,-34.5 1411,-53.5 1572,-53.5 1572,-34.5 1411,-34.5"/>
<text text-anchor="middle" x="1491.5" y="-41.5" font-family="Helvetica,sans-Serif" font-size="10.00">mn::ext::basic_message_task</text>
</a>
</g>
</g>
<!-- Node2 -->
<g id="node2" class="node">
<title>Node2</title>
<g id="a_node2"><a xlink:href="classmn_1_1ext_1_1basic__convar__task.html" target="_top" xlink:title=" ">
<polygon fill="white" stroke="black" points="706,-54.5 706,-73.5 856,-73.5 856,-54.5 706,-54.5"/>
<text text-anchor="middle" x="781" y="-61.5" font-family="Helvetica,sans-Serif" font-size="10.00">mn::ext::basic_convar_task</text>
</a>
</g>
</g>
<!-- Node2&#45;&gt;Node1 -->
<g id="edge1" class="edge">
<title>Node2&#45;&gt;Node1</title>
<path fill="none" stroke="midnightblue" d="M859.7,-74.61C864.54,-75.12 869.33,-75.59 874,-76 903.69,-78.6 911.2,-78.33 941,-79 1142.04,-83.5 1193.5,-84.19 1393,-59 1405.66,-57.4 1419.21,-55.46 1432.05,-53.52"/>
<polygon fill="midnightblue" stroke="midnightblue" points="860.08,-71.13 849.76,-73.5 859.31,-78.09 860.08,-71.13"/>
</g>
<!-- Node12 -->
<g id="node12" class="node">
<title>Node12</title>
<g id="a_node12"><a xlink:title=" ">
<polygon fill="white" stroke="#bfbfbf" points="941,-40 941,-70 1073,-70 1073,-40 941,-40"/>
<text text-anchor="start" x="949" y="-58" font-family="Helvetica,sans-Serif" font-size="10.00">std::list&lt; mn::ext</text>
<text text-anchor="middle" x="1007" y="-47" font-family="Helvetica,sans-Serif" font-size="10.00">::basic_convar_task * &gt;</text>
</a>
</g>
</g>
<!-- Node2&#45;&gt;Node12 -->
<g id="edge15" class="edge">
<title>Node2&#45;&gt;Node12</title>
<path fill="none" stroke="#9a32cd" stroke-dasharray="5,2" d="M866.36,-60.61C891.05,-59.62 917.65,-58.55 940.95,-57.61"/>
<polygon fill="#9a32cd" stroke="#9a32cd" points="866.13,-57.12 856.28,-61.02 866.41,-64.11 866.13,-57.12"/>
<text text-anchor="middle" x="898.5" y="-64" font-family="Helvetica,sans-Serif" font-size="10.00"> elements</text>
</g>
<!-- Node3 -->
<g id="node3" class="node">
<title>Node3</title>
<g id="a_node3"><a xlink:href="classmn_1_1basic__task.html" target="_top" xlink:title="Wrapper class around FreeRTOS&#39;s implementation of a task.">
<polygon fill="white" stroke="black" points="579,-110.5 579,-129.5 669,-129.5 669,-110.5 579,-110.5"/>
<text text-anchor="middle" x="624" y="-117.5" font-family="Helvetica,sans-Serif" font-size="10.00">mn::basic_task</text>
</a>
</g>
</g>
<!-- Node3&#45;&gt;Node2 -->
<g id="edge2" class="edge">
<title>Node3&#45;&gt;Node2</title>
<path fill="none" stroke="midnightblue" d="M661.19,-106.92C689.53,-96.69 728.27,-82.69 753.7,-73.5"/>
<polygon fill="midnightblue" stroke="midnightblue" points="659.86,-103.68 651.65,-110.37 662.24,-110.27 659.86,-103.68"/>
</g>
<!-- Node3&#45;&gt;Node3 -->
<g id="edge4" class="edge">
<title>Node3&#45;&gt;Node3</title>
<path fill="none" stroke="#9a32cd" stroke-dasharray="5,2" d="M612.58,-139.77C613.48,-144.5 617.28,-148 624,-148 635.02,-148 638.2,-138.57 633.56,-129.76"/>
<polygon fill="#9a32cd" stroke="#9a32cd" points="616.06,-140.23 614.44,-129.76 609.17,-138.95 616.06,-140.23"/>
<text text-anchor="middle" x="624" y="-162" font-family="Helvetica,sans-Serif" font-size="10.00"> m_pChild</text>
<text text-anchor="middle" x="624" y="-151" font-family="Helvetica,sans-Serif" font-size="10.00">m_pParent</text>
</g>
<!-- Node4 -->
<g id="node4" class="node">
<title>Node4</title>
<g id="a_node4"><a xlink:href="classmn_1_1basic__event__group.html" target="_top" xlink:title=" ">
<polygon fill="white" stroke="black" points="308,-171.5 308,-190.5 438,-190.5 438,-171.5 308,-171.5"/>
<text text-anchor="middle" x="373" y="-178.5" font-family="Helvetica,sans-Serif" font-size="10.00">mn::basic_event_group</text>
</a>
</g>
</g>
<!-- Node4&#45;&gt;Node3 -->
<g id="edge3" class="edge">
<title>Node4&#45;&gt;Node3</title>
<path fill="none" stroke="#9a32cd" stroke-dasharray="5,2" d="M448.2,-172.25C482.93,-167.06 524.59,-159.24 561,-148 576.35,-143.26 592.89,-135.66 605.02,-129.57"/>
<polygon fill="#9a32cd" stroke="#9a32cd" points="447.51,-168.81 438.12,-173.71 448.52,-175.74 447.51,-168.81"/>
<text text-anchor="middle" x="516" y="-170" font-family="Helvetica,sans-Serif" font-size="10.00"> m_event</text>
</g>
<!-- Node5 -->
<g id="node5" class="node">
<title>Node5</title>
<g id="a_node5"><a xlink:href="classmn_1_1basic__binary__semaphore.html" target="_top" xlink:title=" ">
<polygon fill="white" stroke="black" points="293,-46.5 293,-65.5 453,-65.5 453,-46.5 293,-46.5"/>
<text text-anchor="middle" x="373" y="-53.5" font-family="Helvetica,sans-Serif" font-size="10.00">mn::basic_binary_semaphore</text>
</a>
</g>
</g>
<!-- Node5&#45;&gt;Node2 -->
<g id="edge10" class="edge">
<title>Node5&#45;&gt;Node2</title>
<path fill="none" stroke="#9a32cd" stroke-dasharray="5,2" d="M463.31,-57.76C536.01,-59.19 637.44,-61.19 705.75,-62.54"/>
<polygon fill="#9a32cd" stroke="#9a32cd" points="463.31,-54.26 453.24,-57.56 463.17,-61.26 463.31,-54.26"/>
<text text-anchor="middle" x="624" y="-65" font-family="Helvetica,sans-Serif" font-size="10.00"> m_waitSem</text>
</g>
<!-- Node5&#45;&gt;Node3 -->
<g id="edge5" class="edge">
<title>Node5&#45;&gt;Node3</title>
<path fill="none" stroke="#9a32cd" stroke-dasharray="5,2" d="M463.09,-66.35C494.52,-71.4 529.79,-78.69 561,-89 577.34,-94.4 594.77,-103.44 606.98,-110.37"/>
<polygon fill="#9a32cd" stroke="#9a32cd" points="463.45,-62.86 453.04,-64.79 462.38,-69.78 463.45,-62.86"/>
<text text-anchor="middle" x="516" y="-114" font-family="Helvetica,sans-Serif" font-size="10.00"> m_contextMutext</text>
<text text-anchor="middle" x="516" y="-103" font-family="Helvetica,sans-Serif" font-size="10.00">m_continuemutex</text>
<text text-anchor="middle" x="516" y="-92" font-family="Helvetica,sans-Serif" font-size="10.00">m_runningMutex</text>
</g>
<!-- Node6 -->
<g id="node6" class="node">
<title>Node6</title>
<g id="a_node6"><a xlink:href="classmn_1_1basic__semaphore.html" target="_top" xlink:title=" ">
<polygon fill="white" stroke="black" points="132,-18.5 132,-37.5 256,-37.5 256,-18.5 132,-18.5"/>
<text text-anchor="middle" x="194" y="-25.5" font-family="Helvetica,sans-Serif" font-size="10.00">mn::basic_semaphore</text>
</a>
</g>
</g>
<!-- Node6&#45;&gt;Node5 -->
<g id="edge6" class="edge">
<title>Node6&#45;&gt;Node5</title>
<path fill="none" stroke="midnightblue" d="M265.39,-39.14C280.77,-41.57 296.92,-44.12 311.85,-46.49"/>
<polygon fill="midnightblue" stroke="midnightblue" points="265.84,-35.66 255.42,-37.56 264.75,-42.58 265.84,-35.66"/>
</g>
<!-- Node11 -->
<g id="node11" class="node">
<title>Node11</title>
<g id="a_node11"><a xlink:href="classmn_1_1basic__mutex.html" target="_top" xlink:title=" ">
<polygon fill="white" stroke="black" points="956.5,-0.5 956.5,-19.5 1057.5,-19.5 1057.5,-0.5 956.5,-0.5"/>
<text text-anchor="middle" x="1007" y="-7.5" font-family="Helvetica,sans-Serif" font-size="10.00">mn::basic_mutex</text>
</a>
</g>
</g>
<!-- Node6&#45;&gt;Node11 -->
<g id="edge13" class="edge">
<title>Node6&#45;&gt;Node11</title>
<path fill="none" stroke="midnightblue" d="M266.49,-17.4C298.66,-13.49 337.16,-10 372,-10 372,-10 372,-10 782,-10 841.89,-10 910.78,-10 956.18,-10"/>
<polygon fill="midnightblue" stroke="midnightblue" points="265.77,-13.97 256.28,-18.68 266.64,-20.91 265.77,-13.97"/>
</g>
<!-- Node7 -->
<g id="node7" class="node">
<title>Node7</title>
<g id="a_node7"><a xlink:href="classmn_1_1_i_lock_object.html" target="_top" xlink:title=" ">
<polygon fill="white" stroke="black" points="0,-18.5 0,-37.5 95,-37.5 95,-18.5 0,-18.5"/>
<text text-anchor="middle" x="47.5" y="-25.5" font-family="Helvetica,sans-Serif" font-size="10.00">mn::ILockObject</text>
</a>
</g>
</g>
<!-- Node7&#45;&gt;Node6 -->
<g id="edge7" class="edge">
<title>Node7&#45;&gt;Node6</title>
<path fill="none" stroke="midnightblue" d="M105.11,-28C113.87,-28 122.95,-28 131.8,-28"/>
<polygon fill="midnightblue" stroke="midnightblue" points="105.02,-24.5 95.02,-28 105.02,-31.5 105.02,-24.5"/>
</g>
<!-- Node8 -->
<g id="node8" class="node">
<title>Node8</title>
<g id="a_node8"><a xlink:title=" ">
<polygon fill="white" stroke="#bfbfbf" points="340.5,-133.5 340.5,-152.5 405.5,-152.5 405.5,-133.5 340.5,-133.5"/>
<text text-anchor="middle" x="373" y="-140.5" font-family="Helvetica,sans-Serif" font-size="10.00">std::string</text>
</a>
</g>
</g>
<!-- Node8&#45;&gt;Node3 -->
<g id="edge8" class="edge">
<title>Node8&#45;&gt;Node3</title>
<path fill="none" stroke="#9a32cd" stroke-dasharray="5,2" d="M415.58,-139.16C460.72,-134.99 532.54,-128.36 578.72,-124.09"/>
<polygon fill="#9a32cd" stroke="#9a32cd" points="415.17,-135.68 405.54,-140.09 415.82,-142.65 415.17,-135.68"/>
<text text-anchor="middle" x="516" y="-136" font-family="Helvetica,sans-Serif" font-size="10.00"> m_strName</text>
</g>
<!-- Node9 -->
<g id="node9" class="node">
<title>Node9</title>
<g id="a_node9"><a xlink:title=" ">
<polygon fill="white" stroke="#bfbfbf" points="142,-128 142,-158 246,-158 246,-128 142,-128"/>
<text text-anchor="start" x="150" y="-146" font-family="Helvetica,sans-Serif" font-size="10.00">std::basic_string&lt;</text>
<text text-anchor="middle" x="194" y="-135" font-family="Helvetica,sans-Serif" font-size="10.00"> Char &gt;</text>
</a>
</g>
</g>
<!-- Node9&#45;&gt;Node8 -->
<g id="edge9" class="edge">
<title>Node9&#45;&gt;Node8</title>
<path fill="none" stroke="midnightblue" d="M256.41,-143C284.71,-143 317.11,-143 340.38,-143"/>
<polygon fill="midnightblue" stroke="midnightblue" points="256.2,-139.5 246.2,-143 256.2,-146.5 256.2,-139.5"/>
</g>
<!-- Node10 -->
<g id="node10" class="node">
<title>Node10</title>
<g id="a_node10"><a xlink:href="classmn_1_1ext_1_1basic__condition__variable.html" target="_top" xlink:title=" ">
<polygon fill="white" stroke="black" points="1166,-29 1166,-59 1302,-59 1302,-29 1166,-29"/>
<text text-anchor="start" x="1174" y="-47" font-family="Helvetica,sans-Serif" font-size="10.00">mn::ext::basic_condition</text>
<text text-anchor="middle" x="1234" y="-36" font-family="Helvetica,sans-Serif" font-size="10.00">_variable</text>
</a>
</g>
</g>
<!-- Node10&#45;&gt;Node1 -->
<g id="edge11" class="edge">
<title>Node10&#45;&gt;Node1</title>
<path fill="none" stroke="#9a32cd" stroke-dasharray="5,2" d="M1312.47,-44C1343.55,-44 1379.34,-44 1410.65,-44"/>
<polygon fill="#9a32cd" stroke="#9a32cd" points="1312.13,-40.5 1302.13,-44 1312.13,-47.5 1312.13,-40.5"/>
<text text-anchor="middle" x="1356.5" y="-47" font-family="Helvetica,sans-Serif" font-size="10.00"> m_cvMessage</text>
</g>
<!-- Node11&#45;&gt;Node1 -->
<g id="edge16" class="edge">
<title>Node11&#45;&gt;Node1</title>
<path fill="none" stroke="#9a32cd" stroke-dasharray="5,2" d="M1067.96,-9.06C1097.48,-8.65 1133.61,-8.21 1166,-8 1226.44,-7.62 1241.82,-2.31 1302,-8 1354.57,-12.98 1414.3,-25.59 1452.18,-34.48"/>
<polygon fill="#9a32cd" stroke="#9a32cd" points="1067.76,-5.56 1057.81,-9.21 1067.86,-12.56 1067.76,-5.56"/>
<text text-anchor="middle" x="1234" y="-11" font-family="Helvetica,sans-Serif" font-size="10.00"> m_ltMessageQueueLock</text>
</g>
<!-- Node11&#45;&gt;Node10 -->
<g id="edge12" class="edge">
<title>Node11&#45;&gt;Node10</title>
<path fill="none" stroke="#9a32cd" stroke-dasharray="5,2" d="M1067.64,-19.01C1097.89,-23.58 1134.74,-29.15 1165.97,-33.87"/>
<polygon fill="#9a32cd" stroke="#9a32cd" points="1068.07,-15.54 1057.66,-17.5 1067.02,-22.46 1068.07,-15.54"/>
<text text-anchor="middle" x="1119.5" y="-35" font-family="Helvetica,sans-Serif" font-size="10.00"> m_mutex</text>
</g>
<!-- Node12&#45;&gt;Node10 -->
<g id="edge14" class="edge">
<title>Node12&#45;&gt;Node10</title>
<path fill="none" stroke="#9a32cd" stroke-dasharray="5,2" d="M1083.14,-51.33C1109.85,-50.02 1139.72,-48.56 1165.72,-47.29"/>
<polygon fill="#9a32cd" stroke="#9a32cd" points="1082.9,-47.83 1073.08,-51.82 1083.24,-54.83 1082.9,-47.83"/>
<text text-anchor="middle" x="1119.5" y="-54" font-family="Helvetica,sans-Serif" font-size="10.00"> m_waitList</text>
</g>
</g>
</svg>
