<?xml version="1.0" encoding="UTF-8" standalone="no"?>
<!DOCTYPE svg PUBLIC "-//W3C//DTD SVG 1.1//EN"
 "http://www.w3.org/Graphics/SVG/1.1/DTD/svg11.dtd">
<!-- Generated by graphviz version 2.46.0 (0)
 -->
<!-- Title: mn::basic_task Pages: 1 -->
<svg width="420pt" height="244pt"
 viewBox="0.00 0.00 420.00 244.00" xmlns="http://www.w3.org/2000/svg" xmlns:xlink="http://www.w3.org/1999/xlink">
<g id="graph0" class="graph" transform="scale(1 1) rotate(0) translate(4 240)">
<title>mn::basic_task</title>
<polygon fill="white" stroke="transparent" points="-4,4 -4,-240 416,-240 416,4 -4,4"/>
<!-- Node1 -->
<g id="node1" class="node">
<title>Node1</title>
<g id="a_node1"><a xlink:title="Wrapper class around FreeRTOS&#39;s implementation of a task.">
<polygon fill="#bfbfbf" stroke="black" points="183,-1.5 183,-20.5 273,-20.5 273,-1.5 183,-1.5"/>
<text text-anchor="middle" x="228" y="-8.5" font-family="Helvetica,sans-Serif" font-size="10.00">mn::basic_task</text>
</a>
</g>
</g>
<!-- Node1&#45;&gt;Node1 -->
<g id="edge2" class="edge">
<title>Node1&#45;&gt;Node1</title>
<path fill="none" stroke="#9a32cd" stroke-dasharray="5,2" d="M282.9,-17.55C287.88,-16.18 291,-14 291,-11 291,-6.32 283.39,-3.63 273.02,-2.93"/>
<polygon fill="#9a32cd" stroke="#9a32cd" points="282.37,-14.09 273.02,-19.07 283.44,-21.01 282.37,-14.09"/>
<text text-anchor="middle" x="317" y="-14" font-family="Helvetica,sans-Serif" font-size="10.00"> m_pChild</text>
<text text-anchor="middle" x="317" y="-3" font-family="Helvetica,sans-Serif" font-size="10.00">m_pParent</text>
</g>
<!-- Node2 -->
<g id="node2" class="node">
<title>Node2</title>
<g id="a_node2"><a xlink:href="classmn_1_1basic__event__group.html" target="_top" xlink:title=" ">
<polygon fill="white" stroke="black" points="0,-91.5 0,-110.5 130,-110.5 130,-91.5 0,-91.5"/>
<text text-anchor="middle" x="65" y="-98.5" font-family="Helvetica,sans-Serif" font-size="10.00">mn::basic_event_group</text>
</a>
</g>
</g>
<!-- Node2&#45;&gt;Node1 -->
<g id="edge1" class="edge">
<title>Node2&#45;&gt;Node1</title>
<path fill="none" stroke="#9a32cd" stroke-dasharray="5,2" d="M89.77,-86.63C123.74,-68.29 183.82,-35.85 212.25,-20.5"/>
<polygon fill="#9a32cd" stroke="#9a32cd" points="88.06,-83.57 80.93,-91.4 91.39,-89.73 88.06,-83.57"/>
<text text-anchor="middle" x="199" y="-54" font-family="Helvetica,sans-Serif" font-size="10.00"> m_event</text>
</g>
<!-- Node3 -->
<g id="node3" class="node">
<title>Node3</title>
<g id="a_node3"><a xlink:href="classmn_1_1basic__binary__semaphore.html" target="_top" xlink:title=" ">
<polygon fill="white" stroke="black" points="148,-91.5 148,-110.5 308,-110.5 308,-91.5 148,-91.5"/>
<text text-anchor="middle" x="228" y="-98.5" font-family="Helvetica,sans-Serif" font-size="10.00">mn::basic_binary_semaphore</text>
</a>
</g>
</g>
<!-- Node3&#45;&gt;Node1 -->
<g id="edge3" class="edge">
<title>Node3&#45;&gt;Node1</title>
<path fill="none" stroke="#9a32cd" stroke-dasharray="5,2" d="M228,-80.98C228,-62.31 228,-34.67 228,-20.72"/>
<polygon fill="#9a32cd" stroke="#9a32cd" points="224.5,-81.24 228,-91.24 231.5,-81.24 224.5,-81.24"/>
<text text-anchor="middle" x="273" y="-65" font-family="Helvetica,sans-Serif" font-size="10.00"> m_contextMutext</text>
<text text-anchor="middle" x="273" y="-54" font-family="Helvetica,sans-Serif" font-size="10.00">m_continuemutex</text>
<text text-anchor="middle" x="273" y="-43" font-family="Helvetica,sans-Serif" font-size="10.00">m_runningMutex</text>
</g>
<!-- Node4 -->
<g id="node4" class="node">
<title>Node4</title>
<g id="a_node4"><a xlink:href="classmn_1_1basic__semaphore.html" target="_top" xlink:title=" ">
<polygon fill="white" stroke="black" points="166,-154 166,-173 290,-173 290,-154 166,-154"/>
<text text-anchor="middle" x="228" y="-161" font-family="Helvetica,sans-Serif" font-size="10.00">mn::basic_semaphore</text>
</a>
</g>
</g>
<!-- Node4&#45;&gt;Node3 -->
<g id="edge4" class="edge">
<title>Node4&#45;&gt;Node3</title>
<path fill="none" stroke="midnightblue" d="M228,-143.5C228,-132.5 228,-119.18 228,-110.65"/>
<polygon fill="midnightblue" stroke="midnightblue" points="224.5,-143.83 228,-153.83 231.5,-143.83 224.5,-143.83"/>
</g>
<!-- Node5 -->
<g id="node5" class="node">
<title>Node5</title>
<g id="a_node5"><a xlink:href="classmn_1_1_i_lock_object.html" target="_top" xlink:title=" ">
<polygon fill="white" stroke="black" points="180.5,-216.5 180.5,-235.5 275.5,-235.5 275.5,-216.5 180.5,-216.5"/>
<text text-anchor="middle" x="228" y="-223.5" font-family="Helvetica,sans-Serif" font-size="10.00">mn::ILockObject</text>
</a>
</g>
</g>
<!-- Node5&#45;&gt;Node4 -->
<g id="edge5" class="edge">
<title>Node5&#45;&gt;Node4</title>
<path fill="none" stroke="midnightblue" d="M228,-206C228,-195 228,-181.68 228,-173.15"/>
<polygon fill="midnightblue" stroke="midnightblue" points="224.5,-206.33 228,-216.33 231.5,-206.33 224.5,-206.33"/>
</g>
<!-- Node6 -->
<g id="node6" class="node">
<title>Node6</title>
<g id="a_node6"><a xlink:title=" ">
<polygon fill="white" stroke="#bfbfbf" points="327.5,-91.5 327.5,-110.5 392.5,-110.5 392.5,-91.5 327.5,-91.5"/>
<text text-anchor="middle" x="360" y="-98.5" font-family="Helvetica,sans-Serif" font-size="10.00">std::string</text>
</a>
</g>
</g>
<!-- Node6&#45;&gt;Node1 -->
<g id="edge6" class="edge">
<title>Node6&#45;&gt;Node1</title>
<path fill="none" stroke="#9a32cd" stroke-dasharray="5,2" d="M352.81,-82.04C346.56,-68.61 336.26,-50.79 322,-40 307.88,-29.31 289.72,-22.69 273.13,-18.59"/>
<polygon fill="#9a32cd" stroke="#9a32cd" points="349.61,-83.46 356.8,-91.25 356.04,-80.69 349.61,-83.46"/>
<text text-anchor="middle" x="379.5" y="-54" font-family="Helvetica,sans-Serif" font-size="10.00"> m_strName</text>
</g>
<!-- Node7 -->
<g id="node7" class="node">
<title>Node7</title>
<g id="a_node7"><a xlink:title=" ">
<polygon fill="white" stroke="#bfbfbf" points="308,-148.5 308,-178.5 412,-178.5 412,-148.5 308,-148.5"/>
<text text-anchor="start" x="316" y="-166.5" font-family="Helvetica,sans-Serif" font-size="10.00">std::basic_string&lt;</text>
<text text-anchor="middle" x="360" y="-155.5" font-family="Helvetica,sans-Serif" font-size="10.00"> Char &gt;</text>
</a>
</g>
</g>
<!-- Node7&#45;&gt;Node6 -->
<g id="edge7" class="edge">
<title>Node7&#45;&gt;Node6</title>
<path fill="none" stroke="midnightblue" d="M360,-138.35C360,-128.51 360,-117.78 360,-110.54"/>
<polygon fill="midnightblue" stroke="midnightblue" points="356.5,-138.47 360,-148.47 363.5,-138.47 356.5,-138.47"/>
</g>
</g>
</svg>
