<?xml version="1.0" encoding="UTF-8" standalone="no"?>
<!DOCTYPE svg PUBLIC "-//W3C//DTD SVG 1.1//EN"
 "http://www.w3.org/Graphics/SVG/1.1/DTD/svg11.dtd">
<!-- Generated by graphviz version 2.46.0 (0)
 -->
<!-- Title: mn::net::basic_ip6_endpoint Pages: 1 -->
<svg width="169pt" height="173pt"
 viewBox="0.00 0.00 169.00 173.00" xmlns="http://www.w3.org/2000/svg" xmlns:xlink="http://www.w3.org/1999/xlink">
<g id="graph0" class="graph" transform="scale(1 1) rotate(0) translate(4 169)">
<title>mn::net::basic_ip6_endpoint</title>
<polygon fill="white" stroke="transparent" points="-4,4 -4,-169 165,-169 165,4 -4,4"/>
<!-- Node1 -->
<g id="node1" class="node">
<title>Node1</title>
<g id="a_node1"><a xlink:title="This class represents an IPv6 endpoint/socket address.">
<polygon fill="#bfbfbf" stroke="black" points="27.5,-0.5 27.5,-30.5 133.5,-30.5 133.5,-0.5 27.5,-0.5"/>
<text text-anchor="start" x="35.5" y="-18.5" font-family="Helvetica,sans-Serif" font-size="10.00">mn::net::basic_ip6</text>
<text text-anchor="middle" x="80.5" y="-7.5" font-family="Helvetica,sans-Serif" font-size="10.00">_endpoint</text>
</a>
</g>
</g>
<!-- Node2 -->
<g id="node2" class="node">
<title>Node2</title>
<g id="a_node2"><a xlink:href="classmn_1_1net_1_1basic__ip__endpoint.html" target="_top" xlink:title=" ">
<polygon fill="white" stroke="black" points="0,-67.5 0,-108.5 161,-108.5 161,-67.5 0,-67.5"/>
<text text-anchor="start" x="8" y="-96.5" font-family="Helvetica,sans-Serif" font-size="10.00">mn::net::basic_ip_endpoint</text>
<text text-anchor="start" x="8" y="-85.5" font-family="Helvetica,sans-Serif" font-size="10.00">&lt; basic_ip6_address, address</text>
<text text-anchor="middle" x="80.5" y="-74.5" font-family="Helvetica,sans-Serif" font-size="10.00">_family::inet_v6 &gt;</text>
</a>
</g>
</g>
<!-- Node2&#45;&gt;Node1 -->
<g id="edge1" class="edge">
<title>Node2&#45;&gt;Node1</title>
<path fill="none" stroke="midnightblue" d="M80.5,-57.08C80.5,-48.01 80.5,-38.45 80.5,-30.89"/>
<polygon fill="midnightblue" stroke="midnightblue" points="77,-57.36 80.5,-67.36 84,-57.36 77,-57.36"/>
</g>
<!-- Node3 -->
<g id="node3" class="node">
<title>Node3</title>
<g id="a_node3"><a xlink:href="classmn_1_1net_1_1basic__endpoint.html" target="_top" xlink:title="This abstract basic class represents an endpoint/socket address.">
<polygon fill="white" stroke="black" points="13.5,-145.5 13.5,-164.5 147.5,-164.5 147.5,-145.5 13.5,-145.5"/>
<text text-anchor="middle" x="80.5" y="-152.5" font-family="Helvetica,sans-Serif" font-size="10.00">mn::net::basic_endpoint</text>
</a>
</g>
</g>
<!-- Node3&#45;&gt;Node2 -->
<g id="edge2" class="edge">
<title>Node3&#45;&gt;Node2</title>
<path fill="none" stroke="midnightblue" d="M80.5,-135.04C80.5,-126.71 80.5,-116.94 80.5,-108.54"/>
<polygon fill="midnightblue" stroke="midnightblue" points="77,-135.23 80.5,-145.23 84,-135.23 77,-135.23"/>
</g>
</g>
</svg>
