<?xml version="1.0" encoding="UTF-8" standalone="no"?>
<!DOCTYPE svg PUBLIC "-//W3C//DTD SVG 1.1//EN"
 "http://www.w3.org/Graphics/SVG/1.1/DTD/svg11.dtd">
<!-- Generated by graphviz version 2.44.1 (0)
 -->
<!-- Title: basic_message_task Pages: 1 -->
<!--zoomable 513 -->
<svg id="main" version="1.1" xmlns="http://www.w3.org/2000/svg" xmlns:xlink="http://www.w3.org/1999/xlink" xml:space="preserve" onload="init(evt)">
<style type="text/css"><![CDATA[
.edge:hover path { stroke: red; }
.edge:hover polygon { stroke: red; fill: red; }
]]></style>
<script type="text/javascript"><![CDATA[
var edges = document.getElementsByTagName('g');
if (edges && edges.length) {
  for (var i=0;i<edges.length;i++) {
    if (edges[i].id.substr(0,4)=='edge') {
      edges[i].setAttribute('class','edge');
    }
  }
}
]]></script>
        <defs>
                <circle id="rim" cx="0" cy="0" r="7"/>
                <circle id="rim2" cx="0" cy="0" r="3.5"/>
                <g id="zoomPlus">
                        <use xlink:href="#rim" fill="#404040">
                                <set attributeName="fill" to="#808080" begin="zoomplus.mouseover" end="zoomplus.mouseout"/>
                        </use>
                        <path d="M-4,0h8M0,-4v8" fill="none" stroke="white" stroke-width="1.5" pointer-events="none"/>
                </g>
                <g id="zoomMin">
                        <use xlink:href="#rim" fill="#404040">
                                <set attributeName="fill" to="#808080" begin="zoomminus.mouseover" end="zoomminus.mouseout"/>
                        </use>
                        <path d="M-4,0h8" fill="none" stroke="white" stroke-width="1.5" pointer-events="none"/>
                </g>
                <g id="dirArrow">
                        <path fill="none" stroke="white" stroke-width="1.5" d="M0,-3.0v7 M-2.5,-0.5L0,-3.0L2.5,-0.5"/>
                </g>
               <g id="resetDef">
                       <use xlink:href="#rim2" fill="#404040">
                               <set attributeName="fill" to="#808080" begin="reset.mouseover" end="reset.mouseout"/>
                       </use>
               </g>
        </defs>

<script type="text/javascript">
var viewWidth = 656;
var viewHeight = 513;
var sectionId = 'dynsection-1';
</script>
<script xlink:href="svgpan.js"/>
<svg id="graph" class="graph">
<g id="viewport">
<title>basic_message_task</title>
<polygon fill="white" stroke="transparent" points="-4,4 -4,-509 651.5,-509 651.5,4 -4,4"/>
<!-- Node1 -->
<g id="node1" class="node">
<title>Node1</title>
<g id="a_node1"><a xlink:title=" ">
<polygon fill="#bfbfbf" stroke="black" points="325,-0.5 325,-19.5 443,-19.5 443,-0.5 325,-0.5"/>
<text text-anchor="middle" x="384" y="-7.5" font-family="Helvetica,sans-Serif" font-size="10.00">basic_message_task</text>
</a>
</g>
</g>
<!-- Node2 -->
<g id="node2" class="node">
<title>Node2</title>
<g id="a_node2"><a xlink:href="classbasic__convar__task.html" target="_top" xlink:title=" ">
<polygon fill="white" stroke="black" points="190.5,-212.5 190.5,-231.5 297.5,-231.5 297.5,-212.5 190.5,-212.5"/>
<text text-anchor="middle" x="244" y="-219.5" font-family="Helvetica,sans-Serif" font-size="10.00">basic_convar_task</text>
</a>
</g>
</g>
<!-- Node2&#45;&gt;Node1 -->
<g id="edge1" class="edge">
<title>Node2&#45;&gt;Node1</title>
<path fill="none" stroke="midnightblue" d="M233.11,-203.64C227.06,-192.94 220.13,-178.7 217,-165 206.88,-120.72 213.51,-98.75 246,-67 271.8,-41.79 310.46,-27.43 340.3,-19.57"/>
<polygon fill="midnightblue" stroke="midnightblue" points="230.17,-205.54 238.29,-212.34 236.18,-201.96 230.17,-205.54"/>
</g>
<!-- Node13 -->
<g id="node13" class="node">
<title>Node13</title>
<g id="a_node13"><a xlink:title=" ">
<polygon fill="white" stroke="#bfbfbf" points="226,-134.5 226,-164.5 354,-164.5 354,-134.5 226,-134.5"/>
<text text-anchor="start" x="234" y="-152.5" font-family="Helvetica,sans-Serif" font-size="10.00">std::list&lt; basic_convar</text>
<text text-anchor="middle" x="290" y="-141.5" font-family="Helvetica,sans-Serif" font-size="10.00">_task * &gt;</text>
</a>
</g>
</g>
<!-- Node2&#45;&gt;Node13 -->
<g id="edge17" class="edge">
<title>Node2&#45;&gt;Node13</title>
<path fill="none" stroke="#9a32cd" stroke-dasharray="5,2" d="M255.3,-203.68C263.15,-191.65 273.47,-175.83 280.82,-164.58"/>
<polygon fill="#9a32cd" stroke="#9a32cd" points="252.17,-202.07 249.64,-212.36 258.04,-205.89 252.17,-202.07"/>
<text text-anchor="middle" x="293.5" y="-186" font-family="Helvetica,sans-Serif" font-size="10.00"> elements</text>
</g>
<!-- Node3 -->
<g id="node3" class="node">
<title>Node3</title>
<g id="a_node3"><a xlink:href="classbasic__task.html" target="_top" xlink:title=" ">
<polygon fill="white" stroke="black" points="131,-270.5 131,-289.5 199,-289.5 199,-270.5 131,-270.5"/>
<text text-anchor="middle" x="165" y="-277.5" font-family="Helvetica,sans-Serif" font-size="10.00">basic_task</text>
</a>
</g>
</g>
<!-- Node3&#45;&gt;Node2 -->
<g id="edge2" class="edge">
<title>Node3&#45;&gt;Node2</title>
<path fill="none" stroke="midnightblue" d="M185.46,-264.49C200.19,-254.06 219.55,-240.33 231.89,-231.59"/>
<polygon fill="midnightblue" stroke="midnightblue" points="183.13,-261.86 177,-270.49 187.18,-267.57 183.13,-261.86"/>
</g>
<!-- Node3&#45;&gt;Node3 -->
<g id="edge9" class="edge">
<title>Node3&#45;&gt;Node3</title>
<path fill="none" stroke="#9a32cd" stroke-dasharray="5,2" d="M209.15,-284.39C213.92,-283.55 217,-282.08 217,-280 217,-276.66 209.13,-274.92 199.01,-274.76"/>
<polygon fill="#9a32cd" stroke="#9a32cd" points="208.68,-280.92 199.01,-285.24 209.27,-287.89 208.68,-280.92"/>
<text text-anchor="middle" x="243" y="-283" font-family="Helvetica,sans-Serif" font-size="10.00"> m_pChild</text>
<text text-anchor="middle" x="243" y="-272" font-family="Helvetica,sans-Serif" font-size="10.00">m_pParent</text>
</g>
<!-- Node4 -->
<g id="node4" class="node">
<title>Node4</title>
<g id="a_node4"><a xlink:href="classbasic__event__group.html" target="_top" xlink:title=" ">
<polygon fill="white" stroke="black" points="0,-360.5 0,-379.5 108,-379.5 108,-360.5 0,-360.5"/>
<text text-anchor="middle" x="54" y="-367.5" font-family="Helvetica,sans-Serif" font-size="10.00">basic_event_group</text>
</a>
</g>
</g>
<!-- Node4&#45;&gt;Node3 -->
<g id="edge3" class="edge">
<title>Node4&#45;&gt;Node3</title>
<path fill="none" stroke="#9a32cd" stroke-dasharray="5,2" d="M60.64,-350.9C66.33,-337.65 75.73,-320.13 89,-309 100.96,-298.97 116.84,-292.37 130.98,-288.12"/>
<polygon fill="#9a32cd" stroke="#9a32cd" points="57.31,-349.81 56.87,-360.39 63.81,-352.39 57.31,-349.81"/>
<text text-anchor="middle" x="112" y="-323" font-family="Helvetica,sans-Serif" font-size="10.00"> m_event</text>
</g>
<!-- Node5 -->
<g id="node5" class="node">
<title>Node5</title>
<g id="a_node5"><a xlink:href="classbasic__binary__semaphore.html" target="_top" xlink:title=" ">
<polygon fill="white" stroke="black" points="257,-360.5 257,-379.5 395,-379.5 395,-360.5 257,-360.5"/>
<text text-anchor="middle" x="326" y="-367.5" font-family="Helvetica,sans-Serif" font-size="10.00">basic_binary_semaphore</text>
</a>
</g>
</g>
<!-- Node5&#45;&gt;Node2 -->
<g id="edge10" class="edge">
<title>Node5&#45;&gt;Node2</title>
<path fill="none" stroke="#9a32cd" stroke-dasharray="5,2" d="M325.4,-350.11C324.41,-337.9 321.95,-321.94 316,-309 300.95,-276.27 270.05,-245.93 254.07,-231.62"/>
<polygon fill="#9a32cd" stroke="#9a32cd" points="321.92,-350.65 325.97,-360.44 328.91,-350.26 321.92,-350.65"/>
<text text-anchor="middle" x="336.5" y="-277.5" font-family="Helvetica,sans-Serif" font-size="10.00"> m_waitSem</text>
</g>
<!-- Node5&#45;&gt;Node3 -->
<g id="edge4" class="edge">
<title>Node5&#45;&gt;Node3</title>
<path fill="none" stroke="#9a32cd" stroke-dasharray="5,2" d="M257.61,-357.43C246.44,-353.65 235.44,-348.64 226,-342 211.38,-331.72 215.47,-321.81 203,-309 195.8,-301.6 186.48,-294.7 178.87,-289.61"/>
<polygon fill="#9a32cd" stroke="#9a32cd" points="256.86,-360.85 267.45,-360.44 258.91,-354.16 256.86,-360.85"/>
<text text-anchor="middle" x="271" y="-334" font-family="Helvetica,sans-Serif" font-size="10.00"> m_contextMutext</text>
<text text-anchor="middle" x="271" y="-323" font-family="Helvetica,sans-Serif" font-size="10.00">m_continuemutex</text>
<text text-anchor="middle" x="271" y="-312" font-family="Helvetica,sans-Serif" font-size="10.00">m_runningMutex</text>
</g>
<!-- Node6 -->
<g id="node6" class="node">
<title>Node6</title>
<g id="a_node6"><a xlink:href="classbasic__semaphore.html" target="_top" xlink:title=" ">
<polygon fill="white" stroke="black" points="324,-423 324,-442 426,-442 426,-423 324,-423"/>
<text text-anchor="middle" x="375" y="-430" font-family="Helvetica,sans-Serif" font-size="10.00">basic_semaphore</text>
</a>
</g>
</g>
<!-- Node6&#45;&gt;Node5 -->
<g id="edge5" class="edge">
<title>Node6&#45;&gt;Node5</title>
<path fill="none" stroke="midnightblue" d="M361.55,-414.89C352.31,-403.49 340.43,-388.81 333.01,-379.65"/>
<polygon fill="midnightblue" stroke="midnightblue" points="358.97,-417.26 367.98,-422.83 364.41,-412.86 358.97,-417.26"/>
</g>
<!-- Node10 -->
<g id="node10" class="node">
<title>Node10</title>
<g id="a_node10"><a xlink:href="classbasic__mutex.html" target="_top" xlink:title=" ">
<polygon fill="white" stroke="black" points="383.5,-140 383.5,-159 462.5,-159 462.5,-140 383.5,-140"/>
<text text-anchor="middle" x="423" y="-147" font-family="Helvetica,sans-Serif" font-size="10.00">basic_mutex</text>
</a>
</g>
</g>
<!-- Node6&#45;&gt;Node10 -->
<g id="edge12" class="edge">
<title>Node6&#45;&gt;Node10</title>
<path fill="none" stroke="midnightblue" d="M396.25,-416.54C409.09,-405.59 423,-389.48 423,-371 423,-371 423,-371 423,-221 423,-198.72 423,-172.49 423,-159.18"/>
<polygon fill="midnightblue" stroke="midnightblue" points="393.8,-414.01 388.12,-422.95 398.13,-419.5 393.8,-414.01"/>
</g>
<!-- Node7 -->
<g id="node7" class="node">
<title>Node7</title>
<g id="a_node7"><a xlink:href="class_i_lock_object.html" target="_top" xlink:title=" ">
<polygon fill="white" stroke="black" points="338,-485.5 338,-504.5 412,-504.5 412,-485.5 338,-485.5"/>
<text text-anchor="middle" x="375" y="-492.5" font-family="Helvetica,sans-Serif" font-size="10.00">ILockObject</text>
</a>
</g>
</g>
<!-- Node7&#45;&gt;Node6 -->
<g id="edge6" class="edge">
<title>Node7&#45;&gt;Node6</title>
<path fill="none" stroke="midnightblue" d="M375,-475C375,-464 375,-450.68 375,-442.15"/>
<polygon fill="midnightblue" stroke="midnightblue" points="371.5,-475.33 375,-485.33 378.5,-475.33 371.5,-475.33"/>
</g>
<!-- Node8 -->
<g id="node8" class="node">
<title>Node8</title>
<g id="a_node8"><a xlink:title="STL class.">
<polygon fill="white" stroke="#bfbfbf" points="126.5,-360.5 126.5,-379.5 191.5,-379.5 191.5,-360.5 126.5,-360.5"/>
<text text-anchor="middle" x="159" y="-367.5" font-family="Helvetica,sans-Serif" font-size="10.00">std::string</text>
</a>
</g>
</g>
<!-- Node8&#45;&gt;Node3 -->
<g id="edge7" class="edge">
<title>Node8&#45;&gt;Node3</title>
<path fill="none" stroke="#9a32cd" stroke-dasharray="5,2" d="M146.15,-351.67C144.44,-348.58 142.95,-345.3 142,-342 137.93,-327.91 137.06,-322.81 142,-309 144.63,-301.66 150.11,-294.86 155.06,-289.8"/>
<polygon fill="#9a32cd" stroke="#9a32cd" points="143.25,-353.63 151.62,-360.13 149.13,-349.83 143.25,-353.63"/>
<text text-anchor="middle" x="172.5" y="-323" font-family="Helvetica,sans-Serif" font-size="10.00"> m_strName</text>
</g>
<!-- Node9 -->
<g id="node9" class="node">
<title>Node9</title>
<g id="a_node9"><a xlink:title="STL class.">
<polygon fill="white" stroke="#bfbfbf" points="107,-417.5 107,-447.5 211,-447.5 211,-417.5 107,-417.5"/>
<text text-anchor="start" x="115" y="-435.5" font-family="Helvetica,sans-Serif" font-size="10.00">std::basic_string&lt;</text>
<text text-anchor="middle" x="159" y="-424.5" font-family="Helvetica,sans-Serif" font-size="10.00"> char &gt;</text>
</a>
</g>
</g>
<!-- Node9&#45;&gt;Node8 -->
<g id="edge8" class="edge">
<title>Node9&#45;&gt;Node8</title>
<path fill="none" stroke="midnightblue" d="M159,-407.35C159,-397.51 159,-386.78 159,-379.54"/>
<polygon fill="midnightblue" stroke="midnightblue" points="155.5,-407.47 159,-417.47 162.5,-407.47 155.5,-407.47"/>
</g>
<!-- Node10&#45;&gt;Node1 -->
<g id="edge11" class="edge">
<title>Node10&#45;&gt;Node1</title>
<path fill="none" stroke="#9a32cd" stroke-dasharray="5,2" d="M425.8,-129.81C428.33,-106.89 429.71,-67.44 415,-38 411.24,-30.47 404.36,-24.14 398.03,-19.51"/>
<polygon fill="#9a32cd" stroke="#9a32cd" points="422.3,-129.52 424.49,-139.89 429.25,-130.43 422.3,-129.52"/>
<text text-anchor="middle" x="488.5" y="-74.5" font-family="Helvetica,sans-Serif" font-size="10.00"> m_ltMessageQueueLock</text>
</g>
<!-- Node12 -->
<g id="node12" class="node">
<title>Node12</title>
<g id="a_node12"><a xlink:href="classbasic__condition__variable.html" target="_top" xlink:title=" ">
<polygon fill="white" stroke="black" points="255.5,-67.5 255.5,-86.5 392.5,-86.5 392.5,-67.5 255.5,-67.5"/>
<text text-anchor="middle" x="324" y="-74.5" font-family="Helvetica,sans-Serif" font-size="10.00">basic_condition_variable</text>
</a>
</g>
</g>
<!-- Node10&#45;&gt;Node12 -->
<g id="edge15" class="edge">
<title>Node10&#45;&gt;Node12</title>
<path fill="none" stroke="#9a32cd" stroke-dasharray="5,2" d="M396.46,-135.34C386.29,-129.87 374.79,-123.12 365,-116 352.76,-107.09 340.21,-94.93 332.28,-86.79"/>
<polygon fill="#9a32cd" stroke="#9a32cd" points="394.86,-138.45 405.34,-139.99 398.11,-132.25 394.86,-138.45"/>
<text text-anchor="middle" x="390" y="-108" font-family="Helvetica,sans-Serif" font-size="10.00"> m_mutex</text>
</g>
<!-- Node11 -->
<g id="node11" class="node">
<title>Node11</title>
<g id="a_node11"><a xlink:href="classbasic__queue.html" target="_top" xlink:title=" ">
<polygon fill="white" stroke="black" points="570.5,-67.5 570.5,-86.5 647.5,-86.5 647.5,-67.5 570.5,-67.5"/>
<text text-anchor="middle" x="609" y="-74.5" font-family="Helvetica,sans-Serif" font-size="10.00">basic_queue</text>
</a>
</g>
</g>
<!-- Node11&#45;&gt;Node1 -->
<g id="edge13" class="edge">
<title>Node11&#45;&gt;Node1</title>
<path fill="none" stroke="#9a32cd" stroke-dasharray="5,2" d="M569.51,-64.59C525,-51.73 453.64,-31.12 413.64,-19.56"/>
<polygon fill="#9a32cd" stroke="#9a32cd" points="568.54,-67.96 579.12,-67.37 570.49,-61.23 568.54,-67.96"/>
<text text-anchor="middle" x="563" y="-41" font-family="Helvetica,sans-Serif" font-size="10.00"> m_qeMessageQueue</text>
</g>
<!-- Node12&#45;&gt;Node1 -->
<g id="edge14" class="edge">
<title>Node12&#45;&gt;Node1</title>
<path fill="none" stroke="#9a32cd" stroke-dasharray="5,2" d="M330.23,-57.69C333.1,-51 337,-43.69 342,-38 348.64,-30.45 357.88,-24.19 366.01,-19.62"/>
<polygon fill="#9a32cd" stroke="#9a32cd" points="326.83,-56.78 326.55,-67.37 333.37,-59.26 326.83,-56.78"/>
<text text-anchor="middle" x="378.5" y="-41" font-family="Helvetica,sans-Serif" font-size="10.00"> m_cvMessage</text>
</g>
<!-- Node13&#45;&gt;Node12 -->
<g id="edge16" class="edge">
<title>Node13&#45;&gt;Node12</title>
<path fill="none" stroke="#9a32cd" stroke-dasharray="5,2" d="M282.35,-124.53C281.52,-117.91 281.9,-110.92 285,-105 289.13,-97.12 296.71,-91.09 304.11,-86.74"/>
<polygon fill="#9a32cd" stroke="#9a32cd" points="278.95,-125.37 284.45,-134.43 285.8,-123.92 278.95,-125.37"/>
<text text-anchor="middle" x="313.5" y="-108" font-family="Helvetica,sans-Serif" font-size="10.00"> m_waitList</text>
</g>
</g>
</svg>
        <g id="navigator" transform="translate(0 0)" fill="#404254">
                <rect fill="#f2f5e9" fill-opacity="0.5" stroke="#606060" stroke-width=".5" x="0" y="0" width="60" height="60"/>
                <use id="zoomplus" xlink:href="#zoomPlus" x="17" y="9" onmousedown="handleZoom(evt,'in')"/>
                <use id="zoomminus" xlink:href="#zoomMin" x="42" y="9" onmousedown="handleZoom(evt,'out')"/>
                <use id="reset" xlink:href="#resetDef" x="30" y="36" onmousedown="handleReset()"/>
                <g id="arrowUp" xlink:href="#dirArrow" transform="translate(30 24)" onmousedown="handlePan(0,-1)">
                  <use xlink:href="#rim" fill="#404040">
                        <set attributeName="fill" to="#808080" begin="arrowUp.mouseover" end="arrowUp.mouseout"/>
                  </use>
                  <path fill="none" stroke="white" stroke-width="1.5" d="M0,-3.0v7 M-2.5,-0.5L0,-3.0L2.5,-0.5"/>
                </g>
                <g id="arrowRight" xlink:href="#dirArrow" transform="rotate(90) translate(36 -43)" onmousedown="handlePan(1,0)">
                  <use xlink:href="#rim" fill="#404040">
                        <set attributeName="fill" to="#808080" begin="arrowRight.mouseover" end="arrowRight.mouseout"/>
                  </use>
                  <path fill="none" stroke="white" stroke-width="1.5" d="M0,-3.0v7 M-2.5,-0.5L0,-3.0L2.5,-0.5"/>
                </g>
                <g id="arrowDown" xlink:href="#dirArrow" transform="rotate(180) translate(-30 -48)" onmousedown="handlePan(0,1)">
                  <use xlink:href="#rim" fill="#404040">
                        <set attributeName="fill" to="#808080" begin="arrowDown.mouseover" end="arrowDown.mouseout"/>
                  </use>
                  <path fill="none" stroke="white" stroke-width="1.5" d="M0,-3.0v7 M-2.5,-0.5L0,-3.0L2.5,-0.5"/>
                </g>
                <g id="arrowLeft" xlink:href="#dirArrow" transform="rotate(270) translate(-36 17)" onmousedown="handlePan(-1,0)">
                  <use xlink:href="#rim" fill="#404040">
                        <set attributeName="fill" to="#808080" begin="arrowLeft.mouseover" end="arrowLeft.mouseout"/>
                  </use>
                  <path fill="none" stroke="white" stroke-width="1.5" d="M0,-3.0v7 M-2.5,-0.5L0,-3.0L2.5,-0.5"/>
                </g>
        </g>
        <svg viewBox="0 0 15 15" width="100%" height="30px" preserveAspectRatio="xMaxYMin meet">
         <g id="arrow_out" transform="scale(0.3 0.3)">
          <a xlink:href="classbasic__message__task__coll__graph_org.svg" target="_base">
           <rect id="button" ry="5" rx="5" y="6" x="6" height="38" width="38"
                fill="#f2f5e9" fill-opacity="0.5" stroke="#606060" stroke-width="1.0"/>
           <path id="arrow"
             d="M 11.500037,31.436501 C 11.940474,20.09759 22.043105,11.32322 32.158766,21.979434 L 37.068811,17.246167 C 37.068811,17.246167 37.088388,32 37.088388,32 L 22.160133,31.978069 C 22.160133,31.978069 26.997745,27.140456 26.997745,27.140456 C 18.528582,18.264221 13.291696,25.230495 11.500037,31.436501 z"
             style="fill:#404040;"/>
          </a>
         </g>
        </svg>
</svg>
