<?xml version="1.0" encoding="UTF-8" standalone="no"?>
<!DOCTYPE svg PUBLIC "-//W3C//DTD SVG 1.1//EN"
 "http://www.w3.org/Graphics/SVG/1.1/DTD/svg11.dtd">
<!-- Generated by graphviz version 2.46.0 (0)
 -->
<!-- Title: mn::ext::basic_condition_variable Pages: 1 -->
<svg width="498pt" height="457pt"
 viewBox="0.00 0.00 497.50 457.00" xmlns="http://www.w3.org/2000/svg" xmlns:xlink="http://www.w3.org/1999/xlink">
<g id="graph0" class="graph" transform="scale(1 1) rotate(0) translate(4 453)">
<title>mn::ext::basic_condition_variable</title>
<polygon fill="white" stroke="transparent" points="-4,4 -4,-453 493.5,-453 493.5,4 -4,4"/>
<!-- Node1 -->
<g id="node1" class="node">
<title>Node1</title>
<g id="a_node1"><a xlink:title=" ">
<polygon fill="#bfbfbf" stroke="black" points="324,-0.5 324,-30.5 460,-30.5 460,-0.5 324,-0.5"/>
<text text-anchor="start" x="332" y="-18.5" font-family="Helvetica,sans-Serif" font-size="10.00">mn::ext::basic_condition</text>
<text text-anchor="middle" x="392" y="-7.5" font-family="Helvetica,sans-Serif" font-size="10.00">_variable</text>
</a>
</g>
</g>
<!-- Node2 -->
<g id="node2" class="node">
<title>Node2</title>
<g id="a_node2"><a xlink:href="classmn_1_1basic__mutex.html" target="_top" xlink:title=" ">
<polygon fill="white" stroke="black" points="388.5,-260 388.5,-279 489.5,-279 489.5,-260 388.5,-260"/>
<text text-anchor="middle" x="439" y="-267" font-family="Helvetica,sans-Serif" font-size="10.00">mn::basic_mutex</text>
</a>
</g>
</g>
<!-- Node2&#45;&gt;Node1 -->
<g id="edge1" class="edge">
<title>Node2&#45;&gt;Node1</title>
<path fill="none" stroke="#9a32cd" stroke-dasharray="5,2" d="M439,-249.52C439,-234.68 439,-213.53 439,-195 439,-195 439,-195 439,-92.5 439,-72.19 435.65,-66.29 425,-49 420.87,-42.29 415.06,-35.96 409.47,-30.69"/>
<polygon fill="#9a32cd" stroke="#9a32cd" points="435.5,-249.9 439,-259.9 442.5,-249.9 435.5,-249.9"/>
<text text-anchor="middle" x="464" y="-163.5" font-family="Helvetica,sans-Serif" font-size="10.00"> m_mutex</text>
</g>
<!-- Node3 -->
<g id="node3" class="node">
<title>Node3</title>
<g id="a_node3"><a xlink:href="classmn_1_1basic__semaphore.html" target="_top" xlink:title=" ">
<polygon fill="white" stroke="black" points="323,-367 323,-386 447,-386 447,-367 323,-367"/>
<text text-anchor="middle" x="385" y="-374" font-family="Helvetica,sans-Serif" font-size="10.00">mn::basic_semaphore</text>
</a>
</g>
</g>
<!-- Node3&#45;&gt;Node2 -->
<g id="edge2" class="edge">
<title>Node3&#45;&gt;Node2</title>
<path fill="none" stroke="midnightblue" d="M397.96,-358.8C405.12,-349.04 413.79,-336.26 420,-324 427.66,-308.88 433.61,-289.93 436.68,-279.12"/>
<polygon fill="midnightblue" stroke="midnightblue" points="395.14,-356.72 391.93,-366.82 400.74,-360.93 395.14,-356.72"/>
</g>
<!-- Node9 -->
<g id="node9" class="node">
<title>Node9</title>
<g id="a_node9"><a xlink:href="classmn_1_1basic__binary__semaphore.html" target="_top" xlink:title=" ">
<polygon fill="white" stroke="black" points="251,-304.5 251,-323.5 411,-323.5 411,-304.5 251,-304.5"/>
<text text-anchor="middle" x="331" y="-311.5" font-family="Helvetica,sans-Serif" font-size="10.00">mn::basic_binary_semaphore</text>
</a>
</g>
</g>
<!-- Node3&#45;&gt;Node9 -->
<g id="edge10" class="edge">
<title>Node3&#45;&gt;Node9</title>
<path fill="none" stroke="midnightblue" d="M370.48,-359.23C360.26,-347.78 346.98,-332.9 338.72,-323.65"/>
<polygon fill="midnightblue" stroke="midnightblue" points="367.99,-361.7 377.26,-366.83 373.22,-357.04 367.99,-361.7"/>
</g>
<!-- Node4 -->
<g id="node4" class="node">
<title>Node4</title>
<g id="a_node4"><a xlink:href="classmn_1_1_i_lock_object.html" target="_top" xlink:title=" ">
<polygon fill="white" stroke="black" points="337.5,-429.5 337.5,-448.5 432.5,-448.5 432.5,-429.5 337.5,-429.5"/>
<text text-anchor="middle" x="385" y="-436.5" font-family="Helvetica,sans-Serif" font-size="10.00">mn::ILockObject</text>
</a>
</g>
</g>
<!-- Node4&#45;&gt;Node3 -->
<g id="edge3" class="edge">
<title>Node4&#45;&gt;Node3</title>
<path fill="none" stroke="midnightblue" d="M385,-419C385,-408 385,-394.68 385,-386.15"/>
<polygon fill="midnightblue" stroke="midnightblue" points="381.5,-419.33 385,-429.33 388.5,-419.33 381.5,-419.33"/>
</g>
<!-- Node5 -->
<g id="node5" class="node">
<title>Node5</title>
<g id="a_node5"><a xlink:title=" ">
<polygon fill="white" stroke="#bfbfbf" points="275,-78.5 275,-108.5 407,-108.5 407,-78.5 275,-78.5"/>
<text text-anchor="start" x="283" y="-96.5" font-family="Helvetica,sans-Serif" font-size="10.00">std::list&lt; mn::ext</text>
<text text-anchor="middle" x="341" y="-85.5" font-family="Helvetica,sans-Serif" font-size="10.00">::basic_convar_task * &gt;</text>
</a>
</g>
</g>
<!-- Node5&#45;&gt;Node1 -->
<g id="edge4" class="edge">
<title>Node5&#45;&gt;Node1</title>
<path fill="none" stroke="#9a32cd" stroke-dasharray="5,2" d="M354.76,-69.56C358.91,-62.86 363.54,-55.58 368,-49 372.17,-42.85 377,-36.22 381.23,-30.56"/>
<polygon fill="#9a32cd" stroke="#9a32cd" points="351.7,-67.85 349.47,-78.21 357.67,-71.5 351.7,-67.85"/>
<text text-anchor="middle" x="396.5" y="-52" font-family="Helvetica,sans-Serif" font-size="10.00"> m_waitList</text>
</g>
<!-- Node6 -->
<g id="node6" class="node">
<title>Node6</title>
<g id="a_node6"><a xlink:href="classmn_1_1ext_1_1basic__convar__task.html" target="_top" xlink:title=" ">
<polygon fill="white" stroke="black" points="253,-156.5 253,-175.5 403,-175.5 403,-156.5 253,-156.5"/>
<text text-anchor="middle" x="328" y="-163.5" font-family="Helvetica,sans-Serif" font-size="10.00">mn::ext::basic_convar_task</text>
</a>
</g>
</g>
<!-- Node6&#45;&gt;Node5 -->
<g id="edge5" class="edge">
<title>Node6&#45;&gt;Node5</title>
<path fill="none" stroke="#9a32cd" stroke-dasharray="5,2" d="M331.46,-146.24C333.64,-134.41 336.41,-119.38 338.4,-108.58"/>
<polygon fill="#9a32cd" stroke="#9a32cd" points="327.97,-145.89 329.59,-156.36 334.85,-147.16 327.97,-145.89"/>
<text text-anchor="middle" x="358.5" y="-130" font-family="Helvetica,sans-Serif" font-size="10.00"> elements</text>
</g>
<!-- Node7 -->
<g id="node7" class="node">
<title>Node7</title>
<g id="a_node7"><a xlink:href="classmn_1_1basic__task.html" target="_top" xlink:title="Wrapper class around FreeRTOS&#39;s implementation of a task.">
<polygon fill="white" stroke="black" points="126,-214.5 126,-233.5 216,-233.5 216,-214.5 126,-214.5"/>
<text text-anchor="middle" x="171" y="-221.5" font-family="Helvetica,sans-Serif" font-size="10.00">mn::basic_task</text>
</a>
</g>
</g>
<!-- Node7&#45;&gt;Node6 -->
<g id="edge6" class="edge">
<title>Node7&#45;&gt;Node6</title>
<path fill="none" stroke="midnightblue" d="M204.43,-211.08C234.29,-200.42 277.33,-185.07 303.93,-175.59"/>
<polygon fill="midnightblue" stroke="midnightblue" points="203.09,-207.84 194.84,-214.49 205.44,-214.43 203.09,-207.84"/>
</g>
<!-- Node7&#45;&gt;Node7 -->
<g id="edge8" class="edge">
<title>Node7&#45;&gt;Node7</title>
<path fill="none" stroke="#9a32cd" stroke-dasharray="5,2" d="M226.26,-228.1C231.03,-227.23 234,-225.86 234,-224 234,-221.02 226.39,-219.31 216.02,-218.87"/>
<polygon fill="#9a32cd" stroke="#9a32cd" points="225.62,-224.65 216.02,-229.13 226.32,-231.61 225.62,-224.65"/>
<text text-anchor="middle" x="260" y="-227" font-family="Helvetica,sans-Serif" font-size="10.00"> m_pChild</text>
<text text-anchor="middle" x="260" y="-216" font-family="Helvetica,sans-Serif" font-size="10.00">m_pParent</text>
</g>
<!-- Node8 -->
<g id="node8" class="node">
<title>Node8</title>
<g id="a_node8"><a xlink:href="classmn_1_1basic__event__group.html" target="_top" xlink:title=" ">
<polygon fill="white" stroke="black" points="0,-304.5 0,-323.5 130,-323.5 130,-304.5 0,-304.5"/>
<text text-anchor="middle" x="65" y="-311.5" font-family="Helvetica,sans-Serif" font-size="10.00">mn::basic_event_group</text>
</a>
</g>
</g>
<!-- Node8&#45;&gt;Node7 -->
<g id="edge7" class="edge">
<title>Node8&#45;&gt;Node7</title>
<path fill="none" stroke="#9a32cd" stroke-dasharray="5,2" d="M71.72,-294.98C77.45,-281.78 86.86,-264.28 100,-253 110.36,-244.11 123.87,-237.84 136.33,-233.53"/>
<polygon fill="#9a32cd" stroke="#9a32cd" points="68.39,-293.86 67.91,-304.44 74.89,-296.47 68.39,-293.86"/>
<text text-anchor="middle" x="123" y="-267" font-family="Helvetica,sans-Serif" font-size="10.00"> m_event</text>
</g>
<!-- Node9&#45;&gt;Node6 -->
<g id="edge13" class="edge">
<title>Node9&#45;&gt;Node6</title>
<path fill="none" stroke="#9a32cd" stroke-dasharray="5,2" d="M330.61,-294.12C329.96,-262.27 328.66,-199.07 328.18,-175.83"/>
<polygon fill="#9a32cd" stroke="#9a32cd" points="327.12,-294.38 330.82,-304.3 334.12,-294.23 327.12,-294.38"/>
<text text-anchor="middle" x="359.5" y="-221.5" font-family="Helvetica,sans-Serif" font-size="10.00"> m_waitSem</text>
</g>
<!-- Node9&#45;&gt;Node7 -->
<g id="edge9" class="edge">
<title>Node9&#45;&gt;Node7</title>
<path fill="none" stroke="#9a32cd" stroke-dasharray="5,2" d="M268.22,-301.45C257.19,-297.66 246.29,-292.65 237,-286 222.46,-275.6 226.84,-265.44 214,-253 206.07,-245.31 195.73,-238.5 187.18,-233.52"/>
<polygon fill="#9a32cd" stroke="#9a32cd" points="267.31,-304.83 277.9,-304.47 269.39,-298.15 267.31,-304.83"/>
<text text-anchor="middle" x="282" y="-278" font-family="Helvetica,sans-Serif" font-size="10.00"> m_contextMutext</text>
<text text-anchor="middle" x="282" y="-267" font-family="Helvetica,sans-Serif" font-size="10.00">m_continuemutex</text>
<text text-anchor="middle" x="282" y="-256" font-family="Helvetica,sans-Serif" font-size="10.00">m_runningMutex</text>
</g>
<!-- Node10 -->
<g id="node10" class="node">
<title>Node10</title>
<g id="a_node10"><a xlink:title=" ">
<polygon fill="white" stroke="#bfbfbf" points="148.5,-304.5 148.5,-323.5 213.5,-323.5 213.5,-304.5 148.5,-304.5"/>
<text text-anchor="middle" x="181" y="-311.5" font-family="Helvetica,sans-Serif" font-size="10.00">std::string</text>
</a>
</g>
</g>
<!-- Node10&#45;&gt;Node7 -->
<g id="edge11" class="edge">
<title>Node10&#45;&gt;Node7</title>
<path fill="none" stroke="#9a32cd" stroke-dasharray="5,2" d="M160.56,-297.29C157.48,-293.93 154.75,-290.13 153,-286 147.26,-272.5 148.87,-267.07 153,-253 155.08,-245.9 159.58,-238.9 163.56,-233.68"/>
<polygon fill="#9a32cd" stroke="#9a32cd" points="158.38,-300.05 168.08,-304.31 163.16,-294.93 158.38,-300.05"/>
<text text-anchor="middle" x="183.5" y="-267" font-family="Helvetica,sans-Serif" font-size="10.00"> m_strName</text>
</g>
<!-- Node11 -->
<g id="node11" class="node">
<title>Node11</title>
<g id="a_node11"><a xlink:title=" ">
<polygon fill="white" stroke="#bfbfbf" points="129,-361.5 129,-391.5 233,-391.5 233,-361.5 129,-361.5"/>
<text text-anchor="start" x="137" y="-379.5" font-family="Helvetica,sans-Serif" font-size="10.00">std::basic_string&lt;</text>
<text text-anchor="middle" x="181" y="-368.5" font-family="Helvetica,sans-Serif" font-size="10.00"> Char &gt;</text>
</a>
</g>
</g>
<!-- Node11&#45;&gt;Node10 -->
<g id="edge12" class="edge">
<title>Node11&#45;&gt;Node10</title>
<path fill="none" stroke="midnightblue" d="M181,-351.35C181,-341.51 181,-330.78 181,-323.54"/>
<polygon fill="midnightblue" stroke="midnightblue" points="177.5,-351.47 181,-361.47 184.5,-351.47 177.5,-351.47"/>
</g>
</g>
</svg>
