<?xml version="1.0" encoding="UTF-8" standalone="no"?>
<!DOCTYPE svg PUBLIC "-//W3C//DTD SVG 1.1//EN"
 "http://www.w3.org/Graphics/SVG/1.1/DTD/svg11.dtd">
<!-- Generated by graphviz version 2.47.1 (0)
 -->
<!-- Title: mn::container::base_rb_tree&lt; TTreeTraits, TAllocator &gt; Pages: 1 -->
<svg width="183pt" height="141pt"
 viewBox="0.00 0.00 183.00 141.00" xmlns="http://www.w3.org/2000/svg" xmlns:xlink="http://www.w3.org/1999/xlink">
<g id="graph0" class="graph" transform="scale(1 1) rotate(0) translate(4 137)">
<title>mn::container::base_rb_tree&lt; TTreeTraits, TAllocator &gt;</title>
<polygon fill="white" stroke="transparent" points="-4,4 -4,-137 179,-137 179,4 -4,4"/>
<!-- Node1 -->
<g id="node1" class="node">
<title>Node1</title>
<g id="a_node1"><a xlink:title=" ">
<polygon fill="#bfbfbf" stroke="black" points="1,-0.5 1,-41.5 124,-41.5 124,-0.5 1,-0.5"/>
<text text-anchor="start" x="9" y="-29.5" font-family="Helvetica,sans-Serif" font-size="10.00">mn::container::base</text>
<text text-anchor="start" x="9" y="-18.5" font-family="Helvetica,sans-Serif" font-size="10.00">_rb_tree&lt; TTreeTraits,</text>
<text text-anchor="middle" x="62.5" y="-7.5" font-family="Helvetica,sans-Serif" font-size="10.00"> TAllocator &gt;</text>
</a>
</g>
</g>
<!-- Node2 -->
<g id="node2" class="node">
<title>Node2</title>
<g id="a_node2"><a xlink:href="structmn_1_1container_1_1rb__tree__node.html" target="_top" xlink:title=" ">
<polygon fill="white" stroke="black" points="0,-101.5 0,-131.5 125,-131.5 125,-101.5 0,-101.5"/>
<text text-anchor="start" x="8" y="-119.5" font-family="Helvetica,sans-Serif" font-size="10.00">mn::container::rb_tree</text>
<text text-anchor="middle" x="62.5" y="-108.5" font-family="Helvetica,sans-Serif" font-size="10.00">_node&lt; TVALUE &gt;</text>
</a>
</g>
</g>
<!-- Node2&#45;&gt;Node1 -->
<g id="edge1" class="edge">
<title>Node2&#45;&gt;Node1</title>
<path fill="none" stroke="#9a32cd" stroke-dasharray="5,2" d="M62.5,-90.95C62.5,-75.53 62.5,-55.91 62.5,-41.55"/>
<polygon fill="#9a32cd" stroke="#9a32cd" points="59,-91.3 62.5,-101.3 66,-91.3 59,-91.3"/>
<text text-anchor="middle" x="92.5" y="-74" font-family="Helvetica,sans-Serif" font-size="10.00"> m_root</text>
<text text-anchor="middle" x="92.5" y="-63" font-family="Helvetica,sans-Serif" font-size="10.00">ms_sentinel</text>
</g>
<!-- Node2&#45;&gt;Node2 -->
<g id="edge2" class="edge">
<title>Node2&#45;&gt;Node2</title>
<path fill="none" stroke="#9a32cd" stroke-dasharray="5,2" d="M135.14,-122.44C140.03,-121.07 143,-119.09 143,-116.5 143,-112.46 135.76,-109.9 125.28,-108.83"/>
<polygon fill="#9a32cd" stroke="#9a32cd" points="134.52,-118.99 125.28,-124.17 135.73,-125.89 134.52,-118.99"/>
<text text-anchor="middle" x="159" y="-125" font-family="Helvetica,sans-Serif" font-size="10.00"> left</text>
<text text-anchor="middle" x="159" y="-114" font-family="Helvetica,sans-Serif" font-size="10.00">parent</text>
<text text-anchor="middle" x="159" y="-103" font-family="Helvetica,sans-Serif" font-size="10.00">right</text>
</g>
</g>
</svg>
