<?xml version="1.0" encoding="UTF-8" standalone="no"?>
<!DOCTYPE svg PUBLIC "-//W3C//DTD SVG 1.1//EN"
 "http://www.w3.org/Graphics/SVG/1.1/DTD/svg11.dtd">
<!-- Generated by graphviz version 2.46.0 (0)
 -->
<!-- Title: mn::basic_task Pages: 1 -->
<svg width="272pt" height="242pt"
 viewBox="0.00 0.00 272.00 242.00" xmlns="http://www.w3.org/2000/svg" xmlns:xlink="http://www.w3.org/1999/xlink">
<g id="graph0" class="graph" transform="scale(1 1) rotate(0) translate(4 238)">
<title>mn::basic_task</title>
<polygon fill="white" stroke="transparent" points="-4,4 -4,-238 268,-238 268,4 -4,4"/>
<!-- Node1 -->
<g id="node1" class="node">
<title>Node1</title>
<g id="a_node1"><a xlink:title="Wrapper class around FreeRTOS&#39;s implementation of a task.">
<polygon fill="#bfbfbf" stroke="black" points="100,-0.5 100,-19.5 190,-19.5 190,-0.5 100,-0.5"/>
<text text-anchor="middle" x="145" y="-7.5" font-family="Helvetica,sans-Serif" font-size="10.00">mn::basic_task</text>
</a>
</g>
</g>
<!-- Node2 -->
<g id="node2" class="node">
<title>Node2</title>
<g id="a_node2"><a xlink:href="classmn_1_1basic__binary__semaphore.html" target="_top" xlink:title=" ">
<polygon fill="white" stroke="black" points="0,-89.5 0,-108.5 160,-108.5 160,-89.5 0,-89.5"/>
<text text-anchor="middle" x="80" y="-96.5" font-family="Helvetica,sans-Serif" font-size="10.00">mn::basic_binary_semaphore</text>
</a>
</g>
</g>
<!-- Node2&#45;&gt;Node1 -->
<g id="edge1" class="edge">
<title>Node2&#45;&gt;Node1</title>
<path fill="none" stroke="#9a32cd" stroke-dasharray="5,2" d="M80.41,-79.3C81.57,-66.51 84.91,-49.8 94,-38 100.36,-29.75 109.97,-23.74 119.14,-19.52"/>
<polygon fill="#9a32cd" stroke="#9a32cd" points="76.91,-79.13 79.86,-89.31 83.9,-79.51 76.91,-79.13"/>
<text text-anchor="middle" x="139" y="-63" font-family="Helvetica,sans-Serif" font-size="10.00"> m_contextMutext</text>
<text text-anchor="middle" x="139" y="-52" font-family="Helvetica,sans-Serif" font-size="10.00">m_continuemutex</text>
<text text-anchor="middle" x="139" y="-41" font-family="Helvetica,sans-Serif" font-size="10.00">m_runningMutex</text>
</g>
<!-- Node3 -->
<g id="node3" class="node">
<title>Node3</title>
<g id="a_node3"><a xlink:href="classmn_1_1basic__semaphore.html" target="_top" xlink:title=" ">
<polygon fill="white" stroke="black" points="17,-152 17,-171 141,-171 141,-152 17,-152"/>
<text text-anchor="middle" x="79" y="-159" font-family="Helvetica,sans-Serif" font-size="10.00">mn::basic_semaphore</text>
</a>
</g>
</g>
<!-- Node3&#45;&gt;Node2 -->
<g id="edge2" class="edge">
<title>Node3&#45;&gt;Node2</title>
<path fill="none" stroke="midnightblue" d="M79.31,-141.5C79.5,-130.5 79.72,-117.18 79.86,-108.65"/>
<polygon fill="midnightblue" stroke="midnightblue" points="75.81,-141.78 79.14,-151.83 82.81,-141.89 75.81,-141.78"/>
</g>
<!-- Node4 -->
<g id="node4" class="node">
<title>Node4</title>
<g id="a_node4"><a xlink:href="classmn_1_1ILockObject.html" target="_top" xlink:title=" ">
<polygon fill="white" stroke="black" points="31.5,-214.5 31.5,-233.5 126.5,-233.5 126.5,-214.5 31.5,-214.5"/>
<text text-anchor="middle" x="79" y="-221.5" font-family="Helvetica,sans-Serif" font-size="10.00">mn::ILockObject</text>
</a>
</g>
</g>
<!-- Node4&#45;&gt;Node3 -->
<g id="edge3" class="edge">
<title>Node4&#45;&gt;Node3</title>
<path fill="none" stroke="midnightblue" d="M79,-204C79,-193 79,-179.68 79,-171.15"/>
<polygon fill="midnightblue" stroke="midnightblue" points="75.5,-204.33 79,-214.33 82.5,-204.33 75.5,-204.33"/>
</g>
<!-- Node5 -->
<g id="node5" class="node">
<title>Node5</title>
<g id="a_node5"><a xlink:title=" ">
<polygon fill="white" stroke="#bfbfbf" points="178.5,-89.5 178.5,-108.5 243.5,-108.5 243.5,-89.5 178.5,-89.5"/>
<text text-anchor="middle" x="211" y="-96.5" font-family="Helvetica,sans-Serif" font-size="10.00">std::string</text>
</a>
</g>
</g>
<!-- Node5&#45;&gt;Node1 -->
<g id="edge4" class="edge">
<title>Node5&#45;&gt;Node1</title>
<path fill="none" stroke="#9a32cd" stroke-dasharray="5,2" d="M205.62,-79.57C201.27,-66.9 194.17,-50.22 184,-38 177.78,-30.53 169.01,-24.21 161.36,-19.57"/>
<polygon fill="#9a32cd" stroke="#9a32cd" points="202.4,-80.98 208.75,-89.45 209.07,-78.86 202.4,-80.98"/>
<text text-anchor="middle" x="233.5" y="-52" font-family="Helvetica,sans-Serif" font-size="10.00"> m_strName</text>
</g>
<!-- Node6 -->
<g id="node6" class="node">
<title>Node6</title>
<g id="a_node6"><a xlink:title=" ">
<polygon fill="white" stroke="#bfbfbf" points="159,-146.5 159,-176.5 263,-176.5 263,-146.5 159,-146.5"/>
<text text-anchor="start" x="167" y="-164.5" font-family="Helvetica,sans-Serif" font-size="10.00">std::basic_string&lt;</text>
<text text-anchor="middle" x="211" y="-153.5" font-family="Helvetica,sans-Serif" font-size="10.00"> Char &gt;</text>
</a>
</g>
</g>
<!-- Node6&#45;&gt;Node5 -->
<g id="edge5" class="edge">
<title>Node6&#45;&gt;Node5</title>
<path fill="none" stroke="midnightblue" d="M211,-136.35C211,-126.51 211,-115.78 211,-108.54"/>
<polygon fill="midnightblue" stroke="midnightblue" points="207.5,-136.47 211,-146.47 214.5,-136.47 207.5,-136.47"/>
</g>
</g>
</svg>
