<?xml version="1.0" encoding="UTF-8" standalone="no"?>
<!DOCTYPE svg PUBLIC "-//W3C//DTD SVG 1.1//EN"
 "http://www.w3.org/Graphics/SVG/1.1/DTD/svg11.dtd">
<!-- Generated by graphviz version 2.47.1 (0)
 -->
<!-- Title: mn::container::basic_sorted_vector&lt; TKey, TValue, TAllocator, TCompare, TStorage &gt; Pages: 1 -->
<svg width="1185pt" height="132pt"
 viewBox="0.00 0.00 1185.00 132.00" xmlns="http://www.w3.org/2000/svg" xmlns:xlink="http://www.w3.org/1999/xlink">
<g id="graph0" class="graph" transform="scale(1 1) rotate(0) translate(4 128)">
<title>mn::container::basic_sorted_vector&lt; TKey, TValue, TAllocator, TCompare, TStorage &gt;</title>
<polygon fill="white" stroke="transparent" points="-4,4 -4,-128 1181,-128 1181,4 -4,4"/>
<!-- Node1 -->
<g id="node1" class="node">
<title>Node1</title>
<g id="a_node1"><a xlink:title=" ">
<polygon fill="#bfbfbf" stroke="black" points="1011,-8 1011,-60 1177,-60 1177,-8 1011,-8"/>
<text text-anchor="start" x="1019" y="-48" font-family="Helvetica,sans-Serif" font-size="10.00">mn::container::basic</text>
<text text-anchor="start" x="1019" y="-37" font-family="Helvetica,sans-Serif" font-size="10.00">_sorted_vector&lt; TKey,</text>
<text text-anchor="start" x="1019" y="-26" font-family="Helvetica,sans-Serif" font-size="10.00"> TValue, TAllocator, TCompare,</text>
<text text-anchor="middle" x="1094" y="-15" font-family="Helvetica,sans-Serif" font-size="10.00"> TStorage &gt;</text>
</a>
</g>
</g>
<!-- Node2 -->
<g id="node2" class="node">
<title>Node2</title>
<g id="a_node2"><a xlink:href="classmn_1_1container_1_1basic__vector.html" target="_top" xlink:title=" ">
<polygon fill="white" stroke="black" points="711,-60.5 711,-123.5 914,-123.5 914,-60.5 711,-60.5"/>
<text text-anchor="start" x="719" y="-111.5" font-family="Helvetica,sans-Serif" font-size="10.00">mn::container::basic</text>
<text text-anchor="start" x="719" y="-100.5" font-family="Helvetica,sans-Serif" font-size="10.00">_vector&lt; basic_pair&lt;</text>
<text text-anchor="start" x="719" y="-89.5" font-family="Helvetica,sans-Serif" font-size="10.00"> TKey, TValue &gt;, TAllocator,</text>
<text text-anchor="start" x="719" y="-78.5" font-family="Helvetica,sans-Serif" font-size="10.00"> basic_vector_storage&lt; basic</text>
<text text-anchor="middle" x="812.5" y="-67.5" font-family="Helvetica,sans-Serif" font-size="10.00">_pair&lt; TKey, TValue &gt;, TAllocator &gt; &gt;</text>
</a>
</g>
</g>
<!-- Node2&#45;&gt;Node1 -->
<g id="edge1" class="edge">
<title>Node2&#45;&gt;Node1</title>
<path fill="none" stroke="#8b1a1a" d="M924.15,-69.04C953.06,-63.04 983.69,-56.68 1010.83,-51.05"/>
<polygon fill="#8b1a1a" stroke="#8b1a1a" points="923.09,-65.68 914.01,-71.14 924.51,-72.54 923.09,-65.68"/>
</g>
<!-- Node3 -->
<g id="node3" class="node">
<title>Node3</title>
<g id="a_node3"><a xlink:href="structmn_1_1container_1_1basic__vector__storage.html" target="_top" xlink:title=" ">
<polygon fill="white" stroke="black" points="496,-77 496,-107 674,-107 674,-77 496,-77"/>
<text text-anchor="start" x="504" y="-95" font-family="Helvetica,sans-Serif" font-size="10.00">mn::container::basic</text>
<text text-anchor="middle" x="585" y="-84" font-family="Helvetica,sans-Serif" font-size="10.00">_vector_storage&lt; T, TAllocator &gt;</text>
</a>
</g>
</g>
<!-- Node3&#45;&gt;Node2 -->
<g id="edge2" class="edge">
<title>Node3&#45;&gt;Node2</title>
<path fill="none" stroke="#8b1a1a" d="M684.34,-92C693.08,-92 701.93,-92 710.69,-92"/>
<polygon fill="#8b1a1a" stroke="#8b1a1a" points="684.15,-88.5 674.15,-92 684.15,-95.5 684.15,-88.5"/>
</g>
<!-- Node4 -->
<g id="node4" class="node">
<title>Node4</title>
<g id="a_node4"><a xlink:href="classmn_1_1memory_1_1basic__allocator.html" target="_top" xlink:title=" ">
<polygon fill="white" stroke="black" points="241,-77 241,-107 399,-107 399,-77 241,-77"/>
<text text-anchor="start" x="249" y="-95" font-family="Helvetica,sans-Serif" font-size="10.00">mn::memory::basic_allocator</text>
<text text-anchor="middle" x="320" y="-84" font-family="Helvetica,sans-Serif" font-size="10.00">&lt; TAllocator, TFilter &gt;</text>
</a>
</g>
</g>
<!-- Node4&#45;&gt;Node3 -->
<g id="edge3" class="edge">
<title>Node4&#45;&gt;Node3</title>
<path fill="none" stroke="#9a32cd" stroke-dasharray="5,2" d="M409.34,-92C437.25,-92 468.08,-92 495.97,-92"/>
<polygon fill="#9a32cd" stroke="#9a32cd" points="409.2,-88.5 399.2,-92 409.2,-95.5 409.2,-88.5"/>
<text text-anchor="middle" x="447.5" y="-95" font-family="Helvetica,sans-Serif" font-size="10.00"> m_allocator</text>
</g>
<!-- Node5 -->
<g id="node5" class="node">
<title>Node5</title>
<g id="a_node5"><a xlink:href="classmn_1_1memory_1_1basic__allocator__filter.html" target="_top" xlink:title=" ">
<polygon fill="white" stroke="black" points="0,-77 0,-107 158,-107 158,-77 0,-77"/>
<text text-anchor="start" x="8" y="-95" font-family="Helvetica,sans-Serif" font-size="10.00">mn::memory::basic_allocator</text>
<text text-anchor="middle" x="79" y="-84" font-family="Helvetica,sans-Serif" font-size="10.00">_filter</text>
</a>
</g>
</g>
<!-- Node5&#45;&gt;Node4 -->
<g id="edge4" class="edge">
<title>Node5&#45;&gt;Node4</title>
<path fill="none" stroke="#9a32cd" stroke-dasharray="5,2" d="M168.35,-92C192.17,-92 217.76,-92 240.98,-92"/>
<polygon fill="#9a32cd" stroke="#9a32cd" points="168.26,-88.5 158.26,-92 168.26,-95.5 168.26,-88.5"/>
<text text-anchor="middle" x="199.5" y="-95" font-family="Helvetica,sans-Serif" font-size="10.00"> m_fFilter</text>
</g>
<!-- Node6 -->
<g id="node6" class="node">
<title>Node6</title>
<g id="a_node6"><a xlink:href="structmn_1_1container_1_1internal_1_1compare__func.html" target="_top" xlink:title=" ">
<polygon fill="white" stroke="black" points="738,-0.5 738,-41.5 887,-41.5 887,-0.5 738,-0.5"/>
<text text-anchor="start" x="746" y="-29.5" font-family="Helvetica,sans-Serif" font-size="10.00">mn::container::internal</text>
<text text-anchor="start" x="746" y="-18.5" font-family="Helvetica,sans-Serif" font-size="10.00">::compare_func&lt; value</text>
<text text-anchor="middle" x="812.5" y="-7.5" font-family="Helvetica,sans-Serif" font-size="10.00">_type, mn::less&lt; TKey &gt; &gt;</text>
</a>
</g>
</g>
<!-- Node6&#45;&gt;Node1 -->
<g id="edge5" class="edge">
<title>Node6&#45;&gt;Node1</title>
<path fill="none" stroke="#9a32cd" stroke-dasharray="5,2" d="M897.74,-24.92C933.6,-26.59 975.28,-28.52 1010.9,-30.18"/>
<polygon fill="#9a32cd" stroke="#9a32cd" points="897.45,-21.4 887.3,-24.43 897.13,-28.39 897.45,-21.4"/>
<text text-anchor="middle" x="962.5" y="-33" font-family="Helvetica,sans-Serif" font-size="10.00"> m_compare</text>
</g>
</g>
</svg>
