<?xml version="1.0" encoding="UTF-8" standalone="no"?>
<!DOCTYPE svg PUBLIC "-//W3C//DTD SVG 1.1//EN"
 "http://www.w3.org/Graphics/SVG/1.1/DTD/svg11.dtd">
<!-- Generated by graphviz version 2.47.3 (0)
 -->
<!-- Title: mn::pointer::basic_value_ptr&lt; T, TCloner, TDeleter &gt; Pages: 1 -->
<svg width="178pt" height="207pt"
 viewBox="0.00 0.00 178.00 207.00" xmlns="http://www.w3.org/2000/svg" xmlns:xlink="http://www.w3.org/1999/xlink">
<g id="graph0" class="graph" transform="scale(1 1) rotate(0) translate(4 203)">
<title>mn::pointer::basic_value_ptr&lt; T, TCloner, TDeleter &gt;</title>
<polygon fill="white" stroke="transparent" points="-4,4 -4,-203 174,-203 174,4 -4,4"/>
<!-- Node1 -->
<g id="node1" class="node">
<title>Node1</title>
<g id="a_node1"><a xlink:title=" ">
<polygon fill="#bfbfbf" stroke="black" points="18.5,-0.5 18.5,-41.5 149.5,-41.5 149.5,-0.5 18.5,-0.5"/>
<text text-anchor="start" x="26.5" y="-29.5" font-family="Helvetica,sans-Serif" font-size="10.00">mn::pointer::basic</text>
<text text-anchor="start" x="26.5" y="-18.5" font-family="Helvetica,sans-Serif" font-size="10.00">_value_ptr&lt; T, TCloner,</text>
<text text-anchor="middle" x="84" y="-7.5" font-family="Helvetica,sans-Serif" font-size="10.00"> TDeleter &gt;</text>
</a>
</g>
</g>
<!-- Node2 -->
<g id="node2" class="node">
<title>Node2</title>
<g id="a_node2"><a xlink:href="classmn_1_1pointer_1_1basic__clone__ptr.html" target="_top" xlink:title=" ">
<polygon fill="white" stroke="black" points="16.5,-89.5 16.5,-141.5 151.5,-141.5 151.5,-89.5 16.5,-89.5"/>
<text text-anchor="start" x="24.5" y="-129.5" font-family="Helvetica,sans-Serif" font-size="10.00">mn::pointer::basic</text>
<text text-anchor="start" x="24.5" y="-118.5" font-family="Helvetica,sans-Serif" font-size="10.00">_clone_ptr&lt; value_type,</text>
<text text-anchor="start" x="24.5" y="-107.5" font-family="Helvetica,sans-Serif" font-size="10.00"> cloner_type, deleter</text>
<text text-anchor="middle" x="84" y="-96.5" font-family="Helvetica,sans-Serif" font-size="10.00">_type &gt;</text>
</a>
</g>
</g>
<!-- Node2&#45;&gt;Node1 -->
<g id="edge1" class="edge">
<title>Node2&#45;&gt;Node1</title>
<path fill="none" stroke="#9a32cd" stroke-dasharray="5,2" d="M84,-78.95C84,-66.3 84,-52.51 84,-41.67"/>
<polygon fill="#9a32cd" stroke="#9a32cd" points="80.5,-79.22 84,-89.22 87.5,-79.22 80.5,-79.22"/>
<text text-anchor="middle" x="100" y="-63" font-family="Helvetica,sans-Serif" font-size="10.00"> m_ptr</text>
</g>
<!-- Node3 -->
<g id="node3" class="node">
<title>Node3</title>
<g id="a_node3"><a xlink:title=" ">
<polygon fill="white" stroke="#bfbfbf" points="0,-179.5 0,-198.5 74,-198.5 74,-179.5 0,-179.5"/>
<text text-anchor="middle" x="37" y="-186.5" font-family="Helvetica,sans-Serif" font-size="10.00">cloner_type</text>
</a>
</g>
</g>
<!-- Node3&#45;&gt;Node2 -->
<g id="edge2" class="edge">
<title>Node3&#45;&gt;Node2</title>
<path fill="none" stroke="#8b1a1a" d="M48.36,-170.71C54.09,-162 61.15,-151.26 67.47,-141.65"/>
<polygon fill="#8b1a1a" stroke="#8b1a1a" points="45.33,-168.95 42.76,-179.23 51.18,-172.8 45.33,-168.95"/>
</g>
<!-- Node4 -->
<g id="node4" class="node">
<title>Node4</title>
<g id="a_node4"><a xlink:title=" ">
<polygon fill="white" stroke="#bfbfbf" points="92,-179.5 92,-198.5 170,-198.5 170,-179.5 92,-179.5"/>
<text text-anchor="middle" x="131" y="-186.5" font-family="Helvetica,sans-Serif" font-size="10.00">deleter_type</text>
</a>
</g>
</g>
<!-- Node4&#45;&gt;Node2 -->
<g id="edge3" class="edge">
<title>Node4&#45;&gt;Node2</title>
<path fill="none" stroke="#8b1a1a" d="M119.64,-170.71C113.91,-162 106.85,-151.26 100.53,-141.65"/>
<polygon fill="#8b1a1a" stroke="#8b1a1a" points="116.82,-172.8 125.24,-179.23 122.67,-168.95 116.82,-172.8"/>
</g>
</g>
</svg>
