<?xml version="1.0" encoding="UTF-8" standalone="no"?>
<!DOCTYPE svg PUBLIC "-//W3C//DTD SVG 1.1//EN"
 "http://www.w3.org/Graphics/SVG/1.1/DTD/svg11.dtd">
<!-- Generated by graphviz version 2.46.0 (0)
 -->
<!-- Title: mn::net::basic_ip6_socket Pages: 1 -->
<svg width="384pt" height="252pt"
 viewBox="0.00 0.00 384.00 252.00" xmlns="http://www.w3.org/2000/svg" xmlns:xlink="http://www.w3.org/1999/xlink">
<g id="graph0" class="graph" transform="scale(1 1) rotate(0) translate(4 248)">
<title>mn::net::basic_ip6_socket</title>
<polygon fill="white" stroke="transparent" points="-4,4 -4,-248 380,-248 380,4 -4,4"/>
<!-- Node1 -->
<g id="node1" class="node">
<title>Node1</title>
<g id="a_node1"><a xlink:title=" ">
<polygon fill="#bfbfbf" stroke="black" points="31.5,-0.5 31.5,-30.5 137.5,-30.5 137.5,-0.5 31.5,-0.5"/>
<text text-anchor="start" x="39.5" y="-18.5" font-family="Helvetica,sans-Serif" font-size="10.00">mn::net::basic_ip6</text>
<text text-anchor="middle" x="84.5" y="-7.5" font-family="Helvetica,sans-Serif" font-size="10.00">_socket</text>
</a>
</g>
</g>
<!-- Node2 -->
<g id="node2" class="node">
<title>Node2</title>
<g id="a_node2"><a xlink:href="classmn_1_1net_1_1basic__ip__socket.html" target="_top" xlink:title=" ">
<polygon fill="white" stroke="black" points="0,-84 0,-103 137,-103 137,-84 0,-84"/>
<text text-anchor="middle" x="68.5" y="-91" font-family="Helvetica,sans-Serif" font-size="10.00">mn::net::basic_ip_socket</text>
</a>
</g>
</g>
<!-- Node2&#45;&gt;Node1 -->
<g id="edge1" class="edge">
<title>Node2&#45;&gt;Node1</title>
<path fill="none" stroke="midnightblue" d="M72.44,-73.78C75.26,-60.4 78.99,-42.69 81.55,-30.52"/>
<polygon fill="midnightblue" stroke="midnightblue" points="68.97,-73.28 70.34,-83.78 75.82,-74.72 68.97,-73.28"/>
</g>
<!-- Node3 -->
<g id="node3" class="node">
<title>Node3</title>
<g id="a_node3"><a xlink:href="classmn_1_1net_1_1basic__ip6__endpoint.html" target="_top" xlink:title=" ">
<polygon fill="white" stroke="black" points="155.5,-78.5 155.5,-108.5 261.5,-108.5 261.5,-78.5 155.5,-78.5"/>
<text text-anchor="start" x="163.5" y="-96.5" font-family="Helvetica,sans-Serif" font-size="10.00">mn::net::basic_ip6</text>
<text text-anchor="middle" x="208.5" y="-85.5" font-family="Helvetica,sans-Serif" font-size="10.00">_endpoint</text>
</a>
</g>
</g>
<!-- Node3&#45;&gt;Node1 -->
<g id="edge2" class="edge">
<title>Node3&#45;&gt;Node1</title>
<path fill="none" stroke="#9a32cd" stroke-dasharray="5,2" d="M176.92,-73.14C155.23,-59.85 126.95,-42.52 107.41,-30.54"/>
<polygon fill="#9a32cd" stroke="#9a32cd" points="175.11,-76.14 185.47,-78.38 178.77,-70.17 175.11,-76.14"/>
<text text-anchor="middle" x="188" y="-52" font-family="Helvetica,sans-Serif" font-size="10.00"> m_pEndPoint</text>
</g>
<!-- Node4 -->
<g id="node4" class="node">
<title>Node4</title>
<g id="a_node4"><a xlink:href="classmn_1_1net_1_1basic__endpoint.html" target="_top" xlink:title=" ">
<polygon fill="white" stroke="black" points="99.5,-162 99.5,-181 233.5,-181 233.5,-162 99.5,-162"/>
<text text-anchor="middle" x="166.5" y="-169" font-family="Helvetica,sans-Serif" font-size="10.00">mn::net::basic_endpoint</text>
</a>
</g>
</g>
<!-- Node4&#45;&gt;Node3 -->
<g id="edge3" class="edge">
<title>Node4&#45;&gt;Node3</title>
<path fill="none" stroke="midnightblue" d="M176.19,-152.97C183.65,-139.47 193.83,-121.05 200.75,-108.52"/>
<polygon fill="midnightblue" stroke="midnightblue" points="173.09,-151.34 171.32,-161.78 179.22,-154.72 173.09,-151.34"/>
</g>
<!-- Node5 -->
<g id="node5" class="node">
<title>Node5</title>
<g id="a_node5"><a xlink:href="classmn_1_1net_1_1basic__ip6__address.html" target="_top" xlink:title="Class for the Internet Protocal version 6.">
<polygon fill="white" stroke="black" points="251.5,-156.5 251.5,-186.5 357.5,-186.5 357.5,-156.5 251.5,-156.5"/>
<text text-anchor="start" x="259.5" y="-174.5" font-family="Helvetica,sans-Serif" font-size="10.00">mn::net::basic_ip6</text>
<text text-anchor="middle" x="304.5" y="-163.5" font-family="Helvetica,sans-Serif" font-size="10.00">_address</text>
</a>
</g>
</g>
<!-- Node5&#45;&gt;Node3 -->
<g id="edge4" class="edge">
<title>Node5&#45;&gt;Node3</title>
<path fill="none" stroke="#9a32cd" stroke-dasharray="5,2" d="M278.29,-149.75C261.85,-136.73 241.07,-120.28 226.48,-108.73"/>
<polygon fill="#9a32cd" stroke="#9a32cd" points="276.43,-152.74 286.44,-156.2 280.78,-147.25 276.43,-152.74"/>
<text text-anchor="middle" x="292" y="-130" font-family="Helvetica,sans-Serif" font-size="10.00"> m_ipAdress</text>
</g>
<!-- Node6 -->
<g id="node6" class="node">
<title>Node6</title>
<g id="a_node6"><a xlink:href="classmn_1_1net_1_1basic__ip__address.html" target="_top" xlink:title=" ">
<polygon fill="white" stroke="black" points="233,-224.5 233,-243.5 376,-243.5 376,-224.5 233,-224.5"/>
<text text-anchor="middle" x="304.5" y="-231.5" font-family="Helvetica,sans-Serif" font-size="10.00">mn::net::basic_ip_address</text>
</a>
</g>
</g>
<!-- Node6&#45;&gt;Node5 -->
<g id="edge5" class="edge">
<title>Node6&#45;&gt;Node5</title>
<path fill="none" stroke="midnightblue" d="M304.5,-214.22C304.5,-205.36 304.5,-194.96 304.5,-186.76"/>
<polygon fill="midnightblue" stroke="midnightblue" points="301,-214.33 304.5,-224.33 308,-214.33 301,-214.33"/>
</g>
</g>
</svg>
