<?xml version="1.0" encoding="UTF-8" standalone="no"?>
<!DOCTYPE svg PUBLIC "-//W3C//DTD SVG 1.1//EN"
 "http://www.w3.org/Graphics/SVG/1.1/DTD/svg11.dtd">
<!-- Generated by graphviz version 2.47.1 (0)
 -->
<!-- Title: mn::queue::basic_work_queue Pages: 1 -->
<svg width="294pt" height="288pt"
 viewBox="0.00 0.00 293.50 288.00" xmlns="http://www.w3.org/2000/svg" xmlns:xlink="http://www.w3.org/1999/xlink">
<g id="graph0" class="graph" transform="scale(1 1) rotate(0) translate(4 284)">
<title>mn::queue::basic_work_queue</title>
<polygon fill="white" stroke="transparent" points="-4,4 -4,-284 289.5,-284 289.5,4 -4,4"/>
<!-- Node1 -->
<g id="node1" class="node">
<title>Node1</title>
<g id="a_node1"><a xlink:title=" ">
<polygon fill="#bfbfbf" stroke="black" points="85,-0.5 85,-30.5 214,-30.5 214,-0.5 85,-0.5"/>
<text text-anchor="start" x="93" y="-18.5" font-family="Helvetica,sans-Serif" font-size="10.00">mn::queue::basic_work</text>
<text text-anchor="middle" x="149.5" y="-7.5" font-family="Helvetica,sans-Serif" font-size="10.00">_queue</text>
</a>
</g>
</g>
<!-- Node2 -->
<g id="node2" class="node">
<title>Node2</title>
<g id="a_node2"><a xlink:href="classmn_1_1basic__mutex.html" target="_top" xlink:title=" ">
<polygon fill="white" stroke="black" points="15,-89.5 15,-108.5 116,-108.5 116,-89.5 15,-89.5"/>
<text text-anchor="middle" x="65.5" y="-96.5" font-family="Helvetica,sans-Serif" font-size="10.00">mn::basic_mutex</text>
</a>
</g>
</g>
<!-- Node2&#45;&gt;Node1 -->
<g id="edge1" class="edge">
<title>Node2&#45;&gt;Node1</title>
<path fill="none" stroke="#9a32cd" stroke-dasharray="5,2" d="M70.07,-79.6C73.32,-69.6 78.53,-57.56 86.5,-49 93.54,-41.43 102.75,-35.33 111.94,-30.55"/>
<polygon fill="#9a32cd" stroke="#9a32cd" points="66.66,-78.82 67.3,-89.4 73.39,-80.73 66.66,-78.82"/>
<text text-anchor="middle" x="126.5" y="-63" font-family="Helvetica,sans-Serif" font-size="10.00"> m_ThreadJob</text>
<text text-anchor="middle" x="126.5" y="-52" font-family="Helvetica,sans-Serif" font-size="10.00">m_ThreadStatus</text>
</g>
<!-- Node3 -->
<g id="node3" class="node">
<title>Node3</title>
<g id="a_node3"><a xlink:href="classmn_1_1basic__semaphore.html" target="_top" xlink:title=" ">
<polygon fill="white" stroke="black" points="3.5,-146.5 3.5,-165.5 127.5,-165.5 127.5,-146.5 3.5,-146.5"/>
<text text-anchor="middle" x="65.5" y="-153.5" font-family="Helvetica,sans-Serif" font-size="10.00">mn::basic_semaphore</text>
</a>
</g>
</g>
<!-- Node3&#45;&gt;Node2 -->
<g id="edge2" class="edge">
<title>Node3&#45;&gt;Node2</title>
<path fill="none" stroke="midnightblue" d="M65.5,-136.12C65.5,-126.82 65.5,-116.06 65.5,-108.71"/>
<polygon fill="midnightblue" stroke="midnightblue" points="62,-136.41 65.5,-146.41 69,-136.41 62,-136.41"/>
</g>
<!-- Node4 -->
<g id="node4" class="node">
<title>Node4</title>
<g id="a_node4"><a xlink:href="classmn_1_1ILockObject.html" target="_top" xlink:title=" ">
<polygon fill="white" stroke="black" points="18,-203.5 18,-222.5 113,-222.5 113,-203.5 18,-203.5"/>
<text text-anchor="middle" x="65.5" y="-210.5" font-family="Helvetica,sans-Serif" font-size="10.00">mn::ILockObject</text>
</a>
</g>
</g>
<!-- Node4&#45;&gt;Node3 -->
<g id="edge3" class="edge">
<title>Node4&#45;&gt;Node3</title>
<path fill="none" stroke="midnightblue" d="M65.5,-193.12C65.5,-183.82 65.5,-173.06 65.5,-165.71"/>
<polygon fill="midnightblue" stroke="midnightblue" points="62,-193.41 65.5,-203.41 69,-193.41 62,-193.41"/>
</g>
<!-- Node5 -->
<g id="node5" class="node">
<title>Node5</title>
<g id="a_node5"><a xlink:title=" ">
<polygon fill="white" stroke="#bfbfbf" points="0,-260.5 0,-279.5 131,-279.5 131,-260.5 0,-260.5"/>
<text text-anchor="middle" x="65.5" y="-267.5" font-family="Helvetica,sans-Serif" font-size="10.00">MN_ONSIGLETN_CLASS</text>
</a>
</g>
</g>
<!-- Node5&#45;&gt;Node4 -->
<g id="edge4" class="edge">
<title>Node5&#45;&gt;Node4</title>
<path fill="none" stroke="#8b1a1a" d="M65.5,-250.12C65.5,-240.82 65.5,-230.06 65.5,-222.71"/>
<polygon fill="#8b1a1a" stroke="#8b1a1a" points="62,-250.41 65.5,-260.41 69,-250.41 62,-250.41"/>
</g>
<!-- Node6 -->
<g id="node6" class="node">
<title>Node6</title>
<g id="a_node6"><a xlink:href="classmn_1_1queue_1_1basic__queue.html" target="_top" xlink:title="Queue class wrapper for FreeRTOS queues.">
<polygon fill="white" stroke="black" points="134,-89.5 134,-108.5 269,-108.5 269,-89.5 134,-89.5"/>
<text text-anchor="middle" x="201.5" y="-96.5" font-family="Helvetica,sans-Serif" font-size="10.00">mn::queue::basic_queue</text>
</a>
</g>
</g>
<!-- Node6&#45;&gt;Node1 -->
<g id="edge5" class="edge">
<title>Node6&#45;&gt;Node1</title>
<path fill="none" stroke="#9a32cd" stroke-dasharray="5,2" d="M190.35,-80.52C180.83,-65.61 167.33,-44.45 158.49,-30.6"/>
<polygon fill="#9a32cd" stroke="#9a32cd" points="187.61,-82.73 195.94,-89.28 193.51,-78.97 187.61,-82.73"/>
<text text-anchor="middle" x="234" y="-57.5" font-family="Helvetica,sans-Serif" font-size="10.00"> m_pWorkItemQueue</text>
</g>
</g>
</svg>
