<?xml version="1.0" encoding="UTF-8" standalone="no"?>
<!DOCTYPE svg PUBLIC "-//W3C//DTD SVG 1.1//EN"
 "http://www.w3.org/Graphics/SVG/1.1/DTD/svg11.dtd">
<!-- Generated by graphviz version 2.46.0 (0)
 -->
<!-- Title: mn::container::basic_sorted_vector&lt; TKey, TValue, TAllocator, TCompare, TStorage &gt; Pages: 1 -->
<svg width="627pt" height="72pt"
 viewBox="0.00 0.00 627.00 72.00" xmlns="http://www.w3.org/2000/svg" xmlns:xlink="http://www.w3.org/1999/xlink">
<g id="graph0" class="graph" transform="scale(1 1) rotate(0) translate(4 68)">
<title>mn::container::basic_sorted_vector&lt; TKey, TValue, TAllocator, TCompare, TStorage &gt;</title>
<polygon fill="white" stroke="transparent" points="-4,4 -4,-68 623,-68 623,4 -4,4"/>
<!-- Node1 -->
<g id="node1" class="node">
<title>Node1</title>
<g id="a_node1"><a xlink:title=" ">
<polygon fill="#bfbfbf" stroke="black" points="453,-6 453,-58 619,-58 619,-6 453,-6"/>
<text text-anchor="start" x="461" y="-46" font-family="Helvetica,sans-Serif" font-size="10.00">mn::container::basic</text>
<text text-anchor="start" x="461" y="-35" font-family="Helvetica,sans-Serif" font-size="10.00">_sorted_vector&lt; TKey,</text>
<text text-anchor="start" x="461" y="-24" font-family="Helvetica,sans-Serif" font-size="10.00"> TValue, TAllocator, TCompare,</text>
<text text-anchor="middle" x="536" y="-13" font-family="Helvetica,sans-Serif" font-size="10.00"> TStorage &gt;</text>
</a>
</g>
</g>
<!-- Node2 -->
<g id="node2" class="node">
<title>Node2</title>
<g id="a_node2"><a xlink:href="classmn_1_1container_1_1basic__vector.html" target="_top" xlink:title=" ">
<polygon fill="white" stroke="black" points="214,-0.5 214,-63.5 417,-63.5 417,-0.5 214,-0.5"/>
<text text-anchor="start" x="222" y="-51.5" font-family="Helvetica,sans-Serif" font-size="10.00">mn::container::basic</text>
<text text-anchor="start" x="222" y="-40.5" font-family="Helvetica,sans-Serif" font-size="10.00">_vector&lt; basic_pair&lt;</text>
<text text-anchor="start" x="222" y="-29.5" font-family="Helvetica,sans-Serif" font-size="10.00"> TKey, TValue &gt;, TAllocator,</text>
<text text-anchor="start" x="222" y="-18.5" font-family="Helvetica,sans-Serif" font-size="10.00"> basic_vector_storage&lt; basic</text>
<text text-anchor="middle" x="315.5" y="-7.5" font-family="Helvetica,sans-Serif" font-size="10.00">_pair&lt; TKey, TValue &gt;, TAllocator &gt; &gt;</text>
</a>
</g>
</g>
<!-- Node2&#45;&gt;Node1 -->
<g id="edge1" class="edge">
<title>Node2&#45;&gt;Node1</title>
<path fill="none" stroke="#8b1a1a" d="M427.25,-32C435.89,-32 444.51,-32 452.91,-32"/>
<polygon fill="#8b1a1a" stroke="#8b1a1a" points="427.12,-28.5 417.12,-32 427.12,-35.5 427.12,-28.5"/>
</g>
<!-- Node3 -->
<g id="node3" class="node">
<title>Node3</title>
<g id="a_node3"><a xlink:href="structmn_1_1container_1_1basic__vector__storage.html" target="_top" xlink:title=" ">
<polygon fill="white" stroke="black" points="0,-17 0,-47 178,-47 178,-17 0,-17"/>
<text text-anchor="start" x="8" y="-35" font-family="Helvetica,sans-Serif" font-size="10.00">mn::container::basic</text>
<text text-anchor="middle" x="89" y="-24" font-family="Helvetica,sans-Serif" font-size="10.00">_vector_storage&lt; T, TAllocator &gt;</text>
</a>
</g>
</g>
<!-- Node3&#45;&gt;Node2 -->
<g id="edge2" class="edge">
<title>Node3&#45;&gt;Node2</title>
<path fill="none" stroke="#8b1a1a" d="M188.28,-32C196.7,-32 205.22,-32 213.65,-32"/>
<polygon fill="#8b1a1a" stroke="#8b1a1a" points="188.08,-28.5 178.08,-32 188.08,-35.5 188.08,-28.5"/>
</g>
</g>
</svg>
