<?xml version="1.0" encoding="UTF-8" standalone="no"?>
<!DOCTYPE svg PUBLIC "-//W3C//DTD SVG 1.1//EN"
 "http://www.w3.org/Graphics/SVG/1.1/DTD/svg11.dtd">
<!-- Generated by graphviz version 2.47.1 (0)
 -->
<!-- Title: mn::basic_semaphore Pages: 1 -->
<svg width="634pt" height="154pt"
 viewBox="0.00 0.00 634.00 154.00" xmlns="http://www.w3.org/2000/svg" xmlns:xlink="http://www.w3.org/1999/xlink">
<g id="graph0" class="graph" transform="scale(1 1) rotate(0) translate(4 150)">
<title>mn::basic_semaphore</title>
<polygon fill="white" stroke="transparent" points="-4,4 -4,-150 630,-150 630,4 -4,4"/>
<!-- Node1 -->
<g id="node1" class="node">
<title>Node1</title>
<g id="a_node1"><a xlink:title=" ">
<polygon fill="#bfbfbf" stroke="black" points="298,-66.5 298,-85.5 422,-85.5 422,-66.5 298,-66.5"/>
<text text-anchor="middle" x="360" y="-73.5" font-family="Helvetica,sans-Serif" font-size="10.00">mn::basic_semaphore</text>
</a>
</g>
</g>
<!-- Node4 -->
<g id="node4" class="node">
<title>Node4</title>
<g id="a_node4"><a xlink:href="classmn_1_1basic__binary__semaphore.html" target="_top" xlink:title=" ">
<polygon fill="white" stroke="black" points="462,-126.5 462,-145.5 622,-145.5 622,-126.5 462,-126.5"/>
<text text-anchor="middle" x="542" y="-133.5" font-family="Helvetica,sans-Serif" font-size="10.00">mn::basic_binary_semaphore</text>
</a>
</g>
</g>
<!-- Node1&#45;&gt;Node4 -->
<g id="edge3" class="edge">
<title>Node1&#45;&gt;Node4</title>
<path fill="none" stroke="midnightblue" d="M389.98,-89.82C409,-98.5 434.59,-109.44 458,-117 469.11,-120.59 481.27,-123.77 492.77,-126.46"/>
<polygon fill="midnightblue" stroke="midnightblue" points="391.22,-86.54 380.68,-85.52 388.28,-92.9 391.22,-86.54"/>
</g>
<!-- Node5 -->
<g id="node5" class="node">
<title>Node5</title>
<g id="a_node5"><a xlink:href="classmn_1_1basic__clock.html" target="_top" xlink:title=" ">
<polygon fill="white" stroke="black" points="458,-88.5 458,-107.5 626,-107.5 626,-88.5 458,-88.5"/>
<text text-anchor="middle" x="542" y="-95.5" font-family="Helvetica,sans-Serif" font-size="10.00">mn::basic_clock&lt; TLockType &gt;</text>
</a>
</g>
</g>
<!-- Node1&#45;&gt;Node5 -->
<g id="edge4" class="edge">
<title>Node1&#45;&gt;Node5</title>
<path fill="none" stroke="midnightblue" d="M432.2,-84.7C442.35,-85.94 452.82,-87.22 463.09,-88.48"/>
<polygon fill="midnightblue" stroke="midnightblue" points="432.54,-81.22 422.19,-83.48 431.69,-88.17 432.54,-81.22"/>
</g>
<!-- Node6 -->
<g id="node6" class="node">
<title>Node6</title>
<g id="a_node6"><a xlink:href="classmn_1_1basic__counting__semaphore.html" target="_top" xlink:title=" ">
<polygon fill="white" stroke="black" points="486.5,-39 486.5,-69 597.5,-69 597.5,-39 486.5,-39"/>
<text text-anchor="start" x="494.5" y="-57" font-family="Helvetica,sans-Serif" font-size="10.00">mn::basic_counting</text>
<text text-anchor="middle" x="542" y="-46" font-family="Helvetica,sans-Serif" font-size="10.00">_semaphore</text>
</a>
</g>
</g>
<!-- Node1&#45;&gt;Node6 -->
<g id="edge5" class="edge">
<title>Node1&#45;&gt;Node6</title>
<path fill="none" stroke="midnightblue" d="M432.34,-67.28C450.3,-65.09 469.31,-62.76 486.32,-60.68"/>
<polygon fill="midnightblue" stroke="midnightblue" points="431.69,-63.83 422.19,-68.52 432.54,-70.78 431.69,-63.83"/>
</g>
<!-- Node7 -->
<g id="node7" class="node">
<title>Node7</title>
<g id="a_node7"><a xlink:href="classmn_1_1basic__mutex.html" target="_top" xlink:title=" ">
<polygon fill="white" stroke="black" points="491.5,-0.5 491.5,-19.5 592.5,-19.5 592.5,-0.5 491.5,-0.5"/>
<text text-anchor="middle" x="542" y="-7.5" font-family="Helvetica,sans-Serif" font-size="10.00">mn::basic_mutex</text>
</a>
</g>
</g>
<!-- Node1&#45;&gt;Node7 -->
<g id="edge6" class="edge">
<title>Node1&#45;&gt;Node7</title>
<path fill="none" stroke="midnightblue" d="M386.66,-61.59C405.83,-51.31 432.93,-37.81 458,-29 468.6,-25.27 480.22,-22.08 491.32,-19.44"/>
<polygon fill="midnightblue" stroke="midnightblue" points="384.78,-58.62 377.67,-66.48 388.13,-64.77 384.78,-58.62"/>
</g>
<!-- Node2 -->
<g id="node2" class="node">
<title>Node2</title>
<g id="a_node2"><a xlink:href="classmn_1_1ILockObject.html" target="_top" xlink:title=" ">
<polygon fill="white" stroke="black" points="167,-66.5 167,-85.5 262,-85.5 262,-66.5 167,-66.5"/>
<text text-anchor="middle" x="214.5" y="-73.5" font-family="Helvetica,sans-Serif" font-size="10.00">mn::ILockObject</text>
</a>
</g>
</g>
<!-- Node2&#45;&gt;Node1 -->
<g id="edge1" class="edge">
<title>Node2&#45;&gt;Node1</title>
<path fill="none" stroke="midnightblue" d="M272.16,-76C280.57,-76 289.26,-76 297.75,-76"/>
<polygon fill="midnightblue" stroke="midnightblue" points="272.09,-72.5 262.09,-76 272.09,-79.5 272.09,-72.5"/>
</g>
<!-- Node3 -->
<g id="node3" class="node">
<title>Node3</title>
<g id="a_node3"><a xlink:title=" ">
<polygon fill="white" stroke="#bfbfbf" points="0,-66.5 0,-85.5 131,-85.5 131,-66.5 0,-66.5"/>
<text text-anchor="middle" x="65.5" y="-73.5" font-family="Helvetica,sans-Serif" font-size="10.00">MN_ONSIGLETN_CLASS</text>
</a>
</g>
</g>
<!-- Node3&#45;&gt;Node2 -->
<g id="edge2" class="edge">
<title>Node3&#45;&gt;Node2</title>
<path fill="none" stroke="#8b1a1a" d="M141.44,-76C150.01,-76 158.54,-76 166.59,-76"/>
<polygon fill="#8b1a1a" stroke="#8b1a1a" points="141.4,-72.5 131.4,-76 141.4,-79.5 141.4,-72.5"/>
</g>
</g>
</svg>
