<?xml version="1.0" encoding="UTF-8" standalone="no"?>
<!DOCTYPE svg PUBLIC "-//W3C//DTD SVG 1.1//EN"
 "http://www.w3.org/Graphics/SVG/1.1/DTD/svg11.dtd">
<!-- Generated by graphviz version 2.47.3 (0)
 -->
<!-- Title: mn::container::basic_array&lt; T, TAllocator, TDeleter &gt; Pages: 1 -->
<svg width="650pt" height="88pt"
 viewBox="0.00 0.00 650.00 88.00" xmlns="http://www.w3.org/2000/svg" xmlns:xlink="http://www.w3.org/1999/xlink">
<g id="graph0" class="graph" transform="scale(1 1) rotate(0) translate(4 84)">
<title>mn::container::basic_array&lt; T, TAllocator, TDeleter &gt;</title>
<polygon fill="white" stroke="transparent" points="-4,4 -4,-84 646,-84 646,4 -4,4"/>
<!-- Node1 -->
<g id="node1" class="node">
<title>Node1</title>
<g id="a_node1"><a xlink:title="Lightweight c++11 array implementation.">
<polygon fill="#bfbfbf" stroke="black" points="520,-12 520,-53 642,-53 642,-12 520,-12"/>
<text text-anchor="start" x="528" y="-41" font-family="Helvetica,sans-Serif" font-size="10.00">mn::container::basic</text>
<text text-anchor="start" x="528" y="-30" font-family="Helvetica,sans-Serif" font-size="10.00">_array&lt; T, TAllocator,</text>
<text text-anchor="middle" x="581" y="-19" font-family="Helvetica,sans-Serif" font-size="10.00"> TDeleter &gt;</text>
</a>
</g>
</g>
<!-- Node2 -->
<g id="node2" class="node">
<title>Node2</title>
<g id="a_node2"><a xlink:href="classmn_1_1memory_1_1basic__allocator.html" target="_top" xlink:title=" ">
<polygon fill="white" stroke="black" points="252,-49.5 252,-79.5 410,-79.5 410,-49.5 252,-49.5"/>
<text text-anchor="start" x="260" y="-67.5" font-family="Helvetica,sans-Serif" font-size="10.00">mn::memory::basic_allocator</text>
<text text-anchor="middle" x="331" y="-56.5" font-family="Helvetica,sans-Serif" font-size="10.00">&lt; TAllocator, TFilter &gt;</text>
</a>
</g>
</g>
<!-- Node2&#45;&gt;Node1 -->
<g id="edge1" class="edge">
<title>Node2&#45;&gt;Node1</title>
<path fill="none" stroke="#9a32cd" stroke-dasharray="5,2" d="M420.25,-53.11C453.3,-48.85 490.05,-44.11 519.96,-40.25"/>
<polygon fill="#9a32cd" stroke="#9a32cd" points="419.6,-49.67 410.13,-54.42 420.49,-56.61 419.6,-49.67"/>
<text text-anchor="middle" x="470.5" y="-53.5" font-family="Helvetica,sans-Serif" font-size="10.00"> m_alloCator</text>
</g>
<!-- Node3 -->
<g id="node3" class="node">
<title>Node3</title>
<g id="a_node3"><a xlink:href="classmn_1_1memory_1_1basic__allocator__filter.html" target="_top" xlink:title=" ">
<polygon fill="white" stroke="black" points="0,-49.5 0,-79.5 158,-79.5 158,-49.5 0,-49.5"/>
<text text-anchor="start" x="8" y="-67.5" font-family="Helvetica,sans-Serif" font-size="10.00">mn::memory::basic_allocator</text>
<text text-anchor="middle" x="79" y="-56.5" font-family="Helvetica,sans-Serif" font-size="10.00">_filter</text>
</a>
</g>
</g>
<!-- Node3&#45;&gt;Node2 -->
<g id="edge2" class="edge">
<title>Node3&#45;&gt;Node2</title>
<path fill="none" stroke="#9a32cd" stroke-dasharray="5,2" d="M168.35,-64.5C195.51,-64.5 225.21,-64.5 251.66,-64.5"/>
<polygon fill="#9a32cd" stroke="#9a32cd" points="168.07,-61 158.07,-64.5 168.07,-68 168.07,-61"/>
<text text-anchor="middle" x="199.5" y="-67.5" font-family="Helvetica,sans-Serif" font-size="10.00"> m_fFilter</text>
</g>
<!-- Node4 -->
<g id="node4" class="node">
<title>Node4</title>
<g id="a_node4"><a xlink:href="classmn_1_1memory_1_1basic__deleter.html" target="_top" xlink:title=" ">
<polygon fill="white" stroke="black" points="241,-0.5 241,-30.5 421,-30.5 421,-0.5 241,-0.5"/>
<text text-anchor="start" x="249" y="-18.5" font-family="Helvetica,sans-Serif" font-size="10.00">mn::memory::basic_deleter</text>
<text text-anchor="middle" x="331" y="-7.5" font-family="Helvetica,sans-Serif" font-size="10.00">&lt; T, memory::default_allocator &gt;</text>
</a>
</g>
</g>
<!-- Node4&#45;&gt;Node1 -->
<g id="edge3" class="edge">
<title>Node4&#45;&gt;Node1</title>
<path fill="none" stroke="#9a32cd" stroke-dasharray="5,2" d="M431.38,-19.04C454.57,-20.18 479.17,-21.65 502,-23.5 507.84,-23.97 513.92,-24.54 520,-25.16"/>
<polygon fill="#9a32cd" stroke="#9a32cd" points="431.34,-15.54 421.18,-18.56 431.01,-22.53 431.34,-15.54"/>
<text text-anchor="middle" x="470.5" y="-26.5" font-family="Helvetica,sans-Serif" font-size="10.00"> m_dDeleter</text>
</g>
</g>
</svg>
