<?xml version="1.0" encoding="UTF-8" standalone="no"?>
<!DOCTYPE svg PUBLIC "-//W3C//DTD SVG 1.1//EN"
 "http://www.w3.org/Graphics/SVG/1.1/DTD/svg11.dtd">
<!-- Generated by graphviz version 2.46.0 (0)
 -->
<!-- Title: include Pages: 1 -->
<svg width="484pt" height="364pt"
 viewBox="0.00 0.00 484.00 364.00" xmlns="http://www.w3.org/2000/svg" xmlns:xlink="http://www.w3.org/1999/xlink">
<g id="graph0" class="graph" transform="scale(1 1) rotate(0) translate(4 360)">
<title>include</title>
<polygon fill="white" stroke="transparent" points="-4,4 -4,-360 480,-360 480,4 -4,4"/>
<g id="clust1" class="cluster">
<title>clusterdir_d44c64559bbebec7f509842c48db8b23</title>
<g id="a_clust1"><a xlink:href="dir_d44c64559bbebec7f509842c48db8b23.html" target="_top">
<polygon fill="#eeeeff" stroke="black" points="8,-8 8,-348 468,-348 468,-8 8,-8"/>
</a>
</g>
</g>
<!-- dir_d44c64559bbebec7f509842c48db8b23 -->
<g id="node1" class="node">
<title>dir_d44c64559bbebec7f509842c48db8b23</title>
<text text-anchor="middle" x="213" y="-319.5" font-family="Helvetica,sans-Serif" font-size="10.00">include</text>
</g>
<!-- dir_e2b7f4d1631891d42f7888059c5fbeed -->
<g id="node2" class="node">
<title>dir_e2b7f4d1631891d42f7888059c5fbeed</title>
<g id="a_node2"><a xlink:href="dir_e2b7f4d1631891d42f7888059c5fbeed.html" target="_top" xlink:title="allocator">
<polygon fill="white" stroke="black" points="75.5,-268 16.5,-268 16.5,-232 75.5,-232 75.5,-268"/>
<text text-anchor="middle" x="46" y="-247.5" font-family="Helvetica,sans-Serif" font-size="10.00">allocator</text>
</a>
</g>
</g>
<!-- dir_d44c64559bbebec7f509842c48db8b23&#45;&gt;dir_e2b7f4d1631891d42f7888059c5fbeed -->
<g id="edge10" class="edge">
<title>dir_d44c64559bbebec7f509842c48db8b23&#45;&gt;dir_e2b7f4d1631891d42f7888059c5fbeed</title>
<path fill="none" stroke="black" d="M185.97,-309.98C160.02,-299.36 119.75,-282.77 85,-268 84.91,-267.96 84.81,-267.92 84.72,-267.88"/>
<polygon fill="black" stroke="black" points="86.36,-264.77 75.79,-264.05 83.6,-271.21 86.36,-264.77"/>
<g id="a_edge10&#45;headlabel"><a xlink:href="dir_000009_000011.html" target="_top" xlink:title="4">
<text text-anchor="middle" x="90.78" y="-261.08" font-family="Helvetica,sans-Serif" font-size="10.00">4</text>
</a>
</g>
</g>
<!-- dir_91b3ef3bc25284e938abb0e6a7af9442 -->
<g id="node3" class="node">
<title>dir_91b3ef3bc25284e938abb0e6a7af9442</title>
<g id="a_node3"><a xlink:href="dir_91b3ef3bc25284e938abb0e6a7af9442.html" target="_top" xlink:title="atomic">
<polygon fill="white" stroke="black" points="148,-268 94,-268 94,-232 148,-232 148,-268"/>
<text text-anchor="middle" x="121" y="-247.5" font-family="Helvetica,sans-Serif" font-size="10.00">atomic</text>
</a>
</g>
</g>
<!-- dir_d44c64559bbebec7f509842c48db8b23&#45;&gt;dir_91b3ef3bc25284e938abb0e6a7af9442 -->
<g id="edge7" class="edge">
<title>dir_d44c64559bbebec7f509842c48db8b23&#45;&gt;dir_91b3ef3bc25284e938abb0e6a7af9442</title>
<path fill="none" stroke="black" d="M190.26,-303.7C178.56,-294.8 164.14,-283.82 151.49,-274.2"/>
<polygon fill="black" stroke="black" points="153.56,-271.37 143.48,-268.1 149.32,-276.94 153.56,-271.37"/>
<g id="a_edge7&#45;headlabel"><a xlink:href="dir_000009_000013.html" target="_top" xlink:title="2">
<text text-anchor="middle" x="158.14" y="-268.79" font-family="Helvetica,sans-Serif" font-size="10.00">2</text>
</a>
</g>
</g>
<!-- dir_e0f5f6345e438c73b9ae78ec2940718c -->
<g id="node4" class="node">
<title>dir_e0f5f6345e438c73b9ae78ec2940718c</title>
<g id="a_node4"><a xlink:href="dir_e0f5f6345e438c73b9ae78ec2940718c.html" target="_top" xlink:title="container">
<polygon fill="white" stroke="black" points="175,-124 113,-124 113,-88 175,-88 175,-124"/>
<text text-anchor="middle" x="144" y="-103.5" font-family="Helvetica,sans-Serif" font-size="10.00">container</text>
</a>
</g>
</g>
<!-- dir_d44c64559bbebec7f509842c48db8b23&#45;&gt;dir_e0f5f6345e438c73b9ae78ec2940718c -->
<g id="edge9" class="edge">
<title>dir_d44c64559bbebec7f509842c48db8b23&#45;&gt;dir_e0f5f6345e438c73b9ae78ec2940718c</title>
<path fill="none" stroke="black" d="M198.7,-303.91C191.13,-294.01 182.33,-280.96 177,-268 158.45,-222.85 167.26,-207.73 157,-160 155.18,-151.53 153,-142.36 150.95,-134.06"/>
<polygon fill="black" stroke="black" points="154.29,-132.98 148.47,-124.13 147.5,-134.68 154.29,-132.98"/>
<g id="a_edge9&#45;headlabel"><a xlink:href="dir_000009_000019.html" target="_top" xlink:title="9">
<text text-anchor="middle" x="157.92" y="-133.27" font-family="Helvetica,sans-Serif" font-size="10.00">9</text>
</a>
</g>
</g>
<!-- dir_74ef33ac6bd04e46304142a70c34a953 -->
<g id="node5" class="node">
<title>dir_74ef33ac6bd04e46304142a70c34a953</title>
<g id="a_node5"><a xlink:href="dir_74ef33ac6bd04e46304142a70c34a953.html" target="_top" xlink:title="excp">
<polygon fill="white" stroke="black" points="240,-268 186,-268 186,-232 240,-232 240,-268"/>
<text text-anchor="middle" x="213" y="-247.5" font-family="Helvetica,sans-Serif" font-size="10.00">excp</text>
</a>
</g>
</g>
<!-- dir_d44c64559bbebec7f509842c48db8b23&#45;&gt;dir_74ef33ac6bd04e46304142a70c34a953 -->
<g id="edge6" class="edge">
<title>dir_d44c64559bbebec7f509842c48db8b23&#45;&gt;dir_74ef33ac6bd04e46304142a70c34a953</title>
<path fill="none" stroke="black" d="M213,-303.7C213,-295.98 213,-286.71 213,-278.11"/>
<polygon fill="black" stroke="black" points="216.5,-278.1 213,-268.1 209.5,-278.1 216.5,-278.1"/>
<g id="a_edge6&#45;headlabel"><a xlink:href="dir_000009_000024.html" target="_top" xlink:title="1">
<text text-anchor="middle" x="219.34" y="-279.2" font-family="Helvetica,sans-Serif" font-size="10.00">1</text>
</a>
</g>
</g>
<!-- dir_1d52781e224d924275d803a20aa4cb0e -->
<g id="node8" class="node">
<title>dir_1d52781e224d924275d803a20aa4cb0e</title>
<g id="a_node8"><a xlink:href="dir_1d52781e224d924275d803a20aa4cb0e.html" target="_top" xlink:title="memory">
<polygon fill="white" stroke="black" points="316,-268 258,-268 258,-232 316,-232 316,-268"/>
<text text-anchor="middle" x="287" y="-247.5" font-family="Helvetica,sans-Serif" font-size="10.00">memory</text>
</a>
</g>
</g>
<!-- dir_d44c64559bbebec7f509842c48db8b23&#45;&gt;dir_1d52781e224d924275d803a20aa4cb0e -->
<g id="edge4" class="edge">
<title>dir_d44c64559bbebec7f509842c48db8b23&#45;&gt;dir_1d52781e224d924275d803a20aa4cb0e</title>
<path fill="none" stroke="black" d="M231.29,-303.7C240.43,-295.05 251.64,-284.45 261.6,-275.03"/>
<polygon fill="black" stroke="black" points="264.06,-277.52 268.92,-268.1 259.25,-272.43 264.06,-277.52"/>
<g id="a_edge4&#45;headlabel"><a xlink:href="dir_000009_000016.html" target="_top" xlink:title="1">
<text text-anchor="middle" x="263.4" y="-279.55" font-family="Helvetica,sans-Serif" font-size="10.00">1</text>
</a>
</g>
</g>
<!-- dir_2fa1ed3146d6c2b96c5cfe4341985326 -->
<g id="node9" class="node">
<title>dir_2fa1ed3146d6c2b96c5cfe4341985326</title>
<g id="a_node9"><a xlink:href="dir_2fa1ed3146d6c2b96c5cfe4341985326.html" target="_top" xlink:title="net">
<polygon fill="white" stroke="black" points="388,-268 334,-268 334,-232 388,-232 388,-268"/>
<text text-anchor="middle" x="361" y="-247.5" font-family="Helvetica,sans-Serif" font-size="10.00">net</text>
</a>
</g>
</g>
<!-- dir_d44c64559bbebec7f509842c48db8b23&#45;&gt;dir_2fa1ed3146d6c2b96c5cfe4341985326 -->
<g id="edge5" class="edge">
<title>dir_d44c64559bbebec7f509842c48db8b23&#45;&gt;dir_2fa1ed3146d6c2b96c5cfe4341985326</title>
<path fill="none" stroke="black" d="M240.15,-308.16C263.85,-296.95 298.46,-280.58 324.58,-268.23"/>
<polygon fill="black" stroke="black" points="326.23,-271.32 333.78,-263.88 323.24,-264.99 326.23,-271.32"/>
<g id="a_edge5&#45;headlabel"><a xlink:href="dir_000009_000015.html" target="_top" xlink:title="1">
<text text-anchor="middle" x="324.2" y="-272.92" font-family="Helvetica,sans-Serif" font-size="10.00">1</text>
</a>
</g>
</g>
<!-- dir_b3ba3c378860ab9da17b9ff52769e863 -->
<g id="node12" class="node">
<title>dir_b3ba3c378860ab9da17b9ff52769e863</title>
<g id="a_node12"><a xlink:href="dir_b3ba3c378860ab9da17b9ff52769e863.html" target="_top" xlink:title="slock">
<polygon fill="white" stroke="black" points="460,-268 406,-268 406,-232 460,-232 460,-268"/>
<text text-anchor="middle" x="433" y="-247.5" font-family="Helvetica,sans-Serif" font-size="10.00">slock</text>
</a>
</g>
</g>
<!-- dir_d44c64559bbebec7f509842c48db8b23&#45;&gt;dir_b3ba3c378860ab9da17b9ff52769e863 -->
<g id="edge8" class="edge">
<title>dir_d44c64559bbebec7f509842c48db8b23&#45;&gt;dir_b3ba3c378860ab9da17b9ff52769e863</title>
<path fill="none" stroke="black" d="M240.26,-314.61C274.73,-306.21 335.94,-290.27 396.05,-268.07"/>
<polygon fill="black" stroke="black" points="397.55,-271.25 405.68,-264.46 395.09,-264.69 397.55,-271.25"/>
<g id="a_edge8&#45;headlabel"><a xlink:href="dir_000009_000022.html" target="_top" xlink:title="3">
<text text-anchor="middle" x="395.18" y="-272.67" font-family="Helvetica,sans-Serif" font-size="10.00">3</text>
</a>
</g>
</g>
<!-- dir_756bc68c7d575665d5f9db3fe7bdab21 -->
<g id="node10" class="node">
<title>dir_756bc68c7d575665d5f9db3fe7bdab21</title>
<g id="a_node10"><a xlink:href="dir_756bc68c7d575665d5f9db3fe7bdab21.html" target="_top" xlink:title="pointer">
<polygon fill="white" stroke="black" points="148,-196 94,-196 94,-160 148,-160 148,-196"/>
<text text-anchor="middle" x="121" y="-175.5" font-family="Helvetica,sans-Serif" font-size="10.00">pointer</text>
</a>
</g>
</g>
<!-- dir_91b3ef3bc25284e938abb0e6a7af9442&#45;&gt;dir_756bc68c7d575665d5f9db3fe7bdab21 -->
<g id="edge1" class="edge">
<title>dir_91b3ef3bc25284e938abb0e6a7af9442&#45;&gt;dir_756bc68c7d575665d5f9db3fe7bdab21</title>
<path fill="none" stroke="black" d="M121,-231.7C121,-223.98 121,-214.71 121,-206.11"/>
<polygon fill="black" stroke="black" points="124.5,-206.1 121,-196.1 117.5,-206.1 124.5,-206.1"/>
<g id="a_edge1&#45;headlabel"><a xlink:href="dir_000013_000012.html" target="_top" xlink:title="1">
<text text-anchor="middle" x="127.34" y="-207.2" font-family="Helvetica,sans-Serif" font-size="10.00">1</text>
</a>
</g>
</g>
<!-- dir_cac49a9e31bf4f7cd5ab50e2700548d0 -->
<g id="node11" class="node">
<title>dir_cac49a9e31bf4f7cd5ab50e2700548d0</title>
<g id="a_node11"><a xlink:href="dir_cac49a9e31bf4f7cd5ab50e2700548d0.html" target="_top" xlink:title="queue">
<polygon fill="white" stroke="black" points="135,-52 81,-52 81,-16 135,-16 135,-52"/>
<text text-anchor="middle" x="108" y="-31.5" font-family="Helvetica,sans-Serif" font-size="10.00">queue</text>
</a>
</g>
</g>
<!-- dir_e0f5f6345e438c73b9ae78ec2940718c&#45;&gt;dir_cac49a9e31bf4f7cd5ab50e2700548d0 -->
<g id="edge3" class="edge">
<title>dir_e0f5f6345e438c73b9ae78ec2940718c&#45;&gt;dir_cac49a9e31bf4f7cd5ab50e2700548d0</title>
<path fill="none" stroke="black" d="M135.1,-87.7C131,-79.73 126.05,-70.1 121.51,-61.26"/>
<polygon fill="black" stroke="black" points="124.48,-59.4 116.8,-52.1 118.26,-62.6 124.48,-59.4"/>
<g id="a_edge3&#45;headlabel"><a xlink:href="dir_000019_000018.html" target="_top" xlink:title="3">
<text text-anchor="middle" x="128.65" y="-58.79" font-family="Helvetica,sans-Serif" font-size="10.00">3</text>
</a>
</g>
</g>
<!-- dir_821002d4f10779a80d4fb17bc32f21f1 -->
<g id="node13" class="node">
<title>dir_821002d4f10779a80d4fb17bc32f21f1</title>
<g id="a_node13"><a xlink:href="dir_821002d4f10779a80d4fb17bc32f21f1.html" target="_top" xlink:title="utils">
<polygon fill="white" stroke="black" points="207,-52 153,-52 153,-16 207,-16 207,-52"/>
<text text-anchor="middle" x="180" y="-31.5" font-family="Helvetica,sans-Serif" font-size="10.00">utils</text>
</a>
</g>
</g>
<!-- dir_e0f5f6345e438c73b9ae78ec2940718c&#45;&gt;dir_821002d4f10779a80d4fb17bc32f21f1 -->
<g id="edge2" class="edge">
<title>dir_e0f5f6345e438c73b9ae78ec2940718c&#45;&gt;dir_821002d4f10779a80d4fb17bc32f21f1</title>
<path fill="none" stroke="black" d="M152.9,-87.7C157,-79.73 161.95,-70.1 166.49,-61.26"/>
<polygon fill="black" stroke="black" points="169.74,-62.6 171.2,-52.1 163.52,-59.4 169.74,-62.6"/>
<g id="a_edge2&#45;headlabel"><a xlink:href="dir_000019_000010.html" target="_top" xlink:title="1">
<text text-anchor="middle" x="170.62" y="-64.59" font-family="Helvetica,sans-Serif" font-size="10.00">1</text>
</a>
</g>
</g>
<!-- dir_b70bfd746afac09928c9c01feb72ccc3 -->
<g id="node6" class="node">
<title>dir_b70bfd746afac09928c9c01feb72ccc3</title>
<g id="a_node6"><a xlink:href="dir_b70bfd746afac09928c9c01feb72ccc3.html" target="_top" xlink:title="hash">
<polygon fill="white" stroke="black" points="162,-340 108,-340 108,-304 162,-304 162,-340"/>
<text text-anchor="middle" x="135" y="-319.5" font-family="Helvetica,sans-Serif" font-size="10.00">hash</text>
</a>
</g>
</g>
<!-- dir_fba38f648377aa56ae5d69782adf9e53 -->
<g id="node7" class="node">
<title>dir_fba38f648377aa56ae5d69782adf9e53</title>
<g id="a_node7"><a xlink:href="dir_fba38f648377aa56ae5d69782adf9e53.html" target="_top" xlink:title="math">
<polygon fill="white" stroke="black" points="77,-340 23,-340 23,-304 77,-304 77,-340"/>
<text text-anchor="middle" x="50" y="-319.5" font-family="Helvetica,sans-Serif" font-size="10.00">math</text>
</a>
</g>
</g>
<!-- dir_756bc68c7d575665d5f9db3fe7bdab21&#45;&gt;dir_e0f5f6345e438c73b9ae78ec2940718c -->
<g id="edge11" class="edge">
<title>dir_756bc68c7d575665d5f9db3fe7bdab21&#45;&gt;dir_e0f5f6345e438c73b9ae78ec2940718c</title>
<path fill="none" stroke="black" d="M126.69,-159.7C129.25,-151.9 132.33,-142.51 135.18,-133.83"/>
<polygon fill="black" stroke="black" points="138.58,-134.7 138.38,-124.1 131.93,-132.51 138.58,-134.7"/>
<g id="a_edge11&#45;headlabel"><a xlink:href="dir_000012_000019.html" target="_top" xlink:title="1">
<text text-anchor="middle" x="140.16" y="-136.5" font-family="Helvetica,sans-Serif" font-size="10.00">1</text>
</a>
</g>
</g>
</g>
</svg>
