<?xml version="1.0" encoding="UTF-8" standalone="no"?>
<!DOCTYPE svg PUBLIC "-//W3C//DTD SVG 1.1//EN"
 "http://www.w3.org/Graphics/SVG/1.1/DTD/svg11.dtd">
<!-- Generated by graphviz version 2.46.0 (0)
 -->
<!-- Title: pointer Pages: 1 -->
<svg width="102pt" height="167pt"
 viewBox="0.00 0.00 102.00 167.00" xmlns="http://www.w3.org/2000/svg" xmlns:xlink="http://www.w3.org/1999/xlink">
<g id="graph0" class="graph" transform="scale(1 1) rotate(0) translate(4 163)">
<title>pointer</title>
<polygon fill="white" stroke="transparent" points="-4,4 -4,-163 98,-163 98,4 -4,4"/>
<g id="clust1" class="cluster">
<title>clusterdir_d44c64559bbebec7f509842c48db8b23</title>
<g id="a_clust1"><a xlink:href="dir_d44c64559bbebec7f509842c48db8b23.html" target="_top" xlink:title="include">
<polygon fill="#ddddee" stroke="black" points="8,-8 8,-151 86,-151 86,-8 8,-8"/>
<text text-anchor="middle" x="47" y="-139" font-family="Helvetica,sans-Serif" font-size="10.00">include</text>
</a>
</g>
</g>
<!-- dir_e0f5f6345e438c73b9ae78ec2940718c -->
<g id="node1" class="node">
<title>dir_e0f5f6345e438c73b9ae78ec2940718c</title>
<g id="a_node1"><a xlink:href="dir_e0f5f6345e438c73b9ae78ec2940718c.html" target="_top" xlink:title="container">
<polygon fill="none" stroke="black" points="78,-52 16,-52 16,-16 78,-16 78,-52"/>
<text text-anchor="middle" x="47" y="-31.5" font-family="Helvetica,sans-Serif" font-size="10.00">container</text>
</a>
</g>
</g>
<!-- dir_756bc68c7d575665d5f9db3fe7bdab21 -->
<g id="node2" class="node">
<title>dir_756bc68c7d575665d5f9db3fe7bdab21</title>
<g id="a_node2"><a xlink:href="dir_756bc68c7d575665d5f9db3fe7bdab21.html" target="_top" xlink:title="pointer">
<polygon fill="#eeeeff" stroke="black" points="74,-124 20,-124 20,-88 74,-88 74,-124"/>
<text text-anchor="middle" x="47" y="-103.5" font-family="Helvetica,sans-Serif" font-size="10.00">pointer</text>
</a>
</g>
</g>
<!-- dir_756bc68c7d575665d5f9db3fe7bdab21&#45;&gt;dir_e0f5f6345e438c73b9ae78ec2940718c -->
<g id="edge1" class="edge">
<title>dir_756bc68c7d575665d5f9db3fe7bdab21&#45;&gt;dir_e0f5f6345e438c73b9ae78ec2940718c</title>
<path fill="none" stroke="black" d="M47,-87.7C47,-79.98 47,-70.71 47,-62.11"/>
<polygon fill="black" stroke="black" points="50.5,-62.1 47,-52.1 43.5,-62.1 50.5,-62.1"/>
<g id="a_edge1&#45;headlabel"><a xlink:href="dir_000004_000011.html" target="_top" xlink:title="1">
<text text-anchor="middle" x="53.34" y="-63.2" font-family="Helvetica,sans-Serif" font-size="10.00">1</text>
</a>
</g>
</g>
</g>
</svg>
