<?xml version="1.0" encoding="UTF-8" standalone="no"?>
<!DOCTYPE svg PUBLIC "-//W3C//DTD SVG 1.1//EN"
 "http://www.w3.org/Graphics/SVG/1.1/DTD/svg11.dtd">
<!-- Generated by graphviz version 2.46.0 (0)
 -->
<!-- Title: simple&#45;task Pages: 1 -->
<svg width="202pt" height="159pt"
 viewBox="0.00 0.00 202.00 159.00" xmlns="http://www.w3.org/2000/svg" xmlns:xlink="http://www.w3.org/1999/xlink">
<g id="graph0" class="graph" transform="scale(1 1) rotate(0) translate(4 155)">
<title>simple&#45;task</title>
<polygon fill="white" stroke="transparent" points="-4,4 -4,-155 198,-155 198,4 -4,4"/>
<g id="clust1" class="cluster">
<title>clusterdir_d28a4824dc47e487b107a5db32ef43c4</title>
<g id="a_clust1"><a xlink:href="dir_d28a4824dc47e487b107a5db32ef43c4.html" target="_top" xlink:title="examples">
<polygon fill="#ddddee" stroke="black" points="8,-56 8,-143 186,-143 186,-56 8,-56"/>
<text text-anchor="middle" x="97" y="-131" font-family="Helvetica,sans-Serif" font-size="10.00">examples</text>
</a>
</g>
</g>
<g id="clust2" class="cluster">
<title>clusterdir_90da0f44df571b8c1e03cb7e9de46ad1</title>
<g id="a_clust2"><a xlink:href="dir_90da0f44df571b8c1e03cb7e9de46ad1.html" target="_top">
<polygon fill="#eeeeff" stroke="black" points="16,-64 16,-116 178,-116 178,-64 16,-64"/>
</a>
</g>
</g>
<!-- dir_90da0f44df571b8c1e03cb7e9de46ad1 -->
<g id="node1" class="node">
<title>dir_90da0f44df571b8c1e03cb7e9de46ad1</title>
<text text-anchor="middle" x="133" y="-87.5" font-family="Helvetica,sans-Serif" font-size="10.00">simple&#45;task</text>
</g>
<!-- dir_09d67adc8d7e188d1c5a4349e99780ac -->
<g id="node2" class="node">
<title>dir_09d67adc8d7e188d1c5a4349e99780ac</title>
<g id="a_node2"><a xlink:href="dir_09d67adc8d7e188d1c5a4349e99780ac.html" target="_top" xlink:title="src">
<polygon fill="white" stroke="black" points="78,-108 24,-108 24,-72 78,-72 78,-108"/>
<text text-anchor="middle" x="51" y="-87.5" font-family="Helvetica,sans-Serif" font-size="10.00">src</text>
</a>
</g>
</g>
<!-- dir_d44c64559bbebec7f509842c48db8b23 -->
<g id="node3" class="node">
<title>dir_d44c64559bbebec7f509842c48db8b23</title>
<g id="a_node3"><a xlink:href="dir_d44c64559bbebec7f509842c48db8b23.html" target="_top" xlink:title="include">
<polygon fill="white" stroke="red" points="78,-36 24,-36 24,0 78,0 78,-36"/>
<text text-anchor="middle" x="51" y="-15.5" font-family="Helvetica,sans-Serif" font-size="10.00">include</text>
</a>
</g>
</g>
<!-- dir_09d67adc8d7e188d1c5a4349e99780ac&#45;&gt;dir_d44c64559bbebec7f509842c48db8b23 -->
<g id="edge1" class="edge">
<title>dir_09d67adc8d7e188d1c5a4349e99780ac&#45;&gt;dir_d44c64559bbebec7f509842c48db8b23</title>
<path fill="none" stroke="black" d="M51,-71.7C51,-63.98 51,-54.71 51,-46.11"/>
<polygon fill="black" stroke="black" points="54.5,-46.1 51,-36.1 47.5,-46.1 54.5,-46.1"/>
<g id="a_edge1&#45;headlabel"><a xlink:href="dir_000031_000009.html" target="_top" xlink:title="1">
<text text-anchor="middle" x="57.34" y="-47.2" font-family="Helvetica,sans-Serif" font-size="10.00">1</text>
</a>
</g>
</g>
</g>
</svg>
