<?xml version="1.0" encoding="UTF-8" standalone="no"?>
<!DOCTYPE svg PUBLIC "-//W3C//DTD SVG 1.1//EN"
 "http://www.w3.org/Graphics/SVG/1.1/DTD/svg11.dtd">
<!-- Generated by graphviz version 2.47.3 (0)
 -->
<!-- Title: src Pages: 1 -->
<svg width="684pt" height="132pt"
 viewBox="0.00 0.00 684.00 132.00" xmlns="http://www.w3.org/2000/svg" xmlns:xlink="http://www.w3.org/1999/xlink">
<g id="graph0" class="graph" transform="scale(1 1) rotate(0) translate(4 128)">
<title>src</title>
<polygon fill="white" stroke="transparent" points="-4,4 -4,-128 680,-128 680,4 -4,4"/>
<g id="clust1" class="cluster">
<title>clusterdir_68267d1309a1af8e8297ef4c3efbcdba</title>
<g id="a_clust1"><a xlink:href="dir_68267d1309a1af8e8297ef4c3efbcdba.html" target="_top">
<polygon fill="#eeeeff" stroke="black" points="8,-64 8,-116 668,-116 668,-64 8,-64"/>
</a>
</g>
</g>
<!-- dir_68267d1309a1af8e8297ef4c3efbcdba -->
<g id="node1" class="node">
<title>dir_68267d1309a1af8e8297ef4c3efbcdba</title>
<text text-anchor="middle" x="633" y="-87.5" font-family="Helvetica,sans-Serif" font-size="10.00">src</text>
</g>
<!-- dir_976430ae8fd41999a8980c044d3e2daa -->
<g id="node2" class="node">
<title>dir_976430ae8fd41999a8980c044d3e2daa</title>
<g id="a_node2"><a xlink:href="dir_976430ae8fd41999a8980c044d3e2daa.html" target="_top" xlink:title="allocator">
<polygon fill="white" stroke="black" points="587.5,-108 528.5,-108 528.5,-72 587.5,-72 587.5,-108"/>
<text text-anchor="middle" x="558" y="-87.5" font-family="Helvetica,sans-Serif" font-size="10.00">allocator</text>
</a>
</g>
</g>
<!-- dir_d44c64559bbebec7f509842c48db8b23 -->
<g id="node10" class="node">
<title>dir_d44c64559bbebec7f509842c48db8b23</title>
<g id="a_node10"><a xlink:href="dir_d44c64559bbebec7f509842c48db8b23.html" target="_top" xlink:title="include">
<polygon fill="white" stroke="red" points="322,-36 268,-36 268,0 322,0 322,-36"/>
<text text-anchor="middle" x="295" y="-15.5" font-family="Helvetica,sans-Serif" font-size="10.00">include</text>
</a>
</g>
</g>
<!-- dir_976430ae8fd41999a8980c044d3e2daa&#45;&gt;dir_d44c64559bbebec7f509842c48db8b23 -->
<g id="edge3" class="edge">
<title>dir_976430ae8fd41999a8980c044d3e2daa&#45;&gt;dir_d44c64559bbebec7f509842c48db8b23</title>
<path fill="none" stroke="black" d="M534.42,-71.93C529.5,-68.94 524.22,-66.11 519,-64 456.22,-38.62 377.57,-27.08 332.12,-22.21"/>
<polygon fill="black" stroke="black" points="332.44,-18.72 322.13,-21.19 331.72,-25.68 332.44,-18.72"/>
<g id="a_edge3&#45;headlabel"><a xlink:href="dir_000001_000002.html" target="_top" xlink:title="5">
<text text-anchor="middle" x="336.3" y="-13.76" font-family="Helvetica,sans-Serif" font-size="10.00">5</text>
</a>
</g>
</g>
<!-- dir_1b313d86a3cedf427c8a82c0995b1bb6 -->
<g id="node3" class="node">
<title>dir_1b313d86a3cedf427c8a82c0995b1bb6</title>
<g id="a_node3"><a xlink:href="dir_1b313d86a3cedf427c8a82c0995b1bb6.html" target="_top" xlink:title="container">
<polygon fill="white" stroke="black" points="510,-108 448,-108 448,-72 510,-72 510,-108"/>
<text text-anchor="middle" x="479" y="-87.5" font-family="Helvetica,sans-Serif" font-size="10.00">container</text>
</a>
</g>
</g>
<!-- dir_1b313d86a3cedf427c8a82c0995b1bb6&#45;&gt;dir_d44c64559bbebec7f509842c48db8b23 -->
<g id="edge5" class="edge">
<title>dir_1b313d86a3cedf427c8a82c0995b1bb6&#45;&gt;dir_d44c64559bbebec7f509842c48db8b23</title>
<path fill="none" stroke="black" d="M453.72,-71.86C448.95,-69.01 443.91,-66.26 439,-64 403.98,-47.91 361.64,-35.45 331.97,-27.76"/>
<polygon fill="black" stroke="black" points="332.59,-24.31 322.03,-25.24 330.87,-31.09 332.59,-24.31"/>
<g id="a_edge5&#45;headlabel"><a xlink:href="dir_000010_000002.html" target="_top" xlink:title="2">
<text text-anchor="middle" x="336.77" y="-19.94" font-family="Helvetica,sans-Serif" font-size="10.00">2</text>
</a>
</g>
</g>
<!-- dir_16dc92632bab467dc50b01bd02b3341a -->
<g id="node4" class="node">
<title>dir_16dc92632bab467dc50b01bd02b3341a</title>
<g id="a_node4"><a xlink:href="dir_16dc92632bab467dc50b01bd02b3341a.html" target="_top" xlink:title="device">
<polygon fill="white" stroke="black" points="430,-108 376,-108 376,-72 430,-72 430,-108"/>
<text text-anchor="middle" x="403" y="-87.5" font-family="Helvetica,sans-Serif" font-size="10.00">device</text>
</a>
</g>
</g>
<!-- dir_16dc92632bab467dc50b01bd02b3341a&#45;&gt;dir_d44c64559bbebec7f509842c48db8b23 -->
<g id="edge7" class="edge">
<title>dir_16dc92632bab467dc50b01bd02b3341a&#45;&gt;dir_d44c64559bbebec7f509842c48db8b23</title>
<path fill="none" stroke="black" d="M378.71,-71.89C374.81,-69.22 370.81,-66.51 367,-64 355.33,-56.31 342.43,-48.14 330.8,-40.9"/>
<polygon fill="black" stroke="black" points="332.55,-37.87 322.21,-35.57 328.86,-43.82 332.55,-37.87"/>
<g id="a_edge7&#45;headlabel"><a xlink:href="dir_000013_000002.html" target="_top" xlink:title="2">
<text text-anchor="middle" x="337.1" y="-34.85" font-family="Helvetica,sans-Serif" font-size="10.00">2</text>
</a>
</g>
</g>
<!-- dir_27369d925af25fde1a8c43aa3935a0a7 -->
<g id="node5" class="node">
<title>dir_27369d925af25fde1a8c43aa3935a0a7</title>
<g id="a_node5"><a xlink:href="dir_27369d925af25fde1a8c43aa3935a0a7.html" target="_top" xlink:title="excp">
<polygon fill="white" stroke="black" points="358,-108 304,-108 304,-72 358,-72 358,-108"/>
<text text-anchor="middle" x="331" y="-87.5" font-family="Helvetica,sans-Serif" font-size="10.00">excp</text>
</a>
</g>
</g>
<!-- dir_27369d925af25fde1a8c43aa3935a0a7&#45;&gt;dir_d44c64559bbebec7f509842c48db8b23 -->
<g id="edge1" class="edge">
<title>dir_27369d925af25fde1a8c43aa3935a0a7&#45;&gt;dir_d44c64559bbebec7f509842c48db8b23</title>
<path fill="none" stroke="black" d="M322.1,-71.7C318,-63.73 313.05,-54.1 308.51,-45.26"/>
<polygon fill="black" stroke="black" points="311.48,-43.4 303.8,-36.1 305.26,-46.6 311.48,-43.4"/>
<g id="a_edge1&#45;headlabel"><a xlink:href="dir_000018_000002.html" target="_top" xlink:title="4">
<text text-anchor="middle" x="315.65" y="-42.79" font-family="Helvetica,sans-Serif" font-size="10.00">4</text>
</a>
</g>
</g>
<!-- dir_c72b25b75abe208498b36a3e44a3726c -->
<g id="node6" class="node">
<title>dir_c72b25b75abe208498b36a3e44a3726c</title>
<g id="a_node6"><a xlink:href="dir_c72b25b75abe208498b36a3e44a3726c.html" target="_top" xlink:title="net">
<polygon fill="white" stroke="black" points="286,-108 232,-108 232,-72 286,-72 286,-108"/>
<text text-anchor="middle" x="259" y="-87.5" font-family="Helvetica,sans-Serif" font-size="10.00">net</text>
</a>
</g>
</g>
<!-- dir_c72b25b75abe208498b36a3e44a3726c&#45;&gt;dir_d44c64559bbebec7f509842c48db8b23 -->
<g id="edge4" class="edge">
<title>dir_c72b25b75abe208498b36a3e44a3726c&#45;&gt;dir_d44c64559bbebec7f509842c48db8b23</title>
<path fill="none" stroke="black" d="M267.9,-71.7C272,-63.73 276.95,-54.1 281.49,-45.26"/>
<polygon fill="black" stroke="black" points="284.74,-46.6 286.2,-36.1 278.52,-43.4 284.74,-46.6"/>
<g id="a_edge4&#45;headlabel"><a xlink:href="dir_000008_000002.html" target="_top" xlink:title="45">
<text text-anchor="middle" x="285.62" y="-48.59" font-family="Helvetica,sans-Serif" font-size="10.00">45</text>
</a>
</g>
</g>
<!-- dir_b932d720ae4455b3a35ba932c1ee98d1 -->
<g id="node7" class="node">
<title>dir_b932d720ae4455b3a35ba932c1ee98d1</title>
<g id="a_node7"><a xlink:href="dir_b932d720ae4455b3a35ba932c1ee98d1.html" target="_top" xlink:title="queue">
<polygon fill="white" stroke="black" points="214,-108 160,-108 160,-72 214,-72 214,-108"/>
<text text-anchor="middle" x="187" y="-87.5" font-family="Helvetica,sans-Serif" font-size="10.00">queue</text>
</a>
</g>
</g>
<!-- dir_b932d720ae4455b3a35ba932c1ee98d1&#45;&gt;dir_d44c64559bbebec7f509842c48db8b23 -->
<g id="edge6" class="edge">
<title>dir_b932d720ae4455b3a35ba932c1ee98d1&#45;&gt;dir_d44c64559bbebec7f509842c48db8b23</title>
<path fill="none" stroke="black" d="M211.29,-71.89C215.19,-69.22 219.19,-66.51 223,-64 234.67,-56.31 247.57,-48.14 259.2,-40.9"/>
<polygon fill="black" stroke="black" points="261.14,-43.82 267.79,-35.57 257.45,-37.87 261.14,-43.82"/>
<g id="a_edge6&#45;headlabel"><a xlink:href="dir_000011_000002.html" target="_top" xlink:title="22">
<text text-anchor="middle" x="259.58" y="-45.63" font-family="Helvetica,sans-Serif" font-size="10.00">22</text>
</a>
</g>
</g>
<!-- dir_0facf70c611ccf2a86938a1c0bbe5156 -->
<g id="node8" class="node">
<title>dir_0facf70c611ccf2a86938a1c0bbe5156</title>
<g id="a_node8"><a xlink:href="dir_0facf70c611ccf2a86938a1c0bbe5156.html" target="_top" xlink:title="slock">
<polygon fill="white" stroke="black" points="142,-108 88,-108 88,-72 142,-72 142,-108"/>
<text text-anchor="middle" x="115" y="-87.5" font-family="Helvetica,sans-Serif" font-size="10.00">slock</text>
</a>
</g>
</g>
<!-- dir_0facf70c611ccf2a86938a1c0bbe5156&#45;&gt;dir_d44c64559bbebec7f509842c48db8b23 -->
<g id="edge2" class="edge">
<title>dir_0facf70c611ccf2a86938a1c0bbe5156&#45;&gt;dir_d44c64559bbebec7f509842c48db8b23</title>
<path fill="none" stroke="black" d="M137.6,-71.77C141.91,-68.94 146.49,-66.21 151,-64 185.62,-47.06 228.02,-34.73 257.82,-27.3"/>
<polygon fill="black" stroke="black" points="258.9,-30.64 267.8,-24.88 257.25,-23.84 258.9,-30.64"/>
<g id="a_edge2&#45;headlabel"><a xlink:href="dir_000016_000002.html" target="_top" xlink:title="9">
<text text-anchor="middle" x="256.08" y="-31.75" font-family="Helvetica,sans-Serif" font-size="10.00">9</text>
</a>
</g>
</g>
<!-- dir_313caf1132e152dd9b58bea13a4052ca -->
<g id="node9" class="node">
<title>dir_313caf1132e152dd9b58bea13a4052ca</title>
<g id="a_node9"><a xlink:href="dir_313caf1132e152dd9b58bea13a4052ca.html" target="_top" xlink:title="utils">
<polygon fill="white" stroke="black" points="70,-108 16,-108 16,-72 70,-72 70,-108"/>
<text text-anchor="middle" x="43" y="-87.5" font-family="Helvetica,sans-Serif" font-size="10.00">utils</text>
</a>
</g>
</g>
<!-- dir_313caf1132e152dd9b58bea13a4052ca&#45;&gt;dir_d44c64559bbebec7f509842c48db8b23 -->
<g id="edge8" class="edge">
<title>dir_313caf1132e152dd9b58bea13a4052ca&#45;&gt;dir_d44c64559bbebec7f509842c48db8b23</title>
<path fill="none" stroke="black" d="M64.65,-71.92C69.2,-68.93 74.11,-66.1 79,-64 138.45,-38.43 213.51,-27.01 257.69,-22.2"/>
<polygon fill="black" stroke="black" points="258.1,-25.68 267.69,-21.17 257.38,-18.71 258.1,-25.68"/>
<g id="a_edge8&#45;headlabel"><a xlink:href="dir_000020_000002.html" target="_top" xlink:title="6">
<text text-anchor="middle" x="254.82" y="-26.37" font-family="Helvetica,sans-Serif" font-size="10.00">6</text>
</a>
</g>
</g>
</g>
</svg>
