<?xml version="1.0" encoding="UTF-8" standalone="no"?>
<!DOCTYPE svg PUBLIC "-//W3C//DTD SVG 1.1//EN"
 "http://www.w3.org/Graphics/SVG/1.1/DTD/svg11.dtd">
<!-- Generated by graphviz version 2.47.3 (0)
 -->
<!-- Title: device Pages: 1 -->
<svg width="94pt" height="167pt"
 viewBox="0.00 0.00 94.00 167.00" xmlns="http://www.w3.org/2000/svg" xmlns:xlink="http://www.w3.org/1999/xlink">
<g id="graph0" class="graph" transform="scale(1 1) rotate(0) translate(4 163)">
<title>device</title>
<polygon fill="white" stroke="transparent" points="-4,4 -4,-163 90,-163 90,4 -4,4"/>
<g id="clust1" class="cluster">
<title>clusterdir_d44c64559bbebec7f509842c48db8b23</title>
<g id="a_clust1"><a xlink:href="dir_d44c64559bbebec7f509842c48db8b23.html" target="_top" xlink:title="include">
<polygon fill="#ddddee" stroke="black" points="8,-8 8,-151 78,-151 78,-8 8,-8"/>
<text text-anchor="middle" x="43" y="-139" font-family="Helvetica,sans-Serif" font-size="10.00">include</text>
</a>
</g>
</g>
<!-- dir_2fa1ed3146d6c2b96c5cfe4341985326 -->
<g id="node1" class="node">
<title>dir_2fa1ed3146d6c2b96c5cfe4341985326</title>
<g id="a_node1"><a xlink:href="dir_2fa1ed3146d6c2b96c5cfe4341985326.html" target="_top" xlink:title="net">
<polygon fill="none" stroke="black" points="70,-52 16,-52 16,-16 70,-16 70,-52"/>
<text text-anchor="middle" x="43" y="-31.5" font-family="Helvetica,sans-Serif" font-size="10.00">net</text>
</a>
</g>
</g>
<!-- dir_00639e50a5e06ba932c41b2ae621276d -->
<g id="node2" class="node">
<title>dir_00639e50a5e06ba932c41b2ae621276d</title>
<g id="a_node2"><a xlink:href="dir_00639e50a5e06ba932c41b2ae621276d.html" target="_top" xlink:title="device">
<polygon fill="#eeeeff" stroke="black" points="70,-124 16,-124 16,-88 70,-88 70,-124"/>
<text text-anchor="middle" x="43" y="-103.5" font-family="Helvetica,sans-Serif" font-size="10.00">device</text>
</a>
</g>
</g>
<!-- dir_00639e50a5e06ba932c41b2ae621276d&#45;&gt;dir_2fa1ed3146d6c2b96c5cfe4341985326 -->
<g id="edge1" class="edge">
<title>dir_00639e50a5e06ba932c41b2ae621276d&#45;&gt;dir_2fa1ed3146d6c2b96c5cfe4341985326</title>
<path fill="none" stroke="black" d="M43,-87.7C43,-79.98 43,-70.71 43,-62.11"/>
<polygon fill="black" stroke="black" points="46.5,-62.1 43,-52.1 39.5,-62.1 46.5,-62.1"/>
<g id="a_edge1&#45;headlabel"><a xlink:href="dir_000008_000010.html" target="_top" xlink:title="5">
<text text-anchor="middle" x="49.34" y="-63.2" font-family="Helvetica,sans-Serif" font-size="10.00">5</text>
</a>
</g>
</g>
</g>
</svg>
