<?xml version="1.0" encoding="UTF-8" standalone="no"?>
<!DOCTYPE svg PUBLIC "-//W3C//DTD SVG 1.1//EN"
 "http://www.w3.org/Graphics/SVG/1.1/DTD/svg11.dtd">
<!-- Generated by graphviz version 2.47.3 (0)
 -->
<!-- Title: container Pages: 1 -->
<svg width="166pt" height="239pt"
 viewBox="0.00 0.00 166.00 239.00" xmlns="http://www.w3.org/2000/svg" xmlns:xlink="http://www.w3.org/1999/xlink">
<g id="graph0" class="graph" transform="scale(1 1) rotate(0) translate(4 235)">
<title>container</title>
<polygon fill="white" stroke="transparent" points="-4,4 -4,-235 162,-235 162,4 -4,4"/>
<g id="clust1" class="cluster">
<title>clusterdir_d44c64559bbebec7f509842c48db8b23</title>
<g id="a_clust1"><a xlink:href="dir_d44c64559bbebec7f509842c48db8b23.html" target="_top" xlink:title="include">
<polygon fill="#ddddee" stroke="black" points="8,-8 8,-223 150,-223 150,-8 8,-8"/>
<text text-anchor="middle" x="79" y="-211" font-family="Helvetica,sans-Serif" font-size="10.00">include</text>
</a>
</g>
</g>
<!-- dir_756bc68c7d575665d5f9db3fe7bdab21 -->
<g id="node1" class="node">
<title>dir_756bc68c7d575665d5f9db3fe7bdab21</title>
<g id="a_node1"><a xlink:href="dir_756bc68c7d575665d5f9db3fe7bdab21.html" target="_top" xlink:title="pointer">
<polygon fill="none" stroke="black" points="120,-196 66,-196 66,-160 120,-160 120,-196"/>
<text text-anchor="middle" x="93" y="-175.5" font-family="Helvetica,sans-Serif" font-size="10.00">pointer</text>
</a>
</g>
</g>
<!-- dir_821002d4f10779a80d4fb17bc32f21f1 -->
<g id="node2" class="node">
<title>dir_821002d4f10779a80d4fb17bc32f21f1</title>
<g id="a_node2"><a xlink:href="dir_821002d4f10779a80d4fb17bc32f21f1.html" target="_top" xlink:title="utils">
<polygon fill="none" stroke="black" points="70,-52 16,-52 16,-16 70,-16 70,-52"/>
<text text-anchor="middle" x="43" y="-31.5" font-family="Helvetica,sans-Serif" font-size="10.00">utils</text>
</a>
</g>
</g>
<!-- dir_756bc68c7d575665d5f9db3fe7bdab21&#45;&gt;dir_821002d4f10779a80d4fb17bc32f21f1 -->
<g id="edge4" class="edge">
<title>dir_756bc68c7d575665d5f9db3fe7bdab21&#45;&gt;dir_821002d4f10779a80d4fb17bc32f21f1</title>
<path fill="none" stroke="black" d="M76.28,-159.85C67.84,-150.13 58.29,-137.28 53,-124 45.15,-104.29 42.82,-80.31 42.37,-62.2"/>
<polygon fill="black" stroke="black" points="45.87,-62.02 42.29,-52.04 38.87,-62.07 45.87,-62.02"/>
<g id="a_edge4&#45;headlabel"><a xlink:href="dir_000006_000003.html" target="_top" xlink:title="2">
<text text-anchor="middle" x="48.73" y="-63.09" font-family="Helvetica,sans-Serif" font-size="10.00">2</text>
</a>
</g>
</g>
<!-- dir_e0f5f6345e438c73b9ae78ec2940718c -->
<g id="node4" class="node">
<title>dir_e0f5f6345e438c73b9ae78ec2940718c</title>
<g id="a_node4"><a xlink:href="dir_e0f5f6345e438c73b9ae78ec2940718c.html" target="_top" xlink:title="container">
<polygon fill="#eeeeff" stroke="black" points="124,-124 62,-124 62,-88 124,-88 124,-124"/>
<text text-anchor="middle" x="93" y="-103.5" font-family="Helvetica,sans-Serif" font-size="10.00">container</text>
</a>
</g>
</g>
<!-- dir_756bc68c7d575665d5f9db3fe7bdab21&#45;&gt;dir_e0f5f6345e438c73b9ae78ec2940718c -->
<g id="edge5" class="edge">
<title>dir_756bc68c7d575665d5f9db3fe7bdab21&#45;&gt;dir_e0f5f6345e438c73b9ae78ec2940718c</title>
<path fill="none" stroke="black" d="M87.08,-159.7C86.29,-151.98 86.06,-142.71 86.4,-134.11"/>
<polygon fill="black" stroke="black" points="89.9,-134.32 87.1,-124.1 82.92,-133.84 89.9,-134.32"/>
<g id="a_edge5&#45;headlabel"><a xlink:href="dir_000006_000005.html" target="_top" xlink:title="1">
<text text-anchor="middle" x="92.48" y="-135.61" font-family="Helvetica,sans-Serif" font-size="10.00">1</text>
</a>
</g>
</g>
<!-- dir_cac49a9e31bf4f7cd5ab50e2700548d0 -->
<g id="node3" class="node">
<title>dir_cac49a9e31bf4f7cd5ab50e2700548d0</title>
<g id="a_node3"><a xlink:href="dir_cac49a9e31bf4f7cd5ab50e2700548d0.html" target="_top" xlink:title="queue">
<polygon fill="none" stroke="black" points="142,-52 88,-52 88,-16 142,-16 142,-52"/>
<text text-anchor="middle" x="115" y="-31.5" font-family="Helvetica,sans-Serif" font-size="10.00">queue</text>
</a>
</g>
</g>
<!-- dir_e0f5f6345e438c73b9ae78ec2940718c&#45;&gt;dir_756bc68c7d575665d5f9db3fe7bdab21 -->
<g id="edge1" class="edge">
<title>dir_e0f5f6345e438c73b9ae78ec2940718c&#45;&gt;dir_756bc68c7d575665d5f9db3fe7bdab21</title>
<path fill="none" stroke="black" d="M98.9,-124.1C99.7,-131.79 99.94,-141.05 99.6,-149.67"/>
<polygon fill="black" stroke="black" points="96.11,-149.48 98.92,-159.7 103.09,-149.96 96.11,-149.48"/>
<g id="a_edge1&#45;headlabel"><a xlink:href="dir_000005_000006.html" target="_top" xlink:title="1">
<text text-anchor="middle" x="93.52" y="-143.2" font-family="Helvetica,sans-Serif" font-size="10.00">1</text>
</a>
</g>
</g>
<!-- dir_e0f5f6345e438c73b9ae78ec2940718c&#45;&gt;dir_821002d4f10779a80d4fb17bc32f21f1 -->
<g id="edge2" class="edge">
<title>dir_e0f5f6345e438c73b9ae78ec2940718c&#45;&gt;dir_821002d4f10779a80d4fb17bc32f21f1</title>
<path fill="none" stroke="black" d="M80.64,-87.7C74.77,-79.47 67.63,-69.48 61.16,-60.42"/>
<polygon fill="black" stroke="black" points="63.88,-58.21 55.22,-52.1 58.18,-62.28 63.88,-58.21"/>
<g id="a_edge2&#45;headlabel"><a xlink:href="dir_000005_000003.html" target="_top" xlink:title="5">
<text text-anchor="middle" x="68.28" y="-56.98" font-family="Helvetica,sans-Serif" font-size="10.00">5</text>
</a>
</g>
</g>
<!-- dir_e0f5f6345e438c73b9ae78ec2940718c&#45;&gt;dir_cac49a9e31bf4f7cd5ab50e2700548d0 -->
<g id="edge3" class="edge">
<title>dir_e0f5f6345e438c73b9ae78ec2940718c&#45;&gt;dir_cac49a9e31bf4f7cd5ab50e2700548d0</title>
<path fill="none" stroke="black" d="M98.44,-87.7C100.89,-79.9 103.84,-70.51 106.57,-61.83"/>
<polygon fill="black" stroke="black" points="109.96,-62.69 109.62,-52.1 103.29,-60.59 109.96,-62.69"/>
<g id="a_edge3&#45;headlabel"><a xlink:href="dir_000005_000012.html" target="_top" xlink:title="3">
<text text-anchor="middle" x="111.6" y="-64.47" font-family="Helvetica,sans-Serif" font-size="10.00">3</text>
</a>
</g>
</g>
</g>
</svg>
