<?xml version="1.0" encoding="UTF-8" standalone="no"?>
<!DOCTYPE svg PUBLIC "-//W3C//DTD SVG 1.1//EN"
 "http://www.w3.org/Graphics/SVG/1.1/DTD/svg11.dtd">
<!-- Generated by graphviz version 2.44.1 (0)
 -->
<!-- Title: src Pages: 1 -->
<svg width="458pt" height="132pt"
 viewBox="0.00 0.00 458.00 132.00" xmlns="http://www.w3.org/2000/svg" xmlns:xlink="http://www.w3.org/1999/xlink">
<g id="graph0" class="graph" transform="scale(1 1) rotate(0) translate(4 128)">
<title>src</title>
<polygon fill="white" stroke="transparent" points="-4,4 -4,-128 454,-128 454,4 -4,4"/>
<g id="clust1" class="cluster">
<title>clusterdir_68267d1309a1af8e8297ef4c3efbcdba</title>
<g id="a_clust1"><a xlink:href="dir_68267d1309a1af8e8297ef4c3efbcdba.html" target="_top">
<polygon fill="#eeeeff" stroke="black" points="8,-64 8,-116 442,-116 442,-64 8,-64"/>
</a>
</g>
</g>
<!-- dir_68267d1309a1af8e8297ef4c3efbcdba -->
<g id="node1" class="node">
<title>dir_68267d1309a1af8e8297ef4c3efbcdba</title>
<text text-anchor="middle" x="407" y="-87.5" font-family="Helvetica,sans-Serif" font-size="10.00">src</text>
</g>
<!-- dir_27369d925af25fde1a8c43aa3935a0a7 -->
<g id="node2" class="node">
<title>dir_27369d925af25fde1a8c43aa3935a0a7</title>
<g id="a_node2"><a xlink:href="dir_27369d925af25fde1a8c43aa3935a0a7.html" target="_top" xlink:title="excp">
<polygon fill="white" stroke="black" points="362,-108 308,-108 308,-72 362,-72 362,-108"/>
<text text-anchor="middle" x="335" y="-87.5" font-family="Helvetica,sans-Serif" font-size="10.00">excp</text>
</a>
</g>
</g>
<!-- dir_d44c64559bbebec7f509842c48db8b23 -->
<g id="node7" class="node">
<title>dir_d44c64559bbebec7f509842c48db8b23</title>
<g id="a_node7"><a xlink:href="dir_d44c64559bbebec7f509842c48db8b23.html" target="_top" xlink:title="include">
<polygon fill="white" stroke="red" points="214,-36 160,-36 160,0 214,0 214,-36"/>
<text text-anchor="middle" x="187" y="-15.5" font-family="Helvetica,sans-Serif" font-size="10.00">include</text>
</a>
</g>
</g>
<!-- dir_27369d925af25fde1a8c43aa3935a0a7&#45;&gt;dir_d44c64559bbebec7f509842c48db8b23 -->
<g id="edge1" class="edge">
<title>dir_27369d925af25fde1a8c43aa3935a0a7&#45;&gt;dir_d44c64559bbebec7f509842c48db8b23</title>
<path fill="none" stroke="black" d="M311.86,-71.81C307.68,-69.03 303.29,-66.31 299,-64 274.74,-50.92 245.84,-39.4 223.48,-31.29"/>
<polygon fill="black" stroke="black" points="224.61,-27.98 214.01,-27.92 222.26,-34.57 224.61,-27.98"/>
<g id="a_edge1&#45;headlabel"><a xlink:href="dir_000015_000006.html" target="_top" xlink:title="1">
<text text-anchor="middle" x="228.95" y="-24.01" font-family="Helvetica,sans-Serif" font-size="10.00">1</text>
</a>
</g>
</g>
<!-- dir_94d7edf6f8f3d9af5fd63c44172da41c -->
<g id="node3" class="node">
<title>dir_94d7edf6f8f3d9af5fd63c44172da41c</title>
<g id="a_node3"><a xlink:href="dir_94d7edf6f8f3d9af5fd63c44172da41c.html" target="_top" xlink:title="memory">
<polygon fill="white" stroke="black" points="290,-108 232,-108 232,-72 290,-72 290,-108"/>
<text text-anchor="middle" x="261" y="-87.5" font-family="Helvetica,sans-Serif" font-size="10.00">memory</text>
</a>
</g>
</g>
<!-- dir_94d7edf6f8f3d9af5fd63c44172da41c&#45;&gt;dir_d44c64559bbebec7f509842c48db8b23 -->
<g id="edge3" class="edge">
<title>dir_94d7edf6f8f3d9af5fd63c44172da41c&#45;&gt;dir_d44c64559bbebec7f509842c48db8b23</title>
<path fill="none" stroke="black" d="M242.71,-71.7C233.57,-63.05 222.36,-52.45 212.4,-43.03"/>
<polygon fill="black" stroke="black" points="214.75,-40.43 205.08,-36.1 209.94,-45.52 214.75,-40.43"/>
<g id="a_edge3&#45;headlabel"><a xlink:href="dir_000011_000006.html" target="_top" xlink:title="2">
<text text-anchor="middle" x="219.31" y="-38.34" font-family="Helvetica,sans-Serif" font-size="10.00">2</text>
</a>
</g>
</g>
<!-- dir_b932d720ae4455b3a35ba932c1ee98d1 -->
<g id="node4" class="node">
<title>dir_b932d720ae4455b3a35ba932c1ee98d1</title>
<g id="a_node4"><a xlink:href="dir_b932d720ae4455b3a35ba932c1ee98d1.html" target="_top" xlink:title="queue">
<polygon fill="white" stroke="black" points="214,-108 160,-108 160,-72 214,-72 214,-108"/>
<text text-anchor="middle" x="187" y="-87.5" font-family="Helvetica,sans-Serif" font-size="10.00">queue</text>
</a>
</g>
</g>
<!-- dir_b932d720ae4455b3a35ba932c1ee98d1&#45;&gt;dir_d44c64559bbebec7f509842c48db8b23 -->
<g id="edge4" class="edge">
<title>dir_b932d720ae4455b3a35ba932c1ee98d1&#45;&gt;dir_d44c64559bbebec7f509842c48db8b23</title>
<path fill="none" stroke="black" d="M187,-71.7C187,-63.98 187,-54.71 187,-46.11"/>
<polygon fill="black" stroke="black" points="190.5,-46.1 187,-36.1 183.5,-46.1 190.5,-46.1"/>
<g id="a_edge4&#45;headlabel"><a xlink:href="dir_000007_000006.html" target="_top" xlink:title="19">
<text text-anchor="middle" x="193.34" y="-47.2" font-family="Helvetica,sans-Serif" font-size="10.00">19</text>
</a>
</g>
</g>
<!-- dir_0facf70c611ccf2a86938a1c0bbe5156 -->
<g id="node5" class="node">
<title>dir_0facf70c611ccf2a86938a1c0bbe5156</title>
<g id="a_node5"><a xlink:href="dir_0facf70c611ccf2a86938a1c0bbe5156.html" target="_top" xlink:title="slock">
<polygon fill="white" stroke="black" points="142,-108 88,-108 88,-72 142,-72 142,-108"/>
<text text-anchor="middle" x="115" y="-87.5" font-family="Helvetica,sans-Serif" font-size="10.00">slock</text>
</a>
</g>
</g>
<!-- dir_0facf70c611ccf2a86938a1c0bbe5156&#45;&gt;dir_d44c64559bbebec7f509842c48db8b23 -->
<g id="edge2" class="edge">
<title>dir_0facf70c611ccf2a86938a1c0bbe5156&#45;&gt;dir_d44c64559bbebec7f509842c48db8b23</title>
<path fill="none" stroke="black" d="M132.8,-71.7C141.6,-63.14 152.38,-52.66 162,-43.3"/>
<polygon fill="black" stroke="black" points="164.68,-45.58 169.41,-36.1 159.8,-40.57 164.68,-45.58"/>
<g id="a_edge2&#45;headlabel"><a xlink:href="dir_000009_000006.html" target="_top" xlink:title="6">
<text text-anchor="middle" x="164.08" y="-47.63" font-family="Helvetica,sans-Serif" font-size="10.00">6</text>
</a>
</g>
</g>
<!-- dir_25ba0ccffb7c494f6d8d3b9b0f08d621 -->
<g id="node6" class="node">
<title>dir_25ba0ccffb7c494f6d8d3b9b0f08d621</title>
<g id="a_node6"><a xlink:href="dir_25ba0ccffb7c494f6d8d3b9b0f08d621.html" target="_top" xlink:title="trace">
<polygon fill="white" stroke="black" points="70,-108 16,-108 16,-72 70,-72 70,-108"/>
<text text-anchor="middle" x="43" y="-87.5" font-family="Helvetica,sans-Serif" font-size="10.00">trace</text>
</a>
</g>
</g>
<!-- dir_25ba0ccffb7c494f6d8d3b9b0f08d621&#45;&gt;dir_d44c64559bbebec7f509842c48db8b23 -->
<g id="edge5" class="edge">
<title>dir_25ba0ccffb7c494f6d8d3b9b0f08d621&#45;&gt;dir_d44c64559bbebec7f509842c48db8b23</title>
<path fill="none" stroke="black" d="M66.17,-71.85C70.34,-69.07 74.73,-66.34 79,-64 101.76,-51.54 128.71,-40.31 149.99,-32.18"/>
<polygon fill="black" stroke="black" points="151.5,-35.35 159.63,-28.56 149.04,-28.8 151.5,-35.35"/>
<g id="a_edge5&#45;headlabel"><a xlink:href="dir_000013_000006.html" target="_top" xlink:title="2">
<text text-anchor="middle" x="149.13" y="-36.77" font-family="Helvetica,sans-Serif" font-size="10.00">2</text>
</a>
</g>
</g>
</g>
</svg>
