<?xml version="1.0" encoding="UTF-8" standalone="no"?>
<!DOCTYPE svg PUBLIC "-//W3C//DTD SVG 1.1//EN"
 "http://www.w3.org/Graphics/SVG/1.1/DTD/svg11.dtd">
<!-- Generated by graphviz version 2.44.1 (0)
 -->
<!-- Title: include Pages: 1 -->
<svg width="238pt" height="148pt"
 viewBox="0.00 0.00 238.00 148.00" xmlns="http://www.w3.org/2000/svg" xmlns:xlink="http://www.w3.org/1999/xlink">
<g id="graph0" class="graph" transform="scale(1 1) rotate(0) translate(4 144)">
<title>include</title>
<polygon fill="white" stroke="transparent" points="-4,4 -4,-144 234,-144 234,4 -4,4"/>
<g id="clust1" class="cluster">
<title>clusterdir_d44c64559bbebec7f509842c48db8b23</title>
<g id="a_clust1"><a xlink:href="dir_d44c64559bbebec7f509842c48db8b23.html" target="_top">
<polygon fill="#eeeeff" stroke="black" points="8,-8 8,-132 222,-132 222,-8 8,-8"/>
</a>
</g>
</g>
<!-- dir_d44c64559bbebec7f509842c48db8b23 -->
<g id="node1" class="node">
<title>dir_d44c64559bbebec7f509842c48db8b23</title>
<text text-anchor="middle" x="119" y="-103.5" font-family="Helvetica,sans-Serif" font-size="10.00">include</text>
</g>
<!-- dir_74ef33ac6bd04e46304142a70c34a953 -->
<g id="node2" class="node">
<title>dir_74ef33ac6bd04e46304142a70c34a953</title>
<g id="a_node2"><a xlink:href="dir_74ef33ac6bd04e46304142a70c34a953.html" target="_top" xlink:title="excp">
<polygon fill="white" stroke="black" points="70,-52 16,-52 16,-16 70,-16 70,-52"/>
<text text-anchor="middle" x="43" y="-31.5" font-family="Helvetica,sans-Serif" font-size="10.00">excp</text>
</a>
</g>
</g>
<!-- dir_d44c64559bbebec7f509842c48db8b23&#45;&gt;dir_74ef33ac6bd04e46304142a70c34a953 -->
<g id="edge2" class="edge">
<title>dir_d44c64559bbebec7f509842c48db8b23&#45;&gt;dir_74ef33ac6bd04e46304142a70c34a953</title>
<path fill="none" stroke="black" d="M100.21,-87.7C90.83,-79.05 79.32,-68.45 69.09,-59.03"/>
<polygon fill="black" stroke="black" points="71.3,-56.3 61.57,-52.1 66.55,-61.45 71.3,-56.3"/>
<g id="a_edge2&#45;headlabel"><a xlink:href="dir_000001_000009.html" target="_top" xlink:title="1">
<text text-anchor="middle" x="75.86" y="-54.15" font-family="Helvetica,sans-Serif" font-size="10.00">1</text>
</a>
</g>
</g>
<!-- dir_cac49a9e31bf4f7cd5ab50e2700548d0 -->
<g id="node4" class="node">
<title>dir_cac49a9e31bf4f7cd5ab50e2700548d0</title>
<g id="a_node4"><a xlink:href="dir_cac49a9e31bf4f7cd5ab50e2700548d0.html" target="_top" xlink:title="queue">
<polygon fill="white" stroke="black" points="142,-52 88,-52 88,-16 142,-16 142,-52"/>
<text text-anchor="middle" x="115" y="-31.5" font-family="Helvetica,sans-Serif" font-size="10.00">queue</text>
</a>
</g>
</g>
<!-- dir_d44c64559bbebec7f509842c48db8b23&#45;&gt;dir_cac49a9e31bf4f7cd5ab50e2700548d0 -->
<g id="edge3" class="edge">
<title>dir_d44c64559bbebec7f509842c48db8b23&#45;&gt;dir_cac49a9e31bf4f7cd5ab50e2700548d0</title>
<path fill="none" stroke="black" d="M118.01,-87.7C117.57,-79.98 117.04,-70.71 116.55,-62.11"/>
<polygon fill="black" stroke="black" points="120.04,-61.89 115.98,-52.1 113.05,-62.29 120.04,-61.89"/>
<g id="a_edge3&#45;headlabel"><a xlink:href="dir_000001_000003.html" target="_top" xlink:title="5">
<text text-anchor="middle" x="123.08" y="-62.82" font-family="Helvetica,sans-Serif" font-size="10.00">5</text>
</a>
</g>
</g>
<!-- dir_b3ba3c378860ab9da17b9ff52769e863 -->
<g id="node5" class="node">
<title>dir_b3ba3c378860ab9da17b9ff52769e863</title>
<g id="a_node5"><a xlink:href="dir_b3ba3c378860ab9da17b9ff52769e863.html" target="_top" xlink:title="slock">
<polygon fill="white" stroke="black" points="214,-52 160,-52 160,-16 214,-16 214,-52"/>
<text text-anchor="middle" x="187" y="-31.5" font-family="Helvetica,sans-Serif" font-size="10.00">slock</text>
</a>
</g>
</g>
<!-- dir_d44c64559bbebec7f509842c48db8b23&#45;&gt;dir_b3ba3c378860ab9da17b9ff52769e863 -->
<g id="edge1" class="edge">
<title>dir_d44c64559bbebec7f509842c48db8b23&#45;&gt;dir_b3ba3c378860ab9da17b9ff52769e863</title>
<path fill="none" stroke="black" d="M135.81,-87.7C144.13,-79.14 154.31,-68.66 163.39,-59.3"/>
<polygon fill="black" stroke="black" points="165.93,-61.72 170.38,-52.1 160.91,-56.84 165.93,-61.72"/>
<g id="a_edge1&#45;headlabel"><a xlink:href="dir_000001_000006.html" target="_top" xlink:title="1">
<text text-anchor="middle" x="165.46" y="-63.77" font-family="Helvetica,sans-Serif" font-size="10.00">1</text>
</a>
</g>
</g>
<!-- dir_1d52781e224d924275d803a20aa4cb0e -->
<g id="node3" class="node">
<title>dir_1d52781e224d924275d803a20aa4cb0e</title>
<g id="a_node3"><a xlink:href="dir_1d52781e224d924275d803a20aa4cb0e.html" target="_top" xlink:title="memory">
<polygon fill="white" stroke="black" points="74,-124 16,-124 16,-88 74,-88 74,-124"/>
<text text-anchor="middle" x="45" y="-103.5" font-family="Helvetica,sans-Serif" font-size="10.00">memory</text>
</a>
</g>
</g>
</g>
</svg>
