<?xml version="1.0" encoding="UTF-8" standalone="no"?>
<!DOCTYPE svg PUBLIC "-//W3C//DTD SVG 1.1//EN"
 "http://www.w3.org/Graphics/SVG/1.1/DTD/svg11.dtd">
<!-- Generated by graphviz version 2.47.3 (0)
 -->
<!-- Title: include Pages: 1 -->
<svg width="350pt" height="364pt"
 viewBox="0.00 0.00 350.00 364.00" xmlns="http://www.w3.org/2000/svg" xmlns:xlink="http://www.w3.org/1999/xlink">
<g id="graph0" class="graph" transform="scale(1 1) rotate(0) translate(4 360)">
<title>include</title>
<polygon fill="white" stroke="transparent" points="-4,4 -4,-360 346,-360 346,4 -4,4"/>
<g id="clust1" class="cluster">
<title>clusterdir_d44c64559bbebec7f509842c48db8b23</title>
<g id="a_clust1"><a xlink:href="dir_d44c64559bbebec7f509842c48db8b23.html" target="_top">
<polygon fill="#eeeeff" stroke="black" points="8,-8 8,-348 334,-348 334,-8 8,-8"/>
</a>
</g>
</g>
<!-- dir_d44c64559bbebec7f509842c48db8b23 -->
<g id="node1" class="node">
<title>dir_d44c64559bbebec7f509842c48db8b23</title>
<text text-anchor="middle" x="207" y="-319.5" font-family="Helvetica,sans-Serif" font-size="10.00">include</text>
</g>
<!-- dir_e2b7f4d1631891d42f7888059c5fbeed -->
<g id="node2" class="node">
<title>dir_e2b7f4d1631891d42f7888059c5fbeed</title>
<g id="a_node2"><a xlink:href="dir_e2b7f4d1631891d42f7888059c5fbeed.html" target="_top" xlink:title="allocator">
<polygon fill="white" stroke="black" points="118.5,-196 59.5,-196 59.5,-160 118.5,-160 118.5,-196"/>
<text text-anchor="middle" x="89" y="-175.5" font-family="Helvetica,sans-Serif" font-size="10.00">allocator</text>
</a>
</g>
</g>
<!-- dir_d44c64559bbebec7f509842c48db8b23&#45;&gt;dir_e2b7f4d1631891d42f7888059c5fbeed -->
<g id="edge11" class="edge">
<title>dir_d44c64559bbebec7f509842c48db8b23&#45;&gt;dir_e2b7f4d1631891d42f7888059c5fbeed</title>
<path fill="none" stroke="black" d="M179.78,-311.11C151.17,-300.14 108.95,-282.13 99,-268 86.45,-250.17 84.65,-225.16 85.59,-206.19"/>
<polygon fill="black" stroke="black" points="89.09,-206.33 86.37,-196.09 82.11,-205.79 89.09,-206.33"/>
<g id="a_edge11&#45;headlabel"><a xlink:href="dir_000002_000004.html" target="_top" xlink:title="5">
<text text-anchor="middle" x="91.64" y="-207.63" font-family="Helvetica,sans-Serif" font-size="10.00">5</text>
</a>
</g>
</g>
<!-- dir_91b3ef3bc25284e938abb0e6a7af9442 -->
<g id="node3" class="node">
<title>dir_91b3ef3bc25284e938abb0e6a7af9442</title>
<g id="a_node3"><a xlink:href="dir_91b3ef3bc25284e938abb0e6a7af9442.html" target="_top" xlink:title="atomic">
<polygon fill="white" stroke="black" points="162,-268 108,-268 108,-232 162,-232 162,-268"/>
<text text-anchor="middle" x="135" y="-247.5" font-family="Helvetica,sans-Serif" font-size="10.00">atomic</text>
</a>
</g>
</g>
<!-- dir_d44c64559bbebec7f509842c48db8b23&#45;&gt;dir_91b3ef3bc25284e938abb0e6a7af9442 -->
<g id="edge8" class="edge">
<title>dir_d44c64559bbebec7f509842c48db8b23&#45;&gt;dir_91b3ef3bc25284e938abb0e6a7af9442</title>
<path fill="none" stroke="black" d="M189.2,-303.7C180.4,-295.14 169.62,-284.66 160,-275.3"/>
<polygon fill="black" stroke="black" points="162.2,-272.57 152.59,-268.1 157.32,-277.58 162.2,-272.57"/>
<g id="a_edge8&#45;headlabel"><a xlink:href="dir_000002_000007.html" target="_top" xlink:title="2">
<text text-anchor="middle" x="166.76" y="-270.54" font-family="Helvetica,sans-Serif" font-size="10.00">2</text>
</a>
</g>
</g>
<!-- dir_e0f5f6345e438c73b9ae78ec2940718c -->
<g id="node4" class="node">
<title>dir_e0f5f6345e438c73b9ae78ec2940718c</title>
<g id="a_node4"><a xlink:href="dir_e0f5f6345e438c73b9ae78ec2940718c.html" target="_top" xlink:title="container">
<polygon fill="white" stroke="black" points="195,-124 133,-124 133,-88 195,-88 195,-124"/>
<text text-anchor="middle" x="164" y="-103.5" font-family="Helvetica,sans-Serif" font-size="10.00">container</text>
</a>
</g>
</g>
<!-- dir_d44c64559bbebec7f509842c48db8b23&#45;&gt;dir_e0f5f6345e438c73b9ae78ec2940718c -->
<g id="edge10" class="edge">
<title>dir_d44c64559bbebec7f509842c48db8b23&#45;&gt;dir_e0f5f6345e438c73b9ae78ec2940718c</title>
<path fill="none" stroke="black" d="M234.2,-316.08C260.03,-309.8 297.44,-296.18 315,-268 323.46,-254.42 321.81,-246.48 315,-232 292.23,-183.6 240.5,-147.51 203.95,-126.86"/>
<polygon fill="black" stroke="black" points="205.46,-123.7 195.01,-121.95 202.09,-129.83 205.46,-123.7"/>
<g id="a_edge10&#45;headlabel"><a xlink:href="dir_000002_000005.html" target="_top" xlink:title="12">
<text text-anchor="middle" x="209.98" y="-120.44" font-family="Helvetica,sans-Serif" font-size="10.00">12</text>
</a>
</g>
</g>
<!-- dir_74ef33ac6bd04e46304142a70c34a953 -->
<g id="node6" class="node">
<title>dir_74ef33ac6bd04e46304142a70c34a953</title>
<g id="a_node6"><a xlink:href="dir_74ef33ac6bd04e46304142a70c34a953.html" target="_top" xlink:title="excp">
<polygon fill="white" stroke="black" points="234,-268 180,-268 180,-232 234,-232 234,-268"/>
<text text-anchor="middle" x="207" y="-247.5" font-family="Helvetica,sans-Serif" font-size="10.00">excp</text>
</a>
</g>
</g>
<!-- dir_d44c64559bbebec7f509842c48db8b23&#45;&gt;dir_74ef33ac6bd04e46304142a70c34a953 -->
<g id="edge7" class="edge">
<title>dir_d44c64559bbebec7f509842c48db8b23&#45;&gt;dir_74ef33ac6bd04e46304142a70c34a953</title>
<path fill="none" stroke="black" d="M207,-303.7C207,-295.98 207,-286.71 207,-278.11"/>
<polygon fill="black" stroke="black" points="210.5,-278.1 207,-268.1 203.5,-278.1 210.5,-278.1"/>
<g id="a_edge7&#45;headlabel"><a xlink:href="dir_000002_000019.html" target="_top" xlink:title="1">
<text text-anchor="middle" x="213.34" y="-279.2" font-family="Helvetica,sans-Serif" font-size="10.00">1</text>
</a>
</g>
</g>
<!-- dir_b3ba3c378860ab9da17b9ff52769e863 -->
<g id="node11" class="node">
<title>dir_b3ba3c378860ab9da17b9ff52769e863</title>
<g id="a_node11"><a xlink:href="dir_b3ba3c378860ab9da17b9ff52769e863.html" target="_top" xlink:title="slock">
<polygon fill="white" stroke="black" points="306,-268 252,-268 252,-232 306,-232 306,-268"/>
<text text-anchor="middle" x="279" y="-247.5" font-family="Helvetica,sans-Serif" font-size="10.00">slock</text>
</a>
</g>
</g>
<!-- dir_d44c64559bbebec7f509842c48db8b23&#45;&gt;dir_b3ba3c378860ab9da17b9ff52769e863 -->
<g id="edge9" class="edge">
<title>dir_d44c64559bbebec7f509842c48db8b23&#45;&gt;dir_b3ba3c378860ab9da17b9ff52769e863</title>
<path fill="none" stroke="black" d="M224.8,-303.7C233.6,-295.14 244.38,-284.66 254,-275.3"/>
<polygon fill="black" stroke="black" points="256.68,-277.58 261.41,-268.1 251.8,-272.57 256.68,-277.58"/>
<g id="a_edge9&#45;headlabel"><a xlink:href="dir_000002_000017.html" target="_top" xlink:title="3">
<text text-anchor="middle" x="256.08" y="-279.63" font-family="Helvetica,sans-Serif" font-size="10.00">3</text>
</a>
</g>
</g>
<!-- dir_821002d4f10779a80d4fb17bc32f21f1 -->
<g id="node12" class="node">
<title>dir_821002d4f10779a80d4fb17bc32f21f1</title>
<g id="a_node12"><a xlink:href="dir_821002d4f10779a80d4fb17bc32f21f1.html" target="_top" xlink:title="utils">
<polygon fill="white" stroke="black" points="129,-52 75,-52 75,-16 129,-16 129,-52"/>
<text text-anchor="middle" x="102" y="-31.5" font-family="Helvetica,sans-Serif" font-size="10.00">utils</text>
</a>
</g>
</g>
<!-- dir_e2b7f4d1631891d42f7888059c5fbeed&#45;&gt;dir_821002d4f10779a80d4fb17bc32f21f1 -->
<g id="edge3" class="edge">
<title>dir_e2b7f4d1631891d42f7888059c5fbeed&#45;&gt;dir_821002d4f10779a80d4fb17bc32f21f1</title>
<path fill="none" stroke="black" d="M90.57,-159.87C92.78,-135.67 96.85,-91.21 99.49,-62.39"/>
<polygon fill="black" stroke="black" points="103,-62.47 100.43,-52.19 96.03,-61.83 103,-62.47"/>
<g id="a_edge3&#45;headlabel"><a xlink:href="dir_000004_000003.html" target="_top" xlink:title="2">
<text text-anchor="middle" x="105.5" y="-63.81" font-family="Helvetica,sans-Serif" font-size="10.00">2</text>
</a>
</g>
</g>
<!-- dir_756bc68c7d575665d5f9db3fe7bdab21 -->
<g id="node9" class="node">
<title>dir_756bc68c7d575665d5f9db3fe7bdab21</title>
<g id="a_node9"><a xlink:href="dir_756bc68c7d575665d5f9db3fe7bdab21.html" target="_top" xlink:title="pointer">
<polygon fill="white" stroke="black" points="191,-196 137,-196 137,-160 191,-160 191,-196"/>
<text text-anchor="middle" x="164" y="-175.5" font-family="Helvetica,sans-Serif" font-size="10.00">pointer</text>
</a>
</g>
</g>
<!-- dir_91b3ef3bc25284e938abb0e6a7af9442&#45;&gt;dir_756bc68c7d575665d5f9db3fe7bdab21 -->
<g id="edge2" class="edge">
<title>dir_91b3ef3bc25284e938abb0e6a7af9442&#45;&gt;dir_756bc68c7d575665d5f9db3fe7bdab21</title>
<path fill="none" stroke="black" d="M142.17,-231.7C145.43,-223.81 149.37,-214.3 153,-205.55"/>
<polygon fill="black" stroke="black" points="156.32,-206.68 156.91,-196.1 149.85,-204 156.32,-206.68"/>
<g id="a_edge2&#45;headlabel"><a xlink:href="dir_000007_000006.html" target="_top" xlink:title="1">
<text text-anchor="middle" x="157.57" y="-208.59" font-family="Helvetica,sans-Serif" font-size="10.00">1</text>
</a>
</g>
</g>
<!-- dir_e0f5f6345e438c73b9ae78ec2940718c&#45;&gt;dir_756bc68c7d575665d5f9db3fe7bdab21 -->
<g id="edge4" class="edge">
<title>dir_e0f5f6345e438c73b9ae78ec2940718c&#45;&gt;dir_756bc68c7d575665d5f9db3fe7bdab21</title>
<path fill="none" stroke="black" d="M169.9,-124.1C170.7,-131.79 170.94,-141.05 170.6,-149.67"/>
<polygon fill="black" stroke="black" points="167.11,-149.48 169.92,-159.7 174.09,-149.96 167.11,-149.48"/>
<g id="a_edge4&#45;headlabel"><a xlink:href="dir_000005_000006.html" target="_top" xlink:title="1">
<text text-anchor="middle" x="164.52" y="-143.2" font-family="Helvetica,sans-Serif" font-size="10.00">1</text>
</a>
</g>
</g>
<!-- dir_cac49a9e31bf4f7cd5ab50e2700548d0 -->
<g id="node10" class="node">
<title>dir_cac49a9e31bf4f7cd5ab50e2700548d0</title>
<g id="a_node10"><a xlink:href="dir_cac49a9e31bf4f7cd5ab50e2700548d0.html" target="_top" xlink:title="queue">
<polygon fill="white" stroke="black" points="201,-52 147,-52 147,-16 201,-16 201,-52"/>
<text text-anchor="middle" x="174" y="-31.5" font-family="Helvetica,sans-Serif" font-size="10.00">queue</text>
</a>
</g>
</g>
<!-- dir_e0f5f6345e438c73b9ae78ec2940718c&#45;&gt;dir_cac49a9e31bf4f7cd5ab50e2700548d0 -->
<g id="edge6" class="edge">
<title>dir_e0f5f6345e438c73b9ae78ec2940718c&#45;&gt;dir_cac49a9e31bf4f7cd5ab50e2700548d0</title>
<path fill="none" stroke="black" d="M166.47,-87.7C167.57,-79.98 168.9,-70.71 170.13,-62.11"/>
<polygon fill="black" stroke="black" points="173.61,-62.5 171.56,-52.1 166.68,-61.51 173.61,-62.5"/>
<g id="a_edge6&#45;headlabel"><a xlink:href="dir_000005_000014.html" target="_top" xlink:title="3">
<text text-anchor="middle" x="175.91" y="-63.96" font-family="Helvetica,sans-Serif" font-size="10.00">3</text>
</a>
</g>
</g>
<!-- dir_e0f5f6345e438c73b9ae78ec2940718c&#45;&gt;dir_821002d4f10779a80d4fb17bc32f21f1 -->
<g id="edge5" class="edge">
<title>dir_e0f5f6345e438c73b9ae78ec2940718c&#45;&gt;dir_821002d4f10779a80d4fb17bc32f21f1</title>
<path fill="none" stroke="black" d="M148.67,-87.7C141.24,-79.3 132.18,-69.07 124.02,-59.86"/>
<polygon fill="black" stroke="black" points="126.4,-57.27 117.15,-52.1 121.16,-61.91 126.4,-57.27"/>
<g id="a_edge5&#45;headlabel"><a xlink:href="dir_000005_000003.html" target="_top" xlink:title="5">
<text text-anchor="middle" x="130.91" y="-55.58" font-family="Helvetica,sans-Serif" font-size="10.00">5</text>
</a>
</g>
</g>
<!-- dir_00639e50a5e06ba932c41b2ae621276d -->
<g id="node5" class="node">
<title>dir_00639e50a5e06ba932c41b2ae621276d</title>
<g id="a_node5"><a xlink:href="dir_00639e50a5e06ba932c41b2ae621276d.html" target="_top" xlink:title="device">
<polygon fill="white" stroke="black" points="142,-340 88,-340 88,-304 142,-304 142,-340"/>
<text text-anchor="middle" x="115" y="-319.5" font-family="Helvetica,sans-Serif" font-size="10.00">device</text>
</a>
</g>
</g>
<!-- dir_2fa1ed3146d6c2b96c5cfe4341985326 -->
<g id="node8" class="node">
<title>dir_2fa1ed3146d6c2b96c5cfe4341985326</title>
<g id="a_node8"><a xlink:href="dir_2fa1ed3146d6c2b96c5cfe4341985326.html" target="_top" xlink:title="net">
<polygon fill="white" stroke="black" points="70,-268 16,-268 16,-232 70,-232 70,-268"/>
<text text-anchor="middle" x="43" y="-247.5" font-family="Helvetica,sans-Serif" font-size="10.00">net</text>
</a>
</g>
</g>
<!-- dir_00639e50a5e06ba932c41b2ae621276d&#45;&gt;dir_2fa1ed3146d6c2b96c5cfe4341985326 -->
<g id="edge1" class="edge">
<title>dir_00639e50a5e06ba932c41b2ae621276d&#45;&gt;dir_2fa1ed3146d6c2b96c5cfe4341985326</title>
<path fill="none" stroke="black" d="M97.2,-303.7C88.4,-295.14 77.62,-284.66 68,-275.3"/>
<polygon fill="black" stroke="black" points="70.2,-272.57 60.59,-268.1 65.32,-277.58 70.2,-272.57"/>
<g id="a_edge1&#45;headlabel"><a xlink:href="dir_000008_000010.html" target="_top" xlink:title="5">
<text text-anchor="middle" x="74.76" y="-270.54" font-family="Helvetica,sans-Serif" font-size="10.00">5</text>
</a>
</g>
</g>
<!-- dir_fba38f648377aa56ae5d69782adf9e53 -->
<g id="node7" class="node">
<title>dir_fba38f648377aa56ae5d69782adf9e53</title>
<g id="a_node7"><a xlink:href="dir_fba38f648377aa56ae5d69782adf9e53.html" target="_top" xlink:title="math">
<polygon fill="white" stroke="black" points="70,-340 16,-340 16,-304 70,-304 70,-340"/>
<text text-anchor="middle" x="43" y="-319.5" font-family="Helvetica,sans-Serif" font-size="10.00">math</text>
</a>
</g>
</g>
<!-- dir_756bc68c7d575665d5f9db3fe7bdab21&#45;&gt;dir_e0f5f6345e438c73b9ae78ec2940718c -->
<g id="edge13" class="edge">
<title>dir_756bc68c7d575665d5f9db3fe7bdab21&#45;&gt;dir_e0f5f6345e438c73b9ae78ec2940718c</title>
<path fill="none" stroke="black" d="M158.08,-159.7C157.29,-151.98 157.06,-142.71 157.4,-134.11"/>
<polygon fill="black" stroke="black" points="160.9,-134.32 158.1,-124.1 153.92,-133.84 160.9,-134.32"/>
<g id="a_edge13&#45;headlabel"><a xlink:href="dir_000006_000005.html" target="_top" xlink:title="1">
<text text-anchor="middle" x="163.48" y="-135.61" font-family="Helvetica,sans-Serif" font-size="10.00">1</text>
</a>
</g>
</g>
<!-- dir_756bc68c7d575665d5f9db3fe7bdab21&#45;&gt;dir_821002d4f10779a80d4fb17bc32f21f1 -->
<g id="edge12" class="edge">
<title>dir_756bc68c7d575665d5f9db3fe7bdab21&#45;&gt;dir_821002d4f10779a80d4fb17bc32f21f1</title>
<path fill="none" stroke="black" d="M147.96,-159.55C139.72,-149.74 130.15,-136.91 124,-124 114.62,-104.3 108.98,-80.18 105.76,-62.02"/>
<polygon fill="black" stroke="black" points="109.2,-61.39 104.13,-52.09 102.29,-62.52 109.2,-61.39"/>
<g id="a_edge12&#45;headlabel"><a xlink:href="dir_000006_000003.html" target="_top" xlink:title="2">
<text text-anchor="middle" x="112.59" y="-61.98" font-family="Helvetica,sans-Serif" font-size="10.00">2</text>
</a>
</g>
</g>
</g>
</svg>
