<?xml version="1.0" encoding="UTF-8" standalone="no"?>
<!DOCTYPE svg PUBLIC "-//W3C//DTD SVG 1.1//EN"
 "http://www.w3.org/Graphics/SVG/1.1/DTD/svg11.dtd">
<!-- Generated by graphviz version 2.47.1 (0)
 -->
<!-- Title: src Pages: 1 -->
<svg width="604pt" height="132pt"
 viewBox="0.00 0.00 604.00 132.00" xmlns="http://www.w3.org/2000/svg" xmlns:xlink="http://www.w3.org/1999/xlink">
<g id="graph0" class="graph" transform="scale(1 1) rotate(0) translate(4 128)">
<title>src</title>
<polygon fill="white" stroke="transparent" points="-4,4 -4,-128 600,-128 600,4 -4,4"/>
<g id="clust1" class="cluster">
<title>clusterdir_68267d1309a1af8e8297ef4c3efbcdba</title>
<g id="a_clust1"><a xlink:href="dir_68267d1309a1af8e8297ef4c3efbcdba.html" target="_top">
<polygon fill="#eeeeff" stroke="black" points="8,-64 8,-116 588,-116 588,-64 8,-64"/>
</a>
</g>
</g>
<!-- dir_68267d1309a1af8e8297ef4c3efbcdba -->
<g id="node1" class="node">
<title>dir_68267d1309a1af8e8297ef4c3efbcdba</title>
<text text-anchor="middle" x="553" y="-87.5" font-family="Helvetica,sans-Serif" font-size="10.00">src</text>
</g>
<!-- dir_976430ae8fd41999a8980c044d3e2daa -->
<g id="node2" class="node">
<title>dir_976430ae8fd41999a8980c044d3e2daa</title>
<g id="a_node2"><a xlink:href="dir_976430ae8fd41999a8980c044d3e2daa.html" target="_top" xlink:title="allocator">
<polygon fill="white" stroke="black" points="507.5,-108 448.5,-108 448.5,-72 507.5,-72 507.5,-108"/>
<text text-anchor="middle" x="478" y="-87.5" font-family="Helvetica,sans-Serif" font-size="10.00">allocator</text>
</a>
</g>
</g>
<!-- dir_d44c64559bbebec7f509842c48db8b23 -->
<g id="node9" class="node">
<title>dir_d44c64559bbebec7f509842c48db8b23</title>
<g id="a_node9"><a xlink:href="dir_d44c64559bbebec7f509842c48db8b23.html" target="_top" xlink:title="include">
<polygon fill="white" stroke="red" points="286,-36 232,-36 232,0 286,0 286,-36"/>
<text text-anchor="middle" x="259" y="-15.5" font-family="Helvetica,sans-Serif" font-size="10.00">include</text>
</a>
</g>
</g>
<!-- dir_976430ae8fd41999a8980c044d3e2daa&#45;&gt;dir_d44c64559bbebec7f509842c48db8b23 -->
<g id="edge3" class="edge">
<title>dir_976430ae8fd41999a8980c044d3e2daa&#45;&gt;dir_d44c64559bbebec7f509842c48db8b23</title>
<path fill="none" stroke="black" d="M453.92,-71.86C449.13,-68.95 444.02,-66.17 439,-64 391.69,-43.58 333.23,-31.11 296.02,-24.63"/>
<polygon fill="black" stroke="black" points="296.56,-21.17 286.11,-22.95 295.39,-28.07 296.56,-21.17"/>
<g id="a_edge3&#45;headlabel"><a xlink:href="dir_000001_000002.html" target="_top" xlink:title="5">
<text text-anchor="middle" x="300.57" y="-16.47" font-family="Helvetica,sans-Serif" font-size="10.00">5</text>
</a>
</g>
</g>
<!-- dir_27369d925af25fde1a8c43aa3935a0a7 -->
<g id="node3" class="node">
<title>dir_27369d925af25fde1a8c43aa3935a0a7</title>
<g id="a_node3"><a xlink:href="dir_27369d925af25fde1a8c43aa3935a0a7.html" target="_top" xlink:title="excp">
<polygon fill="white" stroke="black" points="430,-108 376,-108 376,-72 430,-72 430,-108"/>
<text text-anchor="middle" x="403" y="-87.5" font-family="Helvetica,sans-Serif" font-size="10.00">excp</text>
</a>
</g>
</g>
<!-- dir_27369d925af25fde1a8c43aa3935a0a7&#45;&gt;dir_d44c64559bbebec7f509842c48db8b23 -->
<g id="edge1" class="edge">
<title>dir_27369d925af25fde1a8c43aa3935a0a7&#45;&gt;dir_d44c64559bbebec7f509842c48db8b23</title>
<path fill="none" stroke="black" d="M379.83,-71.85C375.66,-69.07 371.27,-66.34 367,-64 344.24,-51.54 317.29,-40.31 296.01,-32.18"/>
<polygon fill="black" stroke="black" points="296.96,-28.8 286.37,-28.56 294.5,-35.35 296.96,-28.8"/>
<g id="a_edge1&#45;headlabel"><a xlink:href="dir_000015_000002.html" target="_top" xlink:title="4">
<text text-anchor="middle" x="301.32" y="-24.9" font-family="Helvetica,sans-Serif" font-size="10.00">4</text>
</a>
</g>
</g>
<!-- dir_81ff9cf00c749aad2228acad00958fb4 -->
<g id="node4" class="node">
<title>dir_81ff9cf00c749aad2228acad00958fb4</title>
<g id="a_node4"><a xlink:href="dir_81ff9cf00c749aad2228acad00958fb4.html" target="_top" xlink:title="hash">
<polygon fill="white" stroke="black" points="358,-108 304,-108 304,-72 358,-72 358,-108"/>
<text text-anchor="middle" x="331" y="-87.5" font-family="Helvetica,sans-Serif" font-size="10.00">hash</text>
</a>
</g>
</g>
<!-- dir_81ff9cf00c749aad2228acad00958fb4&#45;&gt;dir_d44c64559bbebec7f509842c48db8b23 -->
<g id="edge5" class="edge">
<title>dir_81ff9cf00c749aad2228acad00958fb4&#45;&gt;dir_d44c64559bbebec7f509842c48db8b23</title>
<path fill="none" stroke="black" d="M313.2,-71.7C304.4,-63.14 293.62,-52.66 284,-43.3"/>
<polygon fill="black" stroke="black" points="286.2,-40.57 276.59,-36.1 281.32,-45.58 286.2,-40.57"/>
<g id="a_edge5&#45;headlabel"><a xlink:href="dir_000018_000002.html" target="_top" xlink:title="2">
<text text-anchor="middle" x="290.76" y="-38.54" font-family="Helvetica,sans-Serif" font-size="10.00">2</text>
</a>
</g>
</g>
<!-- dir_c72b25b75abe208498b36a3e44a3726c -->
<g id="node5" class="node">
<title>dir_c72b25b75abe208498b36a3e44a3726c</title>
<g id="a_node5"><a xlink:href="dir_c72b25b75abe208498b36a3e44a3726c.html" target="_top" xlink:title="net">
<polygon fill="white" stroke="black" points="286,-108 232,-108 232,-72 286,-72 286,-108"/>
<text text-anchor="middle" x="259" y="-87.5" font-family="Helvetica,sans-Serif" font-size="10.00">net</text>
</a>
</g>
</g>
<!-- dir_c72b25b75abe208498b36a3e44a3726c&#45;&gt;dir_d44c64559bbebec7f509842c48db8b23 -->
<g id="edge4" class="edge">
<title>dir_c72b25b75abe208498b36a3e44a3726c&#45;&gt;dir_d44c64559bbebec7f509842c48db8b23</title>
<path fill="none" stroke="black" d="M259,-71.7C259,-63.98 259,-54.71 259,-46.11"/>
<polygon fill="black" stroke="black" points="262.5,-46.1 259,-36.1 255.5,-46.1 262.5,-46.1"/>
<g id="a_edge4&#45;headlabel"><a xlink:href="dir_000007_000002.html" target="_top" xlink:title="40">
<text text-anchor="middle" x="265.34" y="-47.2" font-family="Helvetica,sans-Serif" font-size="10.00">40</text>
</a>
</g>
</g>
<!-- dir_b932d720ae4455b3a35ba932c1ee98d1 -->
<g id="node6" class="node">
<title>dir_b932d720ae4455b3a35ba932c1ee98d1</title>
<g id="a_node6"><a xlink:href="dir_b932d720ae4455b3a35ba932c1ee98d1.html" target="_top" xlink:title="queue">
<polygon fill="white" stroke="black" points="214,-108 160,-108 160,-72 214,-72 214,-108"/>
<text text-anchor="middle" x="187" y="-87.5" font-family="Helvetica,sans-Serif" font-size="10.00">queue</text>
</a>
</g>
</g>
<!-- dir_b932d720ae4455b3a35ba932c1ee98d1&#45;&gt;dir_d44c64559bbebec7f509842c48db8b23 -->
<g id="edge6" class="edge">
<title>dir_b932d720ae4455b3a35ba932c1ee98d1&#45;&gt;dir_d44c64559bbebec7f509842c48db8b23</title>
<path fill="none" stroke="black" d="M204.8,-71.7C213.6,-63.14 224.38,-52.66 234,-43.3"/>
<polygon fill="black" stroke="black" points="236.68,-45.58 241.41,-36.1 231.8,-40.57 236.68,-45.58"/>
<g id="a_edge6&#45;headlabel"><a xlink:href="dir_000009_000002.html" target="_top" xlink:title="22">
<text text-anchor="middle" x="236.08" y="-47.63" font-family="Helvetica,sans-Serif" font-size="10.00">22</text>
</a>
</g>
</g>
<!-- dir_0facf70c611ccf2a86938a1c0bbe5156 -->
<g id="node7" class="node">
<title>dir_0facf70c611ccf2a86938a1c0bbe5156</title>
<g id="a_node7"><a xlink:href="dir_0facf70c611ccf2a86938a1c0bbe5156.html" target="_top" xlink:title="slock">
<polygon fill="white" stroke="black" points="142,-108 88,-108 88,-72 142,-72 142,-108"/>
<text text-anchor="middle" x="115" y="-87.5" font-family="Helvetica,sans-Serif" font-size="10.00">slock</text>
</a>
</g>
</g>
<!-- dir_0facf70c611ccf2a86938a1c0bbe5156&#45;&gt;dir_d44c64559bbebec7f509842c48db8b23 -->
<g id="edge2" class="edge">
<title>dir_0facf70c611ccf2a86938a1c0bbe5156&#45;&gt;dir_d44c64559bbebec7f509842c48db8b23</title>
<path fill="none" stroke="black" d="M138.17,-71.85C142.34,-69.07 146.73,-66.34 151,-64 173.76,-51.54 200.71,-40.31 221.99,-32.18"/>
<polygon fill="black" stroke="black" points="223.5,-35.35 231.63,-28.56 221.04,-28.8 223.5,-35.35"/>
<g id="a_edge2&#45;headlabel"><a xlink:href="dir_000013_000002.html" target="_top" xlink:title="9">
<text text-anchor="middle" x="221.13" y="-36.77" font-family="Helvetica,sans-Serif" font-size="10.00">9</text>
</a>
</g>
</g>
<!-- dir_313caf1132e152dd9b58bea13a4052ca -->
<g id="node8" class="node">
<title>dir_313caf1132e152dd9b58bea13a4052ca</title>
<g id="a_node8"><a xlink:href="dir_313caf1132e152dd9b58bea13a4052ca.html" target="_top" xlink:title="utils">
<polygon fill="white" stroke="black" points="70,-108 16,-108 16,-72 70,-72 70,-108"/>
<text text-anchor="middle" x="43" y="-87.5" font-family="Helvetica,sans-Serif" font-size="10.00">utils</text>
</a>
</g>
</g>
<!-- dir_313caf1132e152dd9b58bea13a4052ca&#45;&gt;dir_d44c64559bbebec7f509842c48db8b23 -->
<g id="edge7" class="edge">
<title>dir_313caf1132e152dd9b58bea13a4052ca&#45;&gt;dir_d44c64559bbebec7f509842c48db8b23</title>
<path fill="none" stroke="black" d="M65.11,-71.81C69.54,-68.9 74.29,-66.14 79,-64 125.92,-42.71 184.48,-30.46 221.82,-24.26"/>
<polygon fill="black" stroke="black" points="222.44,-27.7 231.76,-22.67 221.33,-20.79 222.44,-27.7"/>
<g id="a_edge7&#45;headlabel"><a xlink:href="dir_000017_000002.html" target="_top" xlink:title="4">
<text text-anchor="middle" x="219.34" y="-28.58" font-family="Helvetica,sans-Serif" font-size="10.00">4</text>
</a>
</g>
</g>
</g>
</svg>
