<?xml version="1.0" encoding="UTF-8" standalone="no"?>
<!DOCTYPE svg PUBLIC "-//W3C//DTD SVG 1.1//EN"
 "http://www.w3.org/Graphics/SVG/1.1/DTD/svg11.dtd">
<!-- Generated by graphviz version 2.47.1 (0)
 -->
<!-- Title: include Pages: 1 -->
<svg width="310pt" height="364pt"
 viewBox="0.00 0.00 310.00 364.00" xmlns="http://www.w3.org/2000/svg" xmlns:xlink="http://www.w3.org/1999/xlink">
<g id="graph0" class="graph" transform="scale(1 1) rotate(0) translate(4 360)">
<title>include</title>
<polygon fill="white" stroke="transparent" points="-4,4 -4,-360 306,-360 306,4 -4,4"/>
<g id="clust1" class="cluster">
<title>clusterdir_d44c64559bbebec7f509842c48db8b23</title>
<g id="a_clust1"><a xlink:href="dir_d44c64559bbebec7f509842c48db8b23.html" target="_top">
<polygon fill="#eeeeff" stroke="black" points="8,-8 8,-348 294,-348 294,-8 8,-8"/>
</a>
</g>
</g>
<!-- dir_d44c64559bbebec7f509842c48db8b23 -->
<g id="node1" class="node">
<title>dir_d44c64559bbebec7f509842c48db8b23</title>
<text text-anchor="middle" x="259" y="-319.5" font-family="Helvetica,sans-Serif" font-size="10.00">include</text>
</g>
<!-- dir_e2b7f4d1631891d42f7888059c5fbeed -->
<g id="node2" class="node">
<title>dir_e2b7f4d1631891d42f7888059c5fbeed</title>
<g id="a_node2"><a xlink:href="dir_e2b7f4d1631891d42f7888059c5fbeed.html" target="_top" xlink:title="allocator">
<polygon fill="white" stroke="black" points="75.5,-196 16.5,-196 16.5,-160 75.5,-160 75.5,-196"/>
<text text-anchor="middle" x="46" y="-175.5" font-family="Helvetica,sans-Serif" font-size="10.00">allocator</text>
</a>
</g>
</g>
<!-- dir_d44c64559bbebec7f509842c48db8b23&#45;&gt;dir_e2b7f4d1631891d42f7888059c5fbeed -->
<g id="edge9" class="edge">
<title>dir_d44c64559bbebec7f509842c48db8b23&#45;&gt;dir_e2b7f4d1631891d42f7888059c5fbeed</title>
<path fill="none" stroke="black" d="M231.75,-307.35C228.83,-306.13 225.88,-304.98 223,-304 152.37,-279.92 109.86,-322.61 59,-268 43.82,-251.71 41.52,-225.95 42.46,-206.33"/>
<polygon fill="black" stroke="black" points="45.96,-206.4 43.25,-196.16 38.98,-205.86 45.96,-206.4"/>
<g id="a_edge9&#45;headlabel"><a xlink:href="dir_000002_000004.html" target="_top" xlink:title="2">
<text text-anchor="middle" x="48.52" y="-207.71" font-family="Helvetica,sans-Serif" font-size="10.00">2</text>
</a>
</g>
</g>
<!-- dir_91b3ef3bc25284e938abb0e6a7af9442 -->
<g id="node3" class="node">
<title>dir_91b3ef3bc25284e938abb0e6a7af9442</title>
<g id="a_node3"><a xlink:href="dir_91b3ef3bc25284e938abb0e6a7af9442.html" target="_top" xlink:title="atomic">
<polygon fill="white" stroke="black" points="122,-268 68,-268 68,-232 122,-232 122,-268"/>
<text text-anchor="middle" x="95" y="-247.5" font-family="Helvetica,sans-Serif" font-size="10.00">atomic</text>
</a>
</g>
</g>
<!-- dir_d44c64559bbebec7f509842c48db8b23&#45;&gt;dir_91b3ef3bc25284e938abb0e6a7af9442 -->
<g id="edge6" class="edge">
<title>dir_d44c64559bbebec7f509842c48db8b23&#45;&gt;dir_91b3ef3bc25284e938abb0e6a7af9442</title>
<path fill="none" stroke="black" d="M231.94,-308.05C228.93,-306.66 225.91,-305.29 223,-304 184.74,-287.06 174.66,-284.01 136,-268 134.62,-267.43 133.22,-266.85 131.8,-266.26"/>
<polygon fill="black" stroke="black" points="132.92,-262.94 122.35,-262.34 130.24,-269.4 132.92,-262.94"/>
<g id="a_edge6&#45;headlabel"><a xlink:href="dir_000002_000006.html" target="_top" xlink:title="2">
<text text-anchor="middle" x="137.33" y="-259.19" font-family="Helvetica,sans-Serif" font-size="10.00">2</text>
</a>
</g>
</g>
<!-- dir_e0f5f6345e438c73b9ae78ec2940718c -->
<g id="node4" class="node">
<title>dir_e0f5f6345e438c73b9ae78ec2940718c</title>
<g id="a_node4"><a xlink:href="dir_e0f5f6345e438c73b9ae78ec2940718c.html" target="_top" xlink:title="container">
<polygon fill="white" stroke="black" points="152,-124 90,-124 90,-88 152,-88 152,-124"/>
<text text-anchor="middle" x="121" y="-103.5" font-family="Helvetica,sans-Serif" font-size="10.00">container</text>
</a>
</g>
</g>
<!-- dir_d44c64559bbebec7f509842c48db8b23&#45;&gt;dir_e0f5f6345e438c73b9ae78ec2940718c -->
<g id="edge8" class="edge">
<title>dir_d44c64559bbebec7f509842c48db8b23&#45;&gt;dir_e0f5f6345e438c73b9ae78ec2940718c</title>
<path fill="none" stroke="black" d="M231.85,-308.11C200.25,-293.04 152.18,-269.9 151,-268 125.57,-227.2 171.13,-205.95 157,-160 153.99,-150.22 148.49,-140.62 142.68,-132.33"/>
<polygon fill="black" stroke="black" points="145.41,-130.13 136.61,-124.23 139.81,-134.33 145.41,-130.13"/>
<g id="a_edge8&#45;headlabel"><a xlink:href="dir_000002_000011.html" target="_top" xlink:title="10">
<text text-anchor="middle" x="149.83" y="-128.8" font-family="Helvetica,sans-Serif" font-size="10.00">10</text>
</a>
</g>
</g>
<!-- dir_74ef33ac6bd04e46304142a70c34a953 -->
<g id="node5" class="node">
<title>dir_74ef33ac6bd04e46304142a70c34a953</title>
<g id="a_node5"><a xlink:href="dir_74ef33ac6bd04e46304142a70c34a953.html" target="_top" xlink:title="excp">
<polygon fill="white" stroke="black" points="214,-268 160,-268 160,-232 214,-232 214,-268"/>
<text text-anchor="middle" x="187" y="-247.5" font-family="Helvetica,sans-Serif" font-size="10.00">excp</text>
</a>
</g>
</g>
<!-- dir_d44c64559bbebec7f509842c48db8b23&#45;&gt;dir_74ef33ac6bd04e46304142a70c34a953 -->
<g id="edge5" class="edge">
<title>dir_d44c64559bbebec7f509842c48db8b23&#45;&gt;dir_74ef33ac6bd04e46304142a70c34a953</title>
<path fill="none" stroke="black" d="M241.2,-303.7C232.4,-295.14 221.62,-284.66 212,-275.3"/>
<polygon fill="black" stroke="black" points="214.2,-272.57 204.59,-268.1 209.32,-277.58 214.2,-272.57"/>
<g id="a_edge5&#45;headlabel"><a xlink:href="dir_000002_000016.html" target="_top" xlink:title="1">
<text text-anchor="middle" x="218.76" y="-270.54" font-family="Helvetica,sans-Serif" font-size="10.00">1</text>
</a>
</g>
</g>
<!-- dir_b3ba3c378860ab9da17b9ff52769e863 -->
<g id="node11" class="node">
<title>dir_b3ba3c378860ab9da17b9ff52769e863</title>
<g id="a_node11"><a xlink:href="dir_b3ba3c378860ab9da17b9ff52769e863.html" target="_top" xlink:title="slock">
<polygon fill="white" stroke="black" points="286,-268 232,-268 232,-232 286,-232 286,-268"/>
<text text-anchor="middle" x="259" y="-247.5" font-family="Helvetica,sans-Serif" font-size="10.00">slock</text>
</a>
</g>
</g>
<!-- dir_d44c64559bbebec7f509842c48db8b23&#45;&gt;dir_b3ba3c378860ab9da17b9ff52769e863 -->
<g id="edge7" class="edge">
<title>dir_d44c64559bbebec7f509842c48db8b23&#45;&gt;dir_b3ba3c378860ab9da17b9ff52769e863</title>
<path fill="none" stroke="black" d="M259,-303.7C259,-295.98 259,-286.71 259,-278.11"/>
<polygon fill="black" stroke="black" points="262.5,-278.1 259,-268.1 255.5,-278.1 262.5,-278.1"/>
<g id="a_edge7&#45;headlabel"><a xlink:href="dir_000002_000014.html" target="_top" xlink:title="3">
<text text-anchor="middle" x="265.34" y="-279.2" font-family="Helvetica,sans-Serif" font-size="10.00">3</text>
</a>
</g>
</g>
<!-- dir_821002d4f10779a80d4fb17bc32f21f1 -->
<g id="node12" class="node">
<title>dir_821002d4f10779a80d4fb17bc32f21f1</title>
<g id="a_node12"><a xlink:href="dir_821002d4f10779a80d4fb17bc32f21f1.html" target="_top" xlink:title="utils">
<polygon fill="white" stroke="black" points="75,-52 21,-52 21,-16 75,-16 75,-52"/>
<text text-anchor="middle" x="48" y="-31.5" font-family="Helvetica,sans-Serif" font-size="10.00">utils</text>
</a>
</g>
</g>
<!-- dir_e2b7f4d1631891d42f7888059c5fbeed&#45;&gt;dir_821002d4f10779a80d4fb17bc32f21f1 -->
<g id="edge2" class="edge">
<title>dir_e2b7f4d1631891d42f7888059c5fbeed&#45;&gt;dir_821002d4f10779a80d4fb17bc32f21f1</title>
<path fill="none" stroke="black" d="M46.24,-159.87C46.58,-135.67 47.21,-91.21 47.61,-62.39"/>
<polygon fill="black" stroke="black" points="51.12,-62.24 47.76,-52.19 44.12,-62.14 51.12,-62.24"/>
<g id="a_edge2&#45;headlabel"><a xlink:href="dir_000004_000003.html" target="_top" xlink:title="2">
<text text-anchor="middle" x="53.91" y="-63.37" font-family="Helvetica,sans-Serif" font-size="10.00">2</text>
</a>
</g>
</g>
<!-- dir_756bc68c7d575665d5f9db3fe7bdab21 -->
<g id="node9" class="node">
<title>dir_756bc68c7d575665d5f9db3fe7bdab21</title>
<g id="a_node9"><a xlink:href="dir_756bc68c7d575665d5f9db3fe7bdab21.html" target="_top" xlink:title="pointer">
<polygon fill="white" stroke="black" points="148,-196 94,-196 94,-160 148,-160 148,-196"/>
<text text-anchor="middle" x="121" y="-175.5" font-family="Helvetica,sans-Serif" font-size="10.00">pointer</text>
</a>
</g>
</g>
<!-- dir_91b3ef3bc25284e938abb0e6a7af9442&#45;&gt;dir_756bc68c7d575665d5f9db3fe7bdab21 -->
<g id="edge1" class="edge">
<title>dir_91b3ef3bc25284e938abb0e6a7af9442&#45;&gt;dir_756bc68c7d575665d5f9db3fe7bdab21</title>
<path fill="none" stroke="black" d="M101.43,-231.7C104.36,-223.81 107.89,-214.3 111.14,-205.55"/>
<polygon fill="black" stroke="black" points="114.45,-206.7 114.65,-196.1 107.88,-204.26 114.45,-206.7"/>
<g id="a_edge1&#45;headlabel"><a xlink:href="dir_000006_000005.html" target="_top" xlink:title="1">
<text text-anchor="middle" x="115.86" y="-208.56" font-family="Helvetica,sans-Serif" font-size="10.00">1</text>
</a>
</g>
</g>
<!-- dir_cac49a9e31bf4f7cd5ab50e2700548d0 -->
<g id="node10" class="node">
<title>dir_cac49a9e31bf4f7cd5ab50e2700548d0</title>
<g id="a_node10"><a xlink:href="dir_cac49a9e31bf4f7cd5ab50e2700548d0.html" target="_top" xlink:title="queue">
<polygon fill="white" stroke="black" points="148,-52 94,-52 94,-16 148,-16 148,-52"/>
<text text-anchor="middle" x="121" y="-31.5" font-family="Helvetica,sans-Serif" font-size="10.00">queue</text>
</a>
</g>
</g>
<!-- dir_e0f5f6345e438c73b9ae78ec2940718c&#45;&gt;dir_cac49a9e31bf4f7cd5ab50e2700548d0 -->
<g id="edge4" class="edge">
<title>dir_e0f5f6345e438c73b9ae78ec2940718c&#45;&gt;dir_cac49a9e31bf4f7cd5ab50e2700548d0</title>
<path fill="none" stroke="black" d="M121,-87.7C121,-79.98 121,-70.71 121,-62.11"/>
<polygon fill="black" stroke="black" points="124.5,-62.1 121,-52.1 117.5,-62.1 124.5,-62.1"/>
<g id="a_edge4&#45;headlabel"><a xlink:href="dir_000011_000010.html" target="_top" xlink:title="3">
<text text-anchor="middle" x="127.34" y="-63.2" font-family="Helvetica,sans-Serif" font-size="10.00">3</text>
</a>
</g>
</g>
<!-- dir_e0f5f6345e438c73b9ae78ec2940718c&#45;&gt;dir_821002d4f10779a80d4fb17bc32f21f1 -->
<g id="edge3" class="edge">
<title>dir_e0f5f6345e438c73b9ae78ec2940718c&#45;&gt;dir_821002d4f10779a80d4fb17bc32f21f1</title>
<path fill="none" stroke="black" d="M102.96,-87.7C93.94,-79.05 82.88,-68.45 73.06,-59.03"/>
<polygon fill="black" stroke="black" points="75.48,-56.5 65.84,-52.1 70.63,-61.55 75.48,-56.5"/>
<g id="a_edge3&#45;headlabel"><a xlink:href="dir_000011_000003.html" target="_top" xlink:title="1">
<text text-anchor="middle" x="80.04" y="-54.44" font-family="Helvetica,sans-Serif" font-size="10.00">1</text>
</a>
</g>
</g>
<!-- dir_b70bfd746afac09928c9c01feb72ccc3 -->
<g id="node6" class="node">
<title>dir_b70bfd746afac09928c9c01feb72ccc3</title>
<g id="a_node6"><a xlink:href="dir_b70bfd746afac09928c9c01feb72ccc3.html" target="_top" xlink:title="hash">
<polygon fill="white" stroke="black" points="214,-340 160,-340 160,-304 214,-304 214,-340"/>
<text text-anchor="middle" x="187" y="-319.5" font-family="Helvetica,sans-Serif" font-size="10.00">hash</text>
</a>
</g>
</g>
<!-- dir_fba38f648377aa56ae5d69782adf9e53 -->
<g id="node7" class="node">
<title>dir_fba38f648377aa56ae5d69782adf9e53</title>
<g id="a_node7"><a xlink:href="dir_fba38f648377aa56ae5d69782adf9e53.html" target="_top" xlink:title="math">
<polygon fill="white" stroke="black" points="142,-340 88,-340 88,-304 142,-304 142,-340"/>
<text text-anchor="middle" x="115" y="-319.5" font-family="Helvetica,sans-Serif" font-size="10.00">math</text>
</a>
</g>
</g>
<!-- dir_2fa1ed3146d6c2b96c5cfe4341985326 -->
<g id="node8" class="node">
<title>dir_2fa1ed3146d6c2b96c5cfe4341985326</title>
<g id="a_node8"><a xlink:href="dir_2fa1ed3146d6c2b96c5cfe4341985326.html" target="_top" xlink:title="net">
<polygon fill="white" stroke="black" points="70,-340 16,-340 16,-304 70,-304 70,-340"/>
<text text-anchor="middle" x="43" y="-319.5" font-family="Helvetica,sans-Serif" font-size="10.00">net</text>
</a>
</g>
</g>
<!-- dir_756bc68c7d575665d5f9db3fe7bdab21&#45;&gt;dir_e0f5f6345e438c73b9ae78ec2940718c -->
<g id="edge10" class="edge">
<title>dir_756bc68c7d575665d5f9db3fe7bdab21&#45;&gt;dir_e0f5f6345e438c73b9ae78ec2940718c</title>
<path fill="none" stroke="black" d="M121,-159.7C121,-151.98 121,-142.71 121,-134.11"/>
<polygon fill="black" stroke="black" points="124.5,-134.1 121,-124.1 117.5,-134.1 124.5,-134.1"/>
<g id="a_edge10&#45;headlabel"><a xlink:href="dir_000005_000011.html" target="_top" xlink:title="1">
<text text-anchor="middle" x="127.34" y="-135.2" font-family="Helvetica,sans-Serif" font-size="10.00">1</text>
</a>
</g>
</g>
</g>
</svg>
