<?xml version="1.0" encoding="UTF-8" standalone="no"?>
<!DOCTYPE svg PUBLIC "-//W3C//DTD SVG 1.1//EN"
 "http://www.w3.org/Graphics/SVG/1.1/DTD/svg11.dtd">
<!-- Generated by graphviz version 2.46.0 (0)
 -->
<!-- Title: include Pages: 1 -->
<svg width="458pt" height="148pt"
 viewBox="0.00 0.00 458.00 148.00" xmlns="http://www.w3.org/2000/svg" xmlns:xlink="http://www.w3.org/1999/xlink">
<g id="graph0" class="graph" transform="scale(1 1) rotate(0) translate(4 144)">
<title>include</title>
<polygon fill="white" stroke="transparent" points="-4,4 -4,-144 454,-144 454,4 -4,4"/>
<g id="clust1" class="cluster">
<title>clusterdir_d44c64559bbebec7f509842c48db8b23</title>
<g id="a_clust1"><a xlink:href="dir_d44c64559bbebec7f509842c48db8b23.html" target="_top">
<polygon fill="#eeeeff" stroke="black" points="8,-8 8,-132 442,-132 442,-8 8,-8"/>
</a>
</g>
</g>
<!-- dir_d44c64559bbebec7f509842c48db8b23 -->
<g id="node1" class="node">
<title>dir_d44c64559bbebec7f509842c48db8b23</title>
<text text-anchor="middle" x="227" y="-103.5" font-family="Helvetica,sans-Serif" font-size="10.00">include</text>
</g>
<!-- dir_74ef33ac6bd04e46304142a70c34a953 -->
<g id="node2" class="node">
<title>dir_74ef33ac6bd04e46304142a70c34a953</title>
<g id="a_node2"><a xlink:href="dir_74ef33ac6bd04e46304142a70c34a953.html" target="_top" xlink:title="excp">
<polygon fill="white" stroke="black" points="70,-52 16,-52 16,-16 70,-16 70,-52"/>
<text text-anchor="middle" x="43" y="-31.5" font-family="Helvetica,sans-Serif" font-size="10.00">excp</text>
</a>
</g>
</g>
<!-- dir_d44c64559bbebec7f509842c48db8b23&#45;&gt;dir_74ef33ac6bd04e46304142a70c34a953 -->
<g id="edge2" class="edge">
<title>dir_d44c64559bbebec7f509842c48db8b23&#45;&gt;dir_74ef33ac6bd04e46304142a70c34a953</title>
<path fill="none" stroke="black" d="M199.96,-96.2C171.93,-86.88 126.71,-71.33 79.47,-52.01"/>
<polygon fill="black" stroke="black" points="80.58,-48.68 70,-48.1 77.91,-55.15 80.58,-48.68"/>
<g id="a_edge2&#45;headlabel"><a xlink:href="dir_000009_000021.html" target="_top" xlink:title="1">
<text text-anchor="middle" x="84.99" y="-44.93" font-family="Helvetica,sans-Serif" font-size="10.00">1</text>
</a>
</g>
</g>
<!-- dir_1d52781e224d924275d803a20aa4cb0e -->
<g id="node3" class="node">
<title>dir_1d52781e224d924275d803a20aa4cb0e</title>
<g id="a_node3"><a xlink:href="dir_1d52781e224d924275d803a20aa4cb0e.html" target="_top" xlink:title="memory">
<polygon fill="white" stroke="black" points="146,-52 88,-52 88,-16 146,-16 146,-52"/>
<text text-anchor="middle" x="117" y="-31.5" font-family="Helvetica,sans-Serif" font-size="10.00">memory</text>
</a>
</g>
</g>
<!-- dir_d44c64559bbebec7f509842c48db8b23&#45;&gt;dir_1d52781e224d924275d803a20aa4cb0e -->
<g id="edge1" class="edge">
<title>dir_d44c64559bbebec7f509842c48db8b23&#45;&gt;dir_1d52781e224d924275d803a20aa4cb0e</title>
<path fill="none" stroke="black" d="M200.09,-87.88C185.84,-78.81 168.15,-67.55 152.76,-57.76"/>
<polygon fill="black" stroke="black" points="154.33,-54.61 144.01,-52.19 150.57,-60.51 154.33,-54.61"/>
<g id="a_edge1&#45;headlabel"><a xlink:href="dir_000009_000012.html" target="_top" xlink:title="1">
<text text-anchor="middle" x="158.89" y="-51.64" font-family="Helvetica,sans-Serif" font-size="10.00">1</text>
</a>
</g>
</g>
<!-- dir_756bc68c7d575665d5f9db3fe7bdab21 -->
<g id="node4" class="node">
<title>dir_756bc68c7d575665d5f9db3fe7bdab21</title>
<g id="a_node4"><a xlink:href="dir_756bc68c7d575665d5f9db3fe7bdab21.html" target="_top" xlink:title="pointer">
<polygon fill="white" stroke="black" points="218,-52 164,-52 164,-16 218,-16 218,-52"/>
<text text-anchor="middle" x="191" y="-31.5" font-family="Helvetica,sans-Serif" font-size="10.00">pointer</text>
</a>
</g>
</g>
<!-- dir_d44c64559bbebec7f509842c48db8b23&#45;&gt;dir_756bc68c7d575665d5f9db3fe7bdab21 -->
<g id="edge3" class="edge">
<title>dir_d44c64559bbebec7f509842c48db8b23&#45;&gt;dir_756bc68c7d575665d5f9db3fe7bdab21</title>
<path fill="none" stroke="black" d="M218.1,-87.7C214,-79.73 209.05,-70.1 204.51,-61.26"/>
<polygon fill="black" stroke="black" points="207.48,-59.4 199.8,-52.1 201.26,-62.6 207.48,-59.4"/>
<g id="a_edge3&#45;headlabel"><a xlink:href="dir_000009_000015.html" target="_top" xlink:title="6">
<text text-anchor="middle" x="211.65" y="-58.79" font-family="Helvetica,sans-Serif" font-size="10.00">6</text>
</a>
</g>
</g>
<!-- dir_cac49a9e31bf4f7cd5ab50e2700548d0 -->
<g id="node5" class="node">
<title>dir_cac49a9e31bf4f7cd5ab50e2700548d0</title>
<g id="a_node5"><a xlink:href="dir_cac49a9e31bf4f7cd5ab50e2700548d0.html" target="_top" xlink:title="queue">
<polygon fill="white" stroke="black" points="290,-52 236,-52 236,-16 290,-16 290,-52"/>
<text text-anchor="middle" x="263" y="-31.5" font-family="Helvetica,sans-Serif" font-size="10.00">queue</text>
</a>
</g>
</g>
<!-- dir_d44c64559bbebec7f509842c48db8b23&#45;&gt;dir_cac49a9e31bf4f7cd5ab50e2700548d0 -->
<g id="edge6" class="edge">
<title>dir_d44c64559bbebec7f509842c48db8b23&#45;&gt;dir_cac49a9e31bf4f7cd5ab50e2700548d0</title>
<path fill="none" stroke="black" d="M235.9,-87.7C240,-79.73 244.95,-70.1 249.49,-61.26"/>
<polygon fill="black" stroke="black" points="252.74,-62.6 254.2,-52.1 246.52,-59.4 252.74,-62.6"/>
<g id="a_edge6&#45;headlabel"><a xlink:href="dir_000009_000014.html" target="_top" xlink:title="5">
<text text-anchor="middle" x="253.62" y="-64.59" font-family="Helvetica,sans-Serif" font-size="10.00">5</text>
</a>
</g>
</g>
<!-- dir_b3ba3c378860ab9da17b9ff52769e863 -->
<g id="node6" class="node">
<title>dir_b3ba3c378860ab9da17b9ff52769e863</title>
<g id="a_node6"><a xlink:href="dir_b3ba3c378860ab9da17b9ff52769e863.html" target="_top" xlink:title="slock">
<polygon fill="white" stroke="black" points="362,-52 308,-52 308,-16 362,-16 362,-52"/>
<text text-anchor="middle" x="335" y="-31.5" font-family="Helvetica,sans-Serif" font-size="10.00">slock</text>
</a>
</g>
</g>
<!-- dir_d44c64559bbebec7f509842c48db8b23&#45;&gt;dir_b3ba3c378860ab9da17b9ff52769e863 -->
<g id="edge5" class="edge">
<title>dir_d44c64559bbebec7f509842c48db8b23&#45;&gt;dir_b3ba3c378860ab9da17b9ff52769e863</title>
<path fill="none" stroke="black" d="M253.42,-87.88C267.41,-78.81 284.78,-67.55 299.89,-57.76"/>
<polygon fill="black" stroke="black" points="301.99,-60.57 308.48,-52.19 298.18,-54.69 301.99,-60.57"/>
<g id="a_edge5&#45;headlabel"><a xlink:href="dir_000009_000017.html" target="_top" xlink:title="3">
<text text-anchor="middle" x="300.52" y="-62.4" font-family="Helvetica,sans-Serif" font-size="10.00">3</text>
</a>
</g>
</g>
<!-- dir_821002d4f10779a80d4fb17bc32f21f1 -->
<g id="node8" class="node">
<title>dir_821002d4f10779a80d4fb17bc32f21f1</title>
<g id="a_node8"><a xlink:href="dir_821002d4f10779a80d4fb17bc32f21f1.html" target="_top" xlink:title="utils">
<polygon fill="white" stroke="black" points="434,-52 380,-52 380,-16 434,-16 434,-52"/>
<text text-anchor="middle" x="407" y="-31.5" font-family="Helvetica,sans-Serif" font-size="10.00">utils</text>
</a>
</g>
</g>
<!-- dir_d44c64559bbebec7f509842c48db8b23&#45;&gt;dir_821002d4f10779a80d4fb17bc32f21f1 -->
<g id="edge4" class="edge">
<title>dir_d44c64559bbebec7f509842c48db8b23&#45;&gt;dir_821002d4f10779a80d4fb17bc32f21f1</title>
<path fill="none" stroke="black" d="M254.08,-95.84C281.35,-86.43 324.77,-70.99 370.51,-52.04"/>
<polygon fill="black" stroke="black" points="372.11,-55.16 379.99,-48.07 369.41,-48.7 372.11,-55.16"/>
<g id="a_edge4&#45;headlabel"><a xlink:href="dir_000009_000010.html" target="_top" xlink:title="3">
<text text-anchor="middle" x="369.89" y="-56.66" font-family="Helvetica,sans-Serif" font-size="10.00">3</text>
</a>
</g>
</g>
<!-- dir_0a88ad4144c488270dceb381ebfd1772 -->
<g id="node7" class="node">
<title>dir_0a88ad4144c488270dceb381ebfd1772</title>
<g id="a_node7"><a xlink:href="dir_0a88ad4144c488270dceb381ebfd1772.html" target="_top" xlink:title="trace">
<polygon fill="white" stroke="black" points="144,-124 90,-124 90,-88 144,-88 144,-124"/>
<text text-anchor="middle" x="117" y="-103.5" font-family="Helvetica,sans-Serif" font-size="10.00">trace</text>
</a>
</g>
</g>
</g>
</svg>
