<?xml version="1.0" encoding="UTF-8" standalone="no"?>
<!DOCTYPE svg PUBLIC "-//W3C//DTD SVG 1.1//EN"
 "http://www.w3.org/Graphics/SVG/1.1/DTD/svg11.dtd">
<!-- Generated by graphviz version 2.46.0 (0)
 -->
<!-- Title: examples Pages: 1 -->
<svg width="659pt" height="132pt"
 viewBox="0.00 0.00 659.00 132.00" xmlns="http://www.w3.org/2000/svg" xmlns:xlink="http://www.w3.org/1999/xlink">
<g id="graph0" class="graph" transform="scale(1 1) rotate(0) translate(4 128)">
<title>examples</title>
<polygon fill="white" stroke="transparent" points="-4,4 -4,-128 655,-128 655,4 -4,4"/>
<g id="clust1" class="cluster">
<title>clusterdir_d28a4824dc47e487b107a5db32ef43c4</title>
<g id="a_clust1"><a xlink:href="dir_d28a4824dc47e487b107a5db32ef43c4.html" target="_top">
<polygon fill="#eeeeff" stroke="black" points="8,-64 8,-116 643,-116 643,-64 8,-64"/>
</a>
</g>
</g>
<!-- dir_d28a4824dc47e487b107a5db32ef43c4 -->
<g id="node1" class="node">
<title>dir_d28a4824dc47e487b107a5db32ef43c4</title>
<text text-anchor="middle" x="602" y="-87.5" font-family="Helvetica,sans-Serif" font-size="10.00">examples</text>
</g>
<!-- dir_2c54d58306ddcc9a32370b1149943009 -->
<g id="node2" class="node">
<title>dir_2c54d58306ddcc9a32370b1149943009</title>
<g id="a_node2"><a xlink:href="dir_2c54d58306ddcc9a32370b1149943009.html" target="_top" xlink:title="empty">
<polygon fill="white" stroke="red" points="551,-108 497,-108 497,-72 551,-72 551,-108"/>
<text text-anchor="middle" x="524" y="-87.5" font-family="Helvetica,sans-Serif" font-size="10.00">empty</text>
</a>
</g>
</g>
<!-- dir_d44c64559bbebec7f509842c48db8b23 -->
<g id="node8" class="node">
<title>dir_d44c64559bbebec7f509842c48db8b23</title>
<g id="a_node8"><a xlink:href="dir_d44c64559bbebec7f509842c48db8b23.html" target="_top" xlink:title="include">
<polygon fill="white" stroke="red" points="333,-36 279,-36 279,0 333,0 333,-36"/>
<text text-anchor="middle" x="306" y="-15.5" font-family="Helvetica,sans-Serif" font-size="10.00">include</text>
</a>
</g>
</g>
<!-- dir_2c54d58306ddcc9a32370b1149943009&#45;&gt;dir_d44c64559bbebec7f509842c48db8b23 -->
<g id="edge5" class="edge">
<title>dir_2c54d58306ddcc9a32370b1149943009&#45;&gt;dir_d44c64559bbebec7f509842c48db8b23</title>
<path fill="none" stroke="black" d="M501.9,-71.8C497.46,-68.9 492.71,-66.13 488,-64 440.42,-42.49 381.01,-30.26 343.27,-24.14"/>
<polygon fill="black" stroke="black" points="343.65,-20.65 333.23,-22.57 342.57,-27.57 343.65,-20.65"/>
<g id="a_edge5&#45;headlabel"><a xlink:href="dir_000004_000009.html" target="_top" xlink:title="1">
<text text-anchor="middle" x="347.64" y="-15.9" font-family="Helvetica,sans-Serif" font-size="10.00">1</text>
</a>
</g>
</g>
<!-- dir_043a0596c0bb4b144500c713b396045d -->
<g id="node3" class="node">
<title>dir_043a0596c0bb4b144500c713b396045d</title>
<g id="a_node3"><a xlink:href="dir_043a0596c0bb4b144500c713b396045d.html" target="_top" xlink:title="mempool">
<polygon fill="white" stroke="red" points="478.5,-108 415.5,-108 415.5,-72 478.5,-72 478.5,-108"/>
<text text-anchor="middle" x="447" y="-87.5" font-family="Helvetica,sans-Serif" font-size="10.00">mempool</text>
</a>
</g>
</g>
<!-- dir_043a0596c0bb4b144500c713b396045d&#45;&gt;dir_d44c64559bbebec7f509842c48db8b23 -->
<g id="edge6" class="edge">
<title>dir_043a0596c0bb4b144500c713b396045d&#45;&gt;dir_d44c64559bbebec7f509842c48db8b23</title>
<path fill="none" stroke="black" d="M420.62,-71.8C416.14,-69.08 411.48,-66.38 407,-64 386.12,-52.89 361.95,-42.06 342.49,-33.8"/>
<polygon fill="black" stroke="black" points="343.64,-30.49 333.07,-29.85 340.93,-36.94 343.64,-30.49"/>
<g id="a_edge6&#45;headlabel"><a xlink:href="dir_000006_000009.html" target="_top" xlink:title="1">
<text text-anchor="middle" x="348.06" y="-26.76" font-family="Helvetica,sans-Serif" font-size="10.00">1</text>
</a>
</g>
</g>
<!-- dir_a273d085457f5c5615c67f3b7a0d5290 -->
<g id="node4" class="node">
<title>dir_a273d085457f5c5615c67f3b7a0d5290</title>
<g id="a_node4"><a xlink:href="dir_a273d085457f5c5615c67f3b7a0d5290.html" target="_top" xlink:title="simple&#45;mutex">
<polygon fill="white" stroke="red" points="397.5,-108 312.5,-108 312.5,-72 397.5,-72 397.5,-108"/>
<text text-anchor="middle" x="355" y="-87.5" font-family="Helvetica,sans-Serif" font-size="10.00">simple&#45;mutex</text>
</a>
</g>
</g>
<!-- dir_a273d085457f5c5615c67f3b7a0d5290&#45;&gt;dir_d44c64559bbebec7f509842c48db8b23 -->
<g id="edge1" class="edge">
<title>dir_a273d085457f5c5615c67f3b7a0d5290&#45;&gt;dir_d44c64559bbebec7f509842c48db8b23</title>
<path fill="none" stroke="black" d="M342.89,-71.7C337.13,-63.47 330.14,-53.48 323.79,-44.42"/>
<polygon fill="black" stroke="black" points="326.58,-42.29 317.97,-36.1 320.84,-46.3 326.58,-42.29"/>
<g id="a_edge1&#45;headlabel"><a xlink:href="dir_000028_000009.html" target="_top" xlink:title="1">
<text text-anchor="middle" x="330.96" y="-41.11" font-family="Helvetica,sans-Serif" font-size="10.00">1</text>
</a>
</g>
</g>
<!-- dir_90da0f44df571b8c1e03cb7e9de46ad1 -->
<g id="node5" class="node">
<title>dir_90da0f44df571b8c1e03cb7e9de46ad1</title>
<g id="a_node5"><a xlink:href="dir_90da0f44df571b8c1e03cb7e9de46ad1.html" target="_top" xlink:title="simple&#45;task">
<polygon fill="white" stroke="red" points="294,-108 220,-108 220,-72 294,-72 294,-108"/>
<text text-anchor="middle" x="257" y="-87.5" font-family="Helvetica,sans-Serif" font-size="10.00">simple&#45;task</text>
</a>
</g>
</g>
<!-- dir_90da0f44df571b8c1e03cb7e9de46ad1&#45;&gt;dir_d44c64559bbebec7f509842c48db8b23 -->
<g id="edge3" class="edge">
<title>dir_90da0f44df571b8c1e03cb7e9de46ad1&#45;&gt;dir_d44c64559bbebec7f509842c48db8b23</title>
<path fill="none" stroke="black" d="M269.11,-71.7C274.87,-63.47 281.86,-53.48 288.21,-44.42"/>
<polygon fill="black" stroke="black" points="291.16,-46.3 294.03,-36.1 285.42,-42.29 291.16,-46.3"/>
<g id="a_edge3&#45;headlabel"><a xlink:href="dir_000030_000009.html" target="_top" xlink:title="1">
<text text-anchor="middle" x="291.42" y="-48.38" font-family="Helvetica,sans-Serif" font-size="10.00">1</text>
</a>
</g>
</g>
<!-- dir_b228f733382a747bd9b79e139ecd5180 -->
<g id="node6" class="node">
<title>dir_b228f733382a747bd9b79e139ecd5180</title>
<g id="a_node6"><a xlink:href="dir_b228f733382a747bd9b79e139ecd5180.html" target="_top" xlink:title="simple&#45;tasklet">
<polygon fill="white" stroke="red" points="201.5,-108 114.5,-108 114.5,-72 201.5,-72 201.5,-108"/>
<text text-anchor="middle" x="158" y="-87.5" font-family="Helvetica,sans-Serif" font-size="10.00">simple&#45;tasklet</text>
</a>
</g>
</g>
<!-- dir_b228f733382a747bd9b79e139ecd5180&#45;&gt;dir_d44c64559bbebec7f509842c48db8b23 -->
<g id="edge2" class="edge">
<title>dir_b228f733382a747bd9b79e139ecd5180&#45;&gt;dir_d44c64559bbebec7f509842c48db8b23</title>
<path fill="none" stroke="black" d="M194.2,-71.88C217.22,-60.99 246.9,-46.95 269.9,-36.07"/>
<polygon fill="black" stroke="black" points="271.44,-39.22 278.99,-31.78 268.45,-32.89 271.44,-39.22"/>
<g id="a_edge2&#45;headlabel"><a xlink:href="dir_000032_000009.html" target="_top" xlink:title="2">
<text text-anchor="middle" x="269.41" y="-40.82" font-family="Helvetica,sans-Serif" font-size="10.00">2</text>
</a>
</g>
</g>
<!-- dir_2697d835c69f7b6e8dfeed9af49a891a -->
<g id="node7" class="node">
<title>dir_2697d835c69f7b6e8dfeed9af49a891a</title>
<g id="a_node7"><a xlink:href="dir_2697d835c69f7b6e8dfeed9af49a891a.html" target="_top" xlink:title="simple&#45;timer">
<polygon fill="white" stroke="red" points="96,-108 16,-108 16,-72 96,-72 96,-108"/>
<text text-anchor="middle" x="56" y="-87.5" font-family="Helvetica,sans-Serif" font-size="10.00">simple&#45;timer</text>
</a>
</g>
</g>
<!-- dir_2697d835c69f7b6e8dfeed9af49a891a&#45;&gt;dir_d44c64559bbebec7f509842c48db8b23 -->
<g id="edge4" class="edge">
<title>dir_2697d835c69f7b6e8dfeed9af49a891a&#45;&gt;dir_d44c64559bbebec7f509842c48db8b23</title>
<path fill="none" stroke="black" d="M87.23,-71.94C93.34,-69.02 99.78,-66.22 106,-64 161.2,-44.32 228.14,-31.34 268.87,-24.58"/>
<polygon fill="black" stroke="black" points="269.58,-28.01 278.89,-22.96 268.46,-21.1 269.58,-28.01"/>
<g id="a_edge4&#45;headlabel"><a xlink:href="dir_000034_000009.html" target="_top" xlink:title="1">
<text text-anchor="middle" x="266.48" y="-28.89" font-family="Helvetica,sans-Serif" font-size="10.00">1</text>
</a>
</g>
</g>
</g>
</svg>
