<?xml version="1.0" encoding="UTF-8" standalone="no"?>
<!DOCTYPE svg PUBLIC "-//W3C//DTD SVG 1.1//EN"
 "http://www.w3.org/Graphics/SVG/1.1/DTD/svg11.dtd">
<!-- Generated by graphviz version 2.46.0 (0)
 -->
<!-- Title: src Pages: 1 -->
<svg width="111pt" height="151pt"
 viewBox="0.00 0.00 111.00 151.00" xmlns="http://www.w3.org/2000/svg" xmlns:xlink="http://www.w3.org/1999/xlink">
<g id="graph0" class="graph" transform="scale(1 1) rotate(0) translate(4 147)">
<title>src</title>
<polygon fill="white" stroke="transparent" points="-4,4 -4,-147 107,-147 107,4 -4,4"/>
<g id="clust1" class="cluster">
<title>clusterdir_b228f733382a747bd9b79e139ecd5180</title>
<g id="a_clust1"><a xlink:href="dir_b228f733382a747bd9b79e139ecd5180.html" target="_top" xlink:title="simple&#45;tasklet">
<polygon fill="#ddddee" stroke="black" points="8,-64 8,-135 95,-135 95,-64 8,-64"/>
<text text-anchor="middle" x="51.5" y="-123" font-family="Helvetica,sans-Serif" font-size="10.00">simple&#45;tasklet</text>
</a>
</g>
</g>
<!-- dir_fef8245183f86b2d62c07dafeed7714e -->
<g id="node1" class="node">
<title>dir_fef8245183f86b2d62c07dafeed7714e</title>
<g id="a_node1"><a xlink:href="dir_fef8245183f86b2d62c07dafeed7714e.html" target="_top" xlink:title="src">
<polygon fill="#eeeeff" stroke="black" points="78,-108 24,-108 24,-72 78,-72 78,-108"/>
<text text-anchor="middle" x="51" y="-87.5" font-family="Helvetica,sans-Serif" font-size="10.00">src</text>
</a>
</g>
</g>
<!-- dir_d44c64559bbebec7f509842c48db8b23 -->
<g id="node2" class="node">
<title>dir_d44c64559bbebec7f509842c48db8b23</title>
<g id="a_node2"><a xlink:href="dir_d44c64559bbebec7f509842c48db8b23.html" target="_top" xlink:title="include">
<polygon fill="white" stroke="red" points="78,-36 24,-36 24,0 78,0 78,-36"/>
<text text-anchor="middle" x="51" y="-15.5" font-family="Helvetica,sans-Serif" font-size="10.00">include</text>
</a>
</g>
</g>
<!-- dir_fef8245183f86b2d62c07dafeed7714e&#45;&gt;dir_d44c64559bbebec7f509842c48db8b23 -->
<g id="edge1" class="edge">
<title>dir_fef8245183f86b2d62c07dafeed7714e&#45;&gt;dir_d44c64559bbebec7f509842c48db8b23</title>
<path fill="none" stroke="black" d="M51,-71.7C51,-63.98 51,-54.71 51,-46.11"/>
<polygon fill="black" stroke="black" points="54.5,-46.1 51,-36.1 47.5,-46.1 54.5,-46.1"/>
<g id="a_edge1&#45;headlabel"><a xlink:href="dir_000032_000008.html" target="_top" xlink:title="2">
<text text-anchor="middle" x="57.34" y="-47.2" font-family="Helvetica,sans-Serif" font-size="10.00">2</text>
</a>
</g>
</g>
</g>
</svg>
