<?xml version="1.0" encoding="UTF-8" standalone="no"?>
<!DOCTYPE svg PUBLIC "-//W3C//DTD SVG 1.1//EN"
 "http://www.w3.org/Graphics/SVG/1.1/DTD/svg11.dtd">
<!-- Generated by graphviz version 2.47.3 (0)
 -->
<!-- Title: include Pages: 1 -->
<svg width="310pt" height="364pt"
 viewBox="0.00 0.00 310.00 364.00" xmlns="http://www.w3.org/2000/svg" xmlns:xlink="http://www.w3.org/1999/xlink">
<g id="graph0" class="graph" transform="scale(1 1) rotate(0) translate(4 360)">
<title>include</title>
<polygon fill="white" stroke="transparent" points="-4,4 -4,-360 306,-360 306,4 -4,4"/>
<g id="clust1" class="cluster">
<title>clusterdir_d44c64559bbebec7f509842c48db8b23</title>
<g id="a_clust1"><a xlink:href="dir_d44c64559bbebec7f509842c48db8b23.html" target="_top">
<polygon fill="#eeeeff" stroke="black" points="8,-8 8,-348 294,-348 294,-8 8,-8"/>
</a>
</g>
</g>
<!-- dir_d44c64559bbebec7f509842c48db8b23 -->
<g id="node1" class="node">
<title>dir_d44c64559bbebec7f509842c48db8b23</title>
<text text-anchor="middle" x="259" y="-319.5" font-family="Helvetica,sans-Serif" font-size="10.00">include</text>
</g>
<!-- dir_e2b7f4d1631891d42f7888059c5fbeed -->
<g id="node2" class="node">
<title>dir_e2b7f4d1631891d42f7888059c5fbeed</title>
<g id="a_node2"><a xlink:href="dir_e2b7f4d1631891d42f7888059c5fbeed.html" target="_top" xlink:title="allocator">
<polygon fill="white" stroke="black" points="75.5,-196 16.5,-196 16.5,-160 75.5,-160 75.5,-196"/>
<text text-anchor="middle" x="46" y="-175.5" font-family="Helvetica,sans-Serif" font-size="10.00">allocator</text>
</a>
</g>
</g>
<!-- dir_d44c64559bbebec7f509842c48db8b23&#45;&gt;dir_e2b7f4d1631891d42f7888059c5fbeed -->
<g id="edge10" class="edge">
<title>dir_d44c64559bbebec7f509842c48db8b23&#45;&gt;dir_e2b7f4d1631891d42f7888059c5fbeed</title>
<path fill="none" stroke="black" d="M231.75,-307.35C228.83,-306.13 225.88,-304.98 223,-304 152.37,-279.92 109.86,-322.61 59,-268 43.82,-251.71 41.52,-225.95 42.46,-206.33"/>
<polygon fill="black" stroke="black" points="45.96,-206.4 43.25,-196.16 38.98,-205.86 45.96,-206.4"/>
<g id="a_edge10&#45;headlabel"><a xlink:href="dir_000002_000004.html" target="_top" xlink:title="5">
<text text-anchor="middle" x="48.52" y="-207.71" font-family="Helvetica,sans-Serif" font-size="10.00">5</text>
</a>
</g>
</g>
<!-- dir_91b3ef3bc25284e938abb0e6a7af9442 -->
<g id="node3" class="node">
<title>dir_91b3ef3bc25284e938abb0e6a7af9442</title>
<g id="a_node3"><a xlink:href="dir_91b3ef3bc25284e938abb0e6a7af9442.html" target="_top" xlink:title="atomic">
<polygon fill="white" stroke="black" points="122,-268 68,-268 68,-232 122,-232 122,-268"/>
<text text-anchor="middle" x="95" y="-247.5" font-family="Helvetica,sans-Serif" font-size="10.00">atomic</text>
</a>
</g>
</g>
<!-- dir_d44c64559bbebec7f509842c48db8b23&#45;&gt;dir_91b3ef3bc25284e938abb0e6a7af9442 -->
<g id="edge7" class="edge">
<title>dir_d44c64559bbebec7f509842c48db8b23&#45;&gt;dir_91b3ef3bc25284e938abb0e6a7af9442</title>
<path fill="none" stroke="black" d="M231.94,-308.05C228.93,-306.66 225.91,-305.29 223,-304 184.74,-287.06 174.66,-284.01 136,-268 134.62,-267.43 133.22,-266.85 131.8,-266.26"/>
<polygon fill="black" stroke="black" points="132.92,-262.94 122.35,-262.34 130.24,-269.4 132.92,-262.94"/>
<g id="a_edge7&#45;headlabel"><a xlink:href="dir_000002_000007.html" target="_top" xlink:title="2">
<text text-anchor="middle" x="137.33" y="-259.19" font-family="Helvetica,sans-Serif" font-size="10.00">2</text>
</a>
</g>
</g>
<!-- dir_e0f5f6345e438c73b9ae78ec2940718c -->
<g id="node4" class="node">
<title>dir_e0f5f6345e438c73b9ae78ec2940718c</title>
<g id="a_node4"><a xlink:href="dir_e0f5f6345e438c73b9ae78ec2940718c.html" target="_top" xlink:title="container">
<polygon fill="white" stroke="black" points="152,-124 90,-124 90,-88 152,-88 152,-124"/>
<text text-anchor="middle" x="121" y="-103.5" font-family="Helvetica,sans-Serif" font-size="10.00">container</text>
</a>
</g>
</g>
<!-- dir_d44c64559bbebec7f509842c48db8b23&#45;&gt;dir_e0f5f6345e438c73b9ae78ec2940718c -->
<g id="edge9" class="edge">
<title>dir_d44c64559bbebec7f509842c48db8b23&#45;&gt;dir_e0f5f6345e438c73b9ae78ec2940718c</title>
<path fill="none" stroke="black" d="M231.85,-308.11C200.25,-293.04 152.18,-269.9 151,-268 125.57,-227.2 171.13,-205.95 157,-160 153.99,-150.22 148.49,-140.62 142.68,-132.33"/>
<polygon fill="black" stroke="black" points="145.41,-130.13 136.61,-124.23 139.81,-134.33 145.41,-130.13"/>
<g id="a_edge9&#45;headlabel"><a xlink:href="dir_000002_000005.html" target="_top" xlink:title="12">
<text text-anchor="middle" x="149.83" y="-128.8" font-family="Helvetica,sans-Serif" font-size="10.00">12</text>
</a>
</g>
</g>
<!-- dir_74ef33ac6bd04e46304142a70c34a953 -->
<g id="node6" class="node">
<title>dir_74ef33ac6bd04e46304142a70c34a953</title>
<g id="a_node6"><a xlink:href="dir_74ef33ac6bd04e46304142a70c34a953.html" target="_top" xlink:title="excp">
<polygon fill="white" stroke="black" points="214,-268 160,-268 160,-232 214,-232 214,-268"/>
<text text-anchor="middle" x="187" y="-247.5" font-family="Helvetica,sans-Serif" font-size="10.00">excp</text>
</a>
</g>
</g>
<!-- dir_d44c64559bbebec7f509842c48db8b23&#45;&gt;dir_74ef33ac6bd04e46304142a70c34a953 -->
<g id="edge6" class="edge">
<title>dir_d44c64559bbebec7f509842c48db8b23&#45;&gt;dir_74ef33ac6bd04e46304142a70c34a953</title>
<path fill="none" stroke="black" d="M241.2,-303.7C232.4,-295.14 221.62,-284.66 212,-275.3"/>
<polygon fill="black" stroke="black" points="214.2,-272.57 204.59,-268.1 209.32,-277.58 214.2,-272.57"/>
<g id="a_edge6&#45;headlabel"><a xlink:href="dir_000002_000019.html" target="_top" xlink:title="1">
<text text-anchor="middle" x="218.76" y="-270.54" font-family="Helvetica,sans-Serif" font-size="10.00">1</text>
</a>
</g>
</g>
<!-- dir_b3ba3c378860ab9da17b9ff52769e863 -->
<g id="node11" class="node">
<title>dir_b3ba3c378860ab9da17b9ff52769e863</title>
<g id="a_node11"><a xlink:href="dir_b3ba3c378860ab9da17b9ff52769e863.html" target="_top" xlink:title="slock">
<polygon fill="white" stroke="black" points="286,-268 232,-268 232,-232 286,-232 286,-268"/>
<text text-anchor="middle" x="259" y="-247.5" font-family="Helvetica,sans-Serif" font-size="10.00">slock</text>
</a>
</g>
</g>
<!-- dir_d44c64559bbebec7f509842c48db8b23&#45;&gt;dir_b3ba3c378860ab9da17b9ff52769e863 -->
<g id="edge8" class="edge">
<title>dir_d44c64559bbebec7f509842c48db8b23&#45;&gt;dir_b3ba3c378860ab9da17b9ff52769e863</title>
<path fill="none" stroke="black" d="M259,-303.7C259,-295.98 259,-286.71 259,-278.11"/>
<polygon fill="black" stroke="black" points="262.5,-278.1 259,-268.1 255.5,-278.1 262.5,-278.1"/>
<g id="a_edge8&#45;headlabel"><a xlink:href="dir_000002_000017.html" target="_top" xlink:title="3">
<text text-anchor="middle" x="265.34" y="-279.2" font-family="Helvetica,sans-Serif" font-size="10.00">3</text>
</a>
</g>
</g>
<!-- dir_821002d4f10779a80d4fb17bc32f21f1 -->
<g id="node12" class="node">
<title>dir_821002d4f10779a80d4fb17bc32f21f1</title>
<g id="a_node12"><a xlink:href="dir_821002d4f10779a80d4fb17bc32f21f1.html" target="_top" xlink:title="utils">
<polygon fill="white" stroke="black" points="86,-52 32,-52 32,-16 86,-16 86,-52"/>
<text text-anchor="middle" x="59" y="-31.5" font-family="Helvetica,sans-Serif" font-size="10.00">utils</text>
</a>
</g>
</g>
<!-- dir_e2b7f4d1631891d42f7888059c5fbeed&#45;&gt;dir_821002d4f10779a80d4fb17bc32f21f1 -->
<g id="edge2" class="edge">
<title>dir_e2b7f4d1631891d42f7888059c5fbeed&#45;&gt;dir_821002d4f10779a80d4fb17bc32f21f1</title>
<path fill="none" stroke="black" d="M47.57,-159.87C49.78,-135.67 53.85,-91.21 56.49,-62.39"/>
<polygon fill="black" stroke="black" points="60,-62.47 57.43,-52.19 53.03,-61.83 60,-62.47"/>
<g id="a_edge2&#45;headlabel"><a xlink:href="dir_000004_000003.html" target="_top" xlink:title="2">
<text text-anchor="middle" x="62.5" y="-63.81" font-family="Helvetica,sans-Serif" font-size="10.00">2</text>
</a>
</g>
</g>
<!-- dir_756bc68c7d575665d5f9db3fe7bdab21 -->
<g id="node9" class="node">
<title>dir_756bc68c7d575665d5f9db3fe7bdab21</title>
<g id="a_node9"><a xlink:href="dir_756bc68c7d575665d5f9db3fe7bdab21.html" target="_top" xlink:title="pointer">
<polygon fill="white" stroke="black" points="148,-196 94,-196 94,-160 148,-160 148,-196"/>
<text text-anchor="middle" x="121" y="-175.5" font-family="Helvetica,sans-Serif" font-size="10.00">pointer</text>
</a>
</g>
</g>
<!-- dir_91b3ef3bc25284e938abb0e6a7af9442&#45;&gt;dir_756bc68c7d575665d5f9db3fe7bdab21 -->
<g id="edge1" class="edge">
<title>dir_91b3ef3bc25284e938abb0e6a7af9442&#45;&gt;dir_756bc68c7d575665d5f9db3fe7bdab21</title>
<path fill="none" stroke="black" d="M101.43,-231.7C104.36,-223.81 107.89,-214.3 111.14,-205.55"/>
<polygon fill="black" stroke="black" points="114.45,-206.7 114.65,-196.1 107.88,-204.26 114.45,-206.7"/>
<g id="a_edge1&#45;headlabel"><a xlink:href="dir_000007_000006.html" target="_top" xlink:title="1">
<text text-anchor="middle" x="115.86" y="-208.56" font-family="Helvetica,sans-Serif" font-size="10.00">1</text>
</a>
</g>
</g>
<!-- dir_e0f5f6345e438c73b9ae78ec2940718c&#45;&gt;dir_756bc68c7d575665d5f9db3fe7bdab21 -->
<g id="edge3" class="edge">
<title>dir_e0f5f6345e438c73b9ae78ec2940718c&#45;&gt;dir_756bc68c7d575665d5f9db3fe7bdab21</title>
<path fill="none" stroke="black" d="M126.9,-124.1C127.7,-131.79 127.94,-141.05 127.6,-149.67"/>
<polygon fill="black" stroke="black" points="124.11,-149.48 126.92,-159.7 131.09,-149.96 124.11,-149.48"/>
<g id="a_edge3&#45;headlabel"><a xlink:href="dir_000005_000006.html" target="_top" xlink:title="1">
<text text-anchor="middle" x="121.52" y="-143.2" font-family="Helvetica,sans-Serif" font-size="10.00">1</text>
</a>
</g>
</g>
<!-- dir_cac49a9e31bf4f7cd5ab50e2700548d0 -->
<g id="node10" class="node">
<title>dir_cac49a9e31bf4f7cd5ab50e2700548d0</title>
<g id="a_node10"><a xlink:href="dir_cac49a9e31bf4f7cd5ab50e2700548d0.html" target="_top" xlink:title="queue">
<polygon fill="white" stroke="black" points="158,-52 104,-52 104,-16 158,-16 158,-52"/>
<text text-anchor="middle" x="131" y="-31.5" font-family="Helvetica,sans-Serif" font-size="10.00">queue</text>
</a>
</g>
</g>
<!-- dir_e0f5f6345e438c73b9ae78ec2940718c&#45;&gt;dir_cac49a9e31bf4f7cd5ab50e2700548d0 -->
<g id="edge5" class="edge">
<title>dir_e0f5f6345e438c73b9ae78ec2940718c&#45;&gt;dir_cac49a9e31bf4f7cd5ab50e2700548d0</title>
<path fill="none" stroke="black" d="M123.47,-87.7C124.57,-79.98 125.9,-70.71 127.13,-62.11"/>
<polygon fill="black" stroke="black" points="130.61,-62.5 128.56,-52.1 123.68,-61.51 130.61,-62.5"/>
<g id="a_edge5&#45;headlabel"><a xlink:href="dir_000005_000012.html" target="_top" xlink:title="3">
<text text-anchor="middle" x="132.91" y="-63.96" font-family="Helvetica,sans-Serif" font-size="10.00">3</text>
</a>
</g>
</g>
<!-- dir_e0f5f6345e438c73b9ae78ec2940718c&#45;&gt;dir_821002d4f10779a80d4fb17bc32f21f1 -->
<g id="edge4" class="edge">
<title>dir_e0f5f6345e438c73b9ae78ec2940718c&#45;&gt;dir_821002d4f10779a80d4fb17bc32f21f1</title>
<path fill="none" stroke="black" d="M105.67,-87.7C98.24,-79.3 89.18,-69.07 81.02,-59.86"/>
<polygon fill="black" stroke="black" points="83.4,-57.27 74.15,-52.1 78.16,-61.91 83.4,-57.27"/>
<g id="a_edge4&#45;headlabel"><a xlink:href="dir_000005_000003.html" target="_top" xlink:title="5">
<text text-anchor="middle" x="87.91" y="-55.58" font-family="Helvetica,sans-Serif" font-size="10.00">5</text>
</a>
</g>
</g>
<!-- dir_00639e50a5e06ba932c41b2ae621276d -->
<g id="node5" class="node">
<title>dir_00639e50a5e06ba932c41b2ae621276d</title>
<g id="a_node5"><a xlink:href="dir_00639e50a5e06ba932c41b2ae621276d.html" target="_top" xlink:title="device">
<polygon fill="white" stroke="black" points="214,-340 160,-340 160,-304 214,-304 214,-340"/>
<text text-anchor="middle" x="187" y="-319.5" font-family="Helvetica,sans-Serif" font-size="10.00">device</text>
</a>
</g>
</g>
<!-- dir_fba38f648377aa56ae5d69782adf9e53 -->
<g id="node7" class="node">
<title>dir_fba38f648377aa56ae5d69782adf9e53</title>
<g id="a_node7"><a xlink:href="dir_fba38f648377aa56ae5d69782adf9e53.html" target="_top" xlink:title="math">
<polygon fill="white" stroke="black" points="142,-340 88,-340 88,-304 142,-304 142,-340"/>
<text text-anchor="middle" x="115" y="-319.5" font-family="Helvetica,sans-Serif" font-size="10.00">math</text>
</a>
</g>
</g>
<!-- dir_2fa1ed3146d6c2b96c5cfe4341985326 -->
<g id="node8" class="node">
<title>dir_2fa1ed3146d6c2b96c5cfe4341985326</title>
<g id="a_node8"><a xlink:href="dir_2fa1ed3146d6c2b96c5cfe4341985326.html" target="_top" xlink:title="net">
<polygon fill="white" stroke="black" points="70,-340 16,-340 16,-304 70,-304 70,-340"/>
<text text-anchor="middle" x="43" y="-319.5" font-family="Helvetica,sans-Serif" font-size="10.00">net</text>
</a>
</g>
</g>
<!-- dir_756bc68c7d575665d5f9db3fe7bdab21&#45;&gt;dir_e0f5f6345e438c73b9ae78ec2940718c -->
<g id="edge12" class="edge">
<title>dir_756bc68c7d575665d5f9db3fe7bdab21&#45;&gt;dir_e0f5f6345e438c73b9ae78ec2940718c</title>
<path fill="none" stroke="black" d="M115.08,-159.7C114.29,-151.98 114.06,-142.71 114.4,-134.11"/>
<polygon fill="black" stroke="black" points="117.9,-134.32 115.1,-124.1 110.92,-133.84 117.9,-134.32"/>
<g id="a_edge12&#45;headlabel"><a xlink:href="dir_000006_000005.html" target="_top" xlink:title="1">
<text text-anchor="middle" x="120.48" y="-135.61" font-family="Helvetica,sans-Serif" font-size="10.00">1</text>
</a>
</g>
</g>
<!-- dir_756bc68c7d575665d5f9db3fe7bdab21&#45;&gt;dir_821002d4f10779a80d4fb17bc32f21f1 -->
<g id="edge11" class="edge">
<title>dir_756bc68c7d575665d5f9db3fe7bdab21&#45;&gt;dir_821002d4f10779a80d4fb17bc32f21f1</title>
<path fill="none" stroke="black" d="M104.96,-159.55C96.72,-149.74 87.15,-136.91 81,-124 71.62,-104.3 65.98,-80.18 62.76,-62.02"/>
<polygon fill="black" stroke="black" points="66.2,-61.39 61.13,-52.09 59.29,-62.52 66.2,-61.39"/>
<g id="a_edge11&#45;headlabel"><a xlink:href="dir_000006_000003.html" target="_top" xlink:title="2">
<text text-anchor="middle" x="69.59" y="-61.98" font-family="Helvetica,sans-Serif" font-size="10.00">2</text>
</a>
</g>
</g>
</g>
</svg>
