<?xml version="1.0" encoding="UTF-8" standalone="no"?>
<!DOCTYPE svg PUBLIC "-//W3C//DTD SVG 1.1//EN"
 "http://www.w3.org/Graphics/SVG/1.1/DTD/svg11.dtd">
<!-- Generated by graphviz version 2.44.1 (0)
 -->
<!-- Title: src Pages: 1 -->
<svg width="386pt" height="132pt"
 viewBox="0.00 0.00 386.00 132.00" xmlns="http://www.w3.org/2000/svg" xmlns:xlink="http://www.w3.org/1999/xlink">
<g id="graph0" class="graph" transform="scale(1 1) rotate(0) translate(4 128)">
<title>src</title>
<polygon fill="white" stroke="transparent" points="-4,4 -4,-128 382,-128 382,4 -4,4"/>
<g id="clust1" class="cluster">
<title>clusterdir_68267d1309a1af8e8297ef4c3efbcdba</title>
<g id="a_clust1"><a xlink:href="dir_68267d1309a1af8e8297ef4c3efbcdba.html" target="_top">
<polygon fill="#eeeeff" stroke="black" points="8,-64 8,-116 370,-116 370,-64 8,-64"/>
</a>
</g>
</g>
<!-- dir_68267d1309a1af8e8297ef4c3efbcdba -->
<g id="node1" class="node">
<title>dir_68267d1309a1af8e8297ef4c3efbcdba</title>
<text text-anchor="middle" x="335" y="-87.5" font-family="Helvetica,sans-Serif" font-size="10.00">src</text>
</g>
<!-- dir_27369d925af25fde1a8c43aa3935a0a7 -->
<g id="node2" class="node">
<title>dir_27369d925af25fde1a8c43aa3935a0a7</title>
<g id="a_node2"><a xlink:href="dir_27369d925af25fde1a8c43aa3935a0a7.html" target="_top" xlink:title="excp">
<polygon fill="white" stroke="black" points="290,-108 236,-108 236,-72 290,-72 290,-108"/>
<text text-anchor="middle" x="263" y="-87.5" font-family="Helvetica,sans-Serif" font-size="10.00">excp</text>
</a>
</g>
</g>
<!-- dir_d44c64559bbebec7f509842c48db8b23 -->
<g id="node6" class="node">
<title>dir_d44c64559bbebec7f509842c48db8b23</title>
<g id="a_node6"><a xlink:href="dir_d44c64559bbebec7f509842c48db8b23.html" target="_top" xlink:title="include">
<polygon fill="white" stroke="red" points="179,-36 125,-36 125,0 179,0 179,-36"/>
<text text-anchor="middle" x="152" y="-15.5" font-family="Helvetica,sans-Serif" font-size="10.00">include</text>
</a>
</g>
</g>
<!-- dir_27369d925af25fde1a8c43aa3935a0a7&#45;&gt;dir_d44c64559bbebec7f509842c48db8b23 -->
<g id="edge1" class="edge">
<title>dir_27369d925af25fde1a8c43aa3935a0a7&#45;&gt;dir_d44c64559bbebec7f509842c48db8b23</title>
<path fill="none" stroke="black" d="M238.75,-71.83C234.85,-69.17 230.83,-66.48 227,-64 214.48,-55.91 200.53,-47.41 188.09,-40"/>
<polygon fill="black" stroke="black" points="189.73,-36.9 179.35,-34.82 186.17,-42.92 189.73,-36.9"/>
<g id="a_edge1&#45;headlabel"><a xlink:href="dir_000008_000001.html" target="_top" xlink:title="1">
<text text-anchor="middle" x="194.27" y="-33.79" font-family="Helvetica,sans-Serif" font-size="10.00">1</text>
</a>
</g>
</g>
<!-- dir_94d7edf6f8f3d9af5fd63c44172da41c -->
<g id="node3" class="node">
<title>dir_94d7edf6f8f3d9af5fd63c44172da41c</title>
<g id="a_node3"><a xlink:href="dir_94d7edf6f8f3d9af5fd63c44172da41c.html" target="_top" xlink:title="memory">
<polygon fill="white" stroke="black" points="218,-108 160,-108 160,-72 218,-72 218,-108"/>
<text text-anchor="middle" x="189" y="-87.5" font-family="Helvetica,sans-Serif" font-size="10.00">memory</text>
</a>
</g>
</g>
<!-- dir_94d7edf6f8f3d9af5fd63c44172da41c&#45;&gt;dir_d44c64559bbebec7f509842c48db8b23 -->
<g id="edge3" class="edge">
<title>dir_94d7edf6f8f3d9af5fd63c44172da41c&#45;&gt;dir_d44c64559bbebec7f509842c48db8b23</title>
<path fill="none" stroke="black" d="M179.85,-71.7C175.6,-63.64 170.44,-53.89 165.73,-44.98"/>
<polygon fill="black" stroke="black" points="168.81,-43.31 161.04,-36.1 162.62,-46.58 168.81,-43.31"/>
<g id="a_edge3&#45;headlabel"><a xlink:href="dir_000007_000001.html" target="_top" xlink:title="2">
<text text-anchor="middle" x="173" y="-42.66" font-family="Helvetica,sans-Serif" font-size="10.00">2</text>
</a>
</g>
</g>
<!-- dir_b932d720ae4455b3a35ba932c1ee98d1 -->
<g id="node4" class="node">
<title>dir_b932d720ae4455b3a35ba932c1ee98d1</title>
<g id="a_node4"><a xlink:href="dir_b932d720ae4455b3a35ba932c1ee98d1.html" target="_top" xlink:title="queue">
<polygon fill="white" stroke="black" points="142,-108 88,-108 88,-72 142,-72 142,-108"/>
<text text-anchor="middle" x="115" y="-87.5" font-family="Helvetica,sans-Serif" font-size="10.00">queue</text>
</a>
</g>
</g>
<!-- dir_b932d720ae4455b3a35ba932c1ee98d1&#45;&gt;dir_d44c64559bbebec7f509842c48db8b23 -->
<g id="edge4" class="edge">
<title>dir_b932d720ae4455b3a35ba932c1ee98d1&#45;&gt;dir_d44c64559bbebec7f509842c48db8b23</title>
<path fill="none" stroke="black" d="M124.15,-71.7C128.4,-63.64 133.56,-53.89 138.27,-44.98"/>
<polygon fill="black" stroke="black" points="141.38,-46.58 142.96,-36.1 135.19,-43.31 141.38,-46.58"/>
<g id="a_edge4&#45;headlabel"><a xlink:href="dir_000002_000001.html" target="_top" xlink:title="19">
<text text-anchor="middle" x="142.21" y="-48.59" font-family="Helvetica,sans-Serif" font-size="10.00">19</text>
</a>
</g>
</g>
<!-- dir_0facf70c611ccf2a86938a1c0bbe5156 -->
<g id="node5" class="node">
<title>dir_0facf70c611ccf2a86938a1c0bbe5156</title>
<g id="a_node5"><a xlink:href="dir_0facf70c611ccf2a86938a1c0bbe5156.html" target="_top" xlink:title="slock">
<polygon fill="white" stroke="black" points="70,-108 16,-108 16,-72 70,-72 70,-108"/>
<text text-anchor="middle" x="43" y="-87.5" font-family="Helvetica,sans-Serif" font-size="10.00">slock</text>
</a>
</g>
</g>
<!-- dir_0facf70c611ccf2a86938a1c0bbe5156&#45;&gt;dir_d44c64559bbebec7f509842c48db8b23 -->
<g id="edge2" class="edge">
<title>dir_0facf70c611ccf2a86938a1c0bbe5156&#45;&gt;dir_d44c64559bbebec7f509842c48db8b23</title>
<path fill="none" stroke="black" d="M67.28,-71.87C71.17,-69.2 75.18,-66.5 79,-64 90.91,-56.2 104.11,-47.95 115.97,-40.67"/>
<polygon fill="black" stroke="black" points="118.03,-43.52 124.74,-35.32 114.38,-37.54 118.03,-43.52"/>
<g id="a_edge2&#45;headlabel"><a xlink:href="dir_000005_000001.html" target="_top" xlink:title="2">
<text text-anchor="middle" x="116.44" y="-45.31" font-family="Helvetica,sans-Serif" font-size="10.00">2</text>
</a>
</g>
</g>
</g>
</svg>
