<?xml version="1.0" encoding="UTF-8" standalone="no"?>
<!DOCTYPE svg PUBLIC "-//W3C//DTD SVG 1.1//EN"
 "http://www.w3.org/Graphics/SVG/1.1/DTD/svg11.dtd">
<!-- Generated by graphviz version 2.47.3 (0)
 -->
<!-- Title: Graphical Class Hierarchy Pages: 1 -->
<svg width="310pt" height="294pt"
 viewBox="0.00 0.00 310.00 294.00" xmlns="http://www.w3.org/2000/svg" xmlns:xlink="http://www.w3.org/1999/xlink">
<g id="graph0" class="graph" transform="scale(1 1) rotate(0) translate(4 290)">
<title>Graphical Class Hierarchy</title>
<polygon fill="white" stroke="transparent" points="-4,4 -4,-290 306,-290 306,4 -4,4"/>
<!-- Node0 -->
<g id="node1" class="node">
<title>Node0</title>
<g id="a_node1"><a xlink:href="namespacemn_1_1stl.html" target="_top" xlink:title=" ">
<polygon fill="white" stroke="black" points="0,-128 0,-158 132,-158 132,-128 0,-128"/>
<text text-anchor="start" x="8" y="-146" font-family="Helvetica,sans-Serif" font-size="10.00">mn::stl::binary_function</text>
<text text-anchor="middle" x="66" y="-135" font-family="Helvetica,sans-Serif" font-size="10.00">&lt; T, T, T &gt;</text>
</a>
</g>
</g>
<!-- Node1 -->
<g id="node2" class="node">
<title>Node1</title>
<g id="a_node2"><a xlink:href="structmn_1_1stl_1_1bit__and.html" target="_top" xlink:title=" ">
<polygon fill="white" stroke="black" points="174.5,-266.5 174.5,-285.5 295.5,-285.5 295.5,-266.5 174.5,-266.5"/>
<text text-anchor="middle" x="235" y="-273.5" font-family="Helvetica,sans-Serif" font-size="10.00">mn::stl::bit_and&lt; T &gt;</text>
</a>
</g>
</g>
<!-- Node0&#45;&gt;Node1 -->
<g id="edge1" class="edge">
<title>Node0&#45;&gt;Node1</title>
<path fill="none" stroke="midnightblue" d="M81.79,-166.5C99.29,-192.4 130.8,-233.52 168,-257 174.15,-260.88 181.12,-263.99 188.16,-266.48"/>
<polygon fill="midnightblue" stroke="midnightblue" points="84.62,-164.44 76.2,-158.02 78.78,-168.3 84.62,-164.44"/>
</g>
<!-- Node2 -->
<g id="node3" class="node">
<title>Node2</title>
<g id="a_node3"><a xlink:href="structmn_1_1stl_1_1bit__or.html" target="_top" xlink:title=" ">
<polygon fill="white" stroke="black" points="178.5,-228.5 178.5,-247.5 291.5,-247.5 291.5,-228.5 178.5,-228.5"/>
<text text-anchor="middle" x="235" y="-235.5" font-family="Helvetica,sans-Serif" font-size="10.00">mn::stl::bit_or&lt; T &gt;</text>
</a>
</g>
</g>
<!-- Node0&#45;&gt;Node2 -->
<g id="edge2" class="edge">
<title>Node0&#45;&gt;Node2</title>
<path fill="none" stroke="midnightblue" d="M90.99,-165.07C110.46,-181.95 139.31,-204.69 168,-219 175.58,-222.78 184.03,-225.92 192.28,-228.49"/>
<polygon fill="midnightblue" stroke="midnightblue" points="93.06,-162.23 83.24,-158.24 88.43,-167.48 93.06,-162.23"/>
</g>
<!-- Node3 -->
<g id="node4" class="node">
<title>Node3</title>
<g id="a_node4"><a xlink:href="structmn_1_1stl_1_1bit__xor.html" target="_top" xlink:title=" ">
<polygon fill="white" stroke="black" points="176,-190.5 176,-209.5 294,-209.5 294,-190.5 176,-190.5"/>
<text text-anchor="middle" x="235" y="-197.5" font-family="Helvetica,sans-Serif" font-size="10.00">mn::stl::bit_xor&lt; T &gt;</text>
</a>
</g>
</g>
<!-- Node0&#45;&gt;Node3 -->
<g id="edge3" class="edge">
<title>Node0&#45;&gt;Node3</title>
<path fill="none" stroke="midnightblue" d="M114.69,-161.83C131.44,-168.21 150.46,-175.19 168,-181 177.96,-184.3 188.87,-187.58 198.9,-190.46"/>
<polygon fill="midnightblue" stroke="midnightblue" points="115.7,-158.47 105.11,-158.16 113.2,-165.01 115.7,-158.47"/>
</g>
<!-- Node4 -->
<g id="node5" class="node">
<title>Node4</title>
<g id="a_node5"><a xlink:href="structmn_1_1stl_1_1divides.html" target="_top" xlink:title=" ">
<polygon fill="white" stroke="black" points="175,-152.5 175,-171.5 295,-171.5 295,-152.5 175,-152.5"/>
<text text-anchor="middle" x="235" y="-159.5" font-family="Helvetica,sans-Serif" font-size="10.00">mn::stl::divides&lt; T &gt;</text>
</a>
</g>
</g>
<!-- Node0&#45;&gt;Node4 -->
<g id="edge4" class="edge">
<title>Node0&#45;&gt;Node4</title>
<path fill="none" stroke="midnightblue" d="M142.06,-151.54C153.05,-152.79 164.24,-154.06 174.85,-155.27"/>
<polygon fill="midnightblue" stroke="midnightblue" points="142.38,-148.05 132.04,-150.4 141.58,-155.01 142.38,-148.05"/>
</g>
<!-- Node5 -->
<g id="node6" class="node">
<title>Node5</title>
<g id="a_node6"><a xlink:href="structmn_1_1stl_1_1minus.html" target="_top" xlink:title=" ">
<polygon fill="white" stroke="black" points="177.5,-114.5 177.5,-133.5 292.5,-133.5 292.5,-114.5 177.5,-114.5"/>
<text text-anchor="middle" x="235" y="-121.5" font-family="Helvetica,sans-Serif" font-size="10.00">mn::stl::minus&lt; T &gt;</text>
</a>
</g>
</g>
<!-- Node0&#45;&gt;Node5 -->
<g id="edge5" class="edge">
<title>Node0&#45;&gt;Node5</title>
<path fill="none" stroke="midnightblue" d="M142.3,-134.43C154.05,-133.1 166.02,-131.73 177.27,-130.45"/>
<polygon fill="midnightblue" stroke="midnightblue" points="141.58,-130.99 132.04,-135.6 142.38,-137.95 141.58,-130.99"/>
</g>
<!-- Node6 -->
<g id="node7" class="node">
<title>Node6</title>
<g id="a_node7"><a xlink:href="structmn_1_1stl_1_1modulus.html" target="_top" xlink:title=" ">
<polygon fill="white" stroke="black" points="171.5,-76.5 171.5,-95.5 298.5,-95.5 298.5,-76.5 171.5,-76.5"/>
<text text-anchor="middle" x="235" y="-83.5" font-family="Helvetica,sans-Serif" font-size="10.00">mn::stl::modulus&lt; T &gt;</text>
</a>
</g>
</g>
<!-- Node0&#45;&gt;Node6 -->
<g id="edge6" class="edge">
<title>Node0&#45;&gt;Node6</title>
<path fill="none" stroke="midnightblue" d="M114.69,-124.17C131.44,-117.79 150.46,-110.81 168,-105 177.96,-101.7 188.87,-98.42 198.9,-95.54"/>
<polygon fill="midnightblue" stroke="midnightblue" points="113.2,-120.99 105.11,-127.84 115.7,-127.53 113.2,-120.99"/>
</g>
<!-- Node7 -->
<g id="node8" class="node">
<title>Node7</title>
<g id="a_node8"><a xlink:href="structmn_1_1stl_1_1multiplies.html" target="_top" xlink:title=" ">
<polygon fill="white" stroke="black" points="168,-38.5 168,-57.5 302,-57.5 302,-38.5 168,-38.5"/>
<text text-anchor="middle" x="235" y="-45.5" font-family="Helvetica,sans-Serif" font-size="10.00">mn::stl::multiplies&lt; T &gt;</text>
</a>
</g>
</g>
<!-- Node0&#45;&gt;Node7 -->
<g id="edge7" class="edge">
<title>Node0&#45;&gt;Node7</title>
<path fill="none" stroke="midnightblue" d="M90.99,-120.93C110.46,-104.05 139.31,-81.31 168,-67 175.58,-63.22 184.03,-60.08 192.28,-57.51"/>
<polygon fill="midnightblue" stroke="midnightblue" points="88.43,-118.52 83.24,-127.76 93.06,-123.77 88.43,-118.52"/>
</g>
<!-- Node8 -->
<g id="node9" class="node">
<title>Node8</title>
<g id="a_node9"><a xlink:href="structmn_1_1stl_1_1plus.html" target="_top" xlink:title=" ">
<polygon fill="white" stroke="black" points="182.5,-0.5 182.5,-19.5 287.5,-19.5 287.5,-0.5 182.5,-0.5"/>
<text text-anchor="middle" x="235" y="-7.5" font-family="Helvetica,sans-Serif" font-size="10.00">mn::stl::plus&lt; T &gt;</text>
</a>
</g>
</g>
<!-- Node0&#45;&gt;Node8 -->
<g id="edge8" class="edge">
<title>Node0&#45;&gt;Node8</title>
<path fill="none" stroke="midnightblue" d="M81.79,-119.5C99.29,-93.6 130.8,-52.48 168,-29 174.15,-25.12 181.12,-22.01 188.16,-19.52"/>
<polygon fill="midnightblue" stroke="midnightblue" points="78.78,-117.7 76.2,-127.98 84.62,-121.56 78.78,-117.7"/>
</g>
</g>
</svg>
