<?xml version="1.0" encoding="UTF-8" standalone="no"?>
<!DOCTYPE svg PUBLIC "-//W3C//DTD SVG 1.1//EN"
 "http://www.w3.org/Graphics/SVG/1.1/DTD/svg11.dtd">
<!-- Generated by graphviz version 2.46.0 (0)
 -->
<!-- Title: Graphical Class Hierarchy Pages: 1 -->
<svg width="310pt" height="382pt"
 viewBox="0.00 0.00 310.00 382.00" xmlns="http://www.w3.org/2000/svg" xmlns:xlink="http://www.w3.org/1999/xlink">
<g id="graph0" class="graph" transform="scale(1 1) rotate(0) translate(4 378)">
<title>Graphical Class Hierarchy</title>
<polygon fill="white" stroke="transparent" points="-4,4 -4,-378 306,-378 306,4 -4,4"/>
<!-- Node0 -->
<g id="node1" class="node">
<title>Node0</title>
<g id="a_node1"><a xlink:href="structmn_1_1pointer_1_1basic__linked__ptr__node.html" target="_top" xlink:title="This class allows basic_linked_ptr&lt;T&gt; and basic_linked_ptr to share the same base nodes.">
<polygon fill="white" stroke="black" points="4.5,-343.5 4.5,-373.5 108.5,-373.5 108.5,-343.5 4.5,-343.5"/>
<text text-anchor="start" x="12.5" y="-361.5" font-family="Helvetica,sans-Serif" font-size="10.00">mn::pointer::basic</text>
<text text-anchor="middle" x="56.5" y="-350.5" font-family="Helvetica,sans-Serif" font-size="10.00">_linked_ptr_node</text>
</a>
</g>
</g>
<!-- Node1 -->
<g id="node2" class="node">
<title>Node1</title>
<g id="a_node2"><a xlink:href="classmn_1_1pointer_1_1basic__linked__ptr.html" target="_top" xlink:title="This class implements a basic_linked_ptr template that it allows sharing of pointers between instance...">
<polygon fill="white" stroke="black" points="173.5,-343.5 173.5,-373.5 277.5,-373.5 277.5,-343.5 173.5,-343.5"/>
<text text-anchor="start" x="181.5" y="-361.5" font-family="Helvetica,sans-Serif" font-size="10.00">mn::pointer::basic</text>
<text text-anchor="middle" x="225.5" y="-350.5" font-family="Helvetica,sans-Serif" font-size="10.00">_linked_ptr&lt; T &gt;</text>
</a>
</g>
</g>
<!-- Node0&#45;&gt;Node1 -->
<g id="edge1" class="edge">
<title>Node0&#45;&gt;Node1</title>
<path fill="none" stroke="midnightblue" d="M118.59,-358.5C136.53,-358.5 155.96,-358.5 173.22,-358.5"/>
<polygon fill="midnightblue" stroke="midnightblue" points="118.51,-355 108.51,-358.5 118.51,-362 118.51,-355"/>
</g>
<!-- Node111 -->
<g id="node3" class="node">
<title>Node111</title>
<g id="a_node3"><a xlink:href="classmn_1_1pointer_1_1clone__ptr__interface.html" target="_top" xlink:title=" ">
<polygon fill="white" stroke="black" points="0,-294.5 0,-324.5 113,-324.5 113,-294.5 0,-294.5"/>
<text text-anchor="start" x="8" y="-312.5" font-family="Helvetica,sans-Serif" font-size="10.00">mn::pointer::clone</text>
<text text-anchor="middle" x="56.5" y="-301.5" font-family="Helvetica,sans-Serif" font-size="10.00">_ptr_interface&lt; T &gt;</text>
</a>
</g>
</g>
<!-- Node112 -->
<g id="node4" class="node">
<title>Node112</title>
<g id="a_node4"><a xlink:href="classmn_1_1pointer_1_1basic__clone__ptr.html" target="_top" xlink:title=" ">
<polygon fill="white" stroke="black" points="150,-294.5 150,-324.5 301,-324.5 301,-294.5 150,-294.5"/>
<text text-anchor="start" x="158" y="-312.5" font-family="Helvetica,sans-Serif" font-size="10.00">mn::pointer::basic</text>
<text text-anchor="middle" x="225.5" y="-301.5" font-family="Helvetica,sans-Serif" font-size="10.00">_clone_ptr&lt; T, TInterface &gt;</text>
</a>
</g>
</g>
<!-- Node111&#45;&gt;Node112 -->
<g id="edge2" class="edge">
<title>Node111&#45;&gt;Node112</title>
<path fill="none" stroke="midnightblue" d="M123.21,-309.5C131.94,-309.5 140.95,-309.5 149.81,-309.5"/>
<polygon fill="midnightblue" stroke="midnightblue" points="123.11,-306 113.11,-309.5 123.11,-313 123.11,-306"/>
</g>
<!-- Node210 -->
<g id="node5" class="node">
<title>Node210</title>
<g id="a_node5"><a xlink:href="structmn_1_1pointer_1_1pointer__ptr.html" target="_top" xlink:title=" ">
<polygon fill="white" stroke="black" points="0,-171.5 0,-201.5 113,-201.5 113,-171.5 0,-171.5"/>
<text text-anchor="start" x="8" y="-189.5" font-family="Helvetica,sans-Serif" font-size="10.00">mn::pointer::pointer</text>
<text text-anchor="middle" x="56.5" y="-178.5" font-family="Helvetica,sans-Serif" font-size="10.00">_ptr&lt; T &gt;</text>
</a>
</g>
</g>
<!-- Node210&#45;&gt;Node1 -->
<g id="edge5" class="edge">
<title>Node210&#45;&gt;Node1</title>
<path fill="none" stroke="#8b1a1a" d="M71.09,-210.47C93.74,-250.1 137.81,-325.77 149,-334.5 156.16,-340.08 164.64,-344.38 173.3,-347.69"/>
<polygon fill="#8b1a1a" stroke="#8b1a1a" points="74.08,-208.65 66.09,-201.69 68,-212.11 74.08,-208.65"/>
</g>
<!-- Node210&#45;&gt;Node112 -->
<g id="edge4" class="edge">
<title>Node210&#45;&gt;Node112</title>
<path fill="none" stroke="#8b1a1a" d="M73.46,-209.81C89.94,-232.22 117.61,-265.55 149,-285.5 154.34,-288.89 160.2,-291.84 166.22,-294.4"/>
<polygon fill="#8b1a1a" stroke="#8b1a1a" points="76.18,-207.6 67.5,-201.52 70.49,-211.68 76.18,-207.6"/>
</g>
<!-- Node211 -->
<g id="node6" class="node">
<title>Node211</title>
<g id="a_node6"><a xlink:href="classmn_1_1pointer_1_1basic__any__ptr.html" target="_top" xlink:title=" ">
<polygon fill="white" stroke="black" points="173.5,-245.5 173.5,-275.5 277.5,-275.5 277.5,-245.5 173.5,-245.5"/>
<text text-anchor="start" x="181.5" y="-263.5" font-family="Helvetica,sans-Serif" font-size="10.00">mn::pointer::basic</text>
<text text-anchor="middle" x="225.5" y="-252.5" font-family="Helvetica,sans-Serif" font-size="10.00">_any_ptr&lt; T &gt;</text>
</a>
</g>
</g>
<!-- Node210&#45;&gt;Node211 -->
<g id="edge3" class="edge">
<title>Node210&#45;&gt;Node211</title>
<path fill="none" stroke="#8b1a1a" d="M91.88,-206.72C108.75,-216.18 129.58,-227.16 149,-235.5 157.25,-239.04 166.17,-242.4 174.9,-245.43"/>
<polygon fill="#8b1a1a" stroke="#8b1a1a" points="93.37,-203.55 82.95,-201.65 89.92,-209.63 93.37,-203.55"/>
</g>
<!-- Node212 -->
<g id="node7" class="node">
<title>Node212</title>
<g id="a_node7"><a xlink:href="classmn_1_1pointer_1_1basic__save__ptr.html" target="_top" xlink:title=" ">
<polygon fill="white" stroke="black" points="173.5,-196.5 173.5,-226.5 277.5,-226.5 277.5,-196.5 173.5,-196.5"/>
<text text-anchor="start" x="181.5" y="-214.5" font-family="Helvetica,sans-Serif" font-size="10.00">mn::pointer::basic</text>
<text text-anchor="middle" x="225.5" y="-203.5" font-family="Helvetica,sans-Serif" font-size="10.00">_save_ptr&lt; T &gt;</text>
</a>
</g>
</g>
<!-- Node210&#45;&gt;Node212 -->
<g id="edge6" class="edge">
<title>Node210&#45;&gt;Node212</title>
<path fill="none" stroke="#8b1a1a" d="M123.32,-196.35C139.95,-198.84 157.57,-201.48 173.36,-203.84"/>
<polygon fill="#8b1a1a" stroke="#8b1a1a" points="123.52,-192.84 113.11,-194.82 122.48,-199.77 123.52,-192.84"/>
</g>
<!-- Node213 -->
<g id="node8" class="node">
<title>Node213</title>
<g id="a_node8"><a xlink:href="classmn_1_1pointer_1_1basic__scoped__ptr.html" target="_top" xlink:title=" ">
<polygon fill="white" stroke="black" points="173.5,-147.5 173.5,-177.5 277.5,-177.5 277.5,-147.5 173.5,-147.5"/>
<text text-anchor="start" x="181.5" y="-165.5" font-family="Helvetica,sans-Serif" font-size="10.00">mn::pointer::basic</text>
<text text-anchor="middle" x="225.5" y="-154.5" font-family="Helvetica,sans-Serif" font-size="10.00">_scoped_ptr&lt; T &gt;</text>
</a>
</g>
</g>
<!-- Node210&#45;&gt;Node213 -->
<g id="edge7" class="edge">
<title>Node210&#45;&gt;Node213</title>
<path fill="none" stroke="#8b1a1a" d="M123.32,-177.04C139.95,-174.65 157.57,-172.12 173.36,-169.85"/>
<polygon fill="#8b1a1a" stroke="#8b1a1a" points="122.51,-173.62 113.11,-178.51 123.5,-180.55 122.51,-173.62"/>
</g>
<!-- Node214 -->
<g id="node9" class="node">
<title>Node214</title>
<g id="a_node9"><a xlink:href="classmn_1_1pointer_1_1basic__shared__ptr.html" target="_top" xlink:title=" ">
<polygon fill="white" stroke="black" points="149,-98.5 149,-128.5 302,-128.5 302,-98.5 149,-98.5"/>
<text text-anchor="start" x="157" y="-116.5" font-family="Helvetica,sans-Serif" font-size="10.00">mn::pointer::basic</text>
<text text-anchor="middle" x="225.5" y="-105.5" font-family="Helvetica,sans-Serif" font-size="10.00">_shared_ptr&lt; T, TRefType &gt;</text>
</a>
</g>
</g>
<!-- Node210&#45;&gt;Node214 -->
<g id="edge8" class="edge">
<title>Node210&#45;&gt;Node214</title>
<path fill="none" stroke="#8b1a1a" d="M91.47,-166.38C108.4,-156.86 129.39,-145.78 149,-137.5 156.6,-134.29 164.79,-131.26 172.87,-128.52"/>
<polygon fill="#8b1a1a" stroke="#8b1a1a" points="89.47,-163.49 82.52,-171.48 92.94,-169.57 89.47,-163.49"/>
</g>
<!-- Node215 -->
<g id="node10" class="node">
<title>Node215</title>
<g id="a_node10"><a xlink:href="classmn_1_1pointer_1_1basic__weak__ptr.html" target="_top" xlink:title=" ">
<polygon fill="white" stroke="black" points="152.5,-49.5 152.5,-79.5 298.5,-79.5 298.5,-49.5 152.5,-49.5"/>
<text text-anchor="start" x="160.5" y="-67.5" font-family="Helvetica,sans-Serif" font-size="10.00">mn::pointer::basic</text>
<text text-anchor="middle" x="225.5" y="-56.5" font-family="Helvetica,sans-Serif" font-size="10.00">_weak_ptr&lt; T, TRefType &gt;</text>
</a>
</g>
</g>
<!-- Node210&#45;&gt;Node215 -->
<g id="edge9" class="edge">
<title>Node210&#45;&gt;Node215</title>
<path fill="none" stroke="#8b1a1a" d="M73.79,-163.06C90.34,-140.89 117.91,-108.15 149,-88.5 154.35,-85.12 160.21,-82.18 166.23,-79.63"/>
<polygon fill="#8b1a1a" stroke="#8b1a1a" points="70.86,-161.14 67.8,-171.28 76.51,-165.26 70.86,-161.14"/>
</g>
<!-- Node216 -->
<g id="node11" class="node">
<title>Node216</title>
<g id="a_node11"><a xlink:href="classmn_1_1pointer_1_1node__ptr.html" target="_top" xlink:title=" ">
<polygon fill="white" stroke="black" points="164.5,-0.5 164.5,-30.5 286.5,-30.5 286.5,-0.5 164.5,-0.5"/>
<text text-anchor="start" x="172.5" y="-18.5" font-family="Helvetica,sans-Serif" font-size="10.00">mn::pointer::node_ptr</text>
<text text-anchor="middle" x="225.5" y="-7.5" font-family="Helvetica,sans-Serif" font-size="10.00">&lt; T, TAllocator &gt;</text>
</a>
</g>
</g>
<!-- Node210&#45;&gt;Node216 -->
<g id="edge10" class="edge">
<title>Node210&#45;&gt;Node216</title>
<path fill="none" stroke="#8b1a1a" d="M66.7,-161.39C79.94,-128.66 107.46,-71.8 149,-39.5 153.67,-35.87 158.9,-32.78 164.37,-30.16"/>
<polygon fill="#8b1a1a" stroke="#8b1a1a" points="63.28,-160.52 62.9,-171.11 69.8,-163.07 63.28,-160.52"/>
</g>
</g>
</svg>
