<?xml version="1.0" encoding="UTF-8" standalone="no"?>
<!DOCTYPE svg PUBLIC "-//W3C//DTD SVG 1.1//EN"
 "http://www.w3.org/Graphics/SVG/1.1/DTD/svg11.dtd">
<!-- Generated by graphviz version 2.47.3 (0)
 -->
<!-- Title: Graphical Class Hierarchy Pages: 1 -->
<svg width="297pt" height="78pt"
 viewBox="0.00 0.00 297.00 77.50" xmlns="http://www.w3.org/2000/svg" xmlns:xlink="http://www.w3.org/1999/xlink">
<g id="graph0" class="graph" transform="scale(1 1) rotate(0) translate(4 73.5)">
<title>Graphical Class Hierarchy</title>
<polygon fill="white" stroke="transparent" points="-4,4 -4,-73.5 293,-73.5 293,4 -4,4"/>
<!-- Node0 -->
<g id="node1" class="node">
<title>Node0</title>
<g id="a_node1"><a xlink:href="classmn_1_1device_1_1system__stream.html" target="_top" xlink:title="A simple abstractes class for easy handle any flash drivers.">
<polygon fill="white" stroke="black" points="0,-22.5 0,-52.5 113,-52.5 113,-22.5 0,-22.5"/>
<text text-anchor="start" x="8" y="-40.5" font-family="Helvetica,sans-Serif" font-size="10.00">mn::device::system</text>
<text text-anchor="middle" x="56.5" y="-29.5" font-family="Helvetica,sans-Serif" font-size="10.00">_stream</text>
</a>
</g>
</g>
<!-- Node1 -->
<g id="node2" class="node">
<title>Node1</title>
<g id="a_node2"><a xlink:href="classmn_1_1device_1_1flash__stream.html" target="_top" xlink:title=" ">
<polygon fill="white" stroke="black" points="149,-50 149,-69 289,-69 289,-50 149,-50"/>
<text text-anchor="middle" x="219" y="-57" font-family="Helvetica,sans-Serif" font-size="10.00">mn::device::flash_stream</text>
</a>
</g>
</g>
<!-- Node0&#45;&gt;Node1 -->
<g id="edge1" class="edge">
<title>Node0&#45;&gt;Node1</title>
<path fill="none" stroke="midnightblue" d="M123.32,-46.52C131.73,-47.68 140.37,-48.86 148.84,-50.02"/>
<polygon fill="midnightblue" stroke="midnightblue" points="123.57,-43.02 113.18,-45.13 122.62,-49.96 123.57,-43.02"/>
</g>
<!-- Node2 -->
<g id="node3" class="node">
<title>Node2</title>
<g id="a_node3"><a xlink:href="classmn_1_1device_1_1partition__stream.html" target="_top" xlink:title=" ">
<polygon fill="white" stroke="black" points="160,-0.5 160,-30.5 278,-30.5 278,-0.5 160,-0.5"/>
<text text-anchor="start" x="168" y="-18.5" font-family="Helvetica,sans-Serif" font-size="10.00">mn::device::partition</text>
<text text-anchor="middle" x="219" y="-7.5" font-family="Helvetica,sans-Serif" font-size="10.00">_stream</text>
</a>
</g>
</g>
<!-- Node0&#45;&gt;Node2 -->
<g id="edge2" class="edge">
<title>Node0&#45;&gt;Node2</title>
<path fill="none" stroke="midnightblue" d="M123.27,-28.49C135.43,-26.82 148.05,-25.09 159.96,-23.46"/>
<polygon fill="midnightblue" stroke="midnightblue" points="122.62,-25.04 113.18,-29.87 123.57,-31.98 122.62,-25.04"/>
</g>
</g>
</svg>
