<?xml version="1.0" encoding="UTF-8" standalone="no"?>
<!DOCTYPE svg PUBLIC "-//W3C//DTD SVG 1.1//EN"
 "http://www.w3.org/Graphics/SVG/1.1/DTD/svg11.dtd">
<!-- Generated by graphviz version 2.46.0 (0)
 -->
<!-- Title: Graphical Class Hierarchy Pages: 1 -->
<svg width="304pt" height="654pt"
 viewBox="0.00 0.00 304.00 654.00" xmlns="http://www.w3.org/2000/svg" xmlns:xlink="http://www.w3.org/1999/xlink">
<g id="graph0" class="graph" transform="scale(1 1) rotate(0) translate(4 650)">
<title>Graphical Class Hierarchy</title>
<polygon fill="white" stroke="transparent" points="-4,4 -4,-650 300,-650 300,4 -4,4"/>
<!-- Node13 -->
<g id="node1" class="node">
<title>Node13</title>
<g id="a_node1"><a xlink:title=" ">
<polygon fill="white" stroke="#bfbfbf" points="0,-341.5 0,-360.5 115,-360.5 115,-341.5 0,-341.5"/>
<text text-anchor="middle" x="57.5" y="-348.5" font-family="Helvetica,sans-Serif" font-size="10.00">BASE_ATOMIC_TYPE</text>
</a>
</g>
</g>
<!-- Node0 -->
<g id="node2" class="node">
<title>Node0</title>
<g id="a_node2"><a xlink:href="structmn_1_1__atomic.html" target="_top" xlink:title="Only for declar special version for types.">
<polygon fill="white" stroke="black" points="170.5,-626.5 170.5,-645.5 276.5,-645.5 276.5,-626.5 170.5,-626.5"/>
<text text-anchor="middle" x="223.5" y="-633.5" font-family="Helvetica,sans-Serif" font-size="10.00">mn::_atomic&lt; T &gt;</text>
</a>
</g>
</g>
<!-- Node13&#45;&gt;Node0 -->
<g id="edge1" class="edge">
<title>Node13&#45;&gt;Node0</title>
<path fill="none" stroke="midnightblue" d="M59.34,-370.97C62.54,-420.36 77.83,-549.12 151,-617 156.46,-622.07 163.12,-625.81 170.15,-628.58"/>
<polygon fill="midnightblue" stroke="midnightblue" points="62.82,-370.49 58.78,-360.7 55.83,-370.87 62.82,-370.49"/>
</g>
<!-- Node15 -->
<g id="node3" class="node">
<title>Node15</title>
<g id="a_node3"><a xlink:href="structmn_1_1__atomic_3_01bool_01_4.html" target="_top" xlink:title="Special version for bool.">
<polygon fill="white" stroke="black" points="163,-588.5 163,-607.5 284,-607.5 284,-588.5 163,-588.5"/>
<text text-anchor="middle" x="223.5" y="-595.5" font-family="Helvetica,sans-Serif" font-size="10.00">mn::_atomic&lt; bool &gt;</text>
</a>
</g>
</g>
<!-- Node13&#45;&gt;Node15 -->
<g id="edge2" class="edge">
<title>Node13&#45;&gt;Node15</title>
<path fill="none" stroke="midnightblue" d="M60.6,-370.49C66.39,-414.54 86.74,-522.35 151,-579 155.34,-582.82 160.36,-585.89 165.69,-588.34"/>
<polygon fill="midnightblue" stroke="midnightblue" points="64.06,-370.02 59.39,-360.51 57.11,-370.86 64.06,-370.02"/>
</g>
<!-- Node16 -->
<g id="node4" class="node">
<title>Node16</title>
<g id="a_node4"><a xlink:href="structmn_1_1__atomic_3_01char_01_4.html" target="_top" xlink:title="Special version for char.">
<polygon fill="white" stroke="black" points="163,-550.5 163,-569.5 284,-569.5 284,-550.5 163,-550.5"/>
<text text-anchor="middle" x="223.5" y="-557.5" font-family="Helvetica,sans-Serif" font-size="10.00">mn::_atomic&lt; char &gt;</text>
</a>
</g>
</g>
<!-- Node13&#45;&gt;Node16 -->
<g id="edge3" class="edge">
<title>Node13&#45;&gt;Node16</title>
<path fill="none" stroke="midnightblue" d="M62.38,-370.61C71.07,-409.29 95.83,-495.58 151,-541 155.66,-544.84 161.02,-547.9 166.66,-550.36"/>
<polygon fill="midnightblue" stroke="midnightblue" points="65.76,-369.69 60.26,-360.64 58.91,-371.14 65.76,-369.69"/>
</g>
<!-- Node17 -->
<g id="node5" class="node">
<title>Node17</title>
<g id="a_node5"><a xlink:href="structmn_1_1__atomic_3_01char16__t_01_4.html" target="_top" xlink:title="Special version for char16_t.">
<polygon fill="white" stroke="black" points="152.5,-512.5 152.5,-531.5 294.5,-531.5 294.5,-512.5 152.5,-512.5"/>
<text text-anchor="middle" x="223.5" y="-519.5" font-family="Helvetica,sans-Serif" font-size="10.00">mn::_atomic&lt; char16_t &gt;</text>
</a>
</g>
</g>
<!-- Node13&#45;&gt;Node17 -->
<g id="edge4" class="edge">
<title>Node13&#45;&gt;Node17</title>
<path fill="none" stroke="midnightblue" d="M64.81,-370.23C76.47,-402.71 104.54,-468.27 151,-503 156.14,-506.85 162.01,-509.91 168.11,-512.36"/>
<polygon fill="midnightblue" stroke="midnightblue" points="68.05,-368.89 61.48,-360.58 61.43,-371.17 68.05,-368.89"/>
</g>
<!-- Node18 -->
<g id="node6" class="node">
<title>Node18</title>
<g id="a_node6"><a xlink:href="structmn_1_1__atomic_3_01char32__t_01_4.html" target="_top" xlink:title="Special version for char32_t.">
<polygon fill="white" stroke="black" points="152.5,-474.5 152.5,-493.5 294.5,-493.5 294.5,-474.5 152.5,-474.5"/>
<text text-anchor="middle" x="223.5" y="-481.5" font-family="Helvetica,sans-Serif" font-size="10.00">mn::_atomic&lt; char32_t &gt;</text>
</a>
</g>
</g>
<!-- Node13&#45;&gt;Node18 -->
<g id="edge5" class="edge">
<title>Node13&#45;&gt;Node18</title>
<path fill="none" stroke="midnightblue" d="M68.56,-369.67C83.26,-395.15 113.03,-440.43 151,-465 157.04,-468.91 163.86,-472.02 170.82,-474.49"/>
<polygon fill="midnightblue" stroke="midnightblue" points="71.46,-367.69 63.52,-360.67 65.35,-371.11 71.46,-367.69"/>
</g>
<!-- Node19 -->
<g id="node7" class="node">
<title>Node19</title>
<g id="a_node7"><a xlink:href="structmn_1_1__atomic_3_01int_01_4.html" target="_top" xlink:title="Special version for int.">
<polygon fill="white" stroke="black" points="167,-436.5 167,-455.5 280,-455.5 280,-436.5 167,-436.5"/>
<text text-anchor="middle" x="223.5" y="-443.5" font-family="Helvetica,sans-Serif" font-size="10.00">mn::_atomic&lt; int &gt;</text>
</a>
</g>
</g>
<!-- Node13&#45;&gt;Node19 -->
<g id="edge6" class="edge">
<title>Node13&#45;&gt;Node19</title>
<path fill="none" stroke="midnightblue" d="M74.58,-367.95C91.9,-385.23 121.01,-411.62 151,-427 158.43,-430.81 166.7,-433.91 174.89,-436.41"/>
<polygon fill="midnightblue" stroke="midnightblue" points="77,-365.41 67.5,-360.72 72,-370.31 77,-365.41"/>
</g>
<!-- Node20 -->
<g id="node8" class="node">
<title>Node20</title>
<g id="a_node8"><a xlink:href="structmn_1_1__atomic_3_01long_01_4.html" target="_top" xlink:title="Special version for long.">
<polygon fill="white" stroke="black" points="163,-398.5 163,-417.5 284,-417.5 284,-398.5 163,-398.5"/>
<text text-anchor="middle" x="223.5" y="-405.5" font-family="Helvetica,sans-Serif" font-size="10.00">mn::_atomic&lt; long &gt;</text>
</a>
</g>
</g>
<!-- Node13&#45;&gt;Node20 -->
<g id="edge7" class="edge">
<title>Node13&#45;&gt;Node20</title>
<path fill="none" stroke="midnightblue" d="M88.85,-364.64C106.72,-372.37 129.9,-381.9 151,-389 161.22,-392.44 172.44,-395.67 182.89,-398.46"/>
<polygon fill="midnightblue" stroke="midnightblue" points="90.08,-361.35 79.51,-360.55 87.27,-367.77 90.08,-361.35"/>
</g>
<!-- Node21 -->
<g id="node9" class="node">
<title>Node21</title>
<g id="a_node9"><a xlink:href="structmn_1_1__atomic_3_01long_01long_01_4.html" target="_top" xlink:title="Special version for long long.">
<polygon fill="white" stroke="black" points="151,-360.5 151,-379.5 296,-379.5 296,-360.5 151,-360.5"/>
<text text-anchor="middle" x="223.5" y="-367.5" font-family="Helvetica,sans-Serif" font-size="10.00">mn::_atomic&lt; long long &gt;</text>
</a>
</g>
</g>
<!-- Node13&#45;&gt;Node21 -->
<g id="edge8" class="edge">
<title>Node13&#45;&gt;Node21</title>
<path fill="none" stroke="midnightblue" d="M125.5,-358.76C133.9,-359.74 142.51,-360.73 150.97,-361.71"/>
<polygon fill="midnightblue" stroke="midnightblue" points="125.74,-355.27 115.4,-357.59 124.93,-362.22 125.74,-355.27"/>
</g>
<!-- Node22 -->
<g id="node10" class="node">
<title>Node22</title>
<g id="a_node10"><a xlink:href="structmn_1_1__atomic_3_01short_01_4.html" target="_top" xlink:title="Special version for short.">
<polygon fill="white" stroke="black" points="161,-322.5 161,-341.5 286,-341.5 286,-322.5 161,-322.5"/>
<text text-anchor="middle" x="223.5" y="-329.5" font-family="Helvetica,sans-Serif" font-size="10.00">mn::_atomic&lt; short &gt;</text>
</a>
</g>
</g>
<!-- Node13&#45;&gt;Node22 -->
<g id="edge9" class="edge">
<title>Node13&#45;&gt;Node22</title>
<path fill="none" stroke="midnightblue" d="M125.56,-343.23C137.26,-341.87 149.39,-340.47 160.95,-339.13"/>
<polygon fill="midnightblue" stroke="midnightblue" points="124.93,-339.78 115.4,-344.41 125.74,-346.73 124.93,-339.78"/>
</g>
<!-- Node23 -->
<g id="node11" class="node">
<title>Node23</title>
<g id="a_node11"><a xlink:href="structmn_1_1__atomic_3_01signed_01char_01_4.html" target="_top" xlink:title="Special version for signed char.">
<polygon fill="white" stroke="black" points="163,-273 163,-303 284,-303 284,-273 163,-273"/>
<text text-anchor="start" x="171" y="-291" font-family="Helvetica,sans-Serif" font-size="10.00">mn::_atomic&lt; signed</text>
<text text-anchor="middle" x="223.5" y="-280" font-family="Helvetica,sans-Serif" font-size="10.00"> char &gt;</text>
</a>
</g>
</g>
<!-- Node13&#45;&gt;Node23 -->
<g id="edge10" class="edge">
<title>Node13&#45;&gt;Node23</title>
<path fill="none" stroke="midnightblue" d="M90.13,-337.51C107.92,-330.05 130.6,-320.75 151,-313 159.73,-309.68 169.11,-306.28 178.12,-303.1"/>
<polygon fill="midnightblue" stroke="midnightblue" points="88.65,-334.34 80.8,-341.45 91.37,-340.79 88.65,-334.34"/>
</g>
<!-- Node24 -->
<g id="node12" class="node">
<title>Node24</title>
<g id="a_node12"><a xlink:href="structmn_1_1__atomic_3_01unsigned_01char_01_4.html" target="_top" xlink:title="Special version for unsigned char.">
<polygon fill="white" stroke="black" points="157,-224 157,-254 290,-254 290,-224 157,-224"/>
<text text-anchor="start" x="165" y="-242" font-family="Helvetica,sans-Serif" font-size="10.00">mn::_atomic&lt; unsigned</text>
<text text-anchor="middle" x="223.5" y="-231" font-family="Helvetica,sans-Serif" font-size="10.00"> char &gt;</text>
</a>
</g>
</g>
<!-- Node13&#45;&gt;Node24 -->
<g id="edge11" class="edge">
<title>Node13&#45;&gt;Node24</title>
<path fill="none" stroke="midnightblue" d="M73.04,-333.48C89.97,-314.07 119.64,-283.03 151,-264 157.18,-260.25 164.01,-256.95 170.92,-254.09"/>
<polygon fill="midnightblue" stroke="midnightblue" points="70.24,-331.37 66.4,-341.25 75.56,-335.92 70.24,-331.37"/>
</g>
<!-- Node25 -->
<g id="node13" class="node">
<title>Node25</title>
<g id="a_node13"><a xlink:href="structmn_1_1__atomic_3_01unsigned_01int_01_4.html" target="_top" xlink:title="Special version for int.">
<polygon fill="white" stroke="black" points="157,-175 157,-205 290,-205 290,-175 157,-175"/>
<text text-anchor="start" x="165" y="-193" font-family="Helvetica,sans-Serif" font-size="10.00">mn::_atomic&lt; unsigned</text>
<text text-anchor="middle" x="223.5" y="-182" font-family="Helvetica,sans-Serif" font-size="10.00"> int &gt;</text>
</a>
</g>
</g>
<!-- Node13&#45;&gt;Node25 -->
<g id="edge12" class="edge">
<title>Node13&#45;&gt;Node25</title>
<path fill="none" stroke="midnightblue" d="M66.76,-331.69C80.23,-302.39 109.65,-246.76 151,-215 156.01,-211.16 161.65,-207.87 167.51,-205.08"/>
<polygon fill="midnightblue" stroke="midnightblue" points="63.39,-330.64 62.52,-341.2 69.79,-333.49 63.39,-330.64"/>
</g>
<!-- Node26 -->
<g id="node14" class="node">
<title>Node26</title>
<g id="a_node14"><a xlink:href="structmn_1_1__atomic_3_01unsigned_01long_01_4.html" target="_top" xlink:title="Special version for long.">
<polygon fill="white" stroke="black" points="157,-126 157,-156 290,-156 290,-126 157,-126"/>
<text text-anchor="start" x="165" y="-144" font-family="Helvetica,sans-Serif" font-size="10.00">mn::_atomic&lt; unsigned</text>
<text text-anchor="middle" x="223.5" y="-133" font-family="Helvetica,sans-Serif" font-size="10.00"> long &gt;</text>
</a>
</g>
</g>
<!-- Node13&#45;&gt;Node26 -->
<g id="edge13" class="edge">
<title>Node13&#45;&gt;Node26</title>
<path fill="none" stroke="midnightblue" d="M63.09,-331.24C72.81,-293.71 98.97,-211.8 151,-166 155.34,-162.18 160.31,-158.93 165.55,-156.17"/>
<polygon fill="midnightblue" stroke="midnightblue" points="59.59,-330.83 60.59,-341.37 66.39,-332.5 59.59,-330.83"/>
</g>
<!-- Node27 -->
<g id="node15" class="node">
<title>Node27</title>
<g id="a_node15"><a xlink:href="structmn_1_1__atomic_3_01unsigned_01short_01_4.html" target="_top" xlink:title="Special version for short.">
<polygon fill="white" stroke="black" points="157,-77 157,-107 290,-107 290,-77 157,-77"/>
<text text-anchor="start" x="165" y="-95" font-family="Helvetica,sans-Serif" font-size="10.00">mn::_atomic&lt; unsigned</text>
<text text-anchor="middle" x="223.5" y="-84" font-family="Helvetica,sans-Serif" font-size="10.00"> short &gt;</text>
</a>
</g>
</g>
<!-- Node13&#45;&gt;Node27 -->
<g id="edge14" class="edge">
<title>Node13&#45;&gt;Node27</title>
<path fill="none" stroke="midnightblue" d="M60.75,-331.36C66.86,-286.89 87.82,-177.69 151,-117 154.98,-113.17 159.58,-109.93 164.49,-107.18"/>
<polygon fill="midnightblue" stroke="midnightblue" points="57.26,-331.06 59.47,-341.42 64.2,-331.94 57.26,-331.06"/>
</g>
<!-- Node28 -->
<g id="node16" class="node">
<title>Node28</title>
<g id="a_node16"><a xlink:href="structmn_1_1__atomic_3_01wchar__t_01_4.html" target="_top" xlink:title="Special version for wchar_t.">
<polygon fill="white" stroke="black" points="154.5,-38.5 154.5,-57.5 292.5,-57.5 292.5,-38.5 154.5,-38.5"/>
<text text-anchor="middle" x="223.5" y="-45.5" font-family="Helvetica,sans-Serif" font-size="10.00">mn::_atomic&lt; wchar_t &gt;</text>
</a>
</g>
</g>
<!-- Node13&#45;&gt;Node28 -->
<g id="edge15" class="edge">
<title>Node13&#45;&gt;Node28</title>
<path fill="none" stroke="midnightblue" d="M58.91,-331.2C61.07,-279.92 74.13,-141.62 151,-68 155.56,-63.63 161,-60.2 166.8,-57.51"/>
<polygon fill="midnightblue" stroke="midnightblue" points="55.41,-331.17 58.58,-341.28 62.4,-331.4 55.41,-331.17"/>
</g>
<!-- Node29 -->
<g id="node17" class="node">
<title>Node29</title>
<g id="a_node17"><a xlink:href="structmn_1_1__atomic__ptr.html" target="_top" xlink:title="Special version for pointer.">
<polygon fill="white" stroke="black" points="161,-0.5 161,-19.5 286,-19.5 286,-0.5 161,-0.5"/>
<text text-anchor="middle" x="223.5" y="-7.5" font-family="Helvetica,sans-Serif" font-size="10.00">mn::_atomic_ptr&lt; T &gt;</text>
</a>
</g>
</g>
<!-- Node13&#45;&gt;Node29 -->
<g id="edge16" class="edge">
<title>Node13&#45;&gt;Node29</title>
<path fill="none" stroke="midnightblue" d="M57.93,-331.13C57.46,-275.06 64.14,-114.14 151,-29 154.94,-25.13 159.58,-22.03 164.57,-19.54"/>
<polygon fill="midnightblue" stroke="midnightblue" points="54.44,-331.5 58.11,-341.44 61.44,-331.38 54.44,-331.5"/>
</g>
</g>
</svg>
