<?xml version="1.0" encoding="UTF-8" standalone="no"?>
<!DOCTYPE svg PUBLIC "-//W3C//DTD SVG 1.1//EN"
 "http://www.w3.org/Graphics/SVG/1.1/DTD/svg11.dtd">
<!-- Generated by graphviz version 2.46.0 (0)
 -->
<!-- Title: Graphical Class Hierarchy Pages: 1 -->
<svg width="481pt" height="160pt"
 viewBox="0.00 0.00 481.00 159.50" xmlns="http://www.w3.org/2000/svg" xmlns:xlink="http://www.w3.org/1999/xlink">
<g id="graph0" class="graph" transform="scale(1 1) rotate(0) translate(4 155.5)">
<title>Graphical Class Hierarchy</title>
<polygon fill="white" stroke="transparent" points="-4,4 -4,-155.5 477,-155.5 477,4 -4,4"/>
<!-- Node0 -->
<g id="node1" class="node">
<title>Node0</title>
<g id="a_node1"><a xlink:href="classmn_1_1net_1_1basic__endpoint.html" target="_top" xlink:title="This abstract basic class represents an endpoint/socket address.">
<polygon fill="white" stroke="black" points="0,-61 0,-80 134,-80 134,-61 0,-61"/>
<text text-anchor="middle" x="67" y="-68" font-family="Helvetica,sans-Serif" font-size="10.00">mn::net::basic_endpoint</text>
</a>
</g>
</g>
<!-- Node1 -->
<g id="node2" class="node">
<title>Node1</title>
<g id="a_node2"><a xlink:href="classmn_1_1net_1_1basic__ip__endpoint.html" target="_top" xlink:title=" ">
<polygon fill="white" stroke="black" points="170,-110 170,-151 331,-151 331,-110 170,-110"/>
<text text-anchor="start" x="178" y="-139" font-family="Helvetica,sans-Serif" font-size="10.00">mn::net::basic_ip_endpoint</text>
<text text-anchor="start" x="178" y="-128" font-family="Helvetica,sans-Serif" font-size="10.00">&lt; basic_ip4_address, address</text>
<text text-anchor="middle" x="250.5" y="-117" font-family="Helvetica,sans-Serif" font-size="10.00">_family::inet_v4 &gt;</text>
</a>
</g>
</g>
<!-- Node0&#45;&gt;Node1 -->
<g id="edge1" class="edge">
<title>Node0&#45;&gt;Node1</title>
<path fill="none" stroke="midnightblue" d="M106.37,-83.18C129.88,-90.96 160.53,-101.09 187.43,-109.98"/>
<polygon fill="midnightblue" stroke="midnightblue" points="107.35,-79.82 96.76,-80.01 105.16,-86.47 107.35,-79.82"/>
</g>
<!-- Node3 -->
<g id="node4" class="node">
<title>Node3</title>
<g id="a_node4"><a xlink:href="classmn_1_1net_1_1basic__ip__endpoint.html" target="_top" xlink:title=" ">
<polygon fill="white" stroke="black" points="170,-50 170,-91 331,-91 331,-50 170,-50"/>
<text text-anchor="start" x="178" y="-79" font-family="Helvetica,sans-Serif" font-size="10.00">mn::net::basic_ip_endpoint</text>
<text text-anchor="start" x="178" y="-68" font-family="Helvetica,sans-Serif" font-size="10.00">&lt; basic_ip6_address, address</text>
<text text-anchor="middle" x="250.5" y="-57" font-family="Helvetica,sans-Serif" font-size="10.00">_family::inet_v6 &gt;</text>
</a>
</g>
</g>
<!-- Node0&#45;&gt;Node3 -->
<g id="edge3" class="edge">
<title>Node0&#45;&gt;Node3</title>
<path fill="none" stroke="midnightblue" d="M144.27,-70.5C152.75,-70.5 161.4,-70.5 169.92,-70.5"/>
<polygon fill="midnightblue" stroke="midnightblue" points="144.04,-67 134.04,-70.5 144.04,-74 144.04,-67"/>
</g>
<!-- Node5 -->
<g id="node6" class="node">
<title>Node5</title>
<g id="a_node6"><a xlink:href="classmn_1_1net_1_1basic__ip__endpoint.html" target="_top" xlink:title="This template basic class represents an ip endpoint/socket address.">
<polygon fill="white" stroke="black" points="176.5,-0.5 176.5,-30.5 324.5,-30.5 324.5,-0.5 176.5,-0.5"/>
<text text-anchor="start" x="184.5" y="-18.5" font-family="Helvetica,sans-Serif" font-size="10.00">mn::net::basic_ip_endpoint</text>
<text text-anchor="middle" x="250.5" y="-7.5" font-family="Helvetica,sans-Serif" font-size="10.00">&lt; TIPCLASS, TAF &gt;</text>
</a>
</g>
</g>
<!-- Node0&#45;&gt;Node5 -->
<g id="edge5" class="edge">
<title>Node0&#45;&gt;Node5</title>
<path fill="none" stroke="midnightblue" d="M109.47,-57.93C136.32,-49.8 171.44,-39.16 199.78,-30.57"/>
<polygon fill="midnightblue" stroke="midnightblue" points="108.17,-54.67 99.61,-60.92 110.2,-61.37 108.17,-54.67"/>
</g>
<!-- Node2 -->
<g id="node3" class="node">
<title>Node2</title>
<g id="a_node3"><a xlink:href="classmn_1_1net_1_1basic__ip4__endpoint.html" target="_top" xlink:title=" ">
<polygon fill="white" stroke="black" points="367,-115.5 367,-145.5 473,-145.5 473,-115.5 367,-115.5"/>
<text text-anchor="start" x="375" y="-133.5" font-family="Helvetica,sans-Serif" font-size="10.00">mn::net::basic_ip4</text>
<text text-anchor="middle" x="420" y="-122.5" font-family="Helvetica,sans-Serif" font-size="10.00">_endpoint</text>
</a>
</g>
</g>
<!-- Node1&#45;&gt;Node2 -->
<g id="edge2" class="edge">
<title>Node1&#45;&gt;Node2</title>
<path fill="none" stroke="midnightblue" d="M341.42,-130.5C350.01,-130.5 358.51,-130.5 366.56,-130.5"/>
<polygon fill="midnightblue" stroke="midnightblue" points="341.33,-127 331.33,-130.5 341.33,-134 341.33,-127"/>
</g>
<!-- Node4 -->
<g id="node5" class="node">
<title>Node4</title>
<g id="a_node5"><a xlink:href="classmn_1_1net_1_1basic__ip6__endpoint.html" target="_top" xlink:title="This class represents an IPv6 endpoint/socket address.">
<polygon fill="white" stroke="black" points="367,-55.5 367,-85.5 473,-85.5 473,-55.5 367,-55.5"/>
<text text-anchor="start" x="375" y="-73.5" font-family="Helvetica,sans-Serif" font-size="10.00">mn::net::basic_ip6</text>
<text text-anchor="middle" x="420" y="-62.5" font-family="Helvetica,sans-Serif" font-size="10.00">_endpoint</text>
</a>
</g>
</g>
<!-- Node3&#45;&gt;Node4 -->
<g id="edge4" class="edge">
<title>Node3&#45;&gt;Node4</title>
<path fill="none" stroke="midnightblue" d="M341.42,-70.5C350.01,-70.5 358.51,-70.5 366.56,-70.5"/>
<polygon fill="midnightblue" stroke="midnightblue" points="341.33,-67 331.33,-70.5 341.33,-74 341.33,-67"/>
</g>
</g>
</svg>
