<?xml version="1.0" encoding="UTF-8" standalone="no"?>
<!DOCTYPE svg PUBLIC "-//W3C//DTD SVG 1.1//EN"
 "http://www.w3.org/Graphics/SVG/1.1/DTD/svg11.dtd">
<!-- Generated by graphviz version 2.47.3 (0)
 -->
<!-- Title: Graphical Class Hierarchy Pages: 1 -->
<svg width="627pt" height="204pt"
 viewBox="0.00 0.00 627.00 204.00" xmlns="http://www.w3.org/2000/svg" xmlns:xlink="http://www.w3.org/1999/xlink">
<g id="graph0" class="graph" transform="scale(1 1) rotate(0) translate(4 200)">
<title>Graphical Class Hierarchy</title>
<polygon fill="white" stroke="transparent" points="-4,4 -4,-200 623,-200 623,4 -4,4"/>
<!-- Node0 -->
<g id="node1" class="node">
<title>Node0</title>
<g id="a_node1"><a xlink:href="structmn_1_1container_1_1basic__vector__storage.html" target="_top" xlink:title=" ">
<polygon fill="white" stroke="black" points="0,-94 0,-124 178,-124 178,-94 0,-94"/>
<text text-anchor="start" x="8" y="-112" font-family="Helvetica,sans-Serif" font-size="10.00">mn::container::basic</text>
<text text-anchor="middle" x="89" y="-101" font-family="Helvetica,sans-Serif" font-size="10.00">_vector_storage&lt; T, TAllocator &gt;</text>
</a>
</g>
</g>
<!-- Node1 -->
<g id="node2" class="node">
<title>Node1</title>
<g id="a_node2"><a xlink:href="classmn_1_1container_1_1basic__vector.html" target="_top" xlink:title=" ">
<polygon fill="white" stroke="black" points="251.5,-154.5 251.5,-195.5 379.5,-195.5 379.5,-154.5 251.5,-154.5"/>
<text text-anchor="start" x="259.5" y="-183.5" font-family="Helvetica,sans-Serif" font-size="10.00">mn::container::basic</text>
<text text-anchor="start" x="259.5" y="-172.5" font-family="Helvetica,sans-Serif" font-size="10.00">_vector&lt; base_event&lt;</text>
<text text-anchor="middle" x="315.5" y="-161.5" font-family="Helvetica,sans-Serif" font-size="10.00"> TSender, TArgs &gt; &gt;</text>
</a>
</g>
</g>
<!-- Node0&#45;&gt;Node1 -->
<g id="edge1" class="edge">
<title>Node0&#45;&gt;Node1</title>
<path fill="none" stroke="#8b1a1a" d="M151.08,-126.96C182.23,-136.11 220.06,-147.24 251.47,-156.47"/>
<polygon fill="#8b1a1a" stroke="#8b1a1a" points="151.8,-123.52 141.22,-124.06 149.83,-130.24 151.8,-123.52"/>
</g>
<!-- Node2 -->
<g id="node3" class="node">
<title>Node2</title>
<g id="a_node3"><a xlink:href="classmn_1_1container_1_1basic__vector.html" target="_top" xlink:title=" ">
<polygon fill="white" stroke="black" points="235.5,-83 235.5,-135 395.5,-135 395.5,-83 235.5,-83"/>
<text text-anchor="start" x="243.5" y="-123" font-family="Helvetica,sans-Serif" font-size="10.00">mn::container::basic</text>
<text text-anchor="start" x="243.5" y="-112" font-family="Helvetica,sans-Serif" font-size="10.00">_vector&lt; mn::container</text>
<text text-anchor="start" x="243.5" y="-101" font-family="Helvetica,sans-Serif" font-size="10.00">::pair&lt; TKey, TValue &gt;,</text>
<text text-anchor="middle" x="315.5" y="-90" font-family="Helvetica,sans-Serif" font-size="10.00"> memory::default_allocator &gt;</text>
</a>
</g>
</g>
<!-- Node0&#45;&gt;Node2 -->
<g id="edge2" class="edge">
<title>Node0&#45;&gt;Node2</title>
<path fill="none" stroke="#8b1a1a" d="M188.36,-109C204.1,-109 220.21,-109 235.43,-109"/>
<polygon fill="#8b1a1a" stroke="#8b1a1a" points="188.08,-105.5 178.08,-109 188.08,-112.5 188.08,-105.5"/>
</g>
<!-- Node3 -->
<g id="node4" class="node">
<title>Node3</title>
<g id="a_node4"><a xlink:href="classmn_1_1container_1_1basic__vector.html" target="_top" xlink:title=" ">
<polygon fill="white" stroke="black" points="214,-0.5 214,-63.5 417,-63.5 417,-0.5 214,-0.5"/>
<text text-anchor="start" x="222" y="-51.5" font-family="Helvetica,sans-Serif" font-size="10.00">mn::container::basic</text>
<text text-anchor="start" x="222" y="-40.5" font-family="Helvetica,sans-Serif" font-size="10.00">_vector&lt; basic_pair&lt;</text>
<text text-anchor="start" x="222" y="-29.5" font-family="Helvetica,sans-Serif" font-size="10.00"> TKey, TValue &gt;, TAllocator,</text>
<text text-anchor="start" x="222" y="-18.5" font-family="Helvetica,sans-Serif" font-size="10.00"> basic_vector_storage&lt; basic</text>
<text text-anchor="middle" x="315.5" y="-7.5" font-family="Helvetica,sans-Serif" font-size="10.00">_pair&lt; TKey, TValue &gt;, TAllocator &gt; &gt;</text>
</a>
</g>
</g>
<!-- Node0&#45;&gt;Node3 -->
<g id="edge3" class="edge">
<title>Node0&#45;&gt;Node3</title>
<path fill="none" stroke="#8b1a1a" d="M143.31,-90.72C166.98,-82.6 195.54,-72.8 222.49,-63.56"/>
<polygon fill="#8b1a1a" stroke="#8b1a1a" points="142.14,-87.42 133.82,-93.97 144.41,-94.04 142.14,-87.42"/>
</g>
<!-- Node4 -->
<g id="node5" class="node">
<title>Node4</title>
<g id="a_node5"><a xlink:href="classmn_1_1container_1_1basic__sorted__vector.html" target="_top" xlink:title=" ">
<polygon fill="white" stroke="black" points="453,-6 453,-58 619,-58 619,-6 453,-6"/>
<text text-anchor="start" x="461" y="-46" font-family="Helvetica,sans-Serif" font-size="10.00">mn::container::basic</text>
<text text-anchor="start" x="461" y="-35" font-family="Helvetica,sans-Serif" font-size="10.00">_sorted_vector&lt; TKey,</text>
<text text-anchor="start" x="461" y="-24" font-family="Helvetica,sans-Serif" font-size="10.00"> TValue, TAllocator, TCompare,</text>
<text text-anchor="middle" x="536" y="-13" font-family="Helvetica,sans-Serif" font-size="10.00"> TStorage &gt;</text>
</a>
</g>
</g>
<!-- Node3&#45;&gt;Node4 -->
<g id="edge4" class="edge">
<title>Node3&#45;&gt;Node4</title>
<path fill="none" stroke="#8b1a1a" d="M427.25,-32C435.89,-32 444.51,-32 452.91,-32"/>
<polygon fill="#8b1a1a" stroke="#8b1a1a" points="427.12,-28.5 417.12,-32 427.12,-35.5 427.12,-28.5"/>
</g>
</g>
</svg>
