<?xml version="1.0" encoding="UTF-8" standalone="no"?>
<!DOCTYPE svg PUBLIC "-//W3C//DTD SVG 1.1//EN"
 "http://www.w3.org/Graphics/SVG/1.1/DTD/svg11.dtd">
<!-- Generated by graphviz version 2.47.3 (0)
 -->
<!-- Title: Graphical Class Hierarchy Pages: 1 -->
<svg width="576pt" height="78pt"
 viewBox="0.00 0.00 576.00 77.50" xmlns="http://www.w3.org/2000/svg" xmlns:xlink="http://www.w3.org/1999/xlink">
<g id="graph0" class="graph" transform="scale(1 1) rotate(0) translate(4 73.5)">
<title>Graphical Class Hierarchy</title>
<polygon fill="white" stroke="transparent" points="-4,4 -4,-73.5 572,-73.5 572,4 -4,4"/>
<!-- Node0 -->
<g id="node1" class="node">
<title>Node0</title>
<g id="a_node1"><a xlink:href="classmn_1_1net_1_1basic__net__if.html" target="_top" xlink:title="Wrapper class around esp&#45;idf implementation of a esp&#45;netif device.">
<polygon fill="white" stroke="black" points="0,-28 0,-47 119,-47 119,-28 0,-28"/>
<text text-anchor="middle" x="59.5" y="-35" font-family="Helvetica,sans-Serif" font-size="10.00">mn::net::basic_net_if</text>
</a>
</g>
</g>
<!-- Node1 -->
<g id="node2" class="node">
<title>Node1</title>
<g id="a_node2"><a xlink:href="classmn_1_1net_1_1basic__wifi__net__if.html" target="_top" xlink:title="Wrapper basic WiFi class around esp&#45;idf implementation of a esp&#45;netif device.">
<polygon fill="white" stroke="black" points="155,-22.5 155,-52.5 263,-52.5 263,-22.5 155,-22.5"/>
<text text-anchor="start" x="163" y="-40.5" font-family="Helvetica,sans-Serif" font-size="10.00">mn::net::basic_wifi</text>
<text text-anchor="middle" x="209" y="-29.5" font-family="Helvetica,sans-Serif" font-size="10.00">_net_if</text>
</a>
</g>
</g>
<!-- Node0&#45;&gt;Node1 -->
<g id="edge1" class="edge">
<title>Node0&#45;&gt;Node1</title>
<path fill="none" stroke="midnightblue" d="M129.49,-37.5C137.98,-37.5 146.54,-37.5 154.74,-37.5"/>
<polygon fill="midnightblue" stroke="midnightblue" points="129.22,-34 119.22,-37.5 129.22,-41 129.22,-34"/>
</g>
<!-- Node2 -->
<g id="node3" class="node">
<title>Node2</title>
<g id="a_node3"><a xlink:href="classmn_1_1net_1_1basic__wifi.html" target="_top" xlink:title="A basic class for wifi.">
<polygon fill="white" stroke="black" points="299,-50 299,-69 407,-69 407,-50 299,-50"/>
<text text-anchor="middle" x="353" y="-57" font-family="Helvetica,sans-Serif" font-size="10.00">mn::net::basic_wifi</text>
</a>
</g>
</g>
<!-- Node1&#45;&gt;Node2 -->
<g id="edge2" class="edge">
<title>Node1&#45;&gt;Node2</title>
<path fill="none" stroke="midnightblue" d="M273.24,-47.3C281.81,-48.62 290.53,-49.98 298.89,-51.27"/>
<polygon fill="midnightblue" stroke="midnightblue" points="273.7,-43.83 263.28,-45.75 272.63,-50.74 273.7,-43.83"/>
</g>
<!-- Node4 -->
<g id="node5" class="node">
<title>Node4</title>
<g id="a_node5"><a xlink:href="classmn_1_1net_1_1basic__wifi__sta__net__if.html" target="_top" xlink:title="Basic class for esp32 wifi in station mode.">
<polygon fill="white" stroke="black" points="299,-0.5 299,-30.5 407,-30.5 407,-0.5 299,-0.5"/>
<text text-anchor="start" x="307" y="-18.5" font-family="Helvetica,sans-Serif" font-size="10.00">mn::net::basic_wifi</text>
<text text-anchor="middle" x="353" y="-7.5" font-family="Helvetica,sans-Serif" font-size="10.00">_sta_net_if</text>
</a>
</g>
</g>
<!-- Node1&#45;&gt;Node4 -->
<g id="edge4" class="edge">
<title>Node1&#45;&gt;Node4</title>
<path fill="none" stroke="midnightblue" d="M273.24,-27.7C281.81,-26.38 290.53,-25.02 298.89,-23.73"/>
<polygon fill="midnightblue" stroke="midnightblue" points="272.63,-24.26 263.28,-29.25 273.7,-31.17 272.63,-24.26"/>
</g>
<!-- Node3 -->
<g id="node4" class="node">
<title>Node3</title>
<g id="a_node4"><a xlink:href="classmn_1_1net_1_1basic__wifi__ap.html" target="_top" xlink:title="Wifi AP class for the esp32.">
<polygon fill="white" stroke="black" points="443,-50 443,-69 568,-69 568,-50 443,-50"/>
<text text-anchor="middle" x="505.5" y="-57" font-family="Helvetica,sans-Serif" font-size="10.00">mn::net::basic_wifi_ap</text>
</a>
</g>
</g>
<!-- Node2&#45;&gt;Node3 -->
<g id="edge3" class="edge">
<title>Node2&#45;&gt;Node3</title>
<path fill="none" stroke="midnightblue" d="M417.28,-59.5C425.76,-59.5 434.46,-59.5 442.92,-59.5"/>
<polygon fill="midnightblue" stroke="midnightblue" points="417.06,-56 407.06,-59.5 417.06,-63 417.06,-56"/>
</g>
</g>
</svg>
