<?xml version="1.0" encoding="UTF-8" standalone="no"?>
<!DOCTYPE svg PUBLIC "-//W3C//DTD SVG 1.1//EN"
 "http://www.w3.org/Graphics/SVG/1.1/DTD/svg11.dtd">
<!-- Generated by graphviz version 2.46.0 (0)
 -->
<!-- Title: Graphical Class Hierarchy Pages: 1 -->
<svg width="337pt" height="247pt"
 viewBox="0.00 0.00 337.00 247.00" xmlns="http://www.w3.org/2000/svg" xmlns:xlink="http://www.w3.org/1999/xlink">
<g id="graph0" class="graph" transform="scale(1 1) rotate(0) translate(4 243)">
<title>Graphical Class Hierarchy</title>
<polygon fill="white" stroke="transparent" points="-4,4 -4,-243 333,-243 333,4 -4,4"/>
<!-- Node0 -->
<g id="node1" class="node">
<title>Node0</title>
<g id="a_node1"><a xlink:href="classmn_1_1memory_1_1allocator__interface.html" target="_top" xlink:title="A basic abstractet interface for all allocator in the library.">
<polygon fill="white" stroke="black" points="0,-110.5 0,-140.5 128,-140.5 128,-110.5 0,-110.5"/>
<text text-anchor="start" x="8" y="-128.5" font-family="Helvetica,sans-Serif" font-size="10.00">mn::memory::allocator</text>
<text text-anchor="middle" x="64" y="-117.5" font-family="Helvetica,sans-Serif" font-size="10.00">_interface</text>
</a>
</g>
</g>
<!-- Node1 -->
<g id="node2" class="node">
<title>Node1</title>
<g id="a_node2"><a xlink:href="classmn_1_1memory_1_1basic__allocator__buffer.html" target="_top" xlink:title="buffer based allocator.">
<polygon fill="white" stroke="black" points="167.5,-208.5 167.5,-238.5 325.5,-238.5 325.5,-208.5 167.5,-208.5"/>
<text text-anchor="start" x="175.5" y="-226.5" font-family="Helvetica,sans-Serif" font-size="10.00">mn::memory::basic_allocator</text>
<text text-anchor="middle" x="246.5" y="-215.5" font-family="Helvetica,sans-Serif" font-size="10.00">_buffer</text>
</a>
</g>
</g>
<!-- Node0&#45;&gt;Node1 -->
<g id="edge1" class="edge">
<title>Node0&#45;&gt;Node1</title>
<path fill="none" stroke="midnightblue" d="M88.91,-147.23C108.01,-163.61 136.13,-185.55 164,-199.5 170.73,-202.87 178.01,-205.85 185.36,-208.46"/>
<polygon fill="midnightblue" stroke="midnightblue" points="91.13,-144.53 81.29,-140.6 86.53,-149.81 91.13,-144.53"/>
</g>
<!-- Node2 -->
<g id="node3" class="node">
<title>Node2</title>
<g id="a_node3"><a xlink:href="classmn_1_1memory_1_1basic__allocator__stack.html" target="_top" xlink:title="Stack based allocator.">
<polygon fill="white" stroke="black" points="167.5,-159.5 167.5,-189.5 325.5,-189.5 325.5,-159.5 167.5,-159.5"/>
<text text-anchor="start" x="175.5" y="-177.5" font-family="Helvetica,sans-Serif" font-size="10.00">mn::memory::basic_allocator</text>
<text text-anchor="middle" x="246.5" y="-166.5" font-family="Helvetica,sans-Serif" font-size="10.00">_stack&lt; TBUFFERSIZE &gt;</text>
</a>
</g>
</g>
<!-- Node0&#45;&gt;Node2 -->
<g id="edge2" class="edge">
<title>Node0&#45;&gt;Node2</title>
<path fill="none" stroke="midnightblue" d="M130.38,-143.25C149.94,-148.56 171.2,-154.33 190.05,-159.45"/>
<polygon fill="midnightblue" stroke="midnightblue" points="131.2,-139.84 120.63,-140.6 129.36,-146.6 131.2,-139.84"/>
</g>
<!-- Node3 -->
<g id="node4" class="node">
<title>Node3</title>
<g id="a_node4"><a xlink:href="classmn_1_1memory_1_1basic__allocator__system.html" target="_top" xlink:title=" ">
<polygon fill="white" stroke="black" points="167.5,-110.5 167.5,-140.5 325.5,-140.5 325.5,-110.5 167.5,-110.5"/>
<text text-anchor="start" x="175.5" y="-128.5" font-family="Helvetica,sans-Serif" font-size="10.00">mn::memory::basic_allocator</text>
<text text-anchor="middle" x="246.5" y="-117.5" font-family="Helvetica,sans-Serif" font-size="10.00">_system</text>
</a>
</g>
</g>
<!-- Node0&#45;&gt;Node3 -->
<g id="edge3" class="edge">
<title>Node0&#45;&gt;Node3</title>
<path fill="none" stroke="midnightblue" d="M138.4,-125.5C147.98,-125.5 157.83,-125.5 167.48,-125.5"/>
<polygon fill="midnightblue" stroke="midnightblue" points="138.13,-122 128.13,-125.5 138.13,-129 138.13,-122"/>
</g>
<!-- Node4 -->
<g id="node5" class="node">
<title>Node4</title>
<g id="a_node5"><a xlink:href="classmn_1_1memory_1_1basic__cap__allocator__esp32.html" target="_top" xlink:title=" ">
<polygon fill="white" stroke="black" points="174.5,-50 174.5,-91 318.5,-91 318.5,-50 174.5,-50"/>
<text text-anchor="start" x="182.5" y="-79" font-family="Helvetica,sans-Serif" font-size="10.00">mn::memory::basic_cap</text>
<text text-anchor="start" x="182.5" y="-68" font-family="Helvetica,sans-Serif" font-size="10.00">_allocator_esp32&lt; TCAPS,</text>
<text text-anchor="middle" x="246.5" y="-57" font-family="Helvetica,sans-Serif" font-size="10.00"> TSBITS &gt;</text>
</a>
</g>
</g>
<!-- Node0&#45;&gt;Node4 -->
<g id="edge4" class="edge">
<title>Node0&#45;&gt;Node4</title>
<path fill="none" stroke="midnightblue" d="M124.22,-107.45C141.41,-102.22 160.31,-96.46 177.97,-91.08"/>
<polygon fill="midnightblue" stroke="midnightblue" points="122.87,-104.21 114.32,-110.47 124.91,-110.9 122.87,-104.21"/>
</g>
<!-- Node5 -->
<g id="node6" class="node">
<title>Node5</title>
<g id="a_node6"><a xlink:href="classmn_1_1memory_1_1basic__multiheap__allocator__esp32.html" target="_top" xlink:title=" ">
<polygon fill="white" stroke="black" points="164,-0.5 164,-30.5 329,-30.5 329,-0.5 164,-0.5"/>
<text text-anchor="start" x="172" y="-18.5" font-family="Helvetica,sans-Serif" font-size="10.00">mn::memory::basic_multiheap</text>
<text text-anchor="middle" x="246.5" y="-7.5" font-family="Helvetica,sans-Serif" font-size="10.00">_allocator_esp32&lt; TBytes &gt;</text>
</a>
</g>
</g>
<!-- Node0&#45;&gt;Node5 -->
<g id="edge5" class="edge">
<title>Node0&#45;&gt;Node5</title>
<path fill="none" stroke="midnightblue" d="M85.79,-103.06C104.57,-83.98 133.83,-57.12 164,-40.5 170.87,-36.71 178.39,-33.43 185.99,-30.59"/>
<polygon fill="midnightblue" stroke="midnightblue" points="83.08,-100.83 78.65,-110.45 88.11,-105.69 83.08,-100.83"/>
</g>
</g>
</svg>
