<?xml version="1.0" encoding="UTF-8" standalone="no"?>
<!DOCTYPE svg PUBLIC "-//W3C//DTD SVG 1.1//EN"
 "http://www.w3.org/Graphics/SVG/1.1/DTD/svg11.dtd">
<!-- Generated by graphviz version 2.47.3 (0)
 -->
<!-- Title: Graphical Class Hierarchy Pages: 1 -->
<svg width="765pt" height="144pt"
 viewBox="0.00 0.00 765.00 143.50" xmlns="http://www.w3.org/2000/svg" xmlns:xlink="http://www.w3.org/1999/xlink">
<g id="graph0" class="graph" transform="scale(1 1) rotate(0) translate(4 139.5)">
<title>Graphical Class Hierarchy</title>
<polygon fill="white" stroke="transparent" points="-4,4 -4,-139.5 761,-139.5 761,4 -4,4"/>
<!-- Node0 -->
<g id="node1" class="node">
<title>Node0</title>
<g id="a_node1"><a xlink:href="structmn_1_1container_1_1basic__vector__storage.html" target="_top" xlink:title=" ">
<polygon fill="white" stroke="black" points="0,-44 0,-74 178,-74 178,-44 0,-44"/>
<text text-anchor="start" x="8" y="-62" font-family="Helvetica,sans-Serif" font-size="10.00">mn::container::basic</text>
<text text-anchor="middle" x="89" y="-51" font-family="Helvetica,sans-Serif" font-size="10.00">_vector_storage&lt; T, TAllocator &gt;</text>
</a>
</g>
</g>
<!-- Node1 -->
<g id="node2" class="node">
<title>Node1</title>
<g id="a_node2"><a xlink:href="classmn_1_1container_1_1basic__vector.html" target="_top" xlink:title=" ">
<polygon fill="white" stroke="black" points="214,-38.5 214,-79.5 342,-79.5 342,-38.5 214,-38.5"/>
<text text-anchor="start" x="222" y="-67.5" font-family="Helvetica,sans-Serif" font-size="10.00">mn::container::basic</text>
<text text-anchor="start" x="222" y="-56.5" font-family="Helvetica,sans-Serif" font-size="10.00">_vector&lt; T, TAllocator,</text>
<text text-anchor="middle" x="278" y="-45.5" font-family="Helvetica,sans-Serif" font-size="10.00"> TStorage &gt;</text>
</a>
</g>
</g>
<!-- Node0&#45;&gt;Node1 -->
<g id="edge1" class="edge">
<title>Node0&#45;&gt;Node1</title>
<path fill="none" stroke="#8b1a1a" d="M188.27,-59C196.98,-59 205.65,-59 213.95,-59"/>
<polygon fill="#8b1a1a" stroke="#8b1a1a" points="188.02,-55.5 178.02,-59 188.02,-62.5 188.02,-55.5"/>
</g>
<!-- Node2 -->
<g id="node3" class="node">
<title>Node2</title>
<g id="a_node3"><a xlink:href="classmn_1_1container_1_1basic__sorted__vector.html" target="_top" xlink:title=" ">
<polygon fill="white" stroke="black" points="378,-61 378,-135 573,-135 573,-61 378,-61"/>
<text text-anchor="start" x="386" y="-123" font-family="Helvetica,sans-Serif" font-size="10.00">mn::container::basic</text>
<text text-anchor="start" x="386" y="-112" font-family="Helvetica,sans-Serif" font-size="10.00">_sorted_vector&lt; TKey,</text>
<text text-anchor="start" x="386" y="-101" font-family="Helvetica,sans-Serif" font-size="10.00"> TValue, TAllocator, mn</text>
<text text-anchor="start" x="386" y="-90" font-family="Helvetica,sans-Serif" font-size="10.00">::less&lt; TKey &gt;, fixed_vector</text>
<text text-anchor="start" x="386" y="-79" font-family="Helvetica,sans-Serif" font-size="10.00">_storage&lt; basic_pair&lt; TKey,</text>
<text text-anchor="middle" x="475.5" y="-68" font-family="Helvetica,sans-Serif" font-size="10.00"> TValue &gt;, TAllocator, TCapacity &gt; &gt;</text>
</a>
</g>
</g>
<!-- Node1&#45;&gt;Node2 -->
<g id="edge2" class="edge">
<title>Node1&#45;&gt;Node2</title>
<path fill="none" stroke="#8b1a1a" d="M352.23,-73.61C360.57,-75.27 369.17,-76.99 377.75,-78.7"/>
<polygon fill="#8b1a1a" stroke="#8b1a1a" points="352.69,-70.13 342.2,-71.61 351.33,-77 352.69,-70.13"/>
</g>
<!-- Node4 -->
<g id="node5" class="node">
<title>Node4</title>
<g id="a_node5"><a xlink:href="classmn_1_1container_1_1basic__multimap.html" target="_top" xlink:title="A sorted associative container that may container multiple entries for each key.">
<polygon fill="white" stroke="black" points="406.5,-0.5 406.5,-41.5 544.5,-41.5 544.5,-0.5 406.5,-0.5"/>
<text text-anchor="start" x="414.5" y="-29.5" font-family="Helvetica,sans-Serif" font-size="10.00">mn::container::basic</text>
<text text-anchor="start" x="414.5" y="-18.5" font-family="Helvetica,sans-Serif" font-size="10.00">_multimap&lt; TKEY, TVAL,</text>
<text text-anchor="middle" x="475.5" y="-7.5" font-family="Helvetica,sans-Serif" font-size="10.00"> TAllocator, TComp &gt;</text>
</a>
</g>
</g>
<!-- Node1&#45;&gt;Node4 -->
<g id="edge4" class="edge">
<title>Node1&#45;&gt;Node4</title>
<path fill="none" stroke="midnightblue" d="M352.48,-44.72C370.18,-41.28 389.01,-37.62 406.45,-34.23"/>
<polygon fill="midnightblue" stroke="midnightblue" points="351.35,-41.37 342.2,-46.71 352.69,-48.24 351.35,-41.37"/>
</g>
<!-- Node3 -->
<g id="node4" class="node">
<title>Node3</title>
<g id="a_node4"><a xlink:href="classmn_1_1container_1_1basic__fixed__sorted__vector.html" target="_top" xlink:title=" ">
<polygon fill="white" stroke="black" points="609,-72 609,-124 757,-124 757,-72 609,-72"/>
<text text-anchor="start" x="617" y="-112" font-family="Helvetica,sans-Serif" font-size="10.00">mn::container::basic</text>
<text text-anchor="start" x="617" y="-101" font-family="Helvetica,sans-Serif" font-size="10.00">_fixed_sorted_vector</text>
<text text-anchor="start" x="617" y="-90" font-family="Helvetica,sans-Serif" font-size="10.00">&lt; TKey, TValue, TCapacity,</text>
<text text-anchor="middle" x="683" y="-79" font-family="Helvetica,sans-Serif" font-size="10.00"> TAllocator, TCompare &gt;</text>
</a>
</g>
</g>
<!-- Node2&#45;&gt;Node3 -->
<g id="edge3" class="edge">
<title>Node2&#45;&gt;Node3</title>
<path fill="none" stroke="midnightblue" d="M583.35,-98C591.96,-98 600.53,-98 608.82,-98"/>
<polygon fill="midnightblue" stroke="midnightblue" points="583.23,-94.5 573.23,-98 583.23,-101.5 583.23,-94.5"/>
</g>
</g>
</svg>
