<?xml version="1.0" encoding="UTF-8" standalone="no"?>
<!DOCTYPE svg PUBLIC "-//W3C//DTD SVG 1.1//EN"
 "http://www.w3.org/Graphics/SVG/1.1/DTD/svg11.dtd">
<!-- Generated by graphviz version 2.47.3 (0)
 -->
<!-- Title: Graphical Class Hierarchy Pages: 1 -->
<svg width="315pt" height="142pt"
 viewBox="0.00 0.00 315.00 142.00" xmlns="http://www.w3.org/2000/svg" xmlns:xlink="http://www.w3.org/1999/xlink">
<g id="graph0" class="graph" transform="scale(1 1) rotate(0) translate(4 138)">
<title>Graphical Class Hierarchy</title>
<polygon fill="white" stroke="transparent" points="-4,4 -4,-138 311,-138 311,4 -4,4"/>
<!-- Node0 -->
<g id="node1" class="node">
<title>Node0</title>
<g id="a_node1"><a xlink:href="structmn_1_1stl_1_1integral__constant.html" target="_top" xlink:title=" ">
<polygon fill="white" stroke="black" points="0,-52 0,-82 141,-82 141,-52 0,-52"/>
<text text-anchor="start" x="8" y="-70" font-family="Helvetica,sans-Serif" font-size="10.00">mn::stl::integral_constant</text>
<text text-anchor="middle" x="70.5" y="-59" font-family="Helvetica,sans-Serif" font-size="10.00">&lt; T, v &gt;</text>
</a>
</g>
</g>
<!-- Node1 -->
<g id="node2" class="node">
<title>Node1</title>
<g id="a_node2"><a xlink:href="structmn_1_1stl_1_1is__class.html" target="_top" xlink:title=" ">
<polygon fill="white" stroke="black" points="180.5,-114.5 180.5,-133.5 303.5,-133.5 303.5,-114.5 180.5,-114.5"/>
<text text-anchor="middle" x="242" y="-121.5" font-family="Helvetica,sans-Serif" font-size="10.00">mn::stl::is_class&lt; T &gt;</text>
</a>
</g>
</g>
<!-- Node0&#45;&gt;Node1 -->
<g id="edge1" class="edge">
<title>Node0&#45;&gt;Node1</title>
<path fill="none" stroke="midnightblue" d="M121.13,-85.54C138.7,-91.92 158.66,-98.98 177,-105 186.91,-108.25 197.76,-111.57 207.67,-114.5"/>
<polygon fill="midnightblue" stroke="midnightblue" points="122.24,-82.21 111.64,-82.07 119.83,-88.79 122.24,-82.21"/>
</g>
<!-- Node2 -->
<g id="node3" class="node">
<title>Node2</title>
<g id="a_node3"><a xlink:href="structmn_1_1stl_1_1is__empty.html" target="_top" xlink:title=" ">
<polygon fill="white" stroke="black" points="177,-76.5 177,-95.5 307,-95.5 307,-76.5 177,-76.5"/>
<text text-anchor="middle" x="242" y="-83.5" font-family="Helvetica,sans-Serif" font-size="10.00">mn::stl::is_empty&lt; T &gt;</text>
</a>
</g>
</g>
<!-- Node0&#45;&gt;Node2 -->
<g id="edge2" class="edge">
<title>Node0&#45;&gt;Node2</title>
<path fill="none" stroke="midnightblue" d="M151.42,-75.96C159.98,-76.92 168.61,-77.89 176.95,-78.82"/>
<polygon fill="midnightblue" stroke="midnightblue" points="151.75,-72.47 141.42,-74.84 150.97,-79.43 151.75,-72.47"/>
</g>
<!-- Node3 -->
<g id="node4" class="node">
<title>Node3</title>
<g id="a_node4"><a xlink:href="structmn_1_1stl_1_1is__enum.html" target="_top" xlink:title=" ">
<polygon fill="white" stroke="black" points="179,-38.5 179,-57.5 305,-57.5 305,-38.5 179,-38.5"/>
<text text-anchor="middle" x="242" y="-45.5" font-family="Helvetica,sans-Serif" font-size="10.00">mn::stl::is_enum&lt; T &gt;</text>
</a>
</g>
</g>
<!-- Node0&#45;&gt;Node3 -->
<g id="edge3" class="edge">
<title>Node0&#45;&gt;Node3</title>
<path fill="none" stroke="midnightblue" d="M151.38,-58.05C160.6,-57.01 169.89,-55.97 178.83,-54.97"/>
<polygon fill="midnightblue" stroke="midnightblue" points="150.97,-54.57 141.42,-59.16 151.75,-61.53 150.97,-54.57"/>
</g>
<!-- Node4 -->
<g id="node5" class="node">
<title>Node4</title>
<g id="a_node5"><a xlink:href="structmn_1_1stl_1_1is__union.html" target="_top" xlink:title=" ">
<polygon fill="white" stroke="black" points="179.5,-0.5 179.5,-19.5 304.5,-19.5 304.5,-0.5 179.5,-0.5"/>
<text text-anchor="middle" x="242" y="-7.5" font-family="Helvetica,sans-Serif" font-size="10.00">mn::stl::is_union&lt; T &gt;</text>
</a>
</g>
</g>
<!-- Node0&#45;&gt;Node4 -->
<g id="edge4" class="edge">
<title>Node0&#45;&gt;Node4</title>
<path fill="none" stroke="midnightblue" d="M121.13,-48.46C138.7,-42.08 158.66,-35.02 177,-29 186.91,-25.75 197.76,-22.43 207.67,-19.5"/>
<polygon fill="midnightblue" stroke="midnightblue" points="119.83,-45.21 111.64,-51.93 122.24,-51.79 119.83,-45.21"/>
</g>
</g>
</svg>
