<?xml version="1.0" encoding="UTF-8" standalone="no"?>
<!DOCTYPE svg PUBLIC "-//W3C//DTD SVG 1.1//EN"
 "http://www.w3.org/Graphics/SVG/1.1/DTD/svg11.dtd">
<!-- Generated by graphviz version 2.47.3 (0)
 -->
<!-- Title: Graphical Class Hierarchy Pages: 1 -->
<svg width="198pt" height="61pt"
 viewBox="0.00 0.00 198.00 61.00" xmlns="http://www.w3.org/2000/svg" xmlns:xlink="http://www.w3.org/1999/xlink">
<g id="graph0" class="graph" transform="scale(1 1) rotate(0) translate(4 57)">
<title>Graphical Class Hierarchy</title>
<polygon fill="white" stroke="transparent" points="-4,4 -4,-57 194,-57 194,4 -4,4"/>
<!-- Node544 -->
<g id="node1" class="node">
<title>Node544</title>
<g id="a_node1"><a xlink:title=" ">
<polygon fill="white" stroke="#bfbfbf" points="0,-17 0,-36 29,-36 29,-17 0,-17"/>
<text text-anchor="middle" x="14.5" y="-24" font-family="Helvetica,sans-Serif" font-size="10.00">T</text>
</a>
</g>
</g>
<!-- Node0 -->
<g id="node2" class="node">
<title>Node0</title>
<g id="a_node2"><a xlink:href="classmn_1_1ebo__storage_3_01T_00_01TAG_00_01mn_1_1enable__if__t_3_01mn_1_1is__class_3_01T_01_4_1_1value_01_4_01_4.html" target="_top" xlink:title=" ">
<polygon fill="white" stroke="black" points="65,-0.5 65,-52.5 190,-52.5 190,-0.5 65,-0.5"/>
<text text-anchor="start" x="73" y="-40.5" font-family="Helvetica,sans-Serif" font-size="10.00">mn::ebo_storage&lt; T,</text>
<text text-anchor="start" x="73" y="-29.5" font-family="Helvetica,sans-Serif" font-size="10.00"> TAG, mn::enable_if</text>
<text text-anchor="start" x="73" y="-18.5" font-family="Helvetica,sans-Serif" font-size="10.00">_t&lt; mn::is_class&lt; T &gt;</text>
<text text-anchor="middle" x="127.5" y="-7.5" font-family="Helvetica,sans-Serif" font-size="10.00">::value &gt; &gt;</text>
</a>
</g>
</g>
<!-- Node544&#45;&gt;Node0 -->
<g id="edge1" class="edge">
<title>Node544&#45;&gt;Node0</title>
<path fill="none" stroke="#8b1a1a" d="M39.32,-26.5C46.95,-26.5 55.78,-26.5 64.83,-26.5"/>
<polygon fill="#8b1a1a" stroke="#8b1a1a" points="39.11,-23 29.11,-26.5 39.11,-30 39.11,-23"/>
</g>
</g>
</svg>
