<?xml version="1.0" encoding="UTF-8" standalone="no"?>
<!DOCTYPE svg PUBLIC "-//W3C//DTD SVG 1.1//EN"
 "http://www.w3.org/Graphics/SVG/1.1/DTD/svg11.dtd">
<!-- Generated by graphviz version 2.47.3 (0)
 -->
<!-- Title: Graphical Class Hierarchy Pages: 1 -->
<svg width="687pt" height="181pt"
 viewBox="0.00 0.00 687.00 181.00" xmlns="http://www.w3.org/2000/svg" xmlns:xlink="http://www.w3.org/1999/xlink">
<g id="graph0" class="graph" transform="scale(1 1) rotate(0) translate(4 177)">
<title>Graphical Class Hierarchy</title>
<polygon fill="white" stroke="transparent" points="-4,4 -4,-177 683,-177 683,4 -4,4"/>
<!-- Node0 -->
<g id="node1" class="node">
<title>Node0</title>
<g id="a_node1"><a xlink:href="classmn_1_1device_1_1basic__device.html" target="_top" xlink:title=" ">
<polygon fill="white" stroke="black" points="171,-99 171,-118 311,-118 311,-99 171,-99"/>
<text text-anchor="middle" x="241" y="-106" font-family="Helvetica,sans-Serif" font-size="10.00">mn::device::basic_device</text>
</a>
</g>
</g>
<!-- Node1 -->
<g id="node2" class="node">
<title>Node1</title>
<g id="a_node2"><a xlink:href="classmn_1_1device_1_1basic__block__device.html" target="_top" xlink:title="basic_block_device class is an interface for a block device.">
<polygon fill="white" stroke="black" points="357,-142.5 357,-172.5 491,-172.5 491,-142.5 357,-142.5"/>
<text text-anchor="start" x="365" y="-160.5" font-family="Helvetica,sans-Serif" font-size="10.00">mn::device::basic_block</text>
<text text-anchor="middle" x="424" y="-149.5" font-family="Helvetica,sans-Serif" font-size="10.00">_device</text>
</a>
</g>
</g>
<!-- Node0&#45;&gt;Node1 -->
<g id="edge1" class="edge">
<title>Node0&#45;&gt;Node1</title>
<path fill="none" stroke="midnightblue" d="M287.03,-120.69C311.37,-127.28 341.65,-135.48 367.46,-142.46"/>
<polygon fill="midnightblue" stroke="midnightblue" points="287.9,-117.3 277.33,-118.06 286.07,-124.06 287.9,-117.3"/>
</g>
<!-- Node2 -->
<g id="node3" class="node">
<title>Node2</title>
<g id="a_node3"><a xlink:href="classmn_1_1device_1_1basic__network__device.html" target="_top" xlink:title=" ">
<polygon fill="white" stroke="black" points="350.5,-93.5 350.5,-123.5 497.5,-123.5 497.5,-93.5 350.5,-93.5"/>
<text text-anchor="start" x="358.5" y="-111.5" font-family="Helvetica,sans-Serif" font-size="10.00">mn::device::basic_network</text>
<text text-anchor="middle" x="424" y="-100.5" font-family="Helvetica,sans-Serif" font-size="10.00">_device</text>
</a>
</g>
</g>
<!-- Node0&#45;&gt;Node2 -->
<g id="edge2" class="edge">
<title>Node0&#45;&gt;Node2</title>
<path fill="none" stroke="midnightblue" d="M321.49,-108.5C331.05,-108.5 340.77,-108.5 350.23,-108.5"/>
<polygon fill="midnightblue" stroke="midnightblue" points="321.2,-105 311.2,-108.5 321.2,-112 321.2,-105"/>
</g>
<!-- Node4 -->
<g id="node5" class="node">
<title>Node4</title>
<g id="a_node5"><a xlink:href="classmn_1_1device_1_1basic__streamed__device.html" target="_top" xlink:title=" ">
<polygon fill="white" stroke="black" points="347,-44.5 347,-74.5 501,-74.5 501,-44.5 347,-44.5"/>
<text text-anchor="start" x="355" y="-62.5" font-family="Helvetica,sans-Serif" font-size="10.00">mn::device::basic_streamed</text>
<text text-anchor="middle" x="424" y="-51.5" font-family="Helvetica,sans-Serif" font-size="10.00">_device</text>
</a>
</g>
</g>
<!-- Node0&#45;&gt;Node4 -->
<g id="edge4" class="edge">
<title>Node0&#45;&gt;Node4</title>
<path fill="none" stroke="midnightblue" d="M287.03,-96.31C311.37,-89.72 341.65,-81.52 367.46,-74.54"/>
<polygon fill="midnightblue" stroke="midnightblue" points="286.07,-92.94 277.33,-98.94 287.9,-99.7 286.07,-92.94"/>
</g>
<!-- Node3 -->
<g id="node4" class="node">
<title>Node3</title>
<g id="a_node4"><a xlink:href="classmn_1_1device_1_1basic__wifi__ap.html" target="_top" xlink:title="Wifi AP class for the esp32.">
<polygon fill="white" stroke="black" points="537,-52 537,-71 679,-71 679,-52 537,-52"/>
<text text-anchor="middle" x="608" y="-59" font-family="Helvetica,sans-Serif" font-size="10.00">mn::device::basic_wifi_ap</text>
</a>
</g>
</g>
<!-- Node2&#45;&gt;Node3 -->
<g id="edge3" class="edge">
<title>Node2&#45;&gt;Node3</title>
<path fill="none" stroke="midnightblue" d="M492.95,-90.95C519.07,-84.21 547.9,-76.76 570.04,-71.04"/>
<polygon fill="midnightblue" stroke="midnightblue" points="491.89,-87.61 483.09,-93.5 493.64,-94.39 491.89,-87.61"/>
</g>
<!-- Node119 -->
<g id="node6" class="node">
<title>Node119</title>
<g id="a_node6"><a xlink:href="classmn_1_1device_1_1basic__net__if.html" target="_top" xlink:title="Wrapper class around esp&#45;idf implementation of a esp&#45;netif device.">
<polygon fill="white" stroke="black" points="0,-6 0,-25 135,-25 135,-6 0,-6"/>
<text text-anchor="middle" x="67.5" y="-13" font-family="Helvetica,sans-Serif" font-size="10.00">mn::device::basic_net_if</text>
</a>
</g>
</g>
<!-- Node120 -->
<g id="node7" class="node">
<title>Node120</title>
<g id="a_node7"><a xlink:href="classmn_1_1device_1_1basic__wifi__net__if.html" target="_top" xlink:title="Wrapper basic WiFi class around esp&#45;idf implementation of a esp&#45;netif device.">
<polygon fill="white" stroke="black" points="178.5,-0.5 178.5,-30.5 303.5,-30.5 303.5,-0.5 178.5,-0.5"/>
<text text-anchor="start" x="186.5" y="-18.5" font-family="Helvetica,sans-Serif" font-size="10.00">mn::device::basic_wifi</text>
<text text-anchor="middle" x="241" y="-7.5" font-family="Helvetica,sans-Serif" font-size="10.00">_net_if</text>
</a>
</g>
</g>
<!-- Node119&#45;&gt;Node120 -->
<g id="edge5" class="edge">
<title>Node119&#45;&gt;Node120</title>
<path fill="none" stroke="midnightblue" d="M145.38,-15.5C156.45,-15.5 167.71,-15.5 178.43,-15.5"/>
<polygon fill="midnightblue" stroke="midnightblue" points="145.3,-12 135.3,-15.5 145.3,-19 145.3,-12"/>
</g>
<!-- Node121 -->
<g id="node8" class="node">
<title>Node121</title>
<g id="a_node8"><a xlink:href="classmn_1_1device_1_1basic__wifi.html" target="_top" xlink:title="A basic class for wifi.">
<polygon fill="white" stroke="black" points="361.5,-6 361.5,-25 486.5,-25 486.5,-6 361.5,-6"/>
<text text-anchor="middle" x="424" y="-13" font-family="Helvetica,sans-Serif" font-size="10.00">mn::device::basic_wifi</text>
</a>
</g>
</g>
<!-- Node120&#45;&gt;Node121 -->
<g id="edge6" class="edge">
<title>Node120&#45;&gt;Node121</title>
<path fill="none" stroke="midnightblue" d="M313.74,-15.5C329.49,-15.5 346.02,-15.5 361.33,-15.5"/>
<polygon fill="midnightblue" stroke="midnightblue" points="313.53,-12 303.53,-15.5 313.53,-19 313.53,-12"/>
</g>
<!-- Node121&#45;&gt;Node3 -->
<g id="edge7" class="edge">
<title>Node121&#45;&gt;Node3</title>
<path fill="none" stroke="midnightblue" d="M473.13,-27.5C482.38,-29.81 491.99,-32.23 501,-34.5 523.83,-40.26 549.42,-46.78 569.73,-51.96"/>
<polygon fill="midnightblue" stroke="midnightblue" points="473.83,-24.07 463.28,-25.04 472.13,-30.86 473.83,-24.07"/>
</g>
</g>
</svg>
