<?xml version="1.0" encoding="UTF-8" standalone="no"?>
<!DOCTYPE svg PUBLIC "-//W3C//DTD SVG 1.1//EN"
 "http://www.w3.org/Graphics/SVG/1.1/DTD/svg11.dtd">
<!-- Generated by graphviz version 2.47.1 (0)
 -->
<!-- Title: Graphical Class Hierarchy Pages: 1 -->
<svg width="298pt" height="666pt"
 viewBox="0.00 0.00 298.00 666.00" xmlns="http://www.w3.org/2000/svg" xmlns:xlink="http://www.w3.org/1999/xlink">
<g id="graph0" class="graph" transform="scale(1 1) rotate(0) translate(4 662)">
<title>Graphical Class Hierarchy</title>
<polygon fill="white" stroke="transparent" points="-4,4 -4,-662 294,-662 294,4 -4,4"/>
<!-- Node0 -->
<g id="node1" class="node">
<title>Node0</title>
<g id="a_node1"><a xlink:href="structmn_1_1integral__constant.html" target="_top" xlink:title=" ">
<polygon fill="white" stroke="black" points="0,-297 0,-327 123,-327 123,-297 0,-297"/>
<text text-anchor="start" x="8" y="-315" font-family="Helvetica,sans-Serif" font-size="10.00">mn::integral_constant</text>
<text text-anchor="middle" x="61.5" y="-304" font-family="Helvetica,sans-Serif" font-size="10.00">&lt; bool, true &gt;</text>
</a>
</g>
</g>
<!-- Node1 -->
<g id="node2" class="node">
<title>Node1</title>
<g id="a_node2"><a xlink:href="structmn_1_1internal_1_1can__apply_3_01Z_00_01void__t_3_01Z_3_01Ts_8_8_8_01_4_01_4_00_01Ts_8_8_8_01_4.html" target="_top" xlink:title=" ">
<polygon fill="white" stroke="black" points="159,-616.5 159,-657.5 290,-657.5 290,-616.5 159,-616.5"/>
<text text-anchor="start" x="167" y="-645.5" font-family="Helvetica,sans-Serif" font-size="10.00">mn::internal::can_apply</text>
<text text-anchor="start" x="167" y="-634.5" font-family="Helvetica,sans-Serif" font-size="10.00">&lt; Z, void_t&lt; Z&lt; Ts...</text>
<text text-anchor="middle" x="224.5" y="-623.5" font-family="Helvetica,sans-Serif" font-size="10.00"> &gt; &gt;, Ts... &gt;</text>
</a>
</g>
</g>
<!-- Node0&#45;&gt;Node1 -->
<g id="edge1" class="edge">
<title>Node0&#45;&gt;Node1</title>
<path fill="none" stroke="midnightblue" d="M64.12,-337.25C68.95,-392.73 87.75,-526.7 159,-607 162.11,-610.51 165.73,-613.64 169.62,-616.42"/>
<polygon fill="midnightblue" stroke="midnightblue" points="67.61,-336.93 63.33,-327.24 60.63,-337.48 67.61,-336.93"/>
</g>
<!-- Node2 -->
<g id="node3" class="node">
<title>Node2</title>
<g id="a_node3"><a xlink:href="structmn_1_1is__convertible_3_01void_00_01void_01_4.html" target="_top" xlink:title=" ">
<polygon fill="white" stroke="black" points="171,-567 171,-597 278,-597 278,-567 171,-567"/>
<text text-anchor="start" x="179" y="-585" font-family="Helvetica,sans-Serif" font-size="10.00">mn::is_convertible</text>
<text text-anchor="middle" x="224.5" y="-574" font-family="Helvetica,sans-Serif" font-size="10.00">&lt; void, void &gt;</text>
</a>
</g>
</g>
<!-- Node0&#45;&gt;Node2 -->
<g id="edge2" class="edge">
<title>Node0&#45;&gt;Node2</title>
<path fill="none" stroke="midnightblue" d="M65.53,-337.09C72.76,-386.17 95.42,-495.53 159,-558 162.49,-561.43 166.52,-564.38 170.83,-566.91"/>
<polygon fill="midnightblue" stroke="midnightblue" points="68.98,-336.46 64.15,-327.04 62.05,-337.42 68.98,-336.46"/>
</g>
<!-- Node3 -->
<g id="node4" class="node">
<title>Node3</title>
<g id="a_node4"><a xlink:href="structmn_1_1is__floating__point_3_01double_01_4.html" target="_top" xlink:title=" ">
<polygon fill="white" stroke="black" points="165,-518 165,-548 284,-548 284,-518 165,-518"/>
<text text-anchor="start" x="173" y="-536" font-family="Helvetica,sans-Serif" font-size="10.00">mn::is_floating_point</text>
<text text-anchor="middle" x="224.5" y="-525" font-family="Helvetica,sans-Serif" font-size="10.00">&lt; double &gt;</text>
</a>
</g>
</g>
<!-- Node0&#45;&gt;Node3 -->
<g id="edge3" class="edge">
<title>Node0&#45;&gt;Node3</title>
<path fill="none" stroke="midnightblue" d="M68.29,-336.97C79.12,-378.35 106.28,-461.27 159,-509 162.81,-512.45 167.16,-515.42 171.76,-517.97"/>
<polygon fill="midnightblue" stroke="midnightblue" points="71.66,-336.01 65.83,-327.16 64.87,-337.71 71.66,-336.01"/>
</g>
<!-- Node4 -->
<g id="node5" class="node">
<title>Node4</title>
<g id="a_node5"><a xlink:href="structmn_1_1is__floating__point_3_01float_01_4.html" target="_top" xlink:title=" ">
<polygon fill="white" stroke="black" points="165,-469 165,-499 284,-499 284,-469 165,-469"/>
<text text-anchor="start" x="173" y="-487" font-family="Helvetica,sans-Serif" font-size="10.00">mn::is_floating_point</text>
<text text-anchor="middle" x="224.5" y="-476" font-family="Helvetica,sans-Serif" font-size="10.00">&lt; float &gt;</text>
</a>
</g>
</g>
<!-- Node0&#45;&gt;Node4 -->
<g id="edge4" class="edge">
<title>Node0&#45;&gt;Node4</title>
<path fill="none" stroke="midnightblue" d="M72.58,-336.55C87.1,-369.09 116.88,-426.32 159,-460 163.29,-463.43 168.12,-466.41 173.16,-468.98"/>
<polygon fill="midnightblue" stroke="midnightblue" points="75.75,-335.08 68.56,-327.3 69.33,-337.86 75.75,-335.08"/>
</g>
<!-- Node5 -->
<g id="node6" class="node">
<title>Node5</title>
<g id="a_node6"><a xlink:href="structmn_1_1is__pod_3_01internal_1_1aligned0_01_4.html" target="_top" xlink:title=" ">
<polygon fill="white" stroke="black" points="165,-420 165,-450 284,-450 284,-420 165,-420"/>
<text text-anchor="start" x="173" y="-438" font-family="Helvetica,sans-Serif" font-size="10.00">mn::is_pod&lt; internal</text>
<text text-anchor="middle" x="224.5" y="-427" font-family="Helvetica,sans-Serif" font-size="10.00">::aligned0 &gt;</text>
</a>
</g>
</g>
<!-- Node0&#45;&gt;Node5 -->
<g id="edge5" class="edge">
<title>Node0&#45;&gt;Node5</title>
<path fill="none" stroke="midnightblue" d="M79.88,-335.02C97.64,-357.14 127.08,-390.21 159,-411 164.11,-414.33 169.74,-417.28 175.48,-419.87"/>
<polygon fill="midnightblue" stroke="midnightblue" points="82.6,-332.81 73.67,-327.12 77.1,-337.14 82.6,-332.81"/>
</g>
<!-- Node6 -->
<g id="node7" class="node">
<title>Node6</title>
<g id="a_node7"><a xlink:href="structmn_1_1is__pod_3_01internal_1_1aligned1_01_4.html" target="_top" xlink:title=" ">
<polygon fill="white" stroke="black" points="165,-371 165,-401 284,-401 284,-371 165,-371"/>
<text text-anchor="start" x="173" y="-389" font-family="Helvetica,sans-Serif" font-size="10.00">mn::is_pod&lt; internal</text>
<text text-anchor="middle" x="224.5" y="-378" font-family="Helvetica,sans-Serif" font-size="10.00">::aligned1 &gt;</text>
</a>
</g>
</g>
<!-- Node0&#45;&gt;Node6 -->
<g id="edge6" class="edge">
<title>Node0&#45;&gt;Node6</title>
<path fill="none" stroke="midnightblue" d="M98.48,-331.97C116.41,-341.58 138.58,-352.95 159,-362 165.99,-365.1 173.52,-368.15 180.88,-370.98"/>
<polygon fill="midnightblue" stroke="midnightblue" points="99.98,-328.8 89.52,-327.13 96.65,-334.96 99.98,-328.8"/>
</g>
<!-- Node7 -->
<g id="node8" class="node">
<title>Node7</title>
<g id="a_node8"><a xlink:href="structmn_1_1is__pod_3_01internal_1_1aligned16_01_4.html" target="_top" xlink:title=" ">
<polygon fill="white" stroke="black" points="165,-322 165,-352 284,-352 284,-322 165,-322"/>
<text text-anchor="start" x="173" y="-340" font-family="Helvetica,sans-Serif" font-size="10.00">mn::is_pod&lt; internal</text>
<text text-anchor="middle" x="224.5" y="-329" font-family="Helvetica,sans-Serif" font-size="10.00">::aligned16 &gt;</text>
</a>
</g>
</g>
<!-- Node0&#45;&gt;Node7 -->
<g id="edge7" class="edge">
<title>Node0&#45;&gt;Node7</title>
<path fill="none" stroke="midnightblue" d="M133.38,-323.01C143.93,-324.64 154.69,-326.32 164.94,-327.91"/>
<polygon fill="midnightblue" stroke="midnightblue" points="133.79,-319.53 123.37,-321.45 132.71,-326.44 133.79,-319.53"/>
</g>
<!-- Node8 -->
<g id="node9" class="node">
<title>Node8</title>
<g id="a_node9"><a xlink:href="structmn_1_1is__pod_3_01internal_1_1aligned2_01_4.html" target="_top" xlink:title=" ">
<polygon fill="white" stroke="black" points="165,-273 165,-303 284,-303 284,-273 165,-273"/>
<text text-anchor="start" x="173" y="-291" font-family="Helvetica,sans-Serif" font-size="10.00">mn::is_pod&lt; internal</text>
<text text-anchor="middle" x="224.5" y="-280" font-family="Helvetica,sans-Serif" font-size="10.00">::aligned2 &gt;</text>
</a>
</g>
</g>
<!-- Node0&#45;&gt;Node8 -->
<g id="edge8" class="edge">
<title>Node0&#45;&gt;Node8</title>
<path fill="none" stroke="midnightblue" d="M133.38,-301.43C143.93,-299.86 154.69,-298.26 164.94,-296.73"/>
<polygon fill="midnightblue" stroke="midnightblue" points="132.74,-297.99 123.37,-302.93 133.77,-304.91 132.74,-297.99"/>
</g>
<!-- Node9 -->
<g id="node10" class="node">
<title>Node9</title>
<g id="a_node10"><a xlink:href="structmn_1_1is__pod_3_01internal_1_1aligned32_01_4.html" target="_top" xlink:title=" ">
<polygon fill="white" stroke="black" points="165,-224 165,-254 284,-254 284,-224 165,-224"/>
<text text-anchor="start" x="173" y="-242" font-family="Helvetica,sans-Serif" font-size="10.00">mn::is_pod&lt; internal</text>
<text text-anchor="middle" x="224.5" y="-231" font-family="Helvetica,sans-Serif" font-size="10.00">::aligned32 &gt;</text>
</a>
</g>
</g>
<!-- Node0&#45;&gt;Node9 -->
<g id="edge9" class="edge">
<title>Node0&#45;&gt;Node9</title>
<path fill="none" stroke="midnightblue" d="M100.67,-292.01C118.25,-283.06 139.5,-272.61 159,-264 166.69,-260.61 175,-257.2 183.01,-254.04"/>
<polygon fill="midnightblue" stroke="midnightblue" points="98.61,-289.13 91.31,-296.8 101.8,-295.36 98.61,-289.13"/>
</g>
<!-- Node10 -->
<g id="node11" class="node">
<title>Node10</title>
<g id="a_node11"><a xlink:href="structmn_1_1is__pod_3_01internal_1_1aligned4_01_4.html" target="_top" xlink:title=" ">
<polygon fill="white" stroke="black" points="165,-175 165,-205 284,-205 284,-175 165,-175"/>
<text text-anchor="start" x="173" y="-193" font-family="Helvetica,sans-Serif" font-size="10.00">mn::is_pod&lt; internal</text>
<text text-anchor="middle" x="224.5" y="-182" font-family="Helvetica,sans-Serif" font-size="10.00">::aligned4 &gt;</text>
</a>
</g>
</g>
<!-- Node0&#45;&gt;Node10 -->
<g id="edge10" class="edge">
<title>Node0&#45;&gt;Node10</title>
<path fill="none" stroke="midnightblue" d="M80.58,-288.91C98.51,-267.32 127.75,-235.42 159,-215 164.73,-211.25 171.11,-207.94 177.56,-205.04"/>
<polygon fill="midnightblue" stroke="midnightblue" points="77.66,-286.95 74.06,-296.91 83.09,-291.37 77.66,-286.95"/>
</g>
<!-- Node11 -->
<g id="node12" class="node">
<title>Node11</title>
<g id="a_node12"><a xlink:href="structmn_1_1is__pod_3_01internal_1_1aligned64_01_4.html" target="_top" xlink:title=" ">
<polygon fill="white" stroke="black" points="165,-126 165,-156 284,-156 284,-126 165,-126"/>
<text text-anchor="start" x="173" y="-144" font-family="Helvetica,sans-Serif" font-size="10.00">mn::is_pod&lt; internal</text>
<text text-anchor="middle" x="224.5" y="-133" font-family="Helvetica,sans-Serif" font-size="10.00">::aligned64 &gt;</text>
</a>
</g>
</g>
<!-- Node0&#45;&gt;Node11 -->
<g id="edge11" class="edge">
<title>Node0&#45;&gt;Node11</title>
<path fill="none" stroke="midnightblue" d="M72.92,-287.45C87.69,-255.37 117.58,-199.37 159,-166 163.77,-162.16 169.2,-158.85 174.83,-156.03"/>
<polygon fill="midnightblue" stroke="midnightblue" points="69.55,-286.41 68.66,-296.97 75.94,-289.27 69.55,-286.41"/>
</g>
<!-- Node12 -->
<g id="node13" class="node">
<title>Node12</title>
<g id="a_node13"><a xlink:href="structmn_1_1is__pod_3_01internal_1_1aligned8_01_4.html" target="_top" xlink:title=" ">
<polygon fill="white" stroke="black" points="165,-77 165,-107 284,-107 284,-77 165,-77"/>
<text text-anchor="start" x="173" y="-95" font-family="Helvetica,sans-Serif" font-size="10.00">mn::is_pod&lt; internal</text>
<text text-anchor="middle" x="224.5" y="-84" font-family="Helvetica,sans-Serif" font-size="10.00">::aligned8 &gt;</text>
</a>
</g>
</g>
<!-- Node0&#45;&gt;Node12 -->
<g id="edge12" class="edge">
<title>Node0&#45;&gt;Node12</title>
<path fill="none" stroke="midnightblue" d="M68.52,-287.05C79.61,-246.11 107.06,-164.47 159,-117 163.17,-113.19 167.98,-109.94 173.05,-107.17"/>
<polygon fill="midnightblue" stroke="midnightblue" points="65.12,-286.21 65.98,-296.77 71.89,-287.98 65.12,-286.21"/>
</g>
<!-- Node13 -->
<g id="node14" class="node">
<title>Node13</title>
<g id="a_node14"><a xlink:href="structmn_1_1is__pointer_3_01T_01_5_01_4.html" target="_top" xlink:title=" ">
<polygon fill="white" stroke="black" points="163,-38.5 163,-57.5 286,-57.5 286,-38.5 163,-38.5"/>
<text text-anchor="middle" x="224.5" y="-45.5" font-family="Helvetica,sans-Serif" font-size="10.00">mn::is_pointer&lt; T * &gt;</text>
</a>
</g>
</g>
<!-- Node0&#45;&gt;Node13 -->
<g id="edge13" class="edge">
<title>Node0&#45;&gt;Node13</title>
<path fill="none" stroke="midnightblue" d="M65.3,-286.8C72.12,-237.57 94.08,-128.17 159,-68 163.73,-63.62 169.4,-60.19 175.4,-57.52"/>
<polygon fill="midnightblue" stroke="midnightblue" points="61.81,-286.53 64,-296.89 68.75,-287.42 61.81,-286.53"/>
</g>
<!-- Node14 -->
<g id="node15" class="node">
<title>Node14</title>
<g id="a_node15"><a xlink:href="structmn_1_1is__same_3_01A_00_01A_01_4.html" target="_top" xlink:title=" ">
<polygon fill="white" stroke="black" points="164,-0.5 164,-19.5 285,-19.5 285,-0.5 164,-0.5"/>
<text text-anchor="middle" x="224.5" y="-7.5" font-family="Helvetica,sans-Serif" font-size="10.00">mn::is_same&lt; A, A &gt;</text>
</a>
</g>
</g>
<!-- Node0&#45;&gt;Node14 -->
<g id="edge14" class="edge">
<title>Node0&#45;&gt;Node14</title>
<path fill="none" stroke="midnightblue" d="M63.64,-286.63C67.52,-231.58 84.51,-100.42 159,-29 163.04,-25.12 167.84,-22.03 172.96,-19.57"/>
<polygon fill="midnightblue" stroke="midnightblue" points="60.13,-286.68 63.01,-296.88 67.12,-287.11 60.13,-286.68"/>
</g>
</g>
</svg>
