<?xml version="1.0" encoding="UTF-8" standalone="no"?>
<!DOCTYPE svg PUBLIC "-//W3C//DTD SVG 1.1//EN"
 "http://www.w3.org/Graphics/SVG/1.1/DTD/svg11.dtd">
<!-- Generated by graphviz version 2.47.1 (0)
 -->
<!-- Title: Graphical Class Hierarchy Pages: 1 -->
<svg width="304pt" height="742pt"
 viewBox="0.00 0.00 304.00 741.50" xmlns="http://www.w3.org/2000/svg" xmlns:xlink="http://www.w3.org/1999/xlink">
<g id="graph0" class="graph" transform="scale(1 1) rotate(0) translate(4 737.5)">
<title>Graphical Class Hierarchy</title>
<polygon fill="white" stroke="transparent" points="-4,4 -4,-737.5 300,-737.5 300,4 -4,4"/>
<!-- Node16 -->
<g id="node1" class="node">
<title>Node16</title>
<g id="a_node1"><a xlink:title=" ">
<polygon fill="white" stroke="#bfbfbf" points="0,-379.5 0,-398.5 115,-398.5 115,-379.5 0,-379.5"/>
<text text-anchor="middle" x="57.5" y="-386.5" font-family="Helvetica,sans-Serif" font-size="10.00">BASE_ATOMIC_TYPE</text>
</a>
</g>
</g>
<!-- Node0 -->
<g id="node2" class="node">
<title>Node0</title>
<g id="a_node2"><a xlink:href="structmn_1_1__atomic.html" target="_top" xlink:title=" ">
<polygon fill="white" stroke="black" points="165.5,-703 165.5,-733 281.5,-733 281.5,-703 165.5,-703"/>
<text text-anchor="start" x="173.5" y="-721" font-family="Helvetica,sans-Serif" font-size="10.00">mn::_atomic&lt; value</text>
<text text-anchor="middle" x="223.5" y="-710" font-family="Helvetica,sans-Serif" font-size="10.00">_type &gt;</text>
</a>
</g>
</g>
<!-- Node16&#45;&gt;Node0 -->
<g id="edge1" class="edge">
<title>Node16&#45;&gt;Node0</title>
<path fill="none" stroke="midnightblue" d="M58.67,-408.87C60.22,-462.28 71.81,-610.5 151,-693 155.1,-697.27 159.96,-700.81 165.2,-703.75"/>
<polygon fill="midnightblue" stroke="midnightblue" points="62.17,-408.63 58.47,-398.71 55.17,-408.77 62.17,-408.63"/>
</g>
<!-- Node18 -->
<g id="node3" class="node">
<title>Node18</title>
<g id="a_node3"><a xlink:href="structmn_1_1__atomic.html" target="_top" xlink:title=" ">
<polygon fill="white" stroke="black" points="151,-664.5 151,-683.5 296,-683.5 296,-664.5 151,-664.5"/>
<text text-anchor="middle" x="223.5" y="-671.5" font-family="Helvetica,sans-Serif" font-size="10.00">mn::_atomic&lt; flag_type &gt;</text>
</a>
</g>
</g>
<!-- Node16&#45;&gt;Node18 -->
<g id="edge2" class="edge">
<title>Node16&#45;&gt;Node18</title>
<path fill="none" stroke="midnightblue" d="M59.34,-408.97C62.54,-458.36 77.83,-587.12 151,-655 155.14,-658.84 159.97,-661.93 165.13,-664.4"/>
<polygon fill="midnightblue" stroke="midnightblue" points="62.82,-408.49 58.78,-398.7 55.83,-408.87 62.82,-408.49"/>
</g>
<!-- Node19 -->
<g id="node4" class="node">
<title>Node19</title>
<g id="a_node4"><a xlink:href="structmn_1_1__atomic.html" target="_top" xlink:title="Only for declar special version for types.">
<polygon fill="white" stroke="black" points="170.5,-626.5 170.5,-645.5 276.5,-645.5 276.5,-626.5 170.5,-626.5"/>
<text text-anchor="middle" x="223.5" y="-633.5" font-family="Helvetica,sans-Serif" font-size="10.00">mn::_atomic&lt; T &gt;</text>
</a>
</g>
</g>
<!-- Node16&#45;&gt;Node19 -->
<g id="edge3" class="edge">
<title>Node16&#45;&gt;Node19</title>
<path fill="none" stroke="midnightblue" d="M60.6,-408.49C66.39,-452.54 86.74,-560.35 151,-617 156.59,-621.93 163.31,-625.6 170.38,-628.32"/>
<polygon fill="midnightblue" stroke="midnightblue" points="64.06,-408.02 59.39,-398.51 57.11,-408.86 64.06,-408.02"/>
</g>
<!-- Node20 -->
<g id="node5" class="node">
<title>Node20</title>
<g id="a_node5"><a xlink:href="structmn_1_1__atomic_3_01bool_01_4.html" target="_top" xlink:title="Special version for bool.">
<polygon fill="white" stroke="black" points="163,-588.5 163,-607.5 284,-607.5 284,-588.5 163,-588.5"/>
<text text-anchor="middle" x="223.5" y="-595.5" font-family="Helvetica,sans-Serif" font-size="10.00">mn::_atomic&lt; bool &gt;</text>
</a>
</g>
</g>
<!-- Node16&#45;&gt;Node20 -->
<g id="edge4" class="edge">
<title>Node16&#45;&gt;Node20</title>
<path fill="none" stroke="midnightblue" d="M62.38,-408.61C71.07,-447.29 95.83,-533.58 151,-579 155.66,-582.84 161.02,-585.9 166.66,-588.36"/>
<polygon fill="midnightblue" stroke="midnightblue" points="65.76,-407.69 60.26,-398.64 58.91,-409.14 65.76,-407.69"/>
</g>
<!-- Node21 -->
<g id="node6" class="node">
<title>Node21</title>
<g id="a_node6"><a xlink:href="structmn_1_1__atomic_3_01char_01_4.html" target="_top" xlink:title="Special version for char.">
<polygon fill="white" stroke="black" points="163,-550.5 163,-569.5 284,-569.5 284,-550.5 163,-550.5"/>
<text text-anchor="middle" x="223.5" y="-557.5" font-family="Helvetica,sans-Serif" font-size="10.00">mn::_atomic&lt; char &gt;</text>
</a>
</g>
</g>
<!-- Node16&#45;&gt;Node21 -->
<g id="edge5" class="edge">
<title>Node16&#45;&gt;Node21</title>
<path fill="none" stroke="midnightblue" d="M64.81,-408.23C76.47,-440.71 104.54,-506.27 151,-541 156.14,-544.85 162.01,-547.91 168.11,-550.36"/>
<polygon fill="midnightblue" stroke="midnightblue" points="68.05,-406.89 61.48,-398.58 61.43,-409.17 68.05,-406.89"/>
</g>
<!-- Node22 -->
<g id="node7" class="node">
<title>Node22</title>
<g id="a_node7"><a xlink:href="structmn_1_1__atomic_3_01char16__t_01_4.html" target="_top" xlink:title="Special version for char16_t.">
<polygon fill="white" stroke="black" points="152.5,-512.5 152.5,-531.5 294.5,-531.5 294.5,-512.5 152.5,-512.5"/>
<text text-anchor="middle" x="223.5" y="-519.5" font-family="Helvetica,sans-Serif" font-size="10.00">mn::_atomic&lt; char16_t &gt;</text>
</a>
</g>
</g>
<!-- Node16&#45;&gt;Node22 -->
<g id="edge6" class="edge">
<title>Node16&#45;&gt;Node22</title>
<path fill="none" stroke="midnightblue" d="M68.56,-407.67C83.26,-433.15 113.03,-478.43 151,-503 157.04,-506.91 163.86,-510.02 170.82,-512.49"/>
<polygon fill="midnightblue" stroke="midnightblue" points="71.46,-405.69 63.52,-398.67 65.35,-409.11 71.46,-405.69"/>
</g>
<!-- Node23 -->
<g id="node8" class="node">
<title>Node23</title>
<g id="a_node8"><a xlink:href="structmn_1_1__atomic_3_01char32__t_01_4.html" target="_top" xlink:title="Special version for char32_t.">
<polygon fill="white" stroke="black" points="152.5,-474.5 152.5,-493.5 294.5,-493.5 294.5,-474.5 152.5,-474.5"/>
<text text-anchor="middle" x="223.5" y="-481.5" font-family="Helvetica,sans-Serif" font-size="10.00">mn::_atomic&lt; char32_t &gt;</text>
</a>
</g>
</g>
<!-- Node16&#45;&gt;Node23 -->
<g id="edge7" class="edge">
<title>Node16&#45;&gt;Node23</title>
<path fill="none" stroke="midnightblue" d="M74.58,-405.95C91.9,-423.23 121.01,-449.62 151,-465 158.43,-468.81 166.7,-471.91 174.89,-474.41"/>
<polygon fill="midnightblue" stroke="midnightblue" points="77,-403.41 67.5,-398.72 72,-408.31 77,-403.41"/>
</g>
<!-- Node24 -->
<g id="node9" class="node">
<title>Node24</title>
<g id="a_node9"><a xlink:href="structmn_1_1__atomic_3_01int_01_4.html" target="_top" xlink:title="Special version for int.">
<polygon fill="white" stroke="black" points="167,-436.5 167,-455.5 280,-455.5 280,-436.5 167,-436.5"/>
<text text-anchor="middle" x="223.5" y="-443.5" font-family="Helvetica,sans-Serif" font-size="10.00">mn::_atomic&lt; int &gt;</text>
</a>
</g>
</g>
<!-- Node16&#45;&gt;Node24 -->
<g id="edge8" class="edge">
<title>Node16&#45;&gt;Node24</title>
<path fill="none" stroke="midnightblue" d="M88.85,-402.64C106.72,-410.37 129.9,-419.9 151,-427 161.22,-430.44 172.44,-433.67 182.89,-436.46"/>
<polygon fill="midnightblue" stroke="midnightblue" points="90.08,-399.35 79.51,-398.55 87.27,-405.77 90.08,-399.35"/>
</g>
<!-- Node25 -->
<g id="node10" class="node">
<title>Node25</title>
<g id="a_node10"><a xlink:href="structmn_1_1__atomic_3_01long_01_4.html" target="_top" xlink:title="Special version for long.">
<polygon fill="white" stroke="black" points="163,-398.5 163,-417.5 284,-417.5 284,-398.5 163,-398.5"/>
<text text-anchor="middle" x="223.5" y="-405.5" font-family="Helvetica,sans-Serif" font-size="10.00">mn::_atomic&lt; long &gt;</text>
</a>
</g>
</g>
<!-- Node16&#45;&gt;Node25 -->
<g id="edge9" class="edge">
<title>Node16&#45;&gt;Node25</title>
<path fill="none" stroke="midnightblue" d="M125.64,-396.78C137.99,-398.21 150.8,-399.69 162.91,-401.1"/>
<polygon fill="midnightblue" stroke="midnightblue" points="125.74,-393.27 115.4,-395.59 124.93,-400.22 125.74,-393.27"/>
</g>
<!-- Node26 -->
<g id="node11" class="node">
<title>Node26</title>
<g id="a_node11"><a xlink:href="structmn_1_1__atomic_3_01long_01long_01_4.html" target="_top" xlink:title="Special version for long long.">
<polygon fill="white" stroke="black" points="151,-360.5 151,-379.5 296,-379.5 296,-360.5 151,-360.5"/>
<text text-anchor="middle" x="223.5" y="-367.5" font-family="Helvetica,sans-Serif" font-size="10.00">mn::_atomic&lt; long long &gt;</text>
</a>
</g>
</g>
<!-- Node16&#45;&gt;Node26 -->
<g id="edge10" class="edge">
<title>Node16&#45;&gt;Node26</title>
<path fill="none" stroke="midnightblue" d="M125.5,-381.24C133.9,-380.26 142.51,-379.27 150.97,-378.29"/>
<polygon fill="midnightblue" stroke="midnightblue" points="124.93,-377.78 115.4,-382.41 125.74,-384.73 124.93,-377.78"/>
</g>
<!-- Node27 -->
<g id="node12" class="node">
<title>Node27</title>
<g id="a_node12"><a xlink:href="structmn_1_1__atomic_3_01short_01_4.html" target="_top" xlink:title="Special version for short.">
<polygon fill="white" stroke="black" points="161,-322.5 161,-341.5 286,-341.5 286,-322.5 161,-322.5"/>
<text text-anchor="middle" x="223.5" y="-329.5" font-family="Helvetica,sans-Serif" font-size="10.00">mn::_atomic&lt; short &gt;</text>
</a>
</g>
</g>
<!-- Node16&#45;&gt;Node27 -->
<g id="edge11" class="edge">
<title>Node16&#45;&gt;Node27</title>
<path fill="none" stroke="midnightblue" d="M88.85,-375.36C106.72,-367.63 129.9,-358.1 151,-351 161.22,-347.56 172.44,-344.33 182.89,-341.54"/>
<polygon fill="midnightblue" stroke="midnightblue" points="87.27,-372.23 79.51,-379.45 90.08,-378.65 87.27,-372.23"/>
</g>
<!-- Node28 -->
<g id="node13" class="node">
<title>Node28</title>
<g id="a_node13"><a xlink:href="structmn_1_1__atomic_3_01signed_01char_01_4.html" target="_top" xlink:title="Special version for signed char.">
<polygon fill="white" stroke="black" points="163,-273 163,-303 284,-303 284,-273 163,-273"/>
<text text-anchor="start" x="171" y="-291" font-family="Helvetica,sans-Serif" font-size="10.00">mn::_atomic&lt; signed</text>
<text text-anchor="middle" x="223.5" y="-280" font-family="Helvetica,sans-Serif" font-size="10.00"> char &gt;</text>
</a>
</g>
</g>
<!-- Node16&#45;&gt;Node28 -->
<g id="edge12" class="edge">
<title>Node16&#45;&gt;Node28</title>
<path fill="none" stroke="midnightblue" d="M75.11,-372.24C92.66,-355.32 121.78,-329.43 151,-313 157.65,-309.26 164.95,-305.94 172.28,-303.02"/>
<polygon fill="midnightblue" stroke="midnightblue" points="72.59,-369.81 67.91,-379.31 77.5,-374.8 72.59,-369.81"/>
</g>
<!-- Node29 -->
<g id="node14" class="node">
<title>Node29</title>
<g id="a_node14"><a xlink:href="structmn_1_1__atomic_3_01unsigned_01char_01_4.html" target="_top" xlink:title="Special version for unsigned char.">
<polygon fill="white" stroke="black" points="157,-224 157,-254 290,-254 290,-224 157,-224"/>
<text text-anchor="start" x="165" y="-242" font-family="Helvetica,sans-Serif" font-size="10.00">mn::_atomic&lt; unsigned</text>
<text text-anchor="middle" x="223.5" y="-231" font-family="Helvetica,sans-Serif" font-size="10.00"> char &gt;</text>
</a>
</g>
</g>
<!-- Node16&#45;&gt;Node29 -->
<g id="edge13" class="edge">
<title>Node16&#45;&gt;Node29</title>
<path fill="none" stroke="midnightblue" d="M67.77,-370.11C82.04,-342.92 111.88,-292.83 151,-264 156.19,-260.18 162.01,-256.9 168.03,-254.11"/>
<polygon fill="midnightblue" stroke="midnightblue" points="64.5,-368.83 63.08,-379.33 70.74,-372 64.5,-368.83"/>
</g>
<!-- Node30 -->
<g id="node15" class="node">
<title>Node30</title>
<g id="a_node15"><a xlink:href="structmn_1_1__atomic_3_01unsigned_01int_01_4.html" target="_top" xlink:title="Special version for int.">
<polygon fill="white" stroke="black" points="157,-175 157,-205 290,-205 290,-175 157,-175"/>
<text text-anchor="start" x="165" y="-193" font-family="Helvetica,sans-Serif" font-size="10.00">mn::_atomic&lt; unsigned</text>
<text text-anchor="middle" x="223.5" y="-182" font-family="Helvetica,sans-Serif" font-size="10.00"> int &gt;</text>
</a>
</g>
</g>
<!-- Node16&#45;&gt;Node30 -->
<g id="edge14" class="edge">
<title>Node16&#45;&gt;Node30</title>
<path fill="none" stroke="midnightblue" d="M63.74,-369.4C74.27,-333.64 101.36,-257.61 151,-215 155.49,-211.15 160.61,-207.87 166,-205.1"/>
<polygon fill="midnightblue" stroke="midnightblue" points="60.34,-368.54 60.99,-379.12 67.08,-370.45 60.34,-368.54"/>
</g>
<!-- Node31 -->
<g id="node16" class="node">
<title>Node31</title>
<g id="a_node16"><a xlink:href="structmn_1_1__atomic_3_01unsigned_01long_01_4.html" target="_top" xlink:title="Special version for long.">
<polygon fill="white" stroke="black" points="157,-126 157,-156 290,-156 290,-126 157,-126"/>
<text text-anchor="start" x="165" y="-144" font-family="Helvetica,sans-Serif" font-size="10.00">mn::_atomic&lt; unsigned</text>
<text text-anchor="middle" x="223.5" y="-133" font-family="Helvetica,sans-Serif" font-size="10.00"> long &gt;</text>
</a>
</g>
</g>
<!-- Node16&#45;&gt;Node31 -->
<g id="edge15" class="edge">
<title>Node16&#45;&gt;Node31</title>
<path fill="none" stroke="midnightblue" d="M61.18,-369.4C68.06,-326.46 90.31,-223.34 151,-166 155.11,-162.12 159.86,-158.83 164.91,-156.06"/>
<polygon fill="midnightblue" stroke="midnightblue" points="57.7,-368.99 59.68,-379.4 64.62,-370.03 57.7,-368.99"/>
</g>
<!-- Node32 -->
<g id="node17" class="node">
<title>Node32</title>
<g id="a_node17"><a xlink:href="structmn_1_1__atomic_3_01unsigned_01short_01_4.html" target="_top" xlink:title="Special version for short.">
<polygon fill="white" stroke="black" points="157,-77 157,-107 290,-107 290,-77 157,-77"/>
<text text-anchor="start" x="165" y="-95" font-family="Helvetica,sans-Serif" font-size="10.00">mn::_atomic&lt; unsigned</text>
<text text-anchor="middle" x="223.5" y="-84" font-family="Helvetica,sans-Serif" font-size="10.00"> short &gt;</text>
</a>
</g>
</g>
<!-- Node16&#45;&gt;Node32 -->
<g id="edge16" class="edge">
<title>Node16&#45;&gt;Node32</title>
<path fill="none" stroke="midnightblue" d="M59.5,-369.25C63.07,-319.8 79.16,-189.46 151,-117 154.8,-113.17 159.21,-109.93 163.95,-107.18"/>
<polygon fill="midnightblue" stroke="midnightblue" points="56.01,-369.07 58.88,-379.26 62.99,-369.5 56.01,-369.07"/>
</g>
<!-- Node33 -->
<g id="node18" class="node">
<title>Node33</title>
<g id="a_node18"><a xlink:href="structmn_1_1__atomic_3_01wchar__t_01_4.html" target="_top" xlink:title="Special version for wchar_t.">
<polygon fill="white" stroke="black" points="154.5,-38.5 154.5,-57.5 292.5,-57.5 292.5,-38.5 154.5,-38.5"/>
<text text-anchor="middle" x="223.5" y="-45.5" font-family="Helvetica,sans-Serif" font-size="10.00">mn::_atomic&lt; wchar_t &gt;</text>
</a>
</g>
</g>
<!-- Node16&#45;&gt;Node33 -->
<g id="edge17" class="edge">
<title>Node16&#45;&gt;Node33</title>
<path fill="none" stroke="midnightblue" d="M58.01,-369.25C57.74,-313.49 64.9,-153.43 151,-68 155.39,-63.64 160.65,-60.22 166.3,-57.52"/>
<polygon fill="midnightblue" stroke="midnightblue" points="54.51,-369.55 58.15,-379.5 61.51,-369.45 54.51,-369.55"/>
</g>
<!-- Node34 -->
<g id="node19" class="node">
<title>Node34</title>
<g id="a_node19"><a xlink:href="structmn_1_1__atomic__ptr.html" target="_top" xlink:title="Special version for pointer.">
<polygon fill="white" stroke="black" points="161,-0.5 161,-19.5 286,-19.5 286,-0.5 161,-0.5"/>
<text text-anchor="middle" x="223.5" y="-7.5" font-family="Helvetica,sans-Serif" font-size="10.00">mn::_atomic_ptr&lt; T &gt;</text>
</a>
</g>
</g>
<!-- Node16&#45;&gt;Node34 -->
<g id="edge18" class="edge">
<title>Node16&#45;&gt;Node34</title>
<path fill="none" stroke="midnightblue" d="M60.97,-369.01C69.81,-300.76 101.92,-78.48 151,-29 154.8,-25.17 159.28,-22.09 164.11,-19.6"/>
<polygon fill="midnightblue" stroke="midnightblue" points="57.46,-368.88 59.68,-379.24 64.41,-369.76 57.46,-368.88"/>
</g>
</g>
</svg>
