<?xml version="1.0" encoding="UTF-8" standalone="no"?>
<!DOCTYPE svg PUBLIC "-//W3C//DTD SVG 1.1//EN"
 "http://www.w3.org/Graphics/SVG/1.1/DTD/svg11.dtd">
<!-- Generated by graphviz version 2.46.0 (0)
 -->
<!-- Title: Graphical Class Hierarchy Pages: 1 -->
<svg width="284pt" height="88pt"
 viewBox="0.00 0.00 284.00 88.00" xmlns="http://www.w3.org/2000/svg" xmlns:xlink="http://www.w3.org/1999/xlink">
<g id="graph0" class="graph" transform="scale(1 1) rotate(0) translate(4 84)">
<title>Graphical Class Hierarchy</title>
<polygon fill="white" stroke="transparent" points="-4,4 -4,-84 280,-84 280,4 -4,4"/>
<!-- Node0 -->
<g id="node1" class="node">
<title>Node0</title>
<g id="a_node1"><a xlink:href="classmn_1_1net_1_1basic__endpoint.html" target="_top" xlink:title=" ">
<polygon fill="white" stroke="black" points="0,-30 0,-49 134,-49 134,-30 0,-30"/>
<text text-anchor="middle" x="67" y="-37" font-family="Helvetica,sans-Serif" font-size="10.00">mn::net::basic_endpoint</text>
</a>
</g>
</g>
<!-- Node1 -->
<g id="node2" class="node">
<title>Node1</title>
<g id="a_node2"><a xlink:href="classmn_1_1net_1_1basic__ip4__endpoint.html" target="_top" xlink:title=" ">
<polygon fill="white" stroke="black" points="170,-49.5 170,-79.5 276,-79.5 276,-49.5 170,-49.5"/>
<text text-anchor="start" x="178" y="-67.5" font-family="Helvetica,sans-Serif" font-size="10.00">mn::net::basic_ip4</text>
<text text-anchor="middle" x="223" y="-56.5" font-family="Helvetica,sans-Serif" font-size="10.00">_endpoint</text>
</a>
</g>
</g>
<!-- Node0&#45;&gt;Node1 -->
<g id="edge1" class="edge">
<title>Node0&#45;&gt;Node1</title>
<path fill="none" stroke="midnightblue" d="M136.7,-50.65C147.73,-52.44 158.99,-54.27 169.56,-55.99"/>
<polygon fill="midnightblue" stroke="midnightblue" points="137.09,-47.17 126.66,-49.02 135.97,-54.08 137.09,-47.17"/>
</g>
<!-- Node2 -->
<g id="node3" class="node">
<title>Node2</title>
<g id="a_node3"><a xlink:href="classmn_1_1net_1_1basic__ip6__endpoint.html" target="_top" xlink:title=" ">
<polygon fill="white" stroke="black" points="170,-0.5 170,-30.5 276,-30.5 276,-0.5 170,-0.5"/>
<text text-anchor="start" x="178" y="-18.5" font-family="Helvetica,sans-Serif" font-size="10.00">mn::net::basic_ip6</text>
<text text-anchor="middle" x="223" y="-7.5" font-family="Helvetica,sans-Serif" font-size="10.00">_endpoint</text>
</a>
</g>
</g>
<!-- Node0&#45;&gt;Node2 -->
<g id="edge2" class="edge">
<title>Node0&#45;&gt;Node2</title>
<path fill="none" stroke="midnightblue" d="M139.47,-28.36C149.7,-26.77 160.07,-25.15 169.84,-23.63"/>
<polygon fill="midnightblue" stroke="midnightblue" points="138.65,-24.95 129.31,-29.95 139.73,-31.86 138.65,-24.95"/>
</g>
</g>
</svg>
