<?xml version="1.0" encoding="UTF-8" standalone="no"?>
<!DOCTYPE svg PUBLIC "-//W3C//DTD SVG 1.1//EN"
 "http://www.w3.org/Graphics/SVG/1.1/DTD/svg11.dtd">
<!-- Generated by graphviz version 2.46.0 (0)
 -->
<!-- Title: Graphical Class Hierarchy Pages: 1 -->
<svg width="290pt" height="127pt"
 viewBox="0.00 0.00 290.00 126.50" xmlns="http://www.w3.org/2000/svg" xmlns:xlink="http://www.w3.org/1999/xlink">
<g id="graph0" class="graph" transform="scale(1 1) rotate(0) translate(4 122.5)">
<title>Graphical Class Hierarchy</title>
<polygon fill="white" stroke="transparent" points="-4,4 -4,-122.5 286,-122.5 286,4 -4,4"/>
<!-- Node0 -->
<g id="node1" class="node">
<title>Node0</title>
<g id="a_node1"><a xlink:href="structmn_1_1integral__constant.html" target="_top" xlink:title=" ">
<polygon fill="white" stroke="black" points="0,-39 0,-69 123,-69 123,-39 0,-39"/>
<text text-anchor="start" x="8" y="-57" font-family="Helvetica,sans-Serif" font-size="10.00">mn::integral_constant</text>
<text text-anchor="middle" x="61.5" y="-46" font-family="Helvetica,sans-Serif" font-size="10.00">&lt; bool, true &gt;</text>
</a>
</g>
</g>
<!-- Node1 -->
<g id="node2" class="node">
<title>Node1</title>
<g id="a_node2"><a xlink:href="structmn_1_1is__floating__point_3_01double_01_4.html" target="_top" xlink:title=" ">
<polygon fill="white" stroke="black" points="161,-88 161,-118 280,-118 280,-88 161,-88"/>
<text text-anchor="start" x="169" y="-106" font-family="Helvetica,sans-Serif" font-size="10.00">mn::is_floating_point</text>
<text text-anchor="middle" x="220.5" y="-95" font-family="Helvetica,sans-Serif" font-size="10.00">&lt; double &gt;</text>
</a>
</g>
</g>
<!-- Node0&#45;&gt;Node1 -->
<g id="edge1" class="edge">
<title>Node0&#45;&gt;Node1</title>
<path fill="none" stroke="midnightblue" d="M120.54,-72.11C137.23,-77.32 155.24,-82.95 171.27,-87.95"/>
<polygon fill="midnightblue" stroke="midnightblue" points="121.47,-68.74 110.89,-69.1 119.39,-75.42 121.47,-68.74"/>
</g>
<!-- Node2 -->
<g id="node3" class="node">
<title>Node2</title>
<g id="a_node3"><a xlink:href="structmn_1_1is__floating__point_3_01float_01_4.html" target="_top" xlink:title=" ">
<polygon fill="white" stroke="black" points="161,-39 161,-69 280,-69 280,-39 161,-39"/>
<text text-anchor="start" x="169" y="-57" font-family="Helvetica,sans-Serif" font-size="10.00">mn::is_floating_point</text>
<text text-anchor="middle" x="220.5" y="-46" font-family="Helvetica,sans-Serif" font-size="10.00">&lt; float &gt;</text>
</a>
</g>
</g>
<!-- Node0&#45;&gt;Node2 -->
<g id="edge2" class="edge">
<title>Node0&#45;&gt;Node2</title>
<path fill="none" stroke="midnightblue" d="M133.43,-54C142.57,-54 151.85,-54 160.77,-54"/>
<polygon fill="midnightblue" stroke="midnightblue" points="133.2,-50.5 123.2,-54 133.2,-57.5 133.2,-50.5"/>
</g>
<!-- Node3 -->
<g id="node4" class="node">
<title>Node3</title>
<g id="a_node4"><a xlink:href="structmn_1_1is__pointer_3_01_t_01_5_01_4.html" target="_top" xlink:title=" ">
<polygon fill="white" stroke="black" points="159,-0.5 159,-19.5 282,-19.5 282,-0.5 159,-0.5"/>
<text text-anchor="middle" x="220.5" y="-7.5" font-family="Helvetica,sans-Serif" font-size="10.00">mn::is_pointer&lt; T * &gt;</text>
</a>
</g>
</g>
<!-- Node0&#45;&gt;Node3 -->
<g id="edge3" class="edge">
<title>Node0&#45;&gt;Node3</title>
<path fill="none" stroke="midnightblue" d="M125.92,-36.23C146.23,-30.53 167.93,-24.45 185.32,-19.58"/>
<polygon fill="midnightblue" stroke="midnightblue" points="124.78,-32.91 116.09,-38.98 126.66,-39.65 124.78,-32.91"/>
</g>
</g>
</svg>
