<?xml version="1.0" encoding="UTF-8" standalone="no"?>
<!DOCTYPE svg PUBLIC "-//W3C//DTD SVG 1.1//EN"
 "http://www.w3.org/Graphics/SVG/1.1/DTD/svg11.dtd">
<!-- Generated by graphviz version 2.47.3 (0)
 -->
<!-- Title: Graphical Class Hierarchy Pages: 1 -->
<svg width="314pt" height="78pt"
 viewBox="0.00 0.00 314.00 77.50" xmlns="http://www.w3.org/2000/svg" xmlns:xlink="http://www.w3.org/1999/xlink">
<g id="graph0" class="graph" transform="scale(1 1) rotate(0) translate(4 73.5)">
<title>Graphical Class Hierarchy</title>
<polygon fill="white" stroke="transparent" points="-4,4 -4,-73.5 310,-73.5 310,4 -4,4"/>
<!-- Node443 -->
<g id="node1" class="node">
<title>Node443</title>
<g id="a_node1"><a xlink:title=" ">
<polygon fill="white" stroke="#bfbfbf" points="0,-28 0,-47 140,-47 140,-28 0,-28"/>
<text text-anchor="middle" x="70" y="-35" font-family="Helvetica,sans-Serif" font-size="10.00">MN_ONCOPYABLE_CLASS</text>
</a>
</g>
</g>
<!-- Node0 -->
<g id="node2" class="node">
<title>Node0</title>
<g id="a_node2"><a xlink:href="classmn_1_1basic__event__group.html" target="_top" xlink:title="Wrapper class around FreeRTOS&#39;s implementation of a event_group.">
<polygon fill="white" stroke="black" points="176,-50 176,-69 306,-69 306,-50 176,-50"/>
<text text-anchor="middle" x="241" y="-57" font-family="Helvetica,sans-Serif" font-size="10.00">mn::basic_event_group</text>
</a>
</g>
</g>
<!-- Node443&#45;&gt;Node0 -->
<g id="edge1" class="edge">
<title>Node443&#45;&gt;Node0</title>
<path fill="none" stroke="#8b1a1a" d="M150.22,-47.81C158.79,-48.93 167.42,-50.05 175.78,-51.14"/>
<polygon fill="#8b1a1a" stroke="#8b1a1a" points="150.59,-44.33 140.23,-46.51 149.69,-51.27 150.59,-44.33"/>
</g>
<!-- Node445 -->
<g id="node3" class="node">
<title>Node445</title>
<g id="a_node3"><a xlink:href="classmn_1_1buffer.html" target="_top" xlink:title="A buffer class that allocates a buffer of a given type and size.">
<polygon fill="white" stroke="black" points="181.5,-0.5 181.5,-30.5 300.5,-30.5 300.5,-0.5 181.5,-0.5"/>
<text text-anchor="start" x="189.5" y="-18.5" font-family="Helvetica,sans-Serif" font-size="10.00">mn::buffer&lt; TVALUE,</text>
<text text-anchor="middle" x="241" y="-7.5" font-family="Helvetica,sans-Serif" font-size="10.00"> TALLOCATOR &gt;</text>
</a>
</g>
</g>
<!-- Node443&#45;&gt;Node445 -->
<g id="edge2" class="edge">
<title>Node443&#45;&gt;Node445</title>
<path fill="none" stroke="#8b1a1a" d="M150.24,-27.19C160.73,-25.82 171.34,-24.44 181.41,-23.13"/>
<polygon fill="#8b1a1a" stroke="#8b1a1a" points="149.69,-23.73 140.23,-28.49 150.59,-30.67 149.69,-23.73"/>
</g>
</g>
</svg>
