<?xml version="1.0" encoding="UTF-8" standalone="no"?>
<!DOCTYPE svg PUBLIC "-//W3C//DTD SVG 1.1//EN"
 "http://www.w3.org/Graphics/SVG/1.1/DTD/svg11.dtd">
<!-- Generated by graphviz version 2.46.0 (0)
 -->
<!-- Title: Graphical Class Hierarchy Pages: 1 -->
<svg width="525pt" height="466pt"
 viewBox="0.00 0.00 525.00 466.00" xmlns="http://www.w3.org/2000/svg" xmlns:xlink="http://www.w3.org/1999/xlink">
<g id="graph0" class="graph" transform="scale(1 1) rotate(0) translate(4 462)">
<title>Graphical Class Hierarchy</title>
<polygon fill="white" stroke="transparent" points="-4,4 -4,-462 521,-462 521,4 -4,4"/>
<!-- Node0 -->
<g id="node1" class="node">
<title>Node0</title>
<g id="a_node1"><a xlink:href="structmn_1_1integral__constant.html" target="_top" xlink:title=" ">
<polygon fill="white" stroke="black" points="0,-247 0,-277 123,-277 123,-247 0,-247"/>
<text text-anchor="start" x="8" y="-265" font-family="Helvetica,sans-Serif" font-size="10.00">mn::integral_constant</text>
<text text-anchor="middle" x="61.5" y="-254" font-family="Helvetica,sans-Serif" font-size="10.00">&lt; bool, false &gt;</text>
</a>
</g>
</g>
<!-- Node1 -->
<g id="node2" class="node">
<title>Node1</title>
<g id="a_node2"><a xlink:href="structmn_1_1internal_1_1can__apply.html" target="_top" xlink:title=" ">
<polygon fill="white" stroke="black" points="175.5,-416.5 175.5,-457.5 306.5,-457.5 306.5,-416.5 175.5,-416.5"/>
<text text-anchor="start" x="183.5" y="-445.5" font-family="Helvetica,sans-Serif" font-size="10.00">mn::internal::can_apply</text>
<text text-anchor="start" x="183.5" y="-434.5" font-family="Helvetica,sans-Serif" font-size="10.00">&lt; internal::try_convert,</text>
<text text-anchor="middle" x="241" y="-423.5" font-family="Helvetica,sans-Serif" font-size="10.00"> From, To &gt;</text>
</a>
</g>
</g>
<!-- Node0&#45;&gt;Node1 -->
<g id="edge1" class="edge">
<title>Node0&#45;&gt;Node1</title>
<path fill="none" stroke="midnightblue" d="M73.12,-286.97C87.93,-319.01 117.69,-374.33 159,-407 163.94,-410.91 169.44,-414.34 175.18,-417.35"/>
<polygon fill="midnightblue" stroke="midnightblue" points="76.13,-285.13 68.84,-277.44 69.74,-288 76.13,-285.13"/>
</g>
<!-- Node3 -->
<g id="node4" class="node">
<title>Node3</title>
<g id="a_node4"><a xlink:href="structmn_1_1internal_1_1can__apply.html" target="_top" xlink:title=" ">
<polygon fill="white" stroke="black" points="175.5,-367 175.5,-397 306.5,-397 306.5,-367 175.5,-367"/>
<text text-anchor="start" x="183.5" y="-385" font-family="Helvetica,sans-Serif" font-size="10.00">mn::internal::can_apply</text>
<text text-anchor="middle" x="241" y="-374" font-family="Helvetica,sans-Serif" font-size="10.00">&lt; Z, typename, Ts &gt;</text>
</a>
</g>
</g>
<!-- Node0&#45;&gt;Node3 -->
<g id="edge3" class="edge">
<title>Node0&#45;&gt;Node3</title>
<path fill="none" stroke="midnightblue" d="M80.37,-285.08C98.14,-306.57 127.28,-338.05 159,-357 165.44,-360.85 172.53,-364.16 179.76,-366.99"/>
<polygon fill="midnightblue" stroke="midnightblue" points="82.92,-282.68 73.91,-277.11 77.48,-287.08 82.92,-282.68"/>
</g>
<!-- Node4 -->
<g id="node5" class="node">
<title>Node4</title>
<g id="a_node5"><a xlink:href="structmn_1_1is__floating__point.html" target="_top" xlink:title=" ">
<polygon fill="white" stroke="black" points="167.5,-328.5 167.5,-347.5 314.5,-347.5 314.5,-328.5 167.5,-328.5"/>
<text text-anchor="middle" x="241" y="-335.5" font-family="Helvetica,sans-Serif" font-size="10.00">mn::is_floating_point&lt; T &gt;</text>
</a>
</g>
</g>
<!-- Node0&#45;&gt;Node4 -->
<g id="edge4" class="edge">
<title>Node0&#45;&gt;Node4</title>
<path fill="none" stroke="midnightblue" d="M92.3,-282.81C110.77,-294.88 135.41,-309.53 159,-319 168.38,-322.77 178.69,-325.9 188.72,-328.45"/>
<polygon fill="midnightblue" stroke="midnightblue" points="94.01,-279.75 83.75,-277.12 90.14,-285.57 94.01,-279.75"/>
</g>
<!-- Node5 -->
<g id="node6" class="node">
<title>Node5</title>
<g id="a_node6"><a xlink:href="structmn_1_1is__function.html" target="_top" xlink:title=" ">
<polygon fill="white" stroke="black" points="159,-290.5 159,-309.5 323,-309.5 323,-290.5 159,-290.5"/>
<text text-anchor="middle" x="241" y="-297.5" font-family="Helvetica,sans-Serif" font-size="10.00">mn::is_function&lt; typename &gt;</text>
</a>
</g>
</g>
<!-- Node0&#45;&gt;Node5 -->
<g id="edge5" class="edge">
<title>Node0&#45;&gt;Node5</title>
<path fill="none" stroke="midnightblue" d="M132.96,-277.08C154,-281.59 176.47,-286.4 195.37,-290.45"/>
<polygon fill="midnightblue" stroke="midnightblue" points="133.6,-273.64 123.09,-274.97 132.13,-280.49 133.6,-273.64"/>
</g>
<!-- Node6 -->
<g id="node7" class="node">
<title>Node6</title>
<g id="a_node7"><a xlink:href="structmn_1_1is__integral.html" target="_top" xlink:title=" ">
<polygon fill="white" stroke="black" points="182,-252.5 182,-271.5 300,-271.5 300,-252.5 182,-252.5"/>
<text text-anchor="middle" x="241" y="-259.5" font-family="Helvetica,sans-Serif" font-size="10.00">mn::is_integral&lt; T &gt;</text>
</a>
</g>
</g>
<!-- Node0&#45;&gt;Node6 -->
<g id="edge6" class="edge">
<title>Node0&#45;&gt;Node6</title>
<path fill="none" stroke="midnightblue" d="M133.48,-262C149.51,-262 166.35,-262 181.78,-262"/>
<polygon fill="midnightblue" stroke="midnightblue" points="133.09,-258.5 123.09,-262 133.09,-265.5 133.09,-258.5"/>
</g>
<!-- Node10 -->
<g id="node11" class="node">
<title>Node10</title>
<g id="a_node11"><a xlink:href="structmn_1_1is__pointer.html" target="_top" xlink:title=" ">
<polygon fill="white" stroke="black" points="183.5,-214.5 183.5,-233.5 298.5,-233.5 298.5,-214.5 183.5,-214.5"/>
<text text-anchor="middle" x="241" y="-221.5" font-family="Helvetica,sans-Serif" font-size="10.00">mn::is_pointer&lt; T &gt;</text>
</a>
</g>
</g>
<!-- Node0&#45;&gt;Node10 -->
<g id="edge10" class="edge">
<title>Node0&#45;&gt;Node10</title>
<path fill="none" stroke="midnightblue" d="M132.96,-246.92C154,-242.41 176.47,-237.6 195.37,-233.55"/>
<polygon fill="midnightblue" stroke="midnightblue" points="132.13,-243.51 123.09,-249.03 133.6,-250.36 132.13,-243.51"/>
</g>
<!-- Node11 -->
<g id="node12" class="node">
<title>Node11</title>
<g id="a_node12"><a xlink:href="structmn_1_1is__rational.html" target="_top" xlink:title=" ">
<polygon fill="white" stroke="black" points="182,-176.5 182,-195.5 300,-195.5 300,-176.5 182,-176.5"/>
<text text-anchor="middle" x="241" y="-183.5" font-family="Helvetica,sans-Serif" font-size="10.00">mn::is_rational&lt; T &gt;</text>
</a>
</g>
</g>
<!-- Node0&#45;&gt;Node11 -->
<g id="edge11" class="edge">
<title>Node0&#45;&gt;Node11</title>
<path fill="none" stroke="midnightblue" d="M92.3,-241.19C110.77,-229.12 135.41,-214.47 159,-205 168.38,-201.23 178.69,-198.1 188.72,-195.55"/>
<polygon fill="midnightblue" stroke="midnightblue" points="90.14,-238.43 83.75,-246.88 94.01,-244.25 90.14,-238.43"/>
</g>
<!-- Node15 -->
<g id="node16" class="node">
<title>Node15</title>
<g id="a_node16"><a xlink:href="structmn_1_1is__same.html" target="_top" xlink:title=" ">
<polygon fill="white" stroke="black" points="180.5,-138.5 180.5,-157.5 301.5,-157.5 301.5,-138.5 180.5,-138.5"/>
<text text-anchor="middle" x="241" y="-145.5" font-family="Helvetica,sans-Serif" font-size="10.00">mn::is_same&lt; A, B &gt;</text>
</a>
</g>
</g>
<!-- Node0&#45;&gt;Node15 -->
<g id="edge15" class="edge">
<title>Node0&#45;&gt;Node15</title>
<path fill="none" stroke="midnightblue" d="M79.79,-238.79C97.33,-216.93 126.47,-184.94 159,-167 166.08,-163.09 173.94,-159.99 181.9,-157.52"/>
<polygon fill="midnightblue" stroke="midnightblue" points="76.85,-236.87 73.44,-246.9 82.36,-241.19 76.85,-236.87"/>
</g>
<!-- Node16 -->
<g id="node17" class="node">
<title>Node16</title>
<g id="a_node17"><a xlink:href="structmn_1_1is__void.html" target="_top" xlink:title=" ">
<polygon fill="white" stroke="black" points="190.5,-66.5 190.5,-85.5 291.5,-85.5 291.5,-66.5 190.5,-66.5"/>
<text text-anchor="middle" x="241" y="-73.5" font-family="Helvetica,sans-Serif" font-size="10.00">mn::is_void&lt; T &gt;</text>
</a>
</g>
</g>
<!-- Node0&#45;&gt;Node16 -->
<g id="edge16" class="edge">
<title>Node0&#45;&gt;Node16</title>
<path fill="none" stroke="midnightblue" d="M76.29,-237.83C93.26,-209.52 124.12,-162.24 159,-129 177.98,-110.92 203.91,-95.19 221.27,-85.66"/>
<polygon fill="midnightblue" stroke="midnightblue" points="73.15,-236.27 71.09,-246.66 79.18,-239.83 73.15,-236.27"/>
</g>
<!-- Node2 -->
<g id="node3" class="node">
<title>Node2</title>
<g id="a_node3"><a xlink:href="structmn_1_1is__convertible.html" target="_top" xlink:title=" ">
<polygon fill="white" stroke="black" points="384.5,-422 384.5,-452 491.5,-452 491.5,-422 384.5,-422"/>
<text text-anchor="start" x="392.5" y="-440" font-family="Helvetica,sans-Serif" font-size="10.00">mn::is_convertible</text>
<text text-anchor="middle" x="438" y="-429" font-family="Helvetica,sans-Serif" font-size="10.00">&lt; From, To &gt;</text>
</a>
</g>
</g>
<!-- Node1&#45;&gt;Node2 -->
<g id="edge2" class="edge">
<title>Node1&#45;&gt;Node2</title>
<path fill="none" stroke="midnightblue" d="M316.84,-437C339.31,-437 363.47,-437 384.2,-437"/>
<polygon fill="midnightblue" stroke="midnightblue" points="316.66,-433.5 306.66,-437 316.66,-440.5 316.66,-433.5"/>
</g>
<!-- Node7 -->
<g id="node8" class="node">
<title>Node7</title>
<g id="a_node8"><a xlink:href="structmn_1_1is__integral_3_01const_01T_01_4.html" target="_top" xlink:title=" ">
<polygon fill="white" stroke="black" points="364.5,-340.5 364.5,-359.5 511.5,-359.5 511.5,-340.5 364.5,-340.5"/>
<text text-anchor="middle" x="438" y="-347.5" font-family="Helvetica,sans-Serif" font-size="10.00">mn::is_integral&lt; const T &gt;</text>
</a>
</g>
</g>
<!-- Node6&#45;&gt;Node7 -->
<g id="edge7" class="edge">
<title>Node6&#45;&gt;Node7</title>
<path fill="none" stroke="midnightblue" d="M309.94,-273.96C314.53,-275.96 318.93,-278.29 323,-281 345.78,-296.2 336.29,-315.7 359,-331 364.78,-334.89 371.28,-337.99 377.99,-340.46"/>
<polygon fill="midnightblue" stroke="midnightblue" points="310.92,-270.59 300.33,-270.31 308.43,-277.13 310.92,-270.59"/>
</g>
<!-- Node8 -->
<g id="node9" class="node">
<title>Node8</title>
<g id="a_node9"><a xlink:href="structmn_1_1is__integral_3_01const_01volatile_01T_01_4.html" target="_top" xlink:title=" ">
<polygon fill="white" stroke="black" points="374.5,-291 374.5,-321 501.5,-321 501.5,-291 374.5,-291"/>
<text text-anchor="start" x="382.5" y="-309" font-family="Helvetica,sans-Serif" font-size="10.00">mn::is_integral&lt; const</text>
<text text-anchor="middle" x="438" y="-298" font-family="Helvetica,sans-Serif" font-size="10.00"> volatile T &gt;</text>
</a>
</g>
</g>
<!-- Node6&#45;&gt;Node8 -->
<g id="edge8" class="edge">
<title>Node6&#45;&gt;Node8</title>
<path fill="none" stroke="midnightblue" d="M294.2,-273.78C318.88,-279.35 348.53,-286.04 374.4,-291.87"/>
<polygon fill="midnightblue" stroke="midnightblue" points="294.84,-270.33 284.31,-271.55 293.3,-277.16 294.84,-270.33"/>
</g>
<!-- Node9 -->
<g id="node10" class="node">
<title>Node9</title>
<g id="a_node10"><a xlink:href="structmn_1_1is__integral_3_01volatile_01T_01_4.html" target="_top" xlink:title=" ">
<polygon fill="white" stroke="black" points="359,-252.5 359,-271.5 517,-271.5 517,-252.5 359,-252.5"/>
<text text-anchor="middle" x="438" y="-259.5" font-family="Helvetica,sans-Serif" font-size="10.00">mn::is_integral&lt; volatile T &gt;</text>
</a>
</g>
</g>
<!-- Node6&#45;&gt;Node9 -->
<g id="edge9" class="edge">
<title>Node6&#45;&gt;Node9</title>
<path fill="none" stroke="midnightblue" d="M310.36,-262C326.03,-262 342.81,-262 358.86,-262"/>
<polygon fill="midnightblue" stroke="midnightblue" points="310.24,-258.5 300.24,-262 310.24,-265.5 310.24,-258.5"/>
</g>
<!-- Node12 -->
<g id="node13" class="node">
<title>Node12</title>
<g id="a_node13"><a xlink:href="structmn_1_1is__rational_3_01const_01T_01_4.html" target="_top" xlink:title=" ">
<polygon fill="white" stroke="black" points="364.5,-214.5 364.5,-233.5 511.5,-233.5 511.5,-214.5 364.5,-214.5"/>
<text text-anchor="middle" x="438" y="-221.5" font-family="Helvetica,sans-Serif" font-size="10.00">mn::is_rational&lt; const T &gt;</text>
</a>
</g>
</g>
<!-- Node11&#45;&gt;Node12 -->
<g id="edge12" class="edge">
<title>Node11&#45;&gt;Node12</title>
<path fill="none" stroke="midnightblue" d="M300.96,-197.49C328.78,-202.91 361.6,-209.31 388.02,-214.46"/>
<polygon fill="midnightblue" stroke="midnightblue" points="301.44,-194.02 290.96,-195.54 300.1,-200.89 301.44,-194.02"/>
</g>
<!-- Node13 -->
<g id="node14" class="node">
<title>Node13</title>
<g id="a_node14"><a xlink:href="structmn_1_1is__rational_3_01const_01volatile_01T_01_4.html" target="_top" xlink:title=" ">
<polygon fill="white" stroke="black" points="374.5,-165 374.5,-195 501.5,-195 501.5,-165 374.5,-165"/>
<text text-anchor="start" x="382.5" y="-183" font-family="Helvetica,sans-Serif" font-size="10.00">mn::is_rational&lt; const</text>
<text text-anchor="middle" x="438" y="-172" font-family="Helvetica,sans-Serif" font-size="10.00"> volatile T &gt;</text>
</a>
</g>
</g>
<!-- Node11&#45;&gt;Node13 -->
<g id="edge13" class="edge">
<title>Node11&#45;&gt;Node13</title>
<path fill="none" stroke="midnightblue" d="M310.29,-183.9C331.1,-183.26 353.88,-182.56 374.3,-181.93"/>
<polygon fill="midnightblue" stroke="midnightblue" points="310.13,-180.4 300.24,-184.21 310.35,-187.4 310.13,-180.4"/>
</g>
<!-- Node14 -->
<g id="node15" class="node">
<title>Node14</title>
<g id="a_node15"><a xlink:href="structmn_1_1is__rational_3_01volatile_01T_01_4.html" target="_top" xlink:title=" ">
<polygon fill="white" stroke="black" points="359,-126.5 359,-145.5 517,-145.5 517,-126.5 359,-126.5"/>
<text text-anchor="middle" x="438" y="-133.5" font-family="Helvetica,sans-Serif" font-size="10.00">mn::is_rational&lt; volatile T &gt;</text>
</a>
</g>
</g>
<!-- Node11&#45;&gt;Node14 -->
<g id="edge14" class="edge">
<title>Node11&#45;&gt;Node14</title>
<path fill="none" stroke="midnightblue" d="M295.01,-174.1C304.36,-171.85 313.99,-169.43 323,-167 339.15,-162.64 342.89,-160.52 359,-156 371.79,-152.41 385.82,-148.73 398.42,-145.52"/>
<polygon fill="midnightblue" stroke="midnightblue" points="293.93,-170.76 285.01,-176.47 295.55,-177.57 293.93,-170.76"/>
</g>
<!-- Node17 -->
<g id="node18" class="node">
<title>Node17</title>
<g id="a_node18"><a xlink:href="structmn_1_1is__void_3_01const_01T_01_4.html" target="_top" xlink:title=" ">
<polygon fill="white" stroke="black" points="372.5,-88.5 372.5,-107.5 503.5,-107.5 503.5,-88.5 372.5,-88.5"/>
<text text-anchor="middle" x="438" y="-95.5" font-family="Helvetica,sans-Serif" font-size="10.00">mn::is_void&lt; const T &gt;</text>
</a>
</g>
</g>
<!-- Node16&#45;&gt;Node17 -->
<g id="edge17" class="edge">
<title>Node16&#45;&gt;Node17</title>
<path fill="none" stroke="midnightblue" d="M301.73,-82.74C324.06,-85.26 349.51,-88.13 372.27,-90.7"/>
<polygon fill="midnightblue" stroke="midnightblue" points="302.04,-79.25 291.71,-81.61 301.26,-86.21 302.04,-79.25"/>
</g>
<!-- Node18 -->
<g id="node19" class="node">
<title>Node18</title>
<g id="a_node19"><a xlink:href="structmn_1_1is__void_3_01const_01volatile_01T_01_4.html" target="_top" xlink:title=" ">
<polygon fill="white" stroke="black" points="383,-39 383,-69 493,-69 493,-39 383,-39"/>
<text text-anchor="start" x="391" y="-57" font-family="Helvetica,sans-Serif" font-size="10.00">mn::is_void&lt; const</text>
<text text-anchor="middle" x="438" y="-46" font-family="Helvetica,sans-Serif" font-size="10.00"> volatile T &gt;</text>
</a>
</g>
</g>
<!-- Node16&#45;&gt;Node18 -->
<g id="edge18" class="edge">
<title>Node16&#45;&gt;Node18</title>
<path fill="none" stroke="midnightblue" d="M301.77,-69.26C327.65,-66.34 357.72,-62.94 382.93,-60.1"/>
<polygon fill="midnightblue" stroke="midnightblue" points="301.26,-65.79 291.71,-70.39 302.04,-72.75 301.26,-65.79"/>
</g>
<!-- Node19 -->
<g id="node20" class="node">
<title>Node19</title>
<g id="a_node20"><a xlink:href="structmn_1_1is__void_3_01volatile_01T_01_4.html" target="_top" xlink:title=" ">
<polygon fill="white" stroke="black" points="367.5,-0.5 367.5,-19.5 508.5,-19.5 508.5,-0.5 367.5,-0.5"/>
<text text-anchor="middle" x="438" y="-7.5" font-family="Helvetica,sans-Serif" font-size="10.00">mn::is_void&lt; volatile T &gt;</text>
</a>
</g>
</g>
<!-- Node16&#45;&gt;Node19 -->
<g id="edge19" class="edge">
<title>Node16&#45;&gt;Node19</title>
<path fill="none" stroke="midnightblue" d="M272.6,-62.31C295.95,-52.2 329.09,-38.6 359,-29 369.88,-25.51 381.8,-22.3 392.96,-19.56"/>
<polygon fill="midnightblue" stroke="midnightblue" points="270.99,-59.19 263.23,-66.4 273.79,-65.6 270.99,-59.19"/>
</g>
</g>
</svg>
