<?xml version="1.0" encoding="UTF-8" standalone="no"?>
<!DOCTYPE svg PUBLIC "-//W3C//DTD SVG 1.1//EN"
 "http://www.w3.org/Graphics/SVG/1.1/DTD/svg11.dtd">
<!-- Generated by graphviz version 2.46.0 (0)
 -->
<!-- Title: Graphical Class Hierarchy Pages: 1 -->
<svg width="298pt" height="274pt"
 viewBox="0.00 0.00 298.00 274.00" xmlns="http://www.w3.org/2000/svg" xmlns:xlink="http://www.w3.org/1999/xlink">
<g id="graph0" class="graph" transform="scale(1 1) rotate(0) translate(4 270)">
<title>Graphical Class Hierarchy</title>
<polygon fill="white" stroke="transparent" points="-4,4 -4,-270 294,-270 294,4 -4,4"/>
<!-- Node0 -->
<g id="node1" class="node">
<title>Node0</title>
<g id="a_node1"><a xlink:href="structmn_1_1integral__constant.html" target="_top" xlink:title=" ">
<polygon fill="white" stroke="black" points="0,-101 0,-131 123,-131 123,-101 0,-101"/>
<text text-anchor="start" x="8" y="-119" font-family="Helvetica,sans-Serif" font-size="10.00">mn::integral_constant</text>
<text text-anchor="middle" x="61.5" y="-108" font-family="Helvetica,sans-Serif" font-size="10.00">&lt; bool, true &gt;</text>
</a>
</g>
</g>
<!-- Node1 -->
<g id="node2" class="node">
<title>Node1</title>
<g id="a_node2"><a xlink:href="structmn_1_1internal_1_1can__apply_3_01Z_00_01void__t_3_01Z_3_01Ts_8_8_8_01_4_01_4_00_01Ts_8_8_8_01_4.html" target="_top" xlink:title=" ">
<polygon fill="white" stroke="black" points="159,-224.5 159,-265.5 290,-265.5 290,-224.5 159,-224.5"/>
<text text-anchor="start" x="167" y="-253.5" font-family="Helvetica,sans-Serif" font-size="10.00">mn::internal::can_apply</text>
<text text-anchor="start" x="167" y="-242.5" font-family="Helvetica,sans-Serif" font-size="10.00">&lt; Z, void_t&lt; Z&lt; Ts...</text>
<text text-anchor="middle" x="224.5" y="-231.5" font-family="Helvetica,sans-Serif" font-size="10.00"> &gt; &gt;, Ts... &gt;</text>
</a>
</g>
</g>
<!-- Node0&#45;&gt;Node1 -->
<g id="edge1" class="edge">
<title>Node0&#45;&gt;Node1</title>
<path fill="none" stroke="midnightblue" d="M80.55,-138.84C98.62,-160.56 128.1,-193.09 159,-215 163.73,-218.36 168.91,-221.49 174.19,-224.38"/>
<polygon fill="midnightblue" stroke="midnightblue" points="83.25,-136.61 74.21,-131.09 77.83,-141.04 83.25,-136.61"/>
</g>
<!-- Node2 -->
<g id="node3" class="node">
<title>Node2</title>
<g id="a_node3"><a xlink:href="structmn_1_1is__convertible_3_01void_00_01void_01_4.html" target="_top" xlink:title=" ">
<polygon fill="white" stroke="black" points="171,-175 171,-205 278,-205 278,-175 171,-175"/>
<text text-anchor="start" x="179" y="-193" font-family="Helvetica,sans-Serif" font-size="10.00">mn::is_convertible</text>
<text text-anchor="middle" x="224.5" y="-182" font-family="Helvetica,sans-Serif" font-size="10.00">&lt; void, void &gt;</text>
</a>
</g>
</g>
<!-- Node0&#45;&gt;Node2 -->
<g id="edge2" class="edge">
<title>Node0&#45;&gt;Node2</title>
<path fill="none" stroke="midnightblue" d="M98.48,-135.97C116.41,-145.58 138.58,-156.95 159,-166 165.99,-169.1 173.52,-172.15 180.88,-174.98"/>
<polygon fill="midnightblue" stroke="midnightblue" points="99.98,-132.8 89.52,-131.13 96.65,-138.96 99.98,-132.8"/>
</g>
<!-- Node3 -->
<g id="node4" class="node">
<title>Node3</title>
<g id="a_node4"><a xlink:href="structmn_1_1is__floating__point_3_01double_01_4.html" target="_top" xlink:title=" ">
<polygon fill="white" stroke="black" points="165,-126 165,-156 284,-156 284,-126 165,-126"/>
<text text-anchor="start" x="173" y="-144" font-family="Helvetica,sans-Serif" font-size="10.00">mn::is_floating_point</text>
<text text-anchor="middle" x="224.5" y="-133" font-family="Helvetica,sans-Serif" font-size="10.00">&lt; double &gt;</text>
</a>
</g>
</g>
<!-- Node0&#45;&gt;Node3 -->
<g id="edge3" class="edge">
<title>Node0&#45;&gt;Node3</title>
<path fill="none" stroke="midnightblue" d="M133.38,-127.01C143.93,-128.64 154.69,-130.32 164.94,-131.91"/>
<polygon fill="midnightblue" stroke="midnightblue" points="133.79,-123.53 123.37,-125.45 132.71,-130.44 133.79,-123.53"/>
</g>
<!-- Node4 -->
<g id="node5" class="node">
<title>Node4</title>
<g id="a_node5"><a xlink:href="structmn_1_1is__floating__point_3_01float_01_4.html" target="_top" xlink:title=" ">
<polygon fill="white" stroke="black" points="165,-77 165,-107 284,-107 284,-77 165,-77"/>
<text text-anchor="start" x="173" y="-95" font-family="Helvetica,sans-Serif" font-size="10.00">mn::is_floating_point</text>
<text text-anchor="middle" x="224.5" y="-84" font-family="Helvetica,sans-Serif" font-size="10.00">&lt; float &gt;</text>
</a>
</g>
</g>
<!-- Node0&#45;&gt;Node4 -->
<g id="edge4" class="edge">
<title>Node0&#45;&gt;Node4</title>
<path fill="none" stroke="midnightblue" d="M133.38,-105.43C143.93,-103.86 154.69,-102.26 164.94,-100.73"/>
<polygon fill="midnightblue" stroke="midnightblue" points="132.74,-101.99 123.37,-106.93 133.77,-108.91 132.74,-101.99"/>
</g>
<!-- Node5 -->
<g id="node6" class="node">
<title>Node5</title>
<g id="a_node6"><a xlink:href="structmn_1_1is__pointer_3_01T_01_5_01_4.html" target="_top" xlink:title=" ">
<polygon fill="white" stroke="black" points="163,-38.5 163,-57.5 286,-57.5 286,-38.5 163,-38.5"/>
<text text-anchor="middle" x="224.5" y="-45.5" font-family="Helvetica,sans-Serif" font-size="10.00">mn::is_pointer&lt; T * &gt;</text>
</a>
</g>
</g>
<!-- Node0&#45;&gt;Node5 -->
<g id="edge5" class="edge">
<title>Node0&#45;&gt;Node5</title>
<path fill="none" stroke="midnightblue" d="M98.75,-96.24C116.58,-86.96 138.59,-76.18 159,-68 168.58,-64.16 179.19,-60.6 189,-57.58"/>
<polygon fill="midnightblue" stroke="midnightblue" points="97.05,-93.18 89.83,-100.93 100.31,-99.37 97.05,-93.18"/>
</g>
<!-- Node6 -->
<g id="node7" class="node">
<title>Node6</title>
<g id="a_node7"><a xlink:href="structmn_1_1is__same_3_01A_00_01A_01_4.html" target="_top" xlink:title=" ">
<polygon fill="white" stroke="black" points="164,-0.5 164,-19.5 285,-19.5 285,-0.5 164,-0.5"/>
<text text-anchor="middle" x="224.5" y="-7.5" font-family="Helvetica,sans-Serif" font-size="10.00">mn::is_same&lt; A, A &gt;</text>
</a>
</g>
</g>
<!-- Node0&#45;&gt;Node6 -->
<g id="edge6" class="edge">
<title>Node0&#45;&gt;Node6</title>
<path fill="none" stroke="midnightblue" d="M82.19,-93.24C100.32,-73.61 128.89,-45.84 159,-29 165.83,-25.18 173.5,-22.06 181.1,-19.53"/>
<polygon fill="midnightblue" stroke="midnightblue" points="79.43,-91.07 75.32,-100.84 84.62,-95.77 79.43,-91.07"/>
</g>
</g>
</svg>
