<?xml version="1.0" encoding="UTF-8" standalone="no"?>
<!DOCTYPE svg PUBLIC "-//W3C//DTD SVG 1.1//EN"
 "http://www.w3.org/Graphics/SVG/1.1/DTD/svg11.dtd">
<!-- Generated by graphviz version 2.47.3 (0)
 -->
<!-- Title: Graphical Class Hierarchy Pages: 1 -->
<svg width="531pt" height="854pt"
 viewBox="0.00 0.00 531.00 854.00" xmlns="http://www.w3.org/2000/svg" xmlns:xlink="http://www.w3.org/1999/xlink">
<g id="graph0" class="graph" transform="scale(1 1) rotate(0) translate(4 850)">
<title>Graphical Class Hierarchy</title>
<polygon fill="white" stroke="transparent" points="-4,4 -4,-850 527,-850 527,4 -4,4"/>
<!-- Node0 -->
<g id="node1" class="node">
<title>Node0</title>
<g id="a_node1"><a xlink:href="structmn_1_1integral__constant.html" target="_top" xlink:title=" ">
<polygon fill="white" stroke="black" points="0,-414 0,-444 123,-444 123,-414 0,-414"/>
<text text-anchor="start" x="8" y="-432" font-family="Helvetica,sans-Serif" font-size="10.00">mn::integral_constant</text>
<text text-anchor="middle" x="61.5" y="-421" font-family="Helvetica,sans-Serif" font-size="10.00">&lt; bool, false &gt;</text>
</a>
</g>
</g>
<!-- Node1 -->
<g id="node2" class="node">
<title>Node1</title>
<g id="a_node2"><a xlink:href="structmn_1_1internal_1_1can__apply.html" target="_top" xlink:title=" ">
<polygon fill="white" stroke="black" points="175.5,-804.5 175.5,-845.5 306.5,-845.5 306.5,-804.5 175.5,-804.5"/>
<text text-anchor="start" x="183.5" y="-833.5" font-family="Helvetica,sans-Serif" font-size="10.00">mn::internal::can_apply</text>
<text text-anchor="start" x="183.5" y="-822.5" font-family="Helvetica,sans-Serif" font-size="10.00">&lt; internal::try_convert,</text>
<text text-anchor="middle" x="241" y="-811.5" font-family="Helvetica,sans-Serif" font-size="10.00"> From, To &gt;</text>
</a>
</g>
</g>
<!-- Node0&#45;&gt;Node1 -->
<g id="edge1" class="edge">
<title>Node0&#45;&gt;Node1</title>
<path fill="none" stroke="midnightblue" d="M61.69,-454.33C61.01,-519.52 68.2,-694.95 159,-795 163.64,-800.11 169.22,-804.35 175.26,-807.87"/>
<polygon fill="midnightblue" stroke="midnightblue" points="65.19,-454.22 61.87,-444.16 58.19,-454.1 65.19,-454.22"/>
</g>
<!-- Node3 -->
<g id="node4" class="node">
<title>Node3</title>
<g id="a_node4"><a xlink:href="structmn_1_1bit__or_3_4.html" target="_top" xlink:title=" ">
<polygon fill="white" stroke="black" points="199.5,-766.5 199.5,-785.5 282.5,-785.5 282.5,-766.5 199.5,-766.5"/>
<text text-anchor="middle" x="241" y="-773.5" font-family="Helvetica,sans-Serif" font-size="10.00">mn::bit_or&lt;&gt;</text>
</a>
</g>
</g>
<!-- Node0&#45;&gt;Node3 -->
<g id="edge3" class="edge">
<title>Node0&#45;&gt;Node3</title>
<path fill="none" stroke="midnightblue" d="M61.94,-454.4C62.04,-515.94 71.31,-674.06 159,-757 169.81,-767.22 185.03,-772.3 199.37,-774.71"/>
<polygon fill="midnightblue" stroke="midnightblue" points="65.44,-454.09 62.01,-444.07 58.44,-454.04 65.44,-454.09"/>
</g>
<!-- Node4 -->
<g id="node5" class="node">
<title>Node4</title>
<g id="a_node5"><a xlink:href="structmn_1_1internal_1_1can__apply.html" target="_top" xlink:title=" ">
<polygon fill="white" stroke="black" points="175.5,-717 175.5,-747 306.5,-747 306.5,-717 175.5,-717"/>
<text text-anchor="start" x="183.5" y="-735" font-family="Helvetica,sans-Serif" font-size="10.00">mn::internal::can_apply</text>
<text text-anchor="middle" x="241" y="-724" font-family="Helvetica,sans-Serif" font-size="10.00">&lt; Z, typename, Ts &gt;</text>
</a>
</g>
</g>
<!-- Node0&#45;&gt;Node4 -->
<g id="edge4" class="edge">
<title>Node0&#45;&gt;Node4</title>
<path fill="none" stroke="midnightblue" d="M63.89,-454.25C68.24,-508.42 86.12,-636.61 159,-707 163.76,-711.6 169.36,-715.36 175.34,-718.42"/>
<polygon fill="midnightblue" stroke="midnightblue" points="67.37,-453.87 63.17,-444.15 60.39,-454.37 67.37,-453.87"/>
</g>
<!-- Node5 -->
<g id="node6" class="node">
<title>Node5</title>
<g id="a_node6"><a xlink:href="structmn_1_1is__bind__expression.html" target="_top" xlink:title=" ">
<polygon fill="white" stroke="black" points="161,-678.5 161,-697.5 321,-697.5 321,-678.5 161,-678.5"/>
<text text-anchor="middle" x="241" y="-685.5" font-family="Helvetica,sans-Serif" font-size="10.00">mn::is_bind_expression&lt; T &gt;</text>
</a>
</g>
</g>
<!-- Node0&#45;&gt;Node5 -->
<g id="edge5" class="edge">
<title>Node0&#45;&gt;Node5</title>
<path fill="none" stroke="midnightblue" d="M65.08,-454.19C71.5,-503.34 92.79,-612.16 159,-669 163.49,-672.86 168.62,-675.97 174.08,-678.47"/>
<polygon fill="midnightblue" stroke="midnightblue" points="68.53,-453.63 63.86,-444.12 61.58,-454.46 68.53,-453.63"/>
</g>
<!-- Node6 -->
<g id="node7" class="node">
<title>Node6</title>
<g id="a_node7"><a xlink:href="structmn_1_1is__const.html" target="_top" xlink:title=" ">
<polygon fill="white" stroke="black" points="166,-640.5 166,-659.5 316,-659.5 316,-640.5 166,-640.5"/>
<text text-anchor="middle" x="241" y="-647.5" font-family="Helvetica,sans-Serif" font-size="10.00">mn::is_const&lt; typename &gt;</text>
</a>
</g>
</g>
<!-- Node0&#45;&gt;Node6 -->
<g id="edge6" class="edge">
<title>Node0&#45;&gt;Node6</title>
<path fill="none" stroke="midnightblue" d="M67.18,-454.13C76.58,-497.23 101.92,-585.06 159,-631 163.73,-634.8 169.08,-637.87 174.73,-640.34"/>
<polygon fill="midnightblue" stroke="midnightblue" points="70.58,-453.27 65.13,-444.18 63.72,-454.69 70.58,-453.27"/>
</g>
<!-- Node7 -->
<g id="node8" class="node">
<title>Node7</title>
<g id="a_node8"><a xlink:href="structmn_1_1is__floating__point.html" target="_top" xlink:title=" ">
<polygon fill="white" stroke="black" points="167.5,-602.5 167.5,-621.5 314.5,-621.5 314.5,-602.5 167.5,-602.5"/>
<text text-anchor="middle" x="241" y="-609.5" font-family="Helvetica,sans-Serif" font-size="10.00">mn::is_floating_point&lt; T &gt;</text>
</a>
</g>
</g>
<!-- Node0&#45;&gt;Node7 -->
<g id="edge7" class="edge">
<title>Node0&#45;&gt;Node7</title>
<path fill="none" stroke="midnightblue" d="M70.26,-454.33C82.79,-490.83 111.06,-557.7 159,-593 164.23,-596.85 170.13,-599.94 176.3,-602.41"/>
<polygon fill="midnightblue" stroke="midnightblue" points="73.46,-452.87 67,-444.47 66.82,-455.06 73.46,-452.87"/>
</g>
<!-- Node11 -->
<g id="node12" class="node">
<title>Node11</title>
<g id="a_node12"><a xlink:href="structmn_1_1is__function.html" target="_top" xlink:title=" ">
<polygon fill="white" stroke="black" points="159,-564.5 159,-583.5 323,-583.5 323,-564.5 159,-564.5"/>
<text text-anchor="middle" x="241" y="-571.5" font-family="Helvetica,sans-Serif" font-size="10.00">mn::is_function&lt; typename &gt;</text>
</a>
</g>
</g>
<!-- Node0&#45;&gt;Node11 -->
<g id="edge11" class="edge">
<title>Node0&#45;&gt;Node11</title>
<path fill="none" stroke="midnightblue" d="M74.34,-453.14C89.77,-481.96 119.5,-529.47 159,-555 164.94,-558.84 171.58,-561.91 178.43,-564.36"/>
<polygon fill="midnightblue" stroke="midnightblue" points="77.38,-451.4 69.67,-444.14 71.17,-454.63 77.38,-451.4"/>
</g>
<!-- Node12 -->
<g id="node13" class="node">
<title>Node12</title>
<g id="a_node13"><a xlink:href="structmn_1_1is__integral.html" target="_top" xlink:title=" ">
<polygon fill="white" stroke="black" points="182,-526.5 182,-545.5 300,-545.5 300,-526.5 182,-526.5"/>
<text text-anchor="middle" x="241" y="-533.5" font-family="Helvetica,sans-Serif" font-size="10.00">mn::is_integral&lt; T &gt;</text>
</a>
</g>
</g>
<!-- Node0&#45;&gt;Node12 -->
<g id="edge12" class="edge">
<title>Node0&#45;&gt;Node12</title>
<path fill="none" stroke="midnightblue" d="M81.61,-452.1C99.53,-472.26 128.15,-500.75 159,-517 166.41,-520.9 174.62,-524.02 182.89,-526.49"/>
<polygon fill="midnightblue" stroke="midnightblue" points="84.03,-449.55 74.83,-444.3 78.74,-454.14 84.03,-449.55"/>
</g>
<!-- Node16 -->
<g id="node17" class="node">
<title>Node16</title>
<g id="a_node17"><a xlink:href="structmn_1_1is__lvalue__reference.html" target="_top" xlink:title="is_lvalue_reference">
<polygon fill="white" stroke="black" points="174,-477 174,-507 308,-507 308,-477 174,-477"/>
<text text-anchor="start" x="182" y="-495" font-family="Helvetica,sans-Serif" font-size="10.00">mn::is_lvalue_reference</text>
<text text-anchor="middle" x="241" y="-484" font-family="Helvetica,sans-Serif" font-size="10.00">&lt; typename &gt;</text>
</a>
</g>
</g>
<!-- Node0&#45;&gt;Node16 -->
<g id="edge16" class="edge">
<title>Node0&#45;&gt;Node16</title>
<path fill="none" stroke="midnightblue" d="M108.51,-447.94C124.41,-454.26 142.4,-461.18 159,-467 168.72,-470.41 179.18,-473.82 189.25,-476.98"/>
<polygon fill="midnightblue" stroke="midnightblue" points="109.5,-444.56 98.91,-444.09 106.89,-451.06 109.5,-444.56"/>
</g>
<!-- Node17 -->
<g id="node18" class="node">
<title>Node17</title>
<g id="a_node18"><a xlink:href="structmn_1_1is__pointer.html" target="_top" xlink:title=" ">
<polygon fill="white" stroke="black" points="183.5,-438.5 183.5,-457.5 298.5,-457.5 298.5,-438.5 183.5,-438.5"/>
<text text-anchor="middle" x="241" y="-445.5" font-family="Helvetica,sans-Serif" font-size="10.00">mn::is_pointer&lt; T &gt;</text>
</a>
</g>
</g>
<!-- Node0&#45;&gt;Node17 -->
<g id="edge17" class="edge">
<title>Node0&#45;&gt;Node17</title>
<path fill="none" stroke="midnightblue" d="M133.29,-436.58C149.9,-438.36 167.38,-440.23 183.27,-441.93"/>
<polygon fill="midnightblue" stroke="midnightblue" points="133.4,-433.07 123.09,-435.49 132.66,-440.03 133.4,-433.07"/>
</g>
<!-- Node18 -->
<g id="node19" class="node">
<title>Node18</title>
<g id="a_node19"><a xlink:href="structmn_1_1is__rational.html" target="_top" xlink:title=" ">
<polygon fill="white" stroke="black" points="182,-400.5 182,-419.5 300,-419.5 300,-400.5 182,-400.5"/>
<text text-anchor="middle" x="241" y="-407.5" font-family="Helvetica,sans-Serif" font-size="10.00">mn::is_rational&lt; T &gt;</text>
</a>
</g>
</g>
<!-- Node0&#45;&gt;Node18 -->
<g id="edge18" class="edge">
<title>Node0&#45;&gt;Node18</title>
<path fill="none" stroke="midnightblue" d="M133.48,-421.4C149.51,-419.69 166.35,-417.88 181.78,-416.23"/>
<polygon fill="midnightblue" stroke="midnightblue" points="132.66,-417.97 123.09,-422.51 133.4,-424.93 132.66,-417.97"/>
</g>
<!-- Node22 -->
<g id="node23" class="node">
<title>Node22</title>
<g id="a_node23"><a xlink:href="structmn_1_1is__rvalue__reference.html" target="_top" xlink:title="is_rvalue_reference">
<polygon fill="white" stroke="black" points="174,-351 174,-381 308,-381 308,-351 174,-351"/>
<text text-anchor="start" x="182" y="-369" font-family="Helvetica,sans-Serif" font-size="10.00">mn::is_rvalue_reference</text>
<text text-anchor="middle" x="241" y="-358" font-family="Helvetica,sans-Serif" font-size="10.00">&lt; typename &gt;</text>
</a>
</g>
</g>
<!-- Node0&#45;&gt;Node22 -->
<g id="edge22" class="edge">
<title>Node0&#45;&gt;Node22</title>
<path fill="none" stroke="midnightblue" d="M108.51,-410.06C124.41,-403.74 142.4,-396.82 159,-391 168.72,-387.59 179.18,-384.18 189.25,-381.02"/>
<polygon fill="midnightblue" stroke="midnightblue" points="106.89,-406.94 98.91,-413.91 109.5,-413.44 106.89,-406.94"/>
</g>
<!-- Node23 -->
<g id="node24" class="node">
<title>Node23</title>
<g id="a_node24"><a xlink:href="structmn_1_1is__same.html" target="_top" xlink:title=" ">
<polygon fill="white" stroke="black" points="180.5,-312.5 180.5,-331.5 301.5,-331.5 301.5,-312.5 180.5,-312.5"/>
<text text-anchor="middle" x="241" y="-319.5" font-family="Helvetica,sans-Serif" font-size="10.00">mn::is_same&lt; A, B &gt;</text>
</a>
</g>
</g>
<!-- Node0&#45;&gt;Node23 -->
<g id="edge23" class="edge">
<title>Node0&#45;&gt;Node23</title>
<path fill="none" stroke="midnightblue" d="M81.7,-406.25C99.7,-386.39 128.35,-358.26 159,-342 167.19,-337.65 176.35,-334.23 185.47,-331.54"/>
<polygon fill="midnightblue" stroke="midnightblue" points="78.91,-404.13 74.9,-413.94 84.15,-408.77 78.91,-404.13"/>
</g>
<!-- Node24 -->
<g id="node25" class="node">
<title>Node24</title>
<g id="a_node25"><a xlink:href="structmn_1_1is__signed.html" target="_top" xlink:title="is_signed">
<polygon fill="white" stroke="black" points="184.5,-274.5 184.5,-293.5 297.5,-293.5 297.5,-274.5 184.5,-274.5"/>
<text text-anchor="middle" x="241" y="-281.5" font-family="Helvetica,sans-Serif" font-size="10.00">mn::is_signed&lt; T &gt;</text>
</a>
</g>
</g>
<!-- Node0&#45;&gt;Node24 -->
<g id="edge24" class="edge">
<title>Node0&#45;&gt;Node24</title>
<path fill="none" stroke="midnightblue" d="M74.34,-404.86C89.77,-376.04 119.5,-328.53 159,-303 166.64,-298.06 175.43,-294.4 184.33,-291.69"/>
<polygon fill="midnightblue" stroke="midnightblue" points="71.17,-403.37 69.67,-413.86 77.38,-406.6 71.17,-403.37"/>
</g>
<!-- Node28 -->
<g id="node29" class="node">
<title>Node28</title>
<g id="a_node29"><a xlink:href="structmn_1_1is__unsigned.html" target="_top" xlink:title="is_unsigned">
<polygon fill="white" stroke="black" points="178.5,-225.5 178.5,-244.5 303.5,-244.5 303.5,-225.5 178.5,-225.5"/>
<text text-anchor="middle" x="241" y="-232.5" font-family="Helvetica,sans-Serif" font-size="10.00">mn::is_unsigned&lt; T &gt;</text>
</a>
</g>
</g>
<!-- Node0&#45;&gt;Node28 -->
<g id="edge28" class="edge">
<title>Node0&#45;&gt;Node28</title>
<path fill="none" stroke="midnightblue" d="M71.06,-403.89C84.44,-368.23 113.58,-303.01 159,-265 170.16,-255.66 184.49,-249.1 197.98,-244.54"/>
<polygon fill="midnightblue" stroke="midnightblue" points="67.69,-402.94 67.56,-413.54 74.26,-405.33 67.69,-402.94"/>
</g>
<!-- Node32 -->
<g id="node33" class="node">
<title>Node32</title>
<g id="a_node33"><a xlink:href="structmn_1_1is__void.html" target="_top" xlink:title=" ">
<polygon fill="white" stroke="black" points="190.5,-187.5 190.5,-206.5 291.5,-206.5 291.5,-187.5 190.5,-187.5"/>
<text text-anchor="middle" x="241" y="-194.5" font-family="Helvetica,sans-Serif" font-size="10.00">mn::is_void&lt; T &gt;</text>
</a>
</g>
</g>
<!-- Node0&#45;&gt;Node32 -->
<g id="edge32" class="edge">
<title>Node0&#45;&gt;Node32</title>
<path fill="none" stroke="midnightblue" d="M66.51,-403.81C75.04,-358.89 99.31,-265.05 159,-216 167.93,-208.66 179.19,-204.06 190.45,-201.19"/>
<polygon fill="midnightblue" stroke="midnightblue" points="63.03,-403.41 64.71,-413.87 69.92,-404.65 63.03,-403.41"/>
</g>
<!-- Node36 -->
<g id="node37" class="node">
<title>Node36</title>
<g id="a_node37"><a xlink:href="structmn_1_1is__volatile.html" target="_top" xlink:title="is_volatile">
<polygon fill="white" stroke="black" points="160.5,-149.5 160.5,-168.5 321.5,-168.5 321.5,-149.5 160.5,-149.5"/>
<text text-anchor="middle" x="241" y="-156.5" font-family="Helvetica,sans-Serif" font-size="10.00">mn::is_volatile&lt; typename &gt;</text>
</a>
</g>
</g>
<!-- Node0&#45;&gt;Node36 -->
<g id="edge36" class="edge">
<title>Node0&#45;&gt;Node36</title>
<path fill="none" stroke="midnightblue" d="M64.58,-403.73C70.18,-352.9 90.16,-238.03 159,-178 163.35,-174.2 168.33,-171.13 173.62,-168.64"/>
<polygon fill="midnightblue" stroke="midnightblue" points="61.08,-403.54 63.57,-413.84 68.05,-404.24 61.08,-403.54"/>
</g>
<!-- Node37 -->
<g id="node38" class="node">
<title>Node37</title>
<g id="a_node38"><a xlink:href="structmn_1_1stl_1_1is__const.html" target="_top" xlink:title=" ">
<polygon fill="white" stroke="black" points="178.5,-111.5 178.5,-130.5 303.5,-130.5 303.5,-111.5 178.5,-111.5"/>
<text text-anchor="middle" x="241" y="-118.5" font-family="Helvetica,sans-Serif" font-size="10.00">mn::stl::is_const&lt; T &gt;</text>
</a>
</g>
</g>
<!-- Node0&#45;&gt;Node37 -->
<g id="edge37" class="edge">
<title>Node0&#45;&gt;Node37</title>
<path fill="none" stroke="midnightblue" d="M63.13,-403.53C65.95,-347.16 80.96,-211.18 159,-140 164.55,-134.94 171.19,-131.15 178.24,-128.32"/>
<polygon fill="midnightblue" stroke="midnightblue" points="59.62,-403.57 62.71,-413.7 66.62,-403.86 59.62,-403.57"/>
</g>
<!-- Node38 -->
<g id="node39" class="node">
<title>Node38</title>
<g id="a_node39"><a xlink:href="structmn_1_1stl_1_1is__reference.html" target="_top" xlink:title=" ">
<polygon fill="white" stroke="black" points="168.5,-73.5 168.5,-92.5 313.5,-92.5 313.5,-73.5 168.5,-73.5"/>
<text text-anchor="middle" x="241" y="-80.5" font-family="Helvetica,sans-Serif" font-size="10.00">mn::stl::is_reference&lt; T &gt;</text>
</a>
</g>
</g>
<!-- Node0&#45;&gt;Node38 -->
<g id="edge38" class="edge">
<title>Node0&#45;&gt;Node38</title>
<path fill="none" stroke="midnightblue" d="M61.97,-403.68C62.13,-342.32 71.52,-184.67 159,-102 162.99,-98.23 167.58,-95.16 172.5,-92.67"/>
<polygon fill="midnightblue" stroke="midnightblue" points="58.47,-404 62.03,-413.98 65.47,-403.96 58.47,-404"/>
</g>
<!-- Node39 -->
<g id="node40" class="node">
<title>Node39</title>
<g id="a_node40"><a xlink:href="structmn_1_1stl_1_1is__volatile.html" target="_top" xlink:title=" ">
<polygon fill="white" stroke="black" points="187.5,-24 187.5,-54 294.5,-54 294.5,-24 187.5,-24"/>
<text text-anchor="start" x="195.5" y="-42" font-family="Helvetica,sans-Serif" font-size="10.00">mn::stl::is_volatile</text>
<text text-anchor="middle" x="241" y="-31" font-family="Helvetica,sans-Serif" font-size="10.00">&lt; typename &gt;</text>
</a>
</g>
</g>
<!-- Node0&#45;&gt;Node39 -->
<g id="edge39" class="edge">
<title>Node0&#45;&gt;Node39</title>
<path fill="none" stroke="midnightblue" d="M66.01,-403.42C76.71,-328.85 111.18,-113.81 159,-64 166.64,-56.04 176.76,-50.59 187.25,-46.88"/>
<polygon fill="midnightblue" stroke="midnightblue" points="62.48,-403.36 64.55,-413.75 69.41,-404.34 62.48,-403.36"/>
</g>
<!-- Node2 -->
<g id="node3" class="node">
<title>Node2</title>
<g id="a_node3"><a xlink:href="structmn_1_1is__convertible.html" target="_top" xlink:title=" ">
<polygon fill="white" stroke="black" points="387.5,-810 387.5,-840 494.5,-840 494.5,-810 387.5,-810"/>
<text text-anchor="start" x="395.5" y="-828" font-family="Helvetica,sans-Serif" font-size="10.00">mn::is_convertible</text>
<text text-anchor="middle" x="441" y="-817" font-family="Helvetica,sans-Serif" font-size="10.00">&lt; From, To &gt;</text>
</a>
</g>
</g>
<!-- Node1&#45;&gt;Node2 -->
<g id="edge2" class="edge">
<title>Node1&#45;&gt;Node2</title>
<path fill="none" stroke="midnightblue" d="M316.85,-825C340.35,-825 365.79,-825 387.41,-825"/>
<polygon fill="midnightblue" stroke="midnightblue" points="316.56,-821.5 306.56,-825 316.56,-828.5 316.56,-821.5"/>
</g>
<!-- Node8 -->
<g id="node9" class="node">
<title>Node8</title>
<g id="a_node9"><a xlink:href="structmn_1_1is__floating__point_3_01const_01T_01_4.html" target="_top" xlink:title=" ">
<polygon fill="white" stroke="black" points="381.5,-729 381.5,-759 500.5,-759 500.5,-729 381.5,-729"/>
<text text-anchor="start" x="389.5" y="-747" font-family="Helvetica,sans-Serif" font-size="10.00">mn::is_floating_point</text>
<text text-anchor="middle" x="441" y="-736" font-family="Helvetica,sans-Serif" font-size="10.00">&lt; const T &gt;</text>
</a>
</g>
</g>
<!-- Node7&#45;&gt;Node8 -->
<g id="edge8" class="edge">
<title>Node7&#45;&gt;Node8</title>
<path fill="none" stroke="midnightblue" d="M316.76,-626.36C318.94,-627.77 321.03,-629.31 323,-631 355.4,-658.76 327.41,-691.32 359,-720 365.41,-725.82 373.16,-730.23 381.31,-733.57"/>
<polygon fill="midnightblue" stroke="midnightblue" points="318.37,-623.25 307.92,-621.54 315.02,-629.4 318.37,-623.25"/>
</g>
<!-- Node9 -->
<g id="node10" class="node">
<title>Node9</title>
<g id="a_node10"><a xlink:href="structmn_1_1is__floating__point_3_01const_01volatile_01T_01_4.html" target="_top" xlink:title=" ">
<polygon fill="white" stroke="black" points="381.5,-680 381.5,-710 500.5,-710 500.5,-680 381.5,-680"/>
<text text-anchor="start" x="389.5" y="-698" font-family="Helvetica,sans-Serif" font-size="10.00">mn::is_floating_point</text>
<text text-anchor="middle" x="441" y="-687" font-family="Helvetica,sans-Serif" font-size="10.00">&lt; const volatile T &gt;</text>
</a>
</g>
</g>
<!-- Node7&#45;&gt;Node9 -->
<g id="edge9" class="edge">
<title>Node7&#45;&gt;Node9</title>
<path fill="none" stroke="midnightblue" d="M311.28,-625.15C315.35,-626.87 319.29,-628.81 323,-631 343.59,-643.18 338.77,-658.23 359,-671 365.82,-675.31 373.45,-678.87 381.23,-681.81"/>
<polygon fill="midnightblue" stroke="midnightblue" points="312.19,-621.75 301.59,-621.54 309.74,-628.31 312.19,-621.75"/>
</g>
<!-- Node10 -->
<g id="node11" class="node">
<title>Node10</title>
<g id="a_node11"><a xlink:href="structmn_1_1is__floating__point_3_01volatile_01T_01_4.html" target="_top" xlink:title=" ">
<polygon fill="white" stroke="black" points="381.5,-631 381.5,-661 500.5,-661 500.5,-631 381.5,-631"/>
<text text-anchor="start" x="389.5" y="-649" font-family="Helvetica,sans-Serif" font-size="10.00">mn::is_floating_point</text>
<text text-anchor="middle" x="441" y="-638" font-family="Helvetica,sans-Serif" font-size="10.00">&lt; volatile T &gt;</text>
</a>
</g>
</g>
<!-- Node7&#45;&gt;Node10 -->
<g id="edge10" class="edge">
<title>Node7&#45;&gt;Node10</title>
<path fill="none" stroke="midnightblue" d="M307.46,-623.24C331.36,-627.35 358.23,-631.96 381.48,-635.95"/>
<polygon fill="midnightblue" stroke="midnightblue" points="307.87,-619.76 297.42,-621.52 306.68,-626.66 307.87,-619.76"/>
</g>
<!-- Node13 -->
<g id="node14" class="node">
<title>Node13</title>
<g id="a_node14"><a xlink:href="structmn_1_1is__integral_3_01const_01T_01_4.html" target="_top" xlink:title=" ">
<polygon fill="white" stroke="black" points="367.5,-592.5 367.5,-611.5 514.5,-611.5 514.5,-592.5 367.5,-592.5"/>
<text text-anchor="middle" x="441" y="-599.5" font-family="Helvetica,sans-Serif" font-size="10.00">mn::is_integral&lt; const T &gt;</text>
</a>
</g>
</g>
<!-- Node12&#45;&gt;Node13 -->
<g id="edge13" class="edge">
<title>Node12&#45;&gt;Node13</title>
<path fill="none" stroke="midnightblue" d="M307.08,-548.61C312.57,-550.47 317.95,-552.59 323,-555 341.29,-563.74 340.71,-574.26 359,-583 367.08,-586.86 376,-589.97 384.87,-592.45"/>
<polygon fill="midnightblue" stroke="midnightblue" points="307.71,-545.14 297.13,-545.55 305.65,-551.83 307.71,-545.14"/>
</g>
<!-- Node14 -->
<g id="node15" class="node">
<title>Node14</title>
<g id="a_node15"><a xlink:href="structmn_1_1is__integral_3_01const_01volatile_01T_01_4.html" target="_top" xlink:title=" ">
<polygon fill="white" stroke="black" points="377.5,-543 377.5,-573 504.5,-573 504.5,-543 377.5,-543"/>
<text text-anchor="start" x="385.5" y="-561" font-family="Helvetica,sans-Serif" font-size="10.00">mn::is_integral&lt; const</text>
<text text-anchor="middle" x="441" y="-550" font-family="Helvetica,sans-Serif" font-size="10.00"> volatile T &gt;</text>
</a>
</g>
</g>
<!-- Node12&#45;&gt;Node14 -->
<g id="edge14" class="edge">
<title>Node12&#45;&gt;Node14</title>
<path fill="none" stroke="midnightblue" d="M310.24,-543.58C332.05,-546.01 356.06,-548.67 377.44,-551.05"/>
<polygon fill="midnightblue" stroke="midnightblue" points="310.39,-540.08 300.07,-542.45 309.62,-547.04 310.39,-540.08"/>
</g>
<!-- Node15 -->
<g id="node16" class="node">
<title>Node15</title>
<g id="a_node16"><a xlink:href="structmn_1_1is__integral_3_01volatile_01T_01_4.html" target="_top" xlink:title=" ">
<polygon fill="white" stroke="black" points="362,-504.5 362,-523.5 520,-523.5 520,-504.5 362,-504.5"/>
<text text-anchor="middle" x="441" y="-511.5" font-family="Helvetica,sans-Serif" font-size="10.00">mn::is_integral&lt; volatile T &gt;</text>
</a>
</g>
</g>
<!-- Node12&#45;&gt;Node15 -->
<g id="edge15" class="edge">
<title>Node12&#45;&gt;Node15</title>
<path fill="none" stroke="midnightblue" d="M310.22,-528.42C326.81,-526.58 344.69,-524.59 361.71,-522.7"/>
<polygon fill="midnightblue" stroke="midnightblue" points="309.62,-524.96 300.07,-529.55 310.39,-531.92 309.62,-524.96"/>
</g>
<!-- Node19 -->
<g id="node20" class="node">
<title>Node19</title>
<g id="a_node20"><a xlink:href="structmn_1_1is__rational_3_01const_01T_01_4.html" target="_top" xlink:title=" ">
<polygon fill="white" stroke="black" points="367.5,-466.5 367.5,-485.5 514.5,-485.5 514.5,-466.5 367.5,-466.5"/>
<text text-anchor="middle" x="441" y="-473.5" font-family="Helvetica,sans-Serif" font-size="10.00">mn::is_rational&lt; const T &gt;</text>
</a>
</g>
</g>
<!-- Node18&#45;&gt;Node19 -->
<g id="edge19" class="edge">
<title>Node18&#45;&gt;Node19</title>
<path fill="none" stroke="midnightblue" d="M307.08,-422.61C312.57,-424.47 317.95,-426.59 323,-429 341.29,-437.74 340.71,-448.26 359,-457 367.08,-460.86 376,-463.97 384.87,-466.45"/>
<polygon fill="midnightblue" stroke="midnightblue" points="307.71,-419.14 297.13,-419.55 305.65,-425.83 307.71,-419.14"/>
</g>
<!-- Node20 -->
<g id="node21" class="node">
<title>Node20</title>
<g id="a_node21"><a xlink:href="structmn_1_1is__rational_3_01const_01volatile_01T_01_4.html" target="_top" xlink:title=" ">
<polygon fill="white" stroke="black" points="377.5,-417 377.5,-447 504.5,-447 504.5,-417 377.5,-417"/>
<text text-anchor="start" x="385.5" y="-435" font-family="Helvetica,sans-Serif" font-size="10.00">mn::is_rational&lt; const</text>
<text text-anchor="middle" x="441" y="-424" font-family="Helvetica,sans-Serif" font-size="10.00"> volatile T &gt;</text>
</a>
</g>
</g>
<!-- Node18&#45;&gt;Node20 -->
<g id="edge20" class="edge">
<title>Node18&#45;&gt;Node20</title>
<path fill="none" stroke="midnightblue" d="M310.24,-417.58C332.05,-420.01 356.06,-422.67 377.44,-425.05"/>
<polygon fill="midnightblue" stroke="midnightblue" points="310.39,-414.08 300.07,-416.45 309.62,-421.04 310.39,-414.08"/>
</g>
<!-- Node21 -->
<g id="node22" class="node">
<title>Node21</title>
<g id="a_node22"><a xlink:href="structmn_1_1is__rational_3_01volatile_01T_01_4.html" target="_top" xlink:title=" ">
<polygon fill="white" stroke="black" points="362,-378.5 362,-397.5 520,-397.5 520,-378.5 362,-378.5"/>
<text text-anchor="middle" x="441" y="-385.5" font-family="Helvetica,sans-Serif" font-size="10.00">mn::is_rational&lt; volatile T &gt;</text>
</a>
</g>
</g>
<!-- Node18&#45;&gt;Node21 -->
<g id="edge21" class="edge">
<title>Node18&#45;&gt;Node21</title>
<path fill="none" stroke="midnightblue" d="M310.22,-402.42C326.81,-400.58 344.69,-398.59 361.71,-396.7"/>
<polygon fill="midnightblue" stroke="midnightblue" points="309.62,-398.96 300.07,-403.55 310.39,-405.92 309.62,-398.96"/>
</g>
<!-- Node25 -->
<g id="node26" class="node">
<title>Node25</title>
<g id="a_node26"><a xlink:href="structmn_1_1is__signed_3_01const_01T_01_4.html" target="_top" xlink:title=" ">
<polygon fill="white" stroke="black" points="370,-340.5 370,-359.5 512,-359.5 512,-340.5 370,-340.5"/>
<text text-anchor="middle" x="441" y="-347.5" font-family="Helvetica,sans-Serif" font-size="10.00">mn::is_signed&lt; const T &gt;</text>
</a>
</g>
</g>
<!-- Node24&#45;&gt;Node25 -->
<g id="edge25" class="edge">
<title>Node24&#45;&gt;Node25</title>
<path fill="none" stroke="midnightblue" d="M307.08,-296.61C312.57,-298.47 317.95,-300.59 323,-303 341.29,-311.74 340.71,-322.26 359,-331 367.08,-334.86 376,-337.97 384.87,-340.45"/>
<polygon fill="midnightblue" stroke="midnightblue" points="307.71,-293.14 297.13,-293.55 305.65,-299.83 307.71,-293.14"/>
</g>
<!-- Node26 -->
<g id="node27" class="node">
<title>Node26</title>
<g id="a_node27"><a xlink:href="structmn_1_1is__signed_3_01const_01volatile_01T_01_4.html" target="_top" xlink:title=" ">
<polygon fill="white" stroke="black" points="380,-291 380,-321 502,-321 502,-291 380,-291"/>
<text text-anchor="start" x="388" y="-309" font-family="Helvetica,sans-Serif" font-size="10.00">mn::is_signed&lt; const</text>
<text text-anchor="middle" x="441" y="-298" font-family="Helvetica,sans-Serif" font-size="10.00"> volatile T &gt;</text>
</a>
</g>
</g>
<!-- Node24&#45;&gt;Node26 -->
<g id="edge26" class="edge">
<title>Node24&#45;&gt;Node26</title>
<path fill="none" stroke="midnightblue" d="M307.81,-291.31C331.08,-293.9 357.12,-296.79 379.89,-299.32"/>
<polygon fill="midnightblue" stroke="midnightblue" points="308.01,-287.81 297.68,-290.19 307.23,-294.77 308.01,-287.81"/>
</g>
<!-- Node27 -->
<g id="node28" class="node">
<title>Node27</title>
<g id="a_node28"><a xlink:href="structmn_1_1is__signed_3_01volatile_01T_01_4.html" target="_top" xlink:title=" ">
<polygon fill="white" stroke="black" points="365,-252.5 365,-271.5 517,-271.5 517,-252.5 365,-252.5"/>
<text text-anchor="middle" x="441" y="-259.5" font-family="Helvetica,sans-Serif" font-size="10.00">mn::is_signed&lt; volatile T &gt;</text>
</a>
</g>
</g>
<!-- Node24&#45;&gt;Node27 -->
<g id="edge27" class="edge">
<title>Node24&#45;&gt;Node27</title>
<path fill="none" stroke="midnightblue" d="M307.65,-276.71C325.96,-274.67 345.98,-272.45 364.79,-270.36"/>
<polygon fill="midnightblue" stroke="midnightblue" points="307.23,-273.23 297.68,-277.81 308.01,-280.19 307.23,-273.23"/>
</g>
<!-- Node29 -->
<g id="node30" class="node">
<title>Node29</title>
<g id="a_node30"><a xlink:href="structmn_1_1is__unsigned_3_01const_01T_01_4.html" target="_top" xlink:title=" ">
<polygon fill="white" stroke="black" points="364,-214.5 364,-233.5 518,-233.5 518,-214.5 364,-214.5"/>
<text text-anchor="middle" x="441" y="-221.5" font-family="Helvetica,sans-Serif" font-size="10.00">mn::is_unsigned&lt; const T &gt;</text>
</a>
</g>
</g>
<!-- Node28&#45;&gt;Node29 -->
<g id="edge29" class="edge">
<title>Node28&#45;&gt;Node29</title>
<path fill="none" stroke="midnightblue" d="M313.57,-231.02C329.9,-230.12 347.31,-229.15 363.82,-228.23"/>
<polygon fill="midnightblue" stroke="midnightblue" points="313.35,-227.53 303.56,-231.58 313.74,-234.52 313.35,-227.53"/>
</g>
<!-- Node30 -->
<g id="node31" class="node">
<title>Node30</title>
<g id="a_node31"><a xlink:href="structmn_1_1is__unsigned_3_01const_01volatile_01T_01_4.html" target="_top" xlink:title=" ">
<polygon fill="white" stroke="black" points="374,-165 374,-195 508,-195 508,-165 374,-165"/>
<text text-anchor="start" x="382" y="-183" font-family="Helvetica,sans-Serif" font-size="10.00">mn::is_unsigned&lt; const</text>
<text text-anchor="middle" x="441" y="-172" font-family="Helvetica,sans-Serif" font-size="10.00"> volatile T &gt;</text>
</a>
</g>
</g>
<!-- Node28&#45;&gt;Node30 -->
<g id="edge30" class="edge">
<title>Node28&#45;&gt;Node30</title>
<path fill="none" stroke="midnightblue" d="M295.01,-223.11C304.37,-220.86 313.99,-218.44 323,-216 324.8,-215.51 359.87,-204.72 391.14,-195.07"/>
<polygon fill="midnightblue" stroke="midnightblue" points="293.94,-219.77 285.01,-225.48 295.55,-226.58 293.94,-219.77"/>
</g>
<!-- Node31 -->
<g id="node32" class="node">
<title>Node31</title>
<g id="a_node32"><a xlink:href="structmn_1_1is__unsigned_3_01volatile_01T_01_4.html" target="_top" xlink:title=" ">
<polygon fill="white" stroke="black" points="359,-126.5 359,-145.5 523,-145.5 523,-126.5 359,-126.5"/>
<text text-anchor="middle" x="441" y="-133.5" font-family="Helvetica,sans-Serif" font-size="10.00">mn::is_unsigned&lt; volatile T &gt;</text>
</a>
</g>
</g>
<!-- Node28&#45;&gt;Node31 -->
<g id="edge31" class="edge">
<title>Node28&#45;&gt;Node31</title>
<path fill="none" stroke="midnightblue" d="M312.79,-222.18C316.38,-220.38 319.81,-218.33 323,-216 348.12,-197.67 333.99,-174.48 359,-156 364.83,-151.7 371.47,-148.31 378.38,-145.65"/>
<polygon fill="midnightblue" stroke="midnightblue" points="311.39,-218.97 303.6,-226.16 314.17,-225.39 311.39,-218.97"/>
</g>
<!-- Node33 -->
<g id="node34" class="node">
<title>Node33</title>
<g id="a_node34"><a xlink:href="structmn_1_1is__void_3_01const_01T_01_4.html" target="_top" xlink:title=" ">
<polygon fill="white" stroke="black" points="375.5,-88.5 375.5,-107.5 506.5,-107.5 506.5,-88.5 375.5,-88.5"/>
<text text-anchor="middle" x="441" y="-95.5" font-family="Helvetica,sans-Serif" font-size="10.00">mn::is_void&lt; const T &gt;</text>
</a>
</g>
</g>
<!-- Node32&#45;&gt;Node33 -->
<g id="edge33" class="edge">
<title>Node32&#45;&gt;Node33</title>
<path fill="none" stroke="midnightblue" d="M301.62,-188.93C309.25,-186.25 316.62,-182.69 323,-178 348.36,-159.35 333.64,-135.65 359,-117 364.24,-113.15 370.14,-110.07 376.3,-107.6"/>
<polygon fill="midnightblue" stroke="midnightblue" points="300.41,-185.64 291.86,-191.9 302.44,-192.34 300.41,-185.64"/>
</g>
<!-- Node34 -->
<g id="node35" class="node">
<title>Node34</title>
<g id="a_node35"><a xlink:href="structmn_1_1is__void_3_01const_01volatile_01T_01_4.html" target="_top" xlink:title=" ">
<polygon fill="white" stroke="black" points="386,-39 386,-69 496,-69 496,-39 386,-39"/>
<text text-anchor="start" x="394" y="-57" font-family="Helvetica,sans-Serif" font-size="10.00">mn::is_void&lt; const</text>
<text text-anchor="middle" x="441" y="-46" font-family="Helvetica,sans-Serif" font-size="10.00"> volatile T &gt;</text>
</a>
</g>
</g>
<!-- Node32&#45;&gt;Node34 -->
<g id="edge34" class="edge">
<title>Node32&#45;&gt;Node34</title>
<path fill="none" stroke="midnightblue" d="M301.34,-190.41C309.26,-187.52 316.78,-183.52 323,-178 358.01,-146.91 325.09,-111.28 359,-79 366.46,-71.9 375.9,-66.81 385.67,-63.17"/>
<polygon fill="midnightblue" stroke="midnightblue" points="300.08,-187.13 291.54,-193.39 302.13,-193.82 300.08,-187.13"/>
</g>
<!-- Node35 -->
<g id="node36" class="node">
<title>Node35</title>
<g id="a_node36"><a xlink:href="structmn_1_1is__void_3_01volatile_01T_01_4.html" target="_top" xlink:title=" ">
<polygon fill="white" stroke="black" points="370.5,-0.5 370.5,-19.5 511.5,-19.5 511.5,-0.5 370.5,-0.5"/>
<text text-anchor="middle" x="441" y="-7.5" font-family="Helvetica,sans-Serif" font-size="10.00">mn::is_void&lt; volatile T &gt;</text>
</a>
</g>
</g>
<!-- Node32&#45;&gt;Node35 -->
<g id="edge35" class="edge">
<title>Node32&#45;&gt;Node35</title>
<path fill="none" stroke="midnightblue" d="M301.36,-191.22C309.41,-188.24 316.96,-184 323,-178 371.33,-129.99 310.67,-77.01 359,-29 362.79,-25.23 367.18,-22.16 371.91,-19.65"/>
<polygon fill="midnightblue" stroke="midnightblue" points="300.28,-187.89 291.75,-194.17 302.33,-194.59 300.28,-187.89"/>
</g>
</g>
</svg>
