<?xml version="1.0" encoding="UTF-8" standalone="no"?>
<!DOCTYPE svg PUBLIC "-//W3C//DTD SVG 1.1//EN"
 "http://www.w3.org/Graphics/SVG/1.1/DTD/svg11.dtd">
<!-- Generated by graphviz version 2.47.3 (0)
 -->
<!-- Title: Graphical Class Hierarchy Pages: 1 -->
<svg width="324pt" height="88pt"
 viewBox="0.00 0.00 324.00 88.00" xmlns="http://www.w3.org/2000/svg" xmlns:xlink="http://www.w3.org/1999/xlink">
<g id="graph0" class="graph" transform="scale(1 1) rotate(0) translate(4 84)">
<title>Graphical Class Hierarchy</title>
<polygon fill="white" stroke="transparent" points="-4,4 -4,-84 320,-84 320,4 -4,4"/>
<!-- Node0 -->
<g id="node1" class="node">
<title>Node0</title>
<g id="a_node1"><a xlink:href="structmn_1_1pointer_1_1basic__default__clone.html" target="_top" xlink:title=" ">
<polygon fill="white" stroke="black" points="17,-49.5 17,-79.5 133,-79.5 133,-49.5 17,-49.5"/>
<text text-anchor="start" x="25" y="-67.5" font-family="Helvetica,sans-Serif" font-size="10.00">mn::pointer::basic</text>
<text text-anchor="middle" x="75" y="-56.5" font-family="Helvetica,sans-Serif" font-size="10.00">_default_clone&lt; T &gt;</text>
</a>
</g>
</g>
<!-- Node1 -->
<g id="node2" class="node">
<title>Node1</title>
<g id="a_node2"><a xlink:href="classmn_1_1pointer_1_1basic__clone__ptr.html" target="_top" xlink:title=" ">
<polygon fill="white" stroke="black" points="186,-19 186,-60 316,-60 316,-19 186,-19"/>
<text text-anchor="start" x="194" y="-48" font-family="Helvetica,sans-Serif" font-size="10.00">mn::pointer::basic</text>
<text text-anchor="start" x="194" y="-37" font-family="Helvetica,sans-Serif" font-size="10.00">_clone_ptr&lt; T, TCloner,</text>
<text text-anchor="middle" x="251" y="-26" font-family="Helvetica,sans-Serif" font-size="10.00"> TDeleter &gt;</text>
</a>
</g>
</g>
<!-- Node0&#45;&gt;Node1 -->
<g id="edge1" class="edge">
<title>Node0&#45;&gt;Node1</title>
<path fill="none" stroke="#8b1a1a" d="M143.49,-54.8C157.46,-52.8 172.15,-50.69 185.99,-48.7"/>
<polygon fill="#8b1a1a" stroke="#8b1a1a" points="142.86,-51.36 133.46,-56.24 143.85,-58.29 142.86,-51.36"/>
</g>
<!-- Node72 -->
<g id="node3" class="node">
<title>Node72</title>
<g id="a_node3"><a xlink:href="classmn_1_1memory_1_1basic__deleter.html" target="_top" xlink:title="A Simple template for a deleter.">
<polygon fill="white" stroke="black" points="0,-0.5 0,-30.5 150,-30.5 150,-0.5 0,-0.5"/>
<text text-anchor="start" x="8" y="-18.5" font-family="Helvetica,sans-Serif" font-size="10.00">mn::memory::basic_deleter</text>
<text text-anchor="middle" x="75" y="-7.5" font-family="Helvetica,sans-Serif" font-size="10.00">&lt; Type, TAllocator &gt;</text>
</a>
</g>
</g>
<!-- Node72&#45;&gt;Node1 -->
<g id="edge2" class="edge">
<title>Node72&#45;&gt;Node1</title>
<path fill="none" stroke="#8b1a1a" d="M160.17,-27.11C168.83,-28.3 177.52,-29.5 185.91,-30.66"/>
<polygon fill="#8b1a1a" stroke="#8b1a1a" points="160.43,-23.61 150.04,-25.71 159.47,-30.55 160.43,-23.61"/>
</g>
</g>
</svg>
