<?xml version="1.0" encoding="UTF-8" standalone="no"?>
<!DOCTYPE svg PUBLIC "-//W3C//DTD SVG 1.1//EN"
 "http://www.w3.org/Graphics/SVG/1.1/DTD/svg11.dtd">
<!-- Generated by graphviz version 2.47.3 (0)
 -->
<!-- Title: Graphical Class Hierarchy Pages: 1 -->
<svg width="328pt" height="306pt"
 viewBox="0.00 0.00 328.00 305.50" xmlns="http://www.w3.org/2000/svg" xmlns:xlink="http://www.w3.org/1999/xlink">
<g id="graph0" class="graph" transform="scale(1 1) rotate(0) translate(4 301.5)">
<title>Graphical Class Hierarchy</title>
<polygon fill="white" stroke="transparent" points="-4,4 -4,-301.5 324,-301.5 324,4 -4,4"/>
<!-- Node0 -->
<g id="node1" class="node">
<title>Node0</title>
<g id="a_node1"><a xlink:href="namespacemn_1_1stl.html" target="_top" xlink:title=" ">
<polygon fill="white" stroke="black" points="0,-139.5 0,-169.5 132,-169.5 132,-139.5 0,-139.5"/>
<text text-anchor="start" x="8" y="-157.5" font-family="Helvetica,sans-Serif" font-size="10.00">mn::stl::binary_function</text>
<text text-anchor="middle" x="66" y="-146.5" font-family="Helvetica,sans-Serif" font-size="10.00">&lt; T, T, bool &gt;</text>
</a>
</g>
</g>
<!-- Node1 -->
<g id="node2" class="node">
<title>Node1</title>
<g id="a_node2"><a xlink:href="structmn_1_1stl_1_1equal__to.html" target="_top" xlink:title=" ">
<polygon fill="white" stroke="black" points="180.5,-278 180.5,-297 307.5,-297 307.5,-278 180.5,-278"/>
<text text-anchor="middle" x="244" y="-285" font-family="Helvetica,sans-Serif" font-size="10.00">mn::stl::equal_to&lt; T &gt;</text>
</a>
</g>
</g>
<!-- Node0&#45;&gt;Node1 -->
<g id="edge1" class="edge">
<title>Node0&#45;&gt;Node1</title>
<path fill="none" stroke="midnightblue" d="M81.65,-178.22C99.03,-204.33 130.42,-245.62 168,-268.5 174.42,-272.41 181.63,-275.52 188.96,-277.99"/>
<polygon fill="midnightblue" stroke="midnightblue" points="84.48,-176.15 76.1,-169.67 78.61,-179.97 84.48,-176.15"/>
</g>
<!-- Node2 -->
<g id="node3" class="node">
<title>Node2</title>
<g id="a_node3"><a xlink:href="structmn_1_1stl_1_1greater.html" target="_top" xlink:title=" ">
<polygon fill="white" stroke="black" points="184,-240 184,-259 304,-259 304,-240 184,-240"/>
<text text-anchor="middle" x="244" y="-247" font-family="Helvetica,sans-Serif" font-size="10.00">mn::stl::greater&lt; T &gt;</text>
</a>
</g>
</g>
<!-- Node0&#45;&gt;Node2 -->
<g id="edge2" class="edge">
<title>Node0&#45;&gt;Node2</title>
<path fill="none" stroke="midnightblue" d="M90.51,-176.52C109.92,-193.58 138.91,-216.57 168,-230.5 176,-234.33 184.85,-237.45 193.6,-239.96"/>
<polygon fill="midnightblue" stroke="midnightblue" points="92.6,-173.69 82.81,-169.62 87.92,-178.9 92.6,-173.69"/>
</g>
<!-- Node3 -->
<g id="node4" class="node">
<title>Node3</title>
<g id="a_node4"><a xlink:href="structmn_1_1stl_1_1greater__equal.html" target="_top" xlink:title=" ">
<polygon fill="white" stroke="black" points="168,-202 168,-221 320,-221 320,-202 168,-202"/>
<text text-anchor="middle" x="244" y="-209" font-family="Helvetica,sans-Serif" font-size="10.00">mn::stl::greater_equal&lt; T &gt;</text>
</a>
</g>
</g>
<!-- Node0&#45;&gt;Node3 -->
<g id="edge3" class="edge">
<title>Node0&#45;&gt;Node3</title>
<path fill="none" stroke="midnightblue" d="M113.73,-173.33C130.68,-179.82 150.07,-186.87 168,-192.5 178.89,-195.92 190.82,-199.16 201.9,-201.97"/>
<polygon fill="midnightblue" stroke="midnightblue" points="114.66,-169.93 104.07,-169.58 112.13,-176.46 114.66,-169.93"/>
</g>
<!-- Node4 -->
<g id="node5" class="node">
<title>Node4</title>
<g id="a_node5"><a xlink:href="structmn_1_1stl_1_1less.html" target="_top" xlink:title=" ">
<polygon fill="white" stroke="black" points="192,-164 192,-183 296,-183 296,-164 192,-164"/>
<text text-anchor="middle" x="244" y="-171" font-family="Helvetica,sans-Serif" font-size="10.00">mn::stl::less&lt; T &gt;</text>
</a>
</g>
</g>
<!-- Node0&#45;&gt;Node4 -->
<g id="edge4" class="edge">
<title>Node0&#45;&gt;Node4</title>
<path fill="none" stroke="midnightblue" d="M142.36,-162.64C159.11,-164.44 176.48,-166.32 191.98,-167.99"/>
<polygon fill="midnightblue" stroke="midnightblue" points="142.35,-159.11 132.04,-161.52 141.6,-166.07 142.35,-159.11"/>
</g>
<!-- Node5 -->
<g id="node6" class="node">
<title>Node5</title>
<g id="a_node6"><a xlink:href="structmn_1_1stl_1_1less__equal.html" target="_top" xlink:title=" ">
<polygon fill="white" stroke="black" points="175.5,-126 175.5,-145 312.5,-145 312.5,-126 175.5,-126"/>
<text text-anchor="middle" x="244" y="-133" font-family="Helvetica,sans-Serif" font-size="10.00">mn::stl::less_equal&lt; T &gt;</text>
</a>
</g>
</g>
<!-- Node0&#45;&gt;Node5 -->
<g id="edge5" class="edge">
<title>Node0&#45;&gt;Node5</title>
<path fill="none" stroke="midnightblue" d="M142.07,-146.4C153.1,-145.2 164.41,-143.98 175.28,-142.81"/>
<polygon fill="midnightblue" stroke="midnightblue" points="141.6,-142.93 132.04,-147.48 142.35,-149.89 141.6,-142.93"/>
</g>
<!-- Node6 -->
<g id="node7" class="node">
<title>Node6</title>
<g id="a_node7"><a xlink:href="structmn_1_1stl_1_1logic__and.html" target="_top" xlink:title=" ">
<polygon fill="white" stroke="black" points="178.5,-88 178.5,-107 309.5,-107 309.5,-88 178.5,-88"/>
<text text-anchor="middle" x="244" y="-95" font-family="Helvetica,sans-Serif" font-size="10.00">mn::stl::logic_and&lt; T &gt;</text>
</a>
</g>
</g>
<!-- Node0&#45;&gt;Node6 -->
<g id="edge6" class="edge">
<title>Node0&#45;&gt;Node6</title>
<path fill="none" stroke="midnightblue" d="M113.73,-135.67C130.68,-129.18 150.07,-122.13 168,-116.5 178.89,-113.08 190.82,-109.84 201.9,-107.03"/>
<polygon fill="midnightblue" stroke="midnightblue" points="112.13,-132.54 104.07,-139.42 114.66,-139.07 112.13,-132.54"/>
</g>
<!-- Node7 -->
<g id="node8" class="node">
<title>Node7</title>
<g id="a_node8"><a xlink:href="structmn_1_1stl_1_1logic__or.html" target="_top" xlink:title=" ">
<polygon fill="white" stroke="black" points="182.5,-50 182.5,-69 305.5,-69 305.5,-50 182.5,-50"/>
<text text-anchor="middle" x="244" y="-57" font-family="Helvetica,sans-Serif" font-size="10.00">mn::stl::logic_or&lt; T &gt;</text>
</a>
</g>
</g>
<!-- Node0&#45;&gt;Node7 -->
<g id="edge7" class="edge">
<title>Node0&#45;&gt;Node7</title>
<path fill="none" stroke="midnightblue" d="M90.51,-132.48C109.92,-115.42 138.91,-92.43 168,-78.5 176,-74.67 184.85,-71.55 193.6,-69.04"/>
<polygon fill="midnightblue" stroke="midnightblue" points="87.92,-130.1 82.81,-139.38 92.6,-135.31 87.92,-130.1"/>
</g>
<!-- Node8 -->
<g id="node9" class="node">
<title>Node8</title>
<g id="a_node9"><a xlink:href="structmn_1_1stl_1_1not__equal__to.html" target="_top" xlink:title=" ">
<polygon fill="white" stroke="black" points="192,-0.5 192,-30.5 296,-30.5 296,-0.5 192,-0.5"/>
<text text-anchor="start" x="200" y="-18.5" font-family="Helvetica,sans-Serif" font-size="10.00">mn::stl::not_equal</text>
<text text-anchor="middle" x="244" y="-7.5" font-family="Helvetica,sans-Serif" font-size="10.00">_to&lt; T &gt;</text>
</a>
</g>
</g>
<!-- Node0&#45;&gt;Node8 -->
<g id="edge8" class="edge">
<title>Node0&#45;&gt;Node8</title>
<path fill="none" stroke="midnightblue" d="M82.26,-130.87C99.98,-105.19 131.49,-64.62 168,-40.5 175.21,-35.73 183.42,-31.8 191.69,-28.58"/>
<polygon fill="midnightblue" stroke="midnightblue" points="79.27,-129.03 76.58,-139.28 85.08,-132.95 79.27,-129.03"/>
</g>
</g>
</svg>
