<?xml version="1.0" encoding="UTF-8" standalone="no"?>
<!DOCTYPE svg PUBLIC "-//W3C//DTD SVG 1.1//EN"
 "http://www.w3.org/Graphics/SVG/1.1/DTD/svg11.dtd">
<!-- Generated by graphviz version 2.47.1 (0)
 -->
<!-- Title: Graphical Class Hierarchy Pages: 1 -->
<svg width="310pt" height="431pt"
 viewBox="0.00 0.00 310.00 431.00" xmlns="http://www.w3.org/2000/svg" xmlns:xlink="http://www.w3.org/1999/xlink">
<g id="graph0" class="graph" transform="scale(1 1) rotate(0) translate(4 427)">
<title>Graphical Class Hierarchy</title>
<polygon fill="white" stroke="transparent" points="-4,4 -4,-427 306,-427 306,4 -4,4"/>
<!-- Node0 -->
<g id="node1" class="node">
<title>Node0</title>
<g id="a_node1"><a xlink:href="structmn_1_1pointer_1_1basic__linked__ptr__node.html" target="_top" xlink:title="This class allows basic_linked_ptr&lt;T&gt; and basic_linked_ptr to share the same base nodes.">
<polygon fill="white" stroke="black" points="4.5,-392.5 4.5,-422.5 108.5,-422.5 108.5,-392.5 4.5,-392.5"/>
<text text-anchor="start" x="12.5" y="-410.5" font-family="Helvetica,sans-Serif" font-size="10.00">mn::pointer::basic</text>
<text text-anchor="middle" x="56.5" y="-399.5" font-family="Helvetica,sans-Serif" font-size="10.00">_linked_ptr_node</text>
</a>
</g>
</g>
<!-- Node1 -->
<g id="node2" class="node">
<title>Node1</title>
<g id="a_node2"><a xlink:href="classmn_1_1pointer_1_1basic__linked__ptr.html" target="_top" xlink:title="This class implements a basic_linked_ptr template that it allows sharing of pointers between instance...">
<polygon fill="white" stroke="black" points="173.5,-392.5 173.5,-422.5 277.5,-422.5 277.5,-392.5 173.5,-392.5"/>
<text text-anchor="start" x="181.5" y="-410.5" font-family="Helvetica,sans-Serif" font-size="10.00">mn::pointer::basic</text>
<text text-anchor="middle" x="225.5" y="-399.5" font-family="Helvetica,sans-Serif" font-size="10.00">_linked_ptr&lt; T &gt;</text>
</a>
</g>
</g>
<!-- Node0&#45;&gt;Node1 -->
<g id="edge1" class="edge">
<title>Node0&#45;&gt;Node1</title>
<path fill="none" stroke="midnightblue" d="M118.59,-407.5C136.53,-407.5 155.96,-407.5 173.22,-407.5"/>
<polygon fill="midnightblue" stroke="midnightblue" points="118.51,-404 108.51,-407.5 118.51,-411 118.51,-404"/>
</g>
<!-- Node127 -->
<g id="node3" class="node">
<title>Node127</title>
<g id="a_node3"><a xlink:href="classmn_1_1pointer_1_1clone__ptr__interface.html" target="_top" xlink:title=" ">
<polygon fill="white" stroke="black" points="0,-343.5 0,-373.5 113,-373.5 113,-343.5 0,-343.5"/>
<text text-anchor="start" x="8" y="-361.5" font-family="Helvetica,sans-Serif" font-size="10.00">mn::pointer::clone</text>
<text text-anchor="middle" x="56.5" y="-350.5" font-family="Helvetica,sans-Serif" font-size="10.00">_ptr_interface&lt; T &gt;</text>
</a>
</g>
</g>
<!-- Node128 -->
<g id="node4" class="node">
<title>Node128</title>
<g id="a_node4"><a xlink:href="classmn_1_1pointer_1_1basic__clone__ptr.html" target="_top" xlink:title=" ">
<polygon fill="white" stroke="black" points="150,-343.5 150,-373.5 301,-373.5 301,-343.5 150,-343.5"/>
<text text-anchor="start" x="158" y="-361.5" font-family="Helvetica,sans-Serif" font-size="10.00">mn::pointer::basic</text>
<text text-anchor="middle" x="225.5" y="-350.5" font-family="Helvetica,sans-Serif" font-size="10.00">_clone_ptr&lt; T, TInterface &gt;</text>
</a>
</g>
</g>
<!-- Node127&#45;&gt;Node128 -->
<g id="edge2" class="edge">
<title>Node127&#45;&gt;Node128</title>
<path fill="none" stroke="midnightblue" d="M123.21,-358.5C131.94,-358.5 140.95,-358.5 149.81,-358.5"/>
<polygon fill="midnightblue" stroke="midnightblue" points="123.11,-355 113.11,-358.5 123.11,-362 123.11,-355"/>
</g>
<!-- Node265 -->
<g id="node5" class="node">
<title>Node265</title>
<g id="a_node5"><a xlink:href="structmn_1_1pointer_1_1pointer__ptr.html" target="_top" xlink:title=" ">
<polygon fill="white" stroke="black" points="0,-196.5 0,-226.5 113,-226.5 113,-196.5 0,-196.5"/>
<text text-anchor="start" x="8" y="-214.5" font-family="Helvetica,sans-Serif" font-size="10.00">mn::pointer::pointer</text>
<text text-anchor="middle" x="56.5" y="-203.5" font-family="Helvetica,sans-Serif" font-size="10.00">_ptr&lt; T &gt;</text>
</a>
</g>
</g>
<!-- Node265&#45;&gt;Node1 -->
<g id="edge6" class="edge">
<title>Node265&#45;&gt;Node1</title>
<path fill="none" stroke="#8b1a1a" d="M67.75,-235.94C85.96,-278.34 124.35,-362.95 149,-383.5 156.08,-389.4 164.62,-393.86 173.38,-397.22"/>
<polygon fill="#8b1a1a" stroke="#8b1a1a" points="70.92,-234.45 63.78,-226.62 64.48,-237.19 70.92,-234.45"/>
</g>
<!-- Node265&#45;&gt;Node128 -->
<g id="edge5" class="edge">
<title>Node265&#45;&gt;Node128</title>
<path fill="none" stroke="#8b1a1a" d="M69.55,-235.82C84.51,-263.59 112.56,-308.51 149,-334.5 153.82,-337.93 159.14,-340.89 164.68,-343.44"/>
<polygon fill="#8b1a1a" stroke="#8b1a1a" points="72.55,-234.01 64.82,-226.78 66.35,-237.26 72.55,-234.01"/>
</g>
<!-- Node266 -->
<g id="node6" class="node">
<title>Node266</title>
<g id="a_node6"><a xlink:href="classmn_1_1pointer_1_1basic__any__ptr.html" target="_top" xlink:title=" ">
<polygon fill="white" stroke="black" points="173.5,-0.5 173.5,-30.5 277.5,-30.5 277.5,-0.5 173.5,-0.5"/>
<text text-anchor="start" x="181.5" y="-18.5" font-family="Helvetica,sans-Serif" font-size="10.00">mn::pointer::basic</text>
<text text-anchor="middle" x="225.5" y="-7.5" font-family="Helvetica,sans-Serif" font-size="10.00">_any_ptr&lt; T &gt;</text>
</a>
</g>
</g>
<!-- Node265&#45;&gt;Node266 -->
<g id="edge3" class="edge">
<title>Node265&#45;&gt;Node266</title>
<path fill="none" stroke="#8b1a1a" d="M64.24,-186.31C75.54,-148.89 101.82,-78.82 149,-39.5 156.08,-33.6 164.62,-29.14 173.38,-25.78"/>
<polygon fill="#8b1a1a" stroke="#8b1a1a" points="60.75,-185.8 61.33,-196.38 67.47,-187.74 60.75,-185.8"/>
</g>
<!-- Node267 -->
<g id="node7" class="node">
<title>Node267</title>
<g id="a_node7"><a xlink:href="classmn_1_1pointer_1_1basic__auto__ptr.html" target="_top" xlink:title="AutoPtr is a &quot;smart&quot; pointer for classes implementing reference counting based garbage collection.">
<polygon fill="white" stroke="black" points="173.5,-294.5 173.5,-324.5 277.5,-324.5 277.5,-294.5 173.5,-294.5"/>
<text text-anchor="start" x="181.5" y="-312.5" font-family="Helvetica,sans-Serif" font-size="10.00">mn::pointer::basic</text>
<text text-anchor="middle" x="225.5" y="-301.5" font-family="Helvetica,sans-Serif" font-size="10.00">_auto_ptr&lt; T &gt;</text>
</a>
</g>
</g>
<!-- Node265&#45;&gt;Node267 -->
<g id="edge4" class="edge">
<title>Node265&#45;&gt;Node267</title>
<path fill="none" stroke="#8b1a1a" d="M80.28,-233.49C97.86,-249.47 123.43,-270.65 149,-284.5 156.53,-288.58 164.84,-292.15 173.11,-295.22"/>
<polygon fill="#8b1a1a" stroke="#8b1a1a" points="82.51,-230.78 72.79,-226.56 77.75,-235.92 82.51,-230.78"/>
</g>
<!-- Node268 -->
<g id="node8" class="node">
<title>Node268</title>
<g id="a_node8"><a xlink:href="classmn_1_1pointer_1_1basic__save__ptr.html" target="_top" xlink:title=" ">
<polygon fill="white" stroke="black" points="173.5,-245.5 173.5,-275.5 277.5,-275.5 277.5,-245.5 173.5,-245.5"/>
<text text-anchor="start" x="181.5" y="-263.5" font-family="Helvetica,sans-Serif" font-size="10.00">mn::pointer::basic</text>
<text text-anchor="middle" x="225.5" y="-252.5" font-family="Helvetica,sans-Serif" font-size="10.00">_save_ptr&lt; T &gt;</text>
</a>
</g>
</g>
<!-- Node265&#45;&gt;Node268 -->
<g id="edge7" class="edge">
<title>Node265&#45;&gt;Node268</title>
<path fill="none" stroke="#8b1a1a" d="M118.78,-229.48C136.76,-234.76 156.22,-240.47 173.49,-245.53"/>
<polygon fill="#8b1a1a" stroke="#8b1a1a" points="119.55,-226.06 108.97,-226.6 117.58,-232.78 119.55,-226.06"/>
</g>
<!-- Node269 -->
<g id="node9" class="node">
<title>Node269</title>
<g id="a_node9"><a xlink:href="classmn_1_1pointer_1_1basic__scoped__ptr.html" target="_top" xlink:title=" ">
<polygon fill="white" stroke="black" points="173.5,-196.5 173.5,-226.5 277.5,-226.5 277.5,-196.5 173.5,-196.5"/>
<text text-anchor="start" x="181.5" y="-214.5" font-family="Helvetica,sans-Serif" font-size="10.00">mn::pointer::basic</text>
<text text-anchor="middle" x="225.5" y="-203.5" font-family="Helvetica,sans-Serif" font-size="10.00">_scoped_ptr&lt; T &gt;</text>
</a>
</g>
</g>
<!-- Node265&#45;&gt;Node269 -->
<g id="edge8" class="edge">
<title>Node265&#45;&gt;Node269</title>
<path fill="none" stroke="#8b1a1a" d="M123.32,-211.5C139.95,-211.5 157.57,-211.5 173.36,-211.5"/>
<polygon fill="#8b1a1a" stroke="#8b1a1a" points="123.11,-208 113.11,-211.5 123.11,-215 123.11,-208"/>
</g>
<!-- Node270 -->
<g id="node10" class="node">
<title>Node270</title>
<g id="a_node10"><a xlink:href="classmn_1_1pointer_1_1basic__shared__ptr.html" target="_top" xlink:title=" ">
<polygon fill="white" stroke="black" points="149,-147.5 149,-177.5 302,-177.5 302,-147.5 149,-147.5"/>
<text text-anchor="start" x="157" y="-165.5" font-family="Helvetica,sans-Serif" font-size="10.00">mn::pointer::basic</text>
<text text-anchor="middle" x="225.5" y="-154.5" font-family="Helvetica,sans-Serif" font-size="10.00">_shared_ptr&lt; T, TRefType &gt;</text>
</a>
</g>
</g>
<!-- Node265&#45;&gt;Node270 -->
<g id="edge9" class="edge">
<title>Node265&#45;&gt;Node270</title>
<path fill="none" stroke="#8b1a1a" d="M118.73,-193.53C136.63,-188.28 155.99,-182.6 173.2,-177.55"/>
<polygon fill="#8b1a1a" stroke="#8b1a1a" points="117.58,-190.22 108.97,-196.4 119.55,-196.94 117.58,-190.22"/>
</g>
<!-- Node271 -->
<g id="node11" class="node">
<title>Node271</title>
<g id="a_node11"><a xlink:href="classmn_1_1pointer_1_1basic__weak__ptr.html" target="_top" xlink:title=" ">
<polygon fill="white" stroke="black" points="152.5,-98.5 152.5,-128.5 298.5,-128.5 298.5,-98.5 152.5,-98.5"/>
<text text-anchor="start" x="160.5" y="-116.5" font-family="Helvetica,sans-Serif" font-size="10.00">mn::pointer::basic</text>
<text text-anchor="middle" x="225.5" y="-105.5" font-family="Helvetica,sans-Serif" font-size="10.00">_weak_ptr&lt; T, TRefType &gt;</text>
</a>
</g>
</g>
<!-- Node265&#45;&gt;Node271 -->
<g id="edge10" class="edge">
<title>Node265&#45;&gt;Node271</title>
<path fill="none" stroke="#8b1a1a" d="M79.86,-189.39C97.4,-173.1 123.1,-151.44 149,-137.5 155.18,-134.17 161.89,-131.22 168.68,-128.62"/>
<polygon fill="#8b1a1a" stroke="#8b1a1a" points="77.26,-187.04 72.4,-196.45 82.07,-192.12 77.26,-187.04"/>
</g>
<!-- Node272 -->
<g id="node12" class="node">
<title>Node272</title>
<g id="a_node12"><a xlink:href="classmn_1_1pointer_1_1node__ptr.html" target="_top" xlink:title=" ">
<polygon fill="white" stroke="black" points="164.5,-49.5 164.5,-79.5 286.5,-79.5 286.5,-49.5 164.5,-49.5"/>
<text text-anchor="start" x="172.5" y="-67.5" font-family="Helvetica,sans-Serif" font-size="10.00">mn::pointer::node_ptr</text>
<text text-anchor="middle" x="225.5" y="-56.5" font-family="Helvetica,sans-Serif" font-size="10.00">&lt; T, TAllocator &gt;</text>
</a>
</g>
</g>
<!-- Node265&#45;&gt;Node272 -->
<g id="edge11" class="edge">
<title>Node265&#45;&gt;Node272</title>
<path fill="none" stroke="#8b1a1a" d="M69.55,-187.18C84.51,-159.41 112.56,-114.49 149,-88.5 153.82,-85.07 159.14,-82.11 164.68,-79.56"/>
<polygon fill="#8b1a1a" stroke="#8b1a1a" points="66.35,-185.74 64.82,-196.22 72.55,-188.99 66.35,-185.74"/>
</g>
</g>
</svg>
