<?xml version="1.0" encoding="UTF-8" standalone="no"?>
<!DOCTYPE svg PUBLIC "-//W3C//DTD SVG 1.1//EN"
 "http://www.w3.org/Graphics/SVG/1.1/DTD/svg11.dtd">
<!-- Generated by graphviz version 2.47.3 (0)
 -->
<!-- Title: Graphical Class Hierarchy Pages: 1 -->
<svg width="322pt" height="110pt"
 viewBox="0.00 0.00 322.00 110.00" xmlns="http://www.w3.org/2000/svg" xmlns:xlink="http://www.w3.org/1999/xlink">
<g id="graph0" class="graph" transform="scale(1 1) rotate(0) translate(4 106)">
<title>Graphical Class Hierarchy</title>
<polygon fill="white" stroke="transparent" points="-4,4 -4,-106 318,-106 318,4 -4,4"/>
<!-- Node0 -->
<g id="node1" class="node">
<title>Node0</title>
<g id="a_node1"><a xlink:href="classmn_1_1only__move__tag.html" target="_top" xlink:title=" ">
<polygon fill="white" stroke="black" points="0,-36 0,-66 122,-66 122,-36 0,-36"/>
<text text-anchor="start" x="8" y="-54" font-family="Helvetica,sans-Serif" font-size="10.00">mn::only_move_tag&lt;</text>
<text text-anchor="middle" x="61" y="-43" font-family="Helvetica,sans-Serif" font-size="10.00"> void &gt;</text>
</a>
</g>
</g>
<!-- Node1 -->
<g id="node2" class="node">
<title>Node1</title>
<g id="a_node2"><a xlink:href="classmn_1_1pointer_1_1basic__unique__ptr.html" target="_top" xlink:title="A simple unique_ptr, for a single object.">
<polygon fill="white" stroke="black" points="161.5,-60.5 161.5,-101.5 310.5,-101.5 310.5,-60.5 161.5,-60.5"/>
<text text-anchor="start" x="169.5" y="-89.5" font-family="Helvetica,sans-Serif" font-size="10.00">mn::pointer::basic</text>
<text text-anchor="start" x="169.5" y="-78.5" font-family="Helvetica,sans-Serif" font-size="10.00">_unique_ptr&lt; T, TAllocator,</text>
<text text-anchor="middle" x="236" y="-67.5" font-family="Helvetica,sans-Serif" font-size="10.00"> TDeleter &gt;</text>
</a>
</g>
</g>
<!-- Node0&#45;&gt;Node1 -->
<g id="edge1" class="edge">
<title>Node0&#45;&gt;Node1</title>
<path fill="none" stroke="midnightblue" d="M131.98,-63.14C141.66,-64.81 151.62,-66.54 161.36,-68.23"/>
<polygon fill="midnightblue" stroke="midnightblue" points="132.47,-59.67 122.02,-61.41 131.28,-66.57 132.47,-59.67"/>
</g>
<!-- Node2 -->
<g id="node3" class="node">
<title>Node2</title>
<g id="a_node3"><a xlink:href="classmn_1_1pointer_1_1basic__unique__ptr_3_01T_0f_0e_00_01TAllocator_00_01TDeleter_01_4.html" target="_top" xlink:title="A simple unique_ptr, for a array object.">
<polygon fill="white" stroke="black" points="158,-0.5 158,-41.5 314,-41.5 314,-0.5 158,-0.5"/>
<text text-anchor="start" x="166" y="-29.5" font-family="Helvetica,sans-Serif" font-size="10.00">mn::pointer::basic</text>
<text text-anchor="start" x="166" y="-18.5" font-family="Helvetica,sans-Serif" font-size="10.00">_unique_ptr&lt; T[], TAllocator,</text>
<text text-anchor="middle" x="236" y="-7.5" font-family="Helvetica,sans-Serif" font-size="10.00"> TDeleter &gt;</text>
</a>
</g>
</g>
<!-- Node0&#45;&gt;Node2 -->
<g id="edge2" class="edge">
<title>Node0&#45;&gt;Node2</title>
<path fill="none" stroke="midnightblue" d="M131.88,-38.88C140.39,-37.41 149.11,-35.89 157.72,-34.4"/>
<polygon fill="midnightblue" stroke="midnightblue" points="131.28,-35.43 122.02,-40.59 132.47,-42.33 131.28,-35.43"/>
</g>
</g>
</svg>
