<?xml version="1.0" encoding="UTF-8" standalone="no"?>
<!DOCTYPE svg PUBLIC "-//W3C//DTD SVG 1.1//EN"
 "http://www.w3.org/Graphics/SVG/1.1/DTD/svg11.dtd">
<!-- Generated by graphviz version 2.47.3 (0)
 -->
<!-- Title: Graphical Class Hierarchy Pages: 1 -->
<svg width="568pt" height="72pt"
 viewBox="0.00 0.00 568.00 72.00" xmlns="http://www.w3.org/2000/svg" xmlns:xlink="http://www.w3.org/1999/xlink">
<g id="graph0" class="graph" transform="scale(1 1) rotate(0) translate(4 68)">
<title>Graphical Class Hierarchy</title>
<polygon fill="white" stroke="transparent" points="-4,4 -4,-68 564,-68 564,4 -4,4"/>
<!-- Node0 -->
<g id="node1" class="node">
<title>Node0</title>
<g id="a_node1"><a xlink:href="structmn_1_1container_1_1fixed__vector__storage.html" target="_top" xlink:title=" ">
<polygon fill="white" stroke="black" points="0,-11.5 0,-52.5 170,-52.5 170,-11.5 0,-11.5"/>
<text text-anchor="start" x="8" y="-40.5" font-family="Helvetica,sans-Serif" font-size="10.00">mn::container::fixed</text>
<text text-anchor="start" x="8" y="-29.5" font-family="Helvetica,sans-Serif" font-size="10.00">_vector_storage&lt; T, TAllocator,</text>
<text text-anchor="middle" x="85" y="-18.5" font-family="Helvetica,sans-Serif" font-size="10.00"> TCapacity &gt;</text>
</a>
</g>
</g>
<!-- Node1 -->
<g id="node2" class="node">
<title>Node1</title>
<g id="a_node2"><a xlink:href="classmn_1_1container_1_1basic__vector.html" target="_top" xlink:title=" ">
<polygon fill="white" stroke="black" points="206,-0.5 206,-63.5 369,-63.5 369,-0.5 206,-0.5"/>
<text text-anchor="start" x="214" y="-51.5" font-family="Helvetica,sans-Serif" font-size="10.00">mn::container::basic</text>
<text text-anchor="start" x="214" y="-40.5" font-family="Helvetica,sans-Serif" font-size="10.00">_vector&lt; T, memory::default</text>
<text text-anchor="start" x="214" y="-29.5" font-family="Helvetica,sans-Serif" font-size="10.00">_allocator, fixed_vector</text>
<text text-anchor="start" x="214" y="-18.5" font-family="Helvetica,sans-Serif" font-size="10.00">_storage&lt; T, memory::default</text>
<text text-anchor="middle" x="287.5" y="-7.5" font-family="Helvetica,sans-Serif" font-size="10.00">_allocator, TCapacity &gt; &gt;</text>
</a>
</g>
</g>
<!-- Node0&#45;&gt;Node1 -->
<g id="edge1" class="edge">
<title>Node0&#45;&gt;Node1</title>
<path fill="none" stroke="#8b1a1a" d="M180.16,-32C188.72,-32 197.34,-32 205.76,-32"/>
<polygon fill="#8b1a1a" stroke="#8b1a1a" points="180.16,-28.5 170.16,-32 180.16,-35.5 180.16,-28.5"/>
</g>
<!-- Node2 -->
<g id="node3" class="node">
<title>Node2</title>
<g id="a_node3"><a xlink:href="classmn_1_1container_1_1basic__fixed__vector.html" target="_top" xlink:title=" ">
<polygon fill="white" stroke="black" points="405,-11.5 405,-52.5 560,-52.5 560,-11.5 405,-11.5"/>
<text text-anchor="start" x="413" y="-40.5" font-family="Helvetica,sans-Serif" font-size="10.00">mn::container::basic</text>
<text text-anchor="start" x="413" y="-29.5" font-family="Helvetica,sans-Serif" font-size="10.00">_fixed_vector&lt; T, TCapacity,</text>
<text text-anchor="middle" x="482.5" y="-18.5" font-family="Helvetica,sans-Serif" font-size="10.00"> TAllocator &gt;</text>
</a>
</g>
</g>
<!-- Node1&#45;&gt;Node2 -->
<g id="edge2" class="edge">
<title>Node1&#45;&gt;Node2</title>
<path fill="none" stroke="midnightblue" d="M379.51,-32C387.97,-32 396.48,-32 404.8,-32"/>
<polygon fill="midnightblue" stroke="midnightblue" points="379.23,-28.5 369.23,-32 379.23,-35.5 379.23,-28.5"/>
</g>
</g>
</svg>
