<?xml version="1.0" encoding="UTF-8" standalone="no"?>
<!DOCTYPE svg PUBLIC "-//W3C//DTD SVG 1.1//EN"
 "http://www.w3.org/Graphics/SVG/1.1/DTD/svg11.dtd">
<!-- Generated by graphviz version 2.47.1 (0)
 -->
<!-- Title: Graphical Class Hierarchy Pages: 1 -->
<svg width="345pt" height="66pt"
 viewBox="0.00 0.00 345.00 66.00" xmlns="http://www.w3.org/2000/svg" xmlns:xlink="http://www.w3.org/1999/xlink">
<g id="graph0" class="graph" transform="scale(1 1) rotate(0) translate(4 62)">
<title>Graphical Class Hierarchy</title>
<polygon fill="white" stroke="transparent" points="-4,4 -4,-62 341,-62 341,4 -4,4"/>
<!-- Node0 -->
<g id="node1" class="node">
<title>Node0</title>
<g id="a_node1"><a xlink:href="classmn_1_1queue_1_1basic__queue.html" target="_top" xlink:title="Queue class wrapper for FreeRTOS queues.">
<polygon fill="white" stroke="black" points="0,-19.5 0,-38.5 135,-38.5 135,-19.5 0,-19.5"/>
<text text-anchor="middle" x="67.5" y="-26.5" font-family="Helvetica,sans-Serif" font-size="10.00">mn::queue::basic_queue</text>
</a>
</g>
</g>
<!-- Node1 -->
<g id="node2" class="node">
<title>Node1</title>
<g id="a_node2"><a xlink:href="classmn_1_1queue_1_1basic__binaryqueue.html" target="_top" xlink:title="Binary queue with overwrite. This queue can only hold one item. If sucessive Enqueue operations are c...">
<polygon fill="white" stroke="black" points="171,-38.5 171,-57.5 337,-57.5 337,-38.5 171,-38.5"/>
<text text-anchor="middle" x="254" y="-45.5" font-family="Helvetica,sans-Serif" font-size="10.00">mn::queue::basic_binaryqueue</text>
</a>
</g>
</g>
<!-- Node0&#45;&gt;Node1 -->
<g id="edge1" class="edge">
<title>Node0&#45;&gt;Node1</title>
<path fill="none" stroke="midnightblue" d="M145.26,-36.9C153.67,-37.77 162.26,-38.66 170.73,-39.53"/>
<polygon fill="midnightblue" stroke="midnightblue" points="145.41,-33.4 135.11,-35.86 144.7,-40.37 145.41,-33.4"/>
</g>
<!-- Node2 -->
<g id="node3" class="node">
<title>Node2</title>
<g id="a_node3"><a xlink:href="classmn_1_1queue_1_1basic__deque.html" target="_top" xlink:title=" ">
<polygon fill="white" stroke="black" points="186.5,-0.5 186.5,-19.5 321.5,-19.5 321.5,-0.5 186.5,-0.5"/>
<text text-anchor="middle" x="254" y="-7.5" font-family="Helvetica,sans-Serif" font-size="10.00">mn::queue::basic_deque</text>
</a>
</g>
</g>
<!-- Node0&#45;&gt;Node2 -->
<g id="edge2" class="edge">
<title>Node0&#45;&gt;Node2</title>
<path fill="none" stroke="midnightblue" d="M145.43,-21.08C159.07,-19.67 173.17,-18.22 186.49,-16.85"/>
<polygon fill="midnightblue" stroke="midnightblue" points="144.7,-17.63 135.11,-22.14 145.41,-24.6 144.7,-17.63"/>
</g>
</g>
</svg>
