<?xml version="1.0" encoding="UTF-8" standalone="no"?>
<!DOCTYPE svg PUBLIC "-//W3C//DTD SVG 1.1//EN"
 "http://www.w3.org/Graphics/SVG/1.1/DTD/svg11.dtd">
<!-- Generated by graphviz version 2.47.3 (0)
 -->
<!-- Title: Graphical Class Hierarchy Pages: 1 -->
<svg width="728pt" height="468pt"
 viewBox="0.00 0.00 728.00 468.00" xmlns="http://www.w3.org/2000/svg" xmlns:xlink="http://www.w3.org/1999/xlink">
<g id="graph0" class="graph" transform="scale(1 1) rotate(0) translate(4 464)">
<title>Graphical Class Hierarchy</title>
<polygon fill="white" stroke="transparent" points="-4,4 -4,-464 724,-464 724,4 -4,4"/>
<!-- Node441 -->
<g id="node1" class="node">
<title>Node441</title>
<g id="a_node1"><a xlink:title=" ">
<polygon fill="white" stroke="#bfbfbf" points="0,-98.5 0,-117.5 131,-117.5 131,-98.5 0,-98.5"/>
<text text-anchor="middle" x="65.5" y="-105.5" font-family="Helvetica,sans-Serif" font-size="10.00">MN_ONSIGLETN_CLASS</text>
</a>
</g>
</g>
<!-- Node0 -->
<g id="node2" class="node">
<title>Node0</title>
<g id="a_node2"><a xlink:href="classmn_1_1ILockObject.html" target="_top" xlink:title=" ">
<polygon fill="white" stroke="black" points="181,-336.5 181,-355.5 276,-355.5 276,-336.5 181,-336.5"/>
<text text-anchor="middle" x="228.5" y="-343.5" font-family="Helvetica,sans-Serif" font-size="10.00">mn::ILockObject</text>
</a>
</g>
</g>
<!-- Node441&#45;&gt;Node0 -->
<g id="edge1" class="edge">
<title>Node441&#45;&gt;Node0</title>
<path fill="none" stroke="#8b1a1a" d="M78.66,-125.98C110.67,-173.29 196.45,-300.1 220.91,-336.26"/>
<polygon fill="#8b1a1a" stroke="#8b1a1a" points="81.51,-123.95 73.01,-117.62 75.71,-127.87 81.51,-123.95"/>
</g>
<!-- Node456 -->
<g id="node16" class="node">
<title>Node456</title>
<g id="a_node16"><a xlink:href="classmn_1_1basic__autolock.html" target="_top" xlink:title=" ">
<polygon fill="white" stroke="black" points="173,-164 173,-194 284,-194 284,-164 173,-164"/>
<text text-anchor="start" x="181" y="-182" font-family="Helvetica,sans-Serif" font-size="10.00">mn::basic_autolock</text>
<text text-anchor="middle" x="228.5" y="-171" font-family="Helvetica,sans-Serif" font-size="10.00">&lt; LOCK &gt;</text>
</a>
</g>
</g>
<!-- Node441&#45;&gt;Node456 -->
<g id="edge15" class="edge">
<title>Node441&#45;&gt;Node456</title>
<path fill="none" stroke="#8b1a1a" d="M95.16,-121.96C115.16,-131.56 142.53,-144.44 167,-155 173.95,-158 181.41,-161.07 188.63,-163.98"/>
<polygon fill="#8b1a1a" stroke="#8b1a1a" points="96.51,-118.73 85.99,-117.54 93.47,-125.03 96.51,-118.73"/>
</g>
<!-- Node457 -->
<g id="node17" class="node">
<title>Node457</title>
<g id="a_node17"><a xlink:href="classmn_1_1basic__autounlock.html" target="_top" xlink:title=" ">
<polygon fill="white" stroke="black" points="167,-115 167,-145 290,-145 290,-115 167,-115"/>
<text text-anchor="start" x="175" y="-133" font-family="Helvetica,sans-Serif" font-size="10.00">mn::basic_autounlock</text>
<text text-anchor="middle" x="228.5" y="-122" font-family="Helvetica,sans-Serif" font-size="10.00">&lt; LOCK &gt;</text>
</a>
</g>
</g>
<!-- Node441&#45;&gt;Node457 -->
<g id="edge16" class="edge">
<title>Node441&#45;&gt;Node457</title>
<path fill="none" stroke="#8b1a1a" d="M141.11,-118.2C149.73,-119.37 158.44,-120.56 166.85,-121.71"/>
<polygon fill="#8b1a1a" stroke="#8b1a1a" points="141.44,-114.71 131.06,-116.82 140.49,-121.64 141.44,-114.71"/>
</g>
<!-- Node458 -->
<g id="node18" class="node">
<title>Node458</title>
<g id="a_node18"><a xlink:href="classmn_1_1basic__task.html" target="_top" xlink:title="Wrapper class around FreeRTOS&#39;s implementation of a task.">
<polygon fill="white" stroke="black" points="183.5,-76.5 183.5,-95.5 273.5,-95.5 273.5,-76.5 183.5,-76.5"/>
<text text-anchor="middle" x="228.5" y="-83.5" font-family="Helvetica,sans-Serif" font-size="10.00">mn::basic_task</text>
</a>
</g>
</g>
<!-- Node441&#45;&gt;Node458 -->
<g id="edge17" class="edge">
<title>Node441&#45;&gt;Node458</title>
<path fill="none" stroke="#8b1a1a" d="M140.99,-97.82C155.42,-95.85 170.12,-93.84 183.2,-92.05"/>
<polygon fill="#8b1a1a" stroke="#8b1a1a" points="140.49,-94.36 131.06,-99.18 141.44,-101.29 140.49,-94.36"/>
</g>
<!-- Node464 -->
<g id="node24" class="node">
<title>Node464</title>
<g id="a_node24"><a xlink:href="classmn_1_1basic__task__list.html" target="_top" xlink:title=" ">
<polygon fill="white" stroke="black" points="173.5,-38.5 173.5,-57.5 283.5,-57.5 283.5,-38.5 173.5,-38.5"/>
<text text-anchor="middle" x="228.5" y="-45.5" font-family="Helvetica,sans-Serif" font-size="10.00">mn::basic_task_list</text>
</a>
</g>
</g>
<!-- Node441&#45;&gt;Node464 -->
<g id="edge23" class="edge">
<title>Node441&#45;&gt;Node464</title>
<path fill="none" stroke="#8b1a1a" d="M98.04,-94.35C117.71,-86.03 143.64,-75.42 167,-67 176.11,-63.72 186.11,-60.44 195.31,-57.57"/>
<polygon fill="#8b1a1a" stroke="#8b1a1a" points="96.48,-91.21 88.65,-98.35 99.22,-97.65 96.48,-91.21"/>
</g>
<!-- Node465 -->
<g id="node25" class="node">
<title>Node465</title>
<g id="a_node25"><a xlink:href="classmn_1_1task__utils.html" target="_top" xlink:title=" ">
<polygon fill="white" stroke="black" points="185.5,-0.5 185.5,-19.5 271.5,-19.5 271.5,-0.5 185.5,-0.5"/>
<text text-anchor="middle" x="228.5" y="-7.5" font-family="Helvetica,sans-Serif" font-size="10.00">mn::task_utils</text>
</a>
</g>
</g>
<!-- Node441&#45;&gt;Node465 -->
<g id="edge24" class="edge">
<title>Node441&#45;&gt;Node465</title>
<path fill="none" stroke="#8b1a1a" d="M83.46,-91.46C102.42,-73.79 134.71,-46.03 167,-29 174.01,-25.3 181.86,-22.18 189.53,-19.61"/>
<polygon fill="#8b1a1a" stroke="#8b1a1a" points="81.04,-88.94 76.19,-98.36 85.86,-94.02 81.04,-88.94"/>
</g>
<!-- Node1 -->
<g id="node3" class="node">
<title>Node1</title>
<g id="a_node3"><a xlink:href="classmn_1_1atomic__spinlock.html" target="_top" xlink:title="This class implements a simple spinlack, whit atomic operations.">
<polygon fill="white" stroke="black" points="340,-412.5 340,-431.5 486,-431.5 486,-412.5 340,-412.5"/>
<text text-anchor="middle" x="413" y="-419.5" font-family="Helvetica,sans-Serif" font-size="10.00">mn::atomic_spinlock&lt; T &gt;</text>
</a>
</g>
</g>
<!-- Node0&#45;&gt;Node1 -->
<g id="edge2" class="edge">
<title>Node0&#45;&gt;Node1</title>
<path fill="none" stroke="midnightblue" d="M251,-361.4C269.91,-374.27 298.62,-392.21 326,-403 335.67,-406.81 346.28,-409.94 356.63,-412.48"/>
<polygon fill="midnightblue" stroke="midnightblue" points="252.76,-358.36 242.55,-355.54 248.77,-364.12 252.76,-358.36"/>
</g>
<!-- Node2 -->
<g id="node4" class="node">
<title>Node2</title>
<g id="a_node4"><a xlink:href="classmn_1_1basic__null__lock.html" target="_top" xlink:title="Null Lock is a lock object without any lock logic.">
<polygon fill="white" stroke="black" points="356.5,-374.5 356.5,-393.5 469.5,-393.5 469.5,-374.5 356.5,-374.5"/>
<text text-anchor="middle" x="413" y="-381.5" font-family="Helvetica,sans-Serif" font-size="10.00">mn::basic_null_lock</text>
</a>
</g>
</g>
<!-- Node0&#45;&gt;Node2 -->
<g id="edge3" class="edge">
<title>Node0&#45;&gt;Node2</title>
<path fill="none" stroke="midnightblue" d="M285.6,-357.68C311.48,-363.07 341.81,-369.39 366.28,-374.48"/>
<polygon fill="midnightblue" stroke="midnightblue" points="286.06,-354.2 275.55,-355.59 284.63,-361.05 286.06,-354.2"/>
</g>
<!-- Node3 -->
<g id="node5" class="node">
<title>Node3</title>
<g id="a_node5"><a xlink:href="classmn_1_1basic__semaphore.html" target="_top" xlink:title=" ">
<polygon fill="white" stroke="black" points="351,-336.5 351,-355.5 475,-355.5 475,-336.5 351,-336.5"/>
<text text-anchor="middle" x="413" y="-343.5" font-family="Helvetica,sans-Serif" font-size="10.00">mn::basic_semaphore</text>
</a>
</g>
</g>
<!-- Node0&#45;&gt;Node3 -->
<g id="edge4" class="edge">
<title>Node0&#45;&gt;Node3</title>
<path fill="none" stroke="midnightblue" d="M286.15,-346C306.64,-346 329.87,-346 350.74,-346"/>
<polygon fill="midnightblue" stroke="midnightblue" points="286.02,-342.5 276.02,-346 286.02,-349.5 286.02,-342.5"/>
</g>
<!-- Node8 -->
<g id="node10" class="node">
<title>Node8</title>
<g id="a_node10"><a xlink:href="classmn_1_1system_1_1ISystemLockObject.html" target="_top" xlink:title=" ">
<polygon fill="white" stroke="black" points="326,-198.5 326,-217.5 500,-217.5 500,-198.5 326,-198.5"/>
<text text-anchor="middle" x="413" y="-205.5" font-family="Helvetica,sans-Serif" font-size="10.00">mn::system::ISystemLockObject</text>
</a>
</g>
</g>
<!-- Node0&#45;&gt;Node8 -->
<g id="edge9" class="edge">
<title>Node0&#45;&gt;Node8</title>
<path fill="none" stroke="midnightblue" d="M250.7,-329.97C289,-301.01 368.6,-240.82 399.42,-217.51"/>
<polygon fill="midnightblue" stroke="midnightblue" points="248.2,-327.47 242.33,-336.3 252.42,-333.06 248.2,-327.47"/>
</g>
<!-- Node4 -->
<g id="node6" class="node">
<title>Node4</title>
<g id="a_node6"><a xlink:href="classmn_1_1basic__binary__semaphore.html" target="_top" xlink:title=" ">
<polygon fill="white" stroke="black" points="548,-440.5 548,-459.5 708,-459.5 708,-440.5 548,-440.5"/>
<text text-anchor="middle" x="628" y="-447.5" font-family="Helvetica,sans-Serif" font-size="10.00">mn::basic_binary_semaphore</text>
</a>
</g>
</g>
<!-- Node3&#45;&gt;Node4 -->
<g id="edge5" class="edge">
<title>Node3&#45;&gt;Node4</title>
<path fill="none" stroke="midnightblue" d="M484.59,-356.19C490.08,-358.57 495.3,-361.47 500,-365 526.71,-385.07 509.17,-411.08 536,-431 541.18,-434.85 546.97,-437.96 553.04,-440.47"/>
<polygon fill="midnightblue" stroke="midnightblue" points="485.74,-352.89 475.14,-352.67 483.29,-359.44 485.74,-352.89"/>
</g>
<!-- Node5 -->
<g id="node7" class="node">
<title>Node5</title>
<g id="a_node7"><a xlink:href="classmn_1_1basic__clock.html" target="_top" xlink:title=" ">
<polygon fill="white" stroke="black" points="544,-402.5 544,-421.5 712,-421.5 712,-402.5 544,-402.5"/>
<text text-anchor="middle" x="628" y="-409.5" font-family="Helvetica,sans-Serif" font-size="10.00">mn::basic_clock&lt; TLockType &gt;</text>
</a>
</g>
</g>
<!-- Node3&#45;&gt;Node5 -->
<g id="edge6" class="edge">
<title>Node3&#45;&gt;Node5</title>
<path fill="none" stroke="midnightblue" d="M483.53,-358.52C489.21,-360.4 494.77,-362.54 500,-365 518.35,-373.62 517.6,-384.49 536,-393 544.35,-396.86 553.49,-399.95 562.66,-402.41"/>
<polygon fill="midnightblue" stroke="midnightblue" points="484.48,-355.15 473.9,-355.62 482.46,-361.86 484.48,-355.15"/>
</g>
<!-- Node6 -->
<g id="node8" class="node">
<title>Node6</title>
<g id="a_node8"><a xlink:href="classmn_1_1basic__counting__semaphore.html" target="_top" xlink:title=" ">
<polygon fill="white" stroke="black" points="572.5,-353 572.5,-383 683.5,-383 683.5,-353 572.5,-353"/>
<text text-anchor="start" x="580.5" y="-371" font-family="Helvetica,sans-Serif" font-size="10.00">mn::basic_counting</text>
<text text-anchor="middle" x="628" y="-360" font-family="Helvetica,sans-Serif" font-size="10.00">_semaphore</text>
</a>
</g>
</g>
<!-- Node3&#45;&gt;Node6 -->
<g id="edge7" class="edge">
<title>Node3&#45;&gt;Node6</title>
<path fill="none" stroke="midnightblue" d="M485.33,-353.37C513.77,-356.3 545.98,-359.63 572.49,-362.37"/>
<polygon fill="midnightblue" stroke="midnightblue" points="485.34,-349.85 475.04,-352.3 484.62,-356.81 485.34,-349.85"/>
</g>
<!-- Node7 -->
<g id="node9" class="node">
<title>Node7</title>
<g id="a_node9"><a xlink:href="classmn_1_1basic__mutex.html" target="_top" xlink:title=" ">
<polygon fill="white" stroke="black" points="577.5,-314.5 577.5,-333.5 678.5,-333.5 678.5,-314.5 577.5,-314.5"/>
<text text-anchor="middle" x="628" y="-321.5" font-family="Helvetica,sans-Serif" font-size="10.00">mn::basic_mutex</text>
</a>
</g>
</g>
<!-- Node3&#45;&gt;Node7 -->
<g id="edge8" class="edge">
<title>Node3&#45;&gt;Node7</title>
<path fill="none" stroke="midnightblue" d="M485.12,-338.65C515.4,-335.53 549.98,-331.95 577.42,-329.12"/>
<polygon fill="midnightblue" stroke="midnightblue" points="484.62,-335.19 475.04,-339.7 485.34,-342.15 484.62,-335.19"/>
</g>
<!-- Node9 -->
<g id="node11" class="node">
<title>Node9</title>
<g id="a_node11"><a xlink:href="classmn_1_1system_1_1basic__critical__section.html" target="_top" xlink:title=" ">
<polygon fill="white" stroke="black" points="556,-265 556,-295 700,-295 700,-265 556,-265"/>
<text text-anchor="start" x="564" y="-283" font-family="Helvetica,sans-Serif" font-size="10.00">mn::system::basic_critical</text>
<text text-anchor="middle" x="628" y="-272" font-family="Helvetica,sans-Serif" font-size="10.00">_section</text>
</a>
</g>
</g>
<!-- Node8&#45;&gt;Node9 -->
<g id="edge10" class="edge">
<title>Node8&#45;&gt;Node9</title>
<path fill="none" stroke="midnightblue" d="M445.66,-221.64C470.08,-231.86 504.82,-245.79 536,-256 545.63,-259.15 555.93,-262.18 566.01,-264.97"/>
<polygon fill="midnightblue" stroke="midnightblue" points="446.77,-218.31 436.2,-217.64 444.05,-224.76 446.77,-218.31"/>
</g>
<!-- Node10 -->
<g id="node12" class="node">
<title>Node10</title>
<g id="a_node12"><a xlink:href="classmn_1_1system_1_1basic__critical__section__nested.html" target="_top" xlink:title=" ">
<polygon fill="white" stroke="black" points="556,-216 556,-246 700,-246 700,-216 556,-216"/>
<text text-anchor="start" x="564" y="-234" font-family="Helvetica,sans-Serif" font-size="10.00">mn::system::basic_critical</text>
<text text-anchor="middle" x="628" y="-223" font-family="Helvetica,sans-Serif" font-size="10.00">_section_nested</text>
</a>
</g>
</g>
<!-- Node8&#45;&gt;Node10 -->
<g id="edge11" class="edge">
<title>Node8&#45;&gt;Node10</title>
<path fill="none" stroke="midnightblue" d="M510.05,-218.37C525.39,-220.03 541.03,-221.72 555.67,-223.3"/>
<polygon fill="midnightblue" stroke="midnightblue" points="510.34,-214.88 500.02,-217.29 509.59,-221.84 510.34,-214.88"/>
</g>
<!-- Node11 -->
<g id="node13" class="node">
<title>Node11</title>
<g id="a_node13"><a xlink:href="classmn_1_1system_1_1basic__critical__section__timedout.html" target="_top" xlink:title=" ">
<polygon fill="white" stroke="black" points="556,-167 556,-197 700,-197 700,-167 556,-167"/>
<text text-anchor="start" x="564" y="-185" font-family="Helvetica,sans-Serif" font-size="10.00">mn::system::basic_critical</text>
<text text-anchor="middle" x="628" y="-174" font-family="Helvetica,sans-Serif" font-size="10.00">_section_timedout</text>
</a>
</g>
</g>
<!-- Node8&#45;&gt;Node11 -->
<g id="edge12" class="edge">
<title>Node8&#45;&gt;Node11</title>
<path fill="none" stroke="midnightblue" d="M502.5,-197.2C520.32,-195.02 538.83,-192.76 555.96,-190.67"/>
<polygon fill="midnightblue" stroke="midnightblue" points="501.61,-193.78 492.1,-198.47 502.45,-200.73 501.61,-193.78"/>
</g>
<!-- Node12 -->
<g id="node14" class="node">
<title>Node12</title>
<g id="a_node14"><a xlink:href="classmn_1_1system_1_1basic__interrupts__lock.html" target="_top" xlink:title=" ">
<polygon fill="white" stroke="black" points="536,-128.5 536,-147.5 720,-147.5 720,-128.5 536,-128.5"/>
<text text-anchor="middle" x="628" y="-135.5" font-family="Helvetica,sans-Serif" font-size="10.00">mn::system::basic_interrupts_lock</text>
</a>
</g>
</g>
<!-- Node8&#45;&gt;Node12 -->
<g id="edge13" class="edge">
<title>Node8&#45;&gt;Node12</title>
<path fill="none" stroke="midnightblue" d="M443.72,-194.13C468.1,-183.16 503.74,-168.07 536,-158 548.82,-154 562.89,-150.49 576.05,-147.57"/>
<polygon fill="midnightblue" stroke="midnightblue" points="441.98,-191.07 434.32,-198.4 444.88,-197.45 441.98,-191.07"/>
</g>
<!-- Node13 -->
<g id="node15" class="node">
<title>Node13</title>
<g id="a_node15"><a xlink:href="classmn_1_1system_1_1basic__schedular__lock.html" target="_top" xlink:title=" ">
<polygon fill="white" stroke="black" points="536,-90.5 536,-109.5 720,-109.5 720,-90.5 536,-90.5"/>
<text text-anchor="middle" x="628" y="-97.5" font-family="Helvetica,sans-Serif" font-size="10.00">mn::system::basic_schedular_lock</text>
</a>
</g>
</g>
<!-- Node8&#45;&gt;Node13 -->
<g id="edge14" class="edge">
<title>Node8&#45;&gt;Node13</title>
<path fill="none" stroke="midnightblue" d="M435.05,-191.89C466.95,-167.6 524.99,-123.89 536,-119 544.7,-115.13 554.23,-112.04 563.73,-109.57"/>
<polygon fill="midnightblue" stroke="midnightblue" points="432.63,-189.33 426.81,-198.18 436.88,-194.9 432.63,-189.33"/>
</g>
<!-- Node459 -->
<g id="node19" class="node">
<title>Node459</title>
<g id="a_node19"><a xlink:href="classmn_1_1basic__thread.html" target="_top" xlink:title=" ">
<polygon fill="white" stroke="black" points="362.5,-114.5 362.5,-133.5 463.5,-133.5 463.5,-114.5 362.5,-114.5"/>
<text text-anchor="middle" x="413" y="-121.5" font-family="Helvetica,sans-Serif" font-size="10.00">mn::basic_thread</text>
</a>
</g>
</g>
<!-- Node458&#45;&gt;Node459 -->
<g id="edge18" class="edge">
<title>Node458&#45;&gt;Node459</title>
<path fill="none" stroke="midnightblue" d="M283.51,-97.25C309.85,-102.73 341.19,-109.26 366.32,-114.49"/>
<polygon fill="midnightblue" stroke="midnightblue" points="284.18,-93.81 273.68,-95.2 282.75,-100.66 284.18,-93.81"/>
</g>
<!-- Node460 -->
<g id="node20" class="node">
<title>Node460</title>
<g id="a_node20"><a xlink:href="classmn_1_1ext_1_1basic__convar__task.html" target="_top" xlink:title=" ">
<polygon fill="white" stroke="black" points="338,-76.5 338,-95.5 488,-95.5 488,-76.5 338,-76.5"/>
<text text-anchor="middle" x="413" y="-83.5" font-family="Helvetica,sans-Serif" font-size="10.00">mn::ext::basic_convar_task</text>
</a>
</g>
</g>
<!-- Node458&#45;&gt;Node460 -->
<g id="edge19" class="edge">
<title>Node458&#45;&gt;Node460</title>
<path fill="none" stroke="midnightblue" d="M283.95,-86C300.91,-86 319.91,-86 337.97,-86"/>
<polygon fill="midnightblue" stroke="midnightblue" points="283.68,-82.5 273.68,-86 283.68,-89.5 283.68,-82.5"/>
</g>
<!-- Node462 -->
<g id="node22" class="node">
<title>Node462</title>
<g id="a_node22"><a xlink:href="classmn_1_1ext_1_1foreign__task.html" target="_top" xlink:title=" ">
<polygon fill="white" stroke="black" points="352.5,-38.5 352.5,-57.5 473.5,-57.5 473.5,-38.5 352.5,-38.5"/>
<text text-anchor="middle" x="413" y="-45.5" font-family="Helvetica,sans-Serif" font-size="10.00">mn::ext::foreign_task</text>
</a>
</g>
</g>
<!-- Node458&#45;&gt;Node462 -->
<g id="edge21" class="edge">
<title>Node458&#45;&gt;Node462</title>
<path fill="none" stroke="midnightblue" d="M283.51,-74.75C309.85,-69.27 341.19,-62.74 366.32,-57.51"/>
<polygon fill="midnightblue" stroke="midnightblue" points="282.75,-71.34 273.68,-76.8 284.18,-78.19 282.75,-71.34"/>
</g>
<!-- Node463 -->
<g id="node23" class="node">
<title>Node463</title>
<g id="a_node23"><a xlink:href="classmn_1_1queue_1_1work__queue__task.html" target="_top" xlink:title=" ">
<polygon fill="white" stroke="black" points="333,-0.5 333,-19.5 493,-19.5 493,-0.5 333,-0.5"/>
<text text-anchor="middle" x="413" y="-7.5" font-family="Helvetica,sans-Serif" font-size="10.00">mn::queue::work_queue_task</text>
</a>
</g>
</g>
<!-- Node458&#45;&gt;Node463 -->
<g id="edge22" class="edge">
<title>Node458&#45;&gt;Node463</title>
<path fill="none" stroke="midnightblue" d="M279.27,-72.69C283.01,-70.99 286.63,-69.11 290,-67 309.73,-54.67 305.75,-40.46 326,-29 332.92,-25.08 340.58,-21.98 348.39,-19.51"/>
<polygon fill="midnightblue" stroke="midnightblue" points="277.79,-69.51 269.83,-76.5 280.41,-76 277.79,-69.51"/>
</g>
<!-- Node461 -->
<g id="node21" class="node">
<title>Node461</title>
<g id="a_node21"><a xlink:href="classmn_1_1ext_1_1basic__message__task.html" target="_top" xlink:title="Extends the basic_convar_task with a message queue support.">
<polygon fill="white" stroke="black" points="547.5,-52.5 547.5,-71.5 708.5,-71.5 708.5,-52.5 547.5,-52.5"/>
<text text-anchor="middle" x="628" y="-59.5" font-family="Helvetica,sans-Serif" font-size="10.00">mn::ext::basic_message_task</text>
</a>
</g>
</g>
<!-- Node460&#45;&gt;Node461 -->
<g id="edge20" class="edge">
<title>Node460&#45;&gt;Node461</title>
<path fill="none" stroke="midnightblue" d="M498.16,-76.52C514.34,-74.69 531.23,-72.79 547.26,-70.98"/>
<polygon fill="midnightblue" stroke="midnightblue" points="497.74,-73.04 488.2,-77.64 498.53,-80 497.74,-73.04"/>
</g>
</g>
</svg>
