<?xml version="1.0" encoding="UTF-8" standalone="no"?>
<!DOCTYPE svg PUBLIC "-//W3C//DTD SVG 1.1//EN"
 "http://www.w3.org/Graphics/SVG/1.1/DTD/svg11.dtd">
<!-- Generated by graphviz version 2.47.1 (0)
 -->
<!-- Title: Graphical Class Hierarchy Pages: 1 -->
<svg width="879pt" height="363pt"
 viewBox="0.00 0.00 879.00 363.00" xmlns="http://www.w3.org/2000/svg" xmlns:xlink="http://www.w3.org/1999/xlink">
<g id="graph0" class="graph" transform="scale(1 1) rotate(0) translate(4 359)">
<title>Graphical Class Hierarchy</title>
<polygon fill="white" stroke="transparent" points="-4,4 -4,-359 875,-359 875,4 -4,4"/>
<!-- Node0 -->
<g id="node1" class="node">
<title>Node0</title>
<g id="a_node1"><a xlink:href="structmn_1_1tag.html" target="_top" xlink:title=" ">
<polygon fill="white" stroke="black" points="0,-160 0,-179 83,-179 83,-160 0,-160"/>
<text text-anchor="middle" x="41.5" y="-167" font-family="Helvetica,sans-Serif" font-size="10.00">mn::tag&lt; T &gt;</text>
</a>
</g>
</g>
<!-- Node1 -->
<g id="node2" class="node">
<title>Node1</title>
<g id="a_node2"><a xlink:href="structmn_1_1remove__const.html" target="_top" xlink:title=" ">
<polygon fill="white" stroke="black" points="119,-302.5 119,-332.5 286,-332.5 286,-302.5 119,-302.5"/>
<text text-anchor="start" x="127" y="-320.5" font-family="Helvetica,sans-Serif" font-size="10.00">mn::remove_const&lt; type</text>
<text text-anchor="middle" x="202.5" y="-309.5" font-family="Helvetica,sans-Serif" font-size="10.00">_t&lt; remove_volatile&lt; T &gt; &gt; &gt;</text>
</a>
</g>
</g>
<!-- Node0&#45;&gt;Node1 -->
<g id="edge1" class="edge">
<title>Node0&#45;&gt;Node1</title>
<path fill="none" stroke="midnightblue" d="M49.37,-188.66C60.06,-215.77 83.24,-265.07 119,-292.5 123.99,-296.33 129.56,-299.57 135.39,-302.32"/>
<polygon fill="midnightblue" stroke="midnightblue" points="52.58,-187.26 45.77,-179.14 46.03,-189.73 52.58,-187.26"/>
</g>
<!-- Node7 -->
<g id="node8" class="node">
<title>Node7</title>
<g id="a_node8"><a xlink:href="structmn_1_1enable__if_3_01true_00_01T_01_4.html" target="_top" xlink:title=" ">
<polygon fill="white" stroke="black" points="134,-264 134,-283 271,-283 271,-264 134,-264"/>
<text text-anchor="middle" x="202.5" y="-271" font-family="Helvetica,sans-Serif" font-size="10.00">mn::enable_if&lt; true, T &gt;</text>
</a>
</g>
</g>
<!-- Node0&#45;&gt;Node7 -->
<g id="edge7" class="edge">
<title>Node0&#45;&gt;Node7</title>
<path fill="none" stroke="midnightblue" d="M53.93,-187.78C67.15,-207.37 90.77,-237.88 119,-254.5 125.59,-258.38 132.9,-261.46 140.38,-263.92"/>
<polygon fill="midnightblue" stroke="midnightblue" points="56.69,-185.62 48.29,-179.15 50.83,-189.44 56.69,-185.62"/>
</g>
<!-- Node8 -->
<g id="node9" class="node">
<title>Node8</title>
<g id="a_node9"><a xlink:href="structmn_1_1remove__const.html" target="_top" xlink:title=" ">
<polygon fill="white" stroke="black" points="134.5,-226 134.5,-245 270.5,-245 270.5,-226 134.5,-226"/>
<text text-anchor="middle" x="202.5" y="-233" font-family="Helvetica,sans-Serif" font-size="10.00">mn::remove_const&lt; T &gt;</text>
</a>
</g>
</g>
<!-- Node0&#45;&gt;Node8 -->
<g id="edge8" class="edge">
<title>Node0&#45;&gt;Node8</title>
<path fill="none" stroke="midnightblue" d="M64.11,-184.93C78.94,-194.89 99.41,-207.46 119,-215.5 129.22,-219.7 140.54,-223.15 151.43,-225.94"/>
<polygon fill="midnightblue" stroke="midnightblue" points="65.88,-181.9 55.66,-179.12 61.92,-187.67 65.88,-181.9"/>
</g>
<!-- Node9 -->
<g id="node10" class="node">
<title>Node9</title>
<g id="a_node10"><a xlink:href="structmn_1_1remove__const_3_01T_01const_01_4.html" target="_top" xlink:title=" ">
<polygon fill="white" stroke="black" points="140,-176.5 140,-206.5 265,-206.5 265,-176.5 140,-176.5"/>
<text text-anchor="start" x="148" y="-194.5" font-family="Helvetica,sans-Serif" font-size="10.00">mn::remove_const&lt; T</text>
<text text-anchor="middle" x="202.5" y="-183.5" font-family="Helvetica,sans-Serif" font-size="10.00"> const &gt;</text>
</a>
</g>
</g>
<!-- Node0&#45;&gt;Node9 -->
<g id="edge9" class="edge">
<title>Node0&#45;&gt;Node9</title>
<path fill="none" stroke="midnightblue" d="M93.02,-176.49C107.85,-178.54 124.25,-180.81 139.7,-182.95"/>
<polygon fill="midnightblue" stroke="midnightblue" points="93.42,-173.01 83.03,-175.11 92.46,-179.95 93.42,-173.01"/>
</g>
<!-- Node10 -->
<g id="node11" class="node">
<title>Node10</title>
<g id="a_node11"><a xlink:href="structmn_1_1remove__reference.html" target="_top" xlink:title=" ">
<polygon fill="white" stroke="black" points="124.5,-138 124.5,-157 280.5,-157 280.5,-138 124.5,-138"/>
<text text-anchor="middle" x="202.5" y="-145" font-family="Helvetica,sans-Serif" font-size="10.00">mn::remove_reference&lt; T &gt;</text>
</a>
</g>
</g>
<!-- Node0&#45;&gt;Node10 -->
<g id="edge10" class="edge">
<title>Node0&#45;&gt;Node10</title>
<path fill="none" stroke="midnightblue" d="M93.26,-162.48C105.78,-160.74 119.4,-158.86 132.62,-157.03"/>
<polygon fill="midnightblue" stroke="midnightblue" points="92.46,-159.05 83.03,-163.89 93.42,-165.99 92.46,-159.05"/>
</g>
<!-- Node11 -->
<g id="node12" class="node">
<title>Node11</title>
<g id="a_node12"><a xlink:href="structmn_1_1remove__reference_3_01T_01_6_01_4.html" target="_top" xlink:title=" ">
<polygon fill="white" stroke="black" points="138.5,-88.5 138.5,-118.5 266.5,-118.5 266.5,-88.5 138.5,-88.5"/>
<text text-anchor="start" x="146.5" y="-106.5" font-family="Helvetica,sans-Serif" font-size="10.00">mn::remove_reference</text>
<text text-anchor="middle" x="202.5" y="-95.5" font-family="Helvetica,sans-Serif" font-size="10.00">&lt; T &amp; &gt;</text>
</a>
</g>
</g>
<!-- Node0&#45;&gt;Node11 -->
<g id="edge11" class="edge">
<title>Node0&#45;&gt;Node11</title>
<path fill="none" stroke="midnightblue" d="M67.12,-154.7C81.82,-146.26 101.07,-135.93 119,-128.5 127.71,-124.89 137.13,-121.54 146.38,-118.54"/>
<polygon fill="midnightblue" stroke="midnightblue" points="65.05,-151.85 58.17,-159.91 68.57,-157.9 65.05,-151.85"/>
</g>
<!-- Node12 -->
<g id="node13" class="node">
<title>Node12</title>
<g id="a_node13"><a xlink:href="structmn_1_1remove__volatile.html" target="_top" xlink:title=" ">
<polygon fill="white" stroke="black" points="129.5,-50 129.5,-69 275.5,-69 275.5,-50 129.5,-50"/>
<text text-anchor="middle" x="202.5" y="-57" font-family="Helvetica,sans-Serif" font-size="10.00">mn::remove_volatile&lt; T &gt;</text>
</a>
</g>
</g>
<!-- Node0&#45;&gt;Node12 -->
<g id="edge12" class="edge">
<title>Node0&#45;&gt;Node12</title>
<path fill="none" stroke="midnightblue" d="M52.87,-151.14C65.65,-130.22 89.38,-96.62 119,-78.5 125.39,-74.59 132.51,-71.48 139.82,-69.01"/>
<polygon fill="midnightblue" stroke="midnightblue" points="49.85,-149.36 47.78,-159.75 55.88,-152.92 49.85,-149.36"/>
</g>
<!-- Node13 -->
<g id="node14" class="node">
<title>Node13</title>
<g id="a_node14"><a xlink:href="structmn_1_1remove__volatile_3_01T_01volatile_01_4.html" target="_top" xlink:title=" ">
<polygon fill="white" stroke="black" points="143.5,-0.5 143.5,-30.5 261.5,-30.5 261.5,-0.5 143.5,-0.5"/>
<text text-anchor="start" x="151.5" y="-18.5" font-family="Helvetica,sans-Serif" font-size="10.00">mn::remove_volatile</text>
<text text-anchor="middle" x="202.5" y="-7.5" font-family="Helvetica,sans-Serif" font-size="10.00">&lt; T volatile &gt;</text>
</a>
</g>
</g>
<!-- Node0&#45;&gt;Node13 -->
<g id="edge13" class="edge">
<title>Node0&#45;&gt;Node13</title>
<path fill="none" stroke="midnightblue" d="M48.82,-150.21C59.05,-121.96 81.93,-69.56 119,-40.5 126.18,-34.87 134.63,-30.5 143.33,-27.11"/>
<polygon fill="midnightblue" stroke="midnightblue" points="45.48,-149.16 45.51,-159.75 52.09,-151.45 45.48,-149.16"/>
</g>
<!-- Node2 -->
<g id="node3" class="node">
<title>Node2</title>
<g id="a_node3"><a xlink:href="structmn_1_1remove__cv.html" target="_top" xlink:title=" ">
<polygon fill="white" stroke="black" points="322,-308 322,-327 443,-327 443,-308 322,-308"/>
<text text-anchor="middle" x="382.5" y="-315" font-family="Helvetica,sans-Serif" font-size="10.00">mn::remove_cv&lt; T &gt;</text>
</a>
</g>
</g>
<!-- Node1&#45;&gt;Node2 -->
<g id="edge2" class="edge">
<title>Node1&#45;&gt;Node2</title>
<path fill="none" stroke="midnightblue" d="M296.37,-317.5C305,-317.5 313.58,-317.5 321.78,-317.5"/>
<polygon fill="midnightblue" stroke="midnightblue" points="296.25,-314 286.25,-317.5 296.25,-321 296.25,-314"/>
</g>
<!-- Node3 -->
<g id="node4" class="node">
<title>Node3</title>
<g id="a_node4"><a xlink:href="structmn_1_1decay3.html" target="_top" xlink:title=" ">
<polygon fill="white" stroke="black" points="479,-308 479,-327 581,-327 581,-308 479,-308"/>
<text text-anchor="middle" x="530" y="-315" font-family="Helvetica,sans-Serif" font-size="10.00">mn::decay3&lt; T &gt;</text>
</a>
</g>
</g>
<!-- Node2&#45;&gt;Node3 -->
<g id="edge3" class="edge">
<title>Node2&#45;&gt;Node3</title>
<path fill="none" stroke="midnightblue" d="M453.12,-317.5C461.7,-317.5 470.34,-317.5 478.55,-317.5"/>
<polygon fill="midnightblue" stroke="midnightblue" points="453.1,-314 443.1,-317.5 453.1,-321 453.1,-314"/>
</g>
<!-- Node4 -->
<g id="node5" class="node">
<title>Node4</title>
<g id="a_node5"><a xlink:href="structmn_1_1decay2.html" target="_top" xlink:title=" ">
<polygon fill="white" stroke="black" points="617,-324.5 617,-354.5 739,-354.5 739,-324.5 617,-324.5"/>
<text text-anchor="start" x="625" y="-342.5" font-family="Helvetica,sans-Serif" font-size="10.00">mn::decay2&lt; remove</text>
<text text-anchor="middle" x="678" y="-331.5" font-family="Helvetica,sans-Serif" font-size="10.00">_reference_t&lt; T &gt; &gt;</text>
</a>
</g>
</g>
<!-- Node3&#45;&gt;Node4 -->
<g id="edge4" class="edge">
<title>Node3&#45;&gt;Node4</title>
<path fill="none" stroke="midnightblue" d="M591.36,-326.6C599.78,-327.86 608.43,-329.17 616.84,-330.43"/>
<polygon fill="midnightblue" stroke="midnightblue" points="591.65,-323.1 581.24,-325.07 590.61,-330.02 591.65,-323.1"/>
</g>
<!-- Node6 -->
<g id="node7" class="node">
<title>Node6</title>
<g id="a_node7"><a xlink:href="structmn_1_1decay2.html" target="_top" xlink:title=" ">
<polygon fill="white" stroke="black" points="627,-286 627,-305 729,-305 729,-286 627,-286"/>
<text text-anchor="middle" x="678" y="-293" font-family="Helvetica,sans-Serif" font-size="10.00">mn::decay2&lt; T &gt;</text>
</a>
</g>
</g>
<!-- Node3&#45;&gt;Node6 -->
<g id="edge6" class="edge">
<title>Node3&#45;&gt;Node6</title>
<path fill="none" stroke="midnightblue" d="M591.4,-308.4C603.13,-306.63 615.3,-304.8 626.66,-303.09"/>
<polygon fill="midnightblue" stroke="midnightblue" points="590.61,-304.98 581.24,-309.93 591.65,-311.9 590.61,-304.98"/>
</g>
<!-- Node5 -->
<g id="node6" class="node">
<title>Node5</title>
<g id="a_node6"><a xlink:href="structmn_1_1decay.html" target="_top" xlink:title=" ">
<polygon fill="white" stroke="black" points="775,-330 775,-349 871,-349 871,-330 775,-330"/>
<text text-anchor="middle" x="823" y="-337" font-family="Helvetica,sans-Serif" font-size="10.00">mn::decay&lt; T &gt;</text>
</a>
</g>
</g>
<!-- Node4&#45;&gt;Node5 -->
<g id="edge5" class="edge">
<title>Node4&#45;&gt;Node5</title>
<path fill="none" stroke="midnightblue" d="M749.35,-339.5C758,-339.5 766.68,-339.5 774.87,-339.5"/>
<polygon fill="midnightblue" stroke="midnightblue" points="749.23,-336 739.23,-339.5 749.23,-343 749.23,-336"/>
</g>
</g>
</svg>
