<?xml version="1.0" encoding="UTF-8" standalone="no"?>
<!DOCTYPE svg PUBLIC "-//W3C//DTD SVG 1.1//EN"
 "http://www.w3.org/Graphics/SVG/1.1/DTD/svg11.dtd">
<!-- Generated by graphviz version 2.47.1 (0)
 -->
<!-- Title: Graphical Class Hierarchy Pages: 1 -->
<svg width="716pt" height="469pt"
 viewBox="0.00 0.00 716.00 469.00" xmlns="http://www.w3.org/2000/svg" xmlns:xlink="http://www.w3.org/1999/xlink">
<g id="graph0" class="graph" transform="scale(1 1) rotate(0) translate(4 465)">
<title>Graphical Class Hierarchy</title>
<polygon fill="white" stroke="transparent" points="-4,4 -4,-465 712,-465 712,4 -4,4"/>
<!-- Node237 -->
<g id="node1" class="node">
<title>Node237</title>
<g id="a_node1"><a xlink:title=" ">
<polygon fill="white" stroke="#bfbfbf" points="0,-76.5 0,-95.5 131,-95.5 131,-76.5 0,-76.5"/>
<text text-anchor="middle" x="65.5" y="-83.5" font-family="Helvetica,sans-Serif" font-size="10.00">MN_ONSIGLETN_CLASS</text>
</a>
</g>
</g>
<!-- Node0 -->
<g id="node2" class="node">
<title>Node0</title>
<g id="a_node2"><a xlink:href="classmn_1_1ILockObject.html" target="_top" xlink:title=" ">
<polygon fill="white" stroke="black" points="175,-337.5 175,-356.5 270,-356.5 270,-337.5 175,-337.5"/>
<text text-anchor="middle" x="222.5" y="-344.5" font-family="Helvetica,sans-Serif" font-size="10.00">mn::ILockObject</text>
</a>
</g>
</g>
<!-- Node237&#45;&gt;Node0 -->
<g id="edge1" class="edge">
<title>Node237&#45;&gt;Node0</title>
<path fill="none" stroke="#8b1a1a" d="M77.36,-104.29C107.73,-155.43 192.82,-298.71 215.75,-337.31"/>
<polygon fill="#8b1a1a" stroke="#8b1a1a" points="80.32,-102.41 72.2,-95.6 74.3,-105.98 80.32,-102.41"/>
</g>
<!-- Node252 -->
<g id="node16" class="node">
<title>Node252</title>
<g id="a_node16"><a xlink:href="classmn_1_1basic__autolock.html" target="_top" xlink:title=" ">
<polygon fill="white" stroke="black" points="167,-115 167,-145 278,-145 278,-115 167,-115"/>
<text text-anchor="start" x="175" y="-133" font-family="Helvetica,sans-Serif" font-size="10.00">mn::basic_autolock</text>
<text text-anchor="middle" x="222.5" y="-122" font-family="Helvetica,sans-Serif" font-size="10.00">&lt; LOCK &gt;</text>
</a>
</g>
</g>
<!-- Node237&#45;&gt;Node252 -->
<g id="edge15" class="edge">
<title>Node237&#45;&gt;Node252</title>
<path fill="none" stroke="#8b1a1a" d="M109.87,-98.31C128.04,-103.47 149.34,-109.51 168.43,-114.93"/>
<polygon fill="#8b1a1a" stroke="#8b1a1a" points="110.71,-94.91 100.13,-95.55 108.8,-101.65 110.71,-94.91"/>
</g>
<!-- Node253 -->
<g id="node17" class="node">
<title>Node253</title>
<g id="a_node17"><a xlink:href="classmn_1_1basic__task.html" target="_top" xlink:title="Wrapper class around FreeRTOS&#39;s implementation of a task.">
<polygon fill="white" stroke="black" points="177.5,-76.5 177.5,-95.5 267.5,-95.5 267.5,-76.5 177.5,-76.5"/>
<text text-anchor="middle" x="222.5" y="-83.5" font-family="Helvetica,sans-Serif" font-size="10.00">mn::basic_task</text>
</a>
</g>
</g>
<!-- Node237&#45;&gt;Node253 -->
<g id="edge16" class="edge">
<title>Node237&#45;&gt;Node253</title>
<path fill="none" stroke="#8b1a1a" d="M141.53,-86C153.73,-86 166.01,-86 177.15,-86"/>
<polygon fill="#8b1a1a" stroke="#8b1a1a" points="141.34,-82.5 131.34,-86 141.34,-89.5 141.34,-82.5"/>
</g>
<!-- Node258 -->
<g id="node22" class="node">
<title>Node258</title>
<g id="a_node22"><a xlink:href="classmn_1_1basic__task__list.html" target="_top" xlink:title=" ">
<polygon fill="white" stroke="black" points="167.5,-38.5 167.5,-57.5 277.5,-57.5 277.5,-38.5 167.5,-38.5"/>
<text text-anchor="middle" x="222.5" y="-45.5" font-family="Helvetica,sans-Serif" font-size="10.00">mn::basic_task_list</text>
</a>
</g>
</g>
<!-- Node237&#45;&gt;Node258 -->
<g id="edge21" class="edge">
<title>Node237&#45;&gt;Node258</title>
<path fill="none" stroke="#8b1a1a" d="M115.61,-73.96C137.26,-68.65 162.35,-62.5 182.67,-57.52"/>
<polygon fill="#8b1a1a" stroke="#8b1a1a" points="114.49,-70.63 105.61,-76.41 116.16,-77.43 114.49,-70.63"/>
</g>
<!-- Node259 -->
<g id="node23" class="node">
<title>Node259</title>
<g id="a_node23"><a xlink:href="classmn_1_1task__utils.html" target="_top" xlink:title=" ">
<polygon fill="white" stroke="black" points="179.5,-0.5 179.5,-19.5 265.5,-19.5 265.5,-0.5 179.5,-0.5"/>
<text text-anchor="middle" x="222.5" y="-7.5" font-family="Helvetica,sans-Serif" font-size="10.00">mn::task_utils</text>
</a>
</g>
</g>
<!-- Node237&#45;&gt;Node259 -->
<g id="edge22" class="edge">
<title>Node237&#45;&gt;Node259</title>
<path fill="none" stroke="#8b1a1a" d="M90.09,-71.01C110.06,-58.71 139.72,-41.37 167,-29 174.57,-25.57 182.97,-22.36 190.85,-19.6"/>
<polygon fill="#8b1a1a" stroke="#8b1a1a" points="88.02,-68.17 81.38,-76.43 91.72,-74.12 88.02,-68.17"/>
</g>
<!-- Node1 -->
<g id="node3" class="node">
<title>Node1</title>
<g id="a_node3"><a xlink:href="classmn_1_1atomic__spinlock.html" target="_top" xlink:title="This class implements a simple spinlack, whit atomic operations.">
<polygon fill="white" stroke="black" points="328,-413.5 328,-432.5 474,-432.5 474,-413.5 328,-413.5"/>
<text text-anchor="middle" x="401" y="-420.5" font-family="Helvetica,sans-Serif" font-size="10.00">mn::atomic_spinlock&lt; T &gt;</text>
</a>
</g>
</g>
<!-- Node0&#45;&gt;Node1 -->
<g id="edge2" class="edge">
<title>Node0&#45;&gt;Node1</title>
<path fill="none" stroke="midnightblue" d="M243.99,-362.81C261.64,-375.7 288.26,-393.43 314,-404 323.33,-407.83 333.57,-410.95 343.63,-413.47"/>
<polygon fill="midnightblue" stroke="midnightblue" points="245.74,-359.75 235.63,-356.58 241.56,-365.37 245.74,-359.75"/>
</g>
<!-- Node2 -->
<g id="node4" class="node">
<title>Node2</title>
<g id="a_node4"><a xlink:href="classmn_1_1basic__null__lock.html" target="_top" xlink:title="Null Lock is a lock object without any lock logic.">
<polygon fill="white" stroke="black" points="344.5,-375.5 344.5,-394.5 457.5,-394.5 457.5,-375.5 344.5,-375.5"/>
<text text-anchor="middle" x="401" y="-382.5" font-family="Helvetica,sans-Serif" font-size="10.00">mn::basic_null_lock</text>
</a>
</g>
</g>
<!-- Node0&#45;&gt;Node2 -->
<g id="edge3" class="edge">
<title>Node0&#45;&gt;Node2</title>
<path fill="none" stroke="midnightblue" d="M278.09,-358.75C303.04,-364.13 332.23,-370.41 355.78,-375.48"/>
<polygon fill="midnightblue" stroke="midnightblue" points="278.55,-355.27 268.04,-356.59 277.08,-362.12 278.55,-355.27"/>
</g>
<!-- Node3 -->
<g id="node5" class="node">
<title>Node3</title>
<g id="a_node5"><a xlink:href="classmn_1_1basic__semaphore.html" target="_top" xlink:title=" ">
<polygon fill="white" stroke="black" points="339,-337.5 339,-356.5 463,-356.5 463,-337.5 339,-337.5"/>
<text text-anchor="middle" x="401" y="-344.5" font-family="Helvetica,sans-Serif" font-size="10.00">mn::basic_semaphore</text>
</a>
</g>
</g>
<!-- Node0&#45;&gt;Node3 -->
<g id="edge4" class="edge">
<title>Node0&#45;&gt;Node3</title>
<path fill="none" stroke="midnightblue" d="M280.47,-347C299.15,-347 319.99,-347 338.96,-347"/>
<polygon fill="midnightblue" stroke="midnightblue" points="280.34,-343.5 270.34,-347 280.34,-350.5 280.34,-343.5"/>
</g>
<!-- Node8 -->
<g id="node10" class="node">
<title>Node8</title>
<g id="a_node10"><a xlink:href="classmn_1_1system_1_1ISystemLockObject.html" target="_top" xlink:title=" ">
<polygon fill="white" stroke="black" points="314,-198.5 314,-217.5 488,-217.5 488,-198.5 314,-198.5"/>
<text text-anchor="middle" x="401" y="-205.5" font-family="Helvetica,sans-Serif" font-size="10.00">mn::system::ISystemLockObject</text>
</a>
</g>
</g>
<!-- Node0&#45;&gt;Node8 -->
<g id="edge9" class="edge">
<title>Node0&#45;&gt;Node8</title>
<path fill="none" stroke="midnightblue" d="M243.68,-331.11C280.57,-302.06 357.84,-241.2 387.78,-217.62"/>
<polygon fill="midnightblue" stroke="midnightblue" points="241.32,-328.51 235.63,-337.45 245.65,-334.01 241.32,-328.51"/>
</g>
<!-- Node4 -->
<g id="node6" class="node">
<title>Node4</title>
<g id="a_node6"><a xlink:href="classmn_1_1basic__binary__semaphore.html" target="_top" xlink:title=" ">
<polygon fill="white" stroke="black" points="536,-441.5 536,-460.5 696,-460.5 696,-441.5 536,-441.5"/>
<text text-anchor="middle" x="616" y="-448.5" font-family="Helvetica,sans-Serif" font-size="10.00">mn::basic_binary_semaphore</text>
</a>
</g>
</g>
<!-- Node3&#45;&gt;Node4 -->
<g id="edge5" class="edge">
<title>Node3&#45;&gt;Node4</title>
<path fill="none" stroke="midnightblue" d="M472.59,-357.19C478.08,-359.57 483.3,-362.47 488,-366 514.71,-386.07 497.17,-412.08 524,-432 529.18,-435.85 534.97,-438.96 541.04,-441.47"/>
<polygon fill="midnightblue" stroke="midnightblue" points="473.74,-353.89 463.14,-353.67 471.29,-360.44 473.74,-353.89"/>
</g>
<!-- Node5 -->
<g id="node7" class="node">
<title>Node5</title>
<g id="a_node7"><a xlink:href="classmn_1_1basic__clock.html" target="_top" xlink:title=" ">
<polygon fill="white" stroke="black" points="532,-403.5 532,-422.5 700,-422.5 700,-403.5 532,-403.5"/>
<text text-anchor="middle" x="616" y="-410.5" font-family="Helvetica,sans-Serif" font-size="10.00">mn::basic_clock&lt; TLockType &gt;</text>
</a>
</g>
</g>
<!-- Node3&#45;&gt;Node5 -->
<g id="edge6" class="edge">
<title>Node3&#45;&gt;Node5</title>
<path fill="none" stroke="midnightblue" d="M471.53,-359.52C477.21,-361.4 482.77,-363.54 488,-366 506.35,-374.62 505.6,-385.49 524,-394 532.35,-397.86 541.49,-400.95 550.66,-403.41"/>
<polygon fill="midnightblue" stroke="midnightblue" points="472.48,-356.15 461.9,-356.62 470.46,-362.86 472.48,-356.15"/>
</g>
<!-- Node6 -->
<g id="node8" class="node">
<title>Node6</title>
<g id="a_node8"><a xlink:href="classmn_1_1basic__counting__semaphore.html" target="_top" xlink:title=" ">
<polygon fill="white" stroke="black" points="560.5,-354 560.5,-384 671.5,-384 671.5,-354 560.5,-354"/>
<text text-anchor="start" x="568.5" y="-372" font-family="Helvetica,sans-Serif" font-size="10.00">mn::basic_counting</text>
<text text-anchor="middle" x="616" y="-361" font-family="Helvetica,sans-Serif" font-size="10.00">_semaphore</text>
</a>
</g>
</g>
<!-- Node3&#45;&gt;Node6 -->
<g id="edge7" class="edge">
<title>Node3&#45;&gt;Node6</title>
<path fill="none" stroke="midnightblue" d="M473.33,-354.37C501.77,-357.3 533.98,-360.63 560.49,-363.37"/>
<polygon fill="midnightblue" stroke="midnightblue" points="473.34,-350.85 463.04,-353.3 472.62,-357.81 473.34,-350.85"/>
</g>
<!-- Node7 -->
<g id="node9" class="node">
<title>Node7</title>
<g id="a_node9"><a xlink:href="classmn_1_1basic__mutex.html" target="_top" xlink:title=" ">
<polygon fill="white" stroke="black" points="565.5,-315.5 565.5,-334.5 666.5,-334.5 666.5,-315.5 565.5,-315.5"/>
<text text-anchor="middle" x="616" y="-322.5" font-family="Helvetica,sans-Serif" font-size="10.00">mn::basic_mutex</text>
</a>
</g>
</g>
<!-- Node3&#45;&gt;Node7 -->
<g id="edge8" class="edge">
<title>Node3&#45;&gt;Node7</title>
<path fill="none" stroke="midnightblue" d="M473.12,-339.65C503.4,-336.53 537.98,-332.95 565.42,-330.12"/>
<polygon fill="midnightblue" stroke="midnightblue" points="472.62,-336.19 463.04,-340.7 473.34,-343.15 472.62,-336.19"/>
</g>
<!-- Node9 -->
<g id="node11" class="node">
<title>Node9</title>
<g id="a_node11"><a xlink:href="classmn_1_1system_1_1basic__critical__section.html" target="_top" xlink:title=" ">
<polygon fill="white" stroke="black" points="544,-266 544,-296 688,-296 688,-266 544,-266"/>
<text text-anchor="start" x="552" y="-284" font-family="Helvetica,sans-Serif" font-size="10.00">mn::system::basic_critical</text>
<text text-anchor="middle" x="616" y="-273" font-family="Helvetica,sans-Serif" font-size="10.00">_section</text>
</a>
</g>
</g>
<!-- Node8&#45;&gt;Node9 -->
<g id="edge10" class="edge">
<title>Node8&#45;&gt;Node9</title>
<path fill="none" stroke="midnightblue" d="M433.19,-221.77C457.61,-232.25 492.58,-246.59 524,-257 533.46,-260.13 543.58,-263.14 553.51,-265.89"/>
<polygon fill="midnightblue" stroke="midnightblue" points="434.3,-218.44 423.74,-217.68 431.52,-224.87 434.3,-218.44"/>
</g>
<!-- Node10 -->
<g id="node12" class="node">
<title>Node10</title>
<g id="a_node12"><a xlink:href="classmn_1_1system_1_1basic__critical__section__nested.html" target="_top" xlink:title=" ">
<polygon fill="white" stroke="black" points="544,-217 544,-247 688,-247 688,-217 544,-217"/>
<text text-anchor="start" x="552" y="-235" font-family="Helvetica,sans-Serif" font-size="10.00">mn::system::basic_critical</text>
<text text-anchor="middle" x="616" y="-224" font-family="Helvetica,sans-Serif" font-size="10.00">_section_nested</text>
</a>
</g>
</g>
<!-- Node8&#45;&gt;Node10 -->
<g id="edge11" class="edge">
<title>Node8&#45;&gt;Node10</title>
<path fill="none" stroke="midnightblue" d="M496.84,-218.69C512.68,-220.47 528.88,-222.3 544,-224"/>
<polygon fill="midnightblue" stroke="midnightblue" points="496.82,-215.16 486.49,-217.52 496.03,-222.12 496.82,-215.16"/>
</g>
<!-- Node11 -->
<g id="node13" class="node">
<title>Node11</title>
<g id="a_node13"><a xlink:href="classmn_1_1system_1_1basic__critical__section__timedout.html" target="_top" xlink:title=" ">
<polygon fill="white" stroke="black" points="544,-168 544,-198 688,-198 688,-168 544,-168"/>
<text text-anchor="start" x="552" y="-186" font-family="Helvetica,sans-Serif" font-size="10.00">mn::system::basic_critical</text>
<text text-anchor="middle" x="616" y="-175" font-family="Helvetica,sans-Serif" font-size="10.00">_section_timedout</text>
</a>
</g>
</g>
<!-- Node8&#45;&gt;Node11 -->
<g id="edge12" class="edge">
<title>Node8&#45;&gt;Node11</title>
<path fill="none" stroke="midnightblue" d="M493.54,-197.26C510.37,-195.28 527.72,-193.24 543.85,-191.35"/>
<polygon fill="midnightblue" stroke="midnightblue" points="492.66,-193.84 483.13,-198.48 493.47,-200.79 492.66,-193.84"/>
</g>
<!-- Node12 -->
<g id="node14" class="node">
<title>Node12</title>
<g id="a_node14"><a xlink:href="classmn_1_1system_1_1basic__interrupts__lock.html" target="_top" xlink:title=" ">
<polygon fill="white" stroke="black" points="524,-129.5 524,-148.5 708,-148.5 708,-129.5 524,-129.5"/>
<text text-anchor="middle" x="616" y="-136.5" font-family="Helvetica,sans-Serif" font-size="10.00">mn::system::basic_interrupts_lock</text>
</a>
</g>
</g>
<!-- Node8&#45;&gt;Node12 -->
<g id="edge13" class="edge">
<title>Node8&#45;&gt;Node12</title>
<path fill="none" stroke="midnightblue" d="M432.19,-194.24C456.58,-183.53 491.99,-168.87 524,-159 536.98,-155 551.25,-151.47 564.55,-148.53"/>
<polygon fill="midnightblue" stroke="midnightblue" points="430.5,-191.17 422.78,-198.42 433.34,-197.56 430.5,-191.17"/>
</g>
<!-- Node13 -->
<g id="node15" class="node">
<title>Node13</title>
<g id="a_node15"><a xlink:href="classmn_1_1system_1_1basic__schedular__lock.html" target="_top" xlink:title=" ">
<polygon fill="white" stroke="black" points="524,-91.5 524,-110.5 708,-110.5 708,-91.5 524,-91.5"/>
<text text-anchor="middle" x="616" y="-98.5" font-family="Helvetica,sans-Serif" font-size="10.00">mn::system::basic_schedular_lock</text>
</a>
</g>
</g>
<!-- Node8&#45;&gt;Node13 -->
<g id="edge14" class="edge">
<title>Node8&#45;&gt;Node13</title>
<path fill="none" stroke="midnightblue" d="M419.85,-191.35C442.37,-171.28 483.11,-138.03 524,-120 532.71,-116.16 542.24,-113.08 551.75,-110.61"/>
<polygon fill="midnightblue" stroke="midnightblue" points="417.21,-189.02 412.15,-198.33 421.91,-194.2 417.21,-189.02"/>
</g>
<!-- Node254 -->
<g id="node18" class="node">
<title>Node254</title>
<g id="a_node18"><a xlink:href="classmn_1_1ext_1_1basic__convar__task.html" target="_top" xlink:title=" ">
<polygon fill="white" stroke="black" points="326,-95.5 326,-114.5 476,-114.5 476,-95.5 326,-95.5"/>
<text text-anchor="middle" x="401" y="-102.5" font-family="Helvetica,sans-Serif" font-size="10.00">mn::ext::basic_convar_task</text>
</a>
</g>
</g>
<!-- Node253&#45;&gt;Node254 -->
<g id="edge17" class="edge">
<title>Node253&#45;&gt;Node254</title>
<path fill="none" stroke="midnightblue" d="M277.83,-91.85C293.03,-93.48 309.82,-95.29 325.95,-97.03"/>
<polygon fill="midnightblue" stroke="midnightblue" points="277.9,-88.34 267.58,-90.75 277.15,-95.3 277.9,-88.34"/>
</g>
<!-- Node256 -->
<g id="node20" class="node">
<title>Node256</title>
<g id="a_node20"><a xlink:href="classmn_1_1ext_1_1foreign__task.html" target="_top" xlink:title=" ">
<polygon fill="white" stroke="black" points="340.5,-57.5 340.5,-76.5 461.5,-76.5 461.5,-57.5 340.5,-57.5"/>
<text text-anchor="middle" x="401" y="-64.5" font-family="Helvetica,sans-Serif" font-size="10.00">mn::ext::foreign_task</text>
</a>
</g>
</g>
<!-- Node253&#45;&gt;Node256 -->
<g id="edge19" class="edge">
<title>Node253&#45;&gt;Node256</title>
<path fill="none" stroke="midnightblue" d="M277.66,-80.17C297.44,-78.04 319.93,-75.62 340.18,-73.44"/>
<polygon fill="midnightblue" stroke="midnightblue" points="277.15,-76.7 267.58,-81.25 277.9,-83.66 277.15,-76.7"/>
</g>
<!-- Node257 -->
<g id="node21" class="node">
<title>Node257</title>
<g id="a_node21"><a xlink:href="classmn_1_1queue_1_1work__queue__task.html" target="_top" xlink:title=" ">
<polygon fill="white" stroke="black" points="321,-19.5 321,-38.5 481,-38.5 481,-19.5 321,-19.5"/>
<text text-anchor="middle" x="401" y="-26.5" font-family="Helvetica,sans-Serif" font-size="10.00">mn::queue::work_queue_task</text>
</a>
</g>
</g>
<!-- Node253&#45;&gt;Node257 -->
<g id="edge20" class="edge">
<title>Node253&#45;&gt;Node257</title>
<path fill="none" stroke="midnightblue" d="M263.13,-72.97C268.18,-71.08 273.24,-69.07 278,-67 294.59,-59.78 297.01,-54.23 314,-48 324.19,-44.26 335.35,-41.14 346.14,-38.57"/>
<polygon fill="midnightblue" stroke="midnightblue" points="261.73,-69.76 253.51,-76.44 264.11,-76.34 261.73,-69.76"/>
</g>
<!-- Node255 -->
<g id="node19" class="node">
<title>Node255</title>
<g id="a_node19"><a xlink:href="classmn_1_1ext_1_1basic__message__task.html" target="_top" xlink:title=" ">
<polygon fill="white" stroke="black" points="535.5,-53.5 535.5,-72.5 696.5,-72.5 696.5,-53.5 535.5,-53.5"/>
<text text-anchor="middle" x="616" y="-60.5" font-family="Helvetica,sans-Serif" font-size="10.00">mn::ext::basic_message_task</text>
</a>
</g>
</g>
<!-- Node254&#45;&gt;Node255 -->
<g id="edge18" class="edge">
<title>Node254&#45;&gt;Node255</title>
<path fill="none" stroke="midnightblue" d="M460.4,-93.49C493.71,-86.92 534.97,-78.78 566.49,-72.57"/>
<polygon fill="midnightblue" stroke="midnightblue" points="459.47,-90.1 450.33,-95.47 460.82,-96.97 459.47,-90.1"/>
</g>
</g>
</svg>
