<?xml version="1.0" encoding="UTF-8" standalone="no"?>
<!DOCTYPE svg PUBLIC "-//W3C//DTD SVG 1.1//EN"
 "http://www.w3.org/Graphics/SVG/1.1/DTD/svg11.dtd">
<!-- Generated by graphviz version 2.44.1 (0)
 -->
<!-- Title: Graphical Class Hierarchy Pages: 1 -->
<svg width="413pt" height="317pt"
 viewBox="0.00 0.00 413.00 317.00" xmlns="http://www.w3.org/2000/svg" xmlns:xlink="http://www.w3.org/1999/xlink">
<g id="graph0" class="graph" transform="scale(1 1) rotate(0) translate(4 313)">
<title>Graphical Class Hierarchy</title>
<polygon fill="white" stroke="transparent" points="-4,4 -4,-313 409,-313 409,4 -4,4"/>
<!-- Node0 -->
<g id="node1" class="node">
<title>Node0</title>
<g id="a_node1"><a xlink:href="class_i_lock_object.html" target="_top" xlink:title=" ">
<polygon fill="white" stroke="black" points="0,-148.5 0,-167.5 74,-167.5 74,-148.5 0,-148.5"/>
<text text-anchor="middle" x="37" y="-155.5" font-family="Helvetica,sans-Serif" font-size="10.00">ILockObject</text>
</a>
</g>
</g>
<!-- Node1 -->
<g id="node2" class="node">
<title>Node1</title>
<g id="a_node2"><a xlink:href="classbasic__semaphore.html" target="_top" xlink:title=" ">
<polygon fill="white" stroke="black" points="114,-232.5 114,-251.5 216,-251.5 216,-232.5 114,-232.5"/>
<text text-anchor="middle" x="165" y="-239.5" font-family="Helvetica,sans-Serif" font-size="10.00">basic_semaphore</text>
</a>
</g>
</g>
<!-- Node0&#45;&gt;Node1 -->
<g id="edge1" class="edge">
<title>Node0&#45;&gt;Node1</title>
<path fill="none" stroke="midnightblue" d="M60.9,-173.27C86.77,-190.51 128.07,-218.05 149.71,-232.48"/>
<polygon fill="midnightblue" stroke="midnightblue" points="62.72,-170.27 52.45,-167.64 58.83,-176.1 62.72,-170.27"/>
</g>
<!-- Node5 -->
<g id="node6" class="node">
<title>Node5</title>
<g id="a_node6"><a xlink:href="class_i_system_lock_object.html" target="_top" xlink:title=" ">
<polygon fill="white" stroke="black" points="110,-107.5 110,-126.5 220,-126.5 220,-107.5 110,-107.5"/>
<text text-anchor="middle" x="165" y="-114.5" font-family="Helvetica,sans-Serif" font-size="10.00">ISystemLockObject</text>
</a>
</g>
</g>
<!-- Node0&#45;&gt;Node5 -->
<g id="edge5" class="edge">
<title>Node0&#45;&gt;Node5</title>
<path fill="none" stroke="midnightblue" d="M76.87,-145.35C95.45,-139.31 117.32,-132.19 134.5,-126.6"/>
<polygon fill="midnightblue" stroke="midnightblue" points="75.65,-142.07 67.22,-148.49 77.82,-148.72 75.65,-142.07"/>
</g>
<!-- Node2 -->
<g id="node3" class="node">
<title>Node2</title>
<g id="a_node3"><a xlink:href="classbasic__binary__semaphore.html" target="_top" xlink:title=" ">
<polygon fill="white" stroke="black" points="261.5,-289.5 261.5,-308.5 399.5,-308.5 399.5,-289.5 261.5,-289.5"/>
<text text-anchor="middle" x="330.5" y="-296.5" font-family="Helvetica,sans-Serif" font-size="10.00">basic_binary_semaphore</text>
</a>
</g>
</g>
<!-- Node1&#45;&gt;Node2 -->
<g id="edge2" class="edge">
<title>Node1&#45;&gt;Node2</title>
<path fill="none" stroke="midnightblue" d="M195.96,-255.95C213.26,-263.68 235.59,-273.09 256,-280 266.36,-283.51 277.73,-286.74 288.37,-289.5"/>
<polygon fill="midnightblue" stroke="midnightblue" points="196.95,-252.56 186.4,-251.63 194.07,-258.94 196.95,-252.56"/>
</g>
<!-- Node3 -->
<g id="node4" class="node">
<title>Node3</title>
<g id="a_node4"><a xlink:href="classbasic__counting__semaphore.html" target="_top" xlink:title=" ">
<polygon fill="white" stroke="black" points="256,-251.5 256,-270.5 405,-270.5 405,-251.5 256,-251.5"/>
<text text-anchor="middle" x="330.5" y="-258.5" font-family="Helvetica,sans-Serif" font-size="10.00">basic_counting_semaphore</text>
</a>
</g>
</g>
<!-- Node1&#45;&gt;Node3 -->
<g id="edge3" class="edge">
<title>Node1&#45;&gt;Node3</title>
<path fill="none" stroke="midnightblue" d="M226.55,-249.04C236.09,-250.14 246.04,-251.3 255.84,-252.44"/>
<polygon fill="midnightblue" stroke="midnightblue" points="226.73,-245.53 216.39,-247.86 225.92,-252.49 226.73,-245.53"/>
</g>
<!-- Node4 -->
<g id="node5" class="node">
<title>Node4</title>
<g id="a_node5"><a xlink:href="classbasic__mutex.html" target="_top" xlink:title=" ">
<polygon fill="white" stroke="black" points="291,-213.5 291,-232.5 370,-232.5 370,-213.5 291,-213.5"/>
<text text-anchor="middle" x="330.5" y="-220.5" font-family="Helvetica,sans-Serif" font-size="10.00">basic_mutex</text>
</a>
</g>
</g>
<!-- Node1&#45;&gt;Node4 -->
<g id="edge4" class="edge">
<title>Node1&#45;&gt;Node4</title>
<path fill="none" stroke="midnightblue" d="M226.45,-234.97C248.03,-232.47 271.73,-229.71 290.96,-227.48"/>
<polygon fill="midnightblue" stroke="midnightblue" points="225.92,-231.51 216.39,-236.14 226.73,-238.47 225.92,-231.51"/>
</g>
<!-- Node6 -->
<g id="node7" class="node">
<title>Node6</title>
<g id="a_node7"><a xlink:href="classbasic__critical__section.html" target="_top" xlink:title=" ">
<polygon fill="white" stroke="black" points="270,-175.5 270,-194.5 391,-194.5 391,-175.5 270,-175.5"/>
<text text-anchor="middle" x="330.5" y="-182.5" font-family="Helvetica,sans-Serif" font-size="10.00">basic_critical_section</text>
</a>
</g>
</g>
<!-- Node5&#45;&gt;Node6 -->
<g id="edge6" class="edge">
<title>Node5&#45;&gt;Node6</title>
<path fill="none" stroke="midnightblue" d="M189.27,-131.74C207,-142.46 232.32,-156.66 256,-166 265.32,-169.68 275.58,-172.84 285.41,-175.48"/>
<polygon fill="midnightblue" stroke="midnightblue" points="191.09,-128.75 180.74,-126.5 187.43,-134.72 191.09,-128.75"/>
</g>
<!-- Node7 -->
<g id="node8" class="node">
<title>Node7</title>
<g id="a_node8"><a xlink:href="classbasic__critical__section__nested.html" target="_top" xlink:title=" ">
<polygon fill="white" stroke="black" points="270,-126 270,-156 391,-156 391,-126 270,-126"/>
<text text-anchor="start" x="278" y="-144" font-family="Helvetica,sans-Serif" font-size="10.00">basic_critical_section</text>
<text text-anchor="middle" x="330.5" y="-133" font-family="Helvetica,sans-Serif" font-size="10.00">_nested</text>
</a>
</g>
</g>
<!-- Node5&#45;&gt;Node7 -->
<g id="edge7" class="edge">
<title>Node5&#45;&gt;Node7</title>
<path fill="none" stroke="midnightblue" d="M230.68,-126.49C243.63,-128.4 257.18,-130.38 269.95,-132.26"/>
<polygon fill="midnightblue" stroke="midnightblue" points="230.85,-122.98 220.44,-124.99 229.83,-129.91 230.85,-122.98"/>
</g>
<!-- Node8 -->
<g id="node9" class="node">
<title>Node8</title>
<g id="a_node9"><a xlink:href="classbasic__critical__section__timedout.html" target="_top" xlink:title=" ">
<polygon fill="white" stroke="black" points="270,-77 270,-107 391,-107 391,-77 270,-77"/>
<text text-anchor="start" x="278" y="-95" font-family="Helvetica,sans-Serif" font-size="10.00">basic_critical_section</text>
<text text-anchor="middle" x="330.5" y="-84" font-family="Helvetica,sans-Serif" font-size="10.00">_timedout</text>
</a>
</g>
</g>
<!-- Node5&#45;&gt;Node8 -->
<g id="edge8" class="edge">
<title>Node5&#45;&gt;Node8</title>
<path fill="none" stroke="midnightblue" d="M230.68,-107.11C243.63,-105.13 257.18,-103.06 269.95,-101.11"/>
<polygon fill="midnightblue" stroke="midnightblue" points="229.8,-103.7 220.44,-108.68 230.86,-110.62 229.8,-103.7"/>
</g>
<!-- Node9 -->
<g id="node10" class="node">
<title>Node9</title>
<g id="a_node10"><a xlink:href="classbasic__interrupts__lock.html" target="_top" xlink:title=" ">
<polygon fill="white" stroke="black" points="270.5,-38.5 270.5,-57.5 390.5,-57.5 390.5,-38.5 270.5,-38.5"/>
<text text-anchor="middle" x="330.5" y="-45.5" font-family="Helvetica,sans-Serif" font-size="10.00">basic_interrupts_lock</text>
</a>
</g>
</g>
<!-- Node5&#45;&gt;Node9 -->
<g id="edge9" class="edge">
<title>Node5&#45;&gt;Node9</title>
<path fill="none" stroke="midnightblue" d="M189.62,-102.16C207.36,-91.51 232.52,-77.43 256,-68 266.06,-63.96 277.22,-60.45 287.74,-57.55"/>
<polygon fill="midnightblue" stroke="midnightblue" points="187.79,-99.17 181.07,-107.37 191.43,-105.15 187.79,-99.17"/>
</g>
<!-- Node10 -->
<g id="node11" class="node">
<title>Node10</title>
<g id="a_node11"><a xlink:href="classbasic__schedular__lock.html" target="_top" xlink:title=" ">
<polygon fill="white" stroke="black" points="270.5,-0.5 270.5,-19.5 390.5,-19.5 390.5,-0.5 270.5,-0.5"/>
<text text-anchor="middle" x="330.5" y="-7.5" font-family="Helvetica,sans-Serif" font-size="10.00">basic_schedular_lock</text>
</a>
</g>
</g>
<!-- Node5&#45;&gt;Node10 -->
<g id="edge10" class="edge">
<title>Node5&#45;&gt;Node10</title>
<path fill="none" stroke="midnightblue" d="M179.22,-99.39C195.21,-79.35 224,-47.05 256,-29 262.89,-25.11 270.58,-22.01 278.33,-19.53"/>
<polygon fill="midnightblue" stroke="midnightblue" points="176.37,-97.36 172.99,-107.4 181.9,-101.65 176.37,-97.36"/>
</g>
</g>
</svg>
