<?xml version="1.0" encoding="UTF-8" standalone="no"?>
<!DOCTYPE svg PUBLIC "-//W3C//DTD SVG 1.1//EN"
 "http://www.w3.org/Graphics/SVG/1.1/DTD/svg11.dtd">
<!-- Generated by graphviz version 2.44.1 (0)
 -->
<!-- Title: Graphical Class Hierarchy Pages: 1 -->
<svg width="373pt" height="142pt"
 viewBox="0.00 0.00 373.00 142.00" xmlns="http://www.w3.org/2000/svg" xmlns:xlink="http://www.w3.org/1999/xlink">
<g id="graph0" class="graph" transform="scale(1 1) rotate(0) translate(4 138)">
<title>Graphical Class Hierarchy</title>
<polygon fill="white" stroke="transparent" points="-4,4 -4,-138 369,-138 369,4 -4,4"/>
<!-- Node0 -->
<g id="node1" class="node">
<title>Node0</title>
<g id="a_node1"><a xlink:href="classbasic__task.html" target="_top" xlink:title=" ">
<polygon fill="white" stroke="black" points="0,-57.5 0,-76.5 68,-76.5 68,-57.5 0,-57.5"/>
<text text-anchor="middle" x="34" y="-64.5" font-family="Helvetica,sans-Serif" font-size="10.00">basic_task</text>
</a>
</g>
</g>
<!-- Node1 -->
<g id="node2" class="node">
<title>Node1</title>
<g id="a_node2"><a xlink:href="classbasic__convar__task.html" target="_top" xlink:title=" ">
<polygon fill="white" stroke="black" points="104,-114.5 104,-133.5 211,-133.5 211,-114.5 104,-114.5"/>
<text text-anchor="middle" x="157.5" y="-121.5" font-family="Helvetica,sans-Serif" font-size="10.00">basic_convar_task</text>
</a>
</g>
</g>
<!-- Node0&#45;&gt;Node1 -->
<g id="edge1" class="edge">
<title>Node0&#45;&gt;Node1</title>
<path fill="none" stroke="midnightblue" d="M59.59,-81.77C72.55,-89.24 88.86,-98.14 104,-105 111.51,-108.4 119.81,-111.64 127.57,-114.44"/>
<polygon fill="midnightblue" stroke="midnightblue" points="61.21,-78.66 50.81,-76.63 57.67,-84.7 61.21,-78.66"/>
</g>
<!-- Node3 -->
<g id="node4" class="node">
<title>Node3</title>
<g id="a_node4"><a xlink:href="classforeign__task.html" target="_top" xlink:title=" ">
<polygon fill="white" stroke="black" points="119,-76.5 119,-95.5 196,-95.5 196,-76.5 119,-76.5"/>
<text text-anchor="middle" x="157.5" y="-83.5" font-family="Helvetica,sans-Serif" font-size="10.00">foreign_task</text>
</a>
</g>
</g>
<!-- Node0&#45;&gt;Node3 -->
<g id="edge3" class="edge">
<title>Node0&#45;&gt;Node3</title>
<path fill="none" stroke="midnightblue" d="M78.43,-73.79C91.56,-75.85 105.88,-78.08 118.62,-80.08"/>
<polygon fill="midnightblue" stroke="midnightblue" points="78.62,-70.28 68.2,-72.19 77.54,-77.19 78.62,-70.28"/>
</g>
<!-- Node4 -->
<g id="node5" class="node">
<title>Node4</title>
<g id="a_node5"><a xlink:href="classhello__world__task.html" target="_top" xlink:title=" ">
<polygon fill="white" stroke="black" points="108,-38.5 108,-57.5 207,-57.5 207,-38.5 108,-38.5"/>
<text text-anchor="middle" x="157.5" y="-45.5" font-family="Helvetica,sans-Serif" font-size="10.00">hello_world_task</text>
</a>
</g>
</g>
<!-- Node0&#45;&gt;Node4 -->
<g id="edge4" class="edge">
<title>Node0&#45;&gt;Node4</title>
<path fill="none" stroke="midnightblue" d="M78.29,-60.23C87.87,-58.73 98.07,-57.14 107.85,-55.61"/>
<polygon fill="midnightblue" stroke="midnightblue" points="77.54,-56.81 68.2,-61.81 78.62,-63.72 77.54,-56.81"/>
</g>
<!-- Node5 -->
<g id="node6" class="node">
<title>Node5</title>
<g id="a_node6"><a xlink:href="classwork__queue__task.html" target="_top" xlink:title=" ">
<polygon fill="white" stroke="black" points="106.5,-0.5 106.5,-19.5 208.5,-19.5 208.5,-0.5 106.5,-0.5"/>
<text text-anchor="middle" x="157.5" y="-7.5" font-family="Helvetica,sans-Serif" font-size="10.00">work_queue_task</text>
</a>
</g>
</g>
<!-- Node0&#45;&gt;Node5 -->
<g id="edge5" class="edge">
<title>Node0&#45;&gt;Node5</title>
<path fill="none" stroke="midnightblue" d="M59.59,-52.23C72.55,-44.76 88.86,-35.86 104,-29 111.51,-25.6 119.81,-22.36 127.57,-19.56"/>
<polygon fill="midnightblue" stroke="midnightblue" points="57.67,-49.3 50.81,-57.37 61.21,-55.34 57.67,-49.3"/>
</g>
<!-- Node2 -->
<g id="node3" class="node">
<title>Node2</title>
<g id="a_node3"><a xlink:href="classbasic__message__task.html" target="_top" xlink:title=" ">
<polygon fill="white" stroke="black" points="247,-114.5 247,-133.5 365,-133.5 365,-114.5 247,-114.5"/>
<text text-anchor="middle" x="306" y="-121.5" font-family="Helvetica,sans-Serif" font-size="10.00">basic_message_task</text>
</a>
</g>
</g>
<!-- Node1&#45;&gt;Node2 -->
<g id="edge2" class="edge">
<title>Node1&#45;&gt;Node2</title>
<path fill="none" stroke="midnightblue" d="M221.49,-124C229.87,-124 238.44,-124 246.73,-124"/>
<polygon fill="midnightblue" stroke="midnightblue" points="221.39,-120.5 211.39,-124 221.39,-127.5 221.39,-120.5"/>
</g>
</g>
</svg>
