<?xml version="1.0" encoding="UTF-8" standalone="no"?>
<!DOCTYPE svg PUBLIC "-//W3C//DTD SVG 1.1//EN"
 "http://www.w3.org/Graphics/SVG/1.1/DTD/svg11.dtd">
<!-- Generated by graphviz version 2.47.3 (0)
 -->
<!-- Title: Graphical Class Hierarchy Pages: 1 -->
<svg width="323pt" height="867pt"
 viewBox="0.00 0.00 323.00 866.50" xmlns="http://www.w3.org/2000/svg" xmlns:xlink="http://www.w3.org/1999/xlink">
<g id="graph0" class="graph" transform="scale(1 1) rotate(0) translate(4 862.5)">
<title>Graphical Class Hierarchy</title>
<polygon fill="white" stroke="transparent" points="-4,4 -4,-862.5 319,-862.5 319,4 -4,4"/>
<!-- Node21 -->
<g id="node1" class="node">
<title>Node21</title>
<g id="a_node1"><a xlink:title=" ">
<polygon fill="white" stroke="#bfbfbf" points="0,-436.5 0,-455.5 115,-455.5 115,-436.5 0,-436.5"/>
<text text-anchor="middle" x="57.5" y="-443.5" font-family="Helvetica,sans-Serif" font-size="10.00">BASE_ATOMIC_TYPE</text>
</a>
</g>
</g>
<!-- Node0 -->
<g id="node2" class="node">
<title>Node0</title>
<g id="a_node2"><a xlink:href="structmn_1_1__atomic.html" target="_top" xlink:title=" ">
<polygon fill="white" stroke="black" points="175,-828 175,-858 291,-858 291,-828 175,-828"/>
<text text-anchor="start" x="183" y="-846" font-family="Helvetica,sans-Serif" font-size="10.00">mn::_atomic&lt; value</text>
<text text-anchor="middle" x="233" y="-835" font-family="Helvetica,sans-Serif" font-size="10.00">_type &gt;</text>
</a>
</g>
</g>
<!-- Node21&#45;&gt;Node0 -->
<g id="edge1" class="edge">
<title>Node21&#45;&gt;Node0</title>
<path fill="none" stroke="midnightblue" d="M60.81,-465.76C69.32,-535.21 100.99,-766.69 151,-819 157.49,-825.78 165.79,-830.68 174.6,-834.2"/>
<polygon fill="midnightblue" stroke="midnightblue" points="64.27,-465.24 59.61,-455.73 57.32,-466.08 64.27,-465.24"/>
</g>
<!-- Node23 -->
<g id="node3" class="node">
<title>Node23</title>
<g id="a_node3"><a xlink:href="structmn_1_1__atomic.html" target="_top" xlink:title=" ">
<polygon fill="white" stroke="black" points="151,-779 151,-809 315,-809 315,-779 151,-779"/>
<text text-anchor="start" x="159" y="-797" font-family="Helvetica,sans-Serif" font-size="10.00">mn::_atomic&lt; mn::container</text>
<text text-anchor="middle" x="233" y="-786" font-family="Helvetica,sans-Serif" font-size="10.00">::basic_atomic_queue::node &gt;</text>
</a>
</g>
</g>
<!-- Node21&#45;&gt;Node23 -->
<g id="edge2" class="edge">
<title>Node21&#45;&gt;Node23</title>
<path fill="none" stroke="midnightblue" d="M58.08,-465.76C58.01,-521.55 65.63,-681.87 151,-769 154.81,-772.89 159.21,-776.18 163.95,-778.96"/>
<polygon fill="midnightblue" stroke="midnightblue" points="61.58,-465.54 58.19,-455.5 54.58,-465.47 61.58,-465.54"/>
</g>
<!-- Node24 -->
<g id="node4" class="node">
<title>Node24</title>
<g id="a_node4"><a xlink:href="structmn_1_1__atomic.html" target="_top" xlink:title=" ">
<polygon fill="white" stroke="black" points="169,-740.5 169,-759.5 297,-759.5 297,-740.5 169,-740.5"/>
<text text-anchor="middle" x="233" y="-747.5" font-family="Helvetica,sans-Serif" font-size="10.00">mn::_atomic&lt; size_t &gt;</text>
</a>
</g>
</g>
<!-- Node21&#45;&gt;Node24 -->
<g id="edge3" class="edge">
<title>Node21&#45;&gt;Node24</title>
<path fill="none" stroke="midnightblue" d="M58.67,-465.77C60.25,-517.58 71.98,-658.31 151,-731 156.21,-735.79 162.39,-739.44 168.98,-742.22"/>
<polygon fill="midnightblue" stroke="midnightblue" points="62.17,-465.53 58.46,-455.61 55.17,-465.68 62.17,-465.53"/>
</g>
<!-- Node25 -->
<g id="node5" class="node">
<title>Node25</title>
<g id="a_node5"><a xlink:href="structmn_1_1__atomic.html" target="_top" xlink:title=" ">
<polygon fill="white" stroke="black" points="160.5,-702.5 160.5,-721.5 305.5,-721.5 305.5,-702.5 160.5,-702.5"/>
<text text-anchor="middle" x="233" y="-709.5" font-family="Helvetica,sans-Serif" font-size="10.00">mn::_atomic&lt; flag_type &gt;</text>
</a>
</g>
</g>
<!-- Node21&#45;&gt;Node25 -->
<g id="edge4" class="edge">
<title>Node21&#45;&gt;Node25</title>
<path fill="none" stroke="midnightblue" d="M59.79,-465.63C63.97,-512.52 81.28,-631.67 151,-693 155.34,-696.82 160.3,-699.9 165.58,-702.4"/>
<polygon fill="midnightblue" stroke="midnightblue" points="63.27,-465.28 59,-455.58 56.3,-465.83 63.27,-465.28"/>
</g>
<!-- Node26 -->
<g id="node6" class="node">
<title>Node26</title>
<g id="a_node6"><a xlink:href="structmn_1_1__atomic.html" target="_top" xlink:title=" ">
<polygon fill="white" stroke="black" points="166,-664.5 166,-683.5 300,-683.5 300,-664.5 166,-664.5"/>
<text text-anchor="middle" x="233" y="-671.5" font-family="Helvetica,sans-Serif" font-size="10.00">mn::_atomic&lt; pointer &gt;</text>
</a>
</g>
</g>
<!-- Node21&#45;&gt;Node26 -->
<g id="edge5" class="edge">
<title>Node21&#45;&gt;Node26</title>
<path fill="none" stroke="midnightblue" d="M61.29,-465.69C68.29,-507.39 90.56,-604.89 151,-655 155.67,-658.87 160.99,-661.99 166.62,-664.48"/>
<polygon fill="midnightblue" stroke="midnightblue" points="64.74,-465.05 59.74,-455.71 57.82,-466.13 64.74,-465.05"/>
</g>
<!-- Node27 -->
<g id="node7" class="node">
<title>Node27</title>
<g id="a_node7"><a xlink:href="structmn_1_1__atomic.html" target="_top" xlink:title="Only for declar special version for types.">
<polygon fill="white" stroke="black" points="180,-626.5 180,-645.5 286,-645.5 286,-626.5 180,-626.5"/>
<text text-anchor="middle" x="233" y="-633.5" font-family="Helvetica,sans-Serif" font-size="10.00">mn::_atomic&lt; T &gt;</text>
</a>
</g>
</g>
<!-- Node21&#45;&gt;Node27 -->
<g id="edge6" class="edge">
<title>Node21&#45;&gt;Node27</title>
<path fill="none" stroke="midnightblue" d="M63.28,-465.27C73.19,-501.03 99.48,-577.62 151,-617 159.38,-623.4 169.56,-627.7 179.85,-630.57"/>
<polygon fill="midnightblue" stroke="midnightblue" points="66.66,-464.34 60.72,-455.57 59.89,-466.13 66.66,-464.34"/>
</g>
<!-- Node28 -->
<g id="node8" class="node">
<title>Node28</title>
<g id="a_node8"><a xlink:href="structmn_1_1__atomic_3_01bool_01_4.html" target="_top" xlink:title="Special version for bool.">
<polygon fill="white" stroke="black" points="172.5,-588.5 172.5,-607.5 293.5,-607.5 293.5,-588.5 172.5,-588.5"/>
<text text-anchor="middle" x="233" y="-595.5" font-family="Helvetica,sans-Serif" font-size="10.00">mn::_atomic&lt; bool &gt;</text>
</a>
</g>
</g>
<!-- Node21&#45;&gt;Node28 -->
<g id="edge7" class="edge">
<title>Node21&#45;&gt;Node28</title>
<path fill="none" stroke="midnightblue" d="M66.29,-465C79.3,-494.26 108.32,-550 151,-579 157.45,-583.38 164.79,-586.76 172.34,-589.37"/>
<polygon fill="midnightblue" stroke="midnightblue" points="69.38,-463.32 62.22,-455.51 62.95,-466.08 69.38,-463.32"/>
</g>
<!-- Node29 -->
<g id="node9" class="node">
<title>Node29</title>
<g id="a_node9"><a xlink:href="structmn_1_1__atomic_3_01char_01_4.html" target="_top" xlink:title="Special version for char.">
<polygon fill="white" stroke="black" points="172.5,-550.5 172.5,-569.5 293.5,-569.5 293.5,-550.5 172.5,-550.5"/>
<text text-anchor="middle" x="233" y="-557.5" font-family="Helvetica,sans-Serif" font-size="10.00">mn::_atomic&lt; char &gt;</text>
</a>
</g>
</g>
<!-- Node21&#45;&gt;Node29 -->
<g id="edge8" class="edge">
<title>Node21&#45;&gt;Node29</title>
<path fill="none" stroke="midnightblue" d="M70.85,-463.87C86.8,-485.54 116.63,-521.57 151,-541 157.92,-544.91 165.6,-548.02 173.4,-550.49"/>
<polygon fill="midnightblue" stroke="midnightblue" points="73.56,-461.64 64.89,-455.55 67.87,-465.72 73.56,-461.64"/>
</g>
<!-- Node30 -->
<g id="node10" class="node">
<title>Node30</title>
<g id="a_node10"><a xlink:href="structmn_1_1__atomic_3_01char16__t_01_4.html" target="_top" xlink:title="Special version for char16_t.">
<polygon fill="white" stroke="black" points="162,-512.5 162,-531.5 304,-531.5 304,-512.5 162,-512.5"/>
<text text-anchor="middle" x="233" y="-519.5" font-family="Helvetica,sans-Serif" font-size="10.00">mn::_atomic&lt; char16_t &gt;</text>
</a>
</g>
</g>
<!-- Node21&#45;&gt;Node30 -->
<g id="edge9" class="edge">
<title>Node21&#45;&gt;Node30</title>
<path fill="none" stroke="midnightblue" d="M79.54,-461.71C97.63,-474.52 124.87,-492.22 151,-503 160.21,-506.8 170.34,-509.93 180.23,-512.48"/>
<polygon fill="midnightblue" stroke="midnightblue" points="81.12,-458.53 70.96,-455.51 77.02,-464.2 81.12,-458.53"/>
</g>
<!-- Node31 -->
<g id="node11" class="node">
<title>Node31</title>
<g id="a_node11"><a xlink:href="structmn_1_1__atomic_3_01char32__t_01_4.html" target="_top" xlink:title="Special version for char32_t.">
<polygon fill="white" stroke="black" points="162,-474.5 162,-493.5 304,-493.5 304,-474.5 162,-474.5"/>
<text text-anchor="middle" x="233" y="-481.5" font-family="Helvetica,sans-Serif" font-size="10.00">mn::_atomic&lt; char32_t &gt;</text>
</a>
</g>
</g>
<!-- Node21&#45;&gt;Node31 -->
<g id="edge10" class="edge">
<title>Node21&#45;&gt;Node31</title>
<path fill="none" stroke="midnightblue" d="M112.16,-457.75C136.69,-463.13 165.38,-469.41 188.53,-474.48"/>
<polygon fill="midnightblue" stroke="midnightblue" points="112.8,-454.31 102.28,-455.59 111.3,-461.15 112.8,-454.31"/>
</g>
<!-- Node32 -->
<g id="node12" class="node">
<title>Node32</title>
<g id="a_node12"><a xlink:href="structmn_1_1__atomic_3_01int_01_4.html" target="_top" xlink:title="Special version for int.">
<polygon fill="white" stroke="black" points="176.5,-436.5 176.5,-455.5 289.5,-455.5 289.5,-436.5 176.5,-436.5"/>
<text text-anchor="middle" x="233" y="-443.5" font-family="Helvetica,sans-Serif" font-size="10.00">mn::_atomic&lt; int &gt;</text>
</a>
</g>
</g>
<!-- Node21&#45;&gt;Node32 -->
<g id="edge11" class="edge">
<title>Node21&#45;&gt;Node32</title>
<path fill="none" stroke="midnightblue" d="M125.58,-446C142.33,-446 160.11,-446 176.25,-446"/>
<polygon fill="midnightblue" stroke="midnightblue" points="125.31,-442.5 115.31,-446 125.31,-449.5 125.31,-442.5"/>
</g>
<!-- Node33 -->
<g id="node13" class="node">
<title>Node33</title>
<g id="a_node13"><a xlink:href="structmn_1_1__atomic_3_01long_01_4.html" target="_top" xlink:title="Special version for long.">
<polygon fill="white" stroke="black" points="172.5,-398.5 172.5,-417.5 293.5,-417.5 293.5,-398.5 172.5,-398.5"/>
<text text-anchor="middle" x="233" y="-405.5" font-family="Helvetica,sans-Serif" font-size="10.00">mn::_atomic&lt; long &gt;</text>
</a>
</g>
</g>
<!-- Node21&#45;&gt;Node33 -->
<g id="edge12" class="edge">
<title>Node21&#45;&gt;Node33</title>
<path fill="none" stroke="midnightblue" d="M112.16,-434.25C136.69,-428.87 165.38,-422.59 188.53,-417.52"/>
<polygon fill="midnightblue" stroke="midnightblue" points="111.3,-430.85 102.28,-436.41 112.8,-437.69 111.3,-430.85"/>
</g>
<!-- Node34 -->
<g id="node14" class="node">
<title>Node34</title>
<g id="a_node14"><a xlink:href="structmn_1_1__atomic_3_01long_01long_01_4.html" target="_top" xlink:title="Special version for long long.">
<polygon fill="white" stroke="black" points="160.5,-360.5 160.5,-379.5 305.5,-379.5 305.5,-360.5 160.5,-360.5"/>
<text text-anchor="middle" x="233" y="-367.5" font-family="Helvetica,sans-Serif" font-size="10.00">mn::_atomic&lt; long long &gt;</text>
</a>
</g>
</g>
<!-- Node21&#45;&gt;Node34 -->
<g id="edge13" class="edge">
<title>Node21&#45;&gt;Node34</title>
<path fill="none" stroke="midnightblue" d="M79.54,-430.29C97.63,-417.48 124.87,-399.78 151,-389 160.21,-385.2 170.34,-382.07 180.23,-379.52"/>
<polygon fill="midnightblue" stroke="midnightblue" points="77.02,-427.8 70.96,-436.49 81.12,-433.47 77.02,-427.8"/>
</g>
<!-- Node35 -->
<g id="node15" class="node">
<title>Node35</title>
<g id="a_node15"><a xlink:href="structmn_1_1__atomic_3_01short_01_4.html" target="_top" xlink:title="Special version for short.">
<polygon fill="white" stroke="black" points="170.5,-322.5 170.5,-341.5 295.5,-341.5 295.5,-322.5 170.5,-322.5"/>
<text text-anchor="middle" x="233" y="-329.5" font-family="Helvetica,sans-Serif" font-size="10.00">mn::_atomic&lt; short &gt;</text>
</a>
</g>
</g>
<!-- Node21&#45;&gt;Node35 -->
<g id="edge14" class="edge">
<title>Node21&#45;&gt;Node35</title>
<path fill="none" stroke="midnightblue" d="M70.85,-428.13C86.8,-406.46 116.63,-370.43 151,-351 157.92,-347.09 165.6,-343.98 173.4,-341.51"/>
<polygon fill="midnightblue" stroke="midnightblue" points="67.87,-426.28 64.89,-436.45 73.56,-430.36 67.87,-426.28"/>
</g>
<!-- Node36 -->
<g id="node16" class="node">
<title>Node36</title>
<g id="a_node16"><a xlink:href="structmn_1_1__atomic_3_01signed_01char_01_4.html" target="_top" xlink:title="Special version for signed char.">
<polygon fill="white" stroke="black" points="172.5,-273 172.5,-303 293.5,-303 293.5,-273 172.5,-273"/>
<text text-anchor="start" x="180.5" y="-291" font-family="Helvetica,sans-Serif" font-size="10.00">mn::_atomic&lt; signed</text>
<text text-anchor="middle" x="233" y="-280" font-family="Helvetica,sans-Serif" font-size="10.00"> char &gt;</text>
</a>
</g>
</g>
<!-- Node21&#45;&gt;Node36 -->
<g id="edge15" class="edge">
<title>Node21&#45;&gt;Node36</title>
<path fill="none" stroke="midnightblue" d="M66.73,-426.93C80.17,-398.03 109.54,-343.3 151,-313 157.42,-308.31 164.73,-304.49 172.28,-301.37"/>
<polygon fill="midnightblue" stroke="midnightblue" points="63.42,-425.76 62.51,-436.32 69.8,-428.64 63.42,-425.76"/>
</g>
<!-- Node37 -->
<g id="node17" class="node">
<title>Node37</title>
<g id="a_node17"><a xlink:href="structmn_1_1__atomic_3_01unsigned_01char_01_4.html" target="_top" xlink:title="Special version for unsigned char.">
<polygon fill="white" stroke="black" points="166.5,-224 166.5,-254 299.5,-254 299.5,-224 166.5,-224"/>
<text text-anchor="start" x="174.5" y="-242" font-family="Helvetica,sans-Serif" font-size="10.00">mn::_atomic&lt; unsigned</text>
<text text-anchor="middle" x="233" y="-231" font-family="Helvetica,sans-Serif" font-size="10.00"> char &gt;</text>
</a>
</g>
</g>
<!-- Node21&#45;&gt;Node37 -->
<g id="edge16" class="edge">
<title>Node21&#45;&gt;Node37</title>
<path fill="none" stroke="midnightblue" d="M63.04,-426.38C72.66,-389.16 98.67,-308.07 151,-264 155.62,-260.11 160.83,-256.83 166.33,-254.06"/>
<polygon fill="midnightblue" stroke="midnightblue" points="59.55,-425.89 60.57,-436.44 66.35,-427.56 59.55,-425.89"/>
</g>
<!-- Node38 -->
<g id="node18" class="node">
<title>Node38</title>
<g id="a_node18"><a xlink:href="structmn_1_1__atomic_3_01unsigned_01int_01_4.html" target="_top" xlink:title="Special version for int.">
<polygon fill="white" stroke="black" points="166.5,-175 166.5,-205 299.5,-205 299.5,-175 166.5,-175"/>
<text text-anchor="start" x="174.5" y="-193" font-family="Helvetica,sans-Serif" font-size="10.00">mn::_atomic&lt; unsigned</text>
<text text-anchor="middle" x="233" y="-182" font-family="Helvetica,sans-Serif" font-size="10.00"> int &gt;</text>
</a>
</g>
</g>
<!-- Node21&#45;&gt;Node38 -->
<g id="edge17" class="edge">
<title>Node21&#45;&gt;Node38</title>
<path fill="none" stroke="midnightblue" d="M60.67,-426.44C66.63,-382.2 87.29,-273.71 151,-215 155.55,-210.81 160.78,-207.32 166.35,-204.42"/>
<polygon fill="midnightblue" stroke="midnightblue" points="57.19,-426.11 59.43,-436.46 64.13,-426.97 57.19,-426.11"/>
</g>
<!-- Node39 -->
<g id="node19" class="node">
<title>Node39</title>
<g id="a_node19"><a xlink:href="structmn_1_1__atomic_3_01unsigned_01long_01_4.html" target="_top" xlink:title="Special version for long.">
<polygon fill="white" stroke="black" points="166.5,-126 166.5,-156 299.5,-156 299.5,-126 166.5,-126"/>
<text text-anchor="start" x="174.5" y="-144" font-family="Helvetica,sans-Serif" font-size="10.00">mn::_atomic&lt; unsigned</text>
<text text-anchor="middle" x="233" y="-133" font-family="Helvetica,sans-Serif" font-size="10.00"> long &gt;</text>
</a>
</g>
</g>
<!-- Node21&#45;&gt;Node39 -->
<g id="edge18" class="edge">
<title>Node21&#45;&gt;Node39</title>
<path fill="none" stroke="midnightblue" d="M59.11,-426.2C61.76,-375.48 75.88,-239.65 151,-166 155.52,-161.57 160.8,-157.92 166.47,-154.92"/>
<polygon fill="midnightblue" stroke="midnightblue" points="55.6,-426.3 58.68,-436.44 62.6,-426.6 55.6,-426.3"/>
</g>
<!-- Node40 -->
<g id="node20" class="node">
<title>Node40</title>
<g id="a_node20"><a xlink:href="structmn_1_1__atomic_3_01unsigned_01short_01_4.html" target="_top" xlink:title="Special version for short.">
<polygon fill="white" stroke="black" points="166.5,-77 166.5,-107 299.5,-107 299.5,-77 166.5,-77"/>
<text text-anchor="start" x="174.5" y="-95" font-family="Helvetica,sans-Serif" font-size="10.00">mn::_atomic&lt; unsigned</text>
<text text-anchor="middle" x="233" y="-84" font-family="Helvetica,sans-Serif" font-size="10.00"> short &gt;</text>
</a>
</g>
</g>
<!-- Node21&#45;&gt;Node40 -->
<g id="edge19" class="edge">
<title>Node21&#45;&gt;Node40</title>
<path fill="none" stroke="midnightblue" d="M57.96,-426.24C57.52,-369.76 64.2,-206.03 151,-117 155.42,-112.47 160.64,-108.75 166.26,-105.71"/>
<polygon fill="midnightblue" stroke="midnightblue" points="54.46,-426.38 58.13,-436.32 61.46,-426.27 54.46,-426.38"/>
</g>
<!-- Node41 -->
<g id="node21" class="node">
<title>Node41</title>
<g id="a_node21"><a xlink:href="structmn_1_1__atomic_3_01wchar__t_01_4.html" target="_top" xlink:title="Special version for wchar_t.">
<polygon fill="white" stroke="black" points="164,-38.5 164,-57.5 302,-57.5 302,-38.5 164,-38.5"/>
<text text-anchor="middle" x="233" y="-45.5" font-family="Helvetica,sans-Serif" font-size="10.00">mn::_atomic&lt; wchar_t &gt;</text>
</a>
</g>
</g>
<!-- Node21&#45;&gt;Node41 -->
<g id="edge20" class="edge">
<title>Node21&#45;&gt;Node41</title>
<path fill="none" stroke="midnightblue" d="M60.64,-426.35C68.65,-356.27 99.13,-119.98 151,-68 155.3,-63.69 160.36,-60.26 165.83,-57.53"/>
<polygon fill="midnightblue" stroke="midnightblue" points="57.14,-426.12 59.51,-436.45 64.1,-426.9 57.14,-426.12"/>
</g>
<!-- Node42 -->
<g id="node22" class="node">
<title>Node42</title>
<g id="a_node22"><a xlink:href="structmn_1_1__atomic__ptr.html" target="_top" xlink:title="Special version for pointer.">
<polygon fill="white" stroke="black" points="170.5,-0.5 170.5,-19.5 295.5,-19.5 295.5,-0.5 170.5,-0.5"/>
<text text-anchor="middle" x="233" y="-7.5" font-family="Helvetica,sans-Serif" font-size="10.00">mn::_atomic_ptr&lt; T &gt;</text>
</a>
</g>
</g>
<!-- Node21&#45;&gt;Node42 -->
<g id="edge21" class="edge">
<title>Node21&#45;&gt;Node42</title>
<path fill="none" stroke="midnightblue" d="M60.14,-426.26C66.75,-351.46 93.87,-86.83 151,-29 156.38,-23.55 163,-19.55 170.13,-16.62"/>
<polygon fill="midnightblue" stroke="midnightblue" points="56.65,-425.96 59.28,-436.22 63.63,-426.56 56.65,-425.96"/>
</g>
</g>
</svg>
