<?xml version="1.0" encoding="UTF-8" standalone="no"?>
<!DOCTYPE svg PUBLIC "-//W3C//DTD SVG 1.1//EN"
 "http://www.w3.org/Graphics/SVG/1.1/DTD/svg11.dtd">
<!-- Generated by graphviz version 2.47.3 (0)
 -->
<!-- Title: Graphical Class Hierarchy Pages: 1 -->
<svg width="293pt" height="88pt"
 viewBox="0.00 0.00 293.00 88.00" xmlns="http://www.w3.org/2000/svg" xmlns:xlink="http://www.w3.org/1999/xlink">
<g id="graph0" class="graph" transform="scale(1 1) rotate(0) translate(4 84)">
<title>Graphical Class Hierarchy</title>
<polygon fill="white" stroke="transparent" points="-4,4 -4,-84 289,-84 289,4 -4,4"/>
<!-- Node0 -->
<g id="node1" class="node">
<title>Node0</title>
<g id="a_node1"><a xlink:href="classmn_1_1net_1_1basic__ip__address.html" target="_top" xlink:title="Wrapper class around lwip implementation of a ip address.">
<polygon fill="white" stroke="black" points="0,-30 0,-49 143,-49 143,-30 0,-30"/>
<text text-anchor="middle" x="71.5" y="-37" font-family="Helvetica,sans-Serif" font-size="10.00">mn::net::basic_ip_address</text>
</a>
</g>
</g>
<!-- Node1 -->
<g id="node2" class="node">
<title>Node1</title>
<g id="a_node2"><a xlink:href="classmn_1_1net_1_1basic__ip4__address.html" target="_top" xlink:title="This class represents an internet (IP) version 6 host address.">
<polygon fill="white" stroke="black" points="179,-49.5 179,-79.5 285,-79.5 285,-49.5 179,-49.5"/>
<text text-anchor="start" x="187" y="-67.5" font-family="Helvetica,sans-Serif" font-size="10.00">mn::net::basic_ip4</text>
<text text-anchor="middle" x="232" y="-56.5" font-family="Helvetica,sans-Serif" font-size="10.00">_address</text>
</a>
</g>
</g>
<!-- Node0&#45;&gt;Node1 -->
<g id="edge1" class="edge">
<title>Node0&#45;&gt;Node1</title>
<path fill="none" stroke="midnightblue" d="M142.92,-50.61C154.99,-52.51 167.33,-54.46 178.82,-56.27"/>
<polygon fill="midnightblue" stroke="midnightblue" points="143.3,-47.12 132.87,-49.02 142.21,-54.04 143.3,-47.12"/>
</g>
<!-- Node2 -->
<g id="node3" class="node">
<title>Node2</title>
<g id="a_node3"><a xlink:href="classmn_1_1net_1_1basic__ip6__address.html" target="_top" xlink:title="This class represents an internet (IP) version 6 host address.">
<polygon fill="white" stroke="black" points="179,-0.5 179,-30.5 285,-30.5 285,-0.5 179,-0.5"/>
<text text-anchor="start" x="187" y="-18.5" font-family="Helvetica,sans-Serif" font-size="10.00">mn::net::basic_ip6</text>
<text text-anchor="middle" x="232" y="-7.5" font-family="Helvetica,sans-Serif" font-size="10.00">_address</text>
</a>
</g>
</g>
<!-- Node0&#45;&gt;Node2 -->
<g id="edge2" class="edge">
<title>Node0&#45;&gt;Node2</title>
<path fill="none" stroke="midnightblue" d="M145.77,-28.41C156.92,-26.72 168.23,-25 178.81,-23.4"/>
<polygon fill="midnightblue" stroke="midnightblue" points="144.96,-24.99 135.6,-29.95 146.01,-31.91 144.96,-24.99"/>
</g>
</g>
</svg>
