<?xml version="1.0" encoding="UTF-8" standalone="no"?>
<!DOCTYPE svg PUBLIC "-//W3C//DTD SVG 1.1//EN"
 "http://www.w3.org/Graphics/SVG/1.1/DTD/svg11.dtd">
<!-- Generated by graphviz version 2.46.0 (0)
 -->
<!-- Title: Graphical Class Hierarchy Pages: 1 -->
<svg width="525pt" height="368pt"
 viewBox="0.00 0.00 525.00 368.00" xmlns="http://www.w3.org/2000/svg" xmlns:xlink="http://www.w3.org/1999/xlink">
<g id="graph0" class="graph" transform="scale(1 1) rotate(0) translate(4 364)">
<title>Graphical Class Hierarchy</title>
<polygon fill="white" stroke="transparent" points="-4,4 -4,-364 521,-364 521,4 -4,4"/>
<!-- Node0 -->
<g id="node1" class="node">
<title>Node0</title>
<g id="a_node1"><a xlink:href="structmn_1_1integral__constant.html" target="_top" xlink:title=" ">
<polygon fill="white" stroke="black" points="0,-228 0,-258 123,-258 123,-228 0,-228"/>
<text text-anchor="start" x="8" y="-246" font-family="Helvetica,sans-Serif" font-size="10.00">mn::integral_constant</text>
<text text-anchor="middle" x="61.5" y="-235" font-family="Helvetica,sans-Serif" font-size="10.00">&lt; bool, false &gt;</text>
</a>
</g>
</g>
<!-- Node1 -->
<g id="node2" class="node">
<title>Node1</title>
<g id="a_node2"><a xlink:href="structmn_1_1is__floating__point.html" target="_top" xlink:title=" ">
<polygon fill="white" stroke="black" points="167.5,-328.5 167.5,-347.5 314.5,-347.5 314.5,-328.5 167.5,-328.5"/>
<text text-anchor="middle" x="241" y="-335.5" font-family="Helvetica,sans-Serif" font-size="10.00">mn::is_floating_point&lt; T &gt;</text>
</a>
</g>
</g>
<!-- Node0&#45;&gt;Node1 -->
<g id="edge1" class="edge">
<title>Node0&#45;&gt;Node1</title>
<path fill="none" stroke="midnightblue" d="M84.72,-265.2C103.13,-282.36 130.76,-305.4 159,-319 167.07,-322.89 175.98,-326 184.85,-328.5"/>
<polygon fill="midnightblue" stroke="midnightblue" points="87.08,-262.62 77.43,-258.26 82.26,-267.69 87.08,-262.62"/>
</g>
<!-- Node2 -->
<g id="node3" class="node">
<title>Node2</title>
<g id="a_node3"><a xlink:href="structmn_1_1is__function.html" target="_top" xlink:title=" ">
<polygon fill="white" stroke="black" points="159,-290.5 159,-309.5 323,-309.5 323,-290.5 159,-290.5"/>
<text text-anchor="middle" x="241" y="-297.5" font-family="Helvetica,sans-Serif" font-size="10.00">mn::is_function&lt; typename &gt;</text>
</a>
</g>
</g>
<!-- Node0&#45;&gt;Node2 -->
<g id="edge2" class="edge">
<title>Node0&#45;&gt;Node2</title>
<path fill="none" stroke="midnightblue" d="M106.63,-261.93C122.9,-268.5 141.62,-275.57 159,-281 170.31,-284.53 182.68,-287.75 194.28,-290.49"/>
<polygon fill="midnightblue" stroke="midnightblue" points="107.94,-258.68 97.35,-258.14 105.29,-265.16 107.94,-258.68"/>
</g>
<!-- Node3 -->
<g id="node4" class="node">
<title>Node3</title>
<g id="a_node4"><a xlink:href="structmn_1_1is__integral.html" target="_top" xlink:title=" ">
<polygon fill="white" stroke="black" points="182,-252.5 182,-271.5 300,-271.5 300,-252.5 182,-252.5"/>
<text text-anchor="middle" x="241" y="-259.5" font-family="Helvetica,sans-Serif" font-size="10.00">mn::is_integral&lt; T &gt;</text>
</a>
</g>
</g>
<!-- Node0&#45;&gt;Node3 -->
<g id="edge3" class="edge">
<title>Node0&#45;&gt;Node3</title>
<path fill="none" stroke="midnightblue" d="M133.48,-250.6C149.51,-252.31 166.35,-254.12 181.78,-255.77"/>
<polygon fill="midnightblue" stroke="midnightblue" points="133.4,-247.07 123.09,-249.49 132.66,-254.03 133.4,-247.07"/>
</g>
<!-- Node7 -->
<g id="node8" class="node">
<title>Node7</title>
<g id="a_node8"><a xlink:href="structmn_1_1is__pointer.html" target="_top" xlink:title=" ">
<polygon fill="white" stroke="black" points="183.5,-214.5 183.5,-233.5 298.5,-233.5 298.5,-214.5 183.5,-214.5"/>
<text text-anchor="middle" x="241" y="-221.5" font-family="Helvetica,sans-Serif" font-size="10.00">mn::is_pointer&lt; T &gt;</text>
</a>
</g>
</g>
<!-- Node0&#45;&gt;Node7 -->
<g id="edge7" class="edge">
<title>Node0&#45;&gt;Node7</title>
<path fill="none" stroke="midnightblue" d="M133.29,-235.42C149.9,-233.64 167.38,-231.77 183.27,-230.07"/>
<polygon fill="midnightblue" stroke="midnightblue" points="132.66,-231.97 123.09,-236.51 133.4,-238.93 132.66,-231.97"/>
</g>
<!-- Node8 -->
<g id="node9" class="node">
<title>Node8</title>
<g id="a_node9"><a xlink:href="structmn_1_1is__rational.html" target="_top" xlink:title=" ">
<polygon fill="white" stroke="black" points="182,-173.5 182,-192.5 300,-192.5 300,-173.5 182,-173.5"/>
<text text-anchor="middle" x="241" y="-180.5" font-family="Helvetica,sans-Serif" font-size="10.00">mn::is_rational&lt; T &gt;</text>
</a>
</g>
</g>
<!-- Node0&#45;&gt;Node8 -->
<g id="edge8" class="edge">
<title>Node0&#45;&gt;Node8</title>
<path fill="none" stroke="midnightblue" d="M107.59,-224.06C123.68,-217.62 142.02,-210.63 159,-205 172.69,-200.46 187.91,-196.14 201.42,-192.55"/>
<polygon fill="midnightblue" stroke="midnightblue" points="105.86,-220.98 97.9,-227.98 108.49,-227.47 105.86,-220.98"/>
</g>
<!-- Node12 -->
<g id="node13" class="node">
<title>Node12</title>
<g id="a_node13"><a xlink:href="structmn_1_1is__void.html" target="_top" xlink:title=" ">
<polygon fill="white" stroke="black" points="190.5,-66.5 190.5,-85.5 291.5,-85.5 291.5,-66.5 190.5,-66.5"/>
<text text-anchor="middle" x="241" y="-73.5" font-family="Helvetica,sans-Serif" font-size="10.00">mn::is_void&lt; T &gt;</text>
</a>
</g>
</g>
<!-- Node0&#45;&gt;Node12 -->
<g id="edge12" class="edge">
<title>Node0&#45;&gt;Node12</title>
<path fill="none" stroke="midnightblue" d="M86.33,-220.58C125.54,-183.69 202.05,-111.71 229.71,-85.68"/>
<polygon fill="midnightblue" stroke="midnightblue" points="83.45,-218.48 78.57,-227.89 88.25,-223.58 83.45,-218.48"/>
</g>
<!-- Node4 -->
<g id="node5" class="node">
<title>Node4</title>
<g id="a_node5"><a xlink:href="structmn_1_1is__integral_3_01const_01_t_01_4.html" target="_top" xlink:title=" ">
<polygon fill="white" stroke="black" points="364.5,-340.5 364.5,-359.5 511.5,-359.5 511.5,-340.5 364.5,-340.5"/>
<text text-anchor="middle" x="438" y="-347.5" font-family="Helvetica,sans-Serif" font-size="10.00">mn::is_integral&lt; const T &gt;</text>
</a>
</g>
</g>
<!-- Node3&#45;&gt;Node4 -->
<g id="edge4" class="edge">
<title>Node3&#45;&gt;Node4</title>
<path fill="none" stroke="midnightblue" d="M309.94,-273.96C314.53,-275.96 318.93,-278.29 323,-281 345.78,-296.2 336.29,-315.7 359,-331 364.78,-334.89 371.28,-337.99 377.99,-340.46"/>
<polygon fill="midnightblue" stroke="midnightblue" points="310.92,-270.59 300.33,-270.31 308.43,-277.13 310.92,-270.59"/>
</g>
<!-- Node5 -->
<g id="node6" class="node">
<title>Node5</title>
<g id="a_node6"><a xlink:href="structmn_1_1is__integral_3_01const_01volatile_01_t_01_4.html" target="_top" xlink:title=" ">
<polygon fill="white" stroke="black" points="374.5,-291 374.5,-321 501.5,-321 501.5,-291 374.5,-291"/>
<text text-anchor="start" x="382.5" y="-309" font-family="Helvetica,sans-Serif" font-size="10.00">mn::is_integral&lt; const</text>
<text text-anchor="middle" x="438" y="-298" font-family="Helvetica,sans-Serif" font-size="10.00"> volatile T &gt;</text>
</a>
</g>
</g>
<!-- Node3&#45;&gt;Node5 -->
<g id="edge5" class="edge">
<title>Node3&#45;&gt;Node5</title>
<path fill="none" stroke="midnightblue" d="M294.2,-273.78C318.88,-279.35 348.53,-286.04 374.4,-291.87"/>
<polygon fill="midnightblue" stroke="midnightblue" points="294.84,-270.33 284.31,-271.55 293.3,-277.16 294.84,-270.33"/>
</g>
<!-- Node6 -->
<g id="node7" class="node">
<title>Node6</title>
<g id="a_node7"><a xlink:href="structmn_1_1is__integral_3_01volatile_01_t_01_4.html" target="_top" xlink:title=" ">
<polygon fill="white" stroke="black" points="359,-252.5 359,-271.5 517,-271.5 517,-252.5 359,-252.5"/>
<text text-anchor="middle" x="438" y="-259.5" font-family="Helvetica,sans-Serif" font-size="10.00">mn::is_integral&lt; volatile T &gt;</text>
</a>
</g>
</g>
<!-- Node3&#45;&gt;Node6 -->
<g id="edge6" class="edge">
<title>Node3&#45;&gt;Node6</title>
<path fill="none" stroke="midnightblue" d="M310.36,-262C326.03,-262 342.81,-262 358.86,-262"/>
<polygon fill="midnightblue" stroke="midnightblue" points="310.24,-258.5 300.24,-262 310.24,-265.5 310.24,-258.5"/>
</g>
<!-- Node9 -->
<g id="node10" class="node">
<title>Node9</title>
<g id="a_node10"><a xlink:href="structmn_1_1is__rational_3_01const_01_t_01_4.html" target="_top" xlink:title=" ">
<polygon fill="white" stroke="black" points="364.5,-214.5 364.5,-233.5 511.5,-233.5 511.5,-214.5 364.5,-214.5"/>
<text text-anchor="middle" x="438" y="-221.5" font-family="Helvetica,sans-Serif" font-size="10.00">mn::is_rational&lt; const T &gt;</text>
</a>
</g>
</g>
<!-- Node8&#45;&gt;Node9 -->
<g id="edge9" class="edge">
<title>Node8&#45;&gt;Node9</title>
<path fill="none" stroke="midnightblue" d="M297.09,-194.58C326.97,-200.87 363.46,-208.54 391.68,-214.47"/>
<polygon fill="midnightblue" stroke="midnightblue" points="297.73,-191.14 287.23,-192.51 296.29,-197.99 297.73,-191.14"/>
</g>
<!-- Node10 -->
<g id="node11" class="node">
<title>Node10</title>
<g id="a_node11"><a xlink:href="structmn_1_1is__rational_3_01const_01volatile_01_t_01_4.html" target="_top" xlink:title=" ">
<polygon fill="white" stroke="black" points="374.5,-165 374.5,-195 501.5,-195 501.5,-165 374.5,-165"/>
<text text-anchor="start" x="382.5" y="-183" font-family="Helvetica,sans-Serif" font-size="10.00">mn::is_rational&lt; const</text>
<text text-anchor="middle" x="438" y="-172" font-family="Helvetica,sans-Serif" font-size="10.00"> volatile T &gt;</text>
</a>
</g>
</g>
<!-- Node8&#45;&gt;Node10 -->
<g id="edge10" class="edge">
<title>Node8&#45;&gt;Node10</title>
<path fill="none" stroke="midnightblue" d="M310.29,-181.95C331.1,-181.63 353.88,-181.28 374.3,-180.96"/>
<polygon fill="midnightblue" stroke="midnightblue" points="310.19,-178.45 300.24,-182.1 310.29,-185.45 310.19,-178.45"/>
</g>
<!-- Node11 -->
<g id="node12" class="node">
<title>Node11</title>
<g id="a_node12"><a xlink:href="structmn_1_1is__rational_3_01volatile_01_t_01_4.html" target="_top" xlink:title=" ">
<polygon fill="white" stroke="black" points="359,-126.5 359,-145.5 517,-145.5 517,-126.5 359,-126.5"/>
<text text-anchor="middle" x="438" y="-133.5" font-family="Helvetica,sans-Serif" font-size="10.00">mn::is_rational&lt; volatile T &gt;</text>
</a>
</g>
</g>
<!-- Node8&#45;&gt;Node11 -->
<g id="edge11" class="edge">
<title>Node8&#45;&gt;Node11</title>
<path fill="none" stroke="midnightblue" d="M291.31,-171.12C324.11,-163.21 366.63,-152.96 397.26,-145.58"/>
<polygon fill="midnightblue" stroke="midnightblue" points="290.36,-167.74 281.46,-173.49 292,-174.55 290.36,-167.74"/>
</g>
<!-- Node13 -->
<g id="node14" class="node">
<title>Node13</title>
<g id="a_node14"><a xlink:href="structmn_1_1is__void_3_01const_01_t_01_4.html" target="_top" xlink:title=" ">
<polygon fill="white" stroke="black" points="372.5,-88.5 372.5,-107.5 503.5,-107.5 503.5,-88.5 372.5,-88.5"/>
<text text-anchor="middle" x="438" y="-95.5" font-family="Helvetica,sans-Serif" font-size="10.00">mn::is_void&lt; const T &gt;</text>
</a>
</g>
</g>
<!-- Node12&#45;&gt;Node13 -->
<g id="edge13" class="edge">
<title>Node12&#45;&gt;Node13</title>
<path fill="none" stroke="midnightblue" d="M301.73,-82.74C324.06,-85.26 349.51,-88.13 372.27,-90.7"/>
<polygon fill="midnightblue" stroke="midnightblue" points="302.04,-79.25 291.71,-81.61 301.26,-86.21 302.04,-79.25"/>
</g>
<!-- Node14 -->
<g id="node15" class="node">
<title>Node14</title>
<g id="a_node15"><a xlink:href="structmn_1_1is__void_3_01const_01volatile_01_t_01_4.html" target="_top" xlink:title=" ">
<polygon fill="white" stroke="black" points="383,-39 383,-69 493,-69 493,-39 383,-39"/>
<text text-anchor="start" x="391" y="-57" font-family="Helvetica,sans-Serif" font-size="10.00">mn::is_void&lt; const</text>
<text text-anchor="middle" x="438" y="-46" font-family="Helvetica,sans-Serif" font-size="10.00"> volatile T &gt;</text>
</a>
</g>
</g>
<!-- Node12&#45;&gt;Node14 -->
<g id="edge14" class="edge">
<title>Node12&#45;&gt;Node14</title>
<path fill="none" stroke="midnightblue" d="M301.77,-69.26C327.65,-66.34 357.72,-62.94 382.93,-60.1"/>
<polygon fill="midnightblue" stroke="midnightblue" points="301.26,-65.79 291.71,-70.39 302.04,-72.75 301.26,-65.79"/>
</g>
<!-- Node15 -->
<g id="node16" class="node">
<title>Node15</title>
<g id="a_node16"><a xlink:href="structmn_1_1is__void_3_01volatile_01_t_01_4.html" target="_top" xlink:title=" ">
<polygon fill="white" stroke="black" points="367.5,-0.5 367.5,-19.5 508.5,-19.5 508.5,-0.5 367.5,-0.5"/>
<text text-anchor="middle" x="438" y="-7.5" font-family="Helvetica,sans-Serif" font-size="10.00">mn::is_void&lt; volatile T &gt;</text>
</a>
</g>
</g>
<!-- Node12&#45;&gt;Node15 -->
<g id="edge15" class="edge">
<title>Node12&#45;&gt;Node15</title>
<path fill="none" stroke="midnightblue" d="M272.6,-62.31C295.95,-52.2 329.09,-38.6 359,-29 369.88,-25.51 381.8,-22.3 392.96,-19.56"/>
<polygon fill="midnightblue" stroke="midnightblue" points="270.99,-59.19 263.23,-66.4 273.79,-65.6 270.99,-59.19"/>
</g>
</g>
</svg>
