<?xml version="1.0" encoding="UTF-8" standalone="no"?>
<!DOCTYPE svg PUBLIC "-//W3C//DTD SVG 1.1//EN"
 "http://www.w3.org/Graphics/SVG/1.1/DTD/svg11.dtd">
<!-- Generated by graphviz version 2.46.0 (0)
 -->
<!-- Title: Graphical Class Hierarchy Pages: 1 -->
<svg width="840pt" height="157pt"
 viewBox="0.00 0.00 840.00 156.50" xmlns="http://www.w3.org/2000/svg" xmlns:xlink="http://www.w3.org/1999/xlink">
<g id="graph0" class="graph" transform="scale(1 1) rotate(0) translate(4 152.5)">
<title>Graphical Class Hierarchy</title>
<polygon fill="white" stroke="transparent" points="-4,4 -4,-152.5 836,-152.5 836,4 -4,4"/>
<!-- Node0 -->
<g id="node1" class="node">
<title>Node0</title>
<g id="a_node1"><a xlink:href="structmn_1_1container_1_1basic__vector__storage.html" target="_top" xlink:title=" ">
<polygon fill="white" stroke="black" points="0,-62.5 0,-92.5 178,-92.5 178,-62.5 0,-62.5"/>
<text text-anchor="start" x="8" y="-80.5" font-family="Helvetica,sans-Serif" font-size="10.00">mn::container::basic</text>
<text text-anchor="middle" x="89" y="-69.5" font-family="Helvetica,sans-Serif" font-size="10.00">_vector_storage&lt; T, TAllocator &gt;</text>
</a>
</g>
</g>
<!-- Node1 -->
<g id="node2" class="node">
<title>Node1</title>
<g id="a_node2"><a xlink:href="classmn_1_1container_1_1basic__vector.html" target="_top" xlink:title=" ">
<polygon fill="white" stroke="black" points="214,-85 214,-148 417,-148 417,-85 214,-85"/>
<text text-anchor="start" x="222" y="-136" font-family="Helvetica,sans-Serif" font-size="10.00">mn::container::basic</text>
<text text-anchor="start" x="222" y="-125" font-family="Helvetica,sans-Serif" font-size="10.00">_vector&lt; basic_pair&lt;</text>
<text text-anchor="start" x="222" y="-114" font-family="Helvetica,sans-Serif" font-size="10.00"> TKey, TValue &gt;, TAllocator,</text>
<text text-anchor="start" x="222" y="-103" font-family="Helvetica,sans-Serif" font-size="10.00"> basic_vector_storage&lt; basic</text>
<text text-anchor="middle" x="315.5" y="-92" font-family="Helvetica,sans-Serif" font-size="10.00">_pair&lt; TKey, TValue &gt;, TAllocator &gt; &gt;</text>
</a>
</g>
</g>
<!-- Node0&#45;&gt;Node1 -->
<g id="edge1" class="edge">
<title>Node0&#45;&gt;Node1</title>
<path fill="none" stroke="#8b1a1a" d="M186.59,-94.28C195.61,-95.85 204.77,-97.44 213.83,-99.01"/>
<polygon fill="#8b1a1a" stroke="#8b1a1a" points="186.93,-90.79 176.48,-92.52 185.73,-97.68 186.93,-90.79"/>
</g>
<!-- Node3 -->
<g id="node4" class="node">
<title>Node3</title>
<g id="a_node4"><a xlink:href="classmn_1_1container_1_1basic__vector.html" target="_top" xlink:title=" ">
<polygon fill="white" stroke="black" points="251.5,-22 251.5,-63 379.5,-63 379.5,-22 251.5,-22"/>
<text text-anchor="start" x="259.5" y="-51" font-family="Helvetica,sans-Serif" font-size="10.00">mn::container::basic</text>
<text text-anchor="start" x="259.5" y="-40" font-family="Helvetica,sans-Serif" font-size="10.00">_vector&lt; T, TAllocator,</text>
<text text-anchor="middle" x="315.5" y="-29" font-family="Helvetica,sans-Serif" font-size="10.00"> TStorage &gt;</text>
</a>
</g>
</g>
<!-- Node0&#45;&gt;Node3 -->
<g id="edge3" class="edge">
<title>Node0&#45;&gt;Node3</title>
<path fill="none" stroke="#8b1a1a" d="M188.19,-62.19C209.59,-58.86 231.69,-55.41 251.3,-52.35"/>
<polygon fill="#8b1a1a" stroke="#8b1a1a" points="187.43,-58.77 178.08,-63.77 188.5,-65.69 187.43,-58.77"/>
</g>
<!-- Node2 -->
<g id="node3" class="node">
<title>Node2</title>
<g id="a_node3"><a xlink:href="classmn_1_1container_1_1basic__sorted__vector.html" target="_top" xlink:title=" ">
<polygon fill="white" stroke="black" points="467.5,-93.5 467.5,-145.5 633.5,-145.5 633.5,-93.5 467.5,-93.5"/>
<text text-anchor="start" x="475.5" y="-133.5" font-family="Helvetica,sans-Serif" font-size="10.00">mn::container::basic</text>
<text text-anchor="start" x="475.5" y="-122.5" font-family="Helvetica,sans-Serif" font-size="10.00">_sorted_vector&lt; TKey,</text>
<text text-anchor="start" x="475.5" y="-111.5" font-family="Helvetica,sans-Serif" font-size="10.00"> TValue, TAllocator, TCompare,</text>
<text text-anchor="middle" x="550.5" y="-100.5" font-family="Helvetica,sans-Serif" font-size="10.00"> TStorage &gt;</text>
</a>
</g>
</g>
<!-- Node1&#45;&gt;Node2 -->
<g id="edge2" class="edge">
<title>Node1&#45;&gt;Node2</title>
<path fill="none" stroke="#8b1a1a" d="M427.25,-117.93C440.7,-118.1 454.25,-118.27 467.18,-118.44"/>
<polygon fill="#8b1a1a" stroke="#8b1a1a" points="427.05,-114.42 417,-117.79 426.96,-121.42 427.05,-114.42"/>
</g>
<!-- Node4 -->
<g id="node5" class="node">
<title>Node4</title>
<g id="a_node5"><a xlink:href="classmn_1_1container_1_1basic__sorted__vector.html" target="_top" xlink:title=" ">
<polygon fill="white" stroke="black" points="453,-0.5 453,-74.5 648,-74.5 648,-0.5 453,-0.5"/>
<text text-anchor="start" x="461" y="-62.5" font-family="Helvetica,sans-Serif" font-size="10.00">mn::container::basic</text>
<text text-anchor="start" x="461" y="-51.5" font-family="Helvetica,sans-Serif" font-size="10.00">_sorted_vector&lt; TKey,</text>
<text text-anchor="start" x="461" y="-40.5" font-family="Helvetica,sans-Serif" font-size="10.00"> TValue, TAllocator, mn</text>
<text text-anchor="start" x="461" y="-29.5" font-family="Helvetica,sans-Serif" font-size="10.00">::less&lt; TKey &gt;, fixed_vector</text>
<text text-anchor="start" x="461" y="-18.5" font-family="Helvetica,sans-Serif" font-size="10.00">_storage&lt; basic_pair&lt; TKey,</text>
<text text-anchor="middle" x="550.5" y="-7.5" font-family="Helvetica,sans-Serif" font-size="10.00"> TValue &gt;, TAllocator, TCapacity &gt; &gt;</text>
</a>
</g>
</g>
<!-- Node3&#45;&gt;Node4 -->
<g id="edge4" class="edge">
<title>Node3&#45;&gt;Node4</title>
<path fill="none" stroke="#8b1a1a" d="M389.79,-40.93C409.72,-40.5 431.63,-40.03 452.66,-39.58"/>
<polygon fill="#8b1a1a" stroke="#8b1a1a" points="389.48,-37.43 379.55,-41.15 389.63,-44.43 389.48,-37.43"/>
</g>
<!-- Node5 -->
<g id="node6" class="node">
<title>Node5</title>
<g id="a_node6"><a xlink:href="classmn_1_1container_1_1basic__fixed__sorted__vector.html" target="_top" xlink:title=" ">
<polygon fill="white" stroke="black" points="684,-11.5 684,-63.5 832,-63.5 832,-11.5 684,-11.5"/>
<text text-anchor="start" x="692" y="-51.5" font-family="Helvetica,sans-Serif" font-size="10.00">mn::container::basic</text>
<text text-anchor="start" x="692" y="-40.5" font-family="Helvetica,sans-Serif" font-size="10.00">_fixed_sorted_vector</text>
<text text-anchor="start" x="692" y="-29.5" font-family="Helvetica,sans-Serif" font-size="10.00">&lt; TKey, TValue, TCapacity,</text>
<text text-anchor="middle" x="758" y="-18.5" font-family="Helvetica,sans-Serif" font-size="10.00"> TAllocator, TCompare &gt;</text>
</a>
</g>
</g>
<!-- Node4&#45;&gt;Node5 -->
<g id="edge5" class="edge">
<title>Node4&#45;&gt;Node5</title>
<path fill="none" stroke="midnightblue" d="M658.35,-37.5C666.96,-37.5 675.53,-37.5 683.82,-37.5"/>
<polygon fill="midnightblue" stroke="midnightblue" points="658.23,-34 648.23,-37.5 658.23,-41 658.23,-34"/>
</g>
</g>
</svg>
