<?xml version="1.0" encoding="UTF-8" standalone="no"?>
<!DOCTYPE svg PUBLIC "-//W3C//DTD SVG 1.1//EN"
 "http://www.w3.org/Graphics/SVG/1.1/DTD/svg11.dtd">
<!-- Generated by graphviz version 2.46.0 (0)
 -->
<!-- Title: mn::internal::res_of&lt; G(Args...), void_t&lt; invoke_t&lt; G, Args... &gt; &gt; &gt; Pages: 1 -->
<svg width="166pt" height="117pt"
 viewBox="0.00 0.00 166.00 117.00" xmlns="http://www.w3.org/2000/svg" xmlns:xlink="http://www.w3.org/1999/xlink">
<g id="graph0" class="graph" transform="scale(1 1) rotate(0) translate(4 113)">
<title>mn::internal::res_of&lt; G(Args...), void_t&lt; invoke_t&lt; G, Args... &gt; &gt; &gt;</title>
<polygon fill="white" stroke="transparent" points="-4,4 -4,-113 162,-113 162,4 -4,4"/>
<!-- Node1 -->
<g id="node1" class="node">
<title>Node1</title>
<g id="a_node1"><a xlink:title=" ">
<polygon fill="#bfbfbf" stroke="black" points="0,-0.5 0,-41.5 158,-41.5 158,-0.5 0,-0.5"/>
<text text-anchor="start" x="8" y="-29.5" font-family="Helvetica,sans-Serif" font-size="10.00">mn::internal::res_of</text>
<text text-anchor="start" x="8" y="-18.5" font-family="Helvetica,sans-Serif" font-size="10.00">&lt; G(Args...), void_t</text>
<text text-anchor="middle" x="79" y="-7.5" font-family="Helvetica,sans-Serif" font-size="10.00">&lt; invoke_t&lt; G, Args... &gt; &gt; &gt;</text>
</a>
</g>
</g>
<!-- Node2 -->
<g id="node2" class="node">
<title>Node2</title>
<g id="a_node2"><a xlink:href="structmn_1_1tag.html" target="_top" xlink:title=" ">
<polygon fill="white" stroke="black" points="21.5,-78.5 21.5,-108.5 136.5,-108.5 136.5,-78.5 21.5,-78.5"/>
<text text-anchor="start" x="29.5" y="-96.5" font-family="Helvetica,sans-Serif" font-size="10.00">mn::tag&lt; invoke_t&lt;</text>
<text text-anchor="middle" x="79" y="-85.5" font-family="Helvetica,sans-Serif" font-size="10.00"> G, Args... &gt; &gt;</text>
</a>
</g>
</g>
<!-- Node2&#45;&gt;Node1 -->
<g id="edge1" class="edge">
<title>Node2&#45;&gt;Node1</title>
<path fill="none" stroke="midnightblue" d="M79,-67.98C79,-59.35 79,-49.76 79,-41.59"/>
<polygon fill="midnightblue" stroke="midnightblue" points="75.5,-68.23 79,-78.23 82.5,-68.23 75.5,-68.23"/>
</g>
</g>
</svg>
