<?xml version="1.0" encoding="UTF-8" standalone="no"?>
<!DOCTYPE svg PUBLIC "-//W3C//DTD SVG 1.1//EN"
 "http://www.w3.org/Graphics/SVG/1.1/DTD/svg11.dtd">
<!-- Generated by graphviz version 2.46.0 (0)
 -->
<!-- Title: mn::small_task&lt; R(Args...), sz, algn &gt; Pages: 1 -->
<svg width="156pt" height="117pt"
 viewBox="0.00 0.00 156.00 117.00" xmlns="http://www.w3.org/2000/svg" xmlns:xlink="http://www.w3.org/1999/xlink">
<g id="graph0" class="graph" transform="scale(1 1) rotate(0) translate(4 113)">
<title>mn::small_task&lt; R(Args...), sz, algn &gt;</title>
<polygon fill="white" stroke="transparent" points="-4,4 -4,-113 152,-113 152,4 -4,4"/>
<!-- Node1 -->
<g id="node1" class="node">
<title>Node1</title>
<g id="a_node1"><a xlink:title=" ">
<polygon fill="#bfbfbf" stroke="black" points="0,-0.5 0,-30.5 148,-30.5 148,-0.5 0,-0.5"/>
<text text-anchor="start" x="8" y="-18.5" font-family="Helvetica,sans-Serif" font-size="10.00">mn::small_task&lt; R(Args...)</text>
<text text-anchor="middle" x="74" y="-7.5" font-family="Helvetica,sans-Serif" font-size="10.00">, sz, algn &gt;</text>
</a>
</g>
</g>
<!-- Node2 -->
<g id="node2" class="node">
<title>Node2</title>
<g id="a_node2"><a xlink:href="namespacemn.html#namespacemn" target="_top" xlink:title=" ">
<polygon fill="white" stroke="black" points="16,-78.5 16,-108.5 132,-108.5 132,-78.5 16,-78.5"/>
<text text-anchor="start" x="24" y="-96.5" font-family="Helvetica,sans-Serif" font-size="10.00">mn::aligned_storage</text>
<text text-anchor="middle" x="74" y="-85.5" font-family="Helvetica,sans-Serif" font-size="10.00">_t&lt; sz, algn &gt;</text>
</a>
</g>
</g>
<!-- Node2&#45;&gt;Node1 -->
<g id="edge1" class="edge">
<title>Node2&#45;&gt;Node1</title>
<path fill="none" stroke="#9a32cd" stroke-dasharray="5,2" d="M74,-68.09C74,-55.76 74,-41.22 74,-30.73"/>
<polygon fill="#9a32cd" stroke="#9a32cd" points="70.5,-68.2 74,-78.2 77.5,-68.21 70.5,-68.2"/>
<text text-anchor="middle" x="86.5" y="-52" font-family="Helvetica,sans-Serif" font-size="10.00"> data</text>
</g>
</g>
</svg>
