<?xml version="1.0" encoding="UTF-8" standalone="no"?>
<!DOCTYPE svg PUBLIC "-//W3C//DTD SVG 1.1//EN"
 "http://www.w3.org/Graphics/SVG/1.1/DTD/svg11.dtd">
<!-- Generated by graphviz version 2.47.3 (0)
 -->
<!-- Title: mn::is_reference&lt; T &gt; Pages: 1 -->
<svg width="348pt" height="61pt"
 viewBox="0.00 0.00 348.00 61.00" xmlns="http://www.w3.org/2000/svg" xmlns:xlink="http://www.w3.org/1999/xlink">
<g id="graph0" class="graph" transform="scale(1 1) rotate(0) translate(4 57)">
<title>mn::is_reference&lt; T &gt;</title>
<polygon fill="white" stroke="transparent" points="-4,4 -4,-57 344,-57 344,4 -4,4"/>
<!-- Node1 -->
<g id="node1" class="node">
<title>Node1</title>
<g id="a_node1"><a xlink:title=" ">
<polygon fill="#bfbfbf" stroke="black" points="213,-17 213,-36 340,-36 340,-17 213,-17"/>
<text text-anchor="middle" x="276.5" y="-24" font-family="Helvetica,sans-Serif" font-size="10.00">mn::is_reference&lt; T &gt;</text>
</a>
</g>
</g>
<!-- Node2 -->
<g id="node2" class="node">
<title>Node2</title>
<g id="a_node2"><a xlink:href="structmn_1_1integral__constant.html" target="_top" xlink:title=" ">
<polygon fill="white" stroke="black" points="0,-0.5 0,-52.5 177,-52.5 177,-0.5 0,-0.5"/>
<text text-anchor="start" x="8" y="-40.5" font-family="Helvetica,sans-Serif" font-size="10.00">mn::integral_constant</text>
<text text-anchor="start" x="8" y="-29.5" font-family="Helvetica,sans-Serif" font-size="10.00">&lt; bool, is_lvalue_reference</text>
<text text-anchor="start" x="8" y="-18.5" font-family="Helvetica,sans-Serif" font-size="10.00">&lt; T &gt;::value|is_rvalue_reference</text>
<text text-anchor="middle" x="88.5" y="-7.5" font-family="Helvetica,sans-Serif" font-size="10.00">&lt; T &gt;::value &gt;</text>
</a>
</g>
</g>
<!-- Node2&#45;&gt;Node1 -->
<g id="edge1" class="edge">
<title>Node2&#45;&gt;Node1</title>
<path fill="none" stroke="midnightblue" d="M187.24,-26.5C195.91,-26.5 204.53,-26.5 212.79,-26.5"/>
<polygon fill="midnightblue" stroke="midnightblue" points="187.05,-23 177.05,-26.5 187.05,-30 187.05,-23"/>
</g>
</g>
</svg>
