<?xml version="1.0" encoding="UTF-8" standalone="no"?>
<!DOCTYPE svg PUBLIC "-//W3C//DTD SVG 1.1//EN"
 "http://www.w3.org/Graphics/SVG/1.1/DTD/svg11.dtd">
<!-- Generated by graphviz version 2.46.0 (0)
 -->
<!-- Title: mn::is_rational&lt; const volatile T &gt; Pages: 1 -->
<svg width="135pt" height="162pt"
 viewBox="0.00 0.00 135.00 162.00" xmlns="http://www.w3.org/2000/svg" xmlns:xlink="http://www.w3.org/1999/xlink">
<g id="graph0" class="graph" transform="scale(1 1) rotate(0) translate(4 158)">
<title>mn::is_rational&lt; const volatile T &gt;</title>
<polygon fill="white" stroke="transparent" points="-4,4 -4,-158 131,-158 131,4 -4,4"/>
<!-- Node1 -->
<g id="node1" class="node">
<title>Node1</title>
<g id="a_node1"><a xlink:title=" ">
<polygon fill="#bfbfbf" stroke="black" points="0,-0.5 0,-30.5 127,-30.5 127,-0.5 0,-0.5"/>
<text text-anchor="start" x="8" y="-18.5" font-family="Helvetica,sans-Serif" font-size="10.00">mn::is_rational&lt; const</text>
<text text-anchor="middle" x="63.5" y="-7.5" font-family="Helvetica,sans-Serif" font-size="10.00"> volatile T &gt;</text>
</a>
</g>
</g>
<!-- Node2 -->
<g id="node2" class="node">
<title>Node2</title>
<g id="a_node2"><a xlink:href="structmn_1_1is__rational.html" target="_top" xlink:title=" ">
<polygon fill="white" stroke="black" points="4.5,-67.5 4.5,-86.5 122.5,-86.5 122.5,-67.5 4.5,-67.5"/>
<text text-anchor="middle" x="63.5" y="-74.5" font-family="Helvetica,sans-Serif" font-size="10.00">mn::is_rational&lt; T &gt;</text>
</a>
</g>
</g>
<!-- Node2&#45;&gt;Node1 -->
<g id="edge1" class="edge">
<title>Node2&#45;&gt;Node1</title>
<path fill="none" stroke="midnightblue" d="M63.5,-57.23C63.5,-48.59 63.5,-38.5 63.5,-30.52"/>
<polygon fill="midnightblue" stroke="midnightblue" points="60,-57.48 63.5,-67.48 67,-57.48 60,-57.48"/>
</g>
<!-- Node3 -->
<g id="node3" class="node">
<title>Node3</title>
<g id="a_node3"><a xlink:href="structmn_1_1integral__constant.html" target="_top" xlink:title=" ">
<polygon fill="white" stroke="black" points="2,-123.5 2,-153.5 125,-153.5 125,-123.5 2,-123.5"/>
<text text-anchor="start" x="10" y="-141.5" font-family="Helvetica,sans-Serif" font-size="10.00">mn::integral_constant</text>
<text text-anchor="middle" x="63.5" y="-130.5" font-family="Helvetica,sans-Serif" font-size="10.00">&lt; bool, false &gt;</text>
</a>
</g>
</g>
<!-- Node3&#45;&gt;Node2 -->
<g id="edge2" class="edge">
<title>Node3&#45;&gt;Node2</title>
<path fill="none" stroke="midnightblue" d="M63.5,-113.29C63.5,-103.86 63.5,-93.65 63.5,-86.66"/>
<polygon fill="midnightblue" stroke="midnightblue" points="60,-113.4 63.5,-123.4 67,-113.4 60,-113.4"/>
</g>
</g>
</svg>
