<?xml version="1.0" encoding="UTF-8" standalone="no"?>
<!DOCTYPE svg PUBLIC "-//W3C//DTD SVG 1.1//EN"
 "http://www.w3.org/Graphics/SVG/1.1/DTD/svg11.dtd">
<!-- Generated by graphviz version 2.47.3 (0)
 -->
<!-- Title: mn::is_signed&lt; T &gt; Pages: 1 -->
<svg width="413pt" height="116pt"
 viewBox="0.00 0.00 413.00 116.00" xmlns="http://www.w3.org/2000/svg" xmlns:xlink="http://www.w3.org/1999/xlink">
<g id="graph0" class="graph" transform="scale(1 1) rotate(0) translate(4 112)">
<title>mn::is_signed&lt; T &gt;</title>
<polygon fill="white" stroke="transparent" points="-4,4 -4,-112 409,-112 409,4 -4,4"/>
<!-- Node1 -->
<g id="node1" class="node">
<title>Node1</title>
<g id="a_node1"><a xlink:title="is_signed">
<polygon fill="#bfbfbf" stroke="black" points="104,-44.5 104,-63.5 217,-63.5 217,-44.5 104,-44.5"/>
<text text-anchor="middle" x="160.5" y="-51.5" font-family="Helvetica,sans-Serif" font-size="10.00">mn::is_signed&lt; T &gt;</text>
</a>
</g>
</g>
<!-- Node3 -->
<g id="node3" class="node">
<title>Node3</title>
<g id="a_node3"><a xlink:href="structmn_1_1is__signed_3_01const_01T_01_4.html" target="_top" xlink:title=" ">
<polygon fill="white" stroke="black" points="258,-88.5 258,-107.5 400,-107.5 400,-88.5 258,-88.5"/>
<text text-anchor="middle" x="329" y="-95.5" font-family="Helvetica,sans-Serif" font-size="10.00">mn::is_signed&lt; const T &gt;</text>
</a>
</g>
</g>
<!-- Node1&#45;&gt;Node3 -->
<g id="edge2" class="edge">
<title>Node1&#45;&gt;Node3</title>
<path fill="none" stroke="midnightblue" d="M205.81,-66.29C220.78,-70.39 237.6,-74.95 253,-79 264.95,-82.15 278,-85.48 289.81,-88.47"/>
<polygon fill="midnightblue" stroke="midnightblue" points="206.36,-62.81 195.79,-63.53 204.5,-69.55 206.36,-62.81"/>
</g>
<!-- Node4 -->
<g id="node4" class="node">
<title>Node4</title>
<g id="a_node4"><a xlink:href="structmn_1_1is__signed_3_01const_01volatile_01T_01_4.html" target="_top" xlink:title=" ">
<polygon fill="white" stroke="black" points="268,-39 268,-69 390,-69 390,-39 268,-39"/>
<text text-anchor="start" x="276" y="-57" font-family="Helvetica,sans-Serif" font-size="10.00">mn::is_signed&lt; const</text>
<text text-anchor="middle" x="329" y="-46" font-family="Helvetica,sans-Serif" font-size="10.00"> volatile T &gt;</text>
</a>
</g>
</g>
<!-- Node1&#45;&gt;Node4 -->
<g id="edge3" class="edge">
<title>Node1&#45;&gt;Node4</title>
<path fill="none" stroke="midnightblue" d="M227.48,-54C240.84,-54 254.82,-54 267.96,-54"/>
<polygon fill="midnightblue" stroke="midnightblue" points="227.41,-50.5 217.41,-54 227.41,-57.5 227.41,-50.5"/>
</g>
<!-- Node5 -->
<g id="node5" class="node">
<title>Node5</title>
<g id="a_node5"><a xlink:href="structmn_1_1is__signed_3_01volatile_01T_01_4.html" target="_top" xlink:title=" ">
<polygon fill="white" stroke="black" points="253,-0.5 253,-19.5 405,-19.5 405,-0.5 253,-0.5"/>
<text text-anchor="middle" x="329" y="-7.5" font-family="Helvetica,sans-Serif" font-size="10.00">mn::is_signed&lt; volatile T &gt;</text>
</a>
</g>
</g>
<!-- Node1&#45;&gt;Node5 -->
<g id="edge4" class="edge">
<title>Node1&#45;&gt;Node5</title>
<path fill="none" stroke="midnightblue" d="M205.81,-41.71C220.78,-37.61 237.6,-33.05 253,-29 264.95,-25.85 278,-22.52 289.81,-19.53"/>
<polygon fill="midnightblue" stroke="midnightblue" points="204.5,-38.45 195.79,-44.47 206.36,-45.19 204.5,-38.45"/>
</g>
<!-- Node2 -->
<g id="node2" class="node">
<title>Node2</title>
<g id="a_node2"><a xlink:href="structmn_1_1integral__constant.html" target="_top" xlink:title=" ">
<polygon fill="white" stroke="black" points="0,-44.5 0,-63.5 68,-63.5 68,-44.5 0,-44.5"/>
<text text-anchor="middle" x="34" y="-51.5" font-family="Helvetica,sans-Serif" font-size="10.00">false_type</text>
</a>
</g>
</g>
<!-- Node2&#45;&gt;Node1 -->
<g id="edge1" class="edge">
<title>Node2&#45;&gt;Node1</title>
<path fill="none" stroke="midnightblue" d="M78.15,-54C86.38,-54 95.11,-54 103.67,-54"/>
<polygon fill="midnightblue" stroke="midnightblue" points="78.04,-50.5 68.04,-54 78.04,-57.5 78.04,-50.5"/>
</g>
</g>
</svg>
