<?xml version="1.0" encoding="UTF-8" standalone="no"?>
<!DOCTYPE svg PUBLIC "-//W3C//DTD SVG 1.1//EN"
 "http://www.w3.org/Graphics/SVG/1.1/DTD/svg11.dtd">
<!-- Generated by graphviz version 2.47.3 (0)
 -->
<!-- Title: mn::is_arithmetic&lt; T &gt; Pages: 1 -->
<svg width="306pt" height="61pt"
 viewBox="0.00 0.00 306.00 61.00" xmlns="http://www.w3.org/2000/svg" xmlns:xlink="http://www.w3.org/1999/xlink">
<g id="graph0" class="graph" transform="scale(1 1) rotate(0) translate(4 57)">
<title>mn::is_arithmetic&lt; T &gt;</title>
<polygon fill="white" stroke="transparent" points="-4,4 -4,-57 302,-57 302,4 -4,4"/>
<!-- Node1 -->
<g id="node1" class="node">
<title>Node1</title>
<g id="a_node1"><a xlink:title="is_arithmetic">
<polygon fill="#bfbfbf" stroke="black" points="167,-17 167,-36 298,-36 298,-17 167,-17"/>
<text text-anchor="middle" x="232.5" y="-24" font-family="Helvetica,sans-Serif" font-size="10.00">mn::is_arithmetic&lt; T &gt;</text>
</a>
</g>
</g>
<!-- Node2 -->
<g id="node2" class="node">
<title>Node2</title>
<g id="a_node2"><a xlink:href="structmn_1_1integral__constant.html" target="_top" xlink:title=" ">
<polygon fill="white" stroke="black" points="0,-0.5 0,-52.5 131,-52.5 131,-0.5 0,-0.5"/>
<text text-anchor="start" x="8" y="-40.5" font-family="Helvetica,sans-Serif" font-size="10.00">mn::integral_constant</text>
<text text-anchor="start" x="8" y="-29.5" font-family="Helvetica,sans-Serif" font-size="10.00">&lt; bool, !(is_integral</text>
<text text-anchor="start" x="8" y="-18.5" font-family="Helvetica,sans-Serif" font-size="10.00">&lt; T &gt;::value|is_floating</text>
<text text-anchor="middle" x="65.5" y="-7.5" font-family="Helvetica,sans-Serif" font-size="10.00">_point&lt; T &gt;::value) &gt;</text>
</a>
</g>
</g>
<!-- Node2&#45;&gt;Node1 -->
<g id="edge1" class="edge">
<title>Node2&#45;&gt;Node1</title>
<path fill="none" stroke="midnightblue" d="M141.24,-26.5C149.82,-26.5 158.52,-26.5 166.95,-26.5"/>
<polygon fill="midnightblue" stroke="midnightblue" points="141.24,-23 131.24,-26.5 141.24,-30 141.24,-23"/>
</g>
</g>
</svg>
