<?xml version="1.0" encoding="UTF-8" standalone="no"?>
<!DOCTYPE svg PUBLIC "-//W3C//DTD SVG 1.1//EN"
 "http://www.w3.org/Graphics/SVG/1.1/DTD/svg11.dtd">
<!-- Generated by graphviz version 2.46.0 (0)
 -->
<!-- Title: mn::container::basic_triple&lt; TFIRST, TSECOND, TTHIRD &gt; Pages: 1 -->
<svg width="157pt" height="139pt"
 viewBox="0.00 0.00 157.00 139.00" xmlns="http://www.w3.org/2000/svg" xmlns:xlink="http://www.w3.org/1999/xlink">
<g id="graph0" class="graph" transform="scale(1 1) rotate(0) translate(4 135)">
<title>mn::container::basic_triple&lt; TFIRST, TSECOND, TTHIRD &gt;</title>
<polygon fill="white" stroke="transparent" points="-4,4 -4,-135 153,-135 153,4 -4,4"/>
<!-- Node1 -->
<g id="node1" class="node">
<title>Node1</title>
<g id="a_node1"><a xlink:title=" ">
<polygon fill="#bfbfbf" stroke="black" points="0,-89.5 0,-130.5 149,-130.5 149,-89.5 0,-89.5"/>
<text text-anchor="start" x="8" y="-118.5" font-family="Helvetica,sans-Serif" font-size="10.00">mn::container::basic</text>
<text text-anchor="start" x="8" y="-107.5" font-family="Helvetica,sans-Serif" font-size="10.00">_triple&lt; TFIRST, TSECOND,</text>
<text text-anchor="middle" x="74.5" y="-96.5" font-family="Helvetica,sans-Serif" font-size="10.00"> TTHIRD &gt;</text>
</a>
</g>
</g>
<!-- Node2 -->
<g id="node2" class="node">
<title>Node2</title>
<g id="a_node2"><a xlink:href="classmn_1_1basic__iterator__triple.html" target="_top" xlink:title=" ">
<polygon fill="white" stroke="black" points="17,-0.5 17,-52.5 132,-52.5 132,-0.5 17,-0.5"/>
<text text-anchor="start" x="25" y="-40.5" font-family="Helvetica,sans-Serif" font-size="10.00">mn::basic_iterator</text>
<text text-anchor="start" x="25" y="-29.5" font-family="Helvetica,sans-Serif" font-size="10.00">_triple&lt; TIterator,</text>
<text text-anchor="start" x="25" y="-18.5" font-family="Helvetica,sans-Serif" font-size="10.00"> UIterator, VIterator,</text>
<text text-anchor="middle" x="74.5" y="-7.5" font-family="Helvetica,sans-Serif" font-size="10.00"> TCategory &gt;</text>
</a>
</g>
</g>
<!-- Node1&#45;&gt;Node2 -->
<g id="edge1" class="edge">
<title>Node1&#45;&gt;Node2</title>
<path fill="none" stroke="midnightblue" d="M74.5,-79.12C74.5,-70.41 74.5,-60.99 74.5,-52.61"/>
<polygon fill="midnightblue" stroke="midnightblue" points="71,-79.27 74.5,-89.27 78,-79.27 71,-79.27"/>
</g>
</g>
</svg>
