<?xml version="1.0" encoding="UTF-8" standalone="no"?>
<!DOCTYPE svg PUBLIC "-//W3C//DTD SVG 1.1//EN"
 "http://www.w3.org/Graphics/SVG/1.1/DTD/svg11.dtd">
<!-- Generated by graphviz version 2.46.0 (0)
 -->
<!-- Title: mn::decay&lt; T &gt; Pages: 1 -->
<svg width="175pt" height="330pt"
 viewBox="0.00 0.00 175.00 330.00" xmlns="http://www.w3.org/2000/svg" xmlns:xlink="http://www.w3.org/1999/xlink">
<g id="graph0" class="graph" transform="scale(1 1) rotate(0) translate(4 326)">
<title>mn::decay&lt; T &gt;</title>
<polygon fill="white" stroke="transparent" points="-4,4 -4,-326 171,-326 171,4 -4,4"/>
<!-- Node1 -->
<g id="node1" class="node">
<title>Node1</title>
<g id="a_node1"><a xlink:title=" ">
<polygon fill="#bfbfbf" stroke="black" points="35.5,-0.5 35.5,-19.5 131.5,-19.5 131.5,-0.5 35.5,-0.5"/>
<text text-anchor="middle" x="83.5" y="-7.5" font-family="Helvetica,sans-Serif" font-size="10.00">mn::decay&lt; T &gt;</text>
</a>
</g>
</g>
<!-- Node2 -->
<g id="node2" class="node">
<title>Node2</title>
<g id="a_node2"><a xlink:href="structmn_1_1decay2.html" target="_top" xlink:title=" ">
<polygon fill="white" stroke="black" points="22.5,-56.5 22.5,-86.5 144.5,-86.5 144.5,-56.5 22.5,-56.5"/>
<text text-anchor="start" x="30.5" y="-74.5" font-family="Helvetica,sans-Serif" font-size="10.00">mn::decay2&lt; remove</text>
<text text-anchor="middle" x="83.5" y="-63.5" font-family="Helvetica,sans-Serif" font-size="10.00">_reference_t&lt; T &gt; &gt;</text>
</a>
</g>
</g>
<!-- Node2&#45;&gt;Node1 -->
<g id="edge1" class="edge">
<title>Node2&#45;&gt;Node1</title>
<path fill="none" stroke="midnightblue" d="M83.5,-46.29C83.5,-36.86 83.5,-26.65 83.5,-19.66"/>
<polygon fill="midnightblue" stroke="midnightblue" points="80,-46.4 83.5,-56.4 87,-46.4 80,-46.4"/>
</g>
<!-- Node3 -->
<g id="node3" class="node">
<title>Node3</title>
<g id="a_node3"><a xlink:href="structmn_1_1decay3.html" target="_top" xlink:title=" ">
<polygon fill="white" stroke="black" points="32.5,-123.5 32.5,-142.5 134.5,-142.5 134.5,-123.5 32.5,-123.5"/>
<text text-anchor="middle" x="83.5" y="-130.5" font-family="Helvetica,sans-Serif" font-size="10.00">mn::decay3&lt; T &gt;</text>
</a>
</g>
</g>
<!-- Node3&#45;&gt;Node2 -->
<g id="edge2" class="edge">
<title>Node3&#45;&gt;Node2</title>
<path fill="none" stroke="midnightblue" d="M83.5,-113.23C83.5,-104.59 83.5,-94.5 83.5,-86.52"/>
<polygon fill="midnightblue" stroke="midnightblue" points="80,-113.48 83.5,-123.48 87,-113.48 80,-113.48"/>
</g>
<!-- Node4 -->
<g id="node4" class="node">
<title>Node4</title>
<g id="a_node4"><a xlink:href="structmn_1_1remove__cv.html" target="_top" xlink:title=" ">
<polygon fill="white" stroke="black" points="23,-179.5 23,-198.5 144,-198.5 144,-179.5 23,-179.5"/>
<text text-anchor="middle" x="83.5" y="-186.5" font-family="Helvetica,sans-Serif" font-size="10.00">mn::remove_cv&lt; T &gt;</text>
</a>
</g>
</g>
<!-- Node4&#45;&gt;Node3 -->
<g id="edge3" class="edge">
<title>Node4&#45;&gt;Node3</title>
<path fill="none" stroke="midnightblue" d="M83.5,-168.8C83.5,-159.91 83.5,-149.78 83.5,-142.75"/>
<polygon fill="midnightblue" stroke="midnightblue" points="80,-169.08 83.5,-179.08 87,-169.08 80,-169.08"/>
</g>
<!-- Node5 -->
<g id="node5" class="node">
<title>Node5</title>
<g id="a_node5"><a xlink:href="structmn_1_1remove__const.html" target="_top" xlink:title=" ">
<polygon fill="white" stroke="black" points="0,-235.5 0,-265.5 167,-265.5 167,-235.5 0,-235.5"/>
<text text-anchor="start" x="8" y="-253.5" font-family="Helvetica,sans-Serif" font-size="10.00">mn::remove_const&lt; type</text>
<text text-anchor="middle" x="83.5" y="-242.5" font-family="Helvetica,sans-Serif" font-size="10.00">_t&lt; remove_volatile&lt; T &gt; &gt; &gt;</text>
</a>
</g>
</g>
<!-- Node5&#45;&gt;Node4 -->
<g id="edge4" class="edge">
<title>Node5&#45;&gt;Node4</title>
<path fill="none" stroke="midnightblue" d="M83.5,-225.29C83.5,-215.86 83.5,-205.65 83.5,-198.66"/>
<polygon fill="midnightblue" stroke="midnightblue" points="80,-225.4 83.5,-235.4 87,-225.4 80,-225.4"/>
</g>
<!-- Node6 -->
<g id="node6" class="node">
<title>Node6</title>
<g id="a_node6"><a xlink:href="structmn_1_1tag.html" target="_top" xlink:title=" ">
<polygon fill="white" stroke="black" points="42,-302.5 42,-321.5 125,-321.5 125,-302.5 42,-302.5"/>
<text text-anchor="middle" x="83.5" y="-309.5" font-family="Helvetica,sans-Serif" font-size="10.00">mn::tag&lt; T &gt;</text>
</a>
</g>
</g>
<!-- Node6&#45;&gt;Node5 -->
<g id="edge5" class="edge">
<title>Node6&#45;&gt;Node5</title>
<path fill="none" stroke="midnightblue" d="M83.5,-292.23C83.5,-283.59 83.5,-273.5 83.5,-265.52"/>
<polygon fill="midnightblue" stroke="midnightblue" points="80,-292.48 83.5,-302.48 87,-292.48 80,-292.48"/>
</g>
</g>
</svg>
