<?xml version="1.0" encoding="UTF-8" standalone="no"?>
<!DOCTYPE svg PUBLIC "-//W3C//DTD SVG 1.1//EN"
 "http://www.w3.org/Graphics/SVG/1.1/DTD/svg11.dtd">
<!-- Generated by graphviz version 2.46.0 (0)
 -->
<!-- Title: mn::container::basic_pair&lt; TFIRST, TSECOND &gt; Pages: 1 -->
<svg width="158pt" height="117pt"
 viewBox="0.00 0.00 158.00 117.00" xmlns="http://www.w3.org/2000/svg" xmlns:xlink="http://www.w3.org/1999/xlink">
<g id="graph0" class="graph" transform="scale(1 1) rotate(0) translate(4 113)">
<title>mn::container::basic_pair&lt; TFIRST, TSECOND &gt;</title>
<polygon fill="white" stroke="transparent" points="-4,4 -4,-113 154,-113 154,4 -4,4"/>
<!-- Node1 -->
<g id="node1" class="node">
<title>Node1</title>
<g id="a_node1"><a xlink:title=" ">
<polygon fill="#bfbfbf" stroke="black" points="0,-78.5 0,-108.5 150,-108.5 150,-78.5 0,-78.5"/>
<text text-anchor="start" x="8" y="-96.5" font-family="Helvetica,sans-Serif" font-size="10.00">mn::container::basic</text>
<text text-anchor="middle" x="75" y="-85.5" font-family="Helvetica,sans-Serif" font-size="10.00">_pair&lt; TFIRST, TSECOND &gt;</text>
</a>
</g>
</g>
<!-- Node2 -->
<g id="node2" class="node">
<title>Node2</title>
<g id="a_node2"><a xlink:href="classmn_1_1basic__iterator__pair.html" target="_top" xlink:title=" ">
<polygon fill="white" stroke="black" points="2,-0.5 2,-41.5 148,-41.5 148,-0.5 2,-0.5"/>
<text text-anchor="start" x="10" y="-29.5" font-family="Helvetica,sans-Serif" font-size="10.00">mn::basic_iterator</text>
<text text-anchor="start" x="10" y="-18.5" font-family="Helvetica,sans-Serif" font-size="10.00">_pair&lt; TIterator, UIterator,</text>
<text text-anchor="middle" x="75" y="-7.5" font-family="Helvetica,sans-Serif" font-size="10.00"> TCategory &gt;</text>
</a>
</g>
</g>
<!-- Node1&#45;&gt;Node2 -->
<g id="edge1" class="edge">
<title>Node1&#45;&gt;Node2</title>
<path fill="none" stroke="midnightblue" d="M75,-67.98C75,-59.35 75,-49.76 75,-41.59"/>
<polygon fill="midnightblue" stroke="midnightblue" points="71.5,-68.23 75,-78.23 78.5,-68.23 71.5,-68.23"/>
</g>
</g>
</svg>
