<?xml version="1.0" encoding="UTF-8" standalone="no"?>
<!DOCTYPE svg PUBLIC "-//W3C//DTD SVG 1.1//EN"
 "http://www.w3.org/Graphics/SVG/1.1/DTD/svg11.dtd">
<!-- Generated by graphviz version 2.46.0 (0)
 -->
<!-- Title: mn::pointer::pointer_ptr&lt; T &gt; Pages: 1 -->
<svg width="310pt" height="382pt"
 viewBox="0.00 0.00 310.00 382.00" xmlns="http://www.w3.org/2000/svg" xmlns:xlink="http://www.w3.org/1999/xlink">
<g id="graph0" class="graph" transform="scale(1 1) rotate(0) translate(4 378)">
<title>mn::pointer::pointer_ptr&lt; T &gt;</title>
<polygon fill="white" stroke="transparent" points="-4,4 -4,-378 306,-378 306,4 -4,4"/>
<!-- Node1 -->
<g id="node1" class="node">
<title>Node1</title>
<g id="a_node1"><a xlink:title=" ">
<polygon fill="#bfbfbf" stroke="black" points="0,-171.5 0,-201.5 113,-201.5 113,-171.5 0,-171.5"/>
<text text-anchor="start" x="8" y="-189.5" font-family="Helvetica,sans-Serif" font-size="10.00">mn::pointer::pointer</text>
<text text-anchor="middle" x="56.5" y="-178.5" font-family="Helvetica,sans-Serif" font-size="10.00">_ptr&lt; T &gt;</text>
</a>
</g>
</g>
<!-- Node2 -->
<g id="node2" class="node">
<title>Node2</title>
<g id="a_node2"><a xlink:href="classmn_1_1pointer_1_1basic__any__ptr.html" target="_top" xlink:title=" ">
<polygon fill="white" stroke="black" points="173.5,-343.5 173.5,-373.5 277.5,-373.5 277.5,-343.5 173.5,-343.5"/>
<text text-anchor="start" x="181.5" y="-361.5" font-family="Helvetica,sans-Serif" font-size="10.00">mn::pointer::basic</text>
<text text-anchor="middle" x="225.5" y="-350.5" font-family="Helvetica,sans-Serif" font-size="10.00">_any_ptr&lt; T &gt;</text>
</a>
</g>
</g>
<!-- Node1&#45;&gt;Node2 -->
<g id="edge1" class="edge">
<title>Node1&#45;&gt;Node2</title>
<path fill="none" stroke="#8b1a1a" d="M66.45,-211.27C79.56,-244.14 107.09,-301.81 149,-334.5 156.16,-340.08 164.64,-344.38 173.3,-347.69"/>
<polygon fill="#8b1a1a" stroke="#8b1a1a" points="69.56,-209.61 62.7,-201.53 63.03,-212.12 69.56,-209.61"/>
</g>
<!-- Node3 -->
<g id="node3" class="node">
<title>Node3</title>
<g id="a_node3"><a xlink:href="classmn_1_1pointer_1_1basic__clone__ptr.html" target="_top" xlink:title=" ">
<polygon fill="white" stroke="black" points="150,-294.5 150,-324.5 301,-324.5 301,-294.5 150,-294.5"/>
<text text-anchor="start" x="158" y="-312.5" font-family="Helvetica,sans-Serif" font-size="10.00">mn::pointer::basic</text>
<text text-anchor="middle" x="225.5" y="-301.5" font-family="Helvetica,sans-Serif" font-size="10.00">_clone_ptr&lt; T, TInterface &gt;</text>
</a>
</g>
</g>
<!-- Node1&#45;&gt;Node3 -->
<g id="edge2" class="edge">
<title>Node1&#45;&gt;Node3</title>
<path fill="none" stroke="#8b1a1a" d="M73.46,-209.81C89.94,-232.22 117.61,-265.55 149,-285.5 154.34,-288.89 160.2,-291.84 166.22,-294.4"/>
<polygon fill="#8b1a1a" stroke="#8b1a1a" points="76.18,-207.6 67.5,-201.52 70.49,-211.68 76.18,-207.6"/>
</g>
<!-- Node4 -->
<g id="node4" class="node">
<title>Node4</title>
<g id="a_node4"><a xlink:href="classmn_1_1pointer_1_1basic__linked__ptr.html" target="_top" xlink:title="This class implements a basic_linked_ptr template that it allows sharing of pointers between instance...">
<polygon fill="white" stroke="black" points="173.5,-245.5 173.5,-275.5 277.5,-275.5 277.5,-245.5 173.5,-245.5"/>
<text text-anchor="start" x="181.5" y="-263.5" font-family="Helvetica,sans-Serif" font-size="10.00">mn::pointer::basic</text>
<text text-anchor="middle" x="225.5" y="-252.5" font-family="Helvetica,sans-Serif" font-size="10.00">_linked_ptr&lt; T &gt;</text>
</a>
</g>
</g>
<!-- Node1&#45;&gt;Node4 -->
<g id="edge3" class="edge">
<title>Node1&#45;&gt;Node4</title>
<path fill="none" stroke="#8b1a1a" d="M91.06,-206.87C108.04,-216.64 129.2,-228.04 149,-236.5 156.71,-239.8 165.04,-242.89 173.25,-245.68"/>
<polygon fill="#8b1a1a" stroke="#8b1a1a" points="92.5,-203.65 82.1,-201.63 88.97,-209.7 92.5,-203.65"/>
</g>
<!-- Node5 -->
<g id="node5" class="node">
<title>Node5</title>
<g id="a_node5"><a xlink:href="classmn_1_1pointer_1_1basic__save__ptr.html" target="_top" xlink:title=" ">
<polygon fill="white" stroke="black" points="173.5,-196.5 173.5,-226.5 277.5,-226.5 277.5,-196.5 173.5,-196.5"/>
<text text-anchor="start" x="181.5" y="-214.5" font-family="Helvetica,sans-Serif" font-size="10.00">mn::pointer::basic</text>
<text text-anchor="middle" x="225.5" y="-203.5" font-family="Helvetica,sans-Serif" font-size="10.00">_save_ptr&lt; T &gt;</text>
</a>
</g>
</g>
<!-- Node1&#45;&gt;Node5 -->
<g id="edge4" class="edge">
<title>Node1&#45;&gt;Node5</title>
<path fill="none" stroke="#8b1a1a" d="M123.32,-196.35C139.95,-198.84 157.57,-201.48 173.36,-203.84"/>
<polygon fill="#8b1a1a" stroke="#8b1a1a" points="123.52,-192.84 113.11,-194.82 122.48,-199.77 123.52,-192.84"/>
</g>
<!-- Node6 -->
<g id="node6" class="node">
<title>Node6</title>
<g id="a_node6"><a xlink:href="classmn_1_1pointer_1_1basic__scoped__ptr.html" target="_top" xlink:title=" ">
<polygon fill="white" stroke="black" points="173.5,-147.5 173.5,-177.5 277.5,-177.5 277.5,-147.5 173.5,-147.5"/>
<text text-anchor="start" x="181.5" y="-165.5" font-family="Helvetica,sans-Serif" font-size="10.00">mn::pointer::basic</text>
<text text-anchor="middle" x="225.5" y="-154.5" font-family="Helvetica,sans-Serif" font-size="10.00">_scoped_ptr&lt; T &gt;</text>
</a>
</g>
</g>
<!-- Node1&#45;&gt;Node6 -->
<g id="edge5" class="edge">
<title>Node1&#45;&gt;Node6</title>
<path fill="none" stroke="#8b1a1a" d="M123.32,-177.04C139.95,-174.65 157.57,-172.12 173.36,-169.85"/>
<polygon fill="#8b1a1a" stroke="#8b1a1a" points="122.51,-173.62 113.11,-178.51 123.5,-180.55 122.51,-173.62"/>
</g>
<!-- Node7 -->
<g id="node7" class="node">
<title>Node7</title>
<g id="a_node7"><a xlink:href="classmn_1_1pointer_1_1basic__shared__ptr.html" target="_top" xlink:title=" ">
<polygon fill="white" stroke="black" points="149,-98.5 149,-128.5 302,-128.5 302,-98.5 149,-98.5"/>
<text text-anchor="start" x="157" y="-116.5" font-family="Helvetica,sans-Serif" font-size="10.00">mn::pointer::basic</text>
<text text-anchor="middle" x="225.5" y="-105.5" font-family="Helvetica,sans-Serif" font-size="10.00">_shared_ptr&lt; T, TRefType &gt;</text>
</a>
</g>
</g>
<!-- Node1&#45;&gt;Node7 -->
<g id="edge6" class="edge">
<title>Node1&#45;&gt;Node7</title>
<path fill="none" stroke="#8b1a1a" d="M92.29,-166.53C109.11,-157.33 129.77,-146.66 149,-138.5 157.26,-134.99 166.19,-131.66 174.93,-128.63"/>
<polygon fill="#8b1a1a" stroke="#8b1a1a" points="90.43,-163.56 83.38,-171.47 93.82,-169.69 90.43,-163.56"/>
</g>
<!-- Node8 -->
<g id="node8" class="node">
<title>Node8</title>
<g id="a_node8"><a xlink:href="classmn_1_1pointer_1_1basic__weak__ptr.html" target="_top" xlink:title=" ">
<polygon fill="white" stroke="black" points="152.5,-49.5 152.5,-79.5 298.5,-79.5 298.5,-49.5 152.5,-49.5"/>
<text text-anchor="start" x="160.5" y="-67.5" font-family="Helvetica,sans-Serif" font-size="10.00">mn::pointer::basic</text>
<text text-anchor="middle" x="225.5" y="-56.5" font-family="Helvetica,sans-Serif" font-size="10.00">_weak_ptr&lt; T, TRefType &gt;</text>
</a>
</g>
</g>
<!-- Node1&#45;&gt;Node8 -->
<g id="edge7" class="edge">
<title>Node1&#45;&gt;Node8</title>
<path fill="none" stroke="#8b1a1a" d="M73.89,-163.39C90.52,-141.5 118.14,-109.15 149,-89.5 154.94,-85.72 161.51,-82.45 168.22,-79.64"/>
<polygon fill="#8b1a1a" stroke="#8b1a1a" points="71.02,-161.38 67.87,-171.49 76.64,-165.55 71.02,-161.38"/>
</g>
<!-- Node9 -->
<g id="node9" class="node">
<title>Node9</title>
<g id="a_node9"><a xlink:href="classmn_1_1pointer_1_1node__ptr.html" target="_top" xlink:title=" ">
<polygon fill="white" stroke="black" points="164.5,-0.5 164.5,-30.5 286.5,-30.5 286.5,-0.5 164.5,-0.5"/>
<text text-anchor="start" x="172.5" y="-18.5" font-family="Helvetica,sans-Serif" font-size="10.00">mn::pointer::node_ptr</text>
<text text-anchor="middle" x="225.5" y="-7.5" font-family="Helvetica,sans-Serif" font-size="10.00">&lt; T, TAllocator &gt;</text>
</a>
</g>
</g>
<!-- Node1&#45;&gt;Node9 -->
<g id="edge8" class="edge">
<title>Node1&#45;&gt;Node9</title>
<path fill="none" stroke="#8b1a1a" d="M66.8,-161.64C80.16,-129.21 107.8,-72.83 149,-40.5 153.89,-36.66 159.39,-33.4 165.14,-30.64"/>
<polygon fill="#8b1a1a" stroke="#8b1a1a" points="63.42,-160.68 62.97,-171.26 69.92,-163.27 63.42,-160.68"/>
</g>
</g>
</svg>
