<?xml version="1.0" encoding="UTF-8" standalone="no"?>
<!DOCTYPE svg PUBLIC "-//W3C//DTD SVG 1.1//EN"
 "http://www.w3.org/Graphics/SVG/1.1/DTD/svg11.dtd">
<!-- Generated by graphviz version 2.46.0 (0)
 -->
<!-- Title: mn::is_rational&lt; volatile T &gt; Pages: 1 -->
<svg width="166pt" height="151pt"
 viewBox="0.00 0.00 166.00 151.00" xmlns="http://www.w3.org/2000/svg" xmlns:xlink="http://www.w3.org/1999/xlink">
<g id="graph0" class="graph" transform="scale(1 1) rotate(0) translate(4 147)">
<title>mn::is_rational&lt; volatile T &gt;</title>
<polygon fill="white" stroke="transparent" points="-4,4 -4,-147 162,-147 162,4 -4,4"/>
<!-- Node1 -->
<g id="node1" class="node">
<title>Node1</title>
<g id="a_node1"><a xlink:title=" ">
<polygon fill="#bfbfbf" stroke="black" points="0,-0.5 0,-19.5 158,-19.5 158,-0.5 0,-0.5"/>
<text text-anchor="middle" x="79" y="-7.5" font-family="Helvetica,sans-Serif" font-size="10.00">mn::is_rational&lt; volatile T &gt;</text>
</a>
</g>
</g>
<!-- Node2 -->
<g id="node2" class="node">
<title>Node2</title>
<g id="a_node2"><a xlink:href="structmn_1_1is__rational.html" target="_top" xlink:title=" ">
<polygon fill="white" stroke="black" points="20,-56.5 20,-75.5 138,-75.5 138,-56.5 20,-56.5"/>
<text text-anchor="middle" x="79" y="-63.5" font-family="Helvetica,sans-Serif" font-size="10.00">mn::is_rational&lt; T &gt;</text>
</a>
</g>
</g>
<!-- Node2&#45;&gt;Node1 -->
<g id="edge1" class="edge">
<title>Node2&#45;&gt;Node1</title>
<path fill="none" stroke="midnightblue" d="M79,-45.8C79,-36.91 79,-26.78 79,-19.75"/>
<polygon fill="midnightblue" stroke="midnightblue" points="75.5,-46.08 79,-56.08 82.5,-46.08 75.5,-46.08"/>
</g>
<!-- Node3 -->
<g id="node3" class="node">
<title>Node3</title>
<g id="a_node3"><a xlink:href="structmn_1_1integral__constant.html" target="_top" xlink:title=" ">
<polygon fill="white" stroke="black" points="17.5,-112.5 17.5,-142.5 140.5,-142.5 140.5,-112.5 17.5,-112.5"/>
<text text-anchor="start" x="25.5" y="-130.5" font-family="Helvetica,sans-Serif" font-size="10.00">mn::integral_constant</text>
<text text-anchor="middle" x="79" y="-119.5" font-family="Helvetica,sans-Serif" font-size="10.00">&lt; bool, false &gt;</text>
</a>
</g>
</g>
<!-- Node3&#45;&gt;Node2 -->
<g id="edge2" class="edge">
<title>Node3&#45;&gt;Node2</title>
<path fill="none" stroke="midnightblue" d="M79,-102.29C79,-92.86 79,-82.65 79,-75.66"/>
<polygon fill="midnightblue" stroke="midnightblue" points="75.5,-102.4 79,-112.4 82.5,-102.4 75.5,-102.4"/>
</g>
</g>
</svg>
