<?xml version="1.0" encoding="UTF-8" standalone="no"?>
<!DOCTYPE svg PUBLIC "-//W3C//DTD SVG 1.1//EN"
 "http://www.w3.org/Graphics/SVG/1.1/DTD/svg11.dtd">
<!-- Generated by graphviz version 2.47.1 (0)
 -->
<!-- Title: mn::pointer::pointer_ptr&lt; T &gt; Pages: 1 -->
<svg width="310pt" height="431pt"
 viewBox="0.00 0.00 310.00 431.00" xmlns="http://www.w3.org/2000/svg" xmlns:xlink="http://www.w3.org/1999/xlink">
<g id="graph0" class="graph" transform="scale(1 1) rotate(0) translate(4 427)">
<title>mn::pointer::pointer_ptr&lt; T &gt;</title>
<polygon fill="white" stroke="transparent" points="-4,4 -4,-427 306,-427 306,4 -4,4"/>
<!-- Node1 -->
<g id="node1" class="node">
<title>Node1</title>
<g id="a_node1"><a xlink:title=" ">
<polygon fill="#bfbfbf" stroke="black" points="0,-196.5 0,-226.5 113,-226.5 113,-196.5 0,-196.5"/>
<text text-anchor="start" x="8" y="-214.5" font-family="Helvetica,sans-Serif" font-size="10.00">mn::pointer::pointer</text>
<text text-anchor="middle" x="56.5" y="-203.5" font-family="Helvetica,sans-Serif" font-size="10.00">_ptr&lt; T &gt;</text>
</a>
</g>
</g>
<!-- Node2 -->
<g id="node2" class="node">
<title>Node2</title>
<g id="a_node2"><a xlink:href="classmn_1_1pointer_1_1basic__any__ptr.html" target="_top" xlink:title=" ">
<polygon fill="white" stroke="black" points="173.5,-392.5 173.5,-422.5 277.5,-422.5 277.5,-392.5 173.5,-392.5"/>
<text text-anchor="start" x="181.5" y="-410.5" font-family="Helvetica,sans-Serif" font-size="10.00">mn::pointer::basic</text>
<text text-anchor="middle" x="225.5" y="-399.5" font-family="Helvetica,sans-Serif" font-size="10.00">_any_ptr&lt; T &gt;</text>
</a>
</g>
</g>
<!-- Node1&#45;&gt;Node2 -->
<g id="edge1" class="edge">
<title>Node1&#45;&gt;Node2</title>
<path fill="none" stroke="#8b1a1a" d="M64.24,-236.69C75.54,-274.11 101.82,-344.18 149,-383.5 156.08,-389.4 164.62,-393.86 173.38,-397.22"/>
<polygon fill="#8b1a1a" stroke="#8b1a1a" points="67.47,-235.26 61.33,-226.62 60.75,-237.2 67.47,-235.26"/>
</g>
<!-- Node3 -->
<g id="node3" class="node">
<title>Node3</title>
<g id="a_node3"><a xlink:href="classmn_1_1pointer_1_1basic__auto__ptr.html" target="_top" xlink:title="AutoPtr is a &quot;smart&quot; pointer for classes implementing reference counting based garbage collection.">
<polygon fill="white" stroke="black" points="173.5,-343.5 173.5,-373.5 277.5,-373.5 277.5,-343.5 173.5,-343.5"/>
<text text-anchor="start" x="181.5" y="-361.5" font-family="Helvetica,sans-Serif" font-size="10.00">mn::pointer::basic</text>
<text text-anchor="middle" x="225.5" y="-350.5" font-family="Helvetica,sans-Serif" font-size="10.00">_auto_ptr&lt; T &gt;</text>
</a>
</g>
</g>
<!-- Node1&#45;&gt;Node3 -->
<g id="edge2" class="edge">
<title>Node1&#45;&gt;Node3</title>
<path fill="none" stroke="#8b1a1a" d="M69.55,-235.82C84.51,-263.59 112.56,-308.51 149,-334.5 156.28,-339.69 164.73,-343.79 173.29,-347.02"/>
<polygon fill="#8b1a1a" stroke="#8b1a1a" points="72.55,-234.01 64.82,-226.78 66.35,-237.26 72.55,-234.01"/>
</g>
<!-- Node4 -->
<g id="node4" class="node">
<title>Node4</title>
<g id="a_node4"><a xlink:href="classmn_1_1pointer_1_1basic__clone__ptr.html" target="_top" xlink:title=" ">
<polygon fill="white" stroke="black" points="150,-294.5 150,-324.5 301,-324.5 301,-294.5 150,-294.5"/>
<text text-anchor="start" x="158" y="-312.5" font-family="Helvetica,sans-Serif" font-size="10.00">mn::pointer::basic</text>
<text text-anchor="middle" x="225.5" y="-301.5" font-family="Helvetica,sans-Serif" font-size="10.00">_clone_ptr&lt; T, TInterface &gt;</text>
</a>
</g>
</g>
<!-- Node1&#45;&gt;Node4 -->
<g id="edge3" class="edge">
<title>Node1&#45;&gt;Node4</title>
<path fill="none" stroke="#8b1a1a" d="M79.86,-233.61C97.4,-249.9 123.1,-271.56 149,-285.5 155.18,-288.83 161.89,-291.78 168.68,-294.38"/>
<polygon fill="#8b1a1a" stroke="#8b1a1a" points="82.07,-230.88 72.4,-226.55 77.26,-235.96 82.07,-230.88"/>
</g>
<!-- Node5 -->
<g id="node5" class="node">
<title>Node5</title>
<g id="a_node5"><a xlink:href="classmn_1_1pointer_1_1basic__linked__ptr.html" target="_top" xlink:title="This class implements a basic_linked_ptr template that it allows sharing of pointers between instance...">
<polygon fill="white" stroke="black" points="173.5,-245.5 173.5,-275.5 277.5,-275.5 277.5,-245.5 173.5,-245.5"/>
<text text-anchor="start" x="181.5" y="-263.5" font-family="Helvetica,sans-Serif" font-size="10.00">mn::pointer::basic</text>
<text text-anchor="middle" x="225.5" y="-252.5" font-family="Helvetica,sans-Serif" font-size="10.00">_linked_ptr&lt; T &gt;</text>
</a>
</g>
</g>
<!-- Node1&#45;&gt;Node5 -->
<g id="edge4" class="edge">
<title>Node1&#45;&gt;Node5</title>
<path fill="none" stroke="#8b1a1a" d="M118.78,-229.48C136.76,-234.76 156.22,-240.47 173.49,-245.53"/>
<polygon fill="#8b1a1a" stroke="#8b1a1a" points="119.55,-226.06 108.97,-226.6 117.58,-232.78 119.55,-226.06"/>
</g>
<!-- Node6 -->
<g id="node6" class="node">
<title>Node6</title>
<g id="a_node6"><a xlink:href="classmn_1_1pointer_1_1basic__save__ptr.html" target="_top" xlink:title=" ">
<polygon fill="white" stroke="black" points="173.5,-196.5 173.5,-226.5 277.5,-226.5 277.5,-196.5 173.5,-196.5"/>
<text text-anchor="start" x="181.5" y="-214.5" font-family="Helvetica,sans-Serif" font-size="10.00">mn::pointer::basic</text>
<text text-anchor="middle" x="225.5" y="-203.5" font-family="Helvetica,sans-Serif" font-size="10.00">_save_ptr&lt; T &gt;</text>
</a>
</g>
</g>
<!-- Node1&#45;&gt;Node6 -->
<g id="edge5" class="edge">
<title>Node1&#45;&gt;Node6</title>
<path fill="none" stroke="#8b1a1a" d="M123.32,-211.5C139.95,-211.5 157.57,-211.5 173.36,-211.5"/>
<polygon fill="#8b1a1a" stroke="#8b1a1a" points="123.11,-208 113.11,-211.5 123.11,-215 123.11,-208"/>
</g>
<!-- Node7 -->
<g id="node7" class="node">
<title>Node7</title>
<g id="a_node7"><a xlink:href="classmn_1_1pointer_1_1basic__scoped__ptr.html" target="_top" xlink:title=" ">
<polygon fill="white" stroke="black" points="173.5,-147.5 173.5,-177.5 277.5,-177.5 277.5,-147.5 173.5,-147.5"/>
<text text-anchor="start" x="181.5" y="-165.5" font-family="Helvetica,sans-Serif" font-size="10.00">mn::pointer::basic</text>
<text text-anchor="middle" x="225.5" y="-154.5" font-family="Helvetica,sans-Serif" font-size="10.00">_scoped_ptr&lt; T &gt;</text>
</a>
</g>
</g>
<!-- Node1&#45;&gt;Node7 -->
<g id="edge6" class="edge">
<title>Node1&#45;&gt;Node7</title>
<path fill="none" stroke="#8b1a1a" d="M118.78,-193.52C136.76,-188.24 156.22,-182.53 173.49,-177.47"/>
<polygon fill="#8b1a1a" stroke="#8b1a1a" points="117.58,-190.22 108.97,-196.4 119.55,-196.94 117.58,-190.22"/>
</g>
<!-- Node8 -->
<g id="node8" class="node">
<title>Node8</title>
<g id="a_node8"><a xlink:href="classmn_1_1pointer_1_1basic__shared__ptr.html" target="_top" xlink:title=" ">
<polygon fill="white" stroke="black" points="149,-98.5 149,-128.5 302,-128.5 302,-98.5 149,-98.5"/>
<text text-anchor="start" x="157" y="-116.5" font-family="Helvetica,sans-Serif" font-size="10.00">mn::pointer::basic</text>
<text text-anchor="middle" x="225.5" y="-105.5" font-family="Helvetica,sans-Serif" font-size="10.00">_shared_ptr&lt; T, TRefType &gt;</text>
</a>
</g>
</g>
<!-- Node1&#45;&gt;Node8 -->
<g id="edge7" class="edge">
<title>Node1&#45;&gt;Node8</title>
<path fill="none" stroke="#8b1a1a" d="M80.28,-189.51C97.86,-173.53 123.43,-152.35 149,-138.5 155.92,-134.75 163.5,-131.43 171.11,-128.54"/>
<polygon fill="#8b1a1a" stroke="#8b1a1a" points="77.75,-187.08 72.79,-196.44 82.51,-192.22 77.75,-187.08"/>
</g>
<!-- Node9 -->
<g id="node9" class="node">
<title>Node9</title>
<g id="a_node9"><a xlink:href="classmn_1_1pointer_1_1basic__weak__ptr.html" target="_top" xlink:title=" ">
<polygon fill="white" stroke="black" points="152.5,-49.5 152.5,-79.5 298.5,-79.5 298.5,-49.5 152.5,-49.5"/>
<text text-anchor="start" x="160.5" y="-67.5" font-family="Helvetica,sans-Serif" font-size="10.00">mn::pointer::basic</text>
<text text-anchor="middle" x="225.5" y="-56.5" font-family="Helvetica,sans-Serif" font-size="10.00">_weak_ptr&lt; T, TRefType &gt;</text>
</a>
</g>
</g>
<!-- Node1&#45;&gt;Node9 -->
<g id="edge8" class="edge">
<title>Node1&#45;&gt;Node9</title>
<path fill="none" stroke="#8b1a1a" d="M69.66,-187.45C84.71,-159.99 112.85,-115.5 149,-89.5 154.38,-85.63 160.4,-82.33 166.62,-79.53"/>
<polygon fill="#8b1a1a" stroke="#8b1a1a" points="66.5,-185.93 64.88,-196.4 72.68,-189.22 66.5,-185.93"/>
</g>
<!-- Node10 -->
<g id="node10" class="node">
<title>Node10</title>
<g id="a_node10"><a xlink:href="classmn_1_1pointer_1_1node__ptr.html" target="_top" xlink:title=" ">
<polygon fill="white" stroke="black" points="164.5,-0.5 164.5,-30.5 286.5,-30.5 286.5,-0.5 164.5,-0.5"/>
<text text-anchor="start" x="172.5" y="-18.5" font-family="Helvetica,sans-Serif" font-size="10.00">mn::pointer::node_ptr</text>
<text text-anchor="middle" x="225.5" y="-7.5" font-family="Helvetica,sans-Serif" font-size="10.00">&lt; T, TAllocator &gt;</text>
</a>
</g>
</g>
<!-- Node1&#45;&gt;Node10 -->
<g id="edge9" class="edge">
<title>Node1&#45;&gt;Node10</title>
<path fill="none" stroke="#8b1a1a" d="M64.43,-186.25C75.9,-149.07 102.34,-79.77 149,-40.5 153.65,-36.59 158.93,-33.28 164.49,-30.49"/>
<polygon fill="#8b1a1a" stroke="#8b1a1a" points="60.95,-185.68 61.46,-196.26 67.66,-187.67 60.95,-185.68"/>
</g>
</g>
</svg>
