<?xml version="1.0" encoding="UTF-8" standalone="no"?>
<!DOCTYPE svg PUBLIC "-//W3C//DTD SVG 1.1//EN"
 "http://www.w3.org/Graphics/SVG/1.1/DTD/svg11.dtd">
<!-- Generated by graphviz version 2.47.3 (0)
 -->
<!-- Title: mn::is_unsigned&lt; T &gt; Pages: 1 -->
<svg width="437pt" height="116pt"
 viewBox="0.00 0.00 437.00 116.00" xmlns="http://www.w3.org/2000/svg" xmlns:xlink="http://www.w3.org/1999/xlink">
<g id="graph0" class="graph" transform="scale(1 1) rotate(0) translate(4 112)">
<title>mn::is_unsigned&lt; T &gt;</title>
<polygon fill="white" stroke="transparent" points="-4,4 -4,-112 433,-112 433,4 -4,4"/>
<!-- Node1 -->
<g id="node1" class="node">
<title>Node1</title>
<g id="a_node1"><a xlink:title="is_unsigned">
<polygon fill="#bfbfbf" stroke="black" points="104,-44.5 104,-63.5 229,-63.5 229,-44.5 104,-44.5"/>
<text text-anchor="middle" x="166.5" y="-51.5" font-family="Helvetica,sans-Serif" font-size="10.00">mn::is_unsigned&lt; T &gt;</text>
</a>
</g>
</g>
<!-- Node3 -->
<g id="node3" class="node">
<title>Node3</title>
<g id="a_node3"><a xlink:href="structmn_1_1is__unsigned_3_01const_01T_01_4.html" target="_top" xlink:title=" ">
<polygon fill="white" stroke="black" points="270,-88.5 270,-107.5 424,-107.5 424,-88.5 270,-88.5"/>
<text text-anchor="middle" x="347" y="-95.5" font-family="Helvetica,sans-Serif" font-size="10.00">mn::is_unsigned&lt; const T &gt;</text>
</a>
</g>
</g>
<!-- Node1&#45;&gt;Node3 -->
<g id="edge2" class="edge">
<title>Node1&#45;&gt;Node3</title>
<path fill="none" stroke="midnightblue" d="M213.8,-66.08C229.98,-70.25 248.28,-74.89 265,-79 277.91,-82.17 292,-85.51 304.75,-88.5"/>
<polygon fill="midnightblue" stroke="midnightblue" points="214.59,-62.67 204.03,-63.56 212.84,-69.45 214.59,-62.67"/>
</g>
<!-- Node4 -->
<g id="node4" class="node">
<title>Node4</title>
<g id="a_node4"><a xlink:href="structmn_1_1is__unsigned_3_01const_01volatile_01T_01_4.html" target="_top" xlink:title=" ">
<polygon fill="white" stroke="black" points="280,-39 280,-69 414,-69 414,-39 280,-39"/>
<text text-anchor="start" x="288" y="-57" font-family="Helvetica,sans-Serif" font-size="10.00">mn::is_unsigned&lt; const</text>
<text text-anchor="middle" x="347" y="-46" font-family="Helvetica,sans-Serif" font-size="10.00"> volatile T &gt;</text>
</a>
</g>
</g>
<!-- Node1&#45;&gt;Node4 -->
<g id="edge3" class="edge">
<title>Node1&#45;&gt;Node4</title>
<path fill="none" stroke="midnightblue" d="M239.28,-54C252.64,-54 266.56,-54 279.75,-54"/>
<polygon fill="midnightblue" stroke="midnightblue" points="239.18,-50.5 229.18,-54 239.18,-57.5 239.18,-50.5"/>
</g>
<!-- Node5 -->
<g id="node5" class="node">
<title>Node5</title>
<g id="a_node5"><a xlink:href="structmn_1_1is__unsigned_3_01volatile_01T_01_4.html" target="_top" xlink:title=" ">
<polygon fill="white" stroke="black" points="265,-0.5 265,-19.5 429,-19.5 429,-0.5 265,-0.5"/>
<text text-anchor="middle" x="347" y="-7.5" font-family="Helvetica,sans-Serif" font-size="10.00">mn::is_unsigned&lt; volatile T &gt;</text>
</a>
</g>
</g>
<!-- Node1&#45;&gt;Node5 -->
<g id="edge4" class="edge">
<title>Node1&#45;&gt;Node5</title>
<path fill="none" stroke="midnightblue" d="M213.8,-41.92C229.98,-37.75 248.28,-33.11 265,-29 277.91,-25.83 292,-22.49 304.75,-19.5"/>
<polygon fill="midnightblue" stroke="midnightblue" points="212.84,-38.55 204.03,-44.44 214.59,-45.33 212.84,-38.55"/>
</g>
<!-- Node2 -->
<g id="node2" class="node">
<title>Node2</title>
<g id="a_node2"><a xlink:href="structmn_1_1integral__constant.html" target="_top" xlink:title=" ">
<polygon fill="white" stroke="black" points="0,-44.5 0,-63.5 68,-63.5 68,-44.5 0,-44.5"/>
<text text-anchor="middle" x="34" y="-51.5" font-family="Helvetica,sans-Serif" font-size="10.00">false_type</text>
</a>
</g>
</g>
<!-- Node2&#45;&gt;Node1 -->
<g id="edge1" class="edge">
<title>Node2&#45;&gt;Node1</title>
<path fill="none" stroke="midnightblue" d="M78.32,-54C86.52,-54 95.24,-54 103.87,-54"/>
<polygon fill="midnightblue" stroke="midnightblue" points="78.27,-50.5 68.27,-54 78.27,-57.5 78.27,-50.5"/>
</g>
</g>
</svg>
