<?xml version="1.0" encoding="UTF-8" standalone="no"?>
<!DOCTYPE svg PUBLIC "-//W3C//DTD SVG 1.1//EN"
 "http://www.w3.org/Graphics/SVG/1.1/DTD/svg11.dtd">
<!-- Generated by graphviz version 2.47.3 (0)
 -->
<!-- Title: mn::tag&lt; T &gt; Pages: 1 -->
<svg width="916pt" height="363pt"
 viewBox="0.00 0.00 916.00 363.00" xmlns="http://www.w3.org/2000/svg" xmlns:xlink="http://www.w3.org/1999/xlink">
<g id="graph0" class="graph" transform="scale(1 1) rotate(0) translate(4 359)">
<title>mn::tag&lt; T &gt;</title>
<polygon fill="white" stroke="transparent" points="-4,4 -4,-359 912,-359 912,4 -4,4"/>
<!-- Node1 -->
<g id="node1" class="node">
<title>Node1</title>
<g id="a_node1"><a xlink:title=" ">
<polygon fill="#bfbfbf" stroke="black" points="0,-160 0,-179 83,-179 83,-160 0,-160"/>
<text text-anchor="middle" x="41.5" y="-167" font-family="Helvetica,sans-Serif" font-size="10.00">mn::tag&lt; T &gt;</text>
</a>
</g>
</g>
<!-- Node2 -->
<g id="node2" class="node">
<title>Node2</title>
<g id="a_node2"><a xlink:href="structmn_1_1remove__const.html" target="_top" xlink:title=" ">
<polygon fill="white" stroke="black" points="119,-302.5 119,-332.5 286,-332.5 286,-302.5 119,-302.5"/>
<text text-anchor="start" x="127" y="-320.5" font-family="Helvetica,sans-Serif" font-size="10.00">mn::remove_const&lt; type</text>
<text text-anchor="middle" x="202.5" y="-309.5" font-family="Helvetica,sans-Serif" font-size="10.00">_t&lt; remove_volatile&lt; T &gt; &gt; &gt;</text>
</a>
</g>
</g>
<!-- Node1&#45;&gt;Node2 -->
<g id="edge1" class="edge">
<title>Node1&#45;&gt;Node2</title>
<path fill="none" stroke="midnightblue" d="M49.37,-188.66C60.06,-215.77 83.24,-265.07 119,-292.5 123.99,-296.33 129.56,-299.57 135.39,-302.32"/>
<polygon fill="midnightblue" stroke="midnightblue" points="52.58,-187.26 45.77,-179.14 46.03,-189.73 52.58,-187.26"/>
</g>
<!-- Node8 -->
<g id="node8" class="node">
<title>Node8</title>
<g id="a_node8"><a xlink:href="structmn_1_1enable__if_3_01true_00_01T_01_4.html" target="_top" xlink:title=" ">
<polygon fill="white" stroke="black" points="134,-264 134,-283 271,-283 271,-264 134,-264"/>
<text text-anchor="middle" x="202.5" y="-271" font-family="Helvetica,sans-Serif" font-size="10.00">mn::enable_if&lt; true, T &gt;</text>
</a>
</g>
</g>
<!-- Node1&#45;&gt;Node8 -->
<g id="edge7" class="edge">
<title>Node1&#45;&gt;Node8</title>
<path fill="none" stroke="midnightblue" d="M53.93,-187.78C67.15,-207.37 90.77,-237.88 119,-254.5 125.59,-258.38 132.9,-261.46 140.38,-263.92"/>
<polygon fill="midnightblue" stroke="midnightblue" points="56.69,-185.62 48.29,-179.15 50.83,-189.44 56.69,-185.62"/>
</g>
<!-- Node9 -->
<g id="node9" class="node">
<title>Node9</title>
<g id="a_node9"><a xlink:href="structmn_1_1remove__const.html" target="_top" xlink:title=" ">
<polygon fill="white" stroke="black" points="134.5,-226 134.5,-245 270.5,-245 270.5,-226 134.5,-226"/>
<text text-anchor="middle" x="202.5" y="-233" font-family="Helvetica,sans-Serif" font-size="10.00">mn::remove_const&lt; T &gt;</text>
</a>
</g>
</g>
<!-- Node1&#45;&gt;Node9 -->
<g id="edge8" class="edge">
<title>Node1&#45;&gt;Node9</title>
<path fill="none" stroke="midnightblue" d="M64.11,-184.93C78.94,-194.89 99.41,-207.46 119,-215.5 129.22,-219.7 140.54,-223.15 151.43,-225.94"/>
<polygon fill="midnightblue" stroke="midnightblue" points="65.88,-181.9 55.66,-179.12 61.92,-187.67 65.88,-181.9"/>
</g>
<!-- Node12 -->
<g id="node12" class="node">
<title>Node12</title>
<g id="a_node12"><a xlink:href="structmn_1_1remove__const_3_01T_01const_01_4.html" target="_top" xlink:title=" ">
<polygon fill="white" stroke="black" points="140,-176.5 140,-206.5 265,-206.5 265,-176.5 140,-176.5"/>
<text text-anchor="start" x="148" y="-194.5" font-family="Helvetica,sans-Serif" font-size="10.00">mn::remove_const&lt; T</text>
<text text-anchor="middle" x="202.5" y="-183.5" font-family="Helvetica,sans-Serif" font-size="10.00"> const &gt;</text>
</a>
</g>
</g>
<!-- Node1&#45;&gt;Node12 -->
<g id="edge11" class="edge">
<title>Node1&#45;&gt;Node12</title>
<path fill="none" stroke="midnightblue" d="M93.02,-176.49C107.85,-178.54 124.25,-180.81 139.7,-182.95"/>
<polygon fill="midnightblue" stroke="midnightblue" points="93.42,-173.01 83.03,-175.11 92.46,-179.95 93.42,-173.01"/>
</g>
<!-- Node13 -->
<g id="node13" class="node">
<title>Node13</title>
<g id="a_node13"><a xlink:href="structmn_1_1remove__reference.html" target="_top" xlink:title=" ">
<polygon fill="white" stroke="black" points="124.5,-138 124.5,-157 280.5,-157 280.5,-138 124.5,-138"/>
<text text-anchor="middle" x="202.5" y="-145" font-family="Helvetica,sans-Serif" font-size="10.00">mn::remove_reference&lt; T &gt;</text>
</a>
</g>
</g>
<!-- Node1&#45;&gt;Node13 -->
<g id="edge12" class="edge">
<title>Node1&#45;&gt;Node13</title>
<path fill="none" stroke="midnightblue" d="M93.26,-162.48C105.78,-160.74 119.4,-158.86 132.62,-157.03"/>
<polygon fill="midnightblue" stroke="midnightblue" points="92.46,-159.05 83.03,-163.89 93.42,-165.99 92.46,-159.05"/>
</g>
<!-- Node14 -->
<g id="node14" class="node">
<title>Node14</title>
<g id="a_node14"><a xlink:href="structmn_1_1remove__reference_3_01T_01_6_01_4.html" target="_top" xlink:title=" ">
<polygon fill="white" stroke="black" points="138.5,-88.5 138.5,-118.5 266.5,-118.5 266.5,-88.5 138.5,-88.5"/>
<text text-anchor="start" x="146.5" y="-106.5" font-family="Helvetica,sans-Serif" font-size="10.00">mn::remove_reference</text>
<text text-anchor="middle" x="202.5" y="-95.5" font-family="Helvetica,sans-Serif" font-size="10.00">&lt; T &amp; &gt;</text>
</a>
</g>
</g>
<!-- Node1&#45;&gt;Node14 -->
<g id="edge13" class="edge">
<title>Node1&#45;&gt;Node14</title>
<path fill="none" stroke="midnightblue" d="M67.12,-154.7C81.82,-146.26 101.07,-135.93 119,-128.5 127.71,-124.89 137.13,-121.54 146.38,-118.54"/>
<polygon fill="midnightblue" stroke="midnightblue" points="65.05,-151.85 58.17,-159.91 68.57,-157.9 65.05,-151.85"/>
</g>
<!-- Node15 -->
<g id="node15" class="node">
<title>Node15</title>
<g id="a_node15"><a xlink:href="structmn_1_1remove__volatile.html" target="_top" xlink:title=" ">
<polygon fill="white" stroke="black" points="129.5,-50 129.5,-69 275.5,-69 275.5,-50 129.5,-50"/>
<text text-anchor="middle" x="202.5" y="-57" font-family="Helvetica,sans-Serif" font-size="10.00">mn::remove_volatile&lt; T &gt;</text>
</a>
</g>
</g>
<!-- Node1&#45;&gt;Node15 -->
<g id="edge14" class="edge">
<title>Node1&#45;&gt;Node15</title>
<path fill="none" stroke="midnightblue" d="M52.87,-151.14C65.65,-130.22 89.38,-96.62 119,-78.5 125.39,-74.59 132.51,-71.48 139.82,-69.01"/>
<polygon fill="midnightblue" stroke="midnightblue" points="49.85,-149.36 47.78,-159.75 55.88,-152.92 49.85,-149.36"/>
</g>
<!-- Node16 -->
<g id="node16" class="node">
<title>Node16</title>
<g id="a_node16"><a xlink:href="structmn_1_1remove__volatile_3_01T_01volatile_01_4.html" target="_top" xlink:title=" ">
<polygon fill="white" stroke="black" points="143.5,-0.5 143.5,-30.5 261.5,-30.5 261.5,-0.5 143.5,-0.5"/>
<text text-anchor="start" x="151.5" y="-18.5" font-family="Helvetica,sans-Serif" font-size="10.00">mn::remove_volatile</text>
<text text-anchor="middle" x="202.5" y="-7.5" font-family="Helvetica,sans-Serif" font-size="10.00">&lt; T volatile &gt;</text>
</a>
</g>
</g>
<!-- Node1&#45;&gt;Node16 -->
<g id="edge15" class="edge">
<title>Node1&#45;&gt;Node16</title>
<path fill="none" stroke="midnightblue" d="M48.82,-150.21C59.05,-121.96 81.93,-69.56 119,-40.5 126.18,-34.87 134.63,-30.5 143.33,-27.11"/>
<polygon fill="midnightblue" stroke="midnightblue" points="45.48,-149.16 45.51,-159.75 52.09,-151.45 45.48,-149.16"/>
</g>
<!-- Node3 -->
<g id="node3" class="node">
<title>Node3</title>
<g id="a_node3"><a xlink:href="structmn_1_1remove__cv.html" target="_top" xlink:title=" ">
<polygon fill="white" stroke="black" points="324.5,-308 324.5,-327 445.5,-327 445.5,-308 324.5,-308"/>
<text text-anchor="middle" x="385" y="-315" font-family="Helvetica,sans-Serif" font-size="10.00">mn::remove_cv&lt; T &gt;</text>
</a>
</g>
</g>
<!-- Node2&#45;&gt;Node3 -->
<g id="edge2" class="edge">
<title>Node2&#45;&gt;Node3</title>
<path fill="none" stroke="midnightblue" d="M296.09,-317.5C305.7,-317.5 315.27,-317.5 324.37,-317.5"/>
<polygon fill="midnightblue" stroke="midnightblue" points="296.09,-314 286.09,-317.5 296.09,-321 296.09,-314"/>
</g>
<!-- Node4 -->
<g id="node4" class="node">
<title>Node4</title>
<g id="a_node4"><a xlink:href="structmn_1_1decay3.html" target="_top" xlink:title=" ">
<polygon fill="white" stroke="black" points="500,-308 500,-327 602,-327 602,-308 500,-308"/>
<text text-anchor="middle" x="551" y="-315" font-family="Helvetica,sans-Serif" font-size="10.00">mn::decay3&lt; T &gt;</text>
</a>
</g>
</g>
<!-- Node3&#45;&gt;Node4 -->
<g id="edge3" class="edge">
<title>Node3&#45;&gt;Node4</title>
<path fill="none" stroke="midnightblue" d="M455.8,-317.5C470.59,-317.5 485.93,-317.5 499.82,-317.5"/>
<polygon fill="midnightblue" stroke="midnightblue" points="455.67,-314 445.67,-317.5 455.67,-321 455.67,-314"/>
</g>
<!-- Node5 -->
<g id="node5" class="node">
<title>Node5</title>
<g id="a_node5"><a xlink:href="structmn_1_1decay2.html" target="_top" xlink:title=" ">
<polygon fill="white" stroke="black" points="654,-324.5 654,-354.5 776,-354.5 776,-324.5 654,-324.5"/>
<text text-anchor="start" x="662" y="-342.5" font-family="Helvetica,sans-Serif" font-size="10.00">mn::decay2&lt; remove</text>
<text text-anchor="middle" x="715" y="-331.5" font-family="Helvetica,sans-Serif" font-size="10.00">_reference_t&lt; T &gt; &gt;</text>
</a>
</g>
</g>
<!-- Node4&#45;&gt;Node5 -->
<g id="edge4" class="edge">
<title>Node4&#45;&gt;Node5</title>
<path fill="none" stroke="midnightblue" d="M612.55,-325.72C626.1,-327.56 640.46,-329.51 653.99,-331.35"/>
<polygon fill="midnightblue" stroke="midnightblue" points="612.75,-322.22 602.37,-324.34 611.81,-329.15 612.75,-322.22"/>
</g>
<!-- Node7 -->
<g id="node7" class="node">
<title>Node7</title>
<g id="a_node7"><a xlink:href="structmn_1_1decay2.html" target="_top" xlink:title=" ">
<polygon fill="white" stroke="black" points="664,-286 664,-305 766,-305 766,-286 664,-286"/>
<text text-anchor="middle" x="715" y="-293" font-family="Helvetica,sans-Serif" font-size="10.00">mn::decay2&lt; T &gt;</text>
</a>
</g>
</g>
<!-- Node4&#45;&gt;Node7 -->
<g id="edge6" class="edge">
<title>Node4&#45;&gt;Node7</title>
<path fill="none" stroke="midnightblue" d="M612.7,-309.26C629.59,-306.96 647.73,-304.5 663.94,-302.3"/>
<polygon fill="midnightblue" stroke="midnightblue" points="611.81,-305.85 602.37,-310.66 612.75,-312.78 611.81,-305.85"/>
</g>
<!-- Node6 -->
<g id="node6" class="node">
<title>Node6</title>
<g id="a_node6"><a xlink:href="structmn_1_1decay.html" target="_top" xlink:title=" ">
<polygon fill="white" stroke="black" points="812,-330 812,-349 908,-349 908,-330 812,-330"/>
<text text-anchor="middle" x="860" y="-337" font-family="Helvetica,sans-Serif" font-size="10.00">mn::decay&lt; T &gt;</text>
</a>
</g>
</g>
<!-- Node5&#45;&gt;Node6 -->
<g id="edge5" class="edge">
<title>Node5&#45;&gt;Node6</title>
<path fill="none" stroke="midnightblue" d="M786.35,-339.5C795,-339.5 803.68,-339.5 811.87,-339.5"/>
<polygon fill="midnightblue" stroke="midnightblue" points="786.23,-336 776.23,-339.5 786.23,-343 786.23,-336"/>
</g>
<!-- Node10 -->
<g id="node10" class="node">
<title>Node10</title>
<g id="a_node10"><a xlink:href="structmn_1_1remove__cv.html" target="_top" xlink:title=" ">
<polygon fill="white" stroke="black" points="322,-215 322,-256 448,-256 448,-215 322,-215"/>
<text text-anchor="start" x="330" y="-244" font-family="Helvetica,sans-Serif" font-size="10.00">mn::remove_cv&lt; type</text>
<text text-anchor="start" x="330" y="-233" font-family="Helvetica,sans-Serif" font-size="10.00">_t&lt; remove_reference</text>
<text text-anchor="middle" x="385" y="-222" font-family="Helvetica,sans-Serif" font-size="10.00">&lt; T &gt; &gt; &gt;</text>
</a>
</g>
</g>
<!-- Node9&#45;&gt;Node10 -->
<g id="edge9" class="edge">
<title>Node9&#45;&gt;Node10</title>
<path fill="none" stroke="midnightblue" d="M281.03,-235.5C294.65,-235.5 308.67,-235.5 321.81,-235.5"/>
<polygon fill="midnightblue" stroke="midnightblue" points="280.71,-232 270.71,-235.5 280.71,-239 280.71,-232"/>
</g>
<!-- Node11 -->
<g id="node11" class="node">
<title>Node11</title>
<g id="a_node11"><a xlink:href="structmn_1_1remove__cvref.html" target="_top" xlink:title=" ">
<polygon fill="white" stroke="black" points="484,-226 484,-245 618,-245 618,-226 484,-226"/>
<text text-anchor="middle" x="551" y="-233" font-family="Helvetica,sans-Serif" font-size="10.00">mn::remove_cvref&lt; T &gt;</text>
</a>
</g>
</g>
<!-- Node10&#45;&gt;Node11 -->
<g id="edge10" class="edge">
<title>Node10&#45;&gt;Node11</title>
<path fill="none" stroke="midnightblue" d="M458.27,-235.5C466.76,-235.5 475.4,-235.5 483.81,-235.5"/>
<polygon fill="midnightblue" stroke="midnightblue" points="458,-232 448,-235.5 458,-239 458,-232"/>
</g>
</g>
</svg>
