<?xml version="1.0" encoding="UTF-8" standalone="no"?>
<!DOCTYPE svg PUBLIC "-//W3C//DTD SVG 1.1//EN"
 "http://www.w3.org/Graphics/SVG/1.1/DTD/svg11.dtd">
<!-- Generated by graphviz version 2.46.0 (0)
 -->
<!-- Title: mn::is_fundamental&lt; T &gt; Pages: 1 -->
<svg width="151pt" height="117pt"
 viewBox="0.00 0.00 151.00 117.00" xmlns="http://www.w3.org/2000/svg" xmlns:xlink="http://www.w3.org/1999/xlink">
<g id="graph0" class="graph" transform="scale(1 1) rotate(0) translate(4 113)">
<title>mn::is_fundamental&lt; T &gt;</title>
<polygon fill="white" stroke="transparent" points="-4,4 -4,-113 147,-113 147,4 -4,4"/>
<!-- Node1 -->
<g id="node1" class="node">
<title>Node1</title>
<g id="a_node1"><a xlink:title=" ">
<polygon fill="#bfbfbf" stroke="black" points="0,-0.5 0,-19.5 143,-19.5 143,-0.5 0,-0.5"/>
<text text-anchor="middle" x="71.5" y="-7.5" font-family="Helvetica,sans-Serif" font-size="10.00">mn::is_fundamental&lt; T &gt;</text>
</a>
</g>
</g>
<!-- Node2 -->
<g id="node2" class="node">
<title>Node2</title>
<g id="a_node2"><a xlink:href="structmn_1_1integral__constant.html" target="_top" xlink:title=" ">
<polygon fill="white" stroke="black" points="8,-56.5 8,-108.5 135,-108.5 135,-56.5 8,-56.5"/>
<text text-anchor="start" x="16" y="-96.5" font-family="Helvetica,sans-Serif" font-size="10.00">mn::integral_constant</text>
<text text-anchor="start" x="16" y="-85.5" font-family="Helvetica,sans-Serif" font-size="10.00">&lt; bool, is_integral&lt;</text>
<text text-anchor="start" x="16" y="-74.5" font-family="Helvetica,sans-Serif" font-size="10.00"> T &gt;::value||is_rational</text>
<text text-anchor="middle" x="71.5" y="-63.5" font-family="Helvetica,sans-Serif" font-size="10.00">&lt; T &gt;::value &gt;</text>
</a>
</g>
</g>
<!-- Node2&#45;&gt;Node1 -->
<g id="edge1" class="edge">
<title>Node2&#45;&gt;Node1</title>
<path fill="none" stroke="midnightblue" d="M71.5,-46.27C71.5,-36.37 71.5,-26.47 71.5,-19.7"/>
<polygon fill="midnightblue" stroke="midnightblue" points="68,-46.45 71.5,-56.45 75,-46.45 68,-46.45"/>
</g>
</g>
</svg>
