<?xml version="1.0" encoding="UTF-8" standalone="no"?>
<!DOCTYPE svg PUBLIC "-//W3C//DTD SVG 1.1//EN"
 "http://www.w3.org/Graphics/SVG/1.1/DTD/svg11.dtd">
<!-- Generated by graphviz version 2.46.0 (0)
 -->
<!-- Title: mn::is_integral&lt; T &gt; Pages: 1 -->
<svg width="479pt" height="116pt"
 viewBox="0.00 0.00 479.00 116.00" xmlns="http://www.w3.org/2000/svg" xmlns:xlink="http://www.w3.org/1999/xlink">
<g id="graph0" class="graph" transform="scale(1 1) rotate(0) translate(4 112)">
<title>mn::is_integral&lt; T &gt;</title>
<polygon fill="white" stroke="transparent" points="-4,4 -4,-112 475,-112 475,4 -4,4"/>
<!-- Node1 -->
<g id="node1" class="node">
<title>Node1</title>
<g id="a_node1"><a xlink:title=" ">
<polygon fill="#bfbfbf" stroke="black" points="159,-44.5 159,-63.5 277,-63.5 277,-44.5 159,-44.5"/>
<text text-anchor="middle" x="218" y="-51.5" font-family="Helvetica,sans-Serif" font-size="10.00">mn::is_integral&lt; T &gt;</text>
</a>
</g>
</g>
<!-- Node3 -->
<g id="node3" class="node">
<title>Node3</title>
<g id="a_node3"><a xlink:href="structmn_1_1is__integral_3_01const_01T_01_4.html" target="_top" xlink:title=" ">
<polygon fill="white" stroke="black" points="318.5,-88.5 318.5,-107.5 465.5,-107.5 465.5,-88.5 318.5,-88.5"/>
<text text-anchor="middle" x="392" y="-95.5" font-family="Helvetica,sans-Serif" font-size="10.00">mn::is_integral&lt; const T &gt;</text>
</a>
</g>
</g>
<!-- Node1&#45;&gt;Node3 -->
<g id="edge2" class="edge">
<title>Node1&#45;&gt;Node3</title>
<path fill="none" stroke="midnightblue" d="M264.08,-66.19C279.57,-70.33 297.03,-74.93 313,-79 325.43,-82.17 338.99,-85.51 351.28,-88.5"/>
<polygon fill="midnightblue" stroke="midnightblue" points="264.78,-62.76 254.22,-63.55 262.97,-69.52 264.78,-62.76"/>
</g>
<!-- Node4 -->
<g id="node4" class="node">
<title>Node4</title>
<g id="a_node4"><a xlink:href="structmn_1_1is__integral_3_01const_01volatile_01T_01_4.html" target="_top" xlink:title=" ">
<polygon fill="white" stroke="black" points="328.5,-39 328.5,-69 455.5,-69 455.5,-39 328.5,-39"/>
<text text-anchor="start" x="336.5" y="-57" font-family="Helvetica,sans-Serif" font-size="10.00">mn::is_integral&lt; const</text>
<text text-anchor="middle" x="392" y="-46" font-family="Helvetica,sans-Serif" font-size="10.00"> volatile T &gt;</text>
</a>
</g>
</g>
<!-- Node1&#45;&gt;Node4 -->
<g id="edge3" class="edge">
<title>Node1&#45;&gt;Node4</title>
<path fill="none" stroke="midnightblue" d="M287.43,-54C300.96,-54 315.09,-54 328.41,-54"/>
<polygon fill="midnightblue" stroke="midnightblue" points="287.23,-50.5 277.23,-54 287.23,-57.5 287.23,-50.5"/>
</g>
<!-- Node5 -->
<g id="node5" class="node">
<title>Node5</title>
<g id="a_node5"><a xlink:href="structmn_1_1is__integral_3_01volatile_01T_01_4.html" target="_top" xlink:title=" ">
<polygon fill="white" stroke="black" points="313,-0.5 313,-19.5 471,-19.5 471,-0.5 313,-0.5"/>
<text text-anchor="middle" x="392" y="-7.5" font-family="Helvetica,sans-Serif" font-size="10.00">mn::is_integral&lt; volatile T &gt;</text>
</a>
</g>
</g>
<!-- Node1&#45;&gt;Node5 -->
<g id="edge4" class="edge">
<title>Node1&#45;&gt;Node5</title>
<path fill="none" stroke="midnightblue" d="M264.08,-41.81C279.57,-37.67 297.03,-33.07 313,-29 325.43,-25.83 338.99,-22.49 351.28,-19.5"/>
<polygon fill="midnightblue" stroke="midnightblue" points="262.97,-38.48 254.22,-44.45 264.78,-45.24 262.97,-38.48"/>
</g>
<!-- Node2 -->
<g id="node2" class="node">
<title>Node2</title>
<g id="a_node2"><a xlink:href="structmn_1_1integral__constant.html" target="_top" xlink:title=" ">
<polygon fill="white" stroke="black" points="0,-39 0,-69 123,-69 123,-39 0,-39"/>
<text text-anchor="start" x="8" y="-57" font-family="Helvetica,sans-Serif" font-size="10.00">mn::integral_constant</text>
<text text-anchor="middle" x="61.5" y="-46" font-family="Helvetica,sans-Serif" font-size="10.00">&lt; bool, false &gt;</text>
</a>
</g>
</g>
<!-- Node2&#45;&gt;Node1 -->
<g id="edge1" class="edge">
<title>Node2&#45;&gt;Node1</title>
<path fill="none" stroke="midnightblue" d="M133.14,-54C141.73,-54 150.44,-54 158.83,-54"/>
<polygon fill="midnightblue" stroke="midnightblue" points="133.12,-50.5 123.12,-54 133.12,-57.5 133.12,-50.5"/>
</g>
</g>
</svg>
