<?xml version="1.0" encoding="UTF-8" standalone="no"?>
<!DOCTYPE svg PUBLIC "-//W3C//DTD SVG 1.1//EN"
 "http://www.w3.org/Graphics/SVG/1.1/DTD/svg11.dtd">
<!-- Generated by graphviz version 2.46.0 (0)
 -->
<!-- Title: mn::is_void&lt; T &gt; Pages: 1 -->
<svg width="427pt" height="162pt"
 viewBox="0.00 0.00 427.00 162.00" xmlns="http://www.w3.org/2000/svg" xmlns:xlink="http://www.w3.org/1999/xlink">
<g id="graph0" class="graph" transform="scale(1 1) rotate(0) translate(4 158)">
<title>mn::is_void&lt; T &gt;</title>
<polygon fill="white" stroke="transparent" points="-4,4 -4,-158 423,-158 423,4 -4,4"/>
<!-- Node1 -->
<g id="node1" class="node">
<title>Node1</title>
<g id="a_node1"><a xlink:title=" ">
<polygon fill="#bfbfbf" stroke="black" points="154,-67.5 154,-86.5 255,-86.5 255,-67.5 154,-67.5"/>
<text text-anchor="middle" x="204.5" y="-74.5" font-family="Helvetica,sans-Serif" font-size="10.00">mn::is_void&lt; T &gt;</text>
</a>
</g>
</g>
<!-- Node3 -->
<g id="node3" class="node">
<title>Node3</title>
<g id="a_node3"><a xlink:href="structmn_1_1is__void_3_01const_01_t_01_4.html" target="_top" xlink:title=" ">
<polygon fill="white" stroke="black" points="0,-6 0,-25 131,-25 131,-6 0,-6"/>
<text text-anchor="middle" x="65.5" y="-13" font-family="Helvetica,sans-Serif" font-size="10.00">mn::is_void&lt; const T &gt;</text>
</a>
</g>
</g>
<!-- Node1&#45;&gt;Node3 -->
<g id="edge2" class="edge">
<title>Node1&#45;&gt;Node3</title>
<path fill="none" stroke="midnightblue" d="M175.25,-63.48C148.25,-51.92 108.9,-35.08 85.38,-25.01"/>
<polygon fill="midnightblue" stroke="midnightblue" points="174.01,-66.76 184.58,-67.48 176.77,-60.32 174.01,-66.76"/>
</g>
<!-- Node4 -->
<g id="node4" class="node">
<title>Node4</title>
<g id="a_node4"><a xlink:href="structmn_1_1is__void_3_01const_01volatile_01_t_01_4.html" target="_top" xlink:title=" ">
<polygon fill="white" stroke="black" points="149.5,-0.5 149.5,-30.5 259.5,-30.5 259.5,-0.5 149.5,-0.5"/>
<text text-anchor="start" x="157.5" y="-18.5" font-family="Helvetica,sans-Serif" font-size="10.00">mn::is_void&lt; const</text>
<text text-anchor="middle" x="204.5" y="-7.5" font-family="Helvetica,sans-Serif" font-size="10.00"> volatile T &gt;</text>
</a>
</g>
</g>
<!-- Node1&#45;&gt;Node4 -->
<g id="edge3" class="edge">
<title>Node1&#45;&gt;Node4</title>
<path fill="none" stroke="midnightblue" d="M204.5,-57.23C204.5,-48.59 204.5,-38.5 204.5,-30.52"/>
<polygon fill="midnightblue" stroke="midnightblue" points="201,-57.48 204.5,-67.48 208,-57.48 201,-57.48"/>
</g>
<!-- Node5 -->
<g id="node5" class="node">
<title>Node5</title>
<g id="a_node5"><a xlink:href="structmn_1_1is__void_3_01volatile_01_t_01_4.html" target="_top" xlink:title=" ">
<polygon fill="white" stroke="black" points="278,-6 278,-25 419,-25 419,-6 278,-6"/>
<text text-anchor="middle" x="348.5" y="-13" font-family="Helvetica,sans-Serif" font-size="10.00">mn::is_void&lt; volatile T &gt;</text>
</a>
</g>
</g>
<!-- Node1&#45;&gt;Node5 -->
<g id="edge4" class="edge">
<title>Node1&#45;&gt;Node5</title>
<path fill="none" stroke="midnightblue" d="M234.43,-63.63C262.41,-52.07 303.44,-35.12 327.91,-25.01"/>
<polygon fill="midnightblue" stroke="midnightblue" points="233.04,-60.42 225.13,-67.48 235.71,-66.89 233.04,-60.42"/>
</g>
<!-- Node2 -->
<g id="node2" class="node">
<title>Node2</title>
<g id="a_node2"><a xlink:href="structmn_1_1integral__constant.html" target="_top" xlink:title=" ">
<polygon fill="white" stroke="black" points="143,-123.5 143,-153.5 266,-153.5 266,-123.5 143,-123.5"/>
<text text-anchor="start" x="151" y="-141.5" font-family="Helvetica,sans-Serif" font-size="10.00">mn::integral_constant</text>
<text text-anchor="middle" x="204.5" y="-130.5" font-family="Helvetica,sans-Serif" font-size="10.00">&lt; bool, false &gt;</text>
</a>
</g>
</g>
<!-- Node2&#45;&gt;Node1 -->
<g id="edge1" class="edge">
<title>Node2&#45;&gt;Node1</title>
<path fill="none" stroke="midnightblue" d="M204.5,-113.29C204.5,-103.86 204.5,-93.65 204.5,-86.66"/>
<polygon fill="midnightblue" stroke="midnightblue" points="201,-113.4 204.5,-123.4 208,-113.4 201,-113.4"/>
</g>
</g>
</svg>
