<?xml version="1.0" encoding="UTF-8" standalone="no"?>
<!DOCTYPE svg PUBLIC "-//W3C//DTD SVG 1.1//EN"
 "http://www.w3.org/Graphics/SVG/1.1/DTD/svg11.dtd">
<!-- Generated by graphviz version 2.47.3 (0)
 -->
<!-- Title: mn::base_event&lt; TSender, TArgs &gt; Pages: 1 -->
<svg width="157pt" height="128pt"
 viewBox="0.00 0.00 157.00 128.00" xmlns="http://www.w3.org/2000/svg" xmlns:xlink="http://www.w3.org/1999/xlink">
<g id="graph0" class="graph" transform="scale(1 1) rotate(0) translate(4 124)">
<title>mn::base_event&lt; TSender, TArgs &gt;</title>
<polygon fill="white" stroke="transparent" points="-4,4 -4,-124 153,-124 153,4 -4,4"/>
<!-- Node1 -->
<g id="node1" class="node">
<title>Node1</title>
<g id="a_node1"><a xlink:title=" ">
<polygon fill="#bfbfbf" stroke="black" points="0,-0.5 0,-30.5 149,-30.5 149,-0.5 0,-0.5"/>
<text text-anchor="start" x="8" y="-18.5" font-family="Helvetica,sans-Serif" font-size="10.00">mn::base_event&lt; TSender,</text>
<text text-anchor="middle" x="74.5" y="-7.5" font-family="Helvetica,sans-Serif" font-size="10.00"> TArgs &gt;</text>
</a>
</g>
</g>
<!-- Node2 -->
<g id="node2" class="node">
<title>Node2</title>
<g id="a_node2"><a xlink:href="namespacemn.html#namespacemn" target="_top" xlink:title=" ">
<polygon fill="white" stroke="black" points="6,-78.5 6,-119.5 143,-119.5 143,-78.5 6,-78.5"/>
<text text-anchor="start" x="14" y="-107.5" font-family="Helvetica,sans-Serif" font-size="10.00">mn::small_task&lt; void</text>
<text text-anchor="start" x="14" y="-96.5" font-family="Helvetica,sans-Serif" font-size="10.00">(sender_reference, const</text>
<text text-anchor="middle" x="74.5" y="-85.5" font-family="Helvetica,sans-Serif" font-size="10.00"> args_type)&gt;</text>
</a>
</g>
</g>
<!-- Node2&#45;&gt;Node1 -->
<g id="edge1" class="edge">
<title>Node2&#45;&gt;Node1</title>
<path fill="none" stroke="#9a32cd" stroke-dasharray="5,2" d="M74.5,-68.03C74.5,-55.26 74.5,-40.97 74.5,-30.68"/>
<polygon fill="#9a32cd" stroke="#9a32cd" points="71,-68.27 74.5,-78.27 78,-68.27 71,-68.27"/>
<text text-anchor="middle" x="105" y="-52" font-family="Helvetica,sans-Serif" font-size="10.00"> m_ptr2Func</text>
</g>
</g>
</svg>
