<?xml version="1.0" encoding="UTF-8" standalone="no"?>
<!DOCTYPE svg PUBLIC "-//W3C//DTD SVG 1.1//EN"
 "http://www.w3.org/Graphics/SVG/1.1/DTD/svg11.dtd">
<!-- Generated by graphviz version 2.46.0 (0)
 -->
<!-- Title: mn::decay3&lt; T &gt; Pages: 1 -->
<svg width="250pt" height="330pt"
 viewBox="0.00 0.00 250.00 330.00" xmlns="http://www.w3.org/2000/svg" xmlns:xlink="http://www.w3.org/1999/xlink">
<g id="graph0" class="graph" transform="scale(1 1) rotate(0) translate(4 326)">
<title>mn::decay3&lt; T &gt;</title>
<polygon fill="white" stroke="transparent" points="-4,4 -4,-326 246,-326 246,4 -4,4"/>
<!-- Node1 -->
<g id="node1" class="node">
<title>Node1</title>
<g id="a_node1"><a xlink:title=" ">
<polygon fill="#bfbfbf" stroke="black" points="75,-123.5 75,-142.5 177,-142.5 177,-123.5 75,-123.5"/>
<text text-anchor="middle" x="126" y="-130.5" font-family="Helvetica,sans-Serif" font-size="10.00">mn::decay3&lt; T &gt;</text>
</a>
</g>
</g>
<!-- Node5 -->
<g id="node5" class="node">
<title>Node5</title>
<g id="a_node5"><a xlink:href="structmn_1_1decay2.html" target="_top" xlink:title=" ">
<polygon fill="white" stroke="black" points="0,-56.5 0,-86.5 122,-86.5 122,-56.5 0,-56.5"/>
<text text-anchor="start" x="8" y="-74.5" font-family="Helvetica,sans-Serif" font-size="10.00">mn::decay2&lt; remove</text>
<text text-anchor="middle" x="61" y="-63.5" font-family="Helvetica,sans-Serif" font-size="10.00">_reference_t&lt; T &gt; &gt;</text>
</a>
</g>
</g>
<!-- Node1&#45;&gt;Node5 -->
<g id="edge4" class="edge">
<title>Node1&#45;&gt;Node5</title>
<path fill="none" stroke="midnightblue" d="M109.23,-116.65C99.07,-107.35 86.2,-95.57 76.32,-86.52"/>
<polygon fill="midnightblue" stroke="midnightblue" points="106.95,-119.3 116.69,-123.48 111.67,-114.14 106.95,-119.3"/>
</g>
<!-- Node7 -->
<g id="node7" class="node">
<title>Node7</title>
<g id="a_node7"><a xlink:href="structmn_1_1decay2.html" target="_top" xlink:title=" ">
<polygon fill="white" stroke="black" points="140,-62 140,-81 242,-81 242,-62 140,-62"/>
<text text-anchor="middle" x="191" y="-69" font-family="Helvetica,sans-Serif" font-size="10.00">mn::decay2&lt; T &gt;</text>
</a>
</g>
</g>
<!-- Node1&#45;&gt;Node7 -->
<g id="edge6" class="edge">
<title>Node1&#45;&gt;Node7</title>
<path fill="none" stroke="midnightblue" d="M142.77,-116.65C155.16,-105.31 171.58,-90.28 181.7,-81.01"/>
<polygon fill="midnightblue" stroke="midnightblue" points="140.33,-114.14 135.31,-123.48 145.05,-119.3 140.33,-114.14"/>
</g>
<!-- Node2 -->
<g id="node2" class="node">
<title>Node2</title>
<g id="a_node2"><a xlink:href="structmn_1_1remove__cv.html" target="_top" xlink:title=" ">
<polygon fill="white" stroke="black" points="65.5,-179.5 65.5,-198.5 186.5,-198.5 186.5,-179.5 65.5,-179.5"/>
<text text-anchor="middle" x="126" y="-186.5" font-family="Helvetica,sans-Serif" font-size="10.00">mn::remove_cv&lt; T &gt;</text>
</a>
</g>
</g>
<!-- Node2&#45;&gt;Node1 -->
<g id="edge1" class="edge">
<title>Node2&#45;&gt;Node1</title>
<path fill="none" stroke="midnightblue" d="M126,-168.8C126,-159.91 126,-149.78 126,-142.75"/>
<polygon fill="midnightblue" stroke="midnightblue" points="122.5,-169.08 126,-179.08 129.5,-169.08 122.5,-169.08"/>
</g>
<!-- Node3 -->
<g id="node3" class="node">
<title>Node3</title>
<g id="a_node3"><a xlink:href="structmn_1_1remove__const.html" target="_top" xlink:title=" ">
<polygon fill="white" stroke="black" points="42.5,-235.5 42.5,-265.5 209.5,-265.5 209.5,-235.5 42.5,-235.5"/>
<text text-anchor="start" x="50.5" y="-253.5" font-family="Helvetica,sans-Serif" font-size="10.00">mn::remove_const&lt; type</text>
<text text-anchor="middle" x="126" y="-242.5" font-family="Helvetica,sans-Serif" font-size="10.00">_t&lt; remove_volatile&lt; T &gt; &gt; &gt;</text>
</a>
</g>
</g>
<!-- Node3&#45;&gt;Node2 -->
<g id="edge2" class="edge">
<title>Node3&#45;&gt;Node2</title>
<path fill="none" stroke="midnightblue" d="M126,-225.29C126,-215.86 126,-205.65 126,-198.66"/>
<polygon fill="midnightblue" stroke="midnightblue" points="122.5,-225.4 126,-235.4 129.5,-225.4 122.5,-225.4"/>
</g>
<!-- Node4 -->
<g id="node4" class="node">
<title>Node4</title>
<g id="a_node4"><a xlink:href="structmn_1_1tag.html" target="_top" xlink:title=" ">
<polygon fill="white" stroke="black" points="84.5,-302.5 84.5,-321.5 167.5,-321.5 167.5,-302.5 84.5,-302.5"/>
<text text-anchor="middle" x="126" y="-309.5" font-family="Helvetica,sans-Serif" font-size="10.00">mn::tag&lt; T &gt;</text>
</a>
</g>
</g>
<!-- Node4&#45;&gt;Node3 -->
<g id="edge3" class="edge">
<title>Node4&#45;&gt;Node3</title>
<path fill="none" stroke="midnightblue" d="M126,-292.23C126,-283.59 126,-273.5 126,-265.52"/>
<polygon fill="midnightblue" stroke="midnightblue" points="122.5,-292.48 126,-302.48 129.5,-292.48 122.5,-292.48"/>
</g>
<!-- Node6 -->
<g id="node6" class="node">
<title>Node6</title>
<g id="a_node6"><a xlink:href="structmn_1_1decay.html" target="_top" xlink:title=" ">
<polygon fill="white" stroke="black" points="13,-0.5 13,-19.5 109,-19.5 109,-0.5 13,-0.5"/>
<text text-anchor="middle" x="61" y="-7.5" font-family="Helvetica,sans-Serif" font-size="10.00">mn::decay&lt; T &gt;</text>
</a>
</g>
</g>
<!-- Node5&#45;&gt;Node6 -->
<g id="edge5" class="edge">
<title>Node5&#45;&gt;Node6</title>
<path fill="none" stroke="midnightblue" d="M61,-46.29C61,-36.86 61,-26.65 61,-19.66"/>
<polygon fill="midnightblue" stroke="midnightblue" points="57.5,-46.4 61,-56.4 64.5,-46.4 57.5,-46.4"/>
</g>
</g>
</svg>
