<?xml version="1.0" encoding="UTF-8" standalone="no"?>
<!DOCTYPE svg PUBLIC "-//W3C//DTD SVG 1.1//EN"
 "http://www.w3.org/Graphics/SVG/1.1/DTD/svg11.dtd">
<!-- Generated by graphviz version 2.47.3 (0)
 -->
<!-- Title: mn::memory::is_thread_safe_allocator&lt; TAlloC &gt; Pages: 1 -->
<svg width="340pt" height="61pt"
 viewBox="0.00 0.00 340.00 61.00" xmlns="http://www.w3.org/2000/svg" xmlns:xlink="http://www.w3.org/1999/xlink">
<g id="graph0" class="graph" transform="scale(1 1) rotate(0) translate(4 57)">
<title>mn::memory::is_thread_safe_allocator&lt; TAlloC &gt;</title>
<polygon fill="white" stroke="transparent" points="-4,4 -4,-57 336,-57 336,4 -4,4"/>
<!-- Node1 -->
<g id="node1" class="node">
<title>Node1</title>
<g id="a_node1"><a xlink:title=" ">
<polygon fill="#bfbfbf" stroke="black" points="188,-11.5 188,-41.5 332,-41.5 332,-11.5 188,-11.5"/>
<text text-anchor="start" x="196" y="-29.5" font-family="Helvetica,sans-Serif" font-size="10.00">mn::memory::is_thread</text>
<text text-anchor="middle" x="260" y="-18.5" font-family="Helvetica,sans-Serif" font-size="10.00">_safe_allocator&lt; TAlloC &gt;</text>
</a>
</g>
</g>
<!-- Node2 -->
<g id="node2" class="node">
<title>Node2</title>
<g id="a_node2"><a xlink:href="structmn_1_1integral__constant.html" target="_top" xlink:title=" ">
<polygon fill="white" stroke="black" points="0,-0.5 0,-52.5 152,-52.5 152,-0.5 0,-0.5"/>
<text text-anchor="start" x="8" y="-40.5" font-family="Helvetica,sans-Serif" font-size="10.00">mn::integral_constant</text>
<text text-anchor="start" x="8" y="-29.5" font-family="Helvetica,sans-Serif" font-size="10.00">&lt; bool, internal::allocator</text>
<text text-anchor="start" x="8" y="-18.5" font-family="Helvetica,sans-Serif" font-size="10.00">_traits&lt; TAlloC &gt;::is_thread</text>
<text text-anchor="middle" x="76" y="-7.5" font-family="Helvetica,sans-Serif" font-size="10.00">_safe::value &gt;</text>
</a>
</g>
</g>
<!-- Node2&#45;&gt;Node1 -->
<g id="edge1" class="edge">
<title>Node2&#45;&gt;Node1</title>
<path fill="none" stroke="midnightblue" d="M162.14,-26.5C170.76,-26.5 179.45,-26.5 187.9,-26.5"/>
<polygon fill="midnightblue" stroke="midnightblue" points="162.08,-23 152.08,-26.5 162.08,-30 162.08,-23"/>
</g>
</g>
</svg>
